<?xml version="1.0" encoding="UTF-8" standalone="no"?>
<!DOCTYPE svg PUBLIC "-//W3C//DTD SVG 1.1//EN"
 "http://www.w3.org/Graphics/SVG/1.1/DTD/svg11.dtd">
<!-- Generated by graphviz version 2.44.1 (20200629.0846)
 -->
<!-- Title: dependencies Pages: 1 -->
<svg width="7027pt" height="284pt"
 viewBox="0.00 0.00 7027.00 284.00" xmlns="http://www.w3.org/2000/svg" xmlns:xlink="http://www.w3.org/1999/xlink">
<g id="graph0" class="graph" transform="scale(1 1) rotate(0) translate(4 280)">
<title>dependencies</title>
<polygon fill="white" stroke="transparent" points="-4,4 -4,-280 7023,-280 7023,4 -4,4"/>
<text text-anchor="start" x="3488.51" y="-42.4" font-family="sans-serif" font-weight="bold" font-size="14.00">Legend</text>
<polygon fill="#ffffb3" stroke="transparent" points="3275.5,-10 3275.5,-30 3295.5,-30 3295.5,-10 3275.5,-10"/>
<text text-anchor="start" x="3299.13" y="-15.4" font-family="sans-serif" font-size="14.00"> &#160;Declarations</text>
<polygon fill="#8dd3c7" stroke="transparent" points="3388.5,-10 3388.5,-30 3408.5,-30 3408.5,-10 3388.5,-10"/>
<text text-anchor="start" x="3412.23" y="-15.4" font-family="sans-serif" font-size="14.00"> &#160;Module</text>
<polygon fill="#80b1d3" stroke="transparent" points="3474.5,-10 3474.5,-30 3494.5,-30 3494.5,-10 3474.5,-10"/>
<text text-anchor="start" x="3498.28" y="-15.4" font-family="sans-serif" font-size="14.00"> &#160;Bootstrap</text>
<polygon fill="#fdb462" stroke="transparent" points="3571.5,-10 3571.5,-30 3591.5,-30 3591.5,-10 3571.5,-10"/>
<text text-anchor="start" x="3595.17" y="-15.4" font-family="sans-serif" font-size="14.00"> &#160;Providers</text>
<polygon fill="#fb8072" stroke="transparent" points="3667.5,-10 3667.5,-30 3687.5,-30 3687.5,-10 3667.5,-10"/>
<text text-anchor="start" x="3691.23" y="-15.4" font-family="sans-serif" font-size="14.00"> &#160;Exports</text>
<g id="clust1" class="cluster">
<title>cluster_NuiDashboardConfiguratorModule</title>
<polygon fill="none" stroke="black" stroke-dasharray="1,5" points="8,-70 8,-268 7011,-268 7011,-70 8,-70"/>
</g>
<g id="clust26" class="cluster">
<title>cluster_NuiDashboardConfiguratorModule_imports</title>
<polygon fill="none" stroke="black" points="6639,-78 6639,-130 7003,-130 7003,-78 6639,-78"/>
</g>
<g id="clust27" class="cluster">
<title>cluster_NuiDashboardConfiguratorModule_exports</title>
<polygon fill="none" stroke="black" points="1050,-208 1050,-260 6222,-260 6222,-208 1050,-208"/>
</g>
<g id="clust2" class="cluster">
<title>cluster_NuiDashboardConfiguratorModule_declarations</title>
<polygon fill="none" stroke="black" points="1537,-78 1537,-130 6631,-130 6631,-78 1537,-78"/>
</g>
<g id="clust29" class="cluster">
<title>cluster_NuiDashboardConfiguratorModule_providers</title>
<polygon fill="none" stroke="black" points="16,-78 16,-130 1529,-130 1529,-78 16,-78"/>
</g>
<!-- AddDataPipe -->
<g id="node1" class="node">
<title>AddDataPipe</title>
<polygon fill="#ffffb3" stroke="black" points="6622.92,-122 6531.08,-122 6531.08,-86 6622.92,-86 6622.92,-122"/>
<text text-anchor="middle" x="6577" y="-99.8" font-family="Times,serif" font-size="14.00">AddDataPipe</text>
</g>
<!-- NuiDashboardConfiguratorModule -->
<g id="node24" class="node">
<title>NuiDashboardConfiguratorModule</title>
<polygon fill="#8dd3c7" stroke="black" points="3766.5,-187 3763.5,-191 3742.5,-191 3739.5,-187 3553.5,-187 3553.5,-151 3766.5,-151 3766.5,-187"/>
<text text-anchor="middle" x="3660" y="-164.8" font-family="Times,serif" font-size="14.00">NuiDashboardConfiguratorModule</text>
</g>
<!-- AddDataPipe&#45;&gt;NuiDashboardConfiguratorModule -->
<g id="edge1" class="edge">
<title>AddDataPipe&#45;&gt;NuiDashboardConfiguratorModule</title>
<path fill="none" stroke="black" d="M6577,-122.11C6577,-141.34 6577,-169 6577,-169 6577,-169 3776.84,-169 3776.84,-169"/>
<polygon fill="black" stroke="black" points="3776.84,-165.5 3766.84,-169 3776.84,-172.5 3776.84,-165.5"/>
</g>
<!-- AggregatorMetricSelectorConfigurationComponent -->
<g id="node2" class="node">
<title>AggregatorMetricSelectorConfigurationComponent</title>
<polygon fill="#ffffb3" stroke="black" points="6513.31,-122 6206.69,-122 6206.69,-86 6513.31,-86 6513.31,-122"/>
<text text-anchor="middle" x="6360" y="-99.8" font-family="Times,serif" font-size="14.00">AggregatorMetricSelectorConfigurationComponent</text>
</g>
<!-- AggregatorMetricSelectorConfigurationComponent&#45;&gt;NuiDashboardConfiguratorModule -->
<g id="edge2" class="edge">
<title>AggregatorMetricSelectorConfigurationComponent&#45;&gt;NuiDashboardConfiguratorModule</title>
<path fill="none" stroke="black" d="M6210.53,-122.22C6210.53,-140.83 6210.53,-167 6210.53,-167 6210.53,-167 3776.75,-167 3776.75,-167"/>
<polygon fill="black" stroke="black" points="3776.75,-163.5 3766.75,-167 3776.75,-170.5 3776.75,-163.5"/>
</g>
<!-- ColorPickerComponent -->
<g id="node3" class="node">
<title>ColorPickerComponent</title>
<polygon fill="#ffffb3" stroke="black" points="6188.48,-122 6039.52,-122 6039.52,-86 6188.48,-86 6188.48,-122"/>
<text text-anchor="middle" x="6114" y="-99.8" font-family="Times,serif" font-size="14.00">ColorPickerComponent</text>
</g>
<!-- ColorPickerComponent&#45;&gt;NuiDashboardConfiguratorModule -->
<g id="edge3" class="edge">
<title>ColorPickerComponent&#45;&gt;NuiDashboardConfiguratorModule</title>
<path fill="none" stroke="black" d="M6070.33,-122.27C6070.33,-140.56 6070.33,-166 6070.33,-166 6070.33,-166 3776.68,-166 3776.68,-166"/>
<polygon fill="black" stroke="black" points="3776.68,-162.5 3766.68,-166 3776.68,-169.5 3776.68,-162.5"/>
</g>
<!-- ConfiguratorHeadingComponent -->
<g id="node4" class="node">
<title>ConfiguratorHeadingComponent</title>
<polygon fill="#ffffb3" stroke="black" points="6021.57,-122 5820.43,-122 5820.43,-86 6021.57,-86 6021.57,-122"/>
<text text-anchor="middle" x="5921" y="-99.8" font-family="Times,serif" font-size="14.00">ConfiguratorHeadingComponent</text>
</g>
<!-- ConfiguratorHeadingComponent&#45;&gt;NuiDashboardConfiguratorModule -->
<g id="edge4" class="edge">
<title>ConfiguratorHeadingComponent&#45;&gt;NuiDashboardConfiguratorModule</title>
<path fill="none" stroke="black" d="M5921,-122.3C5921,-140.27 5921,-165 5921,-165 5921,-165 3776.77,-165 3776.77,-165"/>
<polygon fill="black" stroke="black" points="3776.77,-161.5 3766.77,-165 3776.77,-168.5 3776.77,-161.5"/>
</g>
<!-- DashwizButtonsComponent -->
<g id="node5" class="node">
<title>DashwizButtonsComponent</title>
<polygon fill="#ffffb3" stroke="black" points="5802.87,-122 5629.13,-122 5629.13,-86 5802.87,-86 5802.87,-122"/>
<text text-anchor="middle" x="5716" y="-99.8" font-family="Times,serif" font-size="14.00">DashwizButtonsComponent</text>
</g>
<!-- DashwizButtonsComponent&#45;&gt;NuiDashboardConfiguratorModule -->
<g id="edge5" class="edge">
<title>DashwizButtonsComponent&#45;&gt;NuiDashboardConfiguratorModule</title>
<path fill="none" stroke="black" d="M5701.15,-122.02C5701.15,-139.37 5701.15,-163 5701.15,-163 5701.15,-163 3776.51,-163 3776.51,-163"/>
<polygon fill="black" stroke="black" points="3776.51,-159.5 3766.51,-163 3776.51,-166.5 3776.51,-159.5"/>
</g>
<!-- DashwizComponent -->
<g id="node6" class="node">
<title>DashwizComponent</title>
<polygon fill="#ffffb3" stroke="black" points="5611.31,-122 5480.69,-122 5480.69,-86 5611.31,-86 5611.31,-122"/>
<text text-anchor="middle" x="5546" y="-99.8" font-family="Times,serif" font-size="14.00">DashwizComponent</text>
</g>
<!-- DashwizComponent&#45;&gt;NuiDashboardConfiguratorModule -->
<g id="edge6" class="edge">
<title>DashwizComponent&#45;&gt;NuiDashboardConfiguratorModule</title>
<path fill="none" stroke="black" d="M5541.57,-122.03C5541.57,-139.06 5541.57,-162 5541.57,-162 5541.57,-162 3776.55,-162 3776.55,-162"/>
<polygon fill="black" stroke="black" points="3776.55,-158.5 3766.55,-162 3776.55,-165.5 3776.55,-158.5"/>
</g>
<!-- DashwizStepComponent -->
<g id="node7" class="node">
<title>DashwizStepComponent</title>
<polygon fill="#ffffb3" stroke="black" points="5462.7,-122 5307.3,-122 5307.3,-86 5462.7,-86 5462.7,-122"/>
<text text-anchor="middle" x="5385" y="-99.8" font-family="Times,serif" font-size="14.00">DashwizStepComponent</text>
</g>
<!-- DashwizStepComponent&#45;&gt;NuiDashboardConfiguratorModule -->
<g id="edge7" class="edge">
<title>DashwizStepComponent&#45;&gt;NuiDashboardConfiguratorModule</title>
<path fill="none" stroke="black" d="M5343.54,-122.04C5343.54,-138.73 5343.54,-161 5343.54,-161 5343.54,-161 3776.59,-161 3776.59,-161"/>
<polygon fill="black" stroke="black" points="3776.59,-157.5 3766.59,-161 3776.59,-164.5 3776.59,-157.5"/>
</g>
<!-- DataSourceConfigurationComponent -->
<g id="node8" class="node">
<title>DataSourceConfigurationComponent</title>
<polygon fill="#ffffb3" stroke="black" points="5289.68,-122 5064.32,-122 5064.32,-86 5289.68,-86 5289.68,-122"/>
<text text-anchor="middle" x="5177" y="-99.8" font-family="Times,serif" font-size="14.00">DataSourceConfigurationComponent</text>
</g>
<!-- DataSourceConfigurationComponent&#45;&gt;NuiDashboardConfiguratorModule -->
<g id="edge8" class="edge">
<title>DataSourceConfigurationComponent&#45;&gt;NuiDashboardConfiguratorModule</title>
<path fill="none" stroke="black" d="M5124.16,-122.01C5124.16,-138.05 5124.16,-159 5124.16,-159 5124.16,-159 3776.77,-159 3776.77,-159"/>
<polygon fill="black" stroke="black" points="3776.77,-155.5 3766.77,-159 3776.77,-162.5 3776.77,-155.5"/>
</g>
<!-- DataSourceConfigurationV2Component -->
<g id="node9" class="node">
<title>DataSourceConfigurationV2Component</title>
<polygon fill="#ffffb3" stroke="black" points="5046.28,-122 4803.72,-122 4803.72,-86 5046.28,-86 5046.28,-122"/>
<text text-anchor="middle" x="4925" y="-99.8" font-family="Times,serif" font-size="14.00">DataSourceConfigurationV2Component</text>
</g>
<!-- DataSourceConfigurationV2Component&#45;&gt;NuiDashboardConfiguratorModule -->
<g id="edge9" class="edge">
<title>DataSourceConfigurationV2Component&#45;&gt;NuiDashboardConfiguratorModule</title>
<path fill="none" stroke="black" d="M4829.6,-122.28C4829.6,-137.95 4829.6,-158 4829.6,-158 4829.6,-158 3776.63,-158 3776.63,-158"/>
<polygon fill="black" stroke="black" points="3776.63,-154.5 3766.63,-158 3776.63,-161.5 3776.63,-154.5"/>
</g>
<!-- DonutContentConfigurationComponent -->
<g id="node10" class="node">
<title>DonutContentConfigurationComponent</title>
<polygon fill="#ffffb3" stroke="black" points="4785.71,-122 4546.29,-122 4546.29,-86 4785.71,-86 4785.71,-122"/>
<text text-anchor="middle" x="4666" y="-99.8" font-family="Times,serif" font-size="14.00">DonutContentConfigurationComponent</text>
</g>
<!-- DonutContentConfigurationComponent&#45;&gt;NuiDashboardConfiguratorModule -->
<g id="edge10" class="edge">
<title>DonutContentConfigurationComponent&#45;&gt;NuiDashboardConfiguratorModule</title>
<path fill="none" stroke="black" d="M4577.64,-122.24C4577.64,-137.57 4577.64,-157 4577.64,-157 4577.64,-157 3776.61,-157 3776.61,-157"/>
<polygon fill="black" stroke="black" points="3776.61,-153.5 3766.61,-157 3776.61,-160.5 3776.61,-153.5"/>
</g>
<!-- EntityFormattingConfigurationComponent -->
<g id="node11" class="node">
<title>EntityFormattingConfigurationComponent</title>
<polygon fill="#ffffb3" stroke="black" points="4528.32,-122 4271.68,-122 4271.68,-86 4528.32,-86 4528.32,-122"/>
<text text-anchor="middle" x="4400" y="-99.8" font-family="Times,serif" font-size="14.00">EntityFormattingConfigurationComponent</text>
</g>
<!-- EntityFormattingConfigurationComponent&#45;&gt;NuiDashboardConfiguratorModule -->
<g id="edge11" class="edge">
<title>EntityFormattingConfigurationComponent&#45;&gt;NuiDashboardConfiguratorModule</title>
<path fill="none" stroke="black" d="M4308.6,-122.12C4308.6,-136.78 4308.6,-155 4308.6,-155 4308.6,-155 3776.74,-155 3776.74,-155"/>
<polygon fill="black" stroke="black" points="3776.74,-151.5 3766.74,-155 3776.74,-158.5 3776.74,-151.5"/>
</g>
<!-- FieldMapperAggregatorConfiguratorComponent -->
<g id="node12" class="node">
<title>FieldMapperAggregatorConfiguratorComponent</title>
<polygon fill="#ffffb3" stroke="black" points="4253.71,-122 3964.29,-122 3964.29,-86 4253.71,-86 4253.71,-122"/>
<text text-anchor="middle" x="4109" y="-99.8" font-family="Times,serif" font-size="14.00">FieldMapperAggregatorConfiguratorComponent</text>
</g>
<!-- FieldMapperAggregatorConfiguratorComponent&#45;&gt;NuiDashboardConfiguratorModule -->
<g id="edge12" class="edge">
<title>FieldMapperAggregatorConfiguratorComponent&#45;&gt;NuiDashboardConfiguratorModule</title>
<path fill="none" stroke="black" d="M4024.53,-122.05C4024.53,-136.37 4024.53,-154 4024.53,-154 4024.53,-154 3776.91,-154 3776.91,-154"/>
<polygon fill="black" stroke="black" points="3776.91,-150.5 3766.91,-154 3776.91,-157.5 3776.91,-150.5"/>
</g>
<!-- FormHeaderIconPipePipe -->
<g id="node13" class="node">
<title>FormHeaderIconPipePipe</title>
<polygon fill="#ffffb3" stroke="black" points="3945.9,-122 3784.1,-122 3784.1,-86 3945.9,-86 3945.9,-122"/>
<text text-anchor="middle" x="3865" y="-99.8" font-family="Times,serif" font-size="14.00">FormHeaderIconPipePipe</text>
</g>
<!-- FormHeaderIconPipePipe&#45;&gt;NuiDashboardConfiguratorModule -->
<g id="edge13" class="edge">
<title>FormHeaderIconPipePipe&#45;&gt;NuiDashboardConfiguratorModule</title>
<path fill="none" stroke="black" d="M3795.45,-122.25C3795.45,-136.18 3795.45,-153 3795.45,-153 3795.45,-153 3776.73,-153 3776.73,-153"/>
<polygon fill="black" stroke="black" points="3776.73,-149.5 3766.73,-153 3776.73,-156.5 3776.73,-149.5"/>
</g>
<!-- GroupingConfigurationComponent -->
<g id="node14" class="node">
<title>GroupingConfigurationComponent</title>
<polygon fill="#ffffb3" stroke="black" points="3766.53,-122 3553.47,-122 3553.47,-86 3766.53,-86 3766.53,-122"/>
<text text-anchor="middle" x="3660" y="-99.8" font-family="Times,serif" font-size="14.00">GroupingConfigurationComponent</text>
</g>
<!-- GroupingConfigurationComponent&#45;&gt;NuiDashboardConfiguratorModule -->
<g id="edge14" class="edge">
<title>GroupingConfigurationComponent&#45;&gt;NuiDashboardConfiguratorModule</title>
<path fill="none" stroke="black" d="M3660,-122.11C3660,-122.11 3660,-140.99 3660,-140.99"/>
<polygon fill="black" stroke="black" points="3656.5,-140.99 3660,-150.99 3663.5,-140.99 3656.5,-140.99"/>
</g>
<!-- PercentageFormatterComponent -->
<g id="node15" class="node">
<title>PercentageFormatterComponent</title>
<polygon fill="#ffffb3" stroke="black" points="3534.94,-122 3337.06,-122 3337.06,-86 3534.94,-86 3534.94,-122"/>
<text text-anchor="middle" x="3436" y="-99.8" font-family="Times,serif" font-size="14.00">PercentageFormatterComponent</text>
</g>
<!-- PercentageFormatterComponent&#45;&gt;NuiDashboardConfiguratorModule -->
<g id="edge15" class="edge">
<title>PercentageFormatterComponent&#45;&gt;NuiDashboardConfiguratorModule</title>
<path fill="none" stroke="black" d="M3524.18,-122.25C3524.18,-136.18 3524.18,-153 3524.18,-153 3524.18,-153 3543.32,-153 3543.32,-153"/>
<polygon fill="black" stroke="black" points="3543.32,-156.5 3553.32,-153 3543.32,-149.5 3543.32,-156.5"/>
</g>
<!-- PizzagnaRootPipe -->
<g id="node16" class="node">
<title>PizzagnaRootPipe</title>
<polygon fill="#ffffb3" stroke="black" points="3319.15,-122 3200.85,-122 3200.85,-86 3319.15,-86 3319.15,-122"/>
<text text-anchor="middle" x="3260" y="-99.8" font-family="Times,serif" font-size="14.00">PizzagnaRootPipe</text>
</g>
<!-- PizzagnaRootPipe&#45;&gt;NuiDashboardConfiguratorModule -->
<g id="edge16" class="edge">
<title>PizzagnaRootPipe&#45;&gt;NuiDashboardConfiguratorModule</title>
<path fill="none" stroke="black" d="M3275.24,-122.05C3275.24,-136.37 3275.24,-154 3275.24,-154 3275.24,-154 3543.33,-154 3543.33,-154"/>
<polygon fill="black" stroke="black" points="3543.33,-157.5 3553.33,-154 3543.33,-150.5 3543.33,-157.5"/>
</g>
<!-- ProportionalChartOptionsEditorV2Component -->
<g id="node17" class="node">
<title>ProportionalChartOptionsEditorV2Component</title>
<polygon fill="#ffffb3" stroke="black" points="3182.36,-122 2903.64,-122 2903.64,-86 3182.36,-86 3182.36,-122"/>
<text text-anchor="middle" x="3043" y="-99.8" font-family="Times,serif" font-size="14.00">ProportionalChartOptionsEditorV2Component</text>
</g>
<!-- ProportionalChartOptionsEditorV2Component&#45;&gt;NuiDashboardConfiguratorModule -->
<g id="edge17" class="edge">
<title>ProportionalChartOptionsEditorV2Component&#45;&gt;NuiDashboardConfiguratorModule</title>
<path fill="none" stroke="black" d="M3138.96,-122.12C3138.96,-136.78 3138.96,-155 3138.96,-155 3138.96,-155 3543.3,-155 3543.3,-155"/>
<polygon fill="black" stroke="black" points="3543.3,-158.5 3553.3,-155 3543.3,-151.5 3543.3,-158.5"/>
</g>
<!-- RefreshRateConfiguratorComponent -->
<g id="node18" class="node">
<title>RefreshRateConfiguratorComponent</title>
<polygon fill="#ffffb3" stroke="black" points="2885.33,-122 2662.67,-122 2662.67,-86 2885.33,-86 2885.33,-122"/>
<text text-anchor="middle" x="2774" y="-99.8" font-family="Times,serif" font-size="14.00">RefreshRateConfiguratorComponent</text>
</g>
<!-- RefreshRateConfiguratorComponent&#45;&gt;NuiDashboardConfiguratorModule -->
<g id="edge18" class="edge">
<title>RefreshRateConfiguratorComponent&#45;&gt;NuiDashboardConfiguratorModule</title>
<path fill="none" stroke="black" d="M2880.85,-122.24C2880.85,-137.57 2880.85,-157 2880.85,-157 2880.85,-157 3543.3,-157 3543.3,-157"/>
<polygon fill="black" stroke="black" points="3543.3,-160.5 3553.3,-157 3543.3,-153.5 3543.3,-160.5"/>
</g>
<!-- WidgetClonerComponent -->
<g id="node19" class="node">
<title>WidgetClonerComponent</title>
<polygon fill="#ffffb3" stroke="black" points="2644.15,-122 2483.85,-122 2483.85,-86 2644.15,-86 2644.15,-122"/>
<text text-anchor="middle" x="2564" y="-99.8" font-family="Times,serif" font-size="14.00">WidgetClonerComponent</text>
</g>
<!-- WidgetClonerComponent&#45;&gt;NuiDashboardConfiguratorModule -->
<g id="edge19" class="edge">
<title>WidgetClonerComponent&#45;&gt;NuiDashboardConfiguratorModule</title>
<path fill="none" stroke="black" d="M2564,-122.28C2564,-137.95 2564,-158 2564,-158 2564,-158 3543.42,-158 3543.42,-158"/>
<polygon fill="black" stroke="black" points="3543.42,-161.5 3553.42,-158 3543.42,-154.5 3543.42,-161.5"/>
</g>
<!-- WidgetConfiguratorSectionComponent -->
<g id="node20" class="node">
<title>WidgetConfiguratorSectionComponent</title>
<polygon fill="#ffffb3" stroke="black" points="2465.35,-122 2228.65,-122 2228.65,-86 2465.35,-86 2465.35,-122"/>
<text text-anchor="middle" x="2347" y="-99.8" font-family="Times,serif" font-size="14.00">WidgetConfiguratorSectionComponent</text>
</g>
<!-- WidgetConfiguratorSectionComponent&#45;&gt;NuiDashboardConfiguratorModule -->
<g id="edge20" class="edge">
<title>WidgetConfiguratorSectionComponent&#45;&gt;NuiDashboardConfiguratorModule</title>
<path fill="none" stroke="black" d="M2450.62,-122.01C2450.62,-138.05 2450.62,-159 2450.62,-159 2450.62,-159 3543.47,-159 3543.47,-159"/>
<polygon fill="black" stroke="black" points="3543.47,-162.5 3553.47,-159 3543.47,-155.5 3543.47,-162.5"/>
</g>
<!-- WidgetConfiguratorSectionHeaderPipe -->
<g id="node21" class="node">
<title>WidgetConfiguratorSectionHeaderPipe</title>
<polygon fill="#ffffb3" stroke="black" points="2210.32,-122 1973.68,-122 1973.68,-86 2210.32,-86 2210.32,-122"/>
<text text-anchor="middle" x="2092" y="-99.8" font-family="Times,serif" font-size="14.00">WidgetConfiguratorSectionHeaderPipe</text>
</g>
<!-- WidgetConfiguratorSectionHeaderPipe&#45;&gt;NuiDashboardConfiguratorModule -->
<g id="edge21" class="edge">
<title>WidgetConfiguratorSectionHeaderPipe&#45;&gt;NuiDashboardConfiguratorModule</title>
<path fill="none" stroke="black" d="M2201.12,-122.04C2201.12,-138.73 2201.12,-161 2201.12,-161 2201.12,-161 3543.32,-161 3543.32,-161"/>
<polygon fill="black" stroke="black" points="3543.32,-164.5 3553.32,-161 3543.32,-157.5 3543.32,-164.5"/>
</g>
<!-- WidgetEditorAccordionFormStatePipe -->
<g id="node22" class="node">
<title>WidgetEditorAccordionFormStatePipe</title>
<polygon fill="#ffffb3" stroke="black" points="1955.01,-122 1720.99,-122 1720.99,-86 1955.01,-86 1955.01,-122"/>
<text text-anchor="middle" x="1838" y="-99.8" font-family="Times,serif" font-size="14.00">WidgetEditorAccordionFormStatePipe</text>
</g>
<!-- WidgetEditorAccordionFormStatePipe&#45;&gt;NuiDashboardConfiguratorModule -->
<g id="edge22" class="edge">
<title>WidgetEditorAccordionFormStatePipe&#45;&gt;NuiDashboardConfiguratorModule</title>
<path fill="none" stroke="black" d="M1853.54,-122.03C1853.54,-139.06 1853.54,-162 1853.54,-162 1853.54,-162 3543.41,-162 3543.41,-162"/>
<polygon fill="black" stroke="black" points="3543.41,-165.5 3553.41,-162 3543.41,-158.5 3543.41,-165.5"/>
</g>
<!-- WidgetEditorComponent -->
<g id="node23" class="node">
<title>WidgetEditorComponent</title>
<polygon fill="#ffffb3" stroke="black" points="1702.54,-122 1545.46,-122 1545.46,-86 1702.54,-86 1702.54,-122"/>
<text text-anchor="middle" x="1624" y="-99.8" font-family="Times,serif" font-size="14.00">WidgetEditorComponent</text>
</g>
<!-- WidgetEditorComponent&#45;&gt;NuiDashboardConfiguratorModule -->
<g id="edge23" class="edge">
<title>WidgetEditorComponent&#45;&gt;NuiDashboardConfiguratorModule</title>
<path fill="none" stroke="black" d="M1624,-122.02C1624,-139.37 1624,-163 1624,-163 1624,-163 3543.4,-163 3543.4,-163"/>
<polygon fill="black" stroke="black" points="3543.4,-166.5 3553.4,-163 3543.4,-159.5 3543.4,-166.5"/>
</g>
<!-- AddDataPipe  -->
<g id="node27" class="node">
<title>AddDataPipe </title>
<polygon fill="#fb8072" stroke="black" points="6214.42,-252 6119.58,-252 6119.58,-216 6214.42,-216 6214.42,-252"/>
<text text-anchor="middle" x="6167" y="-229.8" font-family="Times,serif" font-size="14.00">AddDataPipe </text>
</g>
<!-- NuiDashboardConfiguratorModule&#45;&gt;AddDataPipe  -->
<g id="edge26" class="edge">
<title>NuiDashboardConfiguratorModule&#45;&gt;AddDataPipe </title>
<path fill="none" stroke="black" stroke-dasharray="5,2" d="M3766.77,-173C4243.47,-173 6154.02,-173 6154.02,-173 6154.02,-173 6154.02,-205.7 6154.02,-205.7"/>
<polygon fill="black" stroke="black" points="6150.52,-205.7 6154.02,-215.7 6157.52,-205.7 6150.52,-205.7"/>
</g>
<!-- AggregatorMetricSelectorConfigurationComponent  -->
<g id="node28" class="node">
<title>AggregatorMetricSelectorConfigurationComponent </title>
<polygon fill="#fb8072" stroke="black" points="6101.31,-252 5790.69,-252 5790.69,-216 6101.31,-216 6101.31,-252"/>
<text text-anchor="middle" x="5946" y="-229.8" font-family="Times,serif" font-size="14.00">AggregatorMetricSelectorConfigurationComponent </text>
</g>
<!-- NuiDashboardConfiguratorModule&#45;&gt;AggregatorMetricSelectorConfigurationComponent  -->
<g id="edge27" class="edge">
<title>NuiDashboardConfiguratorModule&#45;&gt;AggregatorMetricSelectorConfigurationComponent </title>
<path fill="none" stroke="black" stroke-dasharray="5,2" d="M3766.7,-174C4198.95,-174 5796.89,-174 5796.89,-174 5796.89,-174 5796.89,-206 5796.89,-206"/>
<polygon fill="black" stroke="black" points="5793.39,-206 5796.89,-216 5800.39,-206 5793.39,-206"/>
</g>
<!-- ColorPickerComponent  -->
<g id="node29" class="node">
<title>ColorPickerComponent </title>
<polygon fill="#fb8072" stroke="black" points="5773.48,-252 5620.52,-252 5620.52,-216 5773.48,-216 5773.48,-252"/>
<text text-anchor="middle" x="5697" y="-229.8" font-family="Times,serif" font-size="14.00">ColorPickerComponent </text>
</g>
<!-- NuiDashboardConfiguratorModule&#45;&gt;ColorPickerComponent  -->
<g id="edge28" class="edge">
<title>NuiDashboardConfiguratorModule&#45;&gt;ColorPickerComponent </title>
<path fill="none" stroke="black" stroke-dasharray="5,2" d="M3766.69,-175C4176.25,-175 5624.91,-175 5624.91,-175 5624.91,-175 5624.91,-205.98 5624.91,-205.98"/>
<polygon fill="black" stroke="black" points="5621.41,-205.98 5624.91,-215.98 5628.41,-205.98 5621.41,-205.98"/>
</g>
<!-- ConfiguratorHeadingComponent  -->
<g id="node30" class="node">
<title>ConfiguratorHeadingComponent </title>
<polygon fill="#fb8072" stroke="black" points="5602.07,-252 5397.93,-252 5397.93,-216 5602.07,-216 5602.07,-252"/>
<text text-anchor="middle" x="5500" y="-229.8" font-family="Times,serif" font-size="14.00">ConfiguratorHeadingComponent </text>
</g>
<!-- NuiDashboardConfiguratorModule&#45;&gt;ConfiguratorHeadingComponent  -->
<g id="edge29" class="edge">
<title>NuiDashboardConfiguratorModule&#45;&gt;ConfiguratorHeadingComponent </title>
<path fill="none" stroke="black" stroke-dasharray="5,2" d="M3766.74,-177C4149.45,-177 5430.16,-177 5430.16,-177 5430.16,-177 5430.16,-205.96 5430.16,-205.96"/>
<polygon fill="black" stroke="black" points="5426.66,-205.96 5430.16,-215.96 5433.66,-205.96 5426.66,-205.96"/>
</g>
<!-- DashwizButtonsComponent  -->
<g id="node31" class="node">
<title>DashwizButtonsComponent </title>
<polygon fill="#fb8072" stroke="black" points="5379.87,-252 5202.13,-252 5202.13,-216 5379.87,-216 5379.87,-252"/>
<text text-anchor="middle" x="5291" y="-229.8" font-family="Times,serif" font-size="14.00">DashwizButtonsComponent </text>
</g>
<!-- NuiDashboardConfiguratorModule&#45;&gt;DashwizButtonsComponent  -->
<g id="edge30" class="edge">
<title>NuiDashboardConfiguratorModule&#45;&gt;DashwizButtonsComponent </title>
<path fill="none" stroke="black" stroke-dasharray="5,2" d="M3766.52,-178C4122.11,-178 5245.95,-178 5245.95,-178 5245.95,-178 5245.95,-205.97 5245.95,-205.97"/>
<polygon fill="black" stroke="black" points="5242.45,-205.97 5245.95,-215.97 5249.45,-205.97 5242.45,-205.97"/>
</g>
<!-- DashwizComponent  -->
<g id="node32" class="node">
<title>DashwizComponent </title>
<polygon fill="#fb8072" stroke="black" points="5183.81,-252 5050.19,-252 5050.19,-216 5183.81,-216 5183.81,-252"/>
<text text-anchor="middle" x="5117" y="-229.8" font-family="Times,serif" font-size="14.00">DashwizComponent </text>
</g>
<!-- NuiDashboardConfiguratorModule&#45;&gt;DashwizComponent  -->
<g id="edge31" class="edge">
<title>NuiDashboardConfiguratorModule&#45;&gt;DashwizComponent </title>
<path fill="none" stroke="black" stroke-dasharray="5,2" d="M3766.74,-179C4093.37,-179 5057.25,-179 5057.25,-179 5057.25,-179 5057.25,-205.99 5057.25,-205.99"/>
<polygon fill="black" stroke="black" points="5053.75,-205.99 5057.25,-215.99 5060.75,-205.99 5053.75,-205.99"/>
</g>
<!-- DashwizStepComponent  -->
<g id="node33" class="node">
<title>DashwizStepComponent </title>
<polygon fill="#fb8072" stroke="black" points="5032.2,-252 4873.8,-252 4873.8,-216 5032.2,-216 5032.2,-252"/>
<text text-anchor="middle" x="4953" y="-229.8" font-family="Times,serif" font-size="14.00">DashwizStepComponent </text>
</g>
<!-- NuiDashboardConfiguratorModule&#45;&gt;DashwizStepComponent  -->
<g id="edge32" class="edge">
<title>NuiDashboardConfiguratorModule&#45;&gt;DashwizStepComponent </title>
<path fill="none" stroke="black" stroke-dasharray="5,2" d="M3766.64,-181C4076.18,-181 4953,-181 4953,-181 4953,-181 4953,-205.76 4953,-205.76"/>
<polygon fill="black" stroke="black" points="4949.5,-205.76 4953,-215.76 4956.5,-205.76 4949.5,-205.76"/>
</g>
<!-- DataSourceConfigurationComponent  -->
<g id="node34" class="node">
<title>DataSourceConfigurationComponent </title>
<polygon fill="#fb8072" stroke="black" points="4855.18,-252 4626.82,-252 4626.82,-216 4855.18,-216 4855.18,-252"/>
<text text-anchor="middle" x="4741" y="-229.8" font-family="Times,serif" font-size="14.00">DataSourceConfigurationComponent </text>
</g>
<!-- NuiDashboardConfiguratorModule&#45;&gt;DataSourceConfigurationComponent  -->
<g id="edge33" class="edge">
<title>NuiDashboardConfiguratorModule&#45;&gt;DataSourceConfigurationComponent </title>
<path fill="none" stroke="black" stroke-dasharray="5,2" d="M3766.55,-182C4032.84,-182 4706.13,-182 4706.13,-182 4706.13,-182 4706.13,-205.81 4706.13,-205.81"/>
<polygon fill="black" stroke="black" points="4702.63,-205.81 4706.13,-215.81 4709.63,-205.81 4702.63,-205.81"/>
</g>
<!-- DataSourceConfigurationV2Component  -->
<g id="node35" class="node">
<title>DataSourceConfigurationV2Component </title>
<polygon fill="#fb8072" stroke="black" points="4608.78,-252 4363.22,-252 4363.22,-216 4608.78,-216 4608.78,-252"/>
<text text-anchor="middle" x="4486" y="-229.8" font-family="Times,serif" font-size="14.00">DataSourceConfigurationV2Component </text>
</g>
<!-- NuiDashboardConfiguratorModule&#45;&gt;DataSourceConfigurationV2Component  -->
<g id="edge34" class="edge">
<title>NuiDashboardConfiguratorModule&#45;&gt;DataSourceConfigurationV2Component </title>
<path fill="none" stroke="black" stroke-dasharray="5,2" d="M3766.77,-183C3981.58,-183 4445.63,-183 4445.63,-183 4445.63,-183 4445.63,-205.88 4445.63,-205.88"/>
<polygon fill="black" stroke="black" points="4442.13,-205.88 4445.63,-215.88 4449.13,-205.88 4442.13,-205.88"/>
</g>
<!-- DonutContentConfigurationComponent  -->
<g id="node36" class="node">
<title>DonutContentConfigurationComponent </title>
<polygon fill="#fb8072" stroke="black" points="4345.21,-252 4102.79,-252 4102.79,-216 4345.21,-216 4345.21,-252"/>
<text text-anchor="middle" x="4224" y="-229.8" font-family="Times,serif" font-size="14.00">DonutContentConfigurationComponent </text>
</g>
<!-- NuiDashboardConfiguratorModule&#45;&gt;DonutContentConfigurationComponent  -->
<g id="edge35" class="edge">
<title>NuiDashboardConfiguratorModule&#45;&gt;DonutContentConfigurationComponent </title>
<path fill="none" stroke="black" stroke-dasharray="5,2" d="M3766.75,-185C3918.46,-185 4178.25,-185 4178.25,-185 4178.25,-185 4178.25,-205.75 4178.25,-205.75"/>
<polygon fill="black" stroke="black" points="4174.75,-205.75 4178.25,-215.75 4181.75,-205.75 4174.75,-205.75"/>
</g>
<!-- EntityFormattingConfigurationComponent  -->
<g id="node37" class="node">
<title>EntityFormattingConfigurationComponent </title>
<polygon fill="#fb8072" stroke="black" points="4084.82,-252 3825.18,-252 3825.18,-216 4084.82,-216 4084.82,-252"/>
<text text-anchor="middle" x="3955" y="-229.8" font-family="Times,serif" font-size="14.00">EntityFormattingConfigurationComponent </text>
</g>
<!-- NuiDashboardConfiguratorModule&#45;&gt;EntityFormattingConfigurationComponent  -->
<g id="edge36" class="edge">
<title>NuiDashboardConfiguratorModule&#45;&gt;EntityFormattingConfigurationComponent </title>
<path fill="none" stroke="black" stroke-dasharray="5,2" d="M3766.76,-186C3825.01,-186 3885.39,-186 3885.39,-186 3885.39,-186 3885.39,-205.85 3885.39,-205.85"/>
<polygon fill="black" stroke="black" points="3881.89,-205.85 3885.39,-215.85 3888.89,-205.85 3881.89,-205.85"/>
</g>
<!-- FieldMapperAggregatorConfiguratorComponent  -->
<g id="node38" class="node">
<title>FieldMapperAggregatorConfiguratorComponent </title>
<polygon fill="#fb8072" stroke="black" points="3806.71,-252 3513.29,-252 3513.29,-216 3806.71,-216 3806.71,-252"/>
<text text-anchor="middle" x="3660" y="-229.8" font-family="Times,serif" font-size="14.00">FieldMapperAggregatorConfiguratorComponent </text>
</g>
<!-- NuiDashboardConfiguratorModule&#45;&gt;FieldMapperAggregatorConfiguratorComponent  -->
<g id="edge37" class="edge">
<title>NuiDashboardConfiguratorModule&#45;&gt;FieldMapperAggregatorConfiguratorComponent </title>
<path fill="none" stroke="black" stroke-dasharray="5,2" d="M3660,-187.11C3660,-187.11 3660,-205.99 3660,-205.99"/>
<polygon fill="black" stroke="black" points="3656.5,-205.99 3660,-215.99 3663.5,-205.99 3656.5,-205.99"/>
</g>
<!-- FormHeaderIconPipePipe  -->
<g id="node39" class="node">
<title>FormHeaderIconPipePipe </title>
<polygon fill="#fb8072" stroke="black" points="3495.4,-252 3330.6,-252 3330.6,-216 3495.4,-216 3495.4,-252"/>
<text text-anchor="middle" x="3413" y="-229.8" font-family="Times,serif" font-size="14.00">FormHeaderIconPipePipe </text>
</g>
<!-- NuiDashboardConfiguratorModule&#45;&gt;FormHeaderIconPipePipe  -->
<g id="edge38" class="edge">
<title>NuiDashboardConfiguratorModule&#45;&gt;FormHeaderIconPipePipe </title>
<path fill="none" stroke="black" stroke-dasharray="5,2" d="M3553.44,-186C3487.84,-186 3416.24,-186 3416.24,-186 3416.24,-186 3416.24,-205.85 3416.24,-205.85"/>
<polygon fill="black" stroke="black" points="3412.74,-205.85 3416.24,-215.85 3419.74,-205.85 3412.74,-205.85"/>
</g>
<!-- GroupingConfigurationComponent  -->
<g id="node40" class="node">
<title>GroupingConfigurationComponent </title>
<polygon fill="#fb8072" stroke="black" points="3312.53,-252 3095.47,-252 3095.47,-216 3312.53,-216 3312.53,-252"/>
<text text-anchor="middle" x="3204" y="-229.8" font-family="Times,serif" font-size="14.00">GroupingConfigurationComponent </text>
</g>
<!-- NuiDashboardConfiguratorModule&#45;&gt;GroupingConfigurationComponent  -->
<g id="edge39" class="edge">
<title>NuiDashboardConfiguratorModule&#45;&gt;GroupingConfigurationComponent </title>
<path fill="none" stroke="black" stroke-dasharray="5,2" d="M3553.23,-185C3428.2,-185 3237.96,-185 3237.96,-185 3237.96,-185 3237.96,-205.75 3237.96,-205.75"/>
<polygon fill="black" stroke="black" points="3234.46,-205.75 3237.96,-215.75 3241.46,-205.75 3234.46,-205.75"/>
</g>
<!-- PercentageFormatterComponent  -->
<g id="node41" class="node">
<title>PercentageFormatterComponent </title>
<polygon fill="#fb8072" stroke="black" points="3077.94,-252 2876.06,-252 2876.06,-216 3077.94,-216 3077.94,-252"/>
<text text-anchor="middle" x="2977" y="-229.8" font-family="Times,serif" font-size="14.00">PercentageFormatterComponent </text>
</g>
<!-- NuiDashboardConfiguratorModule&#45;&gt;PercentageFormatterComponent  -->
<g id="edge40" class="edge">
<title>NuiDashboardConfiguratorModule&#45;&gt;PercentageFormatterComponent </title>
<path fill="none" stroke="black" stroke-dasharray="5,2" d="M3553.2,-183C3364.22,-183 2990.65,-183 2990.65,-183 2990.65,-183 2990.65,-205.88 2990.65,-205.88"/>
<polygon fill="black" stroke="black" points="2987.15,-205.88 2990.65,-215.88 2994.15,-205.88 2987.15,-205.88"/>
</g>
<!-- PizzagnaRootPipe  -->
<g id="node42" class="node">
<title>PizzagnaRootPipe </title>
<polygon fill="#fb8072" stroke="black" points="2858.15,-252 2735.85,-252 2735.85,-216 2858.15,-216 2858.15,-252"/>
<text text-anchor="middle" x="2797" y="-229.8" font-family="Times,serif" font-size="14.00">PizzagnaRootPipe </text>
</g>
<!-- NuiDashboardConfiguratorModule&#45;&gt;PizzagnaRootPipe  -->
<g id="edge41" class="edge">
<title>NuiDashboardConfiguratorModule&#45;&gt;PizzagnaRootPipe </title>
<path fill="none" stroke="black" stroke-dasharray="5,2" d="M3553.31,-182C3322.42,-182 2797,-182 2797,-182 2797,-182 2797,-205.81 2797,-205.81"/>
<polygon fill="black" stroke="black" points="2793.5,-205.81 2797,-215.81 2800.5,-205.81 2793.5,-205.81"/>
</g>
<!-- ProportionalChartOptionsEditorV2Component  -->
<g id="node43" class="node">
<title>ProportionalChartOptionsEditorV2Component </title>
<polygon fill="#fb8072" stroke="black" points="2718.36,-252 2435.64,-252 2435.64,-216 2718.36,-216 2718.36,-252"/>
<text text-anchor="middle" x="2577" y="-229.8" font-family="Times,serif" font-size="14.00">ProportionalChartOptionsEditorV2Component </text>
</g>
<!-- NuiDashboardConfiguratorModule&#45;&gt;ProportionalChartOptionsEditorV2Component  -->
<g id="edge42" class="edge">
<title>NuiDashboardConfiguratorModule&#45;&gt;ProportionalChartOptionsEditorV2Component </title>
<path fill="none" stroke="black" stroke-dasharray="5,2" d="M3553.46,-181C3301.58,-181 2690.38,-181 2690.38,-181 2690.38,-181 2690.38,-205.76 2690.38,-205.76"/>
<polygon fill="black" stroke="black" points="2686.88,-205.76 2690.38,-215.76 2693.88,-205.76 2686.88,-205.76"/>
</g>
<!-- RefreshRateConfiguratorComponent  -->
<g id="node44" class="node">
<title>RefreshRateConfiguratorComponent </title>
<polygon fill="#fb8072" stroke="black" points="2418.33,-252 2191.67,-252 2191.67,-216 2418.33,-216 2418.33,-252"/>
<text text-anchor="middle" x="2305" y="-229.8" font-family="Times,serif" font-size="14.00">RefreshRateConfiguratorComponent </text>
</g>
<!-- NuiDashboardConfiguratorModule&#45;&gt;RefreshRateConfiguratorComponent  -->
<g id="edge43" class="edge">
<title>NuiDashboardConfiguratorModule&#45;&gt;RefreshRateConfiguratorComponent </title>
<path fill="none" stroke="black" stroke-dasharray="5,2" d="M3553.44,-179C3236.78,-179 2323.37,-179 2323.37,-179 2323.37,-179 2323.37,-205.99 2323.37,-205.99"/>
<polygon fill="black" stroke="black" points="2319.87,-205.99 2323.37,-215.99 2326.87,-205.99 2319.87,-205.99"/>
</g>
<!-- WidgetClonerComponent  -->
<g id="node45" class="node">
<title>WidgetClonerComponent </title>
<polygon fill="#fb8072" stroke="black" points="2174.15,-252 2009.85,-252 2009.85,-216 2174.15,-216 2174.15,-252"/>
<text text-anchor="middle" x="2092" y="-229.8" font-family="Times,serif" font-size="14.00">WidgetClonerComponent </text>
</g>
<!-- NuiDashboardConfiguratorModule&#45;&gt;WidgetClonerComponent  -->
<g id="edge44" class="edge">
<title>NuiDashboardConfiguratorModule&#45;&gt;WidgetClonerComponent </title>
<path fill="none" stroke="black" stroke-dasharray="5,2" d="M3553.46,-178C3200.54,-178 2092,-178 2092,-178 2092,-178 2092,-205.97 2092,-205.97"/>
<polygon fill="black" stroke="black" points="2088.5,-205.97 2092,-215.97 2095.5,-205.97 2088.5,-205.97"/>
</g>
<!-- WidgetConfiguratorSectionComponent  -->
<g id="node46" class="node">
<title>WidgetConfiguratorSectionComponent </title>
<polygon fill="#fb8072" stroke="black" points="1992.35,-252 1751.65,-252 1751.65,-216 1992.35,-216 1992.35,-252"/>
<text text-anchor="middle" x="1872" y="-229.8" font-family="Times,serif" font-size="14.00">WidgetConfiguratorSectionComponent </text>
</g>
<!-- NuiDashboardConfiguratorModule&#45;&gt;WidgetConfiguratorSectionComponent  -->
<g id="edge45" class="edge">
<title>NuiDashboardConfiguratorModule&#45;&gt;WidgetConfiguratorSectionComponent </title>
<path fill="none" stroke="black" stroke-dasharray="5,2" d="M3553.18,-177C3183.77,-177 1982.88,-177 1982.88,-177 1982.88,-177 1982.88,-205.96 1982.88,-205.96"/>
<polygon fill="black" stroke="black" points="1979.38,-205.96 1982.88,-215.96 1986.38,-205.96 1979.38,-205.96"/>
</g>
<!-- WidgetConfiguratorSectionHeaderPipe  -->
<g id="node47" class="node">
<title>WidgetConfiguratorSectionHeaderPipe </title>
<polygon fill="#fb8072" stroke="black" points="1734.32,-252 1493.68,-252 1493.68,-216 1734.32,-216 1734.32,-252"/>
<text text-anchor="middle" x="1614" y="-229.8" font-family="Times,serif" font-size="14.00">WidgetConfiguratorSectionHeaderPipe </text>
</g>
<!-- NuiDashboardConfiguratorModule&#45;&gt;WidgetConfiguratorSectionHeaderPipe  -->
<g id="edge46" class="edge">
<title>NuiDashboardConfiguratorModule&#45;&gt;WidgetConfiguratorSectionHeaderPipe </title>
<path fill="none" stroke="black" stroke-dasharray="5,2" d="M3553.35,-175C3148.21,-175 1727.45,-175 1727.45,-175 1727.45,-175 1727.45,-205.98 1727.45,-205.98"/>
<polygon fill="black" stroke="black" points="1723.95,-205.98 1727.45,-215.98 1730.95,-205.98 1723.95,-205.98"/>
</g>
<!-- WidgetEditorAccordionFormStatePipe  -->
<g id="node48" class="node">
<title>WidgetEditorAccordionFormStatePipe </title>
<polygon fill="#fb8072" stroke="black" points="1476.01,-252 1237.99,-252 1237.99,-216 1476.01,-216 1476.01,-252"/>
<text text-anchor="middle" x="1357" y="-229.8" font-family="Times,serif" font-size="14.00">WidgetEditorAccordionFormStatePipe </text>
</g>
<!-- NuiDashboardConfiguratorModule&#45;&gt;WidgetEditorAccordionFormStatePipe  -->
<g id="edge47" class="edge">
<title>NuiDashboardConfiguratorModule&#45;&gt;WidgetEditorAccordionFormStatePipe </title>
<path fill="none" stroke="black" stroke-dasharray="5,2" d="M3553.3,-174C3106.45,-174 1408.57,-174 1408.57,-174 1408.57,-174 1408.57,-206 1408.57,-206"/>
<polygon fill="black" stroke="black" points="1405.07,-206 1408.57,-216 1412.07,-206 1405.07,-206"/>
</g>
<!-- WidgetEditorComponent  -->
<g id="node49" class="node">
<title>WidgetEditorComponent </title>
<polygon fill="#fb8072" stroke="black" points="1219.54,-252 1058.46,-252 1058.46,-216 1219.54,-216 1219.54,-252"/>
<text text-anchor="middle" x="1139" y="-229.8" font-family="Times,serif" font-size="14.00">WidgetEditorComponent </text>
</g>
<!-- NuiDashboardConfiguratorModule&#45;&gt;WidgetEditorComponent  -->
<g id="edge48" class="edge">
<title>NuiDashboardConfiguratorModule&#45;&gt;WidgetEditorComponent </title>
<path fill="none" stroke="black" stroke-dasharray="5,2" d="M3553.25,-173C3076.61,-173 1166.31,-173 1166.31,-173 1166.31,-173 1166.31,-205.7 1166.31,-205.7"/>
<polygon fill="black" stroke="black" points="1162.81,-205.7 1166.31,-215.7 1169.81,-205.7 1162.81,-205.7"/>
</g>
<!-- NuiDashboardsCommonModule -->
<g id="node25" class="node">
<title>NuiDashboardsCommonModule</title>
<polygon fill="#8dd3c7" stroke="black" points="6995.25,-122 6992.25,-126 6971.25,-126 6968.25,-122 6796.75,-122 6796.75,-86 6995.25,-86 6995.25,-122"/>
<text text-anchor="middle" x="6896" y="-99.8" font-family="Times,serif" font-size="14.00">NuiDashboardsCommonModule</text>
</g>
<!-- NuiDashboardsCommonModule&#45;&gt;NuiDashboardConfiguratorModule -->
<g id="edge24" class="edge">
<title>NuiDashboardsCommonModule&#45;&gt;NuiDashboardConfiguratorModule</title>
<path fill="none" stroke="black" d="M6896,-122.31C6896,-142.15 6896,-171 6896,-171 6896,-171 3776.75,-171 3776.75,-171"/>
<polygon fill="black" stroke="black" points="3776.75,-167.5 3766.75,-171 3776.75,-174.5 3776.75,-167.5"/>
</g>
<!-- NuiPizzagnaModule -->
<g id="node26" class="node">
<title>NuiPizzagnaModule</title>
<polygon fill="#8dd3c7" stroke="black" points="6778.58,-122 6775.58,-126 6754.58,-126 6751.58,-122 6647.42,-122 6647.42,-86 6778.58,-86 6778.58,-122"/>
<text text-anchor="middle" x="6713" y="-99.8" font-family="Times,serif" font-size="14.00">NuiPizzagnaModule</text>
</g>
<!-- NuiPizzagnaModule&#45;&gt;NuiDashboardConfiguratorModule -->
<g id="edge25" class="edge">
<title>NuiPizzagnaModule&#45;&gt;NuiDashboardConfiguratorModule</title>
<path fill="none" stroke="black" d="M6713,-122.03C6713,-141.58 6713,-170 6713,-170 6713,-170 3776.87,-170 3776.87,-170"/>
<polygon fill="black" stroke="black" points="3776.87,-166.5 3766.87,-170 3776.87,-173.5 3776.87,-166.5"/>
</g>
<!-- ConfiguratorService -->
<g id="node50" class="node">
<title>ConfiguratorService</title>
<ellipse fill="#fdb462" stroke="black" cx="1431" cy="-104" rx="89.75" ry="18"/>
<text text-anchor="middle" x="1431" y="-99.8" font-family="Times,serif" font-size="14.00">ConfiguratorService</text>
</g>
<!-- ConfiguratorService&#45;&gt;NuiDashboardConfiguratorModule -->
<g id="edge49" class="edge">
<title>ConfiguratorService&#45;&gt;NuiDashboardConfiguratorModule</title>
<path fill="none" stroke="black" d="M1507.36,-113.53C1507.36,-130.69 1507.36,-165 1507.36,-165 1507.36,-165 3543.25,-165 3543.25,-165"/>
<polygon fill="black" stroke="black" points="3543.25,-168.5 3553.25,-165 3543.25,-161.5 3543.25,-168.5"/>
</g>
<!-- KpiWidgetColorService -->
<g id="node51" class="node">
<title>KpiWidgetColorService</title>
<ellipse fill="#fdb462" stroke="black" cx="1218" cy="-104" rx="104.79" ry="18"/>
<text text-anchor="middle" x="1218" y="-99.8" font-family="Times,serif" font-size="14.00">KpiWidgetColorService</text>
</g>
<!-- KpiWidgetColorService&#45;&gt;NuiDashboardConfiguratorModule -->
<g id="edge50" class="edge">
<title>KpiWidgetColorService&#45;&gt;NuiDashboardConfiguratorModule</title>
<path fill="none" stroke="black" d="M1280.45,-118.69C1280.45,-137.03 1280.45,-166 1280.45,-166 1280.45,-166 3543.13,-166 3543.13,-166"/>
<polygon fill="black" stroke="black" points="3543.13,-169.5 3553.13,-166 3543.13,-162.5 3543.13,-169.5"/>
</g>
<!-- TimeseriesChartPresetService -->
<g id="node52" class="node">
<title>TimeseriesChartPresetService</title>
<ellipse fill="#fdb462" stroke="black" cx="968" cy="-104" rx="127.31" ry="18"/>
<text text-anchor="middle" x="968" y="-99.8" font-family="Times,serif" font-size="14.00">TimeseriesChartPresetService</text>
</g>
<!-- TimeseriesChartPresetService&#45;&gt;NuiDashboardConfiguratorModule -->
<g id="edge51" class="edge">
<title>TimeseriesChartPresetService&#45;&gt;NuiDashboardConfiguratorModule</title>
<path fill="none" stroke="black" d="M1076.94,-113.57C1076.94,-131.19 1076.94,-167 1076.94,-167 1076.94,-167 3543.11,-167 3543.11,-167"/>
<polygon fill="black" stroke="black" points="3543.11,-170.5 3553.11,-167 3543.11,-163.5 3543.11,-170.5"/>
</g>
<!-- WidgetClonerService -->
<g id="node53" class="node">
<title>WidgetClonerService</title>
<ellipse fill="#fdb462" stroke="black" cx="728" cy="-104" rx="94.9" ry="18"/>
<text text-anchor="middle" x="728" y="-99.8" font-family="Times,serif" font-size="14.00">WidgetClonerService</text>
</g>
<!-- WidgetClonerService&#45;&gt;NuiDashboardConfiguratorModule -->
<g id="edge52" class="edge">
<title>WidgetClonerService&#45;&gt;NuiDashboardConfiguratorModule</title>
<path fill="none" stroke="black" d="M728,-122.11C728,-141.34 728,-169 728,-169 728,-169 3543.48,-169 3543.48,-169"/>
<polygon fill="black" stroke="black" points="3543.48,-172.5 3553.48,-169 3543.48,-165.5 3543.48,-172.5"/>
</g>
<!-- WidgetConfiguratorSectionCoordinatorService -->
<g id="node54" class="node">
<title>WidgetConfiguratorSectionCoordinatorService</title>
<ellipse fill="#fdb462" stroke="black" cx="421" cy="-104" rx="193.86" ry="18"/>
<text text-anchor="middle" x="421" y="-99.8" font-family="Times,serif" font-size="14.00">WidgetConfiguratorSectionCoordinatorService</text>
</g>
<!-- WidgetConfiguratorSectionCoordinatorService&#45;&gt;NuiDashboardConfiguratorModule -->
<g id="edge53" class="edge">
<title>WidgetConfiguratorSectionCoordinatorService&#45;&gt;NuiDashboardConfiguratorModule</title>
<path fill="none" stroke="black" d="M421,-122.03C421,-141.58 421,-170 421,-170 421,-170 3543.16,-170 3543.16,-170"/>
<polygon fill="black" stroke="black" points="3543.16,-173.5 3553.16,-170 3543.16,-166.5 3543.16,-173.5"/>
</g>
<!-- WidgetEditorService -->
<g id="node55" class="node">
<title>WidgetEditorService</title>
<ellipse fill="#fdb462" stroke="black" cx="117" cy="-104" rx="92.61" ry="18"/>
<text text-anchor="middle" x="117" y="-99.8" font-family="Times,serif" font-size="14.00">WidgetEditorService</text>
</g>
<!-- WidgetEditorService&#45;&gt;NuiDashboardConfiguratorModule -->
<g id="edge54" class="edge">
<title>WidgetEditorService&#45;&gt;NuiDashboardConfiguratorModule</title>
<path fill="none" stroke="black" d="M117,-122.31C117,-142.15 117,-171 117,-171 117,-171 3543.48,-171 3543.48,-171"/>
<polygon fill="black" stroke="black" points="3543.48,-174.5 3553.48,-171 3543.48,-167.5 3543.48,-174.5"/>
</g>
</g>
</svg>
