<?xml version="1.0" encoding="UTF-8" standalone="no"?>
<!DOCTYPE svg PUBLIC "-//W3C//DTD SVG 1.1//EN"
 "http://www.w3.org/Graphics/SVG/1.1/DTD/svg11.dtd">
<!-- Generated by graphviz version 2.46.0 (20210119.1425)
 -->
<!-- Title: dependencies Pages: 1 -->
<svg width="638pt" height="284pt"
 viewBox="0.00 0.00 638.00 284.00" xmlns="http://www.w3.org/2000/svg" xmlns:xlink="http://www.w3.org/1999/xlink">
<g id="graph0" class="graph" transform="scale(1 1) rotate(0) translate(4 280)">
<title>dependencies</title>
<polygon fill="white" stroke="transparent" points="-4,4 -4,-280 634,-280 634,4 -4,4"/>
<text text-anchor="start" x="294.01" y="-42.4" font-family="sans-serif" font-weight="bold" font-size="14.00">Legend</text>
<polygon fill="#ffffb3" stroke="transparent" points="81,-10 81,-30 101,-30 101,-10 81,-10"/>
<text text-anchor="start" x="104.63" y="-15.4" font-family="sans-serif" font-size="14.00"> &#160;Declarations</text>
<polygon fill="#8dd3c7" stroke="transparent" points="194,-10 194,-30 214,-30 214,-10 194,-10"/>
<text text-anchor="start" x="217.73" y="-15.4" font-family="sans-serif" font-size="14.00"> &#160;Module</text>
<polygon fill="#80b1d3" stroke="transparent" points="280,-10 280,-30 300,-30 300,-10 280,-10"/>
<text text-anchor="start" x="303.78" y="-15.4" font-family="sans-serif" font-size="14.00"> &#160;Bootstrap</text>
<polygon fill="#fdb462" stroke="transparent" points="377,-10 377,-30 397,-30 397,-10 377,-10"/>
<text text-anchor="start" x="400.67" y="-15.4" font-family="sans-serif" font-size="14.00"> &#160;Providers</text>
<polygon fill="#fb8072" stroke="transparent" points="473,-10 473,-30 493,-30 493,-10 473,-10"/>
<text text-anchor="start" x="496.73" y="-15.4" font-family="sans-serif" font-size="14.00"> &#160;Exports</text>
<g id="clust1" class="cluster">
<title>cluster_NuiLayoutModule</title>
<polygon fill="none" stroke="black" stroke-dasharray="1,5" points="8,-70 8,-268 622,-268 622,-70 8,-70"/>
</g>
<g id="clust2" class="cluster">
<title>cluster_NuiLayoutModule_declarations</title>
<polygon fill="none" stroke="black" points="25,-78 25,-130 607,-130 607,-78 25,-78"/>
</g>
<g id="clust8" class="cluster">
<title>cluster_NuiLayoutModule_exports</title>
<polygon fill="none" stroke="black" points="16,-208 16,-260 614,-260 614,-208 16,-208"/>
</g>
<!-- CardComponent -->
<g id="node1" class="node">
<title>CardComponent</title>
<polygon fill="#ffffb3" stroke="black" points="599.05,-122 490.95,-122 490.95,-86 599.05,-86 599.05,-122"/>
<text text-anchor="middle" x="545" y="-99.8" font-family="Times,serif" font-size="14.00">CardComponent</text>
</g>
<!-- NuiLayoutModule -->
<g id="node5" class="node">
<title>NuiLayoutModule</title>
<polygon fill="#8dd3c7" stroke="black" points="318.2,-187 315.2,-191 294.2,-191 291.2,-187 197.8,-187 197.8,-151 318.2,-151 318.2,-187"/>
<text text-anchor="middle" x="258" y="-164.8" font-family="Times,serif" font-size="14.00">NuiLayoutModule</text>
</g>
<!-- CardComponent&#45;&gt;NuiLayoutModule -->
<g id="edge1" class="edge">
<title>CardComponent&#45;&gt;NuiLayoutModule</title>
<path fill="none" stroke="black" d="M564.17,-122.11C564.17,-141.34 564.17,-169 564.17,-169 564.17,-169 328.12,-169 328.12,-169"/>
<polygon fill="black" stroke="black" points="328.12,-165.5 318.12,-169 328.12,-172.5 328.12,-165.5"/>
</g>
<!-- CardGroupComponent -->
<g id="node2" class="node">
<title>CardGroupComponent</title>
<polygon fill="#ffffb3" stroke="black" points="473.31,-122 328.69,-122 328.69,-86 473.31,-86 473.31,-122"/>
<text text-anchor="middle" x="401" y="-99.8" font-family="Times,serif" font-size="14.00">CardGroupComponent</text>
</g>
<!-- CardGroupComponent&#45;&gt;NuiLayoutModule -->
<g id="edge2" class="edge">
<title>CardGroupComponent&#45;&gt;NuiLayoutModule</title>
<path fill="none" stroke="black" d="M401,-122.03C401,-138.4 401,-160 401,-160 401,-160 328.23,-160 328.23,-160"/>
<polygon fill="black" stroke="black" points="328.23,-156.5 318.23,-160 328.23,-163.5 328.23,-156.5"/>
</g>
<!-- SheetComponent -->
<g id="node3" class="node">
<title>SheetComponent</title>
<polygon fill="#ffffb3" stroke="black" points="311.44,-122 198.56,-122 198.56,-86 311.44,-86 311.44,-122"/>
<text text-anchor="middle" x="255" y="-99.8" font-family="Times,serif" font-size="14.00">SheetComponent</text>
</g>
<!-- SheetComponent&#45;&gt;NuiLayoutModule -->
<g id="edge3" class="edge">
<title>SheetComponent&#45;&gt;NuiLayoutModule</title>
<path fill="none" stroke="black" d="M255,-122.11C255,-122.11 255,-140.99 255,-140.99"/>
<polygon fill="black" stroke="black" points="251.5,-140.99 255,-150.99 258.5,-140.99 251.5,-140.99"/>
</g>
<!-- SheetGroupComponent -->
<g id="node4" class="node">
<title>SheetGroupComponent</title>
<polygon fill="#ffffb3" stroke="black" points="181.2,-122 32.8,-122 32.8,-86 181.2,-86 181.2,-122"/>
<text text-anchor="middle" x="107" y="-99.8" font-family="Times,serif" font-size="14.00">SheetGroupComponent</text>
</g>
<!-- SheetGroupComponent&#45;&gt;NuiLayoutModule -->
<g id="edge4" class="edge">
<title>SheetGroupComponent&#45;&gt;NuiLayoutModule</title>
<path fill="none" stroke="black" d="M128.2,-122.02C128.2,-139.37 128.2,-163 128.2,-163 128.2,-163 187.66,-163 187.66,-163"/>
<polygon fill="black" stroke="black" points="187.66,-166.5 197.66,-163 187.66,-159.5 187.66,-166.5"/>
</g>
<!-- CardComponent  -->
<g id="node6" class="node">
<title>CardComponent </title>
<polygon fill="#fb8072" stroke="black" points="606.04,-252 493.96,-252 493.96,-216 606.04,-216 606.04,-252"/>
<text text-anchor="middle" x="550" y="-229.8" font-family="Times,serif" font-size="14.00">CardComponent </text>
</g>
<!-- NuiLayoutModule&#45;&gt;CardComponent  -->
<g id="edge5" class="edge">
<title>NuiLayoutModule&#45;&gt;CardComponent </title>
<path fill="none" stroke="black" stroke-dasharray="5,2" d="M318.16,-178C398.02,-178 529.08,-178 529.08,-178 529.08,-178 529.08,-205.97 529.08,-205.97"/>
<polygon fill="black" stroke="black" points="525.58,-205.97 529.08,-215.97 532.58,-205.97 525.58,-205.97"/>
</g>
<!-- CardGroupComponent  -->
<g id="node7" class="node">
<title>CardGroupComponent </title>
<polygon fill="#fb8072" stroke="black" points="475.81,-252 328.19,-252 328.19,-216 475.81,-216 475.81,-252"/>
<text text-anchor="middle" x="402" y="-229.8" font-family="Times,serif" font-size="14.00">CardGroupComponent </text>
</g>
<!-- NuiLayoutModule&#45;&gt;CardGroupComponent  -->
<g id="edge6" class="edge">
<title>NuiLayoutModule&#45;&gt;CardGroupComponent </title>
<path fill="none" stroke="black" stroke-dasharray="5,2" d="M314.03,-187.11C314.03,-206.34 314.03,-234 314.03,-234 314.03,-234 318.17,-234 318.17,-234"/>
<polygon fill="black" stroke="black" points="318.17,-237.5 328.17,-234 318.17,-230.5 318.17,-237.5"/>
</g>
<!-- SheetComponent  -->
<g id="node8" class="node">
<title>SheetComponent </title>
<polygon fill="#fb8072" stroke="black" points="309.93,-252 194.07,-252 194.07,-216 309.93,-216 309.93,-252"/>
<text text-anchor="middle" x="252" y="-229.8" font-family="Times,serif" font-size="14.00">SheetComponent </text>
</g>
<!-- NuiLayoutModule&#45;&gt;SheetComponent  -->
<g id="edge7" class="edge">
<title>NuiLayoutModule&#45;&gt;SheetComponent </title>
<path fill="none" stroke="black" stroke-dasharray="5,2" d="M253.93,-187.11C253.93,-187.11 253.93,-205.99 253.93,-205.99"/>
<polygon fill="black" stroke="black" points="250.43,-205.99 253.93,-215.99 257.43,-205.99 250.43,-205.99"/>
</g>
<!-- SheetGroupComponent  -->
<g id="node9" class="node">
<title>SheetGroupComponent </title>
<polygon fill="#fb8072" stroke="black" points="175.7,-252 24.3,-252 24.3,-216 175.7,-216 175.7,-252"/>
<text text-anchor="middle" x="100" y="-229.8" font-family="Times,serif" font-size="14.00">SheetGroupComponent </text>
</g>
<!-- NuiLayoutModule&#45;&gt;SheetGroupComponent  -->
<g id="edge8" class="edge">
<title>NuiLayoutModule&#45;&gt;SheetGroupComponent </title>
<path fill="none" stroke="black" stroke-dasharray="5,2" d="M197.43,-175C146.02,-175 80.55,-175 80.55,-175 80.55,-175 80.55,-205.98 80.55,-205.98"/>
<polygon fill="black" stroke="black" points="77.05,-205.98 80.55,-215.98 84.05,-205.98 77.05,-205.98"/>
</g>
</g>
</svg>
