<?xml version="1.0" encoding="UTF-8" standalone="no"?>
<!DOCTYPE svg PUBLIC "-//W3C//DTD SVG 1.1//EN"
 "http://www.w3.org/Graphics/SVG/1.1/DTD/svg11.dtd">
<!-- Generated by graphviz version 2.44.1 (20200629.0846)
 -->
<!-- Title: dependencies Pages: 1 -->
<svg width="6071pt" height="284pt"
 viewBox="0.00 0.00 6071.00 284.00" xmlns="http://www.w3.org/2000/svg" xmlns:xlink="http://www.w3.org/1999/xlink">
<g id="graph0" class="graph" transform="scale(1 1) rotate(0) translate(4 280)">
<title>dependencies</title>
<polygon fill="white" stroke="transparent" points="-4,4 -4,-280 6067,-280 6067,4 -4,4"/>
<text text-anchor="start" x="3010.51" y="-42.4" font-family="sans-serif" font-weight="bold" font-size="14.00">Legend</text>
<polygon fill="#ffffb3" stroke="transparent" points="2797.5,-10 2797.5,-30 2817.5,-30 2817.5,-10 2797.5,-10"/>
<text text-anchor="start" x="2821.13" y="-15.4" font-family="sans-serif" font-size="14.00"> &#160;Declarations</text>
<polygon fill="#8dd3c7" stroke="transparent" points="2910.5,-10 2910.5,-30 2930.5,-30 2930.5,-10 2910.5,-10"/>
<text text-anchor="start" x="2934.23" y="-15.4" font-family="sans-serif" font-size="14.00"> &#160;Module</text>
<polygon fill="#80b1d3" stroke="transparent" points="2996.5,-10 2996.5,-30 3016.5,-30 3016.5,-10 2996.5,-10"/>
<text text-anchor="start" x="3020.28" y="-15.4" font-family="sans-serif" font-size="14.00"> &#160;Bootstrap</text>
<polygon fill="#fdb462" stroke="transparent" points="3093.5,-10 3093.5,-30 3113.5,-30 3113.5,-10 3093.5,-10"/>
<text text-anchor="start" x="3117.17" y="-15.4" font-family="sans-serif" font-size="14.00"> &#160;Providers</text>
<polygon fill="#fb8072" stroke="transparent" points="3189.5,-10 3189.5,-30 3209.5,-30 3209.5,-10 3189.5,-10"/>
<text text-anchor="start" x="3213.23" y="-15.4" font-family="sans-serif" font-size="14.00"> &#160;Exports</text>
<g id="clust1" class="cluster">
<title>cluster_NuiDashboardsModule</title>
<polygon fill="none" stroke="black" stroke-dasharray="1,5" points="8,-70 8,-268 6055,-268 6055,-70 8,-70"/>
</g>
<g id="clust32" class="cluster">
<title>cluster_NuiDashboardsModule_exports</title>
<polygon fill="none" stroke="black" points="376,-208 376,-260 5664,-260 5664,-208 376,-208"/>
</g>
<g id="clust31" class="cluster">
<title>cluster_NuiDashboardsModule_imports</title>
<polygon fill="none" stroke="black" points="5451,-78 5451,-130 6047,-130 6047,-78 5451,-78"/>
</g>
<g id="clust2" class="cluster">
<title>cluster_NuiDashboardsModule_declarations</title>
<polygon fill="none" stroke="black" points="258,-78 258,-130 5443,-130 5443,-78 258,-78"/>
</g>
<g id="clust34" class="cluster">
<title>cluster_NuiDashboardsModule_providers</title>
<polygon fill="none" stroke="black" points="16,-78 16,-130 250,-130 250,-78 16,-78"/>
</g>
<!-- DashboardComponent -->
<g id="node1" class="node">
<title>DashboardComponent</title>
<polygon fill="#ffffb3" stroke="black" points="5434.97,-122 5293.03,-122 5293.03,-86 5434.97,-86 5434.97,-122"/>
<text text-anchor="middle" x="5364" y="-99.8" font-family="Times,serif" font-size="14.00">DashboardComponent</text>
</g>
<!-- NuiDashboardsModule -->
<g id="node29" class="node">
<title>NuiDashboardsModule</title>
<polygon fill="#8dd3c7" stroke="black" points="3088.13,-187 3085.13,-191 3064.13,-191 3061.13,-187 2941.87,-187 2941.87,-151 3088.13,-151 3088.13,-187"/>
<text text-anchor="middle" x="3015" y="-164.8" font-family="Times,serif" font-size="14.00">NuiDashboardsModule</text>
</g>
<!-- DashboardComponent&#45;&gt;NuiDashboardsModule -->
<g id="edge1" class="edge">
<title>DashboardComponent&#45;&gt;NuiDashboardsModule</title>
<path fill="none" stroke="black" d="M5364,-122.27C5364,-140.56 5364,-166 5364,-166 5364,-166 3098.2,-166 3098.2,-166"/>
<polygon fill="black" stroke="black" points="3098.2,-162.5 3088.2,-166 3098.2,-169.5 3098.2,-162.5"/>
</g>
<!-- DelayedMousePresenceDetectionDirective -->
<g id="node2" class="node">
<title>DelayedMousePresenceDetectionDirective</title>
<polygon fill="#ffffb3" stroke="black" points="5275.5,-122 5018.5,-122 5018.5,-86 5275.5,-86 5275.5,-122"/>
<text text-anchor="middle" x="5147" y="-99.8" font-family="Times,serif" font-size="14.00">DelayedMousePresenceDetectionDirective</text>
</g>
<!-- DelayedMousePresenceDetectionDirective&#45;&gt;NuiDashboardsModule -->
<g id="edge2" class="edge">
<title>DelayedMousePresenceDetectionDirective&#45;&gt;NuiDashboardsModule</title>
<path fill="none" stroke="black" d="M5087.49,-122.3C5087.49,-140.27 5087.49,-165 5087.49,-165 5087.49,-165 3098.15,-165 3098.15,-165"/>
<polygon fill="black" stroke="black" points="3098.15,-161.5 3088.15,-165 3098.15,-168.5 3098.15,-161.5"/>
</g>
<!-- EmbeddedContentComponent -->
<g id="node3" class="node">
<title>EmbeddedContentComponent</title>
<polygon fill="#ffffb3" stroke="black" points="5000.54,-122 4815.46,-122 4815.46,-86 5000.54,-86 5000.54,-122"/>
<text text-anchor="middle" x="4908" y="-99.8" font-family="Times,serif" font-size="14.00">EmbeddedContentComponent</text>
</g>
<!-- EmbeddedContentComponent&#45;&gt;NuiDashboardsModule -->
<g id="edge3" class="edge">
<title>EmbeddedContentComponent&#45;&gt;NuiDashboardsModule</title>
<path fill="none" stroke="black" d="M4877.08,-122C4877.08,-139.68 4877.08,-164 4877.08,-164 4877.08,-164 3098.28,-164 3098.28,-164"/>
<polygon fill="black" stroke="black" points="3098.28,-160.5 3088.28,-164 3098.28,-167.5 3098.28,-160.5"/>
</g>
<!-- GridsterItemWidgetIdDirective -->
<g id="node4" class="node">
<title>GridsterItemWidgetIdDirective</title>
<polygon fill="#ffffb3" stroke="black" points="4797.48,-122 4604.52,-122 4604.52,-86 4797.48,-86 4797.48,-122"/>
<text text-anchor="middle" x="4701" y="-99.8" font-family="Times,serif" font-size="14.00">GridsterItemWidgetIdDirective</text>
</g>
<!-- GridsterItemWidgetIdDirective&#45;&gt;NuiDashboardsModule -->
<g id="edge4" class="edge">
<title>GridsterItemWidgetIdDirective&#45;&gt;NuiDashboardsModule</title>
<path fill="none" stroke="black" d="M4636.28,-122.02C4636.28,-139.37 4636.28,-163 4636.28,-163 4636.28,-163 3098.34,-163 3098.34,-163"/>
<polygon fill="black" stroke="black" points="3098.34,-159.5 3088.34,-163 3098.34,-166.5 3098.34,-159.5"/>
</g>
<!-- KpiComponent -->
<g id="node5" class="node">
<title>KpiComponent</title>
<polygon fill="#ffffb3" stroke="black" points="4587.33,-122 4484.67,-122 4484.67,-86 4587.33,-86 4587.33,-122"/>
<text text-anchor="middle" x="4536" y="-99.8" font-family="Times,serif" font-size="14.00">KpiComponent</text>
</g>
<!-- KpiComponent&#45;&gt;NuiDashboardsModule -->
<g id="edge5" class="edge">
<title>KpiComponent&#45;&gt;NuiDashboardsModule</title>
<path fill="none" stroke="black" d="M4496.43,-122.04C4496.43,-138.73 4496.43,-161 4496.43,-161 4496.43,-161 3098.21,-161 3098.21,-161"/>
<polygon fill="black" stroke="black" points="3098.21,-157.5 3088.21,-161 3098.21,-164.5 3098.21,-157.5"/>
</g>
<!-- LineChartComponent -->
<g id="node6" class="node">
<title>LineChartComponent</title>
<polygon fill="#ffffb3" stroke="black" points="4467.09,-122 4328.91,-122 4328.91,-86 4467.09,-86 4467.09,-122"/>
<text text-anchor="middle" x="4398" y="-99.8" font-family="Times,serif" font-size="14.00">LineChartComponent</text>
</g>
<!-- LineChartComponent&#45;&gt;NuiDashboardsModule -->
<g id="edge6" class="edge">
<title>LineChartComponent&#45;&gt;NuiDashboardsModule</title>
<path fill="none" stroke="black" d="M4334.47,-122.03C4334.47,-138.4 4334.47,-160 4334.47,-160 4334.47,-160 3098.29,-160 3098.29,-160"/>
<polygon fill="black" stroke="black" points="3098.29,-156.5 3088.29,-160 3098.29,-163.5 3098.29,-156.5"/>
</g>
<!-- ListGroupItemComponent -->
<g id="node7" class="node">
<title>ListGroupItemComponent</title>
<polygon fill="#ffffb3" stroke="black" points="4311.04,-122 4146.96,-122 4146.96,-86 4311.04,-86 4311.04,-122"/>
<text text-anchor="middle" x="4229" y="-99.8" font-family="Times,serif" font-size="14.00">ListGroupItemComponent</text>
</g>
<!-- ListGroupItemComponent&#45;&gt;NuiDashboardsModule -->
<g id="edge7" class="edge">
<title>ListGroupItemComponent&#45;&gt;NuiDashboardsModule</title>
<path fill="none" stroke="black" d="M4155.39,-122.01C4155.39,-138.05 4155.39,-159 4155.39,-159 4155.39,-159 3098.51,-159 3098.51,-159"/>
<polygon fill="black" stroke="black" points="3098.51,-155.5 3088.51,-159 3098.51,-162.5 3098.51,-155.5"/>
</g>
<!-- ListLeafItemComponent -->
<g id="node8" class="node">
<title>ListLeafItemComponent</title>
<polygon fill="#ffffb3" stroke="black" points="4129.41,-122 3974.59,-122 3974.59,-86 4129.41,-86 4129.41,-122"/>
<text text-anchor="middle" x="4052" y="-99.8" font-family="Times,serif" font-size="14.00">ListLeafItemComponent</text>
</g>
<!-- ListLeafItemComponent&#45;&gt;NuiDashboardsModule -->
<g id="edge8" class="edge">
<title>ListLeafItemComponent&#45;&gt;NuiDashboardsModule</title>
<path fill="none" stroke="black" d="M4052,-122.28C4052,-137.95 4052,-158 4052,-158 4052,-158 3098.33,-158 3098.33,-158"/>
<polygon fill="black" stroke="black" points="3098.33,-154.5 3088.33,-158 3098.33,-161.5 3098.33,-154.5"/>
</g>
<!-- ListNavigationBarComponent -->
<g id="node9" class="node">
<title>ListNavigationBarComponent</title>
<polygon fill="#ffffb3" stroke="black" points="3956.53,-122 3771.47,-122 3771.47,-86 3956.53,-86 3956.53,-122"/>
<text text-anchor="middle" x="3864" y="-99.8" font-family="Times,serif" font-size="14.00">ListNavigationBarComponent</text>
</g>
<!-- ListNavigationBarComponent&#45;&gt;NuiDashboardsModule -->
<g id="edge9" class="edge">
<title>ListNavigationBarComponent&#45;&gt;NuiDashboardsModule</title>
<path fill="none" stroke="black" d="M3782.92,-122.19C3782.92,-137.18 3782.92,-156 3782.92,-156 3782.92,-156 3098.28,-156 3098.28,-156"/>
<polygon fill="black" stroke="black" points="3098.28,-152.5 3088.28,-156 3098.28,-159.5 3098.28,-152.5"/>
</g>
<!-- ListWidgetComponent -->
<g id="node10" class="node">
<title>ListWidgetComponent</title>
<polygon fill="#ffffb3" stroke="black" points="3753.32,-122 3608.68,-122 3608.68,-86 3753.32,-86 3753.32,-122"/>
<text text-anchor="middle" x="3681" y="-99.8" font-family="Times,serif" font-size="14.00">ListWidgetComponent</text>
</g>
<!-- ListWidgetComponent&#45;&gt;NuiDashboardsModule -->
<g id="edge10" class="edge">
<title>ListWidgetComponent&#45;&gt;NuiDashboardsModule</title>
<path fill="none" stroke="black" d="M3616.46,-122.12C3616.46,-136.78 3616.46,-155 3616.46,-155 3616.46,-155 3098.15,-155 3098.15,-155"/>
<polygon fill="black" stroke="black" points="3098.15,-151.5 3088.15,-155 3098.15,-158.5 3098.15,-151.5"/>
</g>
<!-- LoadingComponent -->
<g id="node11" class="node">
<title>LoadingComponent</title>
<polygon fill="#ffffb3" stroke="black" points="3590.99,-122 3463.01,-122 3463.01,-86 3590.99,-86 3590.99,-122"/>
<text text-anchor="middle" x="3527" y="-99.8" font-family="Times,serif" font-size="14.00">LoadingComponent</text>
</g>
<!-- LoadingComponent&#45;&gt;NuiDashboardsModule -->
<g id="edge11" class="edge">
<title>LoadingComponent&#45;&gt;NuiDashboardsModule</title>
<path fill="none" stroke="black" d="M3527,-122.05C3527,-136.37 3527,-154 3527,-154 3527,-154 3098.36,-154 3098.36,-154"/>
<polygon fill="black" stroke="black" points="3098.36,-150.5 3088.36,-154 3098.36,-157.5 3098.36,-150.5"/>
</g>
<!-- ProportionalDonutContentComponent -->
<g id="node12" class="node">
<title>ProportionalDonutContentComponent</title>
<polygon fill="#ffffb3" stroke="black" points="3445.15,-122 3214.85,-122 3214.85,-86 3445.15,-86 3445.15,-122"/>
<text text-anchor="middle" x="3330" y="-99.8" font-family="Times,serif" font-size="14.00">ProportionalDonutContentComponent</text>
</g>
<!-- ProportionalDonutContentComponent&#45;&gt;NuiDashboardsModule -->
<g id="edge12" class="edge">
<title>ProportionalDonutContentComponent&#45;&gt;NuiDashboardsModule</title>
<path fill="none" stroke="black" d="M3293.35,-122.25C3293.35,-136.18 3293.35,-153 3293.35,-153 3293.35,-153 3098.5,-153 3098.5,-153"/>
<polygon fill="black" stroke="black" points="3098.5,-149.5 3088.5,-153 3098.5,-156.5 3098.5,-149.5"/>
</g>
<!-- ProportionalWidgetComponent -->
<g id="node13" class="node">
<title>ProportionalWidgetComponent</title>
<polygon fill="#ffffb3" stroke="black" points="3196.03,-122 3003.97,-122 3003.97,-86 3196.03,-86 3196.03,-122"/>
<text text-anchor="middle" x="3100" y="-99.8" font-family="Times,serif" font-size="14.00">ProportionalWidgetComponent</text>
</g>
<!-- ProportionalWidgetComponent&#45;&gt;NuiDashboardsModule -->
<g id="edge13" class="edge">
<title>ProportionalWidgetComponent&#45;&gt;NuiDashboardsModule</title>
<path fill="none" stroke="black" d="M3046.02,-122.11C3046.02,-122.11 3046.02,-140.99 3046.02,-140.99"/>
<polygon fill="black" stroke="black" points="3042.52,-140.99 3046.02,-150.99 3049.52,-140.99 3042.52,-140.99"/>
</g>
<!-- StackComponent -->
<g id="node14" class="node">
<title>StackComponent</title>
<polygon fill="#ffffb3" stroke="black" points="2986.44,-122 2873.56,-122 2873.56,-86 2986.44,-86 2986.44,-122"/>
<text text-anchor="middle" x="2930" y="-99.8" font-family="Times,serif" font-size="14.00">StackComponent</text>
</g>
<!-- StackComponent&#45;&gt;NuiDashboardsModule -->
<g id="edge14" class="edge">
<title>StackComponent&#45;&gt;NuiDashboardsModule</title>
<path fill="none" stroke="black" d="M2963.95,-122.11C2963.95,-122.11 2963.95,-140.99 2963.95,-140.99"/>
<polygon fill="black" stroke="black" points="2960.45,-140.99 2963.95,-150.99 2967.45,-140.99 2960.45,-140.99"/>
</g>
<!-- StackedAreaChartComponent -->
<g id="node15" class="node">
<title>StackedAreaChartComponent</title>
<polygon fill="#ffffb3" stroke="black" points="2855.95,-122 2672.05,-122 2672.05,-86 2855.95,-86 2855.95,-122"/>
<text text-anchor="middle" x="2764" y="-99.8" font-family="Times,serif" font-size="14.00">StackedAreaChartComponent</text>
</g>
<!-- StackedAreaChartComponent&#45;&gt;NuiDashboardsModule -->
<g id="edge15" class="edge">
<title>StackedAreaChartComponent&#45;&gt;NuiDashboardsModule</title>
<path fill="none" stroke="black" d="M2846.12,-122.25C2846.12,-136.18 2846.12,-153 2846.12,-153 2846.12,-153 2931.42,-153 2931.42,-153"/>
<polygon fill="black" stroke="black" points="2931.42,-156.5 2941.42,-153 2931.42,-149.5 2931.42,-156.5"/>
</g>
<!-- StackedBarChartComponent -->
<g id="node16" class="node">
<title>StackedBarChartComponent</title>
<polygon fill="#ffffb3" stroke="black" points="2654.46,-122 2477.54,-122 2477.54,-86 2654.46,-86 2654.46,-122"/>
<text text-anchor="middle" x="2566" y="-99.8" font-family="Times,serif" font-size="14.00">StackedBarChartComponent</text>
</g>
<!-- StackedBarChartComponent&#45;&gt;NuiDashboardsModule -->
<g id="edge16" class="edge">
<title>StackedBarChartComponent&#45;&gt;NuiDashboardsModule</title>
<path fill="none" stroke="black" d="M2646.12,-122.05C2646.12,-136.37 2646.12,-154 2646.12,-154 2646.12,-154 2931.68,-154 2931.68,-154"/>
<polygon fill="black" stroke="black" points="2931.68,-157.5 2941.68,-154 2931.68,-150.5 2931.68,-157.5"/>
</g>
<!-- StackedPercentageAreaChartComponent -->
<g id="node17" class="node">
<title>StackedPercentageAreaChartComponent</title>
<polygon fill="#ffffb3" stroke="black" points="2459.86,-122 2214.14,-122 2214.14,-86 2459.86,-86 2459.86,-122"/>
<text text-anchor="middle" x="2337" y="-99.8" font-family="Times,serif" font-size="14.00">StackedPercentageAreaChartComponent</text>
</g>
<!-- StackedPercentageAreaChartComponent&#45;&gt;NuiDashboardsModule -->
<g id="edge17" class="edge">
<title>StackedPercentageAreaChartComponent&#45;&gt;NuiDashboardsModule</title>
<path fill="none" stroke="black" d="M2415.12,-122.12C2415.12,-136.78 2415.12,-155 2415.12,-155 2415.12,-155 2931.74,-155 2931.74,-155"/>
<polygon fill="black" stroke="black" points="2931.74,-158.5 2941.74,-155 2931.74,-151.5 2931.74,-158.5"/>
</g>
<!-- StatusBarChartComponent -->
<g id="node18" class="node">
<title>StatusBarChartComponent</title>
<polygon fill="#ffffb3" stroke="black" points="2196.37,-122 2029.63,-122 2029.63,-86 2196.37,-86 2196.37,-122"/>
<text text-anchor="middle" x="2113" y="-99.8" font-family="Times,serif" font-size="14.00">StatusBarChartComponent</text>
</g>
<!-- StatusBarChartComponent&#45;&gt;NuiDashboardsModule -->
<g id="edge18" class="edge">
<title>StatusBarChartComponent&#45;&gt;NuiDashboardsModule</title>
<path fill="none" stroke="black" d="M2189.12,-122.19C2189.12,-137.18 2189.12,-156 2189.12,-156 2189.12,-156 2931.71,-156 2931.71,-156"/>
<polygon fill="black" stroke="black" points="2931.71,-159.5 2941.71,-156 2931.71,-152.5 2931.71,-159.5"/>
</g>
<!-- TableWidgetComponent -->
<g id="node19" class="node">
<title>TableWidgetComponent</title>
<polygon fill="#ffffb3" stroke="black" points="2011.42,-122 1856.58,-122 1856.58,-86 2011.42,-86 2011.42,-122"/>
<text text-anchor="middle" x="1934" y="-99.8" font-family="Times,serif" font-size="14.00">TableWidgetComponent</text>
</g>
<!-- TableWidgetComponent&#45;&gt;NuiDashboardsModule -->
<g id="edge19" class="edge">
<title>TableWidgetComponent&#45;&gt;NuiDashboardsModule</title>
<path fill="none" stroke="black" d="M1997.23,-122.28C1997.23,-137.95 1997.23,-158 1997.23,-158 1997.23,-158 2931.8,-158 2931.8,-158"/>
<polygon fill="black" stroke="black" points="2931.8,-161.5 2941.8,-158 2931.8,-154.5 2931.8,-161.5"/>
</g>
<!-- TilesComponent -->
<g id="node20" class="node">
<title>TilesComponent</title>
<polygon fill="#ffffb3" stroke="black" points="1838.83,-122 1729.17,-122 1729.17,-86 1838.83,-86 1838.83,-122"/>
<text text-anchor="middle" x="1784" y="-99.8" font-family="Times,serif" font-size="14.00">TilesComponent</text>
</g>
<!-- TilesComponent&#45;&gt;NuiDashboardsModule -->
<g id="edge20" class="edge">
<title>TilesComponent&#45;&gt;NuiDashboardsModule</title>
<path fill="none" stroke="black" d="M1784,-122.01C1784,-138.05 1784,-159 1784,-159 1784,-159 2931.68,-159 2931.68,-159"/>
<polygon fill="black" stroke="black" points="2931.68,-162.5 2941.68,-159 2931.68,-155.5 2931.68,-162.5"/>
</g>
<!-- TimeframeSelectionComponent -->
<g id="node21" class="node">
<title>TimeframeSelectionComponent</title>
<polygon fill="#ffffb3" stroke="black" points="1711.62,-122 1516.38,-122 1516.38,-86 1711.62,-86 1711.62,-122"/>
<text text-anchor="middle" x="1614" y="-99.8" font-family="Times,serif" font-size="14.00">TimeframeSelectionComponent</text>
</g>
<!-- TimeframeSelectionComponent&#45;&gt;NuiDashboardsModule -->
<g id="edge21" class="edge">
<title>TimeframeSelectionComponent&#45;&gt;NuiDashboardsModule</title>
<path fill="none" stroke="black" d="M1685.12,-122.03C1685.12,-138.4 1685.12,-160 1685.12,-160 1685.12,-160 2931.61,-160 2931.61,-160"/>
<polygon fill="black" stroke="black" points="2931.61,-163.5 2941.61,-160 2931.61,-156.5 2931.61,-163.5"/>
</g>
<!-- TimeseriesWidgetComponent -->
<g id="node22" class="node">
<title>TimeseriesWidgetComponent</title>
<polygon fill="#ffffb3" stroke="black" points="1497.96,-122 1314.04,-122 1314.04,-86 1497.96,-86 1497.96,-122"/>
<text text-anchor="middle" x="1406" y="-99.8" font-family="Times,serif" font-size="14.00">TimeseriesWidgetComponent</text>
</g>
<!-- TimeseriesWidgetComponent&#45;&gt;NuiDashboardsModule -->
<g id="edge22" class="edge">
<title>TimeseriesWidgetComponent&#45;&gt;NuiDashboardsModule</title>
<path fill="none" stroke="black" d="M1475.62,-122.04C1475.62,-138.73 1475.62,-161 1475.62,-161 1475.62,-161 2931.79,-161 2931.79,-161"/>
<polygon fill="black" stroke="black" points="2931.79,-164.5 2941.79,-161 2931.79,-157.5 2931.79,-164.5"/>
</g>
<!-- WidgetBodyComponent -->
<g id="node23" class="node">
<title>WidgetBodyComponent</title>
<polygon fill="#ffffb3" stroke="black" points="1296.38,-122 1143.62,-122 1143.62,-86 1296.38,-86 1296.38,-122"/>
<text text-anchor="middle" x="1220" y="-99.8" font-family="Times,serif" font-size="14.00">WidgetBodyComponent</text>
</g>
<!-- WidgetBodyComponent&#45;&gt;NuiDashboardsModule -->
<g id="edge23" class="edge">
<title>WidgetBodyComponent&#45;&gt;NuiDashboardsModule</title>
<path fill="none" stroke="black" d="M1287.62,-122.02C1287.62,-139.37 1287.62,-163 1287.62,-163 1287.62,-163 2931.61,-163 2931.61,-163"/>
<polygon fill="black" stroke="black" points="2931.61,-166.5 2941.61,-163 2931.61,-159.5 2931.61,-166.5"/>
</g>
<!-- WidgetBodyContentComponent -->
<g id="node24" class="node">
<title>WidgetBodyContentComponent</title>
<polygon fill="#ffffb3" stroke="black" points="1125.71,-122 928.29,-122 928.29,-86 1125.71,-86 1125.71,-122"/>
<text text-anchor="middle" x="1027" y="-99.8" font-family="Times,serif" font-size="14.00">WidgetBodyContentComponent</text>
</g>
<!-- WidgetBodyContentComponent&#45;&gt;NuiDashboardsModule -->
<g id="edge24" class="edge">
<title>WidgetBodyContentComponent&#45;&gt;NuiDashboardsModule</title>
<path fill="none" stroke="black" d="M1092.62,-122C1092.62,-139.68 1092.62,-164 1092.62,-164 1092.62,-164 2931.7,-164 2931.7,-164"/>
<polygon fill="black" stroke="black" points="2931.7,-167.5 2941.7,-164 2931.7,-160.5 2931.7,-167.5"/>
</g>
<!-- WidgetComponent -->
<g id="node25" class="node">
<title>WidgetComponent</title>
<polygon fill="#ffffb3" stroke="black" points="910.04,-122 787.96,-122 787.96,-86 910.04,-86 910.04,-122"/>
<text text-anchor="middle" x="849" y="-99.8" font-family="Times,serif" font-size="14.00">WidgetComponent</text>
</g>
<!-- WidgetComponent&#45;&gt;NuiDashboardsModule -->
<g id="edge25" class="edge">
<title>WidgetComponent&#45;&gt;NuiDashboardsModule</title>
<path fill="none" stroke="black" d="M904.08,-122.3C904.08,-140.27 904.08,-165 904.08,-165 904.08,-165 2931.72,-165 2931.72,-165"/>
<polygon fill="black" stroke="black" points="2931.72,-168.5 2941.72,-165 2931.72,-161.5 2931.72,-168.5"/>
</g>
<!-- WidgetEditorDirective -->
<g id="node26" class="node">
<title>WidgetEditorDirective</title>
<polygon fill="#ffffb3" stroke="black" points="770.29,-122 625.71,-122 625.71,-86 770.29,-86 770.29,-122"/>
<text text-anchor="middle" x="698" y="-99.8" font-family="Times,serif" font-size="14.00">WidgetEditorDirective</text>
</g>
<!-- WidgetEditorDirective&#45;&gt;NuiDashboardsModule -->
<g id="edge26" class="edge">
<title>WidgetEditorDirective&#45;&gt;NuiDashboardsModule</title>
<path fill="none" stroke="black" d="M760.12,-122.27C760.12,-140.56 760.12,-166 760.12,-166 760.12,-166 2931.58,-166 2931.58,-166"/>
<polygon fill="black" stroke="black" points="2931.58,-169.5 2941.58,-166 2931.58,-162.5 2931.58,-169.5"/>
</g>
<!-- WidgetHeaderComponent -->
<g id="node27" class="node">
<title>WidgetHeaderComponent</title>
<polygon fill="#ffffb3" stroke="black" points="607.45,-122 444.55,-122 444.55,-86 607.45,-86 607.45,-122"/>
<text text-anchor="middle" x="526" y="-99.8" font-family="Times,serif" font-size="14.00">WidgetHeaderComponent</text>
</g>
<!-- WidgetHeaderComponent&#45;&gt;NuiDashboardsModule -->
<g id="edge27" class="edge">
<title>WidgetHeaderComponent&#45;&gt;NuiDashboardsModule</title>
<path fill="none" stroke="black" d="M586.62,-122.17C586.62,-141.09 586.62,-168 586.62,-168 586.62,-168 2931.66,-168 2931.66,-168"/>
<polygon fill="black" stroke="black" points="2931.66,-171.5 2941.66,-168 2931.66,-164.5 2931.66,-171.5"/>
</g>
<!-- WidgetSearchComponent -->
<g id="node28" class="node">
<title>WidgetSearchComponent</title>
<polygon fill="#ffffb3" stroke="black" points="426.13,-122 265.87,-122 265.87,-86 426.13,-86 426.13,-122"/>
<text text-anchor="middle" x="346" y="-99.8" font-family="Times,serif" font-size="14.00">WidgetSearchComponent</text>
</g>
<!-- WidgetSearchComponent&#45;&gt;NuiDashboardsModule -->
<g id="edge28" class="edge">
<title>WidgetSearchComponent&#45;&gt;NuiDashboardsModule</title>
<path fill="none" stroke="black" d="M405.12,-122.11C405.12,-141.34 405.12,-169 405.12,-169 405.12,-169 2931.79,-169 2931.79,-169"/>
<polygon fill="black" stroke="black" points="2931.79,-172.5 2941.79,-169 2931.79,-165.5 2931.79,-172.5"/>
</g>
<!-- DashboardComponent  -->
<g id="node33" class="node">
<title>DashboardComponent </title>
<polygon fill="#fb8072" stroke="black" points="5655.97,-252 5510.03,-252 5510.03,-216 5655.97,-216 5655.97,-252"/>
<text text-anchor="middle" x="5583" y="-229.8" font-family="Times,serif" font-size="14.00">DashboardComponent </text>
</g>
<!-- NuiDashboardsModule&#45;&gt;DashboardComponent  -->
<g id="edge32" class="edge">
<title>NuiDashboardsModule&#45;&gt;DashboardComponent </title>
<path fill="none" stroke="black" stroke-dasharray="5,2" d="M3088.15,-171C3503.85,-171 5550.4,-171 5550.4,-171 5550.4,-171 5550.4,-205.78 5550.4,-205.78"/>
<polygon fill="black" stroke="black" points="5546.9,-205.78 5550.4,-215.78 5553.9,-205.78 5546.9,-205.78"/>
</g>
<!-- DelayedMousePresenceDetectionDirective  -->
<g id="node34" class="node">
<title>DelayedMousePresenceDetectionDirective </title>
<polygon fill="#fb8072" stroke="black" points="5492.5,-252 5231.5,-252 5231.5,-216 5492.5,-216 5492.5,-252"/>
<text text-anchor="middle" x="5362" y="-229.8" font-family="Times,serif" font-size="14.00">DelayedMousePresenceDetectionDirective </text>
</g>
<!-- NuiDashboardsModule&#45;&gt;DelayedMousePresenceDetectionDirective  -->
<g id="edge33" class="edge">
<title>NuiDashboardsModule&#45;&gt;DelayedMousePresenceDetectionDirective </title>
<path fill="none" stroke="black" stroke-dasharray="5,2" d="M3088.21,-173C3474.02,-173 5253.62,-173 5253.62,-173 5253.62,-173 5253.62,-205.7 5253.62,-205.7"/>
<polygon fill="black" stroke="black" points="5250.13,-205.7 5253.62,-215.7 5257.13,-205.7 5250.13,-205.7"/>
</g>
<!-- EmbeddedContentComponent  -->
<g id="node35" class="node">
<title>EmbeddedContentComponent </title>
<polygon fill="#fb8072" stroke="black" points="5213.54,-252 5024.46,-252 5024.46,-216 5213.54,-216 5213.54,-252"/>
<text text-anchor="middle" x="5119" y="-229.8" font-family="Times,serif" font-size="14.00">EmbeddedContentComponent </text>
</g>
<!-- NuiDashboardsModule&#45;&gt;EmbeddedContentComponent  -->
<g id="edge34" class="edge">
<title>NuiDashboardsModule&#45;&gt;EmbeddedContentComponent </title>
<path fill="none" stroke="black" stroke-dasharray="5,2" d="M3088.2,-174C3463.09,-174 5150.51,-174 5150.51,-174 5150.51,-174 5150.51,-206 5150.51,-206"/>
<polygon fill="black" stroke="black" points="5147.01,-206 5150.51,-216 5154.01,-206 5147.01,-206"/>
</g>
<!-- GridsterItemWidgetIdDirective  -->
<g id="node36" class="node">
<title>GridsterItemWidgetIdDirective </title>
<polygon fill="#fb8072" stroke="black" points="5005.98,-252 4810.02,-252 4810.02,-216 5005.98,-216 5005.98,-252"/>
<text text-anchor="middle" x="4908" y="-229.8" font-family="Times,serif" font-size="14.00">GridsterItemWidgetIdDirective </text>
</g>
<!-- NuiDashboardsModule&#45;&gt;GridsterItemWidgetIdDirective  -->
<g id="edge35" class="edge">
<title>NuiDashboardsModule&#45;&gt;GridsterItemWidgetIdDirective </title>
<path fill="none" stroke="black" stroke-dasharray="5,2" d="M3088.36,-175C3440.33,-175 4938.92,-175 4938.92,-175 4938.92,-175 4938.92,-205.98 4938.92,-205.98"/>
<polygon fill="black" stroke="black" points="4935.42,-205.98 4938.92,-215.98 4942.42,-205.98 4935.42,-205.98"/>
</g>
<!-- KpiComponent  -->
<g id="node37" class="node">
<title>KpiComponent </title>
<polygon fill="#fb8072" stroke="black" points="4791.83,-252 4686.17,-252 4686.17,-216 4791.83,-216 4791.83,-252"/>
<text text-anchor="middle" x="4739" y="-229.8" font-family="Times,serif" font-size="14.00">KpiComponent </text>
</g>
<!-- NuiDashboardsModule&#45;&gt;KpiComponent  -->
<g id="edge36" class="edge">
<title>NuiDashboardsModule&#45;&gt;KpiComponent </title>
<path fill="none" stroke="black" stroke-dasharray="5,2" d="M3088.25,-176C3416.85,-176 4739,-176 4739,-176 4739,-176 4739,-205.97 4739,-205.97"/>
<polygon fill="black" stroke="black" points="4735.5,-205.97 4739,-215.97 4742.5,-205.97 4735.5,-205.97"/>
</g>
<!-- LineChartComponent  -->
<g id="node38" class="node">
<title>LineChartComponent </title>
<polygon fill="#fb8072" stroke="black" points="4667.59,-252 4526.41,-252 4526.41,-216 4667.59,-216 4667.59,-252"/>
<text text-anchor="middle" x="4597" y="-229.8" font-family="Times,serif" font-size="14.00">LineChartComponent </text>
</g>
<!-- NuiDashboardsModule&#45;&gt;LineChartComponent  -->
<g id="edge37" class="edge">
<title>NuiDashboardsModule&#45;&gt;LineChartComponent </title>
<path fill="none" stroke="black" stroke-dasharray="5,2" d="M3088.32,-178C3394.7,-178 4556.68,-178 4556.68,-178 4556.68,-178 4556.68,-205.97 4556.68,-205.97"/>
<polygon fill="black" stroke="black" points="4553.18,-205.97 4556.68,-215.97 4560.18,-205.97 4553.18,-205.97"/>
</g>
<!-- ListGroupItemComponent  -->
<g id="node39" class="node">
<title>ListGroupItemComponent </title>
<polygon fill="#fb8072" stroke="black" points="4508.03,-252 4339.97,-252 4339.97,-216 4508.03,-216 4508.03,-252"/>
<text text-anchor="middle" x="4424" y="-229.8" font-family="Times,serif" font-size="14.00">ListGroupItemComponent </text>
</g>
<!-- NuiDashboardsModule&#45;&gt;ListGroupItemComponent  -->
<g id="edge38" class="edge">
<title>NuiDashboardsModule&#45;&gt;ListGroupItemComponent </title>
<path fill="none" stroke="black" stroke-dasharray="5,2" d="M3088.18,-179C3374.56,-179 4403.51,-179 4403.51,-179 4403.51,-179 4403.51,-205.99 4403.51,-205.99"/>
<polygon fill="black" stroke="black" points="4400.01,-205.99 4403.51,-215.99 4407.01,-205.99 4400.01,-205.99"/>
</g>
<!-- ListLeafItemComponent  -->
<g id="node40" class="node">
<title>ListLeafItemComponent </title>
<polygon fill="#fb8072" stroke="black" points="4321.91,-252 4164.09,-252 4164.09,-216 4321.91,-216 4321.91,-252"/>
<text text-anchor="middle" x="4243" y="-229.8" font-family="Times,serif" font-size="14.00">ListLeafItemComponent </text>
</g>
<!-- NuiDashboardsModule&#45;&gt;ListLeafItemComponent  -->
<g id="edge39" class="edge">
<title>NuiDashboardsModule&#45;&gt;ListLeafItemComponent </title>
<path fill="none" stroke="black" stroke-dasharray="5,2" d="M3088.27,-180C3352.05,-180 4237.66,-180 4237.66,-180 4237.66,-180 4237.66,-205.72 4237.66,-205.72"/>
<polygon fill="black" stroke="black" points="4234.16,-205.72 4237.66,-215.72 4241.16,-205.72 4234.16,-205.72"/>
</g>
<!-- ListNavigationBarComponent  -->
<g id="node41" class="node">
<title>ListNavigationBarComponent </title>
<polygon fill="#fb8072" stroke="black" points="4146.53,-252 3957.47,-252 3957.47,-216 4146.53,-216 4146.53,-252"/>
<text text-anchor="middle" x="4052" y="-229.8" font-family="Times,serif" font-size="14.00">ListNavigationBarComponent </text>
</g>
<!-- NuiDashboardsModule&#45;&gt;ListNavigationBarComponent  -->
<g id="edge40" class="edge">
<title>NuiDashboardsModule&#45;&gt;ListNavigationBarComponent </title>
<path fill="none" stroke="black" stroke-dasharray="5,2" d="M3088.45,-181C3311.55,-181 3966.14,-181 3966.14,-181 3966.14,-181 3966.14,-205.76 3966.14,-205.76"/>
<polygon fill="black" stroke="black" points="3962.64,-205.76 3966.14,-215.76 3969.64,-205.76 3962.64,-205.76"/>
</g>
<!-- ListWidgetComponent  -->
<g id="node42" class="node">
<title>ListWidgetComponent </title>
<polygon fill="#fb8072" stroke="black" points="3939.82,-252 3792.18,-252 3792.18,-216 3939.82,-216 3939.82,-252"/>
<text text-anchor="middle" x="3866" y="-229.8" font-family="Times,serif" font-size="14.00">ListWidgetComponent </text>
</g>
<!-- NuiDashboardsModule&#45;&gt;ListWidgetComponent  -->
<g id="edge41" class="edge">
<title>NuiDashboardsModule&#45;&gt;ListWidgetComponent </title>
<path fill="none" stroke="black" stroke-dasharray="5,2" d="M3088.29,-183C3294.71,-183 3866,-183 3866,-183 3866,-183 3866,-205.88 3866,-205.88"/>
<polygon fill="black" stroke="black" points="3862.5,-205.88 3866,-215.88 3869.5,-205.88 3862.5,-205.88"/>
</g>
<!-- LoadingComponent  -->
<g id="node43" class="node">
<title>LoadingComponent </title>
<polygon fill="#fb8072" stroke="black" points="3773.99,-252 3642.01,-252 3642.01,-216 3773.99,-216 3773.99,-252"/>
<text text-anchor="middle" x="3708" y="-229.8" font-family="Times,serif" font-size="14.00">LoadingComponent </text>
</g>
<!-- NuiDashboardsModule&#45;&gt;LoadingComponent  -->
<g id="edge42" class="edge">
<title>NuiDashboardsModule&#45;&gt;LoadingComponent </title>
<path fill="none" stroke="black" stroke-dasharray="5,2" d="M3088.39,-184C3264.71,-184 3697.71,-184 3697.71,-184 3697.71,-184 3697.71,-205.95 3697.71,-205.95"/>
<polygon fill="black" stroke="black" points="3694.21,-205.95 3697.71,-215.95 3701.21,-205.95 3694.21,-205.95"/>
</g>
<!-- ProportionalDonutContentComponent  -->
<g id="node44" class="node">
<title>ProportionalDonutContentComponent </title>
<polygon fill="#fb8072" stroke="black" points="3624.15,-252 3389.85,-252 3389.85,-216 3624.15,-216 3624.15,-252"/>
<text text-anchor="middle" x="3507" y="-229.8" font-family="Times,serif" font-size="14.00">ProportionalDonutContentComponent </text>
</g>
<!-- NuiDashboardsModule&#45;&gt;ProportionalDonutContentComponent  -->
<g id="edge43" class="edge">
<title>NuiDashboardsModule&#45;&gt;ProportionalDonutContentComponent </title>
<path fill="none" stroke="black" stroke-dasharray="5,2" d="M3088.38,-185C3204.51,-185 3417.62,-185 3417.62,-185 3417.62,-185 3417.62,-205.75 3417.62,-205.75"/>
<polygon fill="black" stroke="black" points="3414.13,-205.75 3417.62,-215.75 3421.13,-205.75 3414.13,-205.75"/>
</g>
<!-- ProportionalWidgetComponent  -->
<g id="node45" class="node">
<title>ProportionalWidgetComponent </title>
<polygon fill="#fb8072" stroke="black" points="3372.03,-252 3175.97,-252 3175.97,-216 3372.03,-216 3372.03,-252"/>
<text text-anchor="middle" x="3274" y="-229.8" font-family="Times,serif" font-size="14.00">ProportionalWidgetComponent </text>
</g>
<!-- NuiDashboardsModule&#45;&gt;ProportionalWidgetComponent  -->
<g id="edge44" class="edge">
<title>NuiDashboardsModule&#45;&gt;ProportionalWidgetComponent </title>
<path fill="none" stroke="black" stroke-dasharray="5,2" d="M3088.57,-186C3134.95,-186 3186.12,-186 3186.12,-186 3186.12,-186 3186.12,-205.85 3186.12,-205.85"/>
<polygon fill="black" stroke="black" points="3182.63,-205.85 3186.12,-215.85 3189.63,-205.85 3182.63,-205.85"/>
</g>
<!-- StackComponent  -->
<g id="node46" class="node">
<title>StackComponent </title>
<polygon fill="#fb8072" stroke="black" points="3157.93,-252 3042.07,-252 3042.07,-216 3157.93,-216 3157.93,-252"/>
<text text-anchor="middle" x="3100" y="-229.8" font-family="Times,serif" font-size="14.00">StackComponent </text>
</g>
<!-- NuiDashboardsModule&#45;&gt;StackComponent  -->
<g id="edge45" class="edge">
<title>NuiDashboardsModule&#45;&gt;StackComponent </title>
<path fill="none" stroke="black" stroke-dasharray="5,2" d="M3065.17,-187.11C3065.17,-187.11 3065.17,-205.99 3065.17,-205.99"/>
<polygon fill="black" stroke="black" points="3061.67,-205.99 3065.17,-215.99 3068.67,-205.99 3061.67,-205.99"/>
</g>
<!-- StackedAreaChartComponent  -->
<g id="node47" class="node">
<title>StackedAreaChartComponent </title>
<polygon fill="#fb8072" stroke="black" points="3023.95,-252 2836.05,-252 2836.05,-216 3023.95,-216 3023.95,-252"/>
<text text-anchor="middle" x="2930" y="-229.8" font-family="Times,serif" font-size="14.00">StackedAreaChartComponent </text>
</g>
<!-- NuiDashboardsModule&#45;&gt;StackedAreaChartComponent  -->
<g id="edge46" class="edge">
<title>NuiDashboardsModule&#45;&gt;StackedAreaChartComponent </title>
<path fill="none" stroke="black" stroke-dasharray="5,2" d="M2982.7,-187.11C2982.7,-187.11 2982.7,-205.99 2982.7,-205.99"/>
<polygon fill="black" stroke="black" points="2979.2,-205.99 2982.7,-215.99 2986.2,-205.99 2979.2,-205.99"/>
</g>
<!-- StackedBarChartComponent  -->
<g id="node48" class="node">
<title>StackedBarChartComponent </title>
<polygon fill="#fb8072" stroke="black" points="2818.46,-252 2637.54,-252 2637.54,-216 2818.46,-216 2818.46,-252"/>
<text text-anchor="middle" x="2728" y="-229.8" font-family="Times,serif" font-size="14.00">StackedBarChartComponent </text>
</g>
<!-- NuiDashboardsModule&#45;&gt;StackedBarChartComponent  -->
<g id="edge47" class="edge">
<title>NuiDashboardsModule&#45;&gt;StackedBarChartComponent </title>
<path fill="none" stroke="black" stroke-dasharray="5,2" d="M2941.61,-186C2861.7,-186 2745.13,-186 2745.13,-186 2745.13,-186 2745.13,-205.85 2745.13,-205.85"/>
<polygon fill="black" stroke="black" points="2741.63,-205.85 2745.13,-215.85 2748.63,-205.85 2741.63,-205.85"/>
</g>
<!-- StackedPercentageAreaChartComponent  -->
<g id="node49" class="node">
<title>StackedPercentageAreaChartComponent </title>
<polygon fill="#fb8072" stroke="black" points="2619.36,-252 2370.64,-252 2370.64,-216 2619.36,-216 2619.36,-252"/>
<text text-anchor="middle" x="2495" y="-229.8" font-family="Times,serif" font-size="14.00">StackedPercentageAreaChartComponent </text>
</g>
<!-- NuiDashboardsModule&#45;&gt;StackedPercentageAreaChartComponent  -->
<g id="edge48" class="edge">
<title>NuiDashboardsModule&#45;&gt;StackedPercentageAreaChartComponent </title>
<path fill="none" stroke="black" stroke-dasharray="5,2" d="M2941.85,-185C2810.55,-185 2548.47,-185 2548.47,-185 2548.47,-185 2548.47,-205.75 2548.47,-205.75"/>
<polygon fill="black" stroke="black" points="2544.97,-205.75 2548.47,-215.75 2551.97,-205.75 2544.97,-205.75"/>
</g>
<!-- StatusBarChartComponent  -->
<g id="node50" class="node">
<title>StatusBarChartComponent </title>
<polygon fill="#fb8072" stroke="black" points="2352.37,-252 2181.63,-252 2181.63,-216 2352.37,-216 2352.37,-252"/>
<text text-anchor="middle" x="2267" y="-229.8" font-family="Times,serif" font-size="14.00">StatusBarChartComponent </text>
</g>
<!-- NuiDashboardsModule&#45;&gt;StatusBarChartComponent  -->
<g id="edge49" class="edge">
<title>NuiDashboardsModule&#45;&gt;StatusBarChartComponent </title>
<path fill="none" stroke="black" stroke-dasharray="5,2" d="M2941.82,-184C2756.5,-184 2283.25,-184 2283.25,-184 2283.25,-184 2283.25,-205.95 2283.25,-205.95"/>
<polygon fill="black" stroke="black" points="2279.75,-205.95 2283.25,-215.95 2286.75,-205.95 2279.75,-205.95"/>
</g>
<!-- TableWidgetComponent  -->
<g id="node51" class="node">
<title>TableWidgetComponent </title>
<polygon fill="#fb8072" stroke="black" points="2163.92,-252 2006.08,-252 2006.08,-216 2163.92,-216 2163.92,-252"/>
<text text-anchor="middle" x="2085" y="-229.8" font-family="Times,serif" font-size="14.00">TableWidgetComponent </text>
</g>
<!-- NuiDashboardsModule&#45;&gt;TableWidgetComponent  -->
<g id="edge50" class="edge">
<title>NuiDashboardsModule&#45;&gt;TableWidgetComponent </title>
<path fill="none" stroke="black" stroke-dasharray="5,2" d="M2941.79,-183C2724.26,-183 2096.76,-183 2096.76,-183 2096.76,-183 2096.76,-205.88 2096.76,-205.88"/>
<polygon fill="black" stroke="black" points="2093.26,-205.88 2096.76,-215.88 2100.26,-205.88 2093.26,-205.88"/>
</g>
<!-- TilesComponent  -->
<g id="node52" class="node">
<title>TilesComponent </title>
<polygon fill="#fb8072" stroke="black" points="1988.33,-252 1875.67,-252 1875.67,-216 1988.33,-216 1988.33,-252"/>
<text text-anchor="middle" x="1932" y="-229.8" font-family="Times,serif" font-size="14.00">TilesComponent </text>
</g>
<!-- NuiDashboardsModule&#45;&gt;TilesComponent  -->
<g id="edge51" class="edge">
<title>NuiDashboardsModule&#45;&gt;TilesComponent </title>
<path fill="none" stroke="black" stroke-dasharray="5,2" d="M2941.84,-181C2698.55,-181 1932,-181 1932,-181 1932,-181 1932,-205.76 1932,-205.76"/>
<polygon fill="black" stroke="black" points="1928.5,-205.76 1932,-215.76 1935.5,-205.76 1928.5,-205.76"/>
</g>
<!-- TimeframeSelectionComponent  -->
<g id="node53" class="node">
<title>TimeframeSelectionComponent </title>
<polygon fill="#fb8072" stroke="black" points="1857.62,-252 1658.38,-252 1658.38,-216 1857.62,-216 1857.62,-252"/>
<text text-anchor="middle" x="1758" y="-229.8" font-family="Times,serif" font-size="14.00">TimeframeSelectionComponent </text>
</g>
<!-- NuiDashboardsModule&#45;&gt;TimeframeSelectionComponent  -->
<g id="edge52" class="edge">
<title>NuiDashboardsModule&#45;&gt;TimeframeSelectionComponent </title>
<path fill="none" stroke="black" stroke-dasharray="5,2" d="M2941.54,-180C2685.47,-180 1847.73,-180 1847.73,-180 1847.73,-180 1847.73,-205.72 1847.73,-205.72"/>
<polygon fill="black" stroke="black" points="1844.23,-205.72 1847.73,-215.72 1851.23,-205.72 1844.23,-205.72"/>
</g>
<!-- TimeseriesWidgetComponent  -->
<g id="node54" class="node">
<title>TimeseriesWidgetComponent </title>
<polygon fill="#fb8072" stroke="black" points="1640.96,-252 1453.04,-252 1453.04,-216 1640.96,-216 1640.96,-252"/>
<text text-anchor="middle" x="1547" y="-229.8" font-family="Times,serif" font-size="14.00">TimeseriesWidgetComponent </text>
</g>
<!-- NuiDashboardsModule&#45;&gt;TimeseriesWidgetComponent  -->
<g id="edge53" class="edge">
<title>NuiDashboardsModule&#45;&gt;TimeseriesWidgetComponent </title>
<path fill="none" stroke="black" stroke-dasharray="5,2" d="M2941.79,-179C2649.05,-179 1578.46,-179 1578.46,-179 1578.46,-179 1578.46,-205.99 1578.46,-205.99"/>
<polygon fill="black" stroke="black" points="1574.96,-205.99 1578.46,-215.99 1581.96,-205.99 1574.96,-205.99"/>
</g>
<!-- WidgetBodyComponent  -->
<g id="node55" class="node">
<title>WidgetBodyComponent </title>
<polygon fill="#fb8072" stroke="black" points="1435.38,-252 1278.62,-252 1278.62,-216 1435.38,-216 1435.38,-252"/>
<text text-anchor="middle" x="1357" y="-229.8" font-family="Times,serif" font-size="14.00">WidgetBodyComponent </text>
</g>
<!-- NuiDashboardsModule&#45;&gt;WidgetBodyComponent  -->
<g id="edge54" class="edge">
<title>NuiDashboardsModule&#45;&gt;WidgetBodyComponent </title>
<path fill="none" stroke="black" stroke-dasharray="5,2" d="M2941.86,-178C2623.53,-178 1374.6,-178 1374.6,-178 1374.6,-178 1374.6,-205.97 1374.6,-205.97"/>
<polygon fill="black" stroke="black" points="1371.1,-205.97 1374.6,-215.97 1378.1,-205.97 1371.1,-205.97"/>
</g>
<!-- WidgetBodyContentComponent  -->
<g id="node56" class="node">
<title>WidgetBodyContentComponent </title>
<polygon fill="#fb8072" stroke="black" points="1260.21,-252 1059.79,-252 1059.79,-216 1260.21,-216 1260.21,-252"/>
<text text-anchor="middle" x="1160" y="-229.8" font-family="Times,serif" font-size="14.00">WidgetBodyContentComponent </text>
</g>
<!-- NuiDashboardsModule&#45;&gt;WidgetBodyContentComponent  -->
<g id="edge55" class="edge">
<title>NuiDashboardsModule&#45;&gt;WidgetBodyContentComponent </title>
<path fill="none" stroke="black" stroke-dasharray="5,2" d="M2941.68,-176C2602.49,-176 1201.96,-176 1201.96,-176 1201.96,-176 1201.96,-205.97 1201.96,-205.97"/>
<polygon fill="black" stroke="black" points="1198.46,-205.97 1201.96,-215.97 1205.46,-205.97 1198.46,-205.97"/>
</g>
<!-- WidgetComponent  -->
<g id="node57" class="node">
<title>WidgetComponent </title>
<polygon fill="#fb8072" stroke="black" points="1042.04,-252 915.96,-252 915.96,-216 1042.04,-216 1042.04,-252"/>
<text text-anchor="middle" x="979" y="-229.8" font-family="Times,serif" font-size="14.00">WidgetComponent </text>
</g>
<!-- NuiDashboardsModule&#45;&gt;WidgetComponent  -->
<g id="edge56" class="edge">
<title>NuiDashboardsModule&#45;&gt;WidgetComponent </title>
<path fill="none" stroke="black" stroke-dasharray="5,2" d="M2941.86,-175C2578.54,-175 985.21,-175 985.21,-175 985.21,-175 985.21,-205.98 985.21,-205.98"/>
<polygon fill="black" stroke="black" points="981.71,-205.98 985.21,-215.98 988.71,-205.98 981.71,-205.98"/>
</g>
<!-- WidgetEditorDirective  -->
<g id="node58" class="node">
<title>WidgetEditorDirective </title>
<polygon fill="#fb8072" stroke="black" points="897.79,-252 750.21,-252 750.21,-216 897.79,-216 897.79,-252"/>
<text text-anchor="middle" x="824" y="-229.8" font-family="Times,serif" font-size="14.00">WidgetEditorDirective </text>
</g>
<!-- NuiDashboardsModule&#45;&gt;WidgetEditorDirective  -->
<g id="edge57" class="edge">
<title>NuiDashboardsModule&#45;&gt;WidgetEditorDirective </title>
<path fill="none" stroke="black" stroke-dasharray="5,2" d="M2941.79,-174C2562.99,-174 842.81,-174 842.81,-174 842.81,-174 842.81,-206 842.81,-206"/>
<polygon fill="black" stroke="black" points="839.31,-206 842.81,-216 846.31,-206 839.31,-206"/>
</g>
<!-- WidgetHeaderComponent  -->
<g id="node59" class="node">
<title>WidgetHeaderComponent </title>
<polygon fill="#fb8072" stroke="black" points="732.45,-252 565.55,-252 565.55,-216 732.45,-216 732.45,-252"/>
<text text-anchor="middle" x="649" y="-229.8" font-family="Times,serif" font-size="14.00">WidgetHeaderComponent </text>
</g>
<!-- NuiDashboardsModule&#45;&gt;WidgetHeaderComponent  -->
<g id="edge58" class="edge">
<title>NuiDashboardsModule&#45;&gt;WidgetHeaderComponent </title>
<path fill="none" stroke="black" stroke-dasharray="5,2" d="M2941.56,-173C2545.18,-173 679.04,-173 679.04,-173 679.04,-173 679.04,-205.7 679.04,-205.7"/>
<polygon fill="black" stroke="black" points="675.54,-205.7 679.04,-215.7 682.54,-205.7 675.54,-205.7"/>
</g>
<!-- WidgetSearchComponent  -->
<g id="node60" class="node">
<title>WidgetSearchComponent </title>
<polygon fill="#fb8072" stroke="black" points="548.13,-252 383.87,-252 383.87,-216 548.13,-216 548.13,-252"/>
<text text-anchor="middle" x="466" y="-229.8" font-family="Times,serif" font-size="14.00">WidgetSearchComponent </text>
</g>
<!-- NuiDashboardsModule&#45;&gt;WidgetSearchComponent  -->
<g id="edge59" class="edge">
<title>NuiDashboardsModule&#45;&gt;WidgetSearchComponent </title>
<path fill="none" stroke="black" stroke-dasharray="5,2" d="M2941.66,-171C2527.16,-171 496.29,-171 496.29,-171 496.29,-171 496.29,-205.78 496.29,-205.78"/>
<polygon fill="black" stroke="black" points="492.79,-205.78 496.29,-215.78 499.79,-205.78 492.79,-205.78"/>
</g>
<!-- NuiDashboardConfiguratorModule -->
<g id="node30" class="node">
<title>NuiDashboardConfiguratorModule</title>
<polygon fill="#8dd3c7" stroke="black" points="6038.5,-122 6035.5,-126 6014.5,-126 6011.5,-122 5825.5,-122 5825.5,-86 6038.5,-86 6038.5,-122"/>
<text text-anchor="middle" x="5932" y="-99.8" font-family="Times,serif" font-size="14.00">NuiDashboardConfiguratorModule</text>
</g>
<!-- NuiDashboardConfiguratorModule&#45;&gt;NuiDashboardsModule -->
<g id="edge29" class="edge">
<title>NuiDashboardConfiguratorModule&#45;&gt;NuiDashboardsModule</title>
<path fill="none" stroke="black" d="M5932,-122.03C5932,-141.58 5932,-170 5932,-170 5932,-170 3098.2,-170 3098.2,-170"/>
<polygon fill="black" stroke="black" points="3098.2,-166.5 3088.2,-170 3098.2,-173.5 3098.2,-166.5"/>
</g>
<!-- NuiDashboardsCommonModule -->
<g id="node31" class="node">
<title>NuiDashboardsCommonModule</title>
<polygon fill="#8dd3c7" stroke="black" points="5807.25,-122 5804.25,-126 5783.25,-126 5780.25,-122 5608.75,-122 5608.75,-86 5807.25,-86 5807.25,-122"/>
<text text-anchor="middle" x="5708" y="-99.8" font-family="Times,serif" font-size="14.00">NuiDashboardsCommonModule</text>
</g>
<!-- NuiDashboardsCommonModule&#45;&gt;NuiDashboardsModule -->
<g id="edge30" class="edge">
<title>NuiDashboardsCommonModule&#45;&gt;NuiDashboardsModule</title>
<path fill="none" stroke="black" d="M5632.18,-122.11C5632.18,-141.34 5632.18,-169 5632.18,-169 5632.18,-169 3098.42,-169 3098.42,-169"/>
<polygon fill="black" stroke="black" points="3098.42,-165.5 3088.42,-169 3098.42,-172.5 3098.42,-165.5"/>
</g>
<!-- NuiPizzagnaModule -->
<g id="node32" class="node">
<title>NuiPizzagnaModule</title>
<polygon fill="#8dd3c7" stroke="black" points="5590.58,-122 5587.58,-126 5566.58,-126 5563.58,-122 5459.42,-122 5459.42,-86 5590.58,-86 5590.58,-122"/>
<text text-anchor="middle" x="5525" y="-99.8" font-family="Times,serif" font-size="14.00">NuiPizzagnaModule</text>
</g>
<!-- NuiPizzagnaModule&#45;&gt;NuiDashboardsModule -->
<g id="edge31" class="edge">
<title>NuiPizzagnaModule&#45;&gt;NuiDashboardsModule</title>
<path fill="none" stroke="black" d="M5475.85,-122.17C5475.85,-141.09 5475.85,-168 5475.85,-168 5475.85,-168 3098.31,-168 3098.31,-168"/>
<polygon fill="black" stroke="black" points="3098.31,-164.5 3088.31,-168 3098.31,-171.5 3098.31,-164.5"/>
</g>
<!-- RefresherSettingsService -->
<g id="node61" class="node">
<title>RefresherSettingsService</title>
<ellipse fill="#fdb462" stroke="black" cx="133" cy="-104" rx="108.78" ry="18"/>
<text text-anchor="middle" x="133" y="-99.8" font-family="Times,serif" font-size="14.00">RefresherSettingsService</text>
</g>
<!-- RefresherSettingsService&#45;&gt;NuiDashboardsModule -->
<g id="edge60" class="edge">
<title>RefresherSettingsService&#45;&gt;NuiDashboardsModule</title>
<path fill="none" stroke="black" d="M133,-122.03C133,-141.58 133,-170 133,-170 133,-170 2931.59,-170 2931.59,-170"/>
<polygon fill="black" stroke="black" points="2931.59,-173.5 2941.59,-170 2931.59,-166.5 2931.59,-173.5"/>
</g>
</g>
</svg>
