<?xml version="1.0" encoding="UTF-8" standalone="no"?>
<!DOCTYPE svg PUBLIC "-//W3C//DTD SVG 1.1//EN"
 "http://www.w3.org/Graphics/SVG/1.1/DTD/svg11.dtd">
<!-- Generated by graphviz version 2.44.1 (20200629.0846)
 -->
<!-- Title: dependencies Pages: 1 -->
<svg width="6071pt" height="284pt"
 viewBox="0.00 0.00 6071.00 284.00" xmlns="http://www.w3.org/2000/svg" xmlns:xlink="http://www.w3.org/1999/xlink">
<g id="graph0" class="graph" transform="scale(1 1) rotate(0) translate(4 280)">
<title>dependencies</title>
<polygon fill="white" stroke="transparent" points="-4,4 -4,-280 6067,-280 6067,4 -4,4"/>
<text text-anchor="start" x="3010.51" y="-42.4" font-family="sans-serif" font-weight="bold" font-size="14.00">Legend</text>
<polygon fill="#ffffb3" stroke="transparent" points="2797.5,-10 2797.5,-30 2817.5,-30 2817.5,-10 2797.5,-10"/>
<text text-anchor="start" x="2821.13" y="-15.4" font-family="sans-serif" font-size="14.00"> &#160;Declarations</text>
<polygon fill="#8dd3c7" stroke="transparent" points="2910.5,-10 2910.5,-30 2930.5,-30 2930.5,-10 2910.5,-10"/>
<text text-anchor="start" x="2934.23" y="-15.4" font-family="sans-serif" font-size="14.00"> &#160;Module</text>
<polygon fill="#80b1d3" stroke="transparent" points="2996.5,-10 2996.5,-30 3016.5,-30 3016.5,-10 2996.5,-10"/>
<text text-anchor="start" x="3020.28" y="-15.4" font-family="sans-serif" font-size="14.00"> &#160;Bootstrap</text>
<polygon fill="#fdb462" stroke="transparent" points="3093.5,-10 3093.5,-30 3113.5,-30 3113.5,-10 3093.5,-10"/>
<text text-anchor="start" x="3117.17" y="-15.4" font-family="sans-serif" font-size="14.00"> &#160;Providers</text>
<polygon fill="#fb8072" stroke="transparent" points="3189.5,-10 3189.5,-30 3209.5,-30 3209.5,-10 3189.5,-10"/>
<text text-anchor="start" x="3213.23" y="-15.4" font-family="sans-serif" font-size="14.00"> &#160;Exports</text>
<g id="clust1" class="cluster">
<title>cluster_NuiDashboardsModule</title>
<polygon fill="none" stroke="black" stroke-dasharray="1,5" points="8,-70 8,-268 6055,-268 6055,-70 8,-70"/>
</g>
<g id="clust2" class="cluster">
<title>cluster_NuiDashboardsModule_declarations</title>
<polygon fill="none" stroke="black" points="862,-78 862,-130 6047,-130 6047,-78 862,-78"/>
</g>
<g id="clust34" class="cluster">
<title>cluster_NuiDashboardsModule_providers</title>
<polygon fill="none" stroke="black" points="620,-78 620,-130 854,-130 854,-78 620,-78"/>
</g>
<g id="clust32" class="cluster">
<title>cluster_NuiDashboardsModule_exports</title>
<polygon fill="none" stroke="black" points="416,-208 416,-260 5704,-260 5704,-208 416,-208"/>
</g>
<g id="clust31" class="cluster">
<title>cluster_NuiDashboardsModule_imports</title>
<polygon fill="none" stroke="black" points="16,-78 16,-130 612,-130 612,-78 16,-78"/>
</g>
<!-- DashboardComponent -->
<g id="node1" class="node">
<title>DashboardComponent</title>
<polygon fill="#ffffb3" stroke="black" points="6038.97,-122 5897.03,-122 5897.03,-86 6038.97,-86 6038.97,-122"/>
<text text-anchor="middle" x="5968" y="-99.8" font-family="Times,serif" font-size="14.00">DashboardComponent</text>
</g>
<!-- NuiDashboardsModule -->
<g id="node29" class="node">
<title>NuiDashboardsModule</title>
<polygon fill="#8dd3c7" stroke="black" points="3128.13,-187 3125.13,-191 3104.13,-191 3101.13,-187 2981.87,-187 2981.87,-151 3128.13,-151 3128.13,-187"/>
<text text-anchor="middle" x="3055" y="-164.8" font-family="Times,serif" font-size="14.00">NuiDashboardsModule</text>
</g>
<!-- DashboardComponent&#45;&gt;NuiDashboardsModule -->
<g id="edge1" class="edge">
<title>DashboardComponent&#45;&gt;NuiDashboardsModule</title>
<path fill="none" stroke="black" d="M5968,-122.03C5968,-141.58 5968,-170 5968,-170 5968,-170 3138.46,-170 3138.46,-170"/>
<polygon fill="black" stroke="black" points="3138.46,-166.5 3128.46,-170 3138.46,-173.5 3138.46,-166.5"/>
</g>
<!-- DelayedMousePresenceDetectionDirective -->
<g id="node2" class="node">
<title>DelayedMousePresenceDetectionDirective</title>
<polygon fill="#ffffb3" stroke="black" points="5879.5,-122 5622.5,-122 5622.5,-86 5879.5,-86 5879.5,-122"/>
<text text-anchor="middle" x="5751" y="-99.8" font-family="Times,serif" font-size="14.00">DelayedMousePresenceDetectionDirective</text>
</g>
<!-- DelayedMousePresenceDetectionDirective&#45;&gt;NuiDashboardsModule -->
<g id="edge2" class="edge">
<title>DelayedMousePresenceDetectionDirective&#45;&gt;NuiDashboardsModule</title>
<path fill="none" stroke="black" d="M5659.12,-122.11C5659.12,-141.34 5659.12,-169 5659.12,-169 5659.12,-169 3138.4,-169 3138.4,-169"/>
<polygon fill="black" stroke="black" points="3138.4,-165.5 3128.4,-169 3138.4,-172.5 3138.4,-165.5"/>
</g>
<!-- EmbeddedContentComponent -->
<g id="node3" class="node">
<title>EmbeddedContentComponent</title>
<polygon fill="#ffffb3" stroke="black" points="5604.54,-122 5419.46,-122 5419.46,-86 5604.54,-86 5604.54,-122"/>
<text text-anchor="middle" x="5512" y="-99.8" font-family="Times,serif" font-size="14.00">EmbeddedContentComponent</text>
</g>
<!-- EmbeddedContentComponent&#45;&gt;NuiDashboardsModule -->
<g id="edge3" class="edge">
<title>EmbeddedContentComponent&#45;&gt;NuiDashboardsModule</title>
<path fill="none" stroke="black" d="M5475.74,-122.17C5475.74,-141.09 5475.74,-168 5475.74,-168 5475.74,-168 3138.44,-168 3138.44,-168"/>
<polygon fill="black" stroke="black" points="3138.44,-164.5 3128.44,-168 3138.44,-171.5 3138.44,-164.5"/>
</g>
<!-- GridsterItemWidgetIdDirective -->
<g id="node4" class="node">
<title>GridsterItemWidgetIdDirective</title>
<polygon fill="#ffffb3" stroke="black" points="5401.48,-122 5208.52,-122 5208.52,-86 5401.48,-86 5401.48,-122"/>
<text text-anchor="middle" x="5305" y="-99.8" font-family="Times,serif" font-size="14.00">GridsterItemWidgetIdDirective</text>
</g>
<!-- GridsterItemWidgetIdDirective&#45;&gt;NuiDashboardsModule -->
<g id="edge4" class="edge">
<title>GridsterItemWidgetIdDirective&#45;&gt;NuiDashboardsModule</title>
<path fill="none" stroke="black" d="M5231.14,-122.27C5231.14,-140.56 5231.14,-166 5231.14,-166 5231.14,-166 3138.34,-166 3138.34,-166"/>
<polygon fill="black" stroke="black" points="3138.34,-162.5 3128.34,-166 3138.34,-169.5 3138.34,-162.5"/>
</g>
<!-- KpiComponent -->
<g id="node5" class="node">
<title>KpiComponent</title>
<polygon fill="#ffffb3" stroke="black" points="5191.33,-122 5088.67,-122 5088.67,-86 5191.33,-86 5191.33,-122"/>
<text text-anchor="middle" x="5140" y="-99.8" font-family="Times,serif" font-size="14.00">KpiComponent</text>
</g>
<!-- KpiComponent&#45;&gt;NuiDashboardsModule -->
<g id="edge5" class="edge">
<title>KpiComponent&#45;&gt;NuiDashboardsModule</title>
<path fill="none" stroke="black" d="M5140,-122.3C5140,-140.27 5140,-165 5140,-165 5140,-165 3138.29,-165 3138.29,-165"/>
<polygon fill="black" stroke="black" points="3138.29,-161.5 3128.29,-165 3138.29,-168.5 3138.29,-161.5"/>
</g>
<!-- LineChartComponent -->
<g id="node6" class="node">
<title>LineChartComponent</title>
<polygon fill="#ffffb3" stroke="black" points="5071.09,-122 4932.91,-122 4932.91,-86 5071.09,-86 5071.09,-122"/>
<text text-anchor="middle" x="5002" y="-99.8" font-family="Times,serif" font-size="14.00">LineChartComponent</text>
</g>
<!-- LineChartComponent&#45;&gt;NuiDashboardsModule -->
<g id="edge6" class="edge">
<title>LineChartComponent&#45;&gt;NuiDashboardsModule</title>
<path fill="none" stroke="black" d="M4989.47,-122C4989.47,-139.68 4989.47,-164 4989.47,-164 4989.47,-164 3138.18,-164 3138.18,-164"/>
<polygon fill="black" stroke="black" points="3138.18,-160.5 3128.18,-164 3138.18,-167.5 3138.18,-160.5"/>
</g>
<!-- ListGroupItemComponent -->
<g id="node7" class="node">
<title>ListGroupItemComponent</title>
<polygon fill="#ffffb3" stroke="black" points="4915.04,-122 4750.96,-122 4750.96,-86 4915.04,-86 4915.04,-122"/>
<text text-anchor="middle" x="4833" y="-99.8" font-family="Times,serif" font-size="14.00">ListGroupItemComponent</text>
</g>
<!-- ListGroupItemComponent&#45;&gt;NuiDashboardsModule -->
<g id="edge7" class="edge">
<title>ListGroupItemComponent&#45;&gt;NuiDashboardsModule</title>
<path fill="none" stroke="black" d="M4791.32,-122.02C4791.32,-139.37 4791.32,-163 4791.32,-163 4791.32,-163 3138.22,-163 3138.22,-163"/>
<polygon fill="black" stroke="black" points="3138.22,-159.5 3128.22,-163 3138.22,-166.5 3138.22,-159.5"/>
</g>
<!-- ListLeafItemComponent -->
<g id="node8" class="node">
<title>ListLeafItemComponent</title>
<polygon fill="#ffffb3" stroke="black" points="4733.41,-122 4578.59,-122 4578.59,-86 4733.41,-86 4733.41,-122"/>
<text text-anchor="middle" x="4656" y="-99.8" font-family="Times,serif" font-size="14.00">ListLeafItemComponent</text>
</g>
<!-- ListLeafItemComponent&#45;&gt;NuiDashboardsModule -->
<g id="edge8" class="edge">
<title>ListLeafItemComponent&#45;&gt;NuiDashboardsModule</title>
<path fill="none" stroke="black" d="M4643.3,-122.04C4643.3,-138.73 4643.3,-161 4643.3,-161 4643.3,-161 3138.16,-161 3138.16,-161"/>
<polygon fill="black" stroke="black" points="3138.16,-157.5 3128.16,-161 3138.16,-164.5 3138.16,-157.5"/>
</g>
<!-- ListNavigationBarComponent -->
<g id="node9" class="node">
<title>ListNavigationBarComponent</title>
<polygon fill="#ffffb3" stroke="black" points="4560.53,-122 4375.47,-122 4375.47,-86 4560.53,-86 4560.53,-122"/>
<text text-anchor="middle" x="4468" y="-99.8" font-family="Times,serif" font-size="14.00">ListNavigationBarComponent</text>
</g>
<!-- ListNavigationBarComponent&#45;&gt;NuiDashboardsModule -->
<g id="edge9" class="edge">
<title>ListNavigationBarComponent&#45;&gt;NuiDashboardsModule</title>
<path fill="none" stroke="black" d="M4435.99,-122.03C4435.99,-138.4 4435.99,-160 4435.99,-160 4435.99,-160 3138.27,-160 3138.27,-160"/>
<polygon fill="black" stroke="black" points="3138.27,-156.5 3128.27,-160 3138.27,-163.5 3138.27,-156.5"/>
</g>
<!-- ListWidgetComponent -->
<g id="node10" class="node">
<title>ListWidgetComponent</title>
<polygon fill="#ffffb3" stroke="black" points="4357.32,-122 4212.68,-122 4212.68,-86 4357.32,-86 4357.32,-122"/>
<text text-anchor="middle" x="4285" y="-99.8" font-family="Times,serif" font-size="14.00">ListWidgetComponent</text>
</g>
<!-- ListWidgetComponent&#45;&gt;NuiDashboardsModule -->
<g id="edge10" class="edge">
<title>ListWidgetComponent&#45;&gt;NuiDashboardsModule</title>
<path fill="none" stroke="black" d="M4285,-122.01C4285,-138.05 4285,-159 4285,-159 4285,-159 3138.26,-159 3138.26,-159"/>
<polygon fill="black" stroke="black" points="3138.26,-155.5 3128.26,-159 3138.26,-162.5 3138.26,-155.5"/>
</g>
<!-- LoadingComponent -->
<g id="node11" class="node">
<title>LoadingComponent</title>
<polygon fill="#ffffb3" stroke="black" points="4194.99,-122 4067.01,-122 4067.01,-86 4194.99,-86 4194.99,-122"/>
<text text-anchor="middle" x="4131" y="-99.8" font-family="Times,serif" font-size="14.00">LoadingComponent</text>
</g>
<!-- LoadingComponent&#45;&gt;NuiDashboardsModule -->
<g id="edge11" class="edge">
<title>LoadingComponent&#45;&gt;NuiDashboardsModule</title>
<path fill="none" stroke="black" d="M4126.76,-122.28C4126.76,-137.95 4126.76,-158 4126.76,-158 4126.76,-158 3138.24,-158 3138.24,-158"/>
<polygon fill="black" stroke="black" points="3138.24,-154.5 3128.24,-158 3138.24,-161.5 3138.24,-154.5"/>
</g>
<!-- ProportionalDonutContentComponent -->
<g id="node12" class="node">
<title>ProportionalDonutContentComponent</title>
<polygon fill="#ffffb3" stroke="black" points="4049.15,-122 3818.85,-122 3818.85,-86 4049.15,-86 4049.15,-122"/>
<text text-anchor="middle" x="3934" y="-99.8" font-family="Times,serif" font-size="14.00">ProportionalDonutContentComponent</text>
</g>
<!-- ProportionalDonutContentComponent&#45;&gt;NuiDashboardsModule -->
<g id="edge12" class="edge">
<title>ProportionalDonutContentComponent&#45;&gt;NuiDashboardsModule</title>
<path fill="none" stroke="black" d="M3825.38,-122.19C3825.38,-137.18 3825.38,-156 3825.38,-156 3825.38,-156 3138.17,-156 3138.17,-156"/>
<polygon fill="black" stroke="black" points="3138.17,-152.5 3128.17,-156 3138.17,-159.5 3138.17,-152.5"/>
</g>
<!-- ProportionalWidgetComponent -->
<g id="node13" class="node">
<title>ProportionalWidgetComponent</title>
<polygon fill="#ffffb3" stroke="black" points="3800.03,-122 3607.97,-122 3607.97,-86 3800.03,-86 3800.03,-122"/>
<text text-anchor="middle" x="3704" y="-99.8" font-family="Times,serif" font-size="14.00">ProportionalWidgetComponent</text>
</g>
<!-- ProportionalWidgetComponent&#45;&gt;NuiDashboardsModule -->
<g id="edge13" class="edge">
<title>ProportionalWidgetComponent&#45;&gt;NuiDashboardsModule</title>
<path fill="none" stroke="black" d="M3635.9,-122.12C3635.9,-136.78 3635.9,-155 3635.9,-155 3635.9,-155 3138.28,-155 3138.28,-155"/>
<polygon fill="black" stroke="black" points="3138.28,-151.5 3128.28,-155 3138.28,-158.5 3138.28,-151.5"/>
</g>
<!-- StackComponent -->
<g id="node14" class="node">
<title>StackComponent</title>
<polygon fill="#ffffb3" stroke="black" points="3590.44,-122 3477.56,-122 3477.56,-86 3590.44,-86 3590.44,-122"/>
<text text-anchor="middle" x="3534" y="-99.8" font-family="Times,serif" font-size="14.00">StackComponent</text>
</g>
<!-- StackComponent&#45;&gt;NuiDashboardsModule -->
<g id="edge14" class="edge">
<title>StackComponent&#45;&gt;NuiDashboardsModule</title>
<path fill="none" stroke="black" d="M3534,-122.05C3534,-136.37 3534,-154 3534,-154 3534,-154 3138.27,-154 3138.27,-154"/>
<polygon fill="black" stroke="black" points="3138.27,-150.5 3128.27,-154 3138.27,-157.5 3138.27,-150.5"/>
</g>
<!-- StackedAreaChartComponent -->
<g id="node15" class="node">
<title>StackedAreaChartComponent</title>
<polygon fill="#ffffb3" stroke="black" points="3459.95,-122 3276.05,-122 3276.05,-86 3459.95,-86 3459.95,-122"/>
<text text-anchor="middle" x="3368" y="-99.8" font-family="Times,serif" font-size="14.00">StackedAreaChartComponent</text>
</g>
<!-- StackedAreaChartComponent&#45;&gt;NuiDashboardsModule -->
<g id="edge15" class="edge">
<title>StackedAreaChartComponent&#45;&gt;NuiDashboardsModule</title>
<path fill="none" stroke="black" d="M3344.02,-122.25C3344.02,-136.18 3344.02,-153 3344.02,-153 3344.02,-153 3138.31,-153 3138.31,-153"/>
<polygon fill="black" stroke="black" points="3138.31,-149.5 3128.31,-153 3138.31,-156.5 3138.31,-149.5"/>
</g>
<!-- StackedBarChartComponent -->
<g id="node16" class="node">
<title>StackedBarChartComponent</title>
<polygon fill="#ffffb3" stroke="black" points="3258.46,-122 3081.54,-122 3081.54,-86 3258.46,-86 3258.46,-122"/>
<text text-anchor="middle" x="3170" y="-99.8" font-family="Times,serif" font-size="14.00">StackedBarChartComponent</text>
</g>
<!-- StackedBarChartComponent&#45;&gt;NuiDashboardsModule -->
<g id="edge16" class="edge">
<title>StackedBarChartComponent&#45;&gt;NuiDashboardsModule</title>
<path fill="none" stroke="black" d="M3104.92,-122.11C3104.92,-122.11 3104.92,-140.99 3104.92,-140.99"/>
<polygon fill="black" stroke="black" points="3101.42,-140.99 3104.92,-150.99 3108.42,-140.99 3101.42,-140.99"/>
</g>
<!-- StackedPercentageAreaChartComponent -->
<g id="node17" class="node">
<title>StackedPercentageAreaChartComponent</title>
<polygon fill="#ffffb3" stroke="black" points="3063.86,-122 2818.14,-122 2818.14,-86 3063.86,-86 3063.86,-122"/>
<text text-anchor="middle" x="2941" y="-99.8" font-family="Times,serif" font-size="14.00">StackedPercentageAreaChartComponent</text>
</g>
<!-- StackedPercentageAreaChartComponent&#45;&gt;NuiDashboardsModule -->
<g id="edge17" class="edge">
<title>StackedPercentageAreaChartComponent&#45;&gt;NuiDashboardsModule</title>
<path fill="none" stroke="black" d="M3022.68,-122.11C3022.68,-122.11 3022.68,-140.99 3022.68,-140.99"/>
<polygon fill="black" stroke="black" points="3019.18,-140.99 3022.68,-150.99 3026.18,-140.99 3019.18,-140.99"/>
</g>
<!-- StatusBarChartComponent -->
<g id="node18" class="node">
<title>StatusBarChartComponent</title>
<polygon fill="#ffffb3" stroke="black" points="2800.37,-122 2633.63,-122 2633.63,-86 2800.37,-86 2800.37,-122"/>
<text text-anchor="middle" x="2717" y="-99.8" font-family="Times,serif" font-size="14.00">StatusBarChartComponent</text>
</g>
<!-- StatusBarChartComponent&#45;&gt;NuiDashboardsModule -->
<g id="edge18" class="edge">
<title>StatusBarChartComponent&#45;&gt;NuiDashboardsModule</title>
<path fill="none" stroke="black" d="M2739.1,-122.25C2739.1,-136.18 2739.1,-153 2739.1,-153 2739.1,-153 2971.73,-153 2971.73,-153"/>
<polygon fill="black" stroke="black" points="2971.73,-156.5 2981.73,-153 2971.73,-149.5 2971.73,-156.5"/>
</g>
<!-- TableWidgetComponent -->
<g id="node19" class="node">
<title>TableWidgetComponent</title>
<polygon fill="#ffffb3" stroke="black" points="2615.42,-122 2460.58,-122 2460.58,-86 2615.42,-86 2615.42,-122"/>
<text text-anchor="middle" x="2538" y="-99.8" font-family="Times,serif" font-size="14.00">TableWidgetComponent</text>
</g>
<!-- TableWidgetComponent&#45;&gt;NuiDashboardsModule -->
<g id="edge19" class="edge">
<title>TableWidgetComponent&#45;&gt;NuiDashboardsModule</title>
<path fill="none" stroke="black" d="M2538,-122.05C2538,-136.37 2538,-154 2538,-154 2538,-154 2971.75,-154 2971.75,-154"/>
<polygon fill="black" stroke="black" points="2971.75,-157.5 2981.75,-154 2971.75,-150.5 2971.75,-157.5"/>
</g>
<!-- TilesComponent -->
<g id="node20" class="node">
<title>TilesComponent</title>
<polygon fill="#ffffb3" stroke="black" points="2442.83,-122 2333.17,-122 2333.17,-86 2442.83,-86 2442.83,-122"/>
<text text-anchor="middle" x="2388" y="-99.8" font-family="Times,serif" font-size="14.00">TilesComponent</text>
</g>
<!-- TilesComponent&#45;&gt;NuiDashboardsModule -->
<g id="edge20" class="edge">
<title>TilesComponent&#45;&gt;NuiDashboardsModule</title>
<path fill="none" stroke="black" d="M2426.62,-122.12C2426.62,-136.78 2426.62,-155 2426.62,-155 2426.62,-155 2971.69,-155 2971.69,-155"/>
<polygon fill="black" stroke="black" points="2971.69,-158.5 2981.69,-155 2971.69,-151.5 2971.69,-158.5"/>
</g>
<!-- TimeframeSelectionComponent -->
<g id="node21" class="node">
<title>TimeframeSelectionComponent</title>
<polygon fill="#ffffb3" stroke="black" points="2315.62,-122 2120.38,-122 2120.38,-86 2315.62,-86 2315.62,-122"/>
<text text-anchor="middle" x="2218" y="-99.8" font-family="Times,serif" font-size="14.00">TimeframeSelectionComponent</text>
</g>
<!-- TimeframeSelectionComponent&#45;&gt;NuiDashboardsModule -->
<g id="edge21" class="edge">
<title>TimeframeSelectionComponent&#45;&gt;NuiDashboardsModule</title>
<path fill="none" stroke="black" d="M2268.81,-122.19C2268.81,-137.18 2268.81,-156 2268.81,-156 2268.81,-156 2971.74,-156 2971.74,-156"/>
<polygon fill="black" stroke="black" points="2971.74,-159.5 2981.74,-156 2971.74,-152.5 2971.74,-159.5"/>
</g>
<!-- TimeseriesWidgetComponent -->
<g id="node22" class="node">
<title>TimeseriesWidgetComponent</title>
<polygon fill="#ffffb3" stroke="black" points="2101.96,-122 1918.04,-122 1918.04,-86 2101.96,-86 2101.96,-122"/>
<text text-anchor="middle" x="2010" y="-99.8" font-family="Times,serif" font-size="14.00">TimeseriesWidgetComponent</text>
</g>
<!-- TimeseriesWidgetComponent&#45;&gt;NuiDashboardsModule -->
<g id="edge22" class="edge">
<title>TimeseriesWidgetComponent&#45;&gt;NuiDashboardsModule</title>
<path fill="none" stroke="black" d="M2074.01,-122.28C2074.01,-137.95 2074.01,-158 2074.01,-158 2074.01,-158 2971.67,-158 2971.67,-158"/>
<polygon fill="black" stroke="black" points="2971.67,-161.5 2981.67,-158 2971.67,-154.5 2971.67,-161.5"/>
</g>
<!-- WidgetBodyComponent -->
<g id="node23" class="node">
<title>WidgetBodyComponent</title>
<polygon fill="#ffffb3" stroke="black" points="1900.38,-122 1747.62,-122 1747.62,-86 1900.38,-86 1900.38,-122"/>
<text text-anchor="middle" x="1824" y="-99.8" font-family="Times,serif" font-size="14.00">WidgetBodyComponent</text>
</g>
<!-- WidgetBodyComponent&#45;&gt;NuiDashboardsModule -->
<g id="edge23" class="edge">
<title>WidgetBodyComponent&#45;&gt;NuiDashboardsModule</title>
<path fill="none" stroke="black" d="M1847.56,-122.01C1847.56,-138.05 1847.56,-159 1847.56,-159 1847.56,-159 2971.74,-159 2971.74,-159"/>
<polygon fill="black" stroke="black" points="2971.74,-162.5 2981.74,-159 2971.74,-155.5 2971.74,-162.5"/>
</g>
<!-- WidgetBodyContentComponent -->
<g id="node24" class="node">
<title>WidgetBodyContentComponent</title>
<polygon fill="#ffffb3" stroke="black" points="1729.71,-122 1532.29,-122 1532.29,-86 1729.71,-86 1729.71,-122"/>
<text text-anchor="middle" x="1631" y="-99.8" font-family="Times,serif" font-size="14.00">WidgetBodyContentComponent</text>
</g>
<!-- WidgetBodyContentComponent&#45;&gt;NuiDashboardsModule -->
<g id="edge24" class="edge">
<title>WidgetBodyContentComponent&#45;&gt;NuiDashboardsModule</title>
<path fill="none" stroke="black" d="M1714.02,-122.03C1714.02,-138.4 1714.02,-160 1714.02,-160 1714.02,-160 2971.47,-160 2971.47,-160"/>
<polygon fill="black" stroke="black" points="2971.47,-163.5 2981.47,-160 2971.47,-156.5 2971.47,-163.5"/>
</g>
<!-- WidgetComponent -->
<g id="node25" class="node">
<title>WidgetComponent</title>
<polygon fill="#ffffb3" stroke="black" points="1514.04,-122 1391.96,-122 1391.96,-86 1514.04,-86 1514.04,-122"/>
<text text-anchor="middle" x="1453" y="-99.8" font-family="Times,serif" font-size="14.00">WidgetComponent</text>
</g>
<!-- WidgetComponent&#45;&gt;NuiDashboardsModule -->
<g id="edge25" class="edge">
<title>WidgetComponent&#45;&gt;NuiDashboardsModule</title>
<path fill="none" stroke="black" d="M1503.77,-122.04C1503.77,-138.73 1503.77,-161 1503.77,-161 1503.77,-161 2971.74,-161 2971.74,-161"/>
<polygon fill="black" stroke="black" points="2971.74,-164.5 2981.74,-161 2971.74,-157.5 2971.74,-164.5"/>
</g>
<!-- WidgetEditorDirective -->
<g id="node26" class="node">
<title>WidgetEditorDirective</title>
<polygon fill="#ffffb3" stroke="black" points="1374.29,-122 1229.71,-122 1229.71,-86 1374.29,-86 1374.29,-122"/>
<text text-anchor="middle" x="1302" y="-99.8" font-family="Times,serif" font-size="14.00">WidgetEditorDirective</text>
</g>
<!-- WidgetEditorDirective&#45;&gt;NuiDashboardsModule -->
<g id="edge26" class="edge">
<title>WidgetEditorDirective&#45;&gt;NuiDashboardsModule</title>
<path fill="none" stroke="black" d="M1346.48,-122.02C1346.48,-139.37 1346.48,-163 1346.48,-163 1346.48,-163 2971.86,-163 2971.86,-163"/>
<polygon fill="black" stroke="black" points="2971.86,-166.5 2981.86,-163 2971.86,-159.5 2971.86,-166.5"/>
</g>
<!-- WidgetHeaderComponent -->
<g id="node27" class="node">
<title>WidgetHeaderComponent</title>
<polygon fill="#ffffb3" stroke="black" points="1211.45,-122 1048.55,-122 1048.55,-86 1211.45,-86 1211.45,-122"/>
<text text-anchor="middle" x="1130" y="-99.8" font-family="Times,serif" font-size="14.00">WidgetHeaderComponent</text>
</g>
<!-- WidgetHeaderComponent&#45;&gt;NuiDashboardsModule -->
<g id="edge27" class="edge">
<title>WidgetHeaderComponent&#45;&gt;NuiDashboardsModule</title>
<path fill="none" stroke="black" d="M1155.56,-122C1155.56,-139.68 1155.56,-164 1155.56,-164 1155.56,-164 2971.7,-164 2971.7,-164"/>
<polygon fill="black" stroke="black" points="2971.7,-167.5 2981.7,-164 2971.7,-160.5 2971.7,-167.5"/>
</g>
<!-- WidgetSearchComponent -->
<g id="node28" class="node">
<title>WidgetSearchComponent</title>
<polygon fill="#ffffb3" stroke="black" points="1030.13,-122 869.87,-122 869.87,-86 1030.13,-86 1030.13,-122"/>
<text text-anchor="middle" x="950" y="-99.8" font-family="Times,serif" font-size="14.00">WidgetSearchComponent</text>
</g>
<!-- WidgetSearchComponent&#45;&gt;NuiDashboardsModule -->
<g id="edge28" class="edge">
<title>WidgetSearchComponent&#45;&gt;NuiDashboardsModule</title>
<path fill="none" stroke="black" d="M993.15,-122.3C993.15,-140.27 993.15,-165 993.15,-165 993.15,-165 2971.62,-165 2971.62,-165"/>
<polygon fill="black" stroke="black" points="2971.62,-168.5 2981.62,-165 2971.62,-161.5 2971.62,-168.5"/>
</g>
<!-- DashboardComponent  -->
<g id="node33" class="node">
<title>DashboardComponent </title>
<polygon fill="#fb8072" stroke="black" points="5695.97,-252 5550.03,-252 5550.03,-216 5695.97,-216 5695.97,-252"/>
<text text-anchor="middle" x="5623" y="-229.8" font-family="Times,serif" font-size="14.00">DashboardComponent </text>
</g>
<!-- NuiDashboardsModule&#45;&gt;DashboardComponent  -->
<g id="edge32" class="edge">
<title>NuiDashboardsModule&#45;&gt;DashboardComponent </title>
<path fill="none" stroke="black" stroke-dasharray="5,2" d="M3128.45,-171C3543.58,-171 5577.52,-171 5577.52,-171 5577.52,-171 5577.52,-205.78 5577.52,-205.78"/>
<polygon fill="black" stroke="black" points="5574.02,-205.78 5577.52,-215.78 5581.02,-205.78 5574.02,-205.78"/>
</g>
<!-- DelayedMousePresenceDetectionDirective  -->
<g id="node34" class="node">
<title>DelayedMousePresenceDetectionDirective </title>
<polygon fill="#fb8072" stroke="black" points="5532.5,-252 5271.5,-252 5271.5,-216 5532.5,-216 5532.5,-252"/>
<text text-anchor="middle" x="5402" y="-229.8" font-family="Times,serif" font-size="14.00">DelayedMousePresenceDetectionDirective </text>
</g>
<!-- NuiDashboardsModule&#45;&gt;DelayedMousePresenceDetectionDirective  -->
<g id="edge33" class="edge">
<title>NuiDashboardsModule&#45;&gt;DelayedMousePresenceDetectionDirective </title>
<path fill="none" stroke="black" stroke-dasharray="5,2" d="M3128.33,-173C3518.84,-173 5336.5,-173 5336.5,-173 5336.5,-173 5336.5,-205.7 5336.5,-205.7"/>
<polygon fill="black" stroke="black" points="5333,-205.7 5336.5,-215.7 5340,-205.7 5333,-205.7"/>
</g>
<!-- EmbeddedContentComponent  -->
<g id="node35" class="node">
<title>EmbeddedContentComponent </title>
<polygon fill="#fb8072" stroke="black" points="5253.54,-252 5064.46,-252 5064.46,-216 5253.54,-216 5253.54,-252"/>
<text text-anchor="middle" x="5159" y="-229.8" font-family="Times,serif" font-size="14.00">EmbeddedContentComponent </text>
</g>
<!-- NuiDashboardsModule&#45;&gt;EmbeddedContentComponent  -->
<g id="edge34" class="edge">
<title>NuiDashboardsModule&#45;&gt;EmbeddedContentComponent </title>
<path fill="none" stroke="black" stroke-dasharray="5,2" d="M3128.27,-174C3491.3,-174 5079.94,-174 5079.94,-174 5079.94,-174 5079.94,-206 5079.94,-206"/>
<polygon fill="black" stroke="black" points="5076.44,-206 5079.94,-216 5083.44,-206 5076.44,-206"/>
</g>
<!-- GridsterItemWidgetIdDirective  -->
<g id="node36" class="node">
<title>GridsterItemWidgetIdDirective </title>
<polygon fill="#fb8072" stroke="black" points="5045.98,-252 4850.02,-252 4850.02,-216 5045.98,-216 5045.98,-252"/>
<text text-anchor="middle" x="4948" y="-229.8" font-family="Times,serif" font-size="14.00">GridsterItemWidgetIdDirective </text>
</g>
<!-- NuiDashboardsModule&#45;&gt;GridsterItemWidgetIdDirective  -->
<g id="edge35" class="edge">
<title>NuiDashboardsModule&#45;&gt;GridsterItemWidgetIdDirective </title>
<path fill="none" stroke="black" stroke-dasharray="5,2" d="M3128.34,-175C3469.26,-175 4882.64,-175 4882.64,-175 4882.64,-175 4882.64,-205.98 4882.64,-205.98"/>
<polygon fill="black" stroke="black" points="4879.14,-205.98 4882.64,-215.98 4886.14,-205.98 4879.14,-205.98"/>
</g>
<!-- KpiComponent  -->
<g id="node37" class="node">
<title>KpiComponent </title>
<polygon fill="#fb8072" stroke="black" points="4831.83,-252 4726.17,-252 4726.17,-216 4831.83,-216 4831.83,-252"/>
<text text-anchor="middle" x="4779" y="-229.8" font-family="Times,serif" font-size="14.00">KpiComponent </text>
</g>
<!-- NuiDashboardsModule&#45;&gt;KpiComponent  -->
<g id="edge36" class="edge">
<title>NuiDashboardsModule&#45;&gt;KpiComponent </title>
<path fill="none" stroke="black" stroke-dasharray="5,2" d="M3128.3,-176C3451.07,-176 4729.65,-176 4729.65,-176 4729.65,-176 4729.65,-205.97 4729.65,-205.97"/>
<polygon fill="black" stroke="black" points="4726.15,-205.97 4729.65,-215.97 4733.15,-205.97 4726.15,-205.97"/>
</g>
<!-- LineChartComponent  -->
<g id="node38" class="node">
<title>LineChartComponent </title>
<polygon fill="#fb8072" stroke="black" points="4707.59,-252 4566.41,-252 4566.41,-216 4707.59,-216 4707.59,-252"/>
<text text-anchor="middle" x="4637" y="-229.8" font-family="Times,serif" font-size="14.00">LineChartComponent </text>
</g>
<!-- NuiDashboardsModule&#45;&gt;LineChartComponent  -->
<g id="edge37" class="edge">
<title>NuiDashboardsModule&#45;&gt;LineChartComponent </title>
<path fill="none" stroke="black" stroke-dasharray="5,2" d="M3128.19,-178C3431.32,-178 4572.5,-178 4572.5,-178 4572.5,-178 4572.5,-205.97 4572.5,-205.97"/>
<polygon fill="black" stroke="black" points="4569,-205.97 4572.5,-215.97 4576,-205.97 4569,-205.97"/>
</g>
<!-- ListGroupItemComponent  -->
<g id="node39" class="node">
<title>ListGroupItemComponent </title>
<polygon fill="#fb8072" stroke="black" points="4548.03,-252 4379.97,-252 4379.97,-216 4548.03,-216 4548.03,-252"/>
<text text-anchor="middle" x="4464" y="-229.8" font-family="Times,serif" font-size="14.00">ListGroupItemComponent </text>
</g>
<!-- NuiDashboardsModule&#45;&gt;ListGroupItemComponent  -->
<g id="edge38" class="edge">
<title>NuiDashboardsModule&#45;&gt;ListGroupItemComponent </title>
<path fill="none" stroke="black" stroke-dasharray="5,2" d="M3128.24,-179C3421.07,-179 4492.01,-179 4492.01,-179 4492.01,-179 4492.01,-205.99 4492.01,-205.99"/>
<polygon fill="black" stroke="black" points="4488.51,-205.99 4492.01,-215.99 4495.51,-205.99 4488.51,-205.99"/>
</g>
<!-- ListLeafItemComponent  -->
<g id="node40" class="node">
<title>ListLeafItemComponent </title>
<polygon fill="#fb8072" stroke="black" points="4361.91,-252 4204.09,-252 4204.09,-216 4361.91,-216 4361.91,-252"/>
<text text-anchor="middle" x="4283" y="-229.8" font-family="Times,serif" font-size="14.00">ListLeafItemComponent </text>
</g>
<!-- NuiDashboardsModule&#45;&gt;ListLeafItemComponent  -->
<g id="edge39" class="edge">
<title>NuiDashboardsModule&#45;&gt;ListLeafItemComponent </title>
<path fill="none" stroke="black" stroke-dasharray="5,2" d="M3128.47,-180C3382.53,-180 4208.44,-180 4208.44,-180 4208.44,-180 4208.44,-205.72 4208.44,-205.72"/>
<polygon fill="black" stroke="black" points="4204.94,-205.72 4208.44,-215.72 4211.94,-205.72 4204.94,-205.72"/>
</g>
<!-- ListNavigationBarComponent  -->
<g id="node41" class="node">
<title>ListNavigationBarComponent </title>
<polygon fill="#fb8072" stroke="black" points="4186.53,-252 3997.47,-252 3997.47,-216 4186.53,-216 4186.53,-252"/>
<text text-anchor="middle" x="4092" y="-229.8" font-family="Times,serif" font-size="14.00">ListNavigationBarComponent </text>
</g>
<!-- NuiDashboardsModule&#45;&gt;ListNavigationBarComponent  -->
<g id="edge40" class="edge">
<title>NuiDashboardsModule&#45;&gt;ListNavigationBarComponent </title>
<path fill="none" stroke="black" stroke-dasharray="5,2" d="M3128.18,-181C3353.79,-181 4023.41,-181 4023.41,-181 4023.41,-181 4023.41,-205.76 4023.41,-205.76"/>
<polygon fill="black" stroke="black" points="4019.91,-205.76 4023.41,-215.76 4026.91,-205.76 4019.91,-205.76"/>
</g>
<!-- ListWidgetComponent  -->
<g id="node42" class="node">
<title>ListWidgetComponent </title>
<polygon fill="#fb8072" stroke="black" points="3979.82,-252 3832.18,-252 3832.18,-216 3979.82,-216 3979.82,-252"/>
<text text-anchor="middle" x="3906" y="-229.8" font-family="Times,serif" font-size="14.00">ListWidgetComponent </text>
</g>
<!-- NuiDashboardsModule&#45;&gt;ListWidgetComponent  -->
<g id="edge41" class="edge">
<title>NuiDashboardsModule&#45;&gt;ListWidgetComponent </title>
<path fill="none" stroke="black" stroke-dasharray="5,2" d="M3128.29,-183C3334.71,-183 3906,-183 3906,-183 3906,-183 3906,-205.88 3906,-205.88"/>
<polygon fill="black" stroke="black" points="3902.5,-205.88 3906,-215.88 3909.5,-205.88 3902.5,-205.88"/>
</g>
<!-- LoadingComponent  -->
<g id="node43" class="node">
<title>LoadingComponent </title>
<polygon fill="#fb8072" stroke="black" points="3813.99,-252 3682.01,-252 3682.01,-216 3813.99,-216 3813.99,-252"/>
<text text-anchor="middle" x="3748" y="-229.8" font-family="Times,serif" font-size="14.00">LoadingComponent </text>
</g>
<!-- NuiDashboardsModule&#45;&gt;LoadingComponent  -->
<g id="edge42" class="edge">
<title>NuiDashboardsModule&#45;&gt;LoadingComponent </title>
<path fill="none" stroke="black" stroke-dasharray="5,2" d="M3128.44,-184C3305.48,-184 3741.26,-184 3741.26,-184 3741.26,-184 3741.26,-205.95 3741.26,-205.95"/>
<polygon fill="black" stroke="black" points="3737.76,-205.95 3741.26,-215.95 3744.76,-205.95 3737.76,-205.95"/>
</g>
<!-- ProportionalDonutContentComponent  -->
<g id="node44" class="node">
<title>ProportionalDonutContentComponent </title>
<polygon fill="#fb8072" stroke="black" points="3664.15,-252 3429.85,-252 3429.85,-216 3664.15,-216 3664.15,-252"/>
<text text-anchor="middle" x="3547" y="-229.8" font-family="Times,serif" font-size="14.00">ProportionalDonutContentComponent </text>
</g>
<!-- NuiDashboardsModule&#45;&gt;ProportionalDonutContentComponent  -->
<g id="edge43" class="edge">
<title>NuiDashboardsModule&#45;&gt;ProportionalDonutContentComponent </title>
<path fill="none" stroke="black" stroke-dasharray="5,2" d="M3128.35,-185C3241.31,-185 3444.95,-185 3444.95,-185 3444.95,-185 3444.95,-205.75 3444.95,-205.75"/>
<polygon fill="black" stroke="black" points="3441.45,-205.75 3444.95,-215.75 3448.45,-205.75 3441.45,-205.75"/>
</g>
<!-- ProportionalWidgetComponent  -->
<g id="node45" class="node">
<title>ProportionalWidgetComponent </title>
<polygon fill="#fb8072" stroke="black" points="3412.03,-252 3215.97,-252 3215.97,-216 3412.03,-216 3412.03,-252"/>
<text text-anchor="middle" x="3314" y="-229.8" font-family="Times,serif" font-size="14.00">ProportionalWidgetComponent </text>
</g>
<!-- NuiDashboardsModule&#45;&gt;ProportionalWidgetComponent  -->
<g id="edge44" class="edge">
<title>NuiDashboardsModule&#45;&gt;ProportionalWidgetComponent </title>
<path fill="none" stroke="black" stroke-dasharray="5,2" d="M3128.33,-186C3178.97,-186 3237.23,-186 3237.23,-186 3237.23,-186 3237.23,-205.85 3237.23,-205.85"/>
<polygon fill="black" stroke="black" points="3233.73,-205.85 3237.23,-215.85 3240.73,-205.85 3233.73,-205.85"/>
</g>
<!-- StackComponent  -->
<g id="node46" class="node">
<title>StackComponent </title>
<polygon fill="#fb8072" stroke="black" points="3197.93,-252 3082.07,-252 3082.07,-216 3197.93,-216 3197.93,-252"/>
<text text-anchor="middle" x="3140" y="-229.8" font-family="Times,serif" font-size="14.00">StackComponent </text>
</g>
<!-- NuiDashboardsModule&#45;&gt;StackComponent  -->
<g id="edge45" class="edge">
<title>NuiDashboardsModule&#45;&gt;StackComponent </title>
<path fill="none" stroke="black" stroke-dasharray="5,2" d="M3105.17,-187.11C3105.17,-187.11 3105.17,-205.99 3105.17,-205.99"/>
<polygon fill="black" stroke="black" points="3101.67,-205.99 3105.17,-215.99 3108.67,-205.99 3101.67,-205.99"/>
</g>
<!-- StackedAreaChartComponent  -->
<g id="node47" class="node">
<title>StackedAreaChartComponent </title>
<polygon fill="#fb8072" stroke="black" points="3063.95,-252 2876.05,-252 2876.05,-216 3063.95,-216 3063.95,-252"/>
<text text-anchor="middle" x="2970" y="-229.8" font-family="Times,serif" font-size="14.00">StackedAreaChartComponent </text>
</g>
<!-- NuiDashboardsModule&#45;&gt;StackedAreaChartComponent  -->
<g id="edge46" class="edge">
<title>NuiDashboardsModule&#45;&gt;StackedAreaChartComponent </title>
<path fill="none" stroke="black" stroke-dasharray="5,2" d="M3022.7,-187.11C3022.7,-187.11 3022.7,-205.99 3022.7,-205.99"/>
<polygon fill="black" stroke="black" points="3019.2,-205.99 3022.7,-215.99 3026.2,-205.99 3019.2,-205.99"/>
</g>
<!-- StackedBarChartComponent  -->
<g id="node48" class="node">
<title>StackedBarChartComponent </title>
<polygon fill="#fb8072" stroke="black" points="2858.46,-252 2677.54,-252 2677.54,-216 2858.46,-216 2858.46,-252"/>
<text text-anchor="middle" x="2768" y="-229.8" font-family="Times,serif" font-size="14.00">StackedBarChartComponent </text>
</g>
<!-- NuiDashboardsModule&#45;&gt;StackedBarChartComponent  -->
<g id="edge47" class="edge">
<title>NuiDashboardsModule&#45;&gt;StackedBarChartComponent </title>
<path fill="none" stroke="black" stroke-dasharray="5,2" d="M2981.63,-186C2918.75,-186 2838.28,-186 2838.28,-186 2838.28,-186 2838.28,-205.85 2838.28,-205.85"/>
<polygon fill="black" stroke="black" points="2834.78,-205.85 2838.28,-215.85 2841.78,-205.85 2834.78,-205.85"/>
</g>
<!-- StackedPercentageAreaChartComponent  -->
<g id="node49" class="node">
<title>StackedPercentageAreaChartComponent </title>
<polygon fill="#fb8072" stroke="black" points="2659.36,-252 2410.64,-252 2410.64,-216 2659.36,-216 2659.36,-252"/>
<text text-anchor="middle" x="2535" y="-229.8" font-family="Times,serif" font-size="14.00">StackedPercentageAreaChartComponent </text>
</g>
<!-- NuiDashboardsModule&#45;&gt;StackedPercentageAreaChartComponent  -->
<g id="edge48" class="edge">
<title>NuiDashboardsModule&#45;&gt;StackedPercentageAreaChartComponent </title>
<path fill="none" stroke="black" stroke-dasharray="5,2" d="M2981.5,-185C2863.89,-185 2646.5,-185 2646.5,-185 2646.5,-185 2646.5,-205.75 2646.5,-205.75"/>
<polygon fill="black" stroke="black" points="2643,-205.75 2646.5,-215.75 2650,-205.75 2643,-205.75"/>
</g>
<!-- StatusBarChartComponent  -->
<g id="node50" class="node">
<title>StatusBarChartComponent </title>
<polygon fill="#fb8072" stroke="black" points="2392.37,-252 2221.63,-252 2221.63,-216 2392.37,-216 2392.37,-252"/>
<text text-anchor="middle" x="2307" y="-229.8" font-family="Times,serif" font-size="14.00">StatusBarChartComponent </text>
</g>
<!-- NuiDashboardsModule&#45;&gt;StatusBarChartComponent  -->
<g id="edge49" class="edge">
<title>NuiDashboardsModule&#45;&gt;StatusBarChartComponent </title>
<path fill="none" stroke="black" stroke-dasharray="5,2" d="M2981.57,-184C2803.42,-184 2362.76,-184 2362.76,-184 2362.76,-184 2362.76,-205.95 2362.76,-205.95"/>
<polygon fill="black" stroke="black" points="2359.26,-205.95 2362.76,-215.95 2366.26,-205.95 2359.26,-205.95"/>
</g>
<!-- TableWidgetComponent  -->
<g id="node51" class="node">
<title>TableWidgetComponent </title>
<polygon fill="#fb8072" stroke="black" points="2203.92,-252 2046.08,-252 2046.08,-216 2203.92,-216 2203.92,-252"/>
<text text-anchor="middle" x="2125" y="-229.8" font-family="Times,serif" font-size="14.00">TableWidgetComponent </text>
</g>
<!-- NuiDashboardsModule&#45;&gt;TableWidgetComponent  -->
<g id="edge50" class="edge">
<title>NuiDashboardsModule&#45;&gt;TableWidgetComponent </title>
<path fill="none" stroke="black" stroke-dasharray="5,2" d="M2981.55,-183C2767.95,-183 2162.07,-183 2162.07,-183 2162.07,-183 2162.07,-205.88 2162.07,-205.88"/>
<polygon fill="black" stroke="black" points="2158.57,-205.88 2162.07,-215.88 2165.57,-205.88 2158.57,-205.88"/>
</g>
<!-- TilesComponent  -->
<g id="node52" class="node">
<title>TilesComponent </title>
<polygon fill="#fb8072" stroke="black" points="2028.33,-252 1915.67,-252 1915.67,-216 2028.33,-216 2028.33,-252"/>
<text text-anchor="middle" x="1972" y="-229.8" font-family="Times,serif" font-size="14.00">TilesComponent </text>
</g>
<!-- NuiDashboardsModule&#45;&gt;TilesComponent  -->
<g id="edge51" class="edge">
<title>NuiDashboardsModule&#45;&gt;TilesComponent </title>
<path fill="none" stroke="black" stroke-dasharray="5,2" d="M2981.5,-181C2738.01,-181 1973.22,-181 1973.22,-181 1973.22,-181 1973.22,-205.76 1973.22,-205.76"/>
<polygon fill="black" stroke="black" points="1969.72,-205.76 1973.22,-215.76 1976.72,-205.76 1969.72,-205.76"/>
</g>
<!-- TimeframeSelectionComponent  -->
<g id="node53" class="node">
<title>TimeframeSelectionComponent </title>
<polygon fill="#fb8072" stroke="black" points="1897.62,-252 1698.38,-252 1698.38,-216 1897.62,-216 1897.62,-252"/>
<text text-anchor="middle" x="1798" y="-229.8" font-family="Times,serif" font-size="14.00">TimeframeSelectionComponent </text>
</g>
<!-- NuiDashboardsModule&#45;&gt;TimeframeSelectionComponent  -->
<g id="edge52" class="edge">
<title>NuiDashboardsModule&#45;&gt;TimeframeSelectionComponent </title>
<path fill="none" stroke="black" stroke-dasharray="5,2" d="M2981.5,-180C2712.54,-180 1797.56,-180 1797.56,-180 1797.56,-180 1797.56,-205.72 1797.56,-205.72"/>
<polygon fill="black" stroke="black" points="1794.06,-205.72 1797.56,-215.72 1801.06,-205.72 1794.06,-205.72"/>
</g>
<!-- TimeseriesWidgetComponent  -->
<g id="node54" class="node">
<title>TimeseriesWidgetComponent </title>
<polygon fill="#fb8072" stroke="black" points="1680.96,-252 1493.04,-252 1493.04,-216 1680.96,-216 1680.96,-252"/>
<text text-anchor="middle" x="1587" y="-229.8" font-family="Times,serif" font-size="14.00">TimeseriesWidgetComponent </text>
</g>
<!-- NuiDashboardsModule&#45;&gt;TimeseriesWidgetComponent  -->
<g id="edge53" class="edge">
<title>NuiDashboardsModule&#45;&gt;TimeseriesWidgetComponent </title>
<path fill="none" stroke="black" stroke-dasharray="5,2" d="M2981.68,-179C2687.24,-179 1606.56,-179 1606.56,-179 1606.56,-179 1606.56,-205.99 1606.56,-205.99"/>
<polygon fill="black" stroke="black" points="1603.06,-205.99 1606.56,-215.99 1610.06,-205.99 1603.06,-205.99"/>
</g>
<!-- WidgetBodyComponent  -->
<g id="node55" class="node">
<title>WidgetBodyComponent </title>
<polygon fill="#fb8072" stroke="black" points="1475.38,-252 1318.62,-252 1318.62,-216 1475.38,-216 1475.38,-252"/>
<text text-anchor="middle" x="1397" y="-229.8" font-family="Times,serif" font-size="14.00">WidgetBodyComponent </text>
</g>
<!-- NuiDashboardsModule&#45;&gt;WidgetBodyComponent  -->
<g id="edge54" class="edge">
<title>NuiDashboardsModule&#45;&gt;WidgetBodyComponent </title>
<path fill="none" stroke="black" stroke-dasharray="5,2" d="M2981.64,-178C2665.27,-178 1433.46,-178 1433.46,-178 1433.46,-178 1433.46,-205.97 1433.46,-205.97"/>
<polygon fill="black" stroke="black" points="1429.96,-205.97 1433.46,-215.97 1436.96,-205.97 1429.96,-205.97"/>
</g>
<!-- WidgetBodyContentComponent  -->
<g id="node56" class="node">
<title>WidgetBodyContentComponent </title>
<polygon fill="#fb8072" stroke="black" points="1300.21,-252 1099.79,-252 1099.79,-216 1300.21,-216 1300.21,-252"/>
<text text-anchor="middle" x="1200" y="-229.8" font-family="Times,serif" font-size="14.00">WidgetBodyContentComponent </text>
</g>
<!-- NuiDashboardsModule&#45;&gt;WidgetBodyContentComponent  -->
<g id="edge55" class="edge">
<title>NuiDashboardsModule&#45;&gt;WidgetBodyContentComponent </title>
<path fill="none" stroke="black" stroke-dasharray="5,2" d="M2981.78,-176C2645.45,-176 1265.11,-176 1265.11,-176 1265.11,-176 1265.11,-205.97 1265.11,-205.97"/>
<polygon fill="black" stroke="black" points="1261.61,-205.97 1265.11,-215.97 1268.61,-205.97 1261.61,-205.97"/>
</g>
<!-- WidgetComponent  -->
<g id="node57" class="node">
<title>WidgetComponent </title>
<polygon fill="#fb8072" stroke="black" points="1082.04,-252 955.96,-252 955.96,-216 1082.04,-216 1082.04,-252"/>
<text text-anchor="middle" x="1019" y="-229.8" font-family="Times,serif" font-size="14.00">WidgetComponent </text>
</g>
<!-- NuiDashboardsModule&#45;&gt;WidgetComponent  -->
<g id="edge56" class="edge">
<title>NuiDashboardsModule&#45;&gt;WidgetComponent </title>
<path fill="none" stroke="black" stroke-dasharray="5,2" d="M2981.82,-175C2622.85,-175 1065.27,-175 1065.27,-175 1065.27,-175 1065.27,-205.98 1065.27,-205.98"/>
<polygon fill="black" stroke="black" points="1061.77,-205.98 1065.27,-215.98 1068.77,-205.98 1061.77,-205.98"/>
</g>
<!-- WidgetEditorDirective  -->
<g id="node58" class="node">
<title>WidgetEditorDirective </title>
<polygon fill="#fb8072" stroke="black" points="937.79,-252 790.21,-252 790.21,-216 937.79,-216 937.79,-252"/>
<text text-anchor="middle" x="864" y="-229.8" font-family="Times,serif" font-size="14.00">WidgetEditorDirective </text>
</g>
<!-- NuiDashboardsModule&#45;&gt;WidgetEditorDirective  -->
<g id="edge57" class="edge">
<title>NuiDashboardsModule&#45;&gt;WidgetEditorDirective </title>
<path fill="none" stroke="black" stroke-dasharray="5,2" d="M2981.57,-174C2604.55,-174 903.79,-174 903.79,-174 903.79,-174 903.79,-206 903.79,-206"/>
<polygon fill="black" stroke="black" points="900.29,-206 903.79,-216 907.29,-206 900.29,-206"/>
</g>
<!-- WidgetHeaderComponent  -->
<g id="node59" class="node">
<title>WidgetHeaderComponent </title>
<polygon fill="#fb8072" stroke="black" points="772.45,-252 605.55,-252 605.55,-216 772.45,-216 772.45,-252"/>
<text text-anchor="middle" x="689" y="-229.8" font-family="Times,serif" font-size="14.00">WidgetHeaderComponent </text>
</g>
<!-- NuiDashboardsModule&#45;&gt;WidgetHeaderComponent  -->
<g id="edge58" class="edge">
<title>NuiDashboardsModule&#45;&gt;WidgetHeaderComponent </title>
<path fill="none" stroke="black" stroke-dasharray="5,2" d="M2981.62,-173C2583.47,-173 700.29,-173 700.29,-173 700.29,-173 700.29,-205.7 700.29,-205.7"/>
<polygon fill="black" stroke="black" points="696.79,-205.7 700.29,-215.7 703.79,-205.7 696.79,-205.7"/>
</g>
<!-- WidgetSearchComponent  -->
<g id="node60" class="node">
<title>WidgetSearchComponent </title>
<polygon fill="#fb8072" stroke="black" points="588.13,-252 423.87,-252 423.87,-216 588.13,-216 588.13,-252"/>
<text text-anchor="middle" x="506" y="-229.8" font-family="Times,serif" font-size="14.00">WidgetSearchComponent </text>
</g>
<!-- NuiDashboardsModule&#45;&gt;WidgetSearchComponent  -->
<g id="edge59" class="edge">
<title>NuiDashboardsModule&#45;&gt;WidgetSearchComponent </title>
<path fill="none" stroke="black" stroke-dasharray="5,2" d="M2981.8,-171C2564.65,-171 506,-171 506,-171 506,-171 506,-205.78 506,-205.78"/>
<polygon fill="black" stroke="black" points="502.5,-205.78 506,-215.78 509.5,-205.78 502.5,-205.78"/>
</g>
<!-- NuiDashboardConfiguratorModule -->
<g id="node30" class="node">
<title>NuiDashboardConfiguratorModule</title>
<polygon fill="#8dd3c7" stroke="black" points="603.5,-122 600.5,-126 579.5,-126 576.5,-122 390.5,-122 390.5,-86 603.5,-86 603.5,-122"/>
<text text-anchor="middle" x="497" y="-99.8" font-family="Times,serif" font-size="14.00">NuiDashboardConfiguratorModule</text>
</g>
<!-- NuiDashboardConfiguratorModule&#45;&gt;NuiDashboardsModule -->
<g id="edge29" class="edge">
<title>NuiDashboardConfiguratorModule&#45;&gt;NuiDashboardsModule</title>
<path fill="none" stroke="black" d="M595.91,-122.17C595.91,-141.09 595.91,-168 595.91,-168 595.91,-168 2971.74,-168 2971.74,-168"/>
<polygon fill="black" stroke="black" points="2971.74,-171.5 2981.74,-168 2971.74,-164.5 2971.74,-171.5"/>
</g>
<!-- NuiDashboardsCommonModule -->
<g id="node31" class="node">
<title>NuiDashboardsCommonModule</title>
<polygon fill="#8dd3c7" stroke="black" points="372.25,-122 369.25,-126 348.25,-126 345.25,-122 173.75,-122 173.75,-86 372.25,-86 372.25,-122"/>
<text text-anchor="middle" x="273" y="-99.8" font-family="Times,serif" font-size="14.00">NuiDashboardsCommonModule</text>
</g>
<!-- NuiDashboardsCommonModule&#45;&gt;NuiDashboardsModule -->
<g id="edge30" class="edge">
<title>NuiDashboardsCommonModule&#45;&gt;NuiDashboardsModule</title>
<path fill="none" stroke="black" d="M273,-122.11C273,-141.34 273,-169 273,-169 273,-169 2971.66,-169 2971.66,-169"/>
<polygon fill="black" stroke="black" points="2971.66,-172.5 2981.66,-169 2971.66,-165.5 2971.66,-172.5"/>
</g>
<!-- NuiPizzagnaModule -->
<g id="node32" class="node">
<title>NuiPizzagnaModule</title>
<polygon fill="#8dd3c7" stroke="black" points="155.58,-122 152.58,-126 131.58,-126 128.58,-122 24.42,-122 24.42,-86 155.58,-86 155.58,-122"/>
<text text-anchor="middle" x="90" y="-99.8" font-family="Times,serif" font-size="14.00">NuiPizzagnaModule</text>
</g>
<!-- NuiPizzagnaModule&#45;&gt;NuiDashboardsModule -->
<g id="edge31" class="edge">
<title>NuiPizzagnaModule&#45;&gt;NuiDashboardsModule</title>
<path fill="none" stroke="black" d="M90,-122.03C90,-141.58 90,-170 90,-170 90,-170 2971.71,-170 2971.71,-170"/>
<polygon fill="black" stroke="black" points="2971.71,-173.5 2981.71,-170 2971.71,-166.5 2971.71,-173.5"/>
</g>
<!-- RefresherSettingsService -->
<g id="node61" class="node">
<title>RefresherSettingsService</title>
<ellipse fill="#fdb462" stroke="black" cx="737" cy="-104" rx="108.78" ry="18"/>
<text text-anchor="middle" x="737" y="-99.8" font-family="Times,serif" font-size="14.00">RefresherSettingsService</text>
</g>
<!-- RefresherSettingsService&#45;&gt;NuiDashboardsModule -->
<g id="edge60" class="edge">
<title>RefresherSettingsService&#45;&gt;NuiDashboardsModule</title>
<path fill="none" stroke="black" d="M817.87,-116.25C817.87,-134.32 817.87,-166 817.87,-166 817.87,-166 2971.84,-166 2971.84,-166"/>
<polygon fill="black" stroke="black" points="2971.84,-169.5 2981.84,-166 2971.84,-162.5 2971.84,-169.5"/>
</g>
</g>
</svg>
