<?xml version="1.0" encoding="UTF-8" standalone="no"?>
<!DOCTYPE svg PUBLIC "-//W3C//DTD SVG 1.1//EN"
 "http://www.w3.org/Graphics/SVG/1.1/DTD/svg11.dtd">
<!-- Generated by graphviz version 2.46.0 (20210119.1425)
 -->
<!-- Title: dependencies Pages: 1 -->
<svg width="6273pt" height="284pt"
 viewBox="0.00 0.00 6273.00 284.00" xmlns="http://www.w3.org/2000/svg" xmlns:xlink="http://www.w3.org/1999/xlink">
<g id="graph0" class="graph" transform="scale(1 1) rotate(0) translate(4 280)">
<title>dependencies</title>
<polygon fill="white" stroke="transparent" points="-4,4 -4,-280 6269,-280 6269,4 -4,4"/>
<text text-anchor="start" x="3111.51" y="-42.4" font-family="sans-serif" font-weight="bold" font-size="14.00">Legend</text>
<polygon fill="#ffffb3" stroke="transparent" points="2898.5,-10 2898.5,-30 2918.5,-30 2918.5,-10 2898.5,-10"/>
<text text-anchor="start" x="2922.13" y="-15.4" font-family="sans-serif" font-size="14.00"> &#160;Declarations</text>
<polygon fill="#8dd3c7" stroke="transparent" points="3011.5,-10 3011.5,-30 3031.5,-30 3031.5,-10 3011.5,-10"/>
<text text-anchor="start" x="3035.23" y="-15.4" font-family="sans-serif" font-size="14.00"> &#160;Module</text>
<polygon fill="#80b1d3" stroke="transparent" points="3097.5,-10 3097.5,-30 3117.5,-30 3117.5,-10 3097.5,-10"/>
<text text-anchor="start" x="3121.28" y="-15.4" font-family="sans-serif" font-size="14.00"> &#160;Bootstrap</text>
<polygon fill="#fdb462" stroke="transparent" points="3194.5,-10 3194.5,-30 3214.5,-30 3214.5,-10 3194.5,-10"/>
<text text-anchor="start" x="3218.17" y="-15.4" font-family="sans-serif" font-size="14.00"> &#160;Providers</text>
<polygon fill="#fb8072" stroke="transparent" points="3290.5,-10 3290.5,-30 3310.5,-30 3310.5,-10 3290.5,-10"/>
<text text-anchor="start" x="3314.23" y="-15.4" font-family="sans-serif" font-size="14.00"> &#160;Exports</text>
<g id="clust1" class="cluster">
<title>cluster_NuiDashboardsModule</title>
<polygon fill="none" stroke="black" stroke-dasharray="1,5" points="8,-70 8,-268 6257,-268 6257,-70 8,-70"/>
</g>
<g id="clust32" class="cluster">
<title>cluster_NuiDashboardsModule_exports</title>
<polygon fill="none" stroke="black" points="449,-208 449,-260 5737,-260 5737,-208 449,-208"/>
</g>
<g id="clust31" class="cluster">
<title>cluster_NuiDashboardsModule_imports</title>
<polygon fill="none" stroke="black" points="5209,-78 5209,-130 5805,-130 5805,-78 5209,-78"/>
</g>
<g id="clust2" class="cluster">
<title>cluster_NuiDashboardsModule_declarations</title>
<polygon fill="none" stroke="black" points="16,-78 16,-130 5201,-130 5201,-78 16,-78"/>
</g>
<!-- DashboardComponent -->
<g id="node1" class="node">
<title>DashboardComponent</title>
<polygon fill="#ffffb3" stroke="black" points="5192.97,-122 5051.03,-122 5051.03,-86 5192.97,-86 5192.97,-122"/>
<text text-anchor="middle" x="5122" y="-99.8" font-family="Times,serif" font-size="14.00">DashboardComponent</text>
</g>
<!-- NuiDashboardsModule -->
<g id="node29" class="node">
<title>NuiDashboardsModule</title>
<polygon fill="#8dd3c7" stroke="black" points="3161.13,-187 3158.13,-191 3137.13,-191 3134.13,-187 3014.87,-187 3014.87,-151 3161.13,-151 3161.13,-187"/>
<text text-anchor="middle" x="3088" y="-164.8" font-family="Times,serif" font-size="14.00">NuiDashboardsModule</text>
</g>
<!-- DashboardComponent&#45;&gt;NuiDashboardsModule -->
<g id="edge1" class="edge">
<title>DashboardComponent&#45;&gt;NuiDashboardsModule</title>
<path fill="none" stroke="black" d="M5065,-122.3C5065,-140.27 5065,-165 5065,-165 5065,-165 3171.3,-165 3171.3,-165"/>
<polygon fill="black" stroke="black" points="3171.3,-161.5 3161.3,-165 3171.3,-168.5 3171.3,-161.5"/>
</g>
<!-- DelayedMousePresenceDetectionDirective -->
<g id="node2" class="node">
<title>DelayedMousePresenceDetectionDirective</title>
<polygon fill="#ffffb3" stroke="black" points="5033.5,-122 4776.5,-122 4776.5,-86 5033.5,-86 5033.5,-122"/>
<text text-anchor="middle" x="4905" y="-99.8" font-family="Times,serif" font-size="14.00">DelayedMousePresenceDetectionDirective</text>
</g>
<!-- DelayedMousePresenceDetectionDirective&#45;&gt;NuiDashboardsModule -->
<g id="edge2" class="edge">
<title>DelayedMousePresenceDetectionDirective&#45;&gt;NuiDashboardsModule</title>
<path fill="none" stroke="black" d="M4820.71,-122.02C4820.71,-139.37 4820.71,-163 4820.71,-163 4820.71,-163 3171.35,-163 3171.35,-163"/>
<polygon fill="black" stroke="black" points="3171.35,-159.5 3161.35,-163 3171.35,-166.5 3171.35,-159.5"/>
</g>
<!-- EmbeddedContentComponent -->
<g id="node3" class="node">
<title>EmbeddedContentComponent</title>
<polygon fill="#ffffb3" stroke="black" points="4758.54,-122 4573.46,-122 4573.46,-86 4758.54,-86 4758.54,-122"/>
<text text-anchor="middle" x="4666" y="-99.8" font-family="Times,serif" font-size="14.00">EmbeddedContentComponent</text>
</g>
<!-- EmbeddedContentComponent&#45;&gt;NuiDashboardsModule -->
<g id="edge3" class="edge">
<title>EmbeddedContentComponent&#45;&gt;NuiDashboardsModule</title>
<path fill="none" stroke="black" d="M4577.12,-122.03C4577.12,-139.06 4577.12,-162 4577.12,-162 4577.12,-162 3171.34,-162 3171.34,-162"/>
<polygon fill="black" stroke="black" points="3171.34,-158.5 3161.34,-162 3171.34,-165.5 3171.34,-158.5"/>
</g>
<!-- GridsterItemWidgetIdDirective -->
<g id="node4" class="node">
<title>GridsterItemWidgetIdDirective</title>
<polygon fill="#ffffb3" stroke="black" points="4555.48,-122 4362.52,-122 4362.52,-86 4555.48,-86 4555.48,-122"/>
<text text-anchor="middle" x="4459" y="-99.8" font-family="Times,serif" font-size="14.00">GridsterItemWidgetIdDirective</text>
</g>
<!-- GridsterItemWidgetIdDirective&#45;&gt;NuiDashboardsModule -->
<g id="edge4" class="edge">
<title>GridsterItemWidgetIdDirective&#45;&gt;NuiDashboardsModule</title>
<path fill="none" stroke="black" d="M4378.86,-122.04C4378.86,-138.73 4378.86,-161 4378.86,-161 4378.86,-161 3171.57,-161 3171.57,-161"/>
<polygon fill="black" stroke="black" points="3171.57,-157.5 3161.57,-161 3171.57,-164.5 3171.57,-157.5"/>
</g>
<!-- KpiComponent -->
<g id="node5" class="node">
<title>KpiComponent</title>
<polygon fill="#ffffb3" stroke="black" points="4345.33,-122 4242.67,-122 4242.67,-86 4345.33,-86 4345.33,-122"/>
<text text-anchor="middle" x="4294" y="-99.8" font-family="Times,serif" font-size="14.00">KpiComponent</text>
</g>
<!-- KpiComponent&#45;&gt;NuiDashboardsModule -->
<g id="edge5" class="edge">
<title>KpiComponent&#45;&gt;NuiDashboardsModule</title>
<path fill="none" stroke="black" d="M4311.05,-122.03C4311.05,-138.4 4311.05,-160 4311.05,-160 4311.05,-160 3171.3,-160 3171.3,-160"/>
<polygon fill="black" stroke="black" points="3171.3,-156.5 3161.3,-160 3171.3,-163.5 3171.3,-156.5"/>
</g>
<!-- LineChartComponent -->
<g id="node6" class="node">
<title>LineChartComponent</title>
<polygon fill="#ffffb3" stroke="black" points="4225.09,-122 4086.91,-122 4086.91,-86 4225.09,-86 4225.09,-122"/>
<text text-anchor="middle" x="4156" y="-99.8" font-family="Times,serif" font-size="14.00">LineChartComponent</text>
</g>
<!-- LineChartComponent&#45;&gt;NuiDashboardsModule -->
<g id="edge6" class="edge">
<title>LineChartComponent&#45;&gt;NuiDashboardsModule</title>
<path fill="none" stroke="black" d="M4153.23,-122.01C4153.23,-138.05 4153.23,-159 4153.23,-159 4153.23,-159 3171.22,-159 3171.22,-159"/>
<polygon fill="black" stroke="black" points="3171.22,-155.5 3161.22,-159 3171.22,-162.5 3171.22,-155.5"/>
</g>
<!-- ListGroupItemComponent -->
<g id="node7" class="node">
<title>ListGroupItemComponent</title>
<polygon fill="#ffffb3" stroke="black" points="4069.04,-122 3904.96,-122 3904.96,-86 4069.04,-86 4069.04,-122"/>
<text text-anchor="middle" x="3987" y="-99.8" font-family="Times,serif" font-size="14.00">ListGroupItemComponent</text>
</g>
<!-- ListGroupItemComponent&#45;&gt;NuiDashboardsModule -->
<g id="edge7" class="edge">
<title>ListGroupItemComponent&#45;&gt;NuiDashboardsModule</title>
<path fill="none" stroke="black" d="M3958.82,-122.24C3958.82,-137.57 3958.82,-157 3958.82,-157 3958.82,-157 3171.5,-157 3171.5,-157"/>
<polygon fill="black" stroke="black" points="3171.5,-153.5 3161.5,-157 3171.5,-160.5 3171.5,-153.5"/>
</g>
<!-- ListLeafItemComponent -->
<g id="node8" class="node">
<title>ListLeafItemComponent</title>
<polygon fill="#ffffb3" stroke="black" points="3887.41,-122 3732.59,-122 3732.59,-86 3887.41,-86 3887.41,-122"/>
<text text-anchor="middle" x="3810" y="-99.8" font-family="Times,serif" font-size="14.00">ListLeafItemComponent</text>
</g>
<!-- ListLeafItemComponent&#45;&gt;NuiDashboardsModule -->
<g id="edge8" class="edge">
<title>ListLeafItemComponent&#45;&gt;NuiDashboardsModule</title>
<path fill="none" stroke="black" d="M3789.77,-122.19C3789.77,-137.18 3789.77,-156 3789.77,-156 3789.77,-156 3171.45,-156 3171.45,-156"/>
<polygon fill="black" stroke="black" points="3171.45,-152.5 3161.45,-156 3171.45,-159.5 3171.45,-152.5"/>
</g>
<!-- ListNavigationBarComponent -->
<g id="node9" class="node">
<title>ListNavigationBarComponent</title>
<polygon fill="#ffffb3" stroke="black" points="3714.53,-122 3529.47,-122 3529.47,-86 3714.53,-86 3714.53,-122"/>
<text text-anchor="middle" x="3622" y="-99.8" font-family="Times,serif" font-size="14.00">ListNavigationBarComponent</text>
</g>
<!-- ListNavigationBarComponent&#45;&gt;NuiDashboardsModule -->
<g id="edge9" class="edge">
<title>ListNavigationBarComponent&#45;&gt;NuiDashboardsModule</title>
<path fill="none" stroke="black" d="M3613.16,-122.12C3613.16,-136.78 3613.16,-155 3613.16,-155 3613.16,-155 3171.3,-155 3171.3,-155"/>
<polygon fill="black" stroke="black" points="3171.3,-151.5 3161.3,-155 3171.3,-158.5 3171.3,-151.5"/>
</g>
<!-- ListWidgetComponent -->
<g id="node10" class="node">
<title>ListWidgetComponent</title>
<polygon fill="#ffffb3" stroke="black" points="3511.32,-122 3366.68,-122 3366.68,-86 3511.32,-86 3511.32,-122"/>
<text text-anchor="middle" x="3439" y="-99.8" font-family="Times,serif" font-size="14.00">ListWidgetComponent</text>
</g>
<!-- ListWidgetComponent&#45;&gt;NuiDashboardsModule -->
<g id="edge10" class="edge">
<title>ListWidgetComponent&#45;&gt;NuiDashboardsModule</title>
<path fill="none" stroke="black" d="M3405.93,-122.05C3405.93,-136.37 3405.93,-154 3405.93,-154 3405.93,-154 3171.34,-154 3171.34,-154"/>
<polygon fill="black" stroke="black" points="3171.34,-150.5 3161.34,-154 3171.34,-157.5 3171.34,-150.5"/>
</g>
<!-- LoadingComponent -->
<g id="node11" class="node">
<title>LoadingComponent</title>
<polygon fill="#ffffb3" stroke="black" points="3348.99,-122 3221.01,-122 3221.01,-86 3348.99,-86 3348.99,-122"/>
<text text-anchor="middle" x="3285" y="-99.8" font-family="Times,serif" font-size="14.00">LoadingComponent</text>
</g>
<!-- LoadingComponent&#45;&gt;NuiDashboardsModule -->
<g id="edge11" class="edge">
<title>LoadingComponent&#45;&gt;NuiDashboardsModule</title>
<path fill="none" stroke="black" d="M3225.99,-122.25C3225.99,-136.18 3225.99,-153 3225.99,-153 3225.99,-153 3171.44,-153 3171.44,-153"/>
<polygon fill="black" stroke="black" points="3171.44,-149.5 3161.44,-153 3171.44,-156.5 3171.44,-149.5"/>
</g>
<!-- ProportionalDonutContentComponent -->
<g id="node12" class="node">
<title>ProportionalDonutContentComponent</title>
<polygon fill="#ffffb3" stroke="black" points="3203.15,-122 2972.85,-122 2972.85,-86 3203.15,-86 3203.15,-122"/>
<text text-anchor="middle" x="3088" y="-99.8" font-family="Times,serif" font-size="14.00">ProportionalDonutContentComponent</text>
</g>
<!-- ProportionalDonutContentComponent&#45;&gt;NuiDashboardsModule -->
<g id="edge12" class="edge">
<title>ProportionalDonutContentComponent&#45;&gt;NuiDashboardsModule</title>
<path fill="none" stroke="black" d="M3088,-122.11C3088,-122.11 3088,-140.99 3088,-140.99"/>
<polygon fill="black" stroke="black" points="3084.5,-140.99 3088,-150.99 3091.5,-140.99 3084.5,-140.99"/>
</g>
<!-- ProportionalWidgetComponent -->
<g id="node13" class="node">
<title>ProportionalWidgetComponent</title>
<polygon fill="#ffffb3" stroke="black" points="2954.03,-122 2761.97,-122 2761.97,-86 2954.03,-86 2954.03,-122"/>
<text text-anchor="middle" x="2858" y="-99.8" font-family="Times,serif" font-size="14.00">ProportionalWidgetComponent</text>
</g>
<!-- ProportionalWidgetComponent&#45;&gt;NuiDashboardsModule -->
<g id="edge13" class="edge">
<title>ProportionalWidgetComponent&#45;&gt;NuiDashboardsModule</title>
<path fill="none" stroke="black" d="M2931.77,-122.25C2931.77,-136.18 2931.77,-153 2931.77,-153 2931.77,-153 3004.46,-153 3004.46,-153"/>
<polygon fill="black" stroke="black" points="3004.46,-156.5 3014.46,-153 3004.46,-149.5 3004.46,-156.5"/>
</g>
<!-- StackComponent -->
<g id="node14" class="node">
<title>StackComponent</title>
<polygon fill="#ffffb3" stroke="black" points="2744.44,-122 2631.56,-122 2631.56,-86 2744.44,-86 2744.44,-122"/>
<text text-anchor="middle" x="2688" y="-99.8" font-family="Times,serif" font-size="14.00">StackComponent</text>
</g>
<!-- StackComponent&#45;&gt;NuiDashboardsModule -->
<g id="edge14" class="edge">
<title>StackComponent&#45;&gt;NuiDashboardsModule</title>
<path fill="none" stroke="black" d="M2727.49,-122.05C2727.49,-136.37 2727.49,-154 2727.49,-154 2727.49,-154 3004.61,-154 3004.61,-154"/>
<polygon fill="black" stroke="black" points="3004.61,-157.5 3014.61,-154 3004.61,-150.5 3004.61,-157.5"/>
</g>
<!-- StackedAreaChartComponent -->
<g id="node15" class="node">
<title>StackedAreaChartComponent</title>
<polygon fill="#ffffb3" stroke="black" points="2613.95,-122 2430.05,-122 2430.05,-86 2613.95,-86 2613.95,-122"/>
<text text-anchor="middle" x="2522" y="-99.8" font-family="Times,serif" font-size="14.00">StackedAreaChartComponent</text>
</g>
<!-- StackedAreaChartComponent&#45;&gt;NuiDashboardsModule -->
<g id="edge15" class="edge">
<title>StackedAreaChartComponent&#45;&gt;NuiDashboardsModule</title>
<path fill="none" stroke="black" d="M2528.77,-122.12C2528.77,-136.78 2528.77,-155 2528.77,-155 2528.77,-155 3004.6,-155 3004.6,-155"/>
<polygon fill="black" stroke="black" points="3004.6,-158.5 3014.6,-155 3004.6,-151.5 3004.6,-158.5"/>
</g>
<!-- StackedBarChartComponent -->
<g id="node16" class="node">
<title>StackedBarChartComponent</title>
<polygon fill="#ffffb3" stroke="black" points="2412.46,-122 2235.54,-122 2235.54,-86 2412.46,-86 2412.46,-122"/>
<text text-anchor="middle" x="2324" y="-99.8" font-family="Times,serif" font-size="14.00">StackedBarChartComponent</text>
</g>
<!-- StackedBarChartComponent&#45;&gt;NuiDashboardsModule -->
<g id="edge16" class="edge">
<title>StackedBarChartComponent&#45;&gt;NuiDashboardsModule</title>
<path fill="none" stroke="black" d="M2333.65,-122.19C2333.65,-137.18 2333.65,-156 2333.65,-156 2333.65,-156 3004.64,-156 3004.64,-156"/>
<polygon fill="black" stroke="black" points="3004.64,-159.5 3014.64,-156 3004.64,-152.5 3004.64,-159.5"/>
</g>
<!-- StackedPercentageAreaChartComponent -->
<g id="node17" class="node">
<title>StackedPercentageAreaChartComponent</title>
<polygon fill="#ffffb3" stroke="black" points="2217.86,-122 1972.14,-122 1972.14,-86 2217.86,-86 2217.86,-122"/>
<text text-anchor="middle" x="2095" y="-99.8" font-family="Times,serif" font-size="14.00">StackedPercentageAreaChartComponent</text>
</g>
<!-- StackedPercentageAreaChartComponent&#45;&gt;NuiDashboardsModule -->
<g id="edge17" class="edge">
<title>StackedPercentageAreaChartComponent&#45;&gt;NuiDashboardsModule</title>
<path fill="none" stroke="black" d="M2148.36,-122.24C2148.36,-137.57 2148.36,-157 2148.36,-157 2148.36,-157 3004.66,-157 3004.66,-157"/>
<polygon fill="black" stroke="black" points="3004.66,-160.5 3014.66,-157 3004.66,-153.5 3004.66,-160.5"/>
</g>
<!-- StatusBarChartComponent -->
<g id="node18" class="node">
<title>StatusBarChartComponent</title>
<polygon fill="#ffffb3" stroke="black" points="1954.37,-122 1787.63,-122 1787.63,-86 1954.37,-86 1954.37,-122"/>
<text text-anchor="middle" x="1871" y="-99.8" font-family="Times,serif" font-size="14.00">StatusBarChartComponent</text>
</g>
<!-- StatusBarChartComponent&#45;&gt;NuiDashboardsModule -->
<g id="edge18" class="edge">
<title>StatusBarChartComponent&#45;&gt;NuiDashboardsModule</title>
<path fill="none" stroke="black" d="M1939.57,-122.01C1939.57,-138.05 1939.57,-159 1939.57,-159 1939.57,-159 3004.85,-159 3004.85,-159"/>
<polygon fill="black" stroke="black" points="3004.85,-162.5 3014.85,-159 3004.85,-155.5 3004.85,-162.5"/>
</g>
<!-- TableWidgetComponent -->
<g id="node19" class="node">
<title>TableWidgetComponent</title>
<polygon fill="#ffffb3" stroke="black" points="1769.42,-122 1614.58,-122 1614.58,-86 1769.42,-86 1769.42,-122"/>
<text text-anchor="middle" x="1692" y="-99.8" font-family="Times,serif" font-size="14.00">TableWidgetComponent</text>
</g>
<!-- TableWidgetComponent&#45;&gt;NuiDashboardsModule -->
<g id="edge19" class="edge">
<title>TableWidgetComponent&#45;&gt;NuiDashboardsModule</title>
<path fill="none" stroke="black" d="M1750.32,-122.03C1750.32,-138.4 1750.32,-160 1750.32,-160 1750.32,-160 3004.65,-160 3004.65,-160"/>
<polygon fill="black" stroke="black" points="3004.65,-163.5 3014.65,-160 3004.65,-156.5 3004.65,-163.5"/>
</g>
<!-- TilesComponent -->
<g id="node20" class="node">
<title>TilesComponent</title>
<polygon fill="#ffffb3" stroke="black" points="1596.83,-122 1487.17,-122 1487.17,-86 1596.83,-86 1596.83,-122"/>
<text text-anchor="middle" x="1542" y="-99.8" font-family="Times,serif" font-size="14.00">TilesComponent</text>
</g>
<!-- TilesComponent&#45;&gt;NuiDashboardsModule -->
<g id="edge20" class="edge">
<title>TilesComponent&#45;&gt;NuiDashboardsModule</title>
<path fill="none" stroke="black" d="M1561.47,-122.04C1561.47,-138.73 1561.47,-161 1561.47,-161 1561.47,-161 3004.63,-161 3004.63,-161"/>
<polygon fill="black" stroke="black" points="3004.63,-164.5 3014.63,-161 3004.63,-157.5 3004.63,-164.5"/>
</g>
<!-- TimeframeSelectionComponent -->
<g id="node21" class="node">
<title>TimeframeSelectionComponent</title>
<polygon fill="#ffffb3" stroke="black" points="1469.62,-122 1274.38,-122 1274.38,-86 1469.62,-86 1469.62,-122"/>
<text text-anchor="middle" x="1372" y="-99.8" font-family="Times,serif" font-size="14.00">TimeframeSelectionComponent</text>
</g>
<!-- TimeframeSelectionComponent&#45;&gt;NuiDashboardsModule -->
<g id="edge21" class="edge">
<title>TimeframeSelectionComponent&#45;&gt;NuiDashboardsModule</title>
<path fill="none" stroke="black" d="M1410.81,-122.03C1410.81,-139.06 1410.81,-162 1410.81,-162 1410.81,-162 3004.85,-162 3004.85,-162"/>
<polygon fill="black" stroke="black" points="3004.85,-165.5 3014.85,-162 3004.85,-158.5 3004.85,-165.5"/>
</g>
<!-- TimeseriesWidgetComponent -->
<g id="node22" class="node">
<title>TimeseriesWidgetComponent</title>
<polygon fill="#ffffb3" stroke="black" points="1255.96,-122 1072.04,-122 1072.04,-86 1255.96,-86 1255.96,-122"/>
<text text-anchor="middle" x="1164" y="-99.8" font-family="Times,serif" font-size="14.00">TimeseriesWidgetComponent</text>
</g>
<!-- TimeseriesWidgetComponent&#45;&gt;NuiDashboardsModule -->
<g id="edge22" class="edge">
<title>TimeseriesWidgetComponent&#45;&gt;NuiDashboardsModule</title>
<path fill="none" stroke="black" d="M1194.31,-122.02C1194.31,-139.37 1194.31,-163 1194.31,-163 1194.31,-163 3004.64,-163 3004.64,-163"/>
<polygon fill="black" stroke="black" points="3004.64,-166.5 3014.64,-163 3004.64,-159.5 3004.64,-166.5"/>
</g>
<!-- WidgetBodyComponent -->
<g id="node23" class="node">
<title>WidgetBodyComponent</title>
<polygon fill="#ffffb3" stroke="black" points="1054.38,-122 901.62,-122 901.62,-86 1054.38,-86 1054.38,-122"/>
<text text-anchor="middle" x="978" y="-99.8" font-family="Times,serif" font-size="14.00">WidgetBodyComponent</text>
</g>
<!-- WidgetBodyComponent&#45;&gt;NuiDashboardsModule -->
<g id="edge23" class="edge">
<title>WidgetBodyComponent&#45;&gt;NuiDashboardsModule</title>
<path fill="none" stroke="black" d="M1021.71,-122.3C1021.71,-140.27 1021.71,-165 1021.71,-165 1021.71,-165 3004.76,-165 3004.76,-165"/>
<polygon fill="black" stroke="black" points="3004.76,-168.5 3014.76,-165 3004.76,-161.5 3004.76,-168.5"/>
</g>
<!-- WidgetBodyContentComponent -->
<g id="node24" class="node">
<title>WidgetBodyContentComponent</title>
<polygon fill="#ffffb3" stroke="black" points="883.71,-122 686.29,-122 686.29,-86 883.71,-86 883.71,-122"/>
<text text-anchor="middle" x="785" y="-99.8" font-family="Times,serif" font-size="14.00">WidgetBodyContentComponent</text>
</g>
<!-- WidgetBodyContentComponent&#45;&gt;NuiDashboardsModule -->
<g id="edge24" class="edge">
<title>WidgetBodyContentComponent&#45;&gt;NuiDashboardsModule</title>
<path fill="none" stroke="black" d="M853.36,-122.27C853.36,-140.56 853.36,-166 853.36,-166 853.36,-166 3004.6,-166 3004.6,-166"/>
<polygon fill="black" stroke="black" points="3004.6,-169.5 3014.6,-166 3004.6,-162.5 3004.6,-169.5"/>
</g>
<!-- WidgetComponent -->
<g id="node25" class="node">
<title>WidgetComponent</title>
<polygon fill="#ffffb3" stroke="black" points="668.04,-122 545.96,-122 545.96,-86 668.04,-86 668.04,-122"/>
<text text-anchor="middle" x="607" y="-99.8" font-family="Times,serif" font-size="14.00">WidgetComponent</text>
</g>
<!-- WidgetComponent&#45;&gt;NuiDashboardsModule -->
<g id="edge25" class="edge">
<title>WidgetComponent&#45;&gt;NuiDashboardsModule</title>
<path fill="none" stroke="black" d="M653.52,-122.22C653.52,-140.83 653.52,-167 653.52,-167 653.52,-167 3004.81,-167 3004.81,-167"/>
<polygon fill="black" stroke="black" points="3004.81,-170.5 3014.81,-167 3004.81,-163.5 3004.81,-170.5"/>
</g>
<!-- WidgetEditorDirective -->
<g id="node26" class="node">
<title>WidgetEditorDirective</title>
<polygon fill="#ffffb3" stroke="black" points="528.29,-122 383.71,-122 383.71,-86 528.29,-86 528.29,-122"/>
<text text-anchor="middle" x="456" y="-99.8" font-family="Times,serif" font-size="14.00">WidgetEditorDirective</text>
</g>
<!-- WidgetEditorDirective&#45;&gt;NuiDashboardsModule -->
<g id="edge26" class="edge">
<title>WidgetEditorDirective&#45;&gt;NuiDashboardsModule</title>
<path fill="none" stroke="black" d="M492.54,-122.17C492.54,-141.09 492.54,-168 492.54,-168 492.54,-168 3004.85,-168 3004.85,-168"/>
<polygon fill="black" stroke="black" points="3004.85,-171.5 3014.85,-168 3004.85,-164.5 3004.85,-171.5"/>
</g>
<!-- WidgetHeaderComponent -->
<g id="node27" class="node">
<title>WidgetHeaderComponent</title>
<polygon fill="#ffffb3" stroke="black" points="365.45,-122 202.55,-122 202.55,-86 365.45,-86 365.45,-122"/>
<text text-anchor="middle" x="284" y="-99.8" font-family="Times,serif" font-size="14.00">WidgetHeaderComponent</text>
</g>
<!-- WidgetHeaderComponent&#45;&gt;NuiDashboardsModule -->
<g id="edge27" class="edge">
<title>WidgetHeaderComponent&#45;&gt;NuiDashboardsModule</title>
<path fill="none" stroke="black" d="M284,-122.11C284,-141.34 284,-169 284,-169 284,-169 3004.8,-169 3004.8,-169"/>
<polygon fill="black" stroke="black" points="3004.8,-172.5 3014.8,-169 3004.8,-165.5 3004.8,-172.5"/>
</g>
<!-- WidgetSearchComponent -->
<g id="node28" class="node">
<title>WidgetSearchComponent</title>
<polygon fill="#ffffb3" stroke="black" points="184.13,-122 23.87,-122 23.87,-86 184.13,-86 184.13,-122"/>
<text text-anchor="middle" x="104" y="-99.8" font-family="Times,serif" font-size="14.00">WidgetSearchComponent</text>
</g>
<!-- WidgetSearchComponent&#45;&gt;NuiDashboardsModule -->
<g id="edge28" class="edge">
<title>WidgetSearchComponent&#45;&gt;NuiDashboardsModule</title>
<path fill="none" stroke="black" d="M104,-122.31C104,-142.15 104,-171 104,-171 104,-171 3004.61,-171 3004.61,-171"/>
<polygon fill="black" stroke="black" points="3004.61,-174.5 3014.61,-171 3004.61,-167.5 3004.61,-174.5"/>
</g>
<!-- DashboardComponent  -->
<g id="node33" class="node">
<title>DashboardComponent </title>
<polygon fill="#fb8072" stroke="black" points="5728.97,-252 5583.03,-252 5583.03,-216 5728.97,-216 5728.97,-252"/>
<text text-anchor="middle" x="5656" y="-229.8" font-family="Times,serif" font-size="14.00">DashboardComponent </text>
</g>
<!-- NuiDashboardsModule&#45;&gt;DashboardComponent  -->
<g id="edge32" class="edge">
<title>NuiDashboardsModule&#45;&gt;DashboardComponent </title>
<path fill="none" stroke="black" stroke-dasharray="5,2" d="M3161.41,-172C3583.26,-172 5680.25,-172 5680.25,-172 5680.25,-172 5680.25,-205.73 5680.25,-205.73"/>
<polygon fill="black" stroke="black" points="5676.75,-205.73 5680.25,-215.73 5683.75,-205.73 5676.75,-205.73"/>
</g>
<!-- DelayedMousePresenceDetectionDirective  -->
<g id="node34" class="node">
<title>DelayedMousePresenceDetectionDirective </title>
<polygon fill="#fb8072" stroke="black" points="5565.5,-252 5304.5,-252 5304.5,-216 5565.5,-216 5565.5,-252"/>
<text text-anchor="middle" x="5435" y="-229.8" font-family="Times,serif" font-size="14.00">DelayedMousePresenceDetectionDirective </text>
</g>
<!-- NuiDashboardsModule&#45;&gt;DelayedMousePresenceDetectionDirective  -->
<g id="edge33" class="edge">
<title>NuiDashboardsModule&#45;&gt;DelayedMousePresenceDetectionDirective </title>
<path fill="none" stroke="black" stroke-dasharray="5,2" d="M3161.21,-173C3547.03,-173 5326.65,-173 5326.65,-173 5326.65,-173 5326.65,-205.7 5326.65,-205.7"/>
<polygon fill="black" stroke="black" points="5323.15,-205.7 5326.65,-215.7 5330.15,-205.7 5323.15,-205.7"/>
</g>
<!-- EmbeddedContentComponent  -->
<g id="node35" class="node">
<title>EmbeddedContentComponent </title>
<polygon fill="#fb8072" stroke="black" points="5286.54,-252 5097.46,-252 5097.46,-216 5286.54,-216 5286.54,-252"/>
<text text-anchor="middle" x="5192" y="-229.8" font-family="Times,serif" font-size="14.00">EmbeddedContentComponent </text>
</g>
<!-- NuiDashboardsModule&#45;&gt;EmbeddedContentComponent  -->
<g id="edge34" class="edge">
<title>NuiDashboardsModule&#45;&gt;EmbeddedContentComponent </title>
<path fill="none" stroke="black" stroke-dasharray="5,2" d="M3161.22,-174C3527.69,-174 5145.23,-174 5145.23,-174 5145.23,-174 5145.23,-206 5145.23,-206"/>
<polygon fill="black" stroke="black" points="5141.73,-206 5145.23,-216 5148.73,-206 5141.73,-206"/>
</g>
<!-- GridsterItemWidgetIdDirective  -->
<g id="node36" class="node">
<title>GridsterItemWidgetIdDirective </title>
<polygon fill="#fb8072" stroke="black" points="5078.98,-252 4883.02,-252 4883.02,-216 5078.98,-216 5078.98,-252"/>
<text text-anchor="middle" x="4981" y="-229.8" font-family="Times,serif" font-size="14.00">GridsterItemWidgetIdDirective </text>
</g>
<!-- NuiDashboardsModule&#45;&gt;GridsterItemWidgetIdDirective  -->
<g id="edge35" class="edge">
<title>NuiDashboardsModule&#45;&gt;GridsterItemWidgetIdDirective </title>
<path fill="none" stroke="black" stroke-dasharray="5,2" d="M3161.32,-175C3507.1,-175 4958.25,-175 4958.25,-175 4958.25,-175 4958.25,-205.98 4958.25,-205.98"/>
<polygon fill="black" stroke="black" points="4954.75,-205.98 4958.25,-215.98 4961.75,-205.98 4954.75,-205.98"/>
</g>
<!-- KpiComponent  -->
<g id="node37" class="node">
<title>KpiComponent </title>
<polygon fill="#fb8072" stroke="black" points="4864.83,-252 4759.17,-252 4759.17,-216 4864.83,-216 4864.83,-252"/>
<text text-anchor="middle" x="4812" y="-229.8" font-family="Times,serif" font-size="14.00">KpiComponent </text>
</g>
<!-- NuiDashboardsModule&#45;&gt;KpiComponent  -->
<g id="edge36" class="edge">
<title>NuiDashboardsModule&#45;&gt;KpiComponent </title>
<path fill="none" stroke="black" stroke-dasharray="5,2" d="M3161.26,-177C3484.57,-177 4767.79,-177 4767.79,-177 4767.79,-177 4767.79,-205.96 4767.79,-205.96"/>
<polygon fill="black" stroke="black" points="4764.29,-205.96 4767.79,-215.96 4771.29,-205.96 4764.29,-205.96"/>
</g>
<!-- LineChartComponent  -->
<g id="node38" class="node">
<title>LineChartComponent </title>
<polygon fill="#fb8072" stroke="black" points="4740.59,-252 4599.41,-252 4599.41,-216 4740.59,-216 4740.59,-252"/>
<text text-anchor="middle" x="4670" y="-229.8" font-family="Times,serif" font-size="14.00">LineChartComponent </text>
</g>
<!-- NuiDashboardsModule&#45;&gt;LineChartComponent  -->
<g id="edge37" class="edge">
<title>NuiDashboardsModule&#45;&gt;LineChartComponent </title>
<path fill="none" stroke="black" stroke-dasharray="5,2" d="M3161.39,-178C3472.93,-178 4670,-178 4670,-178 4670,-178 4670,-205.97 4670,-205.97"/>
<polygon fill="black" stroke="black" points="4666.5,-205.97 4670,-215.97 4673.5,-205.97 4666.5,-205.97"/>
</g>
<!-- ListGroupItemComponent  -->
<g id="node39" class="node">
<title>ListGroupItemComponent </title>
<polygon fill="#fb8072" stroke="black" points="4581.03,-252 4412.97,-252 4412.97,-216 4581.03,-216 4581.03,-252"/>
<text text-anchor="middle" x="4497" y="-229.8" font-family="Times,serif" font-size="14.00">ListGroupItemComponent </text>
</g>
<!-- NuiDashboardsModule&#45;&gt;ListGroupItemComponent  -->
<g id="edge38" class="edge">
<title>NuiDashboardsModule&#45;&gt;ListGroupItemComponent </title>
<path fill="none" stroke="black" stroke-dasharray="5,2" d="M3161.58,-179C3449.53,-179 4484.11,-179 4484.11,-179 4484.11,-179 4484.11,-205.99 4484.11,-205.99"/>
<polygon fill="black" stroke="black" points="4480.61,-205.99 4484.11,-215.99 4487.61,-205.99 4480.61,-205.99"/>
</g>
<!-- ListLeafItemComponent  -->
<g id="node40" class="node">
<title>ListLeafItemComponent </title>
<polygon fill="#fb8072" stroke="black" points="4394.91,-252 4237.09,-252 4237.09,-216 4394.91,-216 4394.91,-252"/>
<text text-anchor="middle" x="4316" y="-229.8" font-family="Times,serif" font-size="14.00">ListLeafItemComponent </text>
</g>
<!-- NuiDashboardsModule&#45;&gt;ListLeafItemComponent  -->
<g id="edge39" class="edge">
<title>NuiDashboardsModule&#45;&gt;ListLeafItemComponent </title>
<path fill="none" stroke="black" stroke-dasharray="5,2" d="M3161.48,-180C3420.69,-180 4276.95,-180 4276.95,-180 4276.95,-180 4276.95,-205.72 4276.95,-205.72"/>
<polygon fill="black" stroke="black" points="4273.45,-205.72 4276.95,-215.72 4280.45,-205.72 4273.45,-205.72"/>
</g>
<!-- ListNavigationBarComponent  -->
<g id="node41" class="node">
<title>ListNavigationBarComponent </title>
<polygon fill="#fb8072" stroke="black" points="4219.53,-252 4030.47,-252 4030.47,-216 4219.53,-216 4219.53,-252"/>
<text text-anchor="middle" x="4125" y="-229.8" font-family="Times,serif" font-size="14.00">ListNavigationBarComponent </text>
</g>
<!-- NuiDashboardsModule&#45;&gt;ListNavigationBarComponent  -->
<g id="edge40" class="edge">
<title>NuiDashboardsModule&#45;&gt;ListNavigationBarComponent </title>
<path fill="none" stroke="black" stroke-dasharray="5,2" d="M3161.48,-181C3386.33,-181 4049.88,-181 4049.88,-181 4049.88,-181 4049.88,-205.76 4049.88,-205.76"/>
<polygon fill="black" stroke="black" points="4046.38,-205.76 4049.88,-215.76 4053.38,-205.76 4046.38,-205.76"/>
</g>
<!-- ListWidgetComponent  -->
<g id="node42" class="node">
<title>ListWidgetComponent </title>
<polygon fill="#fb8072" stroke="black" points="4012.82,-252 3865.18,-252 3865.18,-216 4012.82,-216 4012.82,-252"/>
<text text-anchor="middle" x="3939" y="-229.8" font-family="Times,serif" font-size="14.00">ListWidgetComponent </text>
</g>
<!-- NuiDashboardsModule&#45;&gt;ListWidgetComponent  -->
<g id="edge41" class="edge">
<title>NuiDashboardsModule&#45;&gt;ListWidgetComponent </title>
<path fill="none" stroke="black" stroke-dasharray="5,2" d="M3161.44,-183C3357.1,-183 3876.15,-183 3876.15,-183 3876.15,-183 3876.15,-205.88 3876.15,-205.88"/>
<polygon fill="black" stroke="black" points="3872.65,-205.88 3876.15,-215.88 3879.65,-205.88 3872.65,-205.88"/>
</g>
<!-- LoadingComponent  -->
<g id="node43" class="node">
<title>LoadingComponent </title>
<polygon fill="#fb8072" stroke="black" points="3846.99,-252 3715.01,-252 3715.01,-216 3846.99,-216 3846.99,-252"/>
<text text-anchor="middle" x="3781" y="-229.8" font-family="Times,serif" font-size="14.00">LoadingComponent </text>
</g>
<!-- NuiDashboardsModule&#45;&gt;LoadingComponent  -->
<g id="edge42" class="edge">
<title>NuiDashboardsModule&#45;&gt;LoadingComponent </title>
<path fill="none" stroke="black" stroke-dasharray="5,2" d="M3161.27,-184C3328.51,-184 3724.03,-184 3724.03,-184 3724.03,-184 3724.03,-205.95 3724.03,-205.95"/>
<polygon fill="black" stroke="black" points="3720.53,-205.95 3724.03,-215.95 3727.53,-205.95 3720.53,-205.95"/>
</g>
<!-- ProportionalDonutContentComponent  -->
<g id="node44" class="node">
<title>ProportionalDonutContentComponent </title>
<polygon fill="#fb8072" stroke="black" points="3697.15,-252 3462.85,-252 3462.85,-216 3697.15,-216 3697.15,-252"/>
<text text-anchor="middle" x="3580" y="-229.8" font-family="Times,serif" font-size="14.00">ProportionalDonutContentComponent </text>
</g>
<!-- NuiDashboardsModule&#45;&gt;ProportionalDonutContentComponent  -->
<g id="edge43" class="edge">
<title>NuiDashboardsModule&#45;&gt;ProportionalDonutContentComponent </title>
<path fill="none" stroke="black" stroke-dasharray="5,2" d="M3161.19,-185C3276.39,-185 3487.04,-185 3487.04,-185 3487.04,-185 3487.04,-205.75 3487.04,-205.75"/>
<polygon fill="black" stroke="black" points="3483.54,-205.75 3487.04,-215.75 3490.54,-205.75 3483.54,-205.75"/>
</g>
<!-- ProportionalWidgetComponent  -->
<g id="node45" class="node">
<title>ProportionalWidgetComponent </title>
<polygon fill="#fb8072" stroke="black" points="3445.03,-252 3248.97,-252 3248.97,-216 3445.03,-216 3445.03,-252"/>
<text text-anchor="middle" x="3347" y="-229.8" font-family="Times,serif" font-size="14.00">ProportionalWidgetComponent </text>
</g>
<!-- NuiDashboardsModule&#45;&gt;ProportionalWidgetComponent  -->
<g id="edge44" class="edge">
<title>NuiDashboardsModule&#45;&gt;ProportionalWidgetComponent </title>
<path fill="none" stroke="black" stroke-dasharray="5,2" d="M3161.2,-186C3222.14,-186 3298.99,-186 3298.99,-186 3298.99,-186 3298.99,-205.85 3298.99,-205.85"/>
<polygon fill="black" stroke="black" points="3295.49,-205.85 3298.99,-215.85 3302.49,-205.85 3295.49,-205.85"/>
</g>
<!-- StackComponent  -->
<g id="node46" class="node">
<title>StackComponent </title>
<polygon fill="#fb8072" stroke="black" points="3230.93,-252 3115.07,-252 3115.07,-216 3230.93,-216 3230.93,-252"/>
<text text-anchor="middle" x="3173" y="-229.8" font-family="Times,serif" font-size="14.00">StackComponent </text>
</g>
<!-- NuiDashboardsModule&#45;&gt;StackComponent  -->
<g id="edge45" class="edge">
<title>NuiDashboardsModule&#45;&gt;StackComponent </title>
<path fill="none" stroke="black" stroke-dasharray="5,2" d="M3138.17,-187.11C3138.17,-187.11 3138.17,-205.99 3138.17,-205.99"/>
<polygon fill="black" stroke="black" points="3134.67,-205.99 3138.17,-215.99 3141.67,-205.99 3134.67,-205.99"/>
</g>
<!-- StackedAreaChartComponent  -->
<g id="node47" class="node">
<title>StackedAreaChartComponent </title>
<polygon fill="#fb8072" stroke="black" points="3096.95,-252 2909.05,-252 2909.05,-216 3096.95,-216 3096.95,-252"/>
<text text-anchor="middle" x="3003" y="-229.8" font-family="Times,serif" font-size="14.00">StackedAreaChartComponent </text>
</g>
<!-- NuiDashboardsModule&#45;&gt;StackedAreaChartComponent  -->
<g id="edge46" class="edge">
<title>NuiDashboardsModule&#45;&gt;StackedAreaChartComponent </title>
<path fill="none" stroke="black" stroke-dasharray="5,2" d="M3055.7,-187.11C3055.7,-187.11 3055.7,-205.99 3055.7,-205.99"/>
<polygon fill="black" stroke="black" points="3052.2,-205.99 3055.7,-215.99 3059.2,-205.99 3052.2,-205.99"/>
</g>
<!-- StackedBarChartComponent  -->
<g id="node48" class="node">
<title>StackedBarChartComponent </title>
<polygon fill="#fb8072" stroke="black" points="2891.46,-252 2710.54,-252 2710.54,-216 2891.46,-216 2891.46,-252"/>
<text text-anchor="middle" x="2801" y="-229.8" font-family="Times,serif" font-size="14.00">StackedBarChartComponent </text>
</g>
<!-- NuiDashboardsModule&#45;&gt;StackedBarChartComponent  -->
<g id="edge47" class="edge">
<title>NuiDashboardsModule&#45;&gt;StackedBarChartComponent </title>
<path fill="none" stroke="black" stroke-dasharray="5,2" d="M3014.81,-186C2937.44,-186 2826.48,-186 2826.48,-186 2826.48,-186 2826.48,-205.85 2826.48,-205.85"/>
<polygon fill="black" stroke="black" points="2822.98,-205.85 2826.48,-215.85 2829.98,-205.85 2822.98,-205.85"/>
</g>
<!-- StackedPercentageAreaChartComponent  -->
<g id="node49" class="node">
<title>StackedPercentageAreaChartComponent </title>
<polygon fill="#fb8072" stroke="black" points="2692.36,-252 2443.64,-252 2443.64,-216 2692.36,-216 2692.36,-252"/>
<text text-anchor="middle" x="2568" y="-229.8" font-family="Times,serif" font-size="14.00">StackedPercentageAreaChartComponent </text>
</g>
<!-- NuiDashboardsModule&#45;&gt;StackedPercentageAreaChartComponent  -->
<g id="edge48" class="edge">
<title>NuiDashboardsModule&#45;&gt;StackedPercentageAreaChartComponent </title>
<path fill="none" stroke="black" stroke-dasharray="5,2" d="M3014.79,-185C2893.02,-185 2662.11,-185 2662.11,-185 2662.11,-185 2662.11,-205.75 2662.11,-205.75"/>
<polygon fill="black" stroke="black" points="2658.61,-205.75 2662.11,-215.75 2665.61,-205.75 2658.61,-205.75"/>
</g>
<!-- StatusBarChartComponent  -->
<g id="node50" class="node">
<title>StatusBarChartComponent </title>
<polygon fill="#fb8072" stroke="black" points="2425.37,-252 2254.63,-252 2254.63,-216 2425.37,-216 2425.37,-252"/>
<text text-anchor="middle" x="2340" y="-229.8" font-family="Times,serif" font-size="14.00">StatusBarChartComponent </text>
</g>
<!-- NuiDashboardsModule&#45;&gt;StatusBarChartComponent  -->
<g id="edge49" class="edge">
<title>NuiDashboardsModule&#45;&gt;StatusBarChartComponent </title>
<path fill="none" stroke="black" stroke-dasharray="5,2" d="M3014.79,-184C2841.16,-184 2418.83,-184 2418.83,-184 2418.83,-184 2418.83,-205.95 2418.83,-205.95"/>
<polygon fill="black" stroke="black" points="2415.33,-205.95 2418.83,-215.95 2422.33,-205.95 2415.33,-205.95"/>
</g>
<!-- TableWidgetComponent  -->
<g id="node51" class="node">
<title>TableWidgetComponent </title>
<polygon fill="#fb8072" stroke="black" points="2236.92,-252 2079.08,-252 2079.08,-216 2236.92,-216 2236.92,-252"/>
<text text-anchor="middle" x="2158" y="-229.8" font-family="Times,serif" font-size="14.00">TableWidgetComponent </text>
</g>
<!-- NuiDashboardsModule&#45;&gt;TableWidgetComponent  -->
<g id="edge50" class="edge">
<title>NuiDashboardsModule&#45;&gt;TableWidgetComponent </title>
<path fill="none" stroke="black" stroke-dasharray="5,2" d="M3014.56,-183C2806.25,-183 2226.6,-183 2226.6,-183 2226.6,-183 2226.6,-205.88 2226.6,-205.88"/>
<polygon fill="black" stroke="black" points="2223.1,-205.88 2226.6,-215.88 2230.1,-205.88 2223.1,-205.88"/>
</g>
<!-- TilesComponent  -->
<g id="node52" class="node">
<title>TilesComponent </title>
<polygon fill="#fb8072" stroke="black" points="2061.33,-252 1948.67,-252 1948.67,-216 2061.33,-216 2061.33,-252"/>
<text text-anchor="middle" x="2005" y="-229.8" font-family="Times,serif" font-size="14.00">TilesComponent </text>
</g>
<!-- NuiDashboardsModule&#45;&gt;TilesComponent  -->
<g id="edge51" class="edge">
<title>NuiDashboardsModule&#45;&gt;TilesComponent </title>
<path fill="none" stroke="black" stroke-dasharray="5,2" d="M3014.8,-181C2773.26,-181 2016.87,-181 2016.87,-181 2016.87,-181 2016.87,-205.76 2016.87,-205.76"/>
<polygon fill="black" stroke="black" points="2013.37,-205.76 2016.87,-215.76 2020.37,-205.76 2013.37,-205.76"/>
</g>
<!-- TimeframeSelectionComponent  -->
<g id="node53" class="node">
<title>TimeframeSelectionComponent </title>
<polygon fill="#fb8072" stroke="black" points="1930.62,-252 1731.38,-252 1731.38,-216 1930.62,-216 1930.62,-252"/>
<text text-anchor="middle" x="1831" y="-229.8" font-family="Times,serif" font-size="14.00">TimeframeSelectionComponent </text>
</g>
<!-- NuiDashboardsModule&#45;&gt;TimeframeSelectionComponent  -->
<g id="edge52" class="edge">
<title>NuiDashboardsModule&#45;&gt;TimeframeSelectionComponent </title>
<path fill="none" stroke="black" stroke-dasharray="5,2" d="M3014.8,-180C2750.24,-180 1859.06,-180 1859.06,-180 1859.06,-180 1859.06,-205.72 1859.06,-205.72"/>
<polygon fill="black" stroke="black" points="1855.56,-205.72 1859.06,-215.72 1862.56,-205.72 1855.56,-205.72"/>
</g>
<!-- TimeseriesWidgetComponent  -->
<g id="node54" class="node">
<title>TimeseriesWidgetComponent </title>
<polygon fill="#fb8072" stroke="black" points="1713.96,-252 1526.04,-252 1526.04,-216 1713.96,-216 1713.96,-252"/>
<text text-anchor="middle" x="1620" y="-229.8" font-family="Times,serif" font-size="14.00">TimeseriesWidgetComponent </text>
</g>
<!-- NuiDashboardsModule&#45;&gt;TimeseriesWidgetComponent  -->
<g id="edge53" class="edge">
<title>NuiDashboardsModule&#45;&gt;TimeseriesWidgetComponent </title>
<path fill="none" stroke="black" stroke-dasharray="5,2" d="M3014.45,-179C2722.91,-179 1664.26,-179 1664.26,-179 1664.26,-179 1664.26,-205.99 1664.26,-205.99"/>
<polygon fill="black" stroke="black" points="1660.76,-205.99 1664.26,-215.99 1667.76,-205.99 1660.76,-205.99"/>
</g>
<!-- WidgetBodyComponent  -->
<g id="node55" class="node">
<title>WidgetBodyComponent </title>
<polygon fill="#fb8072" stroke="black" points="1508.38,-252 1351.62,-252 1351.62,-216 1508.38,-216 1508.38,-252"/>
<text text-anchor="middle" x="1430" y="-229.8" font-family="Times,serif" font-size="14.00">WidgetBodyComponent </text>
</g>
<!-- NuiDashboardsModule&#45;&gt;WidgetBodyComponent  -->
<g id="edge54" class="edge">
<title>NuiDashboardsModule&#45;&gt;WidgetBodyComponent </title>
<path fill="none" stroke="black" stroke-dasharray="5,2" d="M3014.75,-178C2702.41,-178 1497.76,-178 1497.76,-178 1497.76,-178 1497.76,-205.97 1497.76,-205.97"/>
<polygon fill="black" stroke="black" points="1494.26,-205.97 1497.76,-215.97 1501.26,-205.97 1494.26,-205.97"/>
</g>
<!-- WidgetBodyContentComponent  -->
<g id="node56" class="node">
<title>WidgetBodyContentComponent </title>
<polygon fill="#fb8072" stroke="black" points="1333.21,-252 1132.79,-252 1132.79,-216 1333.21,-216 1333.21,-252"/>
<text text-anchor="middle" x="1233" y="-229.8" font-family="Times,serif" font-size="14.00">WidgetBodyContentComponent </text>
</g>
<!-- NuiDashboardsModule&#45;&gt;WidgetBodyContentComponent  -->
<g id="edge55" class="edge">
<title>NuiDashboardsModule&#45;&gt;WidgetBodyContentComponent </title>
<path fill="none" stroke="black" stroke-dasharray="5,2" d="M3014.73,-177C2678.98,-177 1303.77,-177 1303.77,-177 1303.77,-177 1303.77,-205.96 1303.77,-205.96"/>
<polygon fill="black" stroke="black" points="1300.27,-205.96 1303.77,-215.96 1307.27,-205.96 1300.27,-205.96"/>
</g>
<!-- WidgetComponent  -->
<g id="node57" class="node">
<title>WidgetComponent </title>
<polygon fill="#fb8072" stroke="black" points="1115.04,-252 988.96,-252 988.96,-216 1115.04,-216 1115.04,-252"/>
<text text-anchor="middle" x="1052" y="-229.8" font-family="Times,serif" font-size="14.00">WidgetComponent </text>
</g>
<!-- NuiDashboardsModule&#45;&gt;WidgetComponent  -->
<g id="edge56" class="edge">
<title>NuiDashboardsModule&#45;&gt;WidgetComponent </title>
<path fill="none" stroke="black" stroke-dasharray="5,2" d="M3014.65,-175C2654.82,-175 1093.52,-175 1093.52,-175 1093.52,-175 1093.52,-205.98 1093.52,-205.98"/>
<polygon fill="black" stroke="black" points="1090.02,-205.98 1093.52,-215.98 1097.02,-205.98 1090.02,-205.98"/>
</g>
<!-- WidgetEditorDirective  -->
<g id="node58" class="node">
<title>WidgetEditorDirective </title>
<polygon fill="#fb8072" stroke="black" points="970.79,-252 823.21,-252 823.21,-216 970.79,-216 970.79,-252"/>
<text text-anchor="middle" x="897" y="-229.8" font-family="Times,serif" font-size="14.00">WidgetEditorDirective </text>
</g>
<!-- NuiDashboardsModule&#45;&gt;WidgetEditorDirective  -->
<g id="edge57" class="edge">
<title>NuiDashboardsModule&#45;&gt;WidgetEditorDirective </title>
<path fill="none" stroke="black" stroke-dasharray="5,2" d="M3014.86,-174C2638.37,-174 936.23,-174 936.23,-174 936.23,-174 936.23,-206 936.23,-206"/>
<polygon fill="black" stroke="black" points="932.73,-206 936.23,-216 939.73,-206 932.73,-206"/>
</g>
<!-- WidgetHeaderComponent  -->
<g id="node59" class="node">
<title>WidgetHeaderComponent </title>
<polygon fill="#fb8072" stroke="black" points="805.45,-252 638.55,-252 638.55,-216 805.45,-216 805.45,-252"/>
<text text-anchor="middle" x="722" y="-229.8" font-family="Times,serif" font-size="14.00">WidgetHeaderComponent </text>
</g>
<!-- NuiDashboardsModule&#45;&gt;WidgetHeaderComponent  -->
<g id="edge58" class="edge">
<title>NuiDashboardsModule&#45;&gt;WidgetHeaderComponent </title>
<path fill="none" stroke="black" stroke-dasharray="5,2" d="M3014.69,-173C2617.95,-173 745.81,-173 745.81,-173 745.81,-173 745.81,-205.7 745.81,-205.7"/>
<polygon fill="black" stroke="black" points="742.31,-205.7 745.81,-215.7 749.31,-205.7 742.31,-205.7"/>
</g>
<!-- WidgetSearchComponent  -->
<g id="node60" class="node">
<title>WidgetSearchComponent </title>
<polygon fill="#fb8072" stroke="black" points="621.13,-252 456.87,-252 456.87,-216 621.13,-216 621.13,-252"/>
<text text-anchor="middle" x="539" y="-229.8" font-family="Times,serif" font-size="14.00">WidgetSearchComponent </text>
</g>
<!-- NuiDashboardsModule&#45;&gt;WidgetSearchComponent  -->
<g id="edge59" class="edge">
<title>NuiDashboardsModule&#45;&gt;WidgetSearchComponent </title>
<path fill="none" stroke="black" stroke-dasharray="5,2" d="M3014.74,-172C2601.79,-172 583.4,-172 583.4,-172 583.4,-172 583.4,-205.73 583.4,-205.73"/>
<polygon fill="black" stroke="black" points="579.9,-205.73 583.4,-215.73 586.9,-205.73 579.9,-205.73"/>
</g>
<!-- NuiDashboardConfiguratorModule -->
<g id="node30" class="node">
<title>NuiDashboardConfiguratorModule</title>
<polygon fill="#8dd3c7" stroke="black" points="5796.5,-122 5793.5,-126 5772.5,-126 5769.5,-122 5583.5,-122 5583.5,-86 5796.5,-86 5796.5,-122"/>
<text text-anchor="middle" x="5690" y="-99.8" font-family="Times,serif" font-size="14.00">NuiDashboardConfiguratorModule</text>
</g>
<!-- NuiDashboardConfiguratorModule&#45;&gt;NuiDashboardsModule -->
<g id="edge29" class="edge">
<title>NuiDashboardConfiguratorModule&#45;&gt;NuiDashboardsModule</title>
<path fill="none" stroke="black" d="M5631.75,-122.17C5631.75,-141.09 5631.75,-168 5631.75,-168 5631.75,-168 3171.39,-168 3171.39,-168"/>
<polygon fill="black" stroke="black" points="3171.39,-164.5 3161.39,-168 3171.39,-171.5 3171.39,-164.5"/>
</g>
<!-- NuiDashboardsCommonModule -->
<g id="node31" class="node">
<title>NuiDashboardsCommonModule</title>
<polygon fill="#8dd3c7" stroke="black" points="5565.25,-122 5562.25,-126 5541.25,-126 5538.25,-122 5366.75,-122 5366.75,-86 5565.25,-86 5565.25,-122"/>
<text text-anchor="middle" x="5466" y="-99.8" font-family="Times,serif" font-size="14.00">NuiDashboardsCommonModule</text>
</g>
<!-- NuiDashboardsCommonModule&#45;&gt;NuiDashboardsModule -->
<g id="edge30" class="edge">
<title>NuiDashboardsCommonModule&#45;&gt;NuiDashboardsModule</title>
<path fill="none" stroke="black" d="M5465.94,-122.22C5465.94,-140.83 5465.94,-167 5465.94,-167 5465.94,-167 3171.45,-167 3171.45,-167"/>
<polygon fill="black" stroke="black" points="3171.45,-163.5 3161.45,-167 3171.45,-170.5 3171.45,-163.5"/>
</g>
<!-- NuiPizzagnaModule -->
<g id="node32" class="node">
<title>NuiPizzagnaModule</title>
<polygon fill="#8dd3c7" stroke="black" points="5348.58,-122 5345.58,-126 5324.58,-126 5321.58,-122 5217.42,-122 5217.42,-86 5348.58,-86 5348.58,-122"/>
<text text-anchor="middle" x="5283" y="-99.8" font-family="Times,serif" font-size="14.00">NuiPizzagnaModule</text>
</g>
<!-- NuiPizzagnaModule&#45;&gt;NuiDashboardsModule -->
<g id="edge31" class="edge">
<title>NuiPizzagnaModule&#45;&gt;NuiDashboardsModule</title>
<path fill="none" stroke="black" d="M5251.99,-122.27C5251.99,-140.56 5251.99,-166 5251.99,-166 5251.99,-166 3171.24,-166 3171.24,-166"/>
<polygon fill="black" stroke="black" points="3171.24,-162.5 3161.24,-166 3171.24,-169.5 3171.24,-162.5"/>
</g>
<!-- RefresherSettingsService -->
<g id="node61" class="node">
<title>RefresherSettingsService</title>
<ellipse fill="#fdb462" stroke="black" cx="939" cy="-104" rx="108.78" ry="18"/>
<text text-anchor="middle" x="939" y="-99.8" font-family="Times,serif" font-size="14.00">RefresherSettingsService</text>
</g>
<!-- RefresherSettingsService&#45;&gt;NuiDashboardsModule -->
<g id="edge60" class="edge">
<title>RefresherSettingsService&#45;&gt;NuiDashboardsModule</title>
<path fill="none" stroke="black" d="M6132,-122.31C6132,-142.15 6132,-171 6132,-171 6132,-171 3171.36,-171 3171.36,-171"/>
<polygon fill="black" stroke="black" points="3171.36,-167.5 3161.36,-171 3171.36,-174.5 3171.36,-167.5"/>
</g>
<!-- WidgetTypesService -->
<g id="node62" class="node">
<title>WidgetTypesService</title>
<ellipse fill="#fdb462" stroke="black" cx="720" cy="-104" rx="92.03" ry="18"/>
<text text-anchor="middle" x="720" y="-99.8" font-family="Times,serif" font-size="14.00">WidgetTypesService</text>
</g>
<!-- WidgetTypesService&#45;&gt;NuiDashboardsModule -->
<g id="edge61" class="edge">
<title>WidgetTypesService&#45;&gt;NuiDashboardsModule</title>
<path fill="none" stroke="black" d="M5913,-122.11C5913,-141.34 5913,-169 5913,-169 5913,-169 3171.39,-169 3171.39,-169"/>
<polygon fill="black" stroke="black" points="3171.39,-165.5 3161.39,-169 3171.39,-172.5 3171.39,-165.5"/>
</g>
</g>
</svg>
