<?xml version="1.0" encoding="UTF-8" standalone="no"?>
<!DOCTYPE svg PUBLIC "-//W3C//DTD SVG 1.1//EN"
 "http://www.w3.org/Graphics/SVG/1.1/DTD/svg11.dtd">
<!-- Generated by graphviz version 2.44.1 (20200629.0846)
 -->
<!-- Title: dependencies Pages: 1 -->
<svg width="6071pt" height="284pt"
 viewBox="0.00 0.00 6071.00 284.00" xmlns="http://www.w3.org/2000/svg" xmlns:xlink="http://www.w3.org/1999/xlink">
<g id="graph0" class="graph" transform="scale(1 1) rotate(0) translate(4 280)">
<title>dependencies</title>
<polygon fill="white" stroke="transparent" points="-4,4 -4,-280 6067,-280 6067,4 -4,4"/>
<text text-anchor="start" x="3010.51" y="-42.4" font-family="sans-serif" font-weight="bold" font-size="14.00">Legend</text>
<polygon fill="#ffffb3" stroke="transparent" points="2797.5,-10 2797.5,-30 2817.5,-30 2817.5,-10 2797.5,-10"/>
<text text-anchor="start" x="2821.13" y="-15.4" font-family="sans-serif" font-size="14.00"> &#160;Declarations</text>
<polygon fill="#8dd3c7" stroke="transparent" points="2910.5,-10 2910.5,-30 2930.5,-30 2930.5,-10 2910.5,-10"/>
<text text-anchor="start" x="2934.23" y="-15.4" font-family="sans-serif" font-size="14.00"> &#160;Module</text>
<polygon fill="#80b1d3" stroke="transparent" points="2996.5,-10 2996.5,-30 3016.5,-30 3016.5,-10 2996.5,-10"/>
<text text-anchor="start" x="3020.28" y="-15.4" font-family="sans-serif" font-size="14.00"> &#160;Bootstrap</text>
<polygon fill="#fdb462" stroke="transparent" points="3093.5,-10 3093.5,-30 3113.5,-30 3113.5,-10 3093.5,-10"/>
<text text-anchor="start" x="3117.17" y="-15.4" font-family="sans-serif" font-size="14.00"> &#160;Providers</text>
<polygon fill="#fb8072" stroke="transparent" points="3189.5,-10 3189.5,-30 3209.5,-30 3209.5,-10 3189.5,-10"/>
<text text-anchor="start" x="3213.23" y="-15.4" font-family="sans-serif" font-size="14.00"> &#160;Exports</text>
<g id="clust1" class="cluster">
<title>cluster_NuiDashboardsModule</title>
<polygon fill="none" stroke="black" stroke-dasharray="1,5" points="8,-70 8,-268 6055,-268 6055,-70 8,-70"/>
</g>
<g id="clust34" class="cluster">
<title>cluster_NuiDashboardsModule_providers</title>
<polygon fill="none" stroke="black" points="5813,-78 5813,-130 6047,-130 6047,-78 5813,-78"/>
</g>
<g id="clust2" class="cluster">
<title>cluster_NuiDashboardsModule_declarations</title>
<polygon fill="none" stroke="black" points="620,-78 620,-130 5805,-130 5805,-78 620,-78"/>
</g>
<g id="clust32" class="cluster">
<title>cluster_NuiDashboardsModule_exports</title>
<polygon fill="none" stroke="black" points="388,-208 388,-260 5676,-260 5676,-208 388,-208"/>
</g>
<g id="clust31" class="cluster">
<title>cluster_NuiDashboardsModule_imports</title>
<polygon fill="none" stroke="black" points="16,-78 16,-130 612,-130 612,-78 16,-78"/>
</g>
<!-- DashboardComponent -->
<g id="node1" class="node">
<title>DashboardComponent</title>
<polygon fill="#ffffb3" stroke="black" points="5796.97,-122 5655.03,-122 5655.03,-86 5796.97,-86 5796.97,-122"/>
<text text-anchor="middle" x="5726" y="-99.8" font-family="Times,serif" font-size="14.00">DashboardComponent</text>
</g>
<!-- NuiDashboardsModule -->
<g id="node29" class="node">
<title>NuiDashboardsModule</title>
<polygon fill="#8dd3c7" stroke="black" points="3100.13,-187 3097.13,-191 3076.13,-191 3073.13,-187 2953.87,-187 2953.87,-151 3100.13,-151 3100.13,-187"/>
<text text-anchor="middle" x="3027" y="-164.8" font-family="Times,serif" font-size="14.00">NuiDashboardsModule</text>
</g>
<!-- DashboardComponent&#45;&gt;NuiDashboardsModule -->
<g id="edge1" class="edge">
<title>DashboardComponent&#45;&gt;NuiDashboardsModule</title>
<path fill="none" stroke="black" d="M5661.38,-122.11C5661.38,-141.34 5661.38,-169 5661.38,-169 5661.38,-169 3110.21,-169 3110.21,-169"/>
<polygon fill="black" stroke="black" points="3110.21,-165.5 3100.21,-169 3110.21,-172.5 3110.21,-165.5"/>
</g>
<!-- DelayedMousePresenceDetectionDirective -->
<g id="node2" class="node">
<title>DelayedMousePresenceDetectionDirective</title>
<polygon fill="#ffffb3" stroke="black" points="5637.5,-122 5380.5,-122 5380.5,-86 5637.5,-86 5637.5,-122"/>
<text text-anchor="middle" x="5509" y="-99.8" font-family="Times,serif" font-size="14.00">DelayedMousePresenceDetectionDirective</text>
</g>
<!-- DelayedMousePresenceDetectionDirective&#45;&gt;NuiDashboardsModule -->
<g id="edge2" class="edge">
<title>DelayedMousePresenceDetectionDirective&#45;&gt;NuiDashboardsModule</title>
<path fill="none" stroke="black" d="M5442.38,-122.17C5442.38,-141.09 5442.38,-168 5442.38,-168 5442.38,-168 3110.28,-168 3110.28,-168"/>
<polygon fill="black" stroke="black" points="3110.28,-164.5 3100.28,-168 3110.28,-171.5 3110.28,-164.5"/>
</g>
<!-- EmbeddedContentComponent -->
<g id="node3" class="node">
<title>EmbeddedContentComponent</title>
<polygon fill="#ffffb3" stroke="black" points="5362.54,-122 5177.46,-122 5177.46,-86 5362.54,-86 5362.54,-122"/>
<text text-anchor="middle" x="5270" y="-99.8" font-family="Times,serif" font-size="14.00">EmbeddedContentComponent</text>
</g>
<!-- EmbeddedContentComponent&#45;&gt;NuiDashboardsModule -->
<g id="edge3" class="edge">
<title>EmbeddedContentComponent&#45;&gt;NuiDashboardsModule</title>
<path fill="none" stroke="black" d="M5201.38,-122.27C5201.38,-140.56 5201.38,-166 5201.38,-166 5201.38,-166 3110.28,-166 3110.28,-166"/>
<polygon fill="black" stroke="black" points="3110.28,-162.5 3100.28,-166 3110.28,-169.5 3110.28,-162.5"/>
</g>
<!-- GridsterItemWidgetIdDirective -->
<g id="node4" class="node">
<title>GridsterItemWidgetIdDirective</title>
<polygon fill="#ffffb3" stroke="black" points="5159.48,-122 4966.52,-122 4966.52,-86 5159.48,-86 5159.48,-122"/>
<text text-anchor="middle" x="5063" y="-99.8" font-family="Times,serif" font-size="14.00">GridsterItemWidgetIdDirective</text>
</g>
<!-- GridsterItemWidgetIdDirective&#45;&gt;NuiDashboardsModule -->
<g id="edge4" class="edge">
<title>GridsterItemWidgetIdDirective&#45;&gt;NuiDashboardsModule</title>
<path fill="none" stroke="black" d="M4992.38,-122.3C4992.38,-140.27 4992.38,-165 4992.38,-165 4992.38,-165 3110.16,-165 3110.16,-165"/>
<polygon fill="black" stroke="black" points="3110.16,-161.5 3100.16,-165 3110.16,-168.5 3110.16,-161.5"/>
</g>
<!-- KpiComponent -->
<g id="node5" class="node">
<title>KpiComponent</title>
<polygon fill="#ffffb3" stroke="black" points="4949.33,-122 4846.67,-122 4846.67,-86 4949.33,-86 4949.33,-122"/>
<text text-anchor="middle" x="4898" y="-99.8" font-family="Times,serif" font-size="14.00">KpiComponent</text>
</g>
<!-- KpiComponent&#45;&gt;NuiDashboardsModule -->
<g id="edge5" class="edge">
<title>KpiComponent&#45;&gt;NuiDashboardsModule</title>
<path fill="none" stroke="black" d="M4898,-122C4898,-139.68 4898,-164 4898,-164 4898,-164 3110.35,-164 3110.35,-164"/>
<polygon fill="black" stroke="black" points="3110.35,-160.5 3100.35,-164 3110.35,-167.5 3110.35,-160.5"/>
</g>
<!-- LineChartComponent -->
<g id="node6" class="node">
<title>LineChartComponent</title>
<polygon fill="#ffffb3" stroke="black" points="4829.09,-122 4690.91,-122 4690.91,-86 4829.09,-86 4829.09,-122"/>
<text text-anchor="middle" x="4760" y="-99.8" font-family="Times,serif" font-size="14.00">LineChartComponent</text>
</g>
<!-- LineChartComponent&#45;&gt;NuiDashboardsModule -->
<g id="edge6" class="edge">
<title>LineChartComponent&#45;&gt;NuiDashboardsModule</title>
<path fill="none" stroke="black" d="M4694.52,-122.02C4694.52,-139.37 4694.52,-163 4694.52,-163 4694.52,-163 3110.26,-163 3110.26,-163"/>
<polygon fill="black" stroke="black" points="3110.26,-159.5 3100.26,-163 3110.26,-166.5 3110.26,-159.5"/>
</g>
<!-- ListGroupItemComponent -->
<g id="node7" class="node">
<title>ListGroupItemComponent</title>
<polygon fill="#ffffb3" stroke="black" points="4673.04,-122 4508.96,-122 4508.96,-86 4673.04,-86 4673.04,-122"/>
<text text-anchor="middle" x="4591" y="-99.8" font-family="Times,serif" font-size="14.00">ListGroupItemComponent</text>
</g>
<!-- ListGroupItemComponent&#45;&gt;NuiDashboardsModule -->
<g id="edge7" class="edge">
<title>ListGroupItemComponent&#45;&gt;NuiDashboardsModule</title>
<path fill="none" stroke="black" d="M4514.38,-122.04C4514.38,-138.73 4514.38,-161 4514.38,-161 4514.38,-161 3110.25,-161 3110.25,-161"/>
<polygon fill="black" stroke="black" points="3110.25,-157.5 3100.25,-161 3110.25,-164.5 3110.25,-157.5"/>
</g>
<!-- ListLeafItemComponent -->
<g id="node8" class="node">
<title>ListLeafItemComponent</title>
<polygon fill="#ffffb3" stroke="black" points="4491.41,-122 4336.59,-122 4336.59,-86 4491.41,-86 4491.41,-122"/>
<text text-anchor="middle" x="4414" y="-99.8" font-family="Times,serif" font-size="14.00">ListLeafItemComponent</text>
</g>
<!-- ListLeafItemComponent&#45;&gt;NuiDashboardsModule -->
<g id="edge8" class="edge">
<title>ListLeafItemComponent&#45;&gt;NuiDashboardsModule</title>
<path fill="none" stroke="black" d="M4344.39,-122.03C4344.39,-138.4 4344.39,-160 4344.39,-160 4344.39,-160 3110.18,-160 3110.18,-160"/>
<polygon fill="black" stroke="black" points="3110.18,-156.5 3100.18,-160 3110.18,-163.5 3110.18,-156.5"/>
</g>
<!-- ListNavigationBarComponent -->
<g id="node9" class="node">
<title>ListNavigationBarComponent</title>
<polygon fill="#ffffb3" stroke="black" points="4318.53,-122 4133.47,-122 4133.47,-86 4318.53,-86 4318.53,-122"/>
<text text-anchor="middle" x="4226" y="-99.8" font-family="Times,serif" font-size="14.00">ListNavigationBarComponent</text>
</g>
<!-- ListNavigationBarComponent&#45;&gt;NuiDashboardsModule -->
<g id="edge9" class="edge">
<title>ListNavigationBarComponent&#45;&gt;NuiDashboardsModule</title>
<path fill="none" stroke="black" d="M4145.88,-122.01C4145.88,-138.05 4145.88,-159 4145.88,-159 4145.88,-159 3110.41,-159 3110.41,-159"/>
<polygon fill="black" stroke="black" points="3110.41,-155.5 3100.41,-159 3110.41,-162.5 3110.41,-155.5"/>
</g>
<!-- ListWidgetComponent -->
<g id="node10" class="node">
<title>ListWidgetComponent</title>
<polygon fill="#ffffb3" stroke="black" points="4115.32,-122 3970.68,-122 3970.68,-86 4115.32,-86 4115.32,-122"/>
<text text-anchor="middle" x="4043" y="-99.8" font-family="Times,serif" font-size="14.00">ListWidgetComponent</text>
</g>
<!-- ListWidgetComponent&#45;&gt;NuiDashboardsModule -->
<g id="edge10" class="edge">
<title>ListWidgetComponent&#45;&gt;NuiDashboardsModule</title>
<path fill="none" stroke="black" d="M4067.05,-122.28C4067.05,-137.95 4067.05,-158 4067.05,-158 4067.05,-158 3110.13,-158 3110.13,-158"/>
<polygon fill="black" stroke="black" points="3110.13,-154.5 3100.13,-158 3110.13,-161.5 3110.13,-154.5"/>
</g>
<!-- LoadingComponent -->
<g id="node11" class="node">
<title>LoadingComponent</title>
<polygon fill="#ffffb3" stroke="black" points="3952.99,-122 3825.01,-122 3825.01,-86 3952.99,-86 3952.99,-122"/>
<text text-anchor="middle" x="3889" y="-99.8" font-family="Times,serif" font-size="14.00">LoadingComponent</text>
</g>
<!-- LoadingComponent&#45;&gt;NuiDashboardsModule -->
<g id="edge11" class="edge">
<title>LoadingComponent&#45;&gt;NuiDashboardsModule</title>
<path fill="none" stroke="black" d="M3888.46,-122.19C3888.46,-137.18 3888.46,-156 3888.46,-156 3888.46,-156 3110.45,-156 3110.45,-156"/>
<polygon fill="black" stroke="black" points="3110.45,-152.5 3100.45,-156 3110.45,-159.5 3110.45,-152.5"/>
</g>
<!-- ProportionalDonutContentComponent -->
<g id="node12" class="node">
<title>ProportionalDonutContentComponent</title>
<polygon fill="#ffffb3" stroke="black" points="3807.15,-122 3576.85,-122 3576.85,-86 3807.15,-86 3807.15,-122"/>
<text text-anchor="middle" x="3692" y="-99.8" font-family="Times,serif" font-size="14.00">ProportionalDonutContentComponent</text>
</g>
<!-- ProportionalDonutContentComponent&#45;&gt;NuiDashboardsModule -->
<g id="edge12" class="edge">
<title>ProportionalDonutContentComponent&#45;&gt;NuiDashboardsModule</title>
<path fill="none" stroke="black" d="M3606.38,-122.12C3606.38,-136.78 3606.38,-155 3606.38,-155 3606.38,-155 3110.38,-155 3110.38,-155"/>
<polygon fill="black" stroke="black" points="3110.38,-151.5 3100.38,-155 3110.38,-158.5 3110.38,-151.5"/>
</g>
<!-- ProportionalWidgetComponent -->
<g id="node13" class="node">
<title>ProportionalWidgetComponent</title>
<polygon fill="#ffffb3" stroke="black" points="3558.03,-122 3365.97,-122 3365.97,-86 3558.03,-86 3558.03,-122"/>
<text text-anchor="middle" x="3462" y="-99.8" font-family="Times,serif" font-size="14.00">ProportionalWidgetComponent</text>
</g>
<!-- ProportionalWidgetComponent&#45;&gt;NuiDashboardsModule -->
<g id="edge13" class="edge">
<title>ProportionalWidgetComponent&#45;&gt;NuiDashboardsModule</title>
<path fill="none" stroke="black" d="M3374.88,-122.05C3374.88,-136.37 3374.88,-154 3374.88,-154 3374.88,-154 3110.35,-154 3110.35,-154"/>
<polygon fill="black" stroke="black" points="3110.35,-150.5 3100.35,-154 3110.35,-157.5 3110.35,-150.5"/>
</g>
<!-- StackComponent -->
<g id="node14" class="node">
<title>StackComponent</title>
<polygon fill="#ffffb3" stroke="black" points="3348.44,-122 3235.56,-122 3235.56,-86 3348.44,-86 3348.44,-122"/>
<text text-anchor="middle" x="3292" y="-99.8" font-family="Times,serif" font-size="14.00">StackComponent</text>
</g>
<!-- StackComponent&#45;&gt;NuiDashboardsModule -->
<g id="edge14" class="edge">
<title>StackComponent&#45;&gt;NuiDashboardsModule</title>
<path fill="none" stroke="black" d="M3292,-122.25C3292,-136.18 3292,-153 3292,-153 3292,-153 3110.47,-153 3110.47,-153"/>
<polygon fill="black" stroke="black" points="3110.47,-149.5 3100.47,-153 3110.47,-156.5 3110.47,-149.5"/>
</g>
<!-- StackedAreaChartComponent -->
<g id="node15" class="node">
<title>StackedAreaChartComponent</title>
<polygon fill="#ffffb3" stroke="black" points="3217.95,-122 3034.05,-122 3034.05,-86 3217.95,-86 3217.95,-122"/>
<text text-anchor="middle" x="3126" y="-99.8" font-family="Times,serif" font-size="14.00">StackedAreaChartComponent</text>
</g>
<!-- StackedAreaChartComponent&#45;&gt;NuiDashboardsModule -->
<g id="edge15" class="edge">
<title>StackedAreaChartComponent&#45;&gt;NuiDashboardsModule</title>
<path fill="none" stroke="black" d="M3067.17,-122.11C3067.17,-122.11 3067.17,-140.99 3067.17,-140.99"/>
<polygon fill="black" stroke="black" points="3063.67,-140.99 3067.17,-150.99 3070.67,-140.99 3063.67,-140.99"/>
</g>
<!-- StackedBarChartComponent -->
<g id="node16" class="node">
<title>StackedBarChartComponent</title>
<polygon fill="#ffffb3" stroke="black" points="3016.46,-122 2839.54,-122 2839.54,-86 3016.46,-86 3016.46,-122"/>
<text text-anchor="middle" x="2928" y="-99.8" font-family="Times,serif" font-size="14.00">StackedBarChartComponent</text>
</g>
<!-- StackedBarChartComponent&#45;&gt;NuiDashboardsModule -->
<g id="edge16" class="edge">
<title>StackedBarChartComponent&#45;&gt;NuiDashboardsModule</title>
<path fill="none" stroke="black" d="M2985.08,-122.11C2985.08,-122.11 2985.08,-140.99 2985.08,-140.99"/>
<polygon fill="black" stroke="black" points="2981.58,-140.99 2985.08,-150.99 2988.58,-140.99 2981.58,-140.99"/>
</g>
<!-- StackedPercentageAreaChartComponent -->
<g id="node17" class="node">
<title>StackedPercentageAreaChartComponent</title>
<polygon fill="#ffffb3" stroke="black" points="2821.86,-122 2576.14,-122 2576.14,-86 2821.86,-86 2821.86,-122"/>
<text text-anchor="middle" x="2699" y="-99.8" font-family="Times,serif" font-size="14.00">StackedPercentageAreaChartComponent</text>
</g>
<!-- StackedPercentageAreaChartComponent&#45;&gt;NuiDashboardsModule -->
<g id="edge17" class="edge">
<title>StackedPercentageAreaChartComponent&#45;&gt;NuiDashboardsModule</title>
<path fill="none" stroke="black" d="M2735.72,-122.25C2735.72,-136.18 2735.72,-153 2735.72,-153 2735.72,-153 2943.5,-153 2943.5,-153"/>
<polygon fill="black" stroke="black" points="2943.5,-156.5 2953.5,-153 2943.5,-149.5 2943.5,-156.5"/>
</g>
<!-- StatusBarChartComponent -->
<g id="node18" class="node">
<title>StatusBarChartComponent</title>
<polygon fill="#ffffb3" stroke="black" points="2558.37,-122 2391.63,-122 2391.63,-86 2558.37,-86 2558.37,-122"/>
<text text-anchor="middle" x="2475" y="-99.8" font-family="Times,serif" font-size="14.00">StatusBarChartComponent</text>
</g>
<!-- StatusBarChartComponent&#45;&gt;NuiDashboardsModule -->
<g id="edge18" class="edge">
<title>StatusBarChartComponent&#45;&gt;NuiDashboardsModule</title>
<path fill="none" stroke="black" d="M2475,-122.05C2475,-136.37 2475,-154 2475,-154 2475,-154 2943.7,-154 2943.7,-154"/>
<polygon fill="black" stroke="black" points="2943.7,-157.5 2953.7,-154 2943.7,-150.5 2943.7,-157.5"/>
</g>
<!-- TableWidgetComponent -->
<g id="node19" class="node">
<title>TableWidgetComponent</title>
<polygon fill="#ffffb3" stroke="black" points="2373.42,-122 2218.58,-122 2218.58,-86 2373.42,-86 2373.42,-122"/>
<text text-anchor="middle" x="2296" y="-99.8" font-family="Times,serif" font-size="14.00">TableWidgetComponent</text>
</g>
<!-- TableWidgetComponent&#45;&gt;NuiDashboardsModule -->
<g id="edge19" class="edge">
<title>TableWidgetComponent&#45;&gt;NuiDashboardsModule</title>
<path fill="none" stroke="black" d="M2368.7,-122.12C2368.7,-136.78 2368.7,-155 2368.7,-155 2368.7,-155 2943.72,-155 2943.72,-155"/>
<polygon fill="black" stroke="black" points="2943.72,-158.5 2953.72,-155 2943.72,-151.5 2943.72,-158.5"/>
</g>
<!-- TilesComponent -->
<g id="node20" class="node">
<title>TilesComponent</title>
<polygon fill="#ffffb3" stroke="black" points="2200.83,-122 2091.17,-122 2091.17,-86 2200.83,-86 2200.83,-122"/>
<text text-anchor="middle" x="2146" y="-99.8" font-family="Times,serif" font-size="14.00">TilesComponent</text>
</g>
<!-- TilesComponent&#45;&gt;NuiDashboardsModule -->
<g id="edge20" class="edge">
<title>TilesComponent&#45;&gt;NuiDashboardsModule</title>
<path fill="none" stroke="black" d="M2184.89,-122.19C2184.89,-137.18 2184.89,-156 2184.89,-156 2184.89,-156 2943.74,-156 2943.74,-156"/>
<polygon fill="black" stroke="black" points="2943.74,-159.5 2953.74,-156 2943.74,-152.5 2943.74,-159.5"/>
</g>
<!-- TimeframeSelectionComponent -->
<g id="node21" class="node">
<title>TimeframeSelectionComponent</title>
<polygon fill="#ffffb3" stroke="black" points="2073.62,-122 1878.38,-122 1878.38,-86 2073.62,-86 2073.62,-122"/>
<text text-anchor="middle" x="1976" y="-99.8" font-family="Times,serif" font-size="14.00">TimeframeSelectionComponent</text>
</g>
<!-- TimeframeSelectionComponent&#45;&gt;NuiDashboardsModule -->
<g id="edge21" class="edge">
<title>TimeframeSelectionComponent&#45;&gt;NuiDashboardsModule</title>
<path fill="none" stroke="black" d="M2045.93,-122.28C2045.93,-137.95 2045.93,-158 2045.93,-158 2045.93,-158 2943.66,-158 2943.66,-158"/>
<polygon fill="black" stroke="black" points="2943.66,-161.5 2953.66,-158 2943.66,-154.5 2943.66,-161.5"/>
</g>
<!-- TimeseriesWidgetComponent -->
<g id="node22" class="node">
<title>TimeseriesWidgetComponent</title>
<polygon fill="#ffffb3" stroke="black" points="1859.96,-122 1676.04,-122 1676.04,-86 1859.96,-86 1859.96,-122"/>
<text text-anchor="middle" x="1768" y="-99.8" font-family="Times,serif" font-size="14.00">TimeseriesWidgetComponent</text>
</g>
<!-- TimeseriesWidgetComponent&#45;&gt;NuiDashboardsModule -->
<g id="edge22" class="edge">
<title>TimeseriesWidgetComponent&#45;&gt;NuiDashboardsModule</title>
<path fill="none" stroke="black" d="M1768,-122.01C1768,-138.05 1768,-159 1768,-159 1768,-159 2943.41,-159 2943.41,-159"/>
<polygon fill="black" stroke="black" points="2943.41,-162.5 2953.41,-159 2943.41,-155.5 2943.41,-162.5"/>
</g>
<!-- WidgetBodyComponent -->
<g id="node23" class="node">
<title>WidgetBodyComponent</title>
<polygon fill="#ffffb3" stroke="black" points="1658.38,-122 1505.62,-122 1505.62,-86 1658.38,-86 1658.38,-122"/>
<text text-anchor="middle" x="1582" y="-99.8" font-family="Times,serif" font-size="14.00">WidgetBodyComponent</text>
</g>
<!-- WidgetBodyComponent&#45;&gt;NuiDashboardsModule -->
<g id="edge23" class="edge">
<title>WidgetBodyComponent&#45;&gt;NuiDashboardsModule</title>
<path fill="none" stroke="black" d="M1603.67,-122.03C1603.67,-138.4 1603.67,-160 1603.67,-160 1603.67,-160 2943.47,-160 2943.47,-160"/>
<polygon fill="black" stroke="black" points="2943.47,-163.5 2953.47,-160 2943.47,-156.5 2943.47,-163.5"/>
</g>
<!-- WidgetBodyContentComponent -->
<g id="node24" class="node">
<title>WidgetBodyContentComponent</title>
<polygon fill="#ffffb3" stroke="black" points="1487.71,-122 1290.29,-122 1290.29,-86 1487.71,-86 1487.71,-122"/>
<text text-anchor="middle" x="1389" y="-99.8" font-family="Times,serif" font-size="14.00">WidgetBodyContentComponent</text>
</g>
<!-- WidgetBodyContentComponent&#45;&gt;NuiDashboardsModule -->
<g id="edge24" class="edge">
<title>WidgetBodyContentComponent&#45;&gt;NuiDashboardsModule</title>
<path fill="none" stroke="black" d="M1476.44,-122.04C1476.44,-138.73 1476.44,-161 1476.44,-161 1476.44,-161 2943.78,-161 2943.78,-161"/>
<polygon fill="black" stroke="black" points="2943.78,-164.5 2953.78,-161 2943.78,-157.5 2943.78,-164.5"/>
</g>
<!-- WidgetComponent -->
<g id="node25" class="node">
<title>WidgetComponent</title>
<polygon fill="#ffffb3" stroke="black" points="1272.04,-122 1149.96,-122 1149.96,-86 1272.04,-86 1272.04,-122"/>
<text text-anchor="middle" x="1211" y="-99.8" font-family="Times,serif" font-size="14.00">WidgetComponent</text>
</g>
<!-- WidgetComponent&#45;&gt;NuiDashboardsModule -->
<g id="edge25" class="edge">
<title>WidgetComponent&#45;&gt;NuiDashboardsModule</title>
<path fill="none" stroke="black" d="M1231.42,-122.02C1231.42,-139.37 1231.42,-163 1231.42,-163 1231.42,-163 2943.83,-163 2943.83,-163"/>
<polygon fill="black" stroke="black" points="2943.83,-166.5 2953.83,-163 2943.83,-159.5 2943.83,-166.5"/>
</g>
<!-- WidgetEditorDirective -->
<g id="node26" class="node">
<title>WidgetEditorDirective</title>
<polygon fill="#ffffb3" stroke="black" points="1132.29,-122 987.71,-122 987.71,-86 1132.29,-86 1132.29,-122"/>
<text text-anchor="middle" x="1060" y="-99.8" font-family="Times,serif" font-size="14.00">WidgetEditorDirective</text>
</g>
<!-- WidgetEditorDirective&#45;&gt;NuiDashboardsModule -->
<g id="edge26" class="edge">
<title>WidgetEditorDirective&#45;&gt;NuiDashboardsModule</title>
<path fill="none" stroke="black" d="M1101.89,-122C1101.89,-139.68 1101.89,-164 1101.89,-164 1101.89,-164 2943.59,-164 2943.59,-164"/>
<polygon fill="black" stroke="black" points="2943.59,-167.5 2953.59,-164 2943.59,-160.5 2943.59,-167.5"/>
</g>
<!-- WidgetHeaderComponent -->
<g id="node27" class="node">
<title>WidgetHeaderComponent</title>
<polygon fill="#ffffb3" stroke="black" points="969.45,-122 806.55,-122 806.55,-86 969.45,-86 969.45,-122"/>
<text text-anchor="middle" x="888" y="-99.8" font-family="Times,serif" font-size="14.00">WidgetHeaderComponent</text>
</g>
<!-- WidgetHeaderComponent&#45;&gt;NuiDashboardsModule -->
<g id="edge27" class="edge">
<title>WidgetHeaderComponent&#45;&gt;NuiDashboardsModule</title>
<path fill="none" stroke="black" d="M948.73,-122.3C948.73,-140.27 948.73,-165 948.73,-165 948.73,-165 2943.64,-165 2943.64,-165"/>
<polygon fill="black" stroke="black" points="2943.64,-168.5 2953.64,-165 2943.64,-161.5 2943.64,-168.5"/>
</g>
<!-- WidgetSearchComponent -->
<g id="node28" class="node">
<title>WidgetSearchComponent</title>
<polygon fill="#ffffb3" stroke="black" points="788.13,-122 627.87,-122 627.87,-86 788.13,-86 788.13,-122"/>
<text text-anchor="middle" x="708" y="-99.8" font-family="Times,serif" font-size="14.00">WidgetSearchComponent</text>
</g>
<!-- WidgetSearchComponent&#45;&gt;NuiDashboardsModule -->
<g id="edge28" class="edge">
<title>WidgetSearchComponent&#45;&gt;NuiDashboardsModule</title>
<path fill="none" stroke="black" d="M775.21,-122.27C775.21,-140.56 775.21,-166 775.21,-166 775.21,-166 2943.68,-166 2943.68,-166"/>
<polygon fill="black" stroke="black" points="2943.68,-169.5 2953.68,-166 2943.68,-162.5 2943.68,-169.5"/>
</g>
<!-- DashboardComponent  -->
<g id="node33" class="node">
<title>DashboardComponent </title>
<polygon fill="#fb8072" stroke="black" points="5667.97,-252 5522.03,-252 5522.03,-216 5667.97,-216 5667.97,-252"/>
<text text-anchor="middle" x="5595" y="-229.8" font-family="Times,serif" font-size="14.00">DashboardComponent </text>
</g>
<!-- NuiDashboardsModule&#45;&gt;DashboardComponent  -->
<g id="edge32" class="edge">
<title>NuiDashboardsModule&#45;&gt;DashboardComponent </title>
<path fill="none" stroke="black" stroke-dasharray="5,2" d="M3100.31,-171C3518.1,-171 5579.88,-171 5579.88,-171 5579.88,-171 5579.88,-205.78 5579.88,-205.78"/>
<polygon fill="black" stroke="black" points="5576.38,-205.78 5579.88,-215.78 5583.38,-205.78 5576.38,-205.78"/>
</g>
<!-- DelayedMousePresenceDetectionDirective  -->
<g id="node34" class="node">
<title>DelayedMousePresenceDetectionDirective </title>
<polygon fill="#fb8072" stroke="black" points="5504.5,-252 5243.5,-252 5243.5,-216 5504.5,-216 5504.5,-252"/>
<text text-anchor="middle" x="5374" y="-229.8" font-family="Times,serif" font-size="14.00">DelayedMousePresenceDetectionDirective </text>
</g>
<!-- NuiDashboardsModule&#45;&gt;DelayedMousePresenceDetectionDirective  -->
<g id="edge33" class="edge">
<title>NuiDashboardsModule&#45;&gt;DelayedMousePresenceDetectionDirective </title>
<path fill="none" stroke="black" stroke-dasharray="5,2" d="M3100.16,-173C3489.77,-173 5303.26,-173 5303.26,-173 5303.26,-173 5303.26,-205.7 5303.26,-205.7"/>
<polygon fill="black" stroke="black" points="5299.76,-205.7 5303.26,-215.7 5306.76,-205.7 5299.76,-205.7"/>
</g>
<!-- EmbeddedContentComponent  -->
<g id="node35" class="node">
<title>EmbeddedContentComponent </title>
<polygon fill="#fb8072" stroke="black" points="5225.54,-252 5036.46,-252 5036.46,-216 5225.54,-216 5225.54,-252"/>
<text text-anchor="middle" x="5131" y="-229.8" font-family="Times,serif" font-size="14.00">EmbeddedContentComponent </text>
</g>
<!-- NuiDashboardsModule&#45;&gt;EmbeddedContentComponent  -->
<g id="edge34" class="edge">
<title>NuiDashboardsModule&#45;&gt;EmbeddedContentComponent </title>
<path fill="none" stroke="black" stroke-dasharray="5,2" d="M3100.4,-174C3468.71,-174 5097.86,-174 5097.86,-174 5097.86,-174 5097.86,-206 5097.86,-206"/>
<polygon fill="black" stroke="black" points="5094.36,-206 5097.86,-216 5101.36,-206 5094.36,-206"/>
</g>
<!-- GridsterItemWidgetIdDirective  -->
<g id="node36" class="node">
<title>GridsterItemWidgetIdDirective </title>
<polygon fill="#fb8072" stroke="black" points="5017.98,-252 4822.02,-252 4822.02,-216 5017.98,-216 5017.98,-252"/>
<text text-anchor="middle" x="4920" y="-229.8" font-family="Times,serif" font-size="14.00">GridsterItemWidgetIdDirective </text>
</g>
<!-- NuiDashboardsModule&#45;&gt;GridsterItemWidgetIdDirective  -->
<g id="edge35" class="edge">
<title>NuiDashboardsModule&#45;&gt;GridsterItemWidgetIdDirective </title>
<path fill="none" stroke="black" stroke-dasharray="5,2" d="M3100.29,-175C3437.75,-175 4825.53,-175 4825.53,-175 4825.53,-175 4825.53,-205.98 4825.53,-205.98"/>
<polygon fill="black" stroke="black" points="4822.03,-205.98 4825.53,-215.98 4829.03,-205.98 4822.03,-205.98"/>
</g>
<!-- KpiComponent  -->
<g id="node37" class="node">
<title>KpiComponent </title>
<polygon fill="#fb8072" stroke="black" points="4803.83,-252 4698.17,-252 4698.17,-216 4803.83,-216 4803.83,-252"/>
<text text-anchor="middle" x="4751" y="-229.8" font-family="Times,serif" font-size="14.00">KpiComponent </text>
</g>
<!-- NuiDashboardsModule&#45;&gt;KpiComponent  -->
<g id="edge36" class="edge">
<title>NuiDashboardsModule&#45;&gt;KpiComponent </title>
<path fill="none" stroke="black" stroke-dasharray="5,2" d="M3100.25,-176C3428.85,-176 4751,-176 4751,-176 4751,-176 4751,-205.97 4751,-205.97"/>
<polygon fill="black" stroke="black" points="4747.5,-205.97 4751,-215.97 4754.5,-205.97 4747.5,-205.97"/>
</g>
<!-- LineChartComponent  -->
<g id="node38" class="node">
<title>LineChartComponent </title>
<polygon fill="#fb8072" stroke="black" points="4679.59,-252 4538.41,-252 4538.41,-216 4679.59,-216 4679.59,-252"/>
<text text-anchor="middle" x="4609" y="-229.8" font-family="Times,serif" font-size="14.00">LineChartComponent </text>
</g>
<!-- NuiDashboardsModule&#45;&gt;LineChartComponent  -->
<g id="edge37" class="edge">
<title>NuiDashboardsModule&#45;&gt;LineChartComponent </title>
<path fill="none" stroke="black" stroke-dasharray="5,2" d="M3100.24,-178C3411.14,-178 4605.74,-178 4605.74,-178 4605.74,-178 4605.74,-205.97 4605.74,-205.97"/>
<polygon fill="black" stroke="black" points="4602.24,-205.97 4605.74,-215.97 4609.24,-205.97 4602.24,-205.97"/>
</g>
<!-- ListGroupItemComponent  -->
<g id="node39" class="node">
<title>ListGroupItemComponent </title>
<polygon fill="#fb8072" stroke="black" points="4520.03,-252 4351.97,-252 4351.97,-216 4520.03,-216 4520.03,-252"/>
<text text-anchor="middle" x="4436" y="-229.8" font-family="Times,serif" font-size="14.00">ListGroupItemComponent </text>
</g>
<!-- NuiDashboardsModule&#45;&gt;ListGroupItemComponent  -->
<g id="edge38" class="edge">
<title>NuiDashboardsModule&#45;&gt;ListGroupItemComponent </title>
<path fill="none" stroke="black" stroke-dasharray="5,2" d="M3100.5,-179C3388.14,-179 4421.59,-179 4421.59,-179 4421.59,-179 4421.59,-205.99 4421.59,-205.99"/>
<polygon fill="black" stroke="black" points="4418.09,-205.99 4421.59,-215.99 4425.09,-205.99 4418.09,-205.99"/>
</g>
<!-- ListLeafItemComponent  -->
<g id="node40" class="node">
<title>ListLeafItemComponent </title>
<polygon fill="#fb8072" stroke="black" points="4333.91,-252 4176.09,-252 4176.09,-216 4333.91,-216 4333.91,-252"/>
<text text-anchor="middle" x="4255" y="-229.8" font-family="Times,serif" font-size="14.00">ListLeafItemComponent </text>
</g>
<!-- NuiDashboardsModule&#45;&gt;ListLeafItemComponent  -->
<g id="edge39" class="edge">
<title>NuiDashboardsModule&#45;&gt;ListLeafItemComponent </title>
<path fill="none" stroke="black" stroke-dasharray="5,2" d="M3100.14,-180C3363.43,-180 4247.41,-180 4247.41,-180 4247.41,-180 4247.41,-205.72 4247.41,-205.72"/>
<polygon fill="black" stroke="black" points="4243.91,-205.72 4247.41,-215.72 4250.91,-205.72 4243.91,-205.72"/>
</g>
<!-- ListNavigationBarComponent  -->
<g id="node41" class="node">
<title>ListNavigationBarComponent </title>
<polygon fill="#fb8072" stroke="black" points="4158.53,-252 3969.47,-252 3969.47,-216 4158.53,-216 4158.53,-252"/>
<text text-anchor="middle" x="4064" y="-229.8" font-family="Times,serif" font-size="14.00">ListNavigationBarComponent </text>
</g>
<!-- NuiDashboardsModule&#45;&gt;ListNavigationBarComponent  -->
<g id="edge40" class="edge">
<title>NuiDashboardsModule&#45;&gt;ListNavigationBarComponent </title>
<path fill="none" stroke="black" stroke-dasharray="5,2" d="M3100.34,-181C3329.83,-181 4018.95,-181 4018.95,-181 4018.95,-181 4018.95,-205.76 4018.95,-205.76"/>
<polygon fill="black" stroke="black" points="4015.45,-205.76 4018.95,-215.76 4022.45,-205.76 4015.45,-205.76"/>
</g>
<!-- ListWidgetComponent  -->
<g id="node42" class="node">
<title>ListWidgetComponent </title>
<polygon fill="#fb8072" stroke="black" points="3951.82,-252 3804.18,-252 3804.18,-216 3951.82,-216 3951.82,-252"/>
<text text-anchor="middle" x="3878" y="-229.8" font-family="Times,serif" font-size="14.00">ListWidgetComponent </text>
</g>
<!-- NuiDashboardsModule&#45;&gt;ListWidgetComponent  -->
<g id="edge41" class="edge">
<title>NuiDashboardsModule&#45;&gt;ListWidgetComponent </title>
<path fill="none" stroke="black" stroke-dasharray="5,2" d="M3100.18,-183C3295.82,-183 3816.17,-183 3816.17,-183 3816.17,-183 3816.17,-205.88 3816.17,-205.88"/>
<polygon fill="black" stroke="black" points="3812.67,-205.88 3816.17,-215.88 3819.67,-205.88 3812.67,-205.88"/>
</g>
<!-- LoadingComponent  -->
<g id="node43" class="node">
<title>LoadingComponent </title>
<polygon fill="#fb8072" stroke="black" points="3785.99,-252 3654.01,-252 3654.01,-216 3785.99,-216 3785.99,-252"/>
<text text-anchor="middle" x="3720" y="-229.8" font-family="Times,serif" font-size="14.00">LoadingComponent </text>
</g>
<!-- NuiDashboardsModule&#45;&gt;LoadingComponent  -->
<g id="edge42" class="edge">
<title>NuiDashboardsModule&#45;&gt;LoadingComponent </title>
<path fill="none" stroke="black" stroke-dasharray="5,2" d="M3100.18,-184C3278.32,-184 3720,-184 3720,-184 3720,-184 3720,-205.95 3720,-205.95"/>
<polygon fill="black" stroke="black" points="3716.5,-205.95 3720,-215.95 3723.5,-205.95 3716.5,-205.95"/>
</g>
<!-- ProportionalDonutContentComponent  -->
<g id="node44" class="node">
<title>ProportionalDonutContentComponent </title>
<polygon fill="#fb8072" stroke="black" points="3636.15,-252 3401.85,-252 3401.85,-216 3636.15,-216 3636.15,-252"/>
<text text-anchor="middle" x="3519" y="-229.8" font-family="Times,serif" font-size="14.00">ProportionalDonutContentComponent </text>
</g>
<!-- NuiDashboardsModule&#45;&gt;ProportionalDonutContentComponent  -->
<g id="edge43" class="edge">
<title>NuiDashboardsModule&#45;&gt;ProportionalDonutContentComponent </title>
<path fill="none" stroke="black" stroke-dasharray="5,2" d="M3100.3,-185C3228.54,-185 3480.1,-185 3480.1,-185 3480.1,-185 3480.1,-205.75 3480.1,-205.75"/>
<polygon fill="black" stroke="black" points="3476.6,-205.75 3480.1,-215.75 3483.6,-205.75 3476.6,-205.75"/>
</g>
<!-- ProportionalWidgetComponent  -->
<g id="node45" class="node">
<title>ProportionalWidgetComponent </title>
<polygon fill="#fb8072" stroke="black" points="3384.03,-252 3187.97,-252 3187.97,-216 3384.03,-216 3384.03,-252"/>
<text text-anchor="middle" x="3286" y="-229.8" font-family="Times,serif" font-size="14.00">ProportionalWidgetComponent </text>
</g>
<!-- NuiDashboardsModule&#45;&gt;ProportionalWidgetComponent  -->
<g id="edge44" class="edge">
<title>NuiDashboardsModule&#45;&gt;ProportionalWidgetComponent </title>
<path fill="none" stroke="black" stroke-dasharray="5,2" d="M3100.36,-186C3148.64,-186 3202.98,-186 3202.98,-186 3202.98,-186 3202.98,-205.85 3202.98,-205.85"/>
<polygon fill="black" stroke="black" points="3199.48,-205.85 3202.98,-215.85 3206.48,-205.85 3199.48,-205.85"/>
</g>
<!-- StackComponent  -->
<g id="node46" class="node">
<title>StackComponent </title>
<polygon fill="#fb8072" stroke="black" points="3169.93,-252 3054.07,-252 3054.07,-216 3169.93,-216 3169.93,-252"/>
<text text-anchor="middle" x="3112" y="-229.8" font-family="Times,serif" font-size="14.00">StackComponent </text>
</g>
<!-- NuiDashboardsModule&#45;&gt;StackComponent  -->
<g id="edge45" class="edge">
<title>NuiDashboardsModule&#45;&gt;StackComponent </title>
<path fill="none" stroke="black" stroke-dasharray="5,2" d="M3077.17,-187.11C3077.17,-187.11 3077.17,-205.99 3077.17,-205.99"/>
<polygon fill="black" stroke="black" points="3073.67,-205.99 3077.17,-215.99 3080.67,-205.99 3073.67,-205.99"/>
</g>
<!-- StackedAreaChartComponent  -->
<g id="node47" class="node">
<title>StackedAreaChartComponent </title>
<polygon fill="#fb8072" stroke="black" points="3035.95,-252 2848.05,-252 2848.05,-216 3035.95,-216 3035.95,-252"/>
<text text-anchor="middle" x="2942" y="-229.8" font-family="Times,serif" font-size="14.00">StackedAreaChartComponent </text>
</g>
<!-- NuiDashboardsModule&#45;&gt;StackedAreaChartComponent  -->
<g id="edge46" class="edge">
<title>NuiDashboardsModule&#45;&gt;StackedAreaChartComponent </title>
<path fill="none" stroke="black" stroke-dasharray="5,2" d="M2994.7,-187.11C2994.7,-187.11 2994.7,-205.99 2994.7,-205.99"/>
<polygon fill="black" stroke="black" points="2991.2,-205.99 2994.7,-215.99 2998.2,-205.99 2991.2,-205.99"/>
</g>
<!-- StackedBarChartComponent  -->
<g id="node48" class="node">
<title>StackedBarChartComponent </title>
<polygon fill="#fb8072" stroke="black" points="2830.46,-252 2649.54,-252 2649.54,-216 2830.46,-216 2830.46,-252"/>
<text text-anchor="middle" x="2740" y="-229.8" font-family="Times,serif" font-size="14.00">StackedBarChartComponent </text>
</g>
<!-- NuiDashboardsModule&#45;&gt;StackedBarChartComponent  -->
<g id="edge47" class="edge">
<title>NuiDashboardsModule&#45;&gt;StackedBarChartComponent </title>
<path fill="none" stroke="black" stroke-dasharray="5,2" d="M2953.85,-186C2896.37,-186 2825.95,-186 2825.95,-186 2825.95,-186 2825.95,-205.85 2825.95,-205.85"/>
<polygon fill="black" stroke="black" points="2822.45,-205.85 2825.95,-215.85 2829.45,-205.85 2822.45,-205.85"/>
</g>
<!-- StackedPercentageAreaChartComponent  -->
<g id="node49" class="node">
<title>StackedPercentageAreaChartComponent </title>
<polygon fill="#fb8072" stroke="black" points="2631.36,-252 2382.64,-252 2382.64,-216 2631.36,-216 2631.36,-252"/>
<text text-anchor="middle" x="2507" y="-229.8" font-family="Times,serif" font-size="14.00">StackedPercentageAreaChartComponent </text>
</g>
<!-- NuiDashboardsModule&#45;&gt;StackedPercentageAreaChartComponent  -->
<g id="edge48" class="edge">
<title>NuiDashboardsModule&#45;&gt;StackedPercentageAreaChartComponent </title>
<path fill="none" stroke="black" stroke-dasharray="5,2" d="M2953.78,-185C2832.68,-185 2603.88,-185 2603.88,-185 2603.88,-185 2603.88,-205.75 2603.88,-205.75"/>
<polygon fill="black" stroke="black" points="2600.38,-205.75 2603.88,-215.75 2607.38,-205.75 2600.38,-205.75"/>
</g>
<!-- StatusBarChartComponent  -->
<g id="node50" class="node">
<title>StatusBarChartComponent </title>
<polygon fill="#fb8072" stroke="black" points="2364.37,-252 2193.63,-252 2193.63,-216 2364.37,-216 2364.37,-252"/>
<text text-anchor="middle" x="2279" y="-229.8" font-family="Times,serif" font-size="14.00">StatusBarChartComponent </text>
</g>
<!-- NuiDashboardsModule&#45;&gt;StatusBarChartComponent  -->
<g id="edge49" class="edge">
<title>NuiDashboardsModule&#45;&gt;StatusBarChartComponent </title>
<path fill="none" stroke="black" stroke-dasharray="5,2" d="M2953.79,-184C2767.75,-184 2291.49,-184 2291.49,-184 2291.49,-184 2291.49,-205.95 2291.49,-205.95"/>
<polygon fill="black" stroke="black" points="2287.99,-205.95 2291.49,-215.95 2294.99,-205.95 2287.99,-205.95"/>
</g>
<!-- TableWidgetComponent  -->
<g id="node51" class="node">
<title>TableWidgetComponent </title>
<polygon fill="#fb8072" stroke="black" points="2175.92,-252 2018.08,-252 2018.08,-216 2175.92,-216 2175.92,-252"/>
<text text-anchor="middle" x="2097" y="-229.8" font-family="Times,serif" font-size="14.00">TableWidgetComponent </text>
</g>
<!-- NuiDashboardsModule&#45;&gt;TableWidgetComponent  -->
<g id="edge50" class="edge">
<title>NuiDashboardsModule&#45;&gt;TableWidgetComponent </title>
<path fill="none" stroke="black" stroke-dasharray="5,2" d="M2953.51,-183C2739.82,-183 2133.65,-183 2133.65,-183 2133.65,-183 2133.65,-205.88 2133.65,-205.88"/>
<polygon fill="black" stroke="black" points="2130.15,-205.88 2133.65,-215.88 2137.15,-205.88 2130.15,-205.88"/>
</g>
<!-- TilesComponent  -->
<g id="node52" class="node">
<title>TilesComponent </title>
<polygon fill="#fb8072" stroke="black" points="2000.33,-252 1887.67,-252 1887.67,-216 2000.33,-216 2000.33,-252"/>
<text text-anchor="middle" x="1944" y="-229.8" font-family="Times,serif" font-size="14.00">TilesComponent </text>
</g>
<!-- NuiDashboardsModule&#45;&gt;TilesComponent  -->
<g id="edge51" class="edge">
<title>NuiDashboardsModule&#45;&gt;TilesComponent </title>
<path fill="none" stroke="black" stroke-dasharray="5,2" d="M2953.84,-181C2710.55,-181 1944,-181 1944,-181 1944,-181 1944,-205.76 1944,-205.76"/>
<polygon fill="black" stroke="black" points="1940.5,-205.76 1944,-215.76 1947.5,-205.76 1940.5,-205.76"/>
</g>
<!-- TimeframeSelectionComponent  -->
<g id="node53" class="node">
<title>TimeframeSelectionComponent </title>
<polygon fill="#fb8072" stroke="black" points="1869.62,-252 1670.38,-252 1670.38,-216 1869.62,-216 1869.62,-252"/>
<text text-anchor="middle" x="1770" y="-229.8" font-family="Times,serif" font-size="14.00">TimeframeSelectionComponent </text>
</g>
<!-- NuiDashboardsModule&#45;&gt;TimeframeSelectionComponent  -->
<g id="edge52" class="edge">
<title>NuiDashboardsModule&#45;&gt;TimeframeSelectionComponent </title>
<path fill="none" stroke="black" stroke-dasharray="5,2" d="M2953.86,-180C2698.9,-180 1864.77,-180 1864.77,-180 1864.77,-180 1864.77,-205.72 1864.77,-205.72"/>
<polygon fill="black" stroke="black" points="1861.27,-205.72 1864.77,-215.72 1868.27,-205.72 1861.27,-205.72"/>
</g>
<!-- TimeseriesWidgetComponent  -->
<g id="node54" class="node">
<title>TimeseriesWidgetComponent </title>
<polygon fill="#fb8072" stroke="black" points="1652.96,-252 1465.04,-252 1465.04,-216 1652.96,-216 1652.96,-252"/>
<text text-anchor="middle" x="1559" y="-229.8" font-family="Times,serif" font-size="14.00">TimeseriesWidgetComponent </text>
</g>
<!-- NuiDashboardsModule&#45;&gt;TimeseriesWidgetComponent  -->
<g id="edge53" class="edge">
<title>NuiDashboardsModule&#45;&gt;TimeseriesWidgetComponent </title>
<path fill="none" stroke="black" stroke-dasharray="5,2" d="M2953.73,-179C2656.27,-179 1554.62,-179 1554.62,-179 1554.62,-179 1554.62,-205.99 1554.62,-205.99"/>
<polygon fill="black" stroke="black" points="1551.12,-205.99 1554.62,-215.99 1558.12,-205.99 1551.12,-205.99"/>
</g>
<!-- WidgetBodyComponent  -->
<g id="node55" class="node">
<title>WidgetBodyComponent </title>
<polygon fill="#fb8072" stroke="black" points="1447.38,-252 1290.62,-252 1290.62,-216 1447.38,-216 1447.38,-252"/>
<text text-anchor="middle" x="1369" y="-229.8" font-family="Times,serif" font-size="14.00">WidgetBodyComponent </text>
</g>
<!-- NuiDashboardsModule&#45;&gt;WidgetBodyComponent  -->
<g id="edge54" class="edge">
<title>NuiDashboardsModule&#45;&gt;WidgetBodyComponent </title>
<path fill="none" stroke="black" stroke-dasharray="5,2" d="M2953.62,-178C2632.75,-178 1369,-178 1369,-178 1369,-178 1369,-205.97 1369,-205.97"/>
<polygon fill="black" stroke="black" points="1365.5,-205.97 1369,-215.97 1372.5,-205.97 1365.5,-205.97"/>
</g>
<!-- WidgetBodyContentComponent  -->
<g id="node56" class="node">
<title>WidgetBodyContentComponent </title>
<polygon fill="#fb8072" stroke="black" points="1272.21,-252 1071.79,-252 1071.79,-216 1272.21,-216 1272.21,-252"/>
<text text-anchor="middle" x="1172" y="-229.8" font-family="Times,serif" font-size="14.00">WidgetBodyContentComponent </text>
</g>
<!-- NuiDashboardsModule&#45;&gt;WidgetBodyContentComponent  -->
<g id="edge55" class="edge">
<title>NuiDashboardsModule&#45;&gt;WidgetBodyContentComponent </title>
<path fill="none" stroke="black" stroke-dasharray="5,2" d="M2953.59,-176C2611.54,-176 1190.58,-176 1190.58,-176 1190.58,-176 1190.58,-205.97 1190.58,-205.97"/>
<polygon fill="black" stroke="black" points="1187.08,-205.97 1190.58,-215.97 1194.08,-205.97 1187.08,-205.97"/>
</g>
<!-- WidgetComponent  -->
<g id="node57" class="node">
<title>WidgetComponent </title>
<polygon fill="#fb8072" stroke="black" points="1054.04,-252 927.96,-252 927.96,-216 1054.04,-216 1054.04,-252"/>
<text text-anchor="middle" x="991" y="-229.8" font-family="Times,serif" font-size="14.00">WidgetComponent </text>
</g>
<!-- NuiDashboardsModule&#45;&gt;WidgetComponent  -->
<g id="edge56" class="edge">
<title>NuiDashboardsModule&#45;&gt;WidgetComponent </title>
<path fill="none" stroke="black" stroke-dasharray="5,2" d="M2953.82,-175C2593.04,-175 1020.94,-175 1020.94,-175 1020.94,-175 1020.94,-205.98 1020.94,-205.98"/>
<polygon fill="black" stroke="black" points="1017.44,-205.98 1020.94,-215.98 1024.44,-205.98 1017.44,-205.98"/>
</g>
<!-- WidgetEditorDirective  -->
<g id="node58" class="node">
<title>WidgetEditorDirective </title>
<polygon fill="#fb8072" stroke="black" points="909.79,-252 762.21,-252 762.21,-216 909.79,-216 909.79,-252"/>
<text text-anchor="middle" x="836" y="-229.8" font-family="Times,serif" font-size="14.00">WidgetEditorDirective </text>
</g>
<!-- NuiDashboardsModule&#45;&gt;WidgetEditorDirective  -->
<g id="edge57" class="edge">
<title>NuiDashboardsModule&#45;&gt;WidgetEditorDirective </title>
<path fill="none" stroke="black" stroke-dasharray="5,2" d="M2953.6,-174C2574.75,-174 858.21,-174 858.21,-174 858.21,-174 858.21,-206 858.21,-206"/>
<polygon fill="black" stroke="black" points="854.71,-206 858.21,-216 861.71,-206 854.71,-206"/>
</g>
<!-- WidgetHeaderComponent  -->
<g id="node59" class="node">
<title>WidgetHeaderComponent </title>
<polygon fill="#fb8072" stroke="black" points="744.45,-252 577.55,-252 577.55,-216 744.45,-216 744.45,-252"/>
<text text-anchor="middle" x="661" y="-229.8" font-family="Times,serif" font-size="14.00">WidgetHeaderComponent </text>
</g>
<!-- NuiDashboardsModule&#45;&gt;WidgetHeaderComponent  -->
<g id="edge58" class="edge">
<title>NuiDashboardsModule&#45;&gt;WidgetHeaderComponent </title>
<path fill="none" stroke="black" stroke-dasharray="5,2" d="M2953.72,-173C2557.18,-173 685.96,-173 685.96,-173 685.96,-173 685.96,-205.7 685.96,-205.7"/>
<polygon fill="black" stroke="black" points="682.46,-205.7 685.96,-215.7 689.46,-205.7 682.46,-205.7"/>
</g>
<!-- WidgetSearchComponent  -->
<g id="node60" class="node">
<title>WidgetSearchComponent </title>
<polygon fill="#fb8072" stroke="black" points="560.13,-252 395.87,-252 395.87,-216 560.13,-216 560.13,-252"/>
<text text-anchor="middle" x="478" y="-229.8" font-family="Times,serif" font-size="14.00">WidgetSearchComponent </text>
</g>
<!-- NuiDashboardsModule&#45;&gt;WidgetSearchComponent  -->
<g id="edge59" class="edge">
<title>NuiDashboardsModule&#45;&gt;WidgetSearchComponent </title>
<path fill="none" stroke="black" stroke-dasharray="5,2" d="M2953.8,-171C2536.65,-171 478,-171 478,-171 478,-171 478,-205.78 478,-205.78"/>
<polygon fill="black" stroke="black" points="474.5,-205.78 478,-215.78 481.5,-205.78 474.5,-205.78"/>
</g>
<!-- NuiDashboardConfiguratorModule -->
<g id="node30" class="node">
<title>NuiDashboardConfiguratorModule</title>
<polygon fill="#8dd3c7" stroke="black" points="603.5,-122 600.5,-126 579.5,-126 576.5,-122 390.5,-122 390.5,-86 603.5,-86 603.5,-122"/>
<text text-anchor="middle" x="497" y="-99.8" font-family="Times,serif" font-size="14.00">NuiDashboardConfiguratorModule</text>
</g>
<!-- NuiDashboardConfiguratorModule&#45;&gt;NuiDashboardsModule -->
<g id="edge29" class="edge">
<title>NuiDashboardConfiguratorModule&#45;&gt;NuiDashboardsModule</title>
<path fill="none" stroke="black" d="M590.76,-122.17C590.76,-141.09 590.76,-168 590.76,-168 590.76,-168 2943.76,-168 2943.76,-168"/>
<polygon fill="black" stroke="black" points="2943.76,-171.5 2953.76,-168 2943.76,-164.5 2943.76,-171.5"/>
</g>
<!-- NuiDashboardsCommonModule -->
<g id="node31" class="node">
<title>NuiDashboardsCommonModule</title>
<polygon fill="#8dd3c7" stroke="black" points="372.25,-122 369.25,-126 348.25,-126 345.25,-122 173.75,-122 173.75,-86 372.25,-86 372.25,-122"/>
<text text-anchor="middle" x="273" y="-99.8" font-family="Times,serif" font-size="14.00">NuiDashboardsCommonModule</text>
</g>
<!-- NuiDashboardsCommonModule&#45;&gt;NuiDashboardsModule -->
<g id="edge30" class="edge">
<title>NuiDashboardsCommonModule&#45;&gt;NuiDashboardsModule</title>
<path fill="none" stroke="black" d="M273,-122.11C273,-141.34 273,-169 273,-169 273,-169 2943.69,-169 2943.69,-169"/>
<polygon fill="black" stroke="black" points="2943.69,-172.5 2953.69,-169 2943.69,-165.5 2943.69,-172.5"/>
</g>
<!-- NuiPizzagnaModule -->
<g id="node32" class="node">
<title>NuiPizzagnaModule</title>
<polygon fill="#8dd3c7" stroke="black" points="155.58,-122 152.58,-126 131.58,-126 128.58,-122 24.42,-122 24.42,-86 155.58,-86 155.58,-122"/>
<text text-anchor="middle" x="90" y="-99.8" font-family="Times,serif" font-size="14.00">NuiPizzagnaModule</text>
</g>
<!-- NuiPizzagnaModule&#45;&gt;NuiDashboardsModule -->
<g id="edge31" class="edge">
<title>NuiPizzagnaModule&#45;&gt;NuiDashboardsModule</title>
<path fill="none" stroke="black" d="M90,-122.03C90,-141.58 90,-170 90,-170 90,-170 2943.67,-170 2943.67,-170"/>
<polygon fill="black" stroke="black" points="2943.67,-173.5 2953.67,-170 2943.67,-166.5 2943.67,-173.5"/>
</g>
<!-- RefresherSettingsService -->
<g id="node61" class="node">
<title>RefresherSettingsService</title>
<ellipse fill="#fdb462" stroke="black" cx="5930" cy="-104" rx="108.78" ry="18"/>
<text text-anchor="middle" x="5930" y="-99.8" font-family="Times,serif" font-size="14.00">RefresherSettingsService</text>
</g>
<!-- RefresherSettingsService&#45;&gt;NuiDashboardsModule -->
<g id="edge60" class="edge">
<title>RefresherSettingsService&#45;&gt;NuiDashboardsModule</title>
<path fill="none" stroke="black" d="M5930,-122.03C5930,-141.58 5930,-170 5930,-170 5930,-170 3110.21,-170 3110.21,-170"/>
<polygon fill="black" stroke="black" points="3110.21,-166.5 3100.21,-170 3110.21,-173.5 3110.21,-166.5"/>
</g>
</g>
</svg>
