<?xml version="1.0" encoding="UTF-8" standalone="no"?>
<!DOCTYPE svg PUBLIC "-//W3C//DTD SVG 1.1//EN"
 "http://www.w3.org/Graphics/SVG/1.1/DTD/svg11.dtd">
<!-- Generated by graphviz version 2.44.1 (20200629.0846)
 -->
<!-- Title: dependencies Pages: 1 -->
<svg width="2375pt" height="284pt"
 viewBox="0.00 0.00 2375.00 284.00" xmlns="http://www.w3.org/2000/svg" xmlns:xlink="http://www.w3.org/1999/xlink">
<g id="graph0" class="graph" transform="scale(1 1) rotate(0) translate(4 280)">
<title>dependencies</title>
<polygon fill="white" stroke="transparent" points="-4,4 -4,-280 2371,-280 2371,4 -4,4"/>
<text text-anchor="start" x="1162.51" y="-42.4" font-family="sans-serif" font-weight="bold" font-size="14.00">Legend</text>
<polygon fill="#ffffb3" stroke="transparent" points="949.5,-10 949.5,-30 969.5,-30 969.5,-10 949.5,-10"/>
<text text-anchor="start" x="973.13" y="-15.4" font-family="sans-serif" font-size="14.00"> &#160;Declarations</text>
<polygon fill="#8dd3c7" stroke="transparent" points="1062.5,-10 1062.5,-30 1082.5,-30 1082.5,-10 1062.5,-10"/>
<text text-anchor="start" x="1086.23" y="-15.4" font-family="sans-serif" font-size="14.00"> &#160;Module</text>
<polygon fill="#80b1d3" stroke="transparent" points="1148.5,-10 1148.5,-30 1168.5,-30 1168.5,-10 1148.5,-10"/>
<text text-anchor="start" x="1172.28" y="-15.4" font-family="sans-serif" font-size="14.00"> &#160;Bootstrap</text>
<polygon fill="#fdb462" stroke="transparent" points="1245.5,-10 1245.5,-30 1265.5,-30 1265.5,-10 1245.5,-10"/>
<text text-anchor="start" x="1269.17" y="-15.4" font-family="sans-serif" font-size="14.00"> &#160;Providers</text>
<polygon fill="#fb8072" stroke="transparent" points="1341.5,-10 1341.5,-30 1361.5,-30 1361.5,-10 1341.5,-10"/>
<text text-anchor="start" x="1365.23" y="-15.4" font-family="sans-serif" font-size="14.00"> &#160;Exports</text>
<g id="clust1" class="cluster">
<title>cluster_NuiChartsModule</title>
<polygon fill="none" stroke="black" stroke-dasharray="1,5" points="8,-70 8,-268 2359,-268 2359,-70 8,-70"/>
</g>
<g id="clust17" class="cluster">
<title>cluster_NuiChartsModule_providers</title>
<polygon fill="none" stroke="black" points="1947,-78 1947,-130 2351,-130 2351,-78 1947,-78"/>
</g>
<g id="clust15" class="cluster">
<title>cluster_NuiChartsModule_exports</title>
<polygon fill="none" stroke="black" points="169,-208 169,-260 2133,-260 2133,-208 169,-208"/>
</g>
<g id="clust2" class="cluster">
<title>cluster_NuiChartsModule_declarations</title>
<polygon fill="none" stroke="black" points="16,-78 16,-130 1939,-130 1939,-78 16,-78"/>
</g>
<!-- BasicLegendTileComponent -->
<g id="node1" class="node">
<title>BasicLegendTileComponent</title>
<polygon fill="#ffffb3" stroke="black" points="1931.46,-122 1754.54,-122 1754.54,-86 1931.46,-86 1931.46,-122"/>
<text text-anchor="middle" x="1843" y="-99.8" font-family="Times,serif" font-size="14.00">BasicLegendTileComponent</text>
</g>
<!-- NuiChartsModule -->
<g id="node12" class="node">
<title>NuiChartsModule</title>
<polygon fill="#8dd3c7" stroke="black" points="1190.59,-187 1187.59,-191 1166.59,-191 1163.59,-187 1073.41,-187 1073.41,-151 1190.59,-151 1190.59,-187"/>
<text text-anchor="middle" x="1132" y="-164.8" font-family="Times,serif" font-size="14.00">NuiChartsModule</text>
</g>
<!-- BasicLegendTileComponent&#45;&gt;NuiChartsModule -->
<g id="edge1" class="edge">
<title>BasicLegendTileComponent&#45;&gt;NuiChartsModule</title>
<path fill="none" stroke="black" d="M1811.79,-122.02C1811.79,-139.37 1811.79,-163 1811.79,-163 1811.79,-163 1200.84,-163 1200.84,-163"/>
<polygon fill="black" stroke="black" points="1200.84,-159.5 1190.84,-163 1200.84,-166.5 1200.84,-159.5"/>
</g>
<!-- ChartCollectionIdDirective -->
<g id="node2" class="node">
<title>ChartCollectionIdDirective</title>
<polygon fill="#ffffb3" stroke="black" points="1736.67,-122 1567.33,-122 1567.33,-86 1736.67,-86 1736.67,-122"/>
<text text-anchor="middle" x="1652" y="-99.8" font-family="Times,serif" font-size="14.00">ChartCollectionIdDirective</text>
</g>
<!-- ChartCollectionIdDirective&#45;&gt;NuiChartsModule -->
<g id="edge2" class="edge">
<title>ChartCollectionIdDirective&#45;&gt;NuiChartsModule</title>
<path fill="none" stroke="black" d="M1584.52,-122.03C1584.52,-138.4 1584.52,-160 1584.52,-160 1584.52,-160 1200.7,-160 1200.7,-160"/>
<polygon fill="black" stroke="black" points="1200.7,-156.5 1190.7,-160 1200.7,-163.5 1200.7,-156.5"/>
</g>
<!-- ChartComponent -->
<g id="node3" class="node">
<title>ChartComponent</title>
<polygon fill="#ffffb3" stroke="black" points="1549.44,-122 1436.56,-122 1436.56,-86 1549.44,-86 1549.44,-122"/>
<text text-anchor="middle" x="1493" y="-99.8" font-family="Times,serif" font-size="14.00">ChartComponent</text>
</g>
<!-- ChartComponent&#45;&gt;NuiChartsModule -->
<g id="edge3" class="edge">
<title>ChartComponent&#45;&gt;NuiChartsModule</title>
<path fill="none" stroke="black" d="M1493,-122.24C1493,-137.57 1493,-157 1493,-157 1493,-157 1200.8,-157 1200.8,-157"/>
<polygon fill="black" stroke="black" points="1200.8,-153.5 1190.8,-157 1200.8,-160.5 1200.8,-153.5"/>
</g>
<!-- ChartDonutContentComponent -->
<g id="node4" class="node">
<title>ChartDonutContentComponent</title>
<polygon fill="#ffffb3" stroke="black" points="1418.76,-122 1227.24,-122 1227.24,-86 1418.76,-86 1418.76,-122"/>
<text text-anchor="middle" x="1323" y="-99.8" font-family="Times,serif" font-size="14.00">ChartDonutContentComponent</text>
</g>
<!-- ChartDonutContentComponent&#45;&gt;NuiChartsModule -->
<g id="edge4" class="edge">
<title>ChartDonutContentComponent&#45;&gt;NuiChartsModule</title>
<path fill="none" stroke="black" d="M1283.81,-122.05C1283.81,-136.37 1283.81,-154 1283.81,-154 1283.81,-154 1200.69,-154 1200.69,-154"/>
<polygon fill="black" stroke="black" points="1200.69,-150.5 1190.69,-154 1200.69,-157.5 1200.69,-150.5"/>
</g>
<!-- ChartMarkerComponent -->
<g id="node5" class="node">
<title>ChartMarkerComponent</title>
<polygon fill="#ffffb3" stroke="black" points="1208.63,-122 1055.37,-122 1055.37,-86 1208.63,-86 1208.63,-122"/>
<text text-anchor="middle" x="1132" y="-99.8" font-family="Times,serif" font-size="14.00">ChartMarkerComponent</text>
</g>
<!-- ChartMarkerComponent&#45;&gt;NuiChartsModule -->
<g id="edge5" class="edge">
<title>ChartMarkerComponent&#45;&gt;NuiChartsModule</title>
<path fill="none" stroke="black" d="M1132,-122.11C1132,-122.11 1132,-140.99 1132,-140.99"/>
<polygon fill="black" stroke="black" points="1128.5,-140.99 1132,-150.99 1135.5,-140.99 1128.5,-140.99"/>
</g>
<!-- ChartPopoverComponent -->
<g id="node6" class="node">
<title>ChartPopoverComponent</title>
<polygon fill="#ffffb3" stroke="black" points="1037.59,-122 878.41,-122 878.41,-86 1037.59,-86 1037.59,-122"/>
<text text-anchor="middle" x="958" y="-99.8" font-family="Times,serif" font-size="14.00">ChartPopoverComponent</text>
</g>
<!-- ChartPopoverComponent&#45;&gt;NuiChartsModule -->
<g id="edge6" class="edge">
<title>ChartPopoverComponent&#45;&gt;NuiChartsModule</title>
<path fill="none" stroke="black" d="M981.2,-122.05C981.2,-136.37 981.2,-154 981.2,-154 981.2,-154 1063.27,-154 1063.27,-154"/>
<polygon fill="black" stroke="black" points="1063.27,-157.5 1073.27,-154 1063.27,-150.5 1063.27,-157.5"/>
</g>
<!-- ChartTooltipComponent -->
<g id="node7" class="node">
<title>ChartTooltipComponent</title>
<polygon fill="#ffffb3" stroke="black" points="860.66,-122 707.34,-122 707.34,-86 860.66,-86 860.66,-122"/>
<text text-anchor="middle" x="784" y="-99.8" font-family="Times,serif" font-size="14.00">ChartTooltipComponent</text>
</g>
<!-- ChartTooltipComponent&#45;&gt;NuiChartsModule -->
<g id="edge7" class="edge">
<title>ChartTooltipComponent&#45;&gt;NuiChartsModule</title>
<path fill="none" stroke="black" d="M807.26,-122.24C807.26,-137.57 807.26,-157 807.26,-157 807.26,-157 1063.19,-157 1063.19,-157"/>
<polygon fill="black" stroke="black" points="1063.19,-160.5 1073.19,-157 1063.19,-153.5 1063.19,-160.5"/>
</g>
<!-- ChartTooltipsComponent -->
<g id="node8" class="node">
<title>ChartTooltipsComponent</title>
<polygon fill="#ffffb3" stroke="black" points="689.6,-122 530.4,-122 530.4,-86 689.6,-86 689.6,-122"/>
<text text-anchor="middle" x="610" y="-99.8" font-family="Times,serif" font-size="14.00">ChartTooltipsComponent</text>
</g>
<!-- ChartTooltipsComponent&#45;&gt;NuiChartsModule -->
<g id="edge8" class="edge">
<title>ChartTooltipsComponent&#45;&gt;NuiChartsModule</title>
<path fill="none" stroke="black" d="M682.98,-122.03C682.98,-138.4 682.98,-160 682.98,-160 682.98,-160 1063.3,-160 1063.3,-160"/>
<polygon fill="black" stroke="black" points="1063.3,-163.5 1073.3,-160 1063.3,-156.5 1063.3,-163.5"/>
</g>
<!-- LegendComponent -->
<g id="node9" class="node">
<title>LegendComponent</title>
<polygon fill="#ffffb3" stroke="black" points="512.81,-122 389.19,-122 389.19,-86 512.81,-86 512.81,-122"/>
<text text-anchor="middle" x="451" y="-99.8" font-family="Times,serif" font-size="14.00">LegendComponent</text>
</g>
<!-- LegendComponent&#45;&gt;NuiChartsModule -->
<g id="edge9" class="edge">
<title>LegendComponent&#45;&gt;NuiChartsModule</title>
<path fill="none" stroke="black" d="M451,-122.02C451,-139.37 451,-163 451,-163 451,-163 1063.35,-163 1063.35,-163"/>
<polygon fill="black" stroke="black" points="1063.35,-166.5 1073.35,-163 1063.35,-159.5 1063.35,-166.5"/>
</g>
<!-- LegendSeriesComponent -->
<g id="node10" class="node">
<title>LegendSeriesComponent</title>
<polygon fill="#ffffb3" stroke="black" points="371.52,-122 214.48,-122 214.48,-86 371.52,-86 371.52,-122"/>
<text text-anchor="middle" x="293" y="-99.8" font-family="Times,serif" font-size="14.00">LegendSeriesComponent</text>
</g>
<!-- LegendSeriesComponent&#45;&gt;NuiChartsModule -->
<g id="edge10" class="edge">
<title>LegendSeriesComponent&#45;&gt;NuiChartsModule</title>
<path fill="none" stroke="black" d="M361.7,-122.27C361.7,-140.56 361.7,-166 361.7,-166 361.7,-166 1063.15,-166 1063.15,-166"/>
<polygon fill="black" stroke="black" points="1063.15,-169.5 1073.15,-166 1063.15,-162.5 1063.15,-169.5"/>
</g>
<!-- RichLegendTileComponent -->
<g id="node11" class="node">
<title>RichLegendTileComponent</title>
<polygon fill="#ffffb3" stroke="black" points="196.3,-122 23.7,-122 23.7,-86 196.3,-86 196.3,-122"/>
<text text-anchor="middle" x="110" y="-99.8" font-family="Times,serif" font-size="14.00">RichLegendTileComponent</text>
</g>
<!-- RichLegendTileComponent&#45;&gt;NuiChartsModule -->
<g id="edge11" class="edge">
<title>RichLegendTileComponent&#45;&gt;NuiChartsModule</title>
<path fill="none" stroke="black" d="M186.62,-122.11C186.62,-141.34 186.62,-169 186.62,-169 186.62,-169 1063.22,-169 1063.22,-169"/>
<polygon fill="black" stroke="black" points="1063.22,-172.5 1073.22,-169 1063.22,-165.5 1063.22,-172.5"/>
</g>
<!-- BasicLegendTileComponent  -->
<g id="node13" class="node">
<title>BasicLegendTileComponent </title>
<polygon fill="#fb8072" stroke="black" points="2125.46,-252 1944.54,-252 1944.54,-216 2125.46,-216 2125.46,-252"/>
<text text-anchor="middle" x="2035" y="-229.8" font-family="Times,serif" font-size="14.00">BasicLegendTileComponent </text>
</g>
<!-- NuiChartsModule&#45;&gt;BasicLegendTileComponent  -->
<g id="edge12" class="edge">
<title>NuiChartsModule&#45;&gt;BasicLegendTileComponent </title>
<path fill="none" stroke="black" stroke-dasharray="5,2" d="M1190.82,-172C1378.37,-172 1949.93,-172 1949.93,-172 1949.93,-172 1949.93,-205.73 1949.93,-205.73"/>
<polygon fill="black" stroke="black" points="1946.43,-205.73 1949.93,-215.73 1953.43,-205.73 1946.43,-205.73"/>
</g>
<!-- ChartCollectionIdDirective  -->
<g id="node14" class="node">
<title>ChartCollectionIdDirective </title>
<polygon fill="#fb8072" stroke="black" points="1926.17,-252 1753.83,-252 1753.83,-216 1926.17,-216 1926.17,-252"/>
<text text-anchor="middle" x="1840" y="-229.8" font-family="Times,serif" font-size="14.00">ChartCollectionIdDirective </text>
</g>
<!-- NuiChartsModule&#45;&gt;ChartCollectionIdDirective  -->
<g id="edge13" class="edge">
<title>NuiChartsModule&#45;&gt;ChartCollectionIdDirective </title>
<path fill="none" stroke="black" stroke-dasharray="5,2" d="M1190.76,-175C1365.38,-175 1869.06,-175 1869.06,-175 1869.06,-175 1869.06,-205.98 1869.06,-205.98"/>
<polygon fill="black" stroke="black" points="1865.56,-205.98 1869.06,-215.98 1872.56,-205.98 1865.56,-205.98"/>
</g>
<!-- ChartComponent  -->
<g id="node15" class="node">
<title>ChartComponent </title>
<polygon fill="#fb8072" stroke="black" points="1735.93,-252 1620.07,-252 1620.07,-216 1735.93,-216 1735.93,-252"/>
<text text-anchor="middle" x="1678" y="-229.8" font-family="Times,serif" font-size="14.00">ChartComponent </text>
</g>
<!-- NuiChartsModule&#45;&gt;ChartComponent  -->
<g id="edge14" class="edge">
<title>NuiChartsModule&#45;&gt;ChartComponent </title>
<path fill="none" stroke="black" stroke-dasharray="5,2" d="M1190.69,-178C1331.71,-178 1678,-178 1678,-178 1678,-178 1678,-205.97 1678,-205.97"/>
<polygon fill="black" stroke="black" points="1674.5,-205.97 1678,-215.97 1681.5,-205.97 1674.5,-205.97"/>
</g>
<!-- ChartDonutContentComponent  -->
<g id="node16" class="node">
<title>ChartDonutContentComponent </title>
<polygon fill="#fb8072" stroke="black" points="1601.76,-252 1406.24,-252 1406.24,-216 1601.76,-216 1601.76,-252"/>
<text text-anchor="middle" x="1504" y="-229.8" font-family="Times,serif" font-size="14.00">ChartDonutContentComponent </text>
</g>
<!-- NuiChartsModule&#45;&gt;ChartDonutContentComponent  -->
<g id="edge15" class="edge">
<title>NuiChartsModule&#45;&gt;ChartDonutContentComponent </title>
<path fill="none" stroke="black" stroke-dasharray="5,2" d="M1190.83,-181C1273.12,-181 1412.62,-181 1412.62,-181 1412.62,-181 1412.62,-205.76 1412.62,-205.76"/>
<polygon fill="black" stroke="black" points="1409.13,-205.76 1412.62,-215.76 1416.13,-205.76 1409.13,-205.76"/>
</g>
<!-- ChartMarkerComponent  -->
<g id="node17" class="node">
<title>ChartMarkerComponent </title>
<polygon fill="#fb8072" stroke="black" points="1388.63,-252 1231.37,-252 1231.37,-216 1388.63,-216 1388.63,-252"/>
<text text-anchor="middle" x="1310" y="-229.8" font-family="Times,serif" font-size="14.00">ChartMarkerComponent </text>
</g>
<!-- NuiChartsModule&#45;&gt;ChartMarkerComponent  -->
<g id="edge16" class="edge">
<title>NuiChartsModule&#45;&gt;ChartMarkerComponent </title>
<path fill="none" stroke="black" stroke-dasharray="5,2" d="M1190.79,-184C1251.11,-184 1336.19,-184 1336.19,-184 1336.19,-184 1336.19,-205.95 1336.19,-205.95"/>
<polygon fill="black" stroke="black" points="1332.69,-205.95 1336.19,-215.95 1339.69,-205.95 1332.69,-205.95"/>
</g>
<!-- ChartPopoverComponent  -->
<g id="node18" class="node">
<title>ChartPopoverComponent </title>
<polygon fill="#fb8072" stroke="black" points="1213.09,-252 1050.91,-252 1050.91,-216 1213.09,-216 1213.09,-252"/>
<text text-anchor="middle" x="1132" y="-229.8" font-family="Times,serif" font-size="14.00">ChartPopoverComponent </text>
</g>
<!-- NuiChartsModule&#45;&gt;ChartPopoverComponent  -->
<g id="edge17" class="edge">
<title>NuiChartsModule&#45;&gt;ChartPopoverComponent </title>
<path fill="none" stroke="black" stroke-dasharray="5,2" d="M1132,-187.11C1132,-187.11 1132,-205.99 1132,-205.99"/>
<polygon fill="black" stroke="black" points="1128.5,-205.99 1132,-215.99 1135.5,-205.99 1128.5,-205.99"/>
</g>
<!-- ChartTooltipComponent  -->
<g id="node19" class="node">
<title>ChartTooltipComponent </title>
<polygon fill="#fb8072" stroke="black" points="1032.66,-252 875.34,-252 875.34,-216 1032.66,-216 1032.66,-252"/>
<text text-anchor="middle" x="954" y="-229.8" font-family="Times,serif" font-size="14.00">ChartTooltipComponent </text>
</g>
<!-- NuiChartsModule&#45;&gt;ChartTooltipComponent  -->
<g id="edge18" class="edge">
<title>NuiChartsModule&#45;&gt;ChartTooltipComponent </title>
<path fill="none" stroke="black" stroke-dasharray="5,2" d="M1073.25,-184C1013.56,-184 929.83,-184 929.83,-184 929.83,-184 929.83,-205.95 929.83,-205.95"/>
<polygon fill="black" stroke="black" points="926.33,-205.95 929.83,-215.95 933.33,-205.95 926.33,-205.95"/>
</g>
<!-- ChartTooltipsComponent  -->
<g id="node20" class="node">
<title>ChartTooltipsComponent </title>
<polygon fill="#fb8072" stroke="black" points="857.1,-252 694.9,-252 694.9,-216 857.1,-216 857.1,-252"/>
<text text-anchor="middle" x="776" y="-229.8" font-family="Times,serif" font-size="14.00">ChartTooltipsComponent </text>
</g>
<!-- NuiChartsModule&#45;&gt;ChartTooltipsComponent  -->
<g id="edge19" class="edge">
<title>NuiChartsModule&#45;&gt;ChartTooltipsComponent </title>
<path fill="none" stroke="black" stroke-dasharray="5,2" d="M1073.44,-181C968.03,-181 757.21,-181 757.21,-181 757.21,-181 757.21,-205.76 757.21,-205.76"/>
<polygon fill="black" stroke="black" points="753.71,-205.76 757.21,-215.76 760.71,-205.76 753.71,-205.76"/>
</g>
<!-- LegendComponent  -->
<g id="node21" class="node">
<title>LegendComponent </title>
<polygon fill="#fb8072" stroke="black" points="676.31,-252 549.69,-252 549.69,-216 676.31,-216 676.31,-252"/>
<text text-anchor="middle" x="613" y="-229.8" font-family="Times,serif" font-size="14.00">LegendComponent </text>
</g>
<!-- NuiChartsModule&#45;&gt;LegendComponent  -->
<g id="edge20" class="edge">
<title>NuiChartsModule&#45;&gt;LegendComponent </title>
<path fill="none" stroke="black" stroke-dasharray="5,2" d="M1073.22,-178C937.34,-178 613,-178 613,-178 613,-178 613,-205.97 613,-205.97"/>
<polygon fill="black" stroke="black" points="609.5,-205.97 613,-215.97 616.5,-205.97 609.5,-205.97"/>
</g>
<!-- LegendSeriesComponent  -->
<g id="node22" class="node">
<title>LegendSeriesComponent </title>
<polygon fill="#fb8072" stroke="black" points="531.52,-252 370.48,-252 370.48,-216 531.52,-216 531.52,-252"/>
<text text-anchor="middle" x="451" y="-229.8" font-family="Times,serif" font-size="14.00">LegendSeriesComponent </text>
</g>
<!-- NuiChartsModule&#45;&gt;LegendSeriesComponent  -->
<g id="edge21" class="edge">
<title>NuiChartsModule&#45;&gt;LegendSeriesComponent </title>
<path fill="none" stroke="black" stroke-dasharray="5,2" d="M1073.19,-175C920.2,-175 521.55,-175 521.55,-175 521.55,-175 521.55,-205.98 521.55,-205.98"/>
<polygon fill="black" stroke="black" points="518.05,-205.98 521.55,-215.98 525.05,-205.98 518.05,-205.98"/>
</g>
<!-- RichLegendTileComponent  -->
<g id="node23" class="node">
<title>RichLegendTileComponent </title>
<polygon fill="#fb8072" stroke="black" points="352.8,-252 177.2,-252 177.2,-216 352.8,-216 352.8,-252"/>
<text text-anchor="middle" x="265" y="-229.8" font-family="Times,serif" font-size="14.00">RichLegendTileComponent </text>
</g>
<!-- NuiChartsModule&#45;&gt;RichLegendTileComponent  -->
<g id="edge22" class="edge">
<title>NuiChartsModule&#45;&gt;RichLegendTileComponent </title>
<path fill="none" stroke="black" stroke-dasharray="5,2" d="M1073.35,-172C881.3,-172 283.57,-172 283.57,-172 283.57,-172 283.57,-205.73 283.57,-205.73"/>
<polygon fill="black" stroke="black" points="280.07,-205.73 283.57,-215.73 287.07,-205.73 280.07,-205.73"/>
</g>
<!-- ChartCollectionService -->
<g id="node24" class="node">
<title>ChartCollectionService</title>
<ellipse fill="#fdb462" stroke="black" cx="2241" cy="-104" rx="101.86" ry="18"/>
<text text-anchor="middle" x="2241" y="-99.8" font-family="Times,serif" font-size="14.00">ChartCollectionService</text>
</g>
<!-- ChartCollectionService&#45;&gt;NuiChartsModule -->
<g id="edge23" class="edge">
<title>ChartCollectionService&#45;&gt;NuiChartsModule</title>
<path fill="none" stroke="black" d="M2241,-122.11C2241,-141.34 2241,-169 2241,-169 2241,-169 1200.84,-169 1200.84,-169"/>
<polygon fill="black" stroke="black" points="1200.84,-165.5 1190.84,-169 1200.84,-172.5 1200.84,-165.5"/>
</g>
<!-- ThresholdsService -->
<g id="node25" class="node">
<title>ThresholdsService</title>
<ellipse fill="#fdb462" stroke="black" cx="2038" cy="-104" rx="82.8" ry="18"/>
<text text-anchor="middle" x="2038" y="-99.8" font-family="Times,serif" font-size="14.00">ThresholdsService</text>
</g>
<!-- ThresholdsService&#45;&gt;NuiChartsModule -->
<g id="edge24" class="edge">
<title>ThresholdsService&#45;&gt;NuiChartsModule</title>
<path fill="none" stroke="black" d="M2038,-122.27C2038,-140.56 2038,-166 2038,-166 2038,-166 1200.75,-166 1200.75,-166"/>
<polygon fill="black" stroke="black" points="1200.75,-162.5 1190.75,-166 1200.75,-169.5 1200.75,-162.5"/>
</g>
</g>
</svg>
