<svg id="Layer_1" data-name="Layer 1" xmlns="http://www.w3.org/2000/svg" width="94" height="24" viewBox="0 0 94 24"><defs><style>.cls-1{fill:#f99e1e;}.cls-2{fill:#31c0d0;}.cls-3{fill:#a1a0a0;}.cls-4{fill:#96bd4a;}</style></defs><path class="cls-1" d="M19.32,23.77a2.54,2.54,0,0,1-1.89-.87L5.54,9.44V21.2a2.55,2.55,0,1,1-5.1,0V2.7A2.55,2.55,0,0,1,4.9,1L16.75,14.47V2.7a2.55,2.55,0,0,1,5.1,0V21.22A2.56,2.56,0,0,1,20.2,23.6,2.64,2.64,0,0,1,19.32,23.77Z"/><path class="cls-2" d="M61.69,24h0a2.57,2.57,0,0,1-2.27-1.42L50.06,3.68a2.55,2.55,0,0,1,4.56-2.27l7.09,14.32L68.92,1.42a2.55,2.55,0,0,1,4.55,2.29L64,22.57A2.56,2.56,0,0,1,61.69,24Z"/><path class="cls-3" d="M91,24a2.54,2.54,0,0,1-2.28-1.4L81.52,8.34,76.26,18.9h5.38a2.55,2.55,0,0,1,0,5.1H72.16a2.52,2.52,0,0,1-2.27-3.69L79.23,1.52A2.55,2.55,0,0,1,81.51.11h0a2.52,2.52,0,0,1,2.27,1.4L93.27,20.3a2.52,2.52,0,0,1-1.07,3.4h0A2.52,2.52,0,0,1,91,24Z"/><path class="cls-4" d="M37,24A12,12,0,1,1,48.94,12,11.95,11.95,0,0,1,37,24ZM37,5.08A6.88,6.88,0,1,0,43.85,12v0h0A6.89,6.89,0,0,0,37,5.09Z"/></svg>