<?xml version="1.0" encoding="UTF-8" standalone="no"?>
<!DOCTYPE svg PUBLIC "-//W3C//DTD SVG 1.1//EN"
 "http://www.w3.org/Graphics/SVG/1.1/DTD/svg11.dtd">
<!-- Generated by graphviz version 2.47.3 (20210619.1520)
 -->
<!-- Title: dependencies Pages: 1 -->
<svg width="594pt" height="247pt"
 viewBox="0.00 0.00 594.00 246.80" xmlns="http://www.w3.org/2000/svg" xmlns:xlink="http://www.w3.org/1999/xlink">
<g id="graph0" class="graph" transform="scale(1 1) rotate(0) translate(4 242.8)">
<title>dependencies</title>
<polygon fill="white" stroke="transparent" points="-4,4 -4,-242.8 590,-242.8 590,4 -4,4"/>
<text text-anchor="middle" x="293" y="-8.2" font-family="sans-serif" font-size="14.00">dependencies</text>
<g id="clust1" class="cluster">
<title>cluster_NuiPizzagnaModule</title>
<polygon fill="none" stroke="black" stroke-dasharray="1,5" points="8,-32.8 8,-230.8 578,-230.8 578,-32.8 8,-32.8"/>
</g>
<g id="clust6" class="cluster">
<title>cluster_NuiPizzagnaModule_exports</title>
<polygon fill="none" stroke="black" points="99,-170.8 99,-222.8 439,-222.8 439,-170.8 99,-170.8"/>
</g>
<g id="clust5" class="cluster">
<title>cluster_NuiPizzagnaModule_imports</title>
<polygon fill="none" stroke="black" points="356,-40.8 356,-92.8 570,-92.8 570,-40.8 356,-40.8"/>
</g>
<g id="clust2" class="cluster">
<title>cluster_NuiPizzagnaModule_declarations</title>
<polygon fill="none" stroke="black" points="16,-40.8 16,-92.8 348,-92.8 348,-40.8 16,-40.8"/>
</g>
<!-- ComponentPortalDirective -->
<g id="node1" class="node">
<title>ComponentPortalDirective</title>
<polygon fill="#ffffb3" stroke="black" points="340.35,-84.8 173.65,-84.8 173.65,-48.8 340.35,-48.8 340.35,-84.8"/>
<text text-anchor="middle" x="257" y="-62.6" font-family="Times,serif" font-size="14.00">ComponentPortalDirective</text>
</g>
<!-- NuiPizzagnaModule -->
<g id="node3" class="node">
<title>NuiPizzagnaModule</title>
<polygon fill="#8dd3c7" stroke="black" points="322.58,-149.8 319.58,-153.8 298.58,-153.8 295.58,-149.8 191.42,-149.8 191.42,-113.8 322.58,-113.8 322.58,-149.8"/>
<text text-anchor="middle" x="257" y="-127.6" font-family="Times,serif" font-size="14.00">NuiPizzagnaModule</text>
</g>
<!-- ComponentPortalDirective&#45;&gt;NuiPizzagnaModule -->
<g id="edge1" class="edge">
<title>ComponentPortalDirective&#45;&gt;NuiPizzagnaModule</title>
<path fill="none" stroke="black" d="M257,-84.91C257,-84.91 257,-103.79 257,-103.79"/>
<polygon fill="black" stroke="black" points="253.5,-103.79 257,-113.79 260.5,-103.79 253.5,-103.79"/>
</g>
<!-- PizzagnaComponent -->
<g id="node2" class="node">
<title>PizzagnaComponent</title>
<polygon fill="#ffffb3" stroke="black" points="155.86,-84.8 24.14,-84.8 24.14,-48.8 155.86,-48.8 155.86,-84.8"/>
<text text-anchor="middle" x="90" y="-62.6" font-family="Times,serif" font-size="14.00">PizzagnaComponent</text>
</g>
<!-- PizzagnaComponent&#45;&gt;NuiPizzagnaModule -->
<g id="edge2" class="edge">
<title>PizzagnaComponent&#45;&gt;NuiPizzagnaModule</title>
<path fill="none" stroke="black" d="M131.62,-84.91C131.62,-104.14 131.62,-131.8 131.62,-131.8 131.62,-131.8 181.37,-131.8 181.37,-131.8"/>
<polygon fill="black" stroke="black" points="181.38,-135.3 191.37,-131.8 181.37,-128.3 181.38,-135.3"/>
</g>
<!-- ComponentPortalDirective  -->
<g id="node5" class="node">
<title>ComponentPortalDirective </title>
<polygon fill="#fb8072" stroke="black" points="431.35,-214.8 260.65,-214.8 260.65,-178.8 431.35,-178.8 431.35,-214.8"/>
<text text-anchor="middle" x="346" y="-192.6" font-family="Times,serif" font-size="14.00">ComponentPortalDirective </text>
</g>
<!-- NuiPizzagnaModule&#45;&gt;ComponentPortalDirective  -->
<g id="edge4" class="edge">
<title>NuiPizzagnaModule&#45;&gt;ComponentPortalDirective </title>
<path fill="none" stroke="black" stroke-dasharray="5,2" d="M291.68,-149.91C291.68,-149.91 291.68,-168.79 291.68,-168.79"/>
<polygon fill="black" stroke="black" points="288.18,-168.79 291.68,-178.79 295.18,-168.79 288.18,-168.79"/>
</g>
<!-- PizzagnaComponent  -->
<g id="node6" class="node">
<title>PizzagnaComponent </title>
<polygon fill="#fb8072" stroke="black" points="242.86,-214.8 107.14,-214.8 107.14,-178.8 242.86,-178.8 242.86,-214.8"/>
<text text-anchor="middle" x="175" y="-192.6" font-family="Times,serif" font-size="14.00">PizzagnaComponent </text>
</g>
<!-- NuiPizzagnaModule&#45;&gt;PizzagnaComponent  -->
<g id="edge5" class="edge">
<title>NuiPizzagnaModule&#45;&gt;PizzagnaComponent </title>
<path fill="none" stroke="black" stroke-dasharray="5,2" d="M217.07,-149.91C217.07,-149.91 217.07,-168.79 217.07,-168.79"/>
<polygon fill="black" stroke="black" points="213.57,-168.79 217.07,-178.79 220.57,-168.79 213.57,-168.79"/>
</g>
<!-- NuiDashboardsCommonModule -->
<g id="node4" class="node">
<title>NuiDashboardsCommonModule</title>
<polygon fill="#8dd3c7" stroke="black" points="562.25,-84.8 559.25,-88.8 538.25,-88.8 535.25,-84.8 363.75,-84.8 363.75,-48.8 562.25,-48.8 562.25,-84.8"/>
<text text-anchor="middle" x="463" y="-62.6" font-family="Times,serif" font-size="14.00">NuiDashboardsCommonModule</text>
</g>
<!-- NuiDashboardsCommonModule&#45;&gt;NuiPizzagnaModule -->
<g id="edge3" class="edge">
<title>NuiDashboardsCommonModule&#45;&gt;NuiPizzagnaModule</title>
<path fill="none" stroke="black" d="M397.4,-84.91C397.4,-104.14 397.4,-131.8 397.4,-131.8 397.4,-131.8 332.68,-131.8 332.68,-131.8"/>
<polygon fill="black" stroke="black" points="332.68,-128.3 322.68,-131.8 332.68,-135.3 332.68,-128.3"/>
</g>
</g>
</svg>
