<?xml version="1.0" encoding="UTF-8" standalone="no"?>
<!DOCTYPE svg PUBLIC "-//W3C//DTD SVG 1.1//EN"
 "http://www.w3.org/Graphics/SVG/1.1/DTD/svg11.dtd">
<!-- Generated by graphviz version 2.44.1 (20200629.0846)
 -->
<!-- Title: dependencies Pages: 1 -->
<svg width="504pt" height="284pt"
 viewBox="0.00 0.00 504.00 284.00" xmlns="http://www.w3.org/2000/svg" xmlns:xlink="http://www.w3.org/1999/xlink">
<g id="graph0" class="graph" transform="scale(1 1) rotate(0) translate(4 280)">
<title>dependencies</title>
<polygon fill="white" stroke="transparent" points="-4,4 -4,-280 500,-280 500,4 -4,4"/>
<text text-anchor="start" x="227.01" y="-42.4" font-family="sans-serif" font-weight="bold" font-size="14.00">Legend</text>
<polygon fill="#ffffb3" stroke="transparent" points="14,-10 14,-30 34,-30 34,-10 14,-10"/>
<text text-anchor="start" x="37.63" y="-15.4" font-family="sans-serif" font-size="14.00"> &#160;Declarations</text>
<polygon fill="#8dd3c7" stroke="transparent" points="127,-10 127,-30 147,-30 147,-10 127,-10"/>
<text text-anchor="start" x="150.73" y="-15.4" font-family="sans-serif" font-size="14.00"> &#160;Module</text>
<polygon fill="#80b1d3" stroke="transparent" points="213,-10 213,-30 233,-30 233,-10 213,-10"/>
<text text-anchor="start" x="236.78" y="-15.4" font-family="sans-serif" font-size="14.00"> &#160;Bootstrap</text>
<polygon fill="#fdb462" stroke="transparent" points="310,-10 310,-30 330,-30 330,-10 310,-10"/>
<text text-anchor="start" x="333.67" y="-15.4" font-family="sans-serif" font-size="14.00"> &#160;Providers</text>
<polygon fill="#fb8072" stroke="transparent" points="406,-10 406,-30 426,-30 426,-10 406,-10"/>
<text text-anchor="start" x="429.73" y="-15.4" font-family="sans-serif" font-size="14.00"> &#160;Exports</text>
<g id="clust1" class="cluster">
<title>cluster_NuiDashboardsCommonModule</title>
<polygon fill="none" stroke="black" stroke-dasharray="1,5" points="57,-70 57,-268 439,-268 439,-70 57,-70"/>
</g>
<g id="clust6" class="cluster">
<title>cluster_NuiDashboardsCommonModule_exports</title>
<polygon fill="none" stroke="black" points="65,-208 65,-260 431,-260 431,-208 65,-208"/>
</g>
<g id="clust2" class="cluster">
<title>cluster_NuiDashboardsCommonModule_declarations</title>
<polygon fill="none" stroke="black" points="69,-78 69,-130 427,-130 427,-78 69,-78"/>
</g>
<!-- PreviewOverlayComponent -->
<g id="node1" class="node">
<title>PreviewOverlayComponent</title>
<polygon fill="#ffffb3" stroke="black" points="419.29,-122 246.71,-122 246.71,-86 419.29,-86 419.29,-122"/>
<text text-anchor="middle" x="333" y="-99.8" font-family="Times,serif" font-size="14.00">PreviewOverlayComponent</text>
</g>
<!-- NuiDashboardsCommonModule -->
<g id="node3" class="node">
<title>NuiDashboardsCommonModule</title>
<polygon fill="#8dd3c7" stroke="black" points="345.25,-187 342.25,-191 321.25,-191 318.25,-187 146.75,-187 146.75,-151 345.25,-151 345.25,-187"/>
<text text-anchor="middle" x="246" y="-164.8" font-family="Times,serif" font-size="14.00">NuiDashboardsCommonModule</text>
</g>
<!-- PreviewOverlayComponent&#45;&gt;NuiDashboardsCommonModule -->
<g id="edge1" class="edge">
<title>PreviewOverlayComponent&#45;&gt;NuiDashboardsCommonModule</title>
<path fill="none" stroke="black" d="M296.12,-122.11C296.12,-122.11 296.12,-140.99 296.12,-140.99"/>
<polygon fill="black" stroke="black" points="292.62,-140.99 296.12,-150.99 299.62,-140.99 292.62,-140.99"/>
</g>
<!-- WidgetErrorComponent -->
<g id="node2" class="node">
<title>WidgetErrorComponent</title>
<polygon fill="#ffffb3" stroke="black" points="229.08,-122 76.92,-122 76.92,-86 229.08,-86 229.08,-122"/>
<text text-anchor="middle" x="153" y="-99.8" font-family="Times,serif" font-size="14.00">WidgetErrorComponent</text>
</g>
<!-- WidgetErrorComponent&#45;&gt;NuiDashboardsCommonModule -->
<g id="edge2" class="edge">
<title>WidgetErrorComponent&#45;&gt;NuiDashboardsCommonModule</title>
<path fill="none" stroke="black" d="M187.83,-122.11C187.83,-122.11 187.83,-140.99 187.83,-140.99"/>
<polygon fill="black" stroke="black" points="184.33,-140.99 187.83,-150.99 191.33,-140.99 184.33,-140.99"/>
</g>
<!-- PreviewOverlayComponent  -->
<g id="node4" class="node">
<title>PreviewOverlayComponent </title>
<polygon fill="#fb8072" stroke="black" points="422.79,-252 247.21,-252 247.21,-216 422.79,-216 422.79,-252"/>
<text text-anchor="middle" x="335" y="-229.8" font-family="Times,serif" font-size="14.00">PreviewOverlayComponent </text>
</g>
<!-- NuiDashboardsCommonModule&#45;&gt;PreviewOverlayComponent  -->
<g id="edge3" class="edge">
<title>NuiDashboardsCommonModule&#45;&gt;PreviewOverlayComponent </title>
<path fill="none" stroke="black" stroke-dasharray="5,2" d="M296.24,-187.11C296.24,-187.11 296.24,-205.99 296.24,-205.99"/>
<polygon fill="black" stroke="black" points="292.74,-205.99 296.24,-215.99 299.74,-205.99 292.74,-205.99"/>
</g>
<!-- WidgetErrorComponent  -->
<g id="node5" class="node">
<title>WidgetErrorComponent </title>
<polygon fill="#fb8072" stroke="black" points="228.58,-252 73.42,-252 73.42,-216 228.58,-216 228.58,-252"/>
<text text-anchor="middle" x="151" y="-229.8" font-family="Times,serif" font-size="14.00">WidgetErrorComponent </text>
</g>
<!-- NuiDashboardsCommonModule&#45;&gt;WidgetErrorComponent  -->
<g id="edge4" class="edge">
<title>NuiDashboardsCommonModule&#45;&gt;WidgetErrorComponent </title>
<path fill="none" stroke="black" stroke-dasharray="5,2" d="M187.71,-187.11C187.71,-187.11 187.71,-205.99 187.71,-205.99"/>
<polygon fill="black" stroke="black" points="184.21,-205.99 187.71,-215.99 191.21,-205.99 184.21,-205.99"/>
</g>
</g>
</svg>
