<?xml version="1.0" encoding="UTF-8" standalone="no"?>
<!DOCTYPE svg PUBLIC "-//W3C//DTD SVG 1.1//EN"
 "http://www.w3.org/Graphics/SVG/1.1/DTD/svg11.dtd">
<!-- Generated by graphviz version 2.46.0 (20210119.1425)
 -->
<!-- Title: dependencies Pages: 1 -->
<svg width="4200pt" height="284pt"
 viewBox="0.00 0.00 4200.00 284.00" xmlns="http://www.w3.org/2000/svg" xmlns:xlink="http://www.w3.org/1999/xlink">
<g id="graph0" class="graph" transform="scale(1 1) rotate(0) translate(4 280)">
<title>dependencies</title>
<polygon fill="white" stroke="transparent" points="-4,4 -4,-280 4196,-280 4196,4 -4,4"/>
<text text-anchor="start" x="2075.01" y="-42.4" font-family="sans-serif" font-weight="bold" font-size="14.00">Legend</text>
<polygon fill="#ffffb3" stroke="transparent" points="1862,-10 1862,-30 1882,-30 1882,-10 1862,-10"/>
<text text-anchor="start" x="1885.63" y="-15.4" font-family="sans-serif" font-size="14.00"> &#160;Declarations</text>
<polygon fill="#8dd3c7" stroke="transparent" points="1975,-10 1975,-30 1995,-30 1995,-10 1975,-10"/>
<text text-anchor="start" x="1998.73" y="-15.4" font-family="sans-serif" font-size="14.00"> &#160;Module</text>
<polygon fill="#80b1d3" stroke="transparent" points="2061,-10 2061,-30 2081,-30 2081,-10 2061,-10"/>
<text text-anchor="start" x="2084.78" y="-15.4" font-family="sans-serif" font-size="14.00"> &#160;Bootstrap</text>
<polygon fill="#fdb462" stroke="transparent" points="2158,-10 2158,-30 2178,-30 2178,-10 2158,-10"/>
<text text-anchor="start" x="2181.67" y="-15.4" font-family="sans-serif" font-size="14.00"> &#160;Providers</text>
<polygon fill="#fb8072" stroke="transparent" points="2254,-10 2254,-30 2274,-30 2274,-10 2254,-10"/>
<text text-anchor="start" x="2277.73" y="-15.4" font-family="sans-serif" font-size="14.00"> &#160;Exports</text>
<g id="clust1" class="cluster">
<title>cluster_NuiDashboardConfiguratorModule</title>
<polygon fill="none" stroke="black" stroke-dasharray="1,5" points="8,-70 8,-268 4184,-268 4184,-70 8,-70"/>
</g>
<g id="clust14" class="cluster">
<title>cluster_NuiDashboardConfiguratorModule_imports</title>
<polygon fill="none" stroke="black" points="3812,-78 3812,-130 4176,-130 4176,-78 3812,-78"/>
</g>
<g id="clust15" class="cluster">
<title>cluster_NuiDashboardConfiguratorModule_exports</title>
<polygon fill="none" stroke="black" points="768,-208 768,-260 2841,-260 2841,-208 768,-208"/>
</g>
<g id="clust17" class="cluster">
<title>cluster_NuiDashboardConfiguratorModule_providers</title>
<polygon fill="none" stroke="black" points="2059,-78 2059,-130 3804,-130 3804,-78 2059,-78"/>
</g>
<g id="clust2" class="cluster">
<title>cluster_NuiDashboardConfiguratorModule_declarations</title>
<polygon fill="none" stroke="black" points="16,-78 16,-130 2051,-130 2051,-78 16,-78"/>
</g>
<!-- AddDataPipe -->
<g id="node1" class="node">
<title>AddDataPipe</title>
<polygon fill="#ffffb3" stroke="black" points="2042.92,-122 1951.08,-122 1951.08,-86 2042.92,-86 2042.92,-122"/>
<text text-anchor="middle" x="1997" y="-99.8" font-family="Times,serif" font-size="14.00">AddDataPipe</text>
</g>
<!-- NuiDashboardConfiguratorModule -->
<g id="node12" class="node">
<title>NuiDashboardConfiguratorModule</title>
<polygon fill="#8dd3c7" stroke="black" points="2034.5,-187 2031.5,-191 2010.5,-191 2007.5,-187 1821.5,-187 1821.5,-151 2034.5,-151 2034.5,-187"/>
<text text-anchor="middle" x="1928" y="-164.8" font-family="Times,serif" font-size="14.00">NuiDashboardConfiguratorModule</text>
</g>
<!-- AddDataPipe&#45;&gt;NuiDashboardConfiguratorModule -->
<g id="edge1" class="edge">
<title>AddDataPipe&#45;&gt;NuiDashboardConfiguratorModule</title>
<path fill="none" stroke="black" d="M1993.02,-122.11C1993.02,-122.11 1993.02,-140.99 1993.02,-140.99"/>
<polygon fill="black" stroke="black" points="1989.52,-140.99 1993.02,-150.99 1996.52,-140.99 1989.52,-140.99"/>
</g>
<!-- ColorPickerComponent -->
<g id="node2" class="node">
<title>ColorPickerComponent</title>
<polygon fill="#ffffb3" stroke="black" points="1933.48,-122 1784.52,-122 1784.52,-86 1933.48,-86 1933.48,-122"/>
<text text-anchor="middle" x="1859" y="-99.8" font-family="Times,serif" font-size="14.00">ColorPickerComponent</text>
</g>
<!-- ColorPickerComponent&#45;&gt;NuiDashboardConfiguratorModule -->
<g id="edge2" class="edge">
<title>ColorPickerComponent&#45;&gt;NuiDashboardConfiguratorModule</title>
<path fill="none" stroke="black" d="M1877.37,-122.11C1877.37,-122.11 1877.37,-140.99 1877.37,-140.99"/>
<polygon fill="black" stroke="black" points="1873.87,-140.99 1877.37,-150.99 1880.87,-140.99 1873.87,-140.99"/>
</g>
<!-- ConfiguratorHeadingComponent -->
<g id="node3" class="node">
<title>ConfiguratorHeadingComponent</title>
<polygon fill="#ffffb3" stroke="black" points="1766.57,-122 1565.43,-122 1565.43,-86 1766.57,-86 1766.57,-122"/>
<text text-anchor="middle" x="1666" y="-99.8" font-family="Times,serif" font-size="14.00">ConfiguratorHeadingComponent</text>
</g>
<!-- ConfiguratorHeadingComponent&#45;&gt;NuiDashboardConfiguratorModule -->
<g id="edge3" class="edge">
<title>ConfiguratorHeadingComponent&#45;&gt;NuiDashboardConfiguratorModule</title>
<path fill="none" stroke="black" d="M1720.54,-122.05C1720.54,-136.37 1720.54,-154 1720.54,-154 1720.54,-154 1811.23,-154 1811.23,-154"/>
<polygon fill="black" stroke="black" points="1811.23,-157.5 1821.23,-154 1811.23,-150.5 1811.23,-157.5"/>
</g>
<!-- DashwizComponent -->
<g id="node4" class="node">
<title>DashwizComponent</title>
<polygon fill="#ffffb3" stroke="black" points="1547.31,-122 1416.69,-122 1416.69,-86 1547.31,-86 1547.31,-122"/>
<text text-anchor="middle" x="1482" y="-99.8" font-family="Times,serif" font-size="14.00">DashwizComponent</text>
</g>
<!-- DashwizComponent&#45;&gt;NuiDashboardConfiguratorModule -->
<g id="edge4" class="edge">
<title>DashwizComponent&#45;&gt;NuiDashboardConfiguratorModule</title>
<path fill="none" stroke="black" d="M1540.54,-122.24C1540.54,-137.57 1540.54,-157 1540.54,-157 1540.54,-157 1811.36,-157 1811.36,-157"/>
<polygon fill="black" stroke="black" points="1811.36,-160.5 1821.36,-157 1811.36,-153.5 1811.36,-160.5"/>
</g>
<!-- DashwizStepComponent -->
<g id="node5" class="node">
<title>DashwizStepComponent</title>
<polygon fill="#ffffb3" stroke="black" points="1398.7,-122 1243.3,-122 1243.3,-86 1398.7,-86 1398.7,-122"/>
<text text-anchor="middle" x="1321" y="-99.8" font-family="Times,serif" font-size="14.00">DashwizStepComponent</text>
</g>
<!-- DashwizStepComponent&#45;&gt;NuiDashboardConfiguratorModule -->
<g id="edge5" class="edge">
<title>DashwizStepComponent&#45;&gt;NuiDashboardConfiguratorModule</title>
<path fill="none" stroke="black" d="M1344.22,-122.01C1344.22,-138.05 1344.22,-159 1344.22,-159 1344.22,-159 1811.26,-159 1811.26,-159"/>
<polygon fill="black" stroke="black" points="1811.26,-162.5 1821.26,-159 1811.26,-155.5 1811.26,-162.5"/>
</g>
<!-- DropAreaComponent -->
<g id="node6" class="node">
<title>DropAreaComponent</title>
<polygon fill="#ffffb3" stroke="black" points="1225.8,-122 1088.2,-122 1088.2,-86 1225.8,-86 1225.8,-122"/>
<text text-anchor="middle" x="1157" y="-99.8" font-family="Times,serif" font-size="14.00">DropAreaComponent</text>
</g>
<!-- DropAreaComponent&#45;&gt;NuiDashboardConfiguratorModule -->
<g id="edge6" class="edge">
<title>DropAreaComponent&#45;&gt;NuiDashboardConfiguratorModule</title>
<path fill="none" stroke="black" d="M1157,-122.03C1157,-139.06 1157,-162 1157,-162 1157,-162 1811.2,-162 1811.2,-162"/>
<polygon fill="black" stroke="black" points="1811.2,-165.5 1821.2,-162 1811.2,-158.5 1811.2,-165.5"/>
</g>
<!-- FormHeaderIconPipePipe -->
<g id="node7" class="node">
<title>FormHeaderIconPipePipe</title>
<polygon fill="#ffffb3" stroke="black" points="1070.9,-122 909.1,-122 909.1,-86 1070.9,-86 1070.9,-122"/>
<text text-anchor="middle" x="990" y="-99.8" font-family="Times,serif" font-size="14.00">FormHeaderIconPipePipe</text>
</g>
<!-- FormHeaderIconPipePipe&#45;&gt;NuiDashboardConfiguratorModule -->
<g id="edge7" class="edge">
<title>FormHeaderIconPipePipe&#45;&gt;NuiDashboardConfiguratorModule</title>
<path fill="none" stroke="black" d="M1051.27,-122C1051.27,-139.68 1051.27,-164 1051.27,-164 1051.27,-164 1811.37,-164 1811.37,-164"/>
<polygon fill="black" stroke="black" points="1811.37,-167.5 1821.37,-164 1811.37,-160.5 1811.37,-167.5"/>
</g>
<!-- PizzagnaRootPipe -->
<g id="node8" class="node">
<title>PizzagnaRootPipe</title>
<polygon fill="#ffffb3" stroke="black" points="891.15,-122 772.85,-122 772.85,-86 891.15,-86 891.15,-122"/>
<text text-anchor="middle" x="832" y="-99.8" font-family="Times,serif" font-size="14.00">PizzagnaRootPipe</text>
</g>
<!-- PizzagnaRootPipe&#45;&gt;NuiDashboardConfiguratorModule -->
<g id="edge8" class="edge">
<title>PizzagnaRootPipe&#45;&gt;NuiDashboardConfiguratorModule</title>
<path fill="none" stroke="black" d="M833.66,-122.22C833.66,-140.83 833.66,-167 833.66,-167 833.66,-167 1811.08,-167 1811.08,-167"/>
<polygon fill="black" stroke="black" points="1811.08,-170.5 1821.08,-167 1811.08,-163.5 1811.08,-170.5"/>
</g>
<!-- RefreshRateConfiguratorComponent -->
<g id="node9" class="node">
<title>RefreshRateConfiguratorComponent</title>
<polygon fill="#ffffb3" stroke="black" points="754.33,-122 531.67,-122 531.67,-86 754.33,-86 754.33,-122"/>
<text text-anchor="middle" x="643" y="-99.8" font-family="Times,serif" font-size="14.00">RefreshRateConfiguratorComponent</text>
</g>
<!-- RefreshRateConfiguratorComponent&#45;&gt;NuiDashboardConfiguratorModule -->
<g id="edge9" class="edge">
<title>RefreshRateConfiguratorComponent&#45;&gt;NuiDashboardConfiguratorModule</title>
<path fill="none" stroke="black" d="M643,-122.11C643,-141.34 643,-169 643,-169 643,-169 1811.48,-169 1811.48,-169"/>
<polygon fill="black" stroke="black" points="1811.48,-172.5 1821.48,-169 1811.48,-165.5 1811.48,-172.5"/>
</g>
<!-- WidgetConfiguratorSectionHeaderPipe -->
<g id="node10" class="node">
<title>WidgetConfiguratorSectionHeaderPipe</title>
<polygon fill="#ffffb3" stroke="black" points="513.32,-122 276.68,-122 276.68,-86 513.32,-86 513.32,-122"/>
<text text-anchor="middle" x="395" y="-99.8" font-family="Times,serif" font-size="14.00">WidgetConfiguratorSectionHeaderPipe</text>
</g>
<!-- WidgetConfiguratorSectionHeaderPipe&#45;&gt;NuiDashboardConfiguratorModule -->
<g id="edge10" class="edge">
<title>WidgetConfiguratorSectionHeaderPipe&#45;&gt;NuiDashboardConfiguratorModule</title>
<path fill="none" stroke="black" d="M395,-122.22C395,-142.37 395,-172 395,-172 395,-172 1811.42,-172 1811.42,-172"/>
<polygon fill="black" stroke="black" points="1811.42,-175.5 1821.42,-172 1811.42,-168.5 1811.42,-175.5"/>
</g>
<!-- WidgetEditorAccordionFormStatePipe -->
<g id="node11" class="node">
<title>WidgetEditorAccordionFormStatePipe</title>
<polygon fill="#ffffb3" stroke="black" points="258.01,-122 23.99,-122 23.99,-86 258.01,-86 258.01,-122"/>
<text text-anchor="middle" x="141" y="-99.8" font-family="Times,serif" font-size="14.00">WidgetEditorAccordionFormStatePipe</text>
</g>
<!-- WidgetEditorAccordionFormStatePipe&#45;&gt;NuiDashboardConfiguratorModule -->
<g id="edge11" class="edge">
<title>WidgetEditorAccordionFormStatePipe&#45;&gt;NuiDashboardConfiguratorModule</title>
<path fill="none" stroke="black" d="M141,-122.28C141,-143.32 141,-175 141,-175 141,-175 1811.24,-175 1811.24,-175"/>
<polygon fill="black" stroke="black" points="1811.24,-178.5 1821.24,-175 1811.24,-171.5 1811.24,-178.5"/>
</g>
<!-- AddDataPipe  -->
<g id="node15" class="node">
<title>AddDataPipe </title>
<polygon fill="#fb8072" stroke="black" points="2833.42,-252 2738.58,-252 2738.58,-216 2833.42,-216 2833.42,-252"/>
<text text-anchor="middle" x="2786" y="-229.8" font-family="Times,serif" font-size="14.00">AddDataPipe </text>
</g>
<!-- NuiDashboardConfiguratorModule&#45;&gt;AddDataPipe  -->
<g id="edge14" class="edge">
<title>NuiDashboardConfiguratorModule&#45;&gt;AddDataPipe </title>
<path fill="none" stroke="black" stroke-dasharray="5,2" d="M2034.93,-177C2264.93,-177 2786,-177 2786,-177 2786,-177 2786,-205.96 2786,-205.96"/>
<polygon fill="black" stroke="black" points="2782.5,-205.96 2786,-215.96 2789.5,-205.96 2782.5,-205.96"/>
</g>
<!-- ColorPickerComponent  -->
<g id="node16" class="node">
<title>ColorPickerComponent </title>
<polygon fill="#fb8072" stroke="black" points="2720.48,-252 2567.52,-252 2567.52,-216 2720.48,-216 2720.48,-252"/>
<text text-anchor="middle" x="2644" y="-229.8" font-family="Times,serif" font-size="14.00">ColorPickerComponent </text>
</g>
<!-- NuiDashboardConfiguratorModule&#45;&gt;ColorPickerComponent  -->
<g id="edge15" class="edge">
<title>NuiDashboardConfiguratorModule&#45;&gt;ColorPickerComponent </title>
<path fill="none" stroke="black" stroke-dasharray="5,2" d="M2034.63,-180C2227.12,-180 2612.84,-180 2612.84,-180 2612.84,-180 2612.84,-205.72 2612.84,-205.72"/>
<polygon fill="black" stroke="black" points="2609.34,-205.72 2612.84,-215.72 2616.34,-205.72 2609.34,-205.72"/>
</g>
<!-- ConfiguratorHeadingComponent  -->
<g id="node17" class="node">
<title>ConfiguratorHeadingComponent </title>
<polygon fill="#fb8072" stroke="black" points="2549.07,-252 2344.93,-252 2344.93,-216 2549.07,-216 2549.07,-252"/>
<text text-anchor="middle" x="2447" y="-229.8" font-family="Times,serif" font-size="14.00">ConfiguratorHeadingComponent </text>
</g>
<!-- NuiDashboardConfiguratorModule&#45;&gt;ConfiguratorHeadingComponent  -->
<g id="edge16" class="edge">
<title>NuiDashboardConfiguratorModule&#45;&gt;ConfiguratorHeadingComponent </title>
<path fill="none" stroke="black" stroke-dasharray="5,2" d="M2034.59,-182C2186.48,-182 2447,-182 2447,-182 2447,-182 2447,-205.81 2447,-205.81"/>
<polygon fill="black" stroke="black" points="2443.5,-205.81 2447,-215.81 2450.5,-205.81 2443.5,-205.81"/>
</g>
<!-- DashwizComponent  -->
<g id="node18" class="node">
<title>DashwizComponent </title>
<polygon fill="#fb8072" stroke="black" points="2326.81,-252 2193.19,-252 2193.19,-216 2326.81,-216 2326.81,-252"/>
<text text-anchor="middle" x="2260" y="-229.8" font-family="Times,serif" font-size="14.00">DashwizComponent </text>
</g>
<!-- NuiDashboardConfiguratorModule&#45;&gt;DashwizComponent  -->
<g id="edge17" class="edge">
<title>NuiDashboardConfiguratorModule&#45;&gt;DashwizComponent </title>
<path fill="none" stroke="black" stroke-dasharray="5,2" d="M2034.86,-185C2119.23,-185 2222.83,-185 2222.83,-185 2222.83,-185 2222.83,-205.75 2222.83,-205.75"/>
<polygon fill="black" stroke="black" points="2219.33,-205.75 2222.83,-215.75 2226.33,-205.75 2219.33,-205.75"/>
</g>
<!-- DashwizStepComponent  -->
<g id="node19" class="node">
<title>DashwizStepComponent </title>
<polygon fill="#fb8072" stroke="black" points="2175.2,-252 2016.8,-252 2016.8,-216 2175.2,-216 2175.2,-252"/>
<text text-anchor="middle" x="2096" y="-229.8" font-family="Times,serif" font-size="14.00">DashwizStepComponent </text>
</g>
<!-- NuiDashboardConfiguratorModule&#45;&gt;DashwizStepComponent  -->
<g id="edge18" class="edge">
<title>NuiDashboardConfiguratorModule&#45;&gt;DashwizStepComponent </title>
<path fill="none" stroke="black" stroke-dasharray="5,2" d="M2025.7,-187.11C2025.7,-187.11 2025.7,-205.99 2025.7,-205.99"/>
<polygon fill="black" stroke="black" points="2022.2,-205.99 2025.7,-215.99 2029.2,-205.99 2022.2,-205.99"/>
</g>
<!-- DropAreaComponent  -->
<g id="node20" class="node">
<title>DropAreaComponent </title>
<polygon fill="#fb8072" stroke="black" points="1998.3,-252 1857.7,-252 1857.7,-216 1998.3,-216 1998.3,-252"/>
<text text-anchor="middle" x="1928" y="-229.8" font-family="Times,serif" font-size="14.00">DropAreaComponent </text>
</g>
<!-- NuiDashboardConfiguratorModule&#45;&gt;DropAreaComponent  -->
<g id="edge19" class="edge">
<title>NuiDashboardConfiguratorModule&#45;&gt;DropAreaComponent </title>
<path fill="none" stroke="black" stroke-dasharray="5,2" d="M1928,-187.11C1928,-187.11 1928,-205.99 1928,-205.99"/>
<polygon fill="black" stroke="black" points="1924.5,-205.99 1928,-215.99 1931.5,-205.99 1924.5,-205.99"/>
</g>
<!-- FormHeaderIconPipePipe  -->
<g id="node21" class="node">
<title>FormHeaderIconPipePipe </title>
<polygon fill="#fb8072" stroke="black" points="1839.4,-252 1674.6,-252 1674.6,-216 1839.4,-216 1839.4,-252"/>
<text text-anchor="middle" x="1757" y="-229.8" font-family="Times,serif" font-size="14.00">FormHeaderIconPipePipe </text>
</g>
<!-- NuiDashboardConfiguratorModule&#45;&gt;FormHeaderIconPipePipe  -->
<g id="edge20" class="edge">
<title>NuiDashboardConfiguratorModule&#45;&gt;FormHeaderIconPipePipe </title>
<path fill="none" stroke="black" stroke-dasharray="5,2" d="M1830.35,-187.11C1830.35,-187.11 1830.35,-205.99 1830.35,-205.99"/>
<polygon fill="black" stroke="black" points="1826.85,-205.99 1830.35,-215.99 1833.85,-205.99 1826.85,-205.99"/>
</g>
<!-- PizzagnaRootPipe  -->
<g id="node22" class="node">
<title>PizzagnaRootPipe </title>
<polygon fill="#fb8072" stroke="black" points="1656.15,-252 1533.85,-252 1533.85,-216 1656.15,-216 1656.15,-252"/>
<text text-anchor="middle" x="1595" y="-229.8" font-family="Times,serif" font-size="14.00">PizzagnaRootPipe </text>
</g>
<!-- NuiDashboardConfiguratorModule&#45;&gt;PizzagnaRootPipe  -->
<g id="edge21" class="edge">
<title>NuiDashboardConfiguratorModule&#45;&gt;PizzagnaRootPipe </title>
<path fill="none" stroke="black" stroke-dasharray="5,2" d="M1821.48,-185C1729.32,-185 1610.77,-185 1610.77,-185 1610.77,-185 1610.77,-205.75 1610.77,-205.75"/>
<polygon fill="black" stroke="black" points="1607.27,-205.75 1610.77,-215.75 1614.27,-205.75 1607.27,-205.75"/>
</g>
<!-- RefreshRateConfiguratorComponent  -->
<g id="node23" class="node">
<title>RefreshRateConfiguratorComponent </title>
<polygon fill="#fb8072" stroke="black" points="1516.33,-252 1289.67,-252 1289.67,-216 1516.33,-216 1516.33,-252"/>
<text text-anchor="middle" x="1403" y="-229.8" font-family="Times,serif" font-size="14.00">RefreshRateConfiguratorComponent </text>
</g>
<!-- NuiDashboardConfiguratorModule&#45;&gt;RefreshRateConfiguratorComponent  -->
<g id="edge22" class="edge">
<title>NuiDashboardConfiguratorModule&#45;&gt;RefreshRateConfiguratorComponent </title>
<path fill="none" stroke="black" stroke-dasharray="5,2" d="M1821.25,-182C1684.94,-182 1466.51,-182 1466.51,-182 1466.51,-182 1466.51,-205.81 1466.51,-205.81"/>
<polygon fill="black" stroke="black" points="1463.01,-205.81 1466.51,-215.81 1470.01,-205.81 1463.01,-205.81"/>
</g>
<!-- WidgetConfiguratorSectionHeaderPipe  -->
<g id="node24" class="node">
<title>WidgetConfiguratorSectionHeaderPipe </title>
<polygon fill="#fb8072" stroke="black" points="1272.32,-252 1031.68,-252 1031.68,-216 1272.32,-216 1272.32,-252"/>
<text text-anchor="middle" x="1152" y="-229.8" font-family="Times,serif" font-size="14.00">WidgetConfiguratorSectionHeaderPipe </text>
</g>
<!-- NuiDashboardConfiguratorModule&#45;&gt;WidgetConfiguratorSectionHeaderPipe  -->
<g id="edge23" class="edge">
<title>NuiDashboardConfiguratorModule&#45;&gt;WidgetConfiguratorSectionHeaderPipe </title>
<path fill="none" stroke="black" stroke-dasharray="5,2" d="M1821.43,-180C1632.33,-180 1257.78,-180 1257.78,-180 1257.78,-180 1257.78,-205.72 1257.78,-205.72"/>
<polygon fill="black" stroke="black" points="1254.28,-205.72 1257.78,-215.72 1261.28,-205.72 1254.28,-205.72"/>
</g>
<!-- WidgetEditorAccordionFormStatePipe  -->
<g id="node25" class="node">
<title>WidgetEditorAccordionFormStatePipe </title>
<polygon fill="#fb8072" stroke="black" points="1014.01,-252 775.99,-252 775.99,-216 1014.01,-216 1014.01,-252"/>
<text text-anchor="middle" x="895" y="-229.8" font-family="Times,serif" font-size="14.00">WidgetEditorAccordionFormStatePipe </text>
</g>
<!-- NuiDashboardConfiguratorModule&#45;&gt;WidgetEditorAccordionFormStatePipe  -->
<g id="edge24" class="edge">
<title>NuiDashboardConfiguratorModule&#45;&gt;WidgetEditorAccordionFormStatePipe </title>
<path fill="none" stroke="black" stroke-dasharray="5,2" d="M1821.36,-177C1570.04,-177 961.65,-177 961.65,-177 961.65,-177 961.65,-205.96 961.65,-205.96"/>
<polygon fill="black" stroke="black" points="958.15,-205.96 961.65,-215.96 965.15,-205.96 958.15,-205.96"/>
</g>
<!-- NuiDashboardsCommonModule -->
<g id="node13" class="node">
<title>NuiDashboardsCommonModule</title>
<polygon fill="#8dd3c7" stroke="black" points="4168.25,-122 4165.25,-126 4144.25,-126 4141.25,-122 3969.75,-122 3969.75,-86 4168.25,-86 4168.25,-122"/>
<text text-anchor="middle" x="4069" y="-99.8" font-family="Times,serif" font-size="14.00">NuiDashboardsCommonModule</text>
</g>
<!-- NuiDashboardsCommonModule&#45;&gt;NuiDashboardConfiguratorModule -->
<g id="edge12" class="edge">
<title>NuiDashboardsCommonModule&#45;&gt;NuiDashboardConfiguratorModule</title>
<path fill="none" stroke="black" d="M4069,-122.28C4069,-143.32 4069,-175 4069,-175 4069,-175 2044.54,-175 2044.54,-175"/>
<polygon fill="black" stroke="black" points="2044.54,-171.5 2034.54,-175 2044.54,-178.5 2044.54,-171.5"/>
</g>
<!-- NuiPizzagnaModule -->
<g id="node14" class="node">
<title>NuiPizzagnaModule</title>
<polygon fill="#8dd3c7" stroke="black" points="3951.58,-122 3948.58,-126 3927.58,-126 3924.58,-122 3820.42,-122 3820.42,-86 3951.58,-86 3951.58,-122"/>
<text text-anchor="middle" x="3886" y="-99.8" font-family="Times,serif" font-size="14.00">NuiPizzagnaModule</text>
</g>
<!-- NuiPizzagnaModule&#45;&gt;NuiDashboardConfiguratorModule -->
<g id="edge13" class="edge">
<title>NuiPizzagnaModule&#45;&gt;NuiDashboardConfiguratorModule</title>
<path fill="none" stroke="black" d="M3886,-122.22C3886,-142.37 3886,-172 3886,-172 3886,-172 2044.66,-172 2044.66,-172"/>
<polygon fill="black" stroke="black" points="2044.66,-168.5 2034.66,-172 2044.66,-175.5 2044.66,-168.5"/>
</g>
<!-- ConfiguratorService -->
<g id="node26" class="node">
<title>ConfiguratorService</title>
<ellipse fill="#fdb462" stroke="black" cx="3706" cy="-104" rx="89.75" ry="18"/>
<text text-anchor="middle" x="3706" y="-99.8" font-family="Times,serif" font-size="14.00">ConfiguratorService</text>
</g>
<!-- ConfiguratorService&#45;&gt;NuiDashboardConfiguratorModule -->
<g id="edge25" class="edge">
<title>ConfiguratorService&#45;&gt;NuiDashboardConfiguratorModule</title>
<path fill="none" stroke="black" d="M3706,-122.11C3706,-141.34 3706,-169 3706,-169 3706,-169 2044.56,-169 2044.56,-169"/>
<polygon fill="black" stroke="black" points="2044.56,-165.5 2034.56,-169 2044.56,-172.5 2044.56,-165.5"/>
</g>
<!-- KpiWidgetColorService -->
<g id="node27" class="node">
<title>KpiWidgetColorService</title>
<ellipse fill="#fdb462" stroke="black" cx="3493" cy="-104" rx="104.79" ry="18"/>
<text text-anchor="middle" x="3493" y="-99.8" font-family="Times,serif" font-size="14.00">KpiWidgetColorService</text>
</g>
<!-- KpiWidgetColorService&#45;&gt;NuiDashboardConfiguratorModule -->
<g id="edge26" class="edge">
<title>KpiWidgetColorService&#45;&gt;NuiDashboardConfiguratorModule</title>
<path fill="none" stroke="black" d="M3493,-122.22C3493,-140.83 3493,-167 3493,-167 3493,-167 2044.65,-167 2044.65,-167"/>
<polygon fill="black" stroke="black" points="2044.65,-163.5 2034.65,-167 2044.65,-170.5 2044.65,-163.5"/>
</g>
<!-- TimeseriesChartPresetService -->
<g id="node28" class="node">
<title>TimeseriesChartPresetService</title>
<ellipse fill="#fdb462" stroke="black" cx="3243" cy="-104" rx="127.31" ry="18"/>
<text text-anchor="middle" x="3243" y="-99.8" font-family="Times,serif" font-size="14.00">TimeseriesChartPresetService</text>
</g>
<!-- TimeseriesChartPresetService&#45;&gt;NuiDashboardConfiguratorModule -->
<g id="edge27" class="edge">
<title>TimeseriesChartPresetService&#45;&gt;NuiDashboardConfiguratorModule</title>
<path fill="none" stroke="black" d="M3243,-122C3243,-139.68 3243,-164 3243,-164 3243,-164 2044.78,-164 2044.78,-164"/>
<polygon fill="black" stroke="black" points="2044.78,-160.5 2034.78,-164 2044.78,-167.5 2044.78,-160.5"/>
</g>
<!-- TimeseriesScalesService -->
<g id="node29" class="node">
<title>TimeseriesScalesService</title>
<ellipse fill="#fdb462" stroke="black" cx="2991" cy="-104" rx="107.05" ry="18"/>
<text text-anchor="middle" x="2991" y="-99.8" font-family="Times,serif" font-size="14.00">TimeseriesScalesService</text>
</g>
<!-- TimeseriesScalesService&#45;&gt;NuiDashboardConfiguratorModule -->
<g id="edge28" class="edge">
<title>TimeseriesScalesService&#45;&gt;NuiDashboardConfiguratorModule</title>
<path fill="none" stroke="black" d="M2991,-122.03C2991,-139.06 2991,-162 2991,-162 2991,-162 2044.79,-162 2044.79,-162"/>
<polygon fill="black" stroke="black" points="2044.79,-158.5 2034.79,-162 2044.79,-165.5 2044.79,-158.5"/>
</g>
<!-- WidgetClonerService -->
<g id="node30" class="node">
<title>WidgetClonerService</title>
<ellipse fill="#fdb462" stroke="black" cx="2771" cy="-104" rx="94.9" ry="18"/>
<text text-anchor="middle" x="2771" y="-99.8" font-family="Times,serif" font-size="14.00">WidgetClonerService</text>
</g>
<!-- WidgetClonerService&#45;&gt;NuiDashboardConfiguratorModule -->
<g id="edge29" class="edge">
<title>WidgetClonerService&#45;&gt;NuiDashboardConfiguratorModule</title>
<path fill="none" stroke="black" d="M2698.27,-115.66C2698.27,-131.81 2698.27,-159 2698.27,-159 2698.27,-159 2044.7,-159 2044.7,-159"/>
<polygon fill="black" stroke="black" points="2044.7,-155.5 2034.7,-159 2044.7,-162.5 2044.7,-155.5"/>
</g>
<!-- WidgetConfiguratorSectionCoordinatorService -->
<g id="node31" class="node">
<title>WidgetConfiguratorSectionCoordinatorService</title>
<ellipse fill="#fdb462" stroke="black" cx="2464" cy="-104" rx="193.86" ry="18"/>
<text text-anchor="middle" x="2464" y="-99.8" font-family="Times,serif" font-size="14.00">WidgetConfiguratorSectionCoordinatorService</text>
</g>
<!-- WidgetConfiguratorSectionCoordinatorService&#45;&gt;NuiDashboardConfiguratorModule -->
<g id="edge30" class="edge">
<title>WidgetConfiguratorSectionCoordinatorService&#45;&gt;NuiDashboardConfiguratorModule</title>
<path fill="none" stroke="black" d="M2298.49,-113.72C2298.49,-129.02 2298.49,-157 2298.49,-157 2298.49,-157 2044.66,-157 2044.66,-157"/>
<polygon fill="black" stroke="black" points="2044.66,-153.5 2034.66,-157 2044.66,-160.5 2044.66,-153.5"/>
</g>
<!-- WidgetEditorService -->
<g id="node32" class="node">
<title>WidgetEditorService</title>
<ellipse fill="#fdb462" stroke="black" cx="2160" cy="-104" rx="92.61" ry="18"/>
<text text-anchor="middle" x="2160" y="-99.8" font-family="Times,serif" font-size="14.00">WidgetEditorService</text>
</g>
<!-- WidgetEditorService&#45;&gt;NuiDashboardConfiguratorModule -->
<g id="edge31" class="edge">
<title>WidgetEditorService&#45;&gt;NuiDashboardConfiguratorModule</title>
<path fill="none" stroke="black" d="M2121.4,-120.37C2121.4,-134.95 2121.4,-154 2121.4,-154 2121.4,-154 2044.6,-154 2044.6,-154"/>
<polygon fill="black" stroke="black" points="2044.6,-150.5 2034.6,-154 2044.6,-157.5 2044.6,-150.5"/>
</g>
</g>
</svg>
