<?xml version="1.0" encoding="UTF-8" standalone="no"?>
<!DOCTYPE svg PUBLIC "-//W3C//DTD SVG 1.1//EN"
 "http://www.w3.org/Graphics/SVG/1.1/DTD/svg11.dtd">
<!-- Generated by graphviz version 2.47.3 (20210619.1520)
 -->
<!-- Title: dependencies Pages: 1 -->
<svg width="4463pt" height="247pt"
 viewBox="0.00 0.00 4463.00 246.80" xmlns="http://www.w3.org/2000/svg" xmlns:xlink="http://www.w3.org/1999/xlink">
<g id="graph0" class="graph" transform="scale(1 1) rotate(0) translate(4 242.8)">
<title>dependencies</title>
<polygon fill="white" stroke="transparent" points="-4,4 -4,-242.8 4459,-242.8 4459,4 -4,4"/>
<text text-anchor="middle" x="2227.5" y="-8.2" font-family="sans-serif" font-size="14.00">dependencies</text>
<g id="clust1" class="cluster">
<title>cluster_NuiDashboardConfiguratorModule</title>
<polygon fill="none" stroke="black" stroke-dasharray="1,5" points="8,-32.8 8,-230.8 4447,-230.8 4447,-32.8 8,-32.8"/>
</g>
<g id="clust17" class="cluster">
<title>cluster_NuiDashboardConfiguratorModule_providers</title>
<polygon fill="none" stroke="black" points="2431,-40.8 2431,-92.8 4439,-92.8 4439,-40.8 2431,-40.8"/>
</g>
<g id="clust15" class="cluster">
<title>cluster_NuiDashboardConfiguratorModule_exports</title>
<polygon fill="none" stroke="black" points="878,-170.8 878,-222.8 2951,-222.8 2951,-170.8 878,-170.8"/>
</g>
<g id="clust2" class="cluster">
<title>cluster_NuiDashboardConfiguratorModule_declarations</title>
<polygon fill="none" stroke="black" points="388,-40.8 388,-92.8 2423,-92.8 2423,-40.8 388,-40.8"/>
</g>
<g id="clust14" class="cluster">
<title>cluster_NuiDashboardConfiguratorModule_imports</title>
<polygon fill="none" stroke="black" points="16,-40.8 16,-92.8 380,-92.8 380,-40.8 16,-40.8"/>
</g>
<!-- AddDataPipe -->
<g id="node1" class="node">
<title>AddDataPipe</title>
<polygon fill="#ffffb3" stroke="black" points="2414.92,-84.8 2323.08,-84.8 2323.08,-48.8 2414.92,-48.8 2414.92,-84.8"/>
<text text-anchor="middle" x="2369" y="-62.6" font-family="Times,serif" font-size="14.00">AddDataPipe</text>
</g>
<!-- NuiDashboardConfiguratorModule -->
<g id="node12" class="node">
<title>NuiDashboardConfiguratorModule</title>
<polygon fill="#8dd3c7" stroke="black" points="2144.5,-149.8 2141.5,-153.8 2120.5,-153.8 2117.5,-149.8 1931.5,-149.8 1931.5,-113.8 2144.5,-113.8 2144.5,-149.8"/>
<text text-anchor="middle" x="2038" y="-127.6" font-family="Times,serif" font-size="14.00">NuiDashboardConfiguratorModule</text>
</g>
<!-- AddDataPipe&#45;&gt;NuiDashboardConfiguratorModule -->
<g id="edge1" class="edge">
<title>AddDataPipe&#45;&gt;NuiDashboardConfiguratorModule</title>
<path fill="none" stroke="black" d="M2369,-84.99C2369,-99.98 2369,-118.8 2369,-118.8 2369,-118.8 2154.55,-118.8 2154.55,-118.8"/>
<polygon fill="black" stroke="black" points="2154.55,-115.3 2144.55,-118.8 2154.55,-122.3 2154.55,-115.3"/>
</g>
<!-- ColorPickerComponent -->
<g id="node2" class="node">
<title>ColorPickerComponent</title>
<polygon fill="#ffffb3" stroke="black" points="2305.48,-84.8 2156.52,-84.8 2156.52,-48.8 2305.48,-48.8 2305.48,-84.8"/>
<text text-anchor="middle" x="2231" y="-62.6" font-family="Times,serif" font-size="14.00">ColorPickerComponent</text>
</g>
<!-- ColorPickerComponent&#45;&gt;NuiDashboardConfiguratorModule -->
<g id="edge2" class="edge">
<title>ColorPickerComponent&#45;&gt;NuiDashboardConfiguratorModule</title>
<path fill="none" stroke="black" d="M2220.93,-84.85C2220.93,-99.17 2220.93,-116.8 2220.93,-116.8 2220.93,-116.8 2154.68,-116.8 2154.68,-116.8"/>
<polygon fill="black" stroke="black" points="2154.68,-113.3 2144.68,-116.8 2154.68,-120.3 2154.68,-113.3"/>
</g>
<!-- ConfiguratorHeadingComponent -->
<g id="node3" class="node">
<title>ConfiguratorHeadingComponent</title>
<polygon fill="#ffffb3" stroke="black" points="2138.57,-84.8 1937.43,-84.8 1937.43,-48.8 2138.57,-48.8 2138.57,-84.8"/>
<text text-anchor="middle" x="2038" y="-62.6" font-family="Times,serif" font-size="14.00">ConfiguratorHeadingComponent</text>
</g>
<!-- ConfiguratorHeadingComponent&#45;&gt;NuiDashboardConfiguratorModule -->
<g id="edge3" class="edge">
<title>ConfiguratorHeadingComponent&#45;&gt;NuiDashboardConfiguratorModule</title>
<path fill="none" stroke="black" d="M2038,-84.91C2038,-84.91 2038,-103.79 2038,-103.79"/>
<polygon fill="black" stroke="black" points="2034.5,-103.79 2038,-113.79 2041.5,-103.79 2034.5,-103.79"/>
</g>
<!-- DashwizComponent -->
<g id="node4" class="node">
<title>DashwizComponent</title>
<polygon fill="#ffffb3" stroke="black" points="1919.31,-84.8 1788.69,-84.8 1788.69,-48.8 1919.31,-48.8 1919.31,-84.8"/>
<text text-anchor="middle" x="1854" y="-62.6" font-family="Times,serif" font-size="14.00">DashwizComponent</text>
</g>
<!-- DashwizComponent&#45;&gt;NuiDashboardConfiguratorModule -->
<g id="edge4" class="edge">
<title>DashwizComponent&#45;&gt;NuiDashboardConfiguratorModule</title>
<path fill="none" stroke="black" d="M1854,-84.85C1854,-99.17 1854,-116.8 1854,-116.8 1854,-116.8 1921.23,-116.8 1921.23,-116.8"/>
<polygon fill="black" stroke="black" points="1921.23,-120.3 1931.23,-116.8 1921.23,-113.3 1921.23,-120.3"/>
</g>
<!-- DashwizStepComponent -->
<g id="node5" class="node">
<title>DashwizStepComponent</title>
<polygon fill="#ffffb3" stroke="black" points="1770.7,-84.8 1615.3,-84.8 1615.3,-48.8 1770.7,-48.8 1770.7,-84.8"/>
<text text-anchor="middle" x="1693" y="-62.6" font-family="Times,serif" font-size="14.00">DashwizStepComponent</text>
</g>
<!-- DashwizStepComponent&#45;&gt;NuiDashboardConfiguratorModule -->
<g id="edge5" class="edge">
<title>DashwizStepComponent&#45;&gt;NuiDashboardConfiguratorModule</title>
<path fill="none" stroke="black" d="M1684.64,-84.99C1684.64,-99.98 1684.64,-118.8 1684.64,-118.8 1684.64,-118.8 1921.02,-118.8 1921.02,-118.8"/>
<polygon fill="black" stroke="black" points="1921.02,-122.3 1931.02,-118.8 1921.02,-115.3 1921.02,-122.3"/>
</g>
<!-- DropAreaComponent -->
<g id="node6" class="node">
<title>DropAreaComponent</title>
<polygon fill="#ffffb3" stroke="black" points="1597.8,-84.8 1460.2,-84.8 1460.2,-48.8 1597.8,-48.8 1597.8,-84.8"/>
<text text-anchor="middle" x="1529" y="-62.6" font-family="Times,serif" font-size="14.00">DropAreaComponent</text>
</g>
<!-- DropAreaComponent&#45;&gt;NuiDashboardConfiguratorModule -->
<g id="edge6" class="edge">
<title>DropAreaComponent&#45;&gt;NuiDashboardConfiguratorModule</title>
<path fill="none" stroke="black" d="M1529,-84.81C1529,-100.85 1529,-121.8 1529,-121.8 1529,-121.8 1921.3,-121.8 1921.3,-121.8"/>
<polygon fill="black" stroke="black" points="1921.3,-125.3 1931.3,-121.8 1921.3,-118.3 1921.3,-125.3"/>
</g>
<!-- FormHeaderIconPipePipe -->
<g id="node7" class="node">
<title>FormHeaderIconPipePipe</title>
<polygon fill="#ffffb3" stroke="black" points="1442.9,-84.8 1281.1,-84.8 1281.1,-48.8 1442.9,-48.8 1442.9,-84.8"/>
<text text-anchor="middle" x="1362" y="-62.6" font-family="Times,serif" font-size="14.00">FormHeaderIconPipePipe</text>
</g>
<!-- FormHeaderIconPipePipe&#45;&gt;NuiDashboardConfiguratorModule -->
<g id="edge7" class="edge">
<title>FormHeaderIconPipePipe&#45;&gt;NuiDashboardConfiguratorModule</title>
<path fill="none" stroke="black" d="M1421.27,-84.84C1421.27,-101.53 1421.27,-123.8 1421.27,-123.8 1421.27,-123.8 1921.28,-123.8 1921.28,-123.8"/>
<polygon fill="black" stroke="black" points="1921.28,-127.3 1931.28,-123.8 1921.28,-120.3 1921.28,-127.3"/>
</g>
<!-- PizzagnaRootPipe -->
<g id="node8" class="node">
<title>PizzagnaRootPipe</title>
<polygon fill="#ffffb3" stroke="black" points="1263.15,-84.8 1144.85,-84.8 1144.85,-48.8 1263.15,-48.8 1263.15,-84.8"/>
<text text-anchor="middle" x="1204" y="-62.6" font-family="Times,serif" font-size="14.00">PizzagnaRootPipe</text>
</g>
<!-- PizzagnaRootPipe&#45;&gt;NuiDashboardConfiguratorModule -->
<g id="edge8" class="edge">
<title>PizzagnaRootPipe&#45;&gt;NuiDashboardConfiguratorModule</title>
<path fill="none" stroke="black" d="M1204,-84.82C1204,-102.17 1204,-125.8 1204,-125.8 1204,-125.8 1921.1,-125.8 1921.1,-125.8"/>
<polygon fill="black" stroke="black" points="1921.1,-129.3 1931.1,-125.8 1921.1,-122.3 1921.1,-129.3"/>
</g>
<!-- RefreshRateConfiguratorComponent -->
<g id="node9" class="node">
<title>RefreshRateConfiguratorComponent</title>
<polygon fill="#ffffb3" stroke="black" points="1126.33,-84.8 903.67,-84.8 903.67,-48.8 1126.33,-48.8 1126.33,-84.8"/>
<text text-anchor="middle" x="1015" y="-62.6" font-family="Times,serif" font-size="14.00">RefreshRateConfiguratorComponent</text>
</g>
<!-- RefreshRateConfiguratorComponent&#45;&gt;NuiDashboardConfiguratorModule -->
<g id="edge9" class="edge">
<title>RefreshRateConfiguratorComponent&#45;&gt;NuiDashboardConfiguratorModule</title>
<path fill="none" stroke="black" d="M1050.53,-85.07C1050.53,-103.36 1050.53,-128.8 1050.53,-128.8 1050.53,-128.8 1921.39,-128.8 1921.39,-128.8"/>
<polygon fill="black" stroke="black" points="1921.39,-132.3 1931.39,-128.8 1921.39,-125.3 1921.39,-132.3"/>
</g>
<!-- WidgetConfiguratorSectionHeaderPipe -->
<g id="node10" class="node">
<title>WidgetConfiguratorSectionHeaderPipe</title>
<polygon fill="#ffffb3" stroke="black" points="885.32,-84.8 648.68,-84.8 648.68,-48.8 885.32,-48.8 885.32,-84.8"/>
<text text-anchor="middle" x="767" y="-62.6" font-family="Times,serif" font-size="14.00">WidgetConfiguratorSectionHeaderPipe</text>
</g>
<!-- WidgetConfiguratorSectionHeaderPipe&#45;&gt;NuiDashboardConfiguratorModule -->
<g id="edge10" class="edge">
<title>WidgetConfiguratorSectionHeaderPipe&#45;&gt;NuiDashboardConfiguratorModule</title>
<path fill="none" stroke="black" d="M767,-84.97C767,-103.89 767,-130.8 767,-130.8 767,-130.8 1921.28,-130.8 1921.28,-130.8"/>
<polygon fill="black" stroke="black" points="1921.28,-134.3 1931.28,-130.8 1921.28,-127.3 1921.28,-134.3"/>
</g>
<!-- WidgetEditorAccordionFormStatePipe -->
<g id="node11" class="node">
<title>WidgetEditorAccordionFormStatePipe</title>
<polygon fill="#ffffb3" stroke="black" points="630.01,-84.8 395.99,-84.8 395.99,-48.8 630.01,-48.8 630.01,-84.8"/>
<text text-anchor="middle" x="513" y="-62.6" font-family="Times,serif" font-size="14.00">WidgetEditorAccordionFormStatePipe</text>
</g>
<!-- WidgetEditorAccordionFormStatePipe&#45;&gt;NuiDashboardConfiguratorModule -->
<g id="edge11" class="edge">
<title>WidgetEditorAccordionFormStatePipe&#45;&gt;NuiDashboardConfiguratorModule</title>
<path fill="none" stroke="black" d="M513,-85.11C513,-104.95 513,-133.8 513,-133.8 513,-133.8 1921.37,-133.8 1921.37,-133.8"/>
<polygon fill="black" stroke="black" points="1921.37,-137.3 1931.37,-133.8 1921.37,-130.3 1921.37,-137.3"/>
</g>
<!-- AddDataPipe  -->
<g id="node15" class="node">
<title>AddDataPipe </title>
<polygon fill="#fb8072" stroke="black" points="2943.42,-214.8 2848.58,-214.8 2848.58,-178.8 2943.42,-178.8 2943.42,-214.8"/>
<text text-anchor="middle" x="2896" y="-192.6" font-family="Times,serif" font-size="14.00">AddDataPipe </text>
</g>
<!-- NuiDashboardConfiguratorModule&#45;&gt;AddDataPipe  -->
<g id="edge14" class="edge">
<title>NuiDashboardConfiguratorModule&#45;&gt;AddDataPipe </title>
<path fill="none" stroke="black" stroke-dasharray="5,2" d="M2144.93,-140.8C2374.93,-140.8 2896,-140.8 2896,-140.8 2896,-140.8 2896,-168.77 2896,-168.77"/>
<polygon fill="black" stroke="black" points="2892.5,-168.77 2896,-178.77 2899.5,-168.77 2892.5,-168.77"/>
</g>
<!-- ColorPickerComponent  -->
<g id="node16" class="node">
<title>ColorPickerComponent </title>
<polygon fill="#fb8072" stroke="black" points="2830.48,-214.8 2677.52,-214.8 2677.52,-178.8 2830.48,-178.8 2830.48,-214.8"/>
<text text-anchor="middle" x="2754" y="-192.6" font-family="Times,serif" font-size="14.00">ColorPickerComponent </text>
</g>
<!-- NuiDashboardConfiguratorModule&#45;&gt;ColorPickerComponent  -->
<g id="edge15" class="edge">
<title>NuiDashboardConfiguratorModule&#45;&gt;ColorPickerComponent </title>
<path fill="none" stroke="black" stroke-dasharray="5,2" d="M2144.81,-142.8C2344.4,-142.8 2754,-142.8 2754,-142.8 2754,-142.8 2754,-168.52 2754,-168.52"/>
<polygon fill="black" stroke="black" points="2750.5,-168.52 2754,-178.52 2757.5,-168.52 2750.5,-168.52"/>
</g>
<!-- ConfiguratorHeadingComponent  -->
<g id="node17" class="node">
<title>ConfiguratorHeadingComponent </title>
<polygon fill="#fb8072" stroke="black" points="2659.07,-214.8 2454.93,-214.8 2454.93,-178.8 2659.07,-178.8 2659.07,-214.8"/>
<text text-anchor="middle" x="2557" y="-192.6" font-family="Times,serif" font-size="14.00">ConfiguratorHeadingComponent </text>
</g>
<!-- NuiDashboardConfiguratorModule&#45;&gt;ConfiguratorHeadingComponent  -->
<g id="edge16" class="edge">
<title>NuiDashboardConfiguratorModule&#45;&gt;ConfiguratorHeadingComponent </title>
<path fill="none" stroke="black" stroke-dasharray="5,2" d="M2144.69,-145.8C2291.98,-145.8 2539.64,-145.8 2539.64,-145.8 2539.64,-145.8 2539.64,-168.68 2539.64,-168.68"/>
<polygon fill="black" stroke="black" points="2536.14,-168.68 2539.64,-178.68 2543.14,-168.68 2536.14,-168.68"/>
</g>
<!-- DashwizComponent  -->
<g id="node18" class="node">
<title>DashwizComponent </title>
<polygon fill="#fb8072" stroke="black" points="2436.81,-214.8 2303.19,-214.8 2303.19,-178.8 2436.81,-178.8 2436.81,-214.8"/>
<text text-anchor="middle" x="2370" y="-192.6" font-family="Times,serif" font-size="14.00">DashwizComponent </text>
</g>
<!-- NuiDashboardConfiguratorModule&#45;&gt;DashwizComponent  -->
<g id="edge17" class="edge">
<title>NuiDashboardConfiguratorModule&#45;&gt;DashwizComponent </title>
<path fill="none" stroke="black" stroke-dasharray="5,2" d="M2144.86,-147.8C2222.64,-147.8 2314.39,-147.8 2314.39,-147.8 2314.39,-147.8 2314.39,-168.55 2314.39,-168.55"/>
<polygon fill="black" stroke="black" points="2310.89,-168.55 2314.39,-178.55 2317.89,-168.55 2310.89,-168.55"/>
</g>
<!-- DashwizStepComponent  -->
<g id="node19" class="node">
<title>DashwizStepComponent </title>
<polygon fill="#fb8072" stroke="black" points="2285.2,-214.8 2126.8,-214.8 2126.8,-178.8 2285.2,-178.8 2285.2,-214.8"/>
<text text-anchor="middle" x="2206" y="-192.6" font-family="Times,serif" font-size="14.00">DashwizStepComponent </text>
</g>
<!-- NuiDashboardConfiguratorModule&#45;&gt;DashwizStepComponent  -->
<g id="edge18" class="edge">
<title>NuiDashboardConfiguratorModule&#45;&gt;DashwizStepComponent </title>
<path fill="none" stroke="black" stroke-dasharray="5,2" d="M2135.7,-149.91C2135.7,-149.91 2135.7,-168.79 2135.7,-168.79"/>
<polygon fill="black" stroke="black" points="2132.2,-168.79 2135.7,-178.79 2139.2,-168.79 2132.2,-168.79"/>
</g>
<!-- DropAreaComponent  -->
<g id="node20" class="node">
<title>DropAreaComponent </title>
<polygon fill="#fb8072" stroke="black" points="2108.3,-214.8 1967.7,-214.8 1967.7,-178.8 2108.3,-178.8 2108.3,-214.8"/>
<text text-anchor="middle" x="2038" y="-192.6" font-family="Times,serif" font-size="14.00">DropAreaComponent </text>
</g>
<!-- NuiDashboardConfiguratorModule&#45;&gt;DropAreaComponent  -->
<g id="edge19" class="edge">
<title>NuiDashboardConfiguratorModule&#45;&gt;DropAreaComponent </title>
<path fill="none" stroke="black" stroke-dasharray="5,2" d="M2038,-149.91C2038,-149.91 2038,-168.79 2038,-168.79"/>
<polygon fill="black" stroke="black" points="2034.5,-168.79 2038,-178.79 2041.5,-168.79 2034.5,-168.79"/>
</g>
<!-- FormHeaderIconPipePipe  -->
<g id="node21" class="node">
<title>FormHeaderIconPipePipe </title>
<polygon fill="#fb8072" stroke="black" points="1949.4,-214.8 1784.6,-214.8 1784.6,-178.8 1949.4,-178.8 1949.4,-214.8"/>
<text text-anchor="middle" x="1867" y="-192.6" font-family="Times,serif" font-size="14.00">FormHeaderIconPipePipe </text>
</g>
<!-- NuiDashboardConfiguratorModule&#45;&gt;FormHeaderIconPipePipe  -->
<g id="edge20" class="edge">
<title>NuiDashboardConfiguratorModule&#45;&gt;FormHeaderIconPipePipe </title>
<path fill="none" stroke="black" stroke-dasharray="5,2" d="M1940.35,-149.91C1940.35,-149.91 1940.35,-168.79 1940.35,-168.79"/>
<polygon fill="black" stroke="black" points="1936.85,-168.79 1940.35,-178.79 1943.85,-168.79 1936.85,-168.79"/>
</g>
<!-- PizzagnaRootPipe  -->
<g id="node22" class="node">
<title>PizzagnaRootPipe </title>
<polygon fill="#fb8072" stroke="black" points="1766.15,-214.8 1643.85,-214.8 1643.85,-178.8 1766.15,-178.8 1766.15,-214.8"/>
<text text-anchor="middle" x="1705" y="-192.6" font-family="Times,serif" font-size="14.00">PizzagnaRootPipe </text>
</g>
<!-- NuiDashboardConfiguratorModule&#45;&gt;PizzagnaRootPipe  -->
<g id="edge21" class="edge">
<title>NuiDashboardConfiguratorModule&#45;&gt;PizzagnaRootPipe </title>
<path fill="none" stroke="black" stroke-dasharray="5,2" d="M1931.28,-147.8C1840.71,-147.8 1725.36,-147.8 1725.36,-147.8 1725.36,-147.8 1725.36,-168.55 1725.36,-168.55"/>
<polygon fill="black" stroke="black" points="1721.86,-168.55 1725.36,-178.55 1728.86,-168.55 1721.86,-168.55"/>
</g>
<!-- RefreshRateConfiguratorComponent  -->
<g id="node23" class="node">
<title>RefreshRateConfiguratorComponent </title>
<polygon fill="#fb8072" stroke="black" points="1626.33,-214.8 1399.67,-214.8 1399.67,-178.8 1626.33,-178.8 1626.33,-214.8"/>
<text text-anchor="middle" x="1513" y="-192.6" font-family="Times,serif" font-size="14.00">RefreshRateConfiguratorComponent </text>
</g>
<!-- NuiDashboardConfiguratorModule&#45;&gt;RefreshRateConfiguratorComponent  -->
<g id="edge22" class="edge">
<title>NuiDashboardConfiguratorModule&#45;&gt;RefreshRateConfiguratorComponent </title>
<path fill="none" stroke="black" stroke-dasharray="5,2" d="M1931.37,-145.8C1807.76,-145.8 1620.78,-145.8 1620.78,-145.8 1620.78,-145.8 1620.78,-168.68 1620.78,-168.68"/>
<polygon fill="black" stroke="black" points="1617.28,-168.68 1620.78,-178.68 1624.28,-168.68 1617.28,-168.68"/>
</g>
<!-- WidgetConfiguratorSectionHeaderPipe  -->
<g id="node24" class="node">
<title>WidgetConfiguratorSectionHeaderPipe </title>
<polygon fill="#fb8072" stroke="black" points="1382.32,-214.8 1141.68,-214.8 1141.68,-178.8 1382.32,-178.8 1382.32,-214.8"/>
<text text-anchor="middle" x="1262" y="-192.6" font-family="Times,serif" font-size="14.00">WidgetConfiguratorSectionHeaderPipe </text>
</g>
<!-- NuiDashboardConfiguratorModule&#45;&gt;WidgetConfiguratorSectionHeaderPipe  -->
<g id="edge23" class="edge">
<title>NuiDashboardConfiguratorModule&#45;&gt;WidgetConfiguratorSectionHeaderPipe </title>
<path fill="none" stroke="black" stroke-dasharray="5,2" d="M1931.12,-142.8C1733.68,-142.8 1331.73,-142.8 1331.73,-142.8 1331.73,-142.8 1331.73,-168.52 1331.73,-168.52"/>
<polygon fill="black" stroke="black" points="1328.23,-168.52 1331.73,-178.52 1335.23,-168.52 1328.23,-168.52"/>
</g>
<!-- WidgetEditorAccordionFormStatePipe  -->
<g id="node25" class="node">
<title>WidgetEditorAccordionFormStatePipe </title>
<polygon fill="#fb8072" stroke="black" points="1124.01,-214.8 885.99,-214.8 885.99,-178.8 1124.01,-178.8 1124.01,-214.8"/>
<text text-anchor="middle" x="1005" y="-192.6" font-family="Times,serif" font-size="14.00">WidgetEditorAccordionFormStatePipe </text>
</g>
<!-- NuiDashboardConfiguratorModule&#45;&gt;WidgetEditorAccordionFormStatePipe  -->
<g id="edge24" class="edge">
<title>NuiDashboardConfiguratorModule&#45;&gt;WidgetEditorAccordionFormStatePipe </title>
<path fill="none" stroke="black" stroke-dasharray="5,2" d="M1931.42,-140.8C1662.37,-140.8 977.06,-140.8 977.06,-140.8 977.06,-140.8 977.06,-168.77 977.06,-168.77"/>
<polygon fill="black" stroke="black" points="973.56,-168.77 977.06,-178.77 980.56,-168.77 973.56,-168.77"/>
</g>
<!-- NuiDashboardsCommonModule -->
<g id="node13" class="node">
<title>NuiDashboardsCommonModule</title>
<polygon fill="#8dd3c7" stroke="black" points="372.25,-84.8 369.25,-88.8 348.25,-88.8 345.25,-84.8 173.75,-84.8 173.75,-48.8 372.25,-48.8 372.25,-84.8"/>
<text text-anchor="middle" x="273" y="-62.6" font-family="Times,serif" font-size="14.00">NuiDashboardsCommonModule</text>
</g>
<!-- NuiDashboardsCommonModule&#45;&gt;NuiDashboardConfiguratorModule -->
<g id="edge12" class="edge">
<title>NuiDashboardsCommonModule&#45;&gt;NuiDashboardConfiguratorModule</title>
<path fill="none" stroke="black" d="M273,-84.93C273,-105.37 273,-135.8 273,-135.8 273,-135.8 1921.24,-135.8 1921.24,-135.8"/>
<polygon fill="black" stroke="black" points="1921.24,-139.3 1931.24,-135.8 1921.24,-132.3 1921.24,-139.3"/>
</g>
<!-- NuiPizzagnaModule -->
<g id="node14" class="node">
<title>NuiPizzagnaModule</title>
<polygon fill="#8dd3c7" stroke="black" points="155.58,-84.8 152.58,-88.8 131.58,-88.8 128.58,-84.8 24.42,-84.8 24.42,-48.8 155.58,-48.8 155.58,-84.8"/>
<text text-anchor="middle" x="90" y="-62.6" font-family="Times,serif" font-size="14.00">NuiPizzagnaModule</text>
</g>
<!-- NuiPizzagnaModule&#45;&gt;NuiDashboardConfiguratorModule -->
<g id="edge13" class="edge">
<title>NuiPizzagnaModule&#45;&gt;NuiDashboardConfiguratorModule</title>
<path fill="none" stroke="black" d="M90,-85.08C90,-106.12 90,-137.8 90,-137.8 90,-137.8 1921.19,-137.8 1921.19,-137.8"/>
<polygon fill="black" stroke="black" points="1921.19,-141.3 1931.19,-137.8 1921.19,-134.3 1921.19,-141.3"/>
</g>
<!-- ConfiguratorHeadingService -->
<g id="node26" class="node">
<title>ConfiguratorHeadingService</title>
<ellipse fill="#fdb462" stroke="black" cx="4308" cy="-66.8" rx="122.67" ry="18"/>
<text text-anchor="middle" x="4308" y="-62.6" font-family="Times,serif" font-size="14.00">ConfiguratorHeadingService</text>
</g>
<!-- ConfiguratorHeadingService&#45;&gt;NuiDashboardConfiguratorModule -->
<g id="edge25" class="edge">
<title>ConfiguratorHeadingService&#45;&gt;NuiDashboardConfiguratorModule</title>
<path fill="none" stroke="black" d="M4308,-85.08C4308,-106.12 4308,-137.8 4308,-137.8 4308,-137.8 2154.82,-137.8 2154.82,-137.8"/>
<polygon fill="black" stroke="black" points="2154.82,-134.3 2144.82,-137.8 2154.82,-141.3 2154.82,-134.3"/>
</g>
<!-- ConfiguratorService -->
<g id="node27" class="node">
<title>ConfiguratorService</title>
<ellipse fill="#fdb462" stroke="black" cx="4078" cy="-66.8" rx="89.75" ry="18"/>
<text text-anchor="middle" x="4078" y="-62.6" font-family="Times,serif" font-size="14.00">ConfiguratorService</text>
</g>
<!-- ConfiguratorService&#45;&gt;NuiDashboardConfiguratorModule -->
<g id="edge26" class="edge">
<title>ConfiguratorService&#45;&gt;NuiDashboardConfiguratorModule</title>
<path fill="none" stroke="black" d="M4078,-84.93C4078,-105.37 4078,-135.8 4078,-135.8 4078,-135.8 2154.81,-135.8 2154.81,-135.8"/>
<polygon fill="black" stroke="black" points="2154.81,-132.3 2144.81,-135.8 2154.81,-139.3 2154.81,-132.3"/>
</g>
<!-- KpiWidgetColorService -->
<g id="node28" class="node">
<title>KpiWidgetColorService</title>
<ellipse fill="#fdb462" stroke="black" cx="3865" cy="-66.8" rx="104.79" ry="18"/>
<text text-anchor="middle" x="3865" y="-62.6" font-family="Times,serif" font-size="14.00">KpiWidgetColorService</text>
</g>
<!-- KpiWidgetColorService&#45;&gt;NuiDashboardConfiguratorModule -->
<g id="edge27" class="edge">
<title>KpiWidgetColorService&#45;&gt;NuiDashboardConfiguratorModule</title>
<path fill="none" stroke="black" d="M3865,-85.11C3865,-104.95 3865,-133.8 3865,-133.8 3865,-133.8 2154.79,-133.8 2154.79,-133.8"/>
<polygon fill="black" stroke="black" points="2154.79,-130.3 2144.79,-133.8 2154.79,-137.3 2154.79,-130.3"/>
</g>
<!-- TimeseriesChartPresetService -->
<g id="node29" class="node">
<title>TimeseriesChartPresetService</title>
<ellipse fill="#fdb462" stroke="black" cx="3615" cy="-66.8" rx="127.31" ry="18"/>
<text text-anchor="middle" x="3615" y="-62.6" font-family="Times,serif" font-size="14.00">TimeseriesChartPresetService</text>
</g>
<!-- TimeseriesChartPresetService&#45;&gt;NuiDashboardConfiguratorModule -->
<g id="edge28" class="edge">
<title>TimeseriesChartPresetService&#45;&gt;NuiDashboardConfiguratorModule</title>
<path fill="none" stroke="black" d="M3615,-84.97C3615,-103.89 3615,-130.8 3615,-130.8 3615,-130.8 2154.54,-130.8 2154.54,-130.8"/>
<polygon fill="black" stroke="black" points="2154.54,-127.3 2144.54,-130.8 2154.54,-134.3 2154.54,-127.3"/>
</g>
<!-- TimeseriesScalesService -->
<g id="node30" class="node">
<title>TimeseriesScalesService</title>
<ellipse fill="#fdb462" stroke="black" cx="3363" cy="-66.8" rx="107.05" ry="18"/>
<text text-anchor="middle" x="3363" y="-62.6" font-family="Times,serif" font-size="14.00">TimeseriesScalesService</text>
</g>
<!-- TimeseriesScalesService&#45;&gt;NuiDashboardConfiguratorModule -->
<g id="edge29" class="edge">
<title>TimeseriesScalesService&#45;&gt;NuiDashboardConfiguratorModule</title>
<path fill="none" stroke="black" d="M3363,-85.07C3363,-103.36 3363,-128.8 3363,-128.8 3363,-128.8 2154.75,-128.8 2154.75,-128.8"/>
<polygon fill="black" stroke="black" points="2154.75,-125.3 2144.75,-128.8 2154.75,-132.3 2154.75,-125.3"/>
</g>
<!-- WidgetClonerService -->
<g id="node31" class="node">
<title>WidgetClonerService</title>
<ellipse fill="#fdb462" stroke="black" cx="3143" cy="-66.8" rx="94.9" ry="18"/>
<text text-anchor="middle" x="3143" y="-62.6" font-family="Times,serif" font-size="14.00">WidgetClonerService</text>
</g>
<!-- WidgetClonerService&#45;&gt;NuiDashboardConfiguratorModule -->
<g id="edge30" class="edge">
<title>WidgetClonerService&#45;&gt;NuiDashboardConfiguratorModule</title>
<path fill="none" stroke="black" d="M3143,-84.82C3143,-102.17 3143,-125.8 3143,-125.8 3143,-125.8 2154.7,-125.8 2154.7,-125.8"/>
<polygon fill="black" stroke="black" points="2154.7,-122.3 2144.7,-125.8 2154.7,-129.3 2154.7,-122.3"/>
</g>
<!-- WidgetConfiguratorSectionCoordinatorService -->
<g id="node32" class="node">
<title>WidgetConfiguratorSectionCoordinatorService</title>
<ellipse fill="#fdb462" stroke="black" cx="2836" cy="-66.8" rx="193.86" ry="18"/>
<text text-anchor="middle" x="2836" y="-62.6" font-family="Times,serif" font-size="14.00">WidgetConfiguratorSectionCoordinatorService</text>
</g>
<!-- WidgetConfiguratorSectionCoordinatorService&#45;&gt;NuiDashboardConfiguratorModule -->
<g id="edge31" class="edge">
<title>WidgetConfiguratorSectionCoordinatorService&#45;&gt;NuiDashboardConfiguratorModule</title>
<path fill="none" stroke="black" d="M2650.68,-72.47C2650.68,-86.89 2650.68,-123.8 2650.68,-123.8 2650.68,-123.8 2154.72,-123.8 2154.72,-123.8"/>
<polygon fill="black" stroke="black" points="2154.72,-120.3 2144.72,-123.8 2154.72,-127.3 2154.72,-120.3"/>
</g>
<!-- WidgetEditorService -->
<g id="node33" class="node">
<title>WidgetEditorService</title>
<ellipse fill="#fdb462" stroke="black" cx="2532" cy="-66.8" rx="92.61" ry="18"/>
<text text-anchor="middle" x="2532" y="-62.6" font-family="Times,serif" font-size="14.00">WidgetEditorService</text>
</g>
<!-- WidgetEditorService&#45;&gt;NuiDashboardConfiguratorModule -->
<g id="edge32" class="edge">
<title>WidgetEditorService&#45;&gt;NuiDashboardConfiguratorModule</title>
<path fill="none" stroke="black" d="M2447.08,-73.99C2447.08,-88.9 2447.08,-121.8 2447.08,-121.8 2447.08,-121.8 2154.68,-121.8 2154.68,-121.8"/>
<polygon fill="black" stroke="black" points="2154.68,-118.3 2144.68,-121.8 2154.68,-125.3 2154.68,-118.3"/>
</g>
</g>
</svg>
