<?xml version="1.0" encoding="UTF-8" standalone="no"?>
<!DOCTYPE svg PUBLIC "-//W3C//DTD SVG 1.1//EN"
 "http://www.w3.org/Graphics/SVG/1.1/DTD/svg11.dtd">
<!-- Generated by graphviz version 2.46.0 (20210119.1425)
 -->
<!-- Title: dependencies Pages: 1 -->
<svg width="7259pt" height="284pt"
 viewBox="0.00 0.00 7259.00 284.00" xmlns="http://www.w3.org/2000/svg" xmlns:xlink="http://www.w3.org/1999/xlink">
<g id="graph0" class="graph" transform="scale(1 1) rotate(0) translate(4 280)">
<title>dependencies</title>
<polygon fill="white" stroke="transparent" points="-4,4 -4,-280 7255,-280 7255,4 -4,4"/>
<text text-anchor="start" x="3604.51" y="-42.4" font-family="sans-serif" font-weight="bold" font-size="14.00">Legend</text>
<polygon fill="#ffffb3" stroke="transparent" points="3391.5,-10 3391.5,-30 3411.5,-30 3411.5,-10 3391.5,-10"/>
<text text-anchor="start" x="3415.13" y="-15.4" font-family="sans-serif" font-size="14.00"> &#160;Declarations</text>
<polygon fill="#8dd3c7" stroke="transparent" points="3504.5,-10 3504.5,-30 3524.5,-30 3524.5,-10 3504.5,-10"/>
<text text-anchor="start" x="3528.23" y="-15.4" font-family="sans-serif" font-size="14.00"> &#160;Module</text>
<polygon fill="#80b1d3" stroke="transparent" points="3590.5,-10 3590.5,-30 3610.5,-30 3610.5,-10 3590.5,-10"/>
<text text-anchor="start" x="3614.28" y="-15.4" font-family="sans-serif" font-size="14.00"> &#160;Bootstrap</text>
<polygon fill="#fdb462" stroke="transparent" points="3687.5,-10 3687.5,-30 3707.5,-30 3707.5,-10 3687.5,-10"/>
<text text-anchor="start" x="3711.17" y="-15.4" font-family="sans-serif" font-size="14.00"> &#160;Providers</text>
<polygon fill="#fb8072" stroke="transparent" points="3783.5,-10 3783.5,-30 3803.5,-30 3803.5,-10 3783.5,-10"/>
<text text-anchor="start" x="3807.23" y="-15.4" font-family="sans-serif" font-size="14.00"> &#160;Exports</text>
<g id="clust1" class="cluster">
<title>cluster_NuiDashboardConfiguratorModule</title>
<polygon fill="none" stroke="black" stroke-dasharray="1,5" points="8,-70 8,-268 7243,-268 7243,-70 8,-70"/>
</g>
<g id="clust2" class="cluster">
<title>cluster_NuiDashboardConfiguratorModule_declarations</title>
<polygon fill="none" stroke="black" points="2141,-78 2141,-130 7235,-130 7235,-78 2141,-78"/>
</g>
<g id="clust26" class="cluster">
<title>cluster_NuiDashboardConfiguratorModule_imports</title>
<polygon fill="none" stroke="black" points="1769,-78 1769,-130 2133,-130 2133,-78 1769,-78"/>
</g>
<g id="clust27" class="cluster">
<title>cluster_NuiDashboardConfiguratorModule_exports</title>
<polygon fill="none" stroke="black" points="1145,-208 1145,-260 6317,-260 6317,-208 1145,-208"/>
</g>
<g id="clust29" class="cluster">
<title>cluster_NuiDashboardConfiguratorModule_providers</title>
<polygon fill="none" stroke="black" points="16,-78 16,-130 1761,-130 1761,-78 16,-78"/>
</g>
<!-- AddDataPipe -->
<g id="node1" class="node">
<title>AddDataPipe</title>
<polygon fill="#ffffb3" stroke="black" points="7226.92,-122 7135.08,-122 7135.08,-86 7226.92,-86 7226.92,-122"/>
<text text-anchor="middle" x="7181" y="-99.8" font-family="Times,serif" font-size="14.00">AddDataPipe</text>
</g>
<!-- NuiDashboardConfiguratorModule -->
<g id="node24" class="node">
<title>NuiDashboardConfiguratorModule</title>
<polygon fill="#8dd3c7" stroke="black" points="3861.5,-187 3858.5,-191 3837.5,-191 3834.5,-187 3648.5,-187 3648.5,-151 3861.5,-151 3861.5,-187"/>
<text text-anchor="middle" x="3755" y="-164.8" font-family="Times,serif" font-size="14.00">NuiDashboardConfiguratorModule</text>
</g>
<!-- AddDataPipe&#45;&gt;NuiDashboardConfiguratorModule -->
<g id="edge1" class="edge">
<title>AddDataPipe&#45;&gt;NuiDashboardConfiguratorModule</title>
<path fill="none" stroke="black" d="M7181,-122.31C7181,-142.15 7181,-171 7181,-171 7181,-171 3871.76,-171 3871.76,-171"/>
<polygon fill="black" stroke="black" points="3871.76,-167.5 3861.76,-171 3871.76,-174.5 3871.76,-167.5"/>
</g>
<!-- AggregatorMetricSelectorConfigurationComponent -->
<g id="node2" class="node">
<title>AggregatorMetricSelectorConfigurationComponent</title>
<polygon fill="#ffffb3" stroke="black" points="7117.31,-122 6810.69,-122 6810.69,-86 7117.31,-86 7117.31,-122"/>
<text text-anchor="middle" x="6964" y="-99.8" font-family="Times,serif" font-size="14.00">AggregatorMetricSelectorConfigurationComponent</text>
</g>
<!-- AggregatorMetricSelectorConfigurationComponent&#45;&gt;NuiDashboardConfiguratorModule -->
<g id="edge2" class="edge">
<title>AggregatorMetricSelectorConfigurationComponent&#45;&gt;NuiDashboardConfiguratorModule</title>
<path fill="none" stroke="black" d="M6964,-122.03C6964,-141.58 6964,-170 6964,-170 6964,-170 3871.77,-170 3871.77,-170"/>
<polygon fill="black" stroke="black" points="3871.77,-166.5 3861.77,-170 3871.77,-173.5 3871.77,-166.5"/>
</g>
<!-- ColorPickerComponent -->
<g id="node3" class="node">
<title>ColorPickerComponent</title>
<polygon fill="#ffffb3" stroke="black" points="6792.48,-122 6643.52,-122 6643.52,-86 6792.48,-86 6792.48,-122"/>
<text text-anchor="middle" x="6718" y="-99.8" font-family="Times,serif" font-size="14.00">ColorPickerComponent</text>
</g>
<!-- ColorPickerComponent&#45;&gt;NuiDashboardConfiguratorModule -->
<g id="edge3" class="edge">
<title>ColorPickerComponent&#45;&gt;NuiDashboardConfiguratorModule</title>
<path fill="none" stroke="black" d="M6718,-122.11C6718,-141.34 6718,-169 6718,-169 6718,-169 3871.77,-169 3871.77,-169"/>
<polygon fill="black" stroke="black" points="3871.77,-165.5 3861.77,-169 3871.77,-172.5 3871.77,-165.5"/>
</g>
<!-- ConfiguratorHeadingComponent -->
<g id="node4" class="node">
<title>ConfiguratorHeadingComponent</title>
<polygon fill="#ffffb3" stroke="black" points="6625.57,-122 6424.43,-122 6424.43,-86 6625.57,-86 6625.57,-122"/>
<text text-anchor="middle" x="6525" y="-99.8" font-family="Times,serif" font-size="14.00">ConfiguratorHeadingComponent</text>
</g>
<!-- ConfiguratorHeadingComponent&#45;&gt;NuiDashboardConfiguratorModule -->
<g id="edge4" class="edge">
<title>ConfiguratorHeadingComponent&#45;&gt;NuiDashboardConfiguratorModule</title>
<path fill="none" stroke="black" d="M6525,-122.22C6525,-140.83 6525,-167 6525,-167 6525,-167 3871.89,-167 3871.89,-167"/>
<polygon fill="black" stroke="black" points="3871.89,-163.5 3861.89,-167 3871.89,-170.5 3871.89,-163.5"/>
</g>
<!-- DashwizButtonsComponent -->
<g id="node5" class="node">
<title>DashwizButtonsComponent</title>
<polygon fill="#ffffb3" stroke="black" points="6406.87,-122 6233.13,-122 6233.13,-86 6406.87,-86 6406.87,-122"/>
<text text-anchor="middle" x="6320" y="-99.8" font-family="Times,serif" font-size="14.00">DashwizButtonsComponent</text>
</g>
<!-- DashwizButtonsComponent&#45;&gt;NuiDashboardConfiguratorModule -->
<g id="edge5" class="edge">
<title>DashwizButtonsComponent&#45;&gt;NuiDashboardConfiguratorModule</title>
<path fill="none" stroke="black" d="M6271.26,-122.27C6271.26,-140.56 6271.26,-166 6271.26,-166 6271.26,-166 3871.51,-166 3871.51,-166"/>
<polygon fill="black" stroke="black" points="3871.51,-162.5 3861.51,-166 3871.51,-169.5 3871.51,-162.5"/>
</g>
<!-- DashwizComponent -->
<g id="node6" class="node">
<title>DashwizComponent</title>
<polygon fill="#ffffb3" stroke="black" points="6215.31,-122 6084.69,-122 6084.69,-86 6215.31,-86 6215.31,-122"/>
<text text-anchor="middle" x="6150" y="-99.8" font-family="Times,serif" font-size="14.00">DashwizComponent</text>
</g>
<!-- DashwizComponent&#45;&gt;NuiDashboardConfiguratorModule -->
<g id="edge6" class="edge">
<title>DashwizComponent&#45;&gt;NuiDashboardConfiguratorModule</title>
<path fill="none" stroke="black" d="M6140.5,-122.3C6140.5,-140.27 6140.5,-165 6140.5,-165 6140.5,-165 3871.74,-165 3871.74,-165"/>
<polygon fill="black" stroke="black" points="3871.74,-161.5 3861.74,-165 3871.74,-168.5 3871.74,-161.5"/>
</g>
<!-- DashwizStepComponent -->
<g id="node7" class="node">
<title>DashwizStepComponent</title>
<polygon fill="#ffffb3" stroke="black" points="6066.7,-122 5911.3,-122 5911.3,-86 6066.7,-86 6066.7,-122"/>
<text text-anchor="middle" x="5989" y="-99.8" font-family="Times,serif" font-size="14.00">DashwizStepComponent</text>
</g>
<!-- DashwizStepComponent&#45;&gt;NuiDashboardConfiguratorModule -->
<g id="edge7" class="edge">
<title>DashwizStepComponent&#45;&gt;NuiDashboardConfiguratorModule</title>
<path fill="none" stroke="black" d="M5989,-122.02C5989,-139.37 5989,-163 5989,-163 5989,-163 3871.62,-163 3871.62,-163"/>
<polygon fill="black" stroke="black" points="3871.62,-159.5 3861.62,-163 3871.62,-166.5 3871.62,-159.5"/>
</g>
<!-- DataSourceConfigurationComponent -->
<g id="node8" class="node">
<title>DataSourceConfigurationComponent</title>
<polygon fill="#ffffb3" stroke="black" points="5893.68,-122 5668.32,-122 5668.32,-86 5893.68,-86 5893.68,-122"/>
<text text-anchor="middle" x="5781" y="-99.8" font-family="Times,serif" font-size="14.00">DataSourceConfigurationComponent</text>
</g>
<!-- DataSourceConfigurationComponent&#45;&gt;NuiDashboardConfiguratorModule -->
<g id="edge8" class="edge">
<title>DataSourceConfigurationComponent&#45;&gt;NuiDashboardConfiguratorModule</title>
<path fill="none" stroke="black" d="M5682.85,-122.03C5682.85,-139.06 5682.85,-162 5682.85,-162 5682.85,-162 3871.74,-162 3871.74,-162"/>
<polygon fill="black" stroke="black" points="3871.74,-158.5 3861.74,-162 3871.74,-165.5 3871.74,-158.5"/>
</g>
<!-- DataSourceConfigurationV2Component -->
<g id="node9" class="node">
<title>DataSourceConfigurationV2Component</title>
<polygon fill="#ffffb3" stroke="black" points="5650.28,-122 5407.72,-122 5407.72,-86 5650.28,-86 5650.28,-122"/>
<text text-anchor="middle" x="5529" y="-99.8" font-family="Times,serif" font-size="14.00">DataSourceConfigurationV2Component</text>
</g>
<!-- DataSourceConfigurationV2Component&#45;&gt;NuiDashboardConfiguratorModule -->
<g id="edge9" class="edge">
<title>DataSourceConfigurationV2Component&#45;&gt;NuiDashboardConfiguratorModule</title>
<path fill="none" stroke="black" d="M5441.27,-122.04C5441.27,-138.73 5441.27,-161 5441.27,-161 5441.27,-161 3871.76,-161 3871.76,-161"/>
<polygon fill="black" stroke="black" points="3871.76,-157.5 3861.76,-161 3871.76,-164.5 3871.76,-157.5"/>
</g>
<!-- DonutContentConfigurationComponent -->
<g id="node10" class="node">
<title>DonutContentConfigurationComponent</title>
<polygon fill="#ffffb3" stroke="black" points="5389.71,-122 5150.29,-122 5150.29,-86 5389.71,-86 5389.71,-122"/>
<text text-anchor="middle" x="5270" y="-99.8" font-family="Times,serif" font-size="14.00">DonutContentConfigurationComponent</text>
</g>
<!-- DonutContentConfigurationComponent&#45;&gt;NuiDashboardConfiguratorModule -->
<g id="edge10" class="edge">
<title>DonutContentConfigurationComponent&#45;&gt;NuiDashboardConfiguratorModule</title>
<path fill="none" stroke="black" d="M5193.23,-122.01C5193.23,-138.05 5193.23,-159 5193.23,-159 5193.23,-159 3871.63,-159 3871.63,-159"/>
<polygon fill="black" stroke="black" points="3871.63,-155.5 3861.63,-159 3871.63,-162.5 3871.63,-155.5"/>
</g>
<!-- EntityFormattingConfigurationComponent -->
<g id="node11" class="node">
<title>EntityFormattingConfigurationComponent</title>
<polygon fill="#ffffb3" stroke="black" points="5132.32,-122 4875.68,-122 4875.68,-86 5132.32,-86 5132.32,-122"/>
<text text-anchor="middle" x="5004" y="-99.8" font-family="Times,serif" font-size="14.00">EntityFormattingConfigurationComponent</text>
</g>
<!-- EntityFormattingConfigurationComponent&#45;&gt;NuiDashboardConfiguratorModule -->
<g id="edge11" class="edge">
<title>EntityFormattingConfigurationComponent&#45;&gt;NuiDashboardConfiguratorModule</title>
<path fill="none" stroke="black" d="M4913.09,-122.28C4913.09,-137.95 4913.09,-158 4913.09,-158 4913.09,-158 3871.62,-158 3871.62,-158"/>
<polygon fill="black" stroke="black" points="3871.62,-154.5 3861.62,-158 3871.62,-161.5 3871.62,-154.5"/>
</g>
<!-- FieldMapperAggregatorConfiguratorComponent -->
<g id="node12" class="node">
<title>FieldMapperAggregatorConfiguratorComponent</title>
<polygon fill="#ffffb3" stroke="black" points="4857.71,-122 4568.29,-122 4568.29,-86 4857.71,-86 4857.71,-122"/>
<text text-anchor="middle" x="4713" y="-99.8" font-family="Times,serif" font-size="14.00">FieldMapperAggregatorConfiguratorComponent</text>
</g>
<!-- FieldMapperAggregatorConfiguratorComponent&#45;&gt;NuiDashboardConfiguratorModule -->
<g id="edge12" class="edge">
<title>FieldMapperAggregatorConfiguratorComponent&#45;&gt;NuiDashboardConfiguratorModule</title>
<path fill="none" stroke="black" d="M4636.02,-122.24C4636.02,-137.57 4636.02,-157 4636.02,-157 4636.02,-157 3871.71,-157 3871.71,-157"/>
<polygon fill="black" stroke="black" points="3871.71,-153.5 3861.71,-157 3871.71,-160.5 3871.71,-153.5"/>
</g>
<!-- FormHeaderIconPipePipe -->
<g id="node13" class="node">
<title>FormHeaderIconPipePipe</title>
<polygon fill="#ffffb3" stroke="black" points="4549.9,-122 4388.1,-122 4388.1,-86 4549.9,-86 4549.9,-122"/>
<text text-anchor="middle" x="4469" y="-99.8" font-family="Times,serif" font-size="14.00">FormHeaderIconPipePipe</text>
</g>
<!-- FormHeaderIconPipePipe&#45;&gt;NuiDashboardConfiguratorModule -->
<g id="edge13" class="edge">
<title>FormHeaderIconPipePipe&#45;&gt;NuiDashboardConfiguratorModule</title>
<path fill="none" stroke="black" d="M4414.33,-122.12C4414.33,-136.78 4414.33,-155 4414.33,-155 4414.33,-155 3871.67,-155 3871.67,-155"/>
<polygon fill="black" stroke="black" points="3871.67,-151.5 3861.67,-155 3871.67,-158.5 3871.67,-151.5"/>
</g>
<!-- GroupingConfigurationComponent -->
<g id="node14" class="node">
<title>GroupingConfigurationComponent</title>
<polygon fill="#ffffb3" stroke="black" points="4370.53,-122 4157.47,-122 4157.47,-86 4370.53,-86 4370.53,-122"/>
<text text-anchor="middle" x="4264" y="-99.8" font-family="Times,serif" font-size="14.00">GroupingConfigurationComponent</text>
</g>
<!-- GroupingConfigurationComponent&#45;&gt;NuiDashboardConfiguratorModule -->
<g id="edge14" class="edge">
<title>GroupingConfigurationComponent&#45;&gt;NuiDashboardConfiguratorModule</title>
<path fill="none" stroke="black" d="M4168.57,-122.05C4168.57,-136.37 4168.57,-154 4168.57,-154 4168.57,-154 3871.5,-154 3871.5,-154"/>
<polygon fill="black" stroke="black" points="3871.51,-150.5 3861.5,-154 3871.5,-157.5 3871.51,-150.5"/>
</g>
<!-- PercentageFormatterComponent -->
<g id="node15" class="node">
<title>PercentageFormatterComponent</title>
<polygon fill="#ffffb3" stroke="black" points="4138.94,-122 3941.06,-122 3941.06,-86 4138.94,-86 4138.94,-122"/>
<text text-anchor="middle" x="4040" y="-99.8" font-family="Times,serif" font-size="14.00">PercentageFormatterComponent</text>
</g>
<!-- PercentageFormatterComponent&#45;&gt;NuiDashboardConfiguratorModule -->
<g id="edge15" class="edge">
<title>PercentageFormatterComponent&#45;&gt;NuiDashboardConfiguratorModule</title>
<path fill="none" stroke="black" d="M4040,-122.25C4040,-136.18 4040,-153 4040,-153 4040,-153 3871.53,-153 3871.53,-153"/>
<polygon fill="black" stroke="black" points="3871.53,-149.5 3861.53,-153 3871.53,-156.5 3871.53,-149.5"/>
</g>
<!-- PizzagnaRootPipe -->
<g id="node16" class="node">
<title>PizzagnaRootPipe</title>
<polygon fill="#ffffb3" stroke="black" points="3923.15,-122 3804.85,-122 3804.85,-86 3923.15,-86 3923.15,-122"/>
<text text-anchor="middle" x="3864" y="-99.8" font-family="Times,serif" font-size="14.00">PizzagnaRootPipe</text>
</g>
<!-- PizzagnaRootPipe&#45;&gt;NuiDashboardConfiguratorModule -->
<g id="edge16" class="edge">
<title>PizzagnaRootPipe&#45;&gt;NuiDashboardConfiguratorModule</title>
<path fill="none" stroke="black" d="M3833.21,-122.11C3833.21,-122.11 3833.21,-140.99 3833.21,-140.99"/>
<polygon fill="black" stroke="black" points="3829.71,-140.99 3833.21,-150.99 3836.71,-140.99 3829.71,-140.99"/>
</g>
<!-- ProportionalChartOptionsEditorV2Component -->
<g id="node17" class="node">
<title>ProportionalChartOptionsEditorV2Component</title>
<polygon fill="#ffffb3" stroke="black" points="3786.36,-122 3507.64,-122 3507.64,-86 3786.36,-86 3786.36,-122"/>
<text text-anchor="middle" x="3647" y="-99.8" font-family="Times,serif" font-size="14.00">ProportionalChartOptionsEditorV2Component</text>
</g>
<!-- ProportionalChartOptionsEditorV2Component&#45;&gt;NuiDashboardConfiguratorModule -->
<g id="edge17" class="edge">
<title>ProportionalChartOptionsEditorV2Component&#45;&gt;NuiDashboardConfiguratorModule</title>
<path fill="none" stroke="black" d="M3717.34,-122.11C3717.34,-122.11 3717.34,-140.99 3717.34,-140.99"/>
<polygon fill="black" stroke="black" points="3713.84,-140.99 3717.34,-150.99 3720.84,-140.99 3713.84,-140.99"/>
</g>
<!-- RefreshRateConfiguratorComponent -->
<g id="node18" class="node">
<title>RefreshRateConfiguratorComponent</title>
<polygon fill="#ffffb3" stroke="black" points="3489.33,-122 3266.67,-122 3266.67,-86 3489.33,-86 3489.33,-122"/>
<text text-anchor="middle" x="3378" y="-99.8" font-family="Times,serif" font-size="14.00">RefreshRateConfiguratorComponent</text>
</g>
<!-- RefreshRateConfiguratorComponent&#45;&gt;NuiDashboardConfiguratorModule -->
<g id="edge18" class="edge">
<title>RefreshRateConfiguratorComponent&#45;&gt;NuiDashboardConfiguratorModule</title>
<path fill="none" stroke="black" d="M3457.48,-122.25C3457.48,-136.18 3457.48,-153 3457.48,-153 3457.48,-153 3638.43,-153 3638.43,-153"/>
<polygon fill="black" stroke="black" points="3638.43,-156.5 3648.43,-153 3638.43,-149.5 3638.43,-156.5"/>
</g>
<!-- WidgetClonerComponent -->
<g id="node19" class="node">
<title>WidgetClonerComponent</title>
<polygon fill="#ffffb3" stroke="black" points="3248.15,-122 3087.85,-122 3087.85,-86 3248.15,-86 3248.15,-122"/>
<text text-anchor="middle" x="3168" y="-99.8" font-family="Times,serif" font-size="14.00">WidgetClonerComponent</text>
</g>
<!-- WidgetClonerComponent&#45;&gt;NuiDashboardConfiguratorModule -->
<g id="edge19" class="edge">
<title>WidgetClonerComponent&#45;&gt;NuiDashboardConfiguratorModule</title>
<path fill="none" stroke="black" d="M3219.4,-122.05C3219.4,-136.37 3219.4,-154 3219.4,-154 3219.4,-154 3638.22,-154 3638.22,-154"/>
<polygon fill="black" stroke="black" points="3638.22,-157.5 3648.22,-154 3638.22,-150.5 3638.22,-157.5"/>
</g>
<!-- WidgetConfiguratorSectionComponent -->
<g id="node20" class="node">
<title>WidgetConfiguratorSectionComponent</title>
<polygon fill="#ffffb3" stroke="black" points="3069.35,-122 2832.65,-122 2832.65,-86 3069.35,-86 3069.35,-122"/>
<text text-anchor="middle" x="2951" y="-99.8" font-family="Times,serif" font-size="14.00">WidgetConfiguratorSectionComponent</text>
</g>
<!-- WidgetConfiguratorSectionComponent&#45;&gt;NuiDashboardConfiguratorModule -->
<g id="edge20" class="edge">
<title>WidgetConfiguratorSectionComponent&#45;&gt;NuiDashboardConfiguratorModule</title>
<path fill="none" stroke="black" d="M3020.35,-122.12C3020.35,-136.78 3020.35,-155 3020.35,-155 3020.35,-155 3638.18,-155 3638.18,-155"/>
<polygon fill="black" stroke="black" points="3638.18,-158.5 3648.18,-155 3638.18,-151.5 3638.18,-158.5"/>
</g>
<!-- WidgetConfiguratorSectionHeaderPipe -->
<g id="node21" class="node">
<title>WidgetConfiguratorSectionHeaderPipe</title>
<polygon fill="#ffffb3" stroke="black" points="2814.32,-122 2577.68,-122 2577.68,-86 2814.32,-86 2814.32,-122"/>
<text text-anchor="middle" x="2696" y="-99.8" font-family="Times,serif" font-size="14.00">WidgetConfiguratorSectionHeaderPipe</text>
</g>
<!-- WidgetConfiguratorSectionHeaderPipe&#45;&gt;NuiDashboardConfiguratorModule -->
<g id="edge21" class="edge">
<title>WidgetConfiguratorSectionHeaderPipe&#45;&gt;NuiDashboardConfiguratorModule</title>
<path fill="none" stroke="black" d="M2734.65,-122.24C2734.65,-137.57 2734.65,-157 2734.65,-157 2734.65,-157 3638.21,-157 3638.21,-157"/>
<polygon fill="black" stroke="black" points="3638.21,-160.5 3648.21,-157 3638.21,-153.5 3638.21,-160.5"/>
</g>
<!-- WidgetEditorAccordionFormStatePipe -->
<g id="node22" class="node">
<title>WidgetEditorAccordionFormStatePipe</title>
<polygon fill="#ffffb3" stroke="black" points="2559.01,-122 2324.99,-122 2324.99,-86 2559.01,-86 2559.01,-122"/>
<text text-anchor="middle" x="2442" y="-99.8" font-family="Times,serif" font-size="14.00">WidgetEditorAccordionFormStatePipe</text>
</g>
<!-- WidgetEditorAccordionFormStatePipe&#45;&gt;NuiDashboardConfiguratorModule -->
<g id="edge22" class="edge">
<title>WidgetEditorAccordionFormStatePipe&#45;&gt;NuiDashboardConfiguratorModule</title>
<path fill="none" stroke="black" d="M2545.04,-122.28C2545.04,-137.95 2545.04,-158 2545.04,-158 2545.04,-158 3638.42,-158 3638.42,-158"/>
<polygon fill="black" stroke="black" points="3638.42,-161.5 3648.42,-158 3638.42,-154.5 3638.42,-161.5"/>
</g>
<!-- WidgetEditorComponent -->
<g id="node23" class="node">
<title>WidgetEditorComponent</title>
<polygon fill="#ffffb3" stroke="black" points="2306.54,-122 2149.46,-122 2149.46,-86 2306.54,-86 2306.54,-122"/>
<text text-anchor="middle" x="2228" y="-99.8" font-family="Times,serif" font-size="14.00">WidgetEditorComponent</text>
</g>
<!-- WidgetEditorComponent&#45;&gt;NuiDashboardConfiguratorModule -->
<g id="edge23" class="edge">
<title>WidgetEditorComponent&#45;&gt;NuiDashboardConfiguratorModule</title>
<path fill="none" stroke="black" d="M2296.8,-122.01C2296.8,-138.05 2296.8,-159 2296.8,-159 2296.8,-159 3638.37,-159 3638.37,-159"/>
<polygon fill="black" stroke="black" points="3638.37,-162.5 3648.37,-159 3638.37,-155.5 3638.37,-162.5"/>
</g>
<!-- AddDataPipe  -->
<g id="node27" class="node">
<title>AddDataPipe </title>
<polygon fill="#fb8072" stroke="black" points="6309.42,-252 6214.58,-252 6214.58,-216 6309.42,-216 6309.42,-252"/>
<text text-anchor="middle" x="6262" y="-229.8" font-family="Times,serif" font-size="14.00">AddDataPipe </text>
</g>
<!-- NuiDashboardConfiguratorModule&#45;&gt;AddDataPipe  -->
<g id="edge26" class="edge">
<title>NuiDashboardConfiguratorModule&#45;&gt;AddDataPipe </title>
<path fill="none" stroke="black" stroke-dasharray="5,2" d="M3861.89,-173C4335.81,-173 6224.11,-173 6224.11,-173 6224.11,-173 6224.11,-205.7 6224.11,-205.7"/>
<polygon fill="black" stroke="black" points="6220.61,-205.7 6224.11,-215.7 6227.61,-205.7 6220.61,-205.7"/>
</g>
<!-- AggregatorMetricSelectorConfigurationComponent  -->
<g id="node28" class="node">
<title>AggregatorMetricSelectorConfigurationComponent </title>
<polygon fill="#fb8072" stroke="black" points="6196.31,-252 5885.69,-252 5885.69,-216 6196.31,-216 6196.31,-252"/>
<text text-anchor="middle" x="6041" y="-229.8" font-family="Times,serif" font-size="14.00">AggregatorMetricSelectorConfigurationComponent </text>
</g>
<!-- NuiDashboardConfiguratorModule&#45;&gt;AggregatorMetricSelectorConfigurationComponent  -->
<g id="edge27" class="edge">
<title>NuiDashboardConfiguratorModule&#45;&gt;AggregatorMetricSelectorConfigurationComponent </title>
<path fill="none" stroke="black" stroke-dasharray="5,2" d="M3861.59,-174C4293.41,-174 5889.72,-174 5889.72,-174 5889.72,-174 5889.72,-206 5889.72,-206"/>
<polygon fill="black" stroke="black" points="5886.22,-206 5889.72,-216 5893.22,-206 5886.22,-206"/>
</g>
<!-- ColorPickerComponent  -->
<g id="node29" class="node">
<title>ColorPickerComponent </title>
<polygon fill="#fb8072" stroke="black" points="5868.48,-252 5715.52,-252 5715.52,-216 5868.48,-216 5868.48,-252"/>
<text text-anchor="middle" x="5792" y="-229.8" font-family="Times,serif" font-size="14.00">ColorPickerComponent </text>
</g>
<!-- NuiDashboardConfiguratorModule&#45;&gt;ColorPickerComponent  -->
<g id="edge28" class="edge">
<title>NuiDashboardConfiguratorModule&#45;&gt;ColorPickerComponent </title>
<path fill="none" stroke="black" stroke-dasharray="5,2" d="M3861.65,-175C4280.78,-175 5792,-175 5792,-175 5792,-175 5792,-205.98 5792,-205.98"/>
<polygon fill="black" stroke="black" points="5788.5,-205.98 5792,-215.98 5795.5,-205.98 5788.5,-205.98"/>
</g>
<!-- ConfiguratorHeadingComponent  -->
<g id="node30" class="node">
<title>ConfiguratorHeadingComponent </title>
<polygon fill="#fb8072" stroke="black" points="5697.07,-252 5492.93,-252 5492.93,-216 5697.07,-216 5697.07,-252"/>
<text text-anchor="middle" x="5595" y="-229.8" font-family="Times,serif" font-size="14.00">ConfiguratorHeadingComponent </text>
</g>
<!-- NuiDashboardConfiguratorModule&#45;&gt;ConfiguratorHeadingComponent  -->
<g id="edge29" class="edge">
<title>NuiDashboardConfiguratorModule&#45;&gt;ConfiguratorHeadingComponent </title>
<path fill="none" stroke="black" stroke-dasharray="5,2" d="M3861.51,-177C4250.45,-177 5571.43,-177 5571.43,-177 5571.43,-177 5571.43,-205.96 5571.43,-205.96"/>
<polygon fill="black" stroke="black" points="5567.93,-205.96 5571.43,-215.96 5574.93,-205.96 5567.93,-205.96"/>
</g>
<!-- DashwizButtonsComponent  -->
<g id="node31" class="node">
<title>DashwizButtonsComponent </title>
<polygon fill="#fb8072" stroke="black" points="5474.87,-252 5297.13,-252 5297.13,-216 5474.87,-216 5474.87,-252"/>
<text text-anchor="middle" x="5386" y="-229.8" font-family="Times,serif" font-size="14.00">DashwizButtonsComponent </text>
</g>
<!-- NuiDashboardConfiguratorModule&#45;&gt;DashwizButtonsComponent  -->
<g id="edge30" class="edge">
<title>NuiDashboardConfiguratorModule&#45;&gt;DashwizButtonsComponent </title>
<path fill="none" stroke="black" stroke-dasharray="5,2" d="M3861.69,-178C4217.84,-178 5343.46,-178 5343.46,-178 5343.46,-178 5343.46,-205.97 5343.46,-205.97"/>
<polygon fill="black" stroke="black" points="5339.96,-205.97 5343.46,-215.97 5346.96,-205.97 5339.96,-205.97"/>
</g>
<!-- DashwizComponent  -->
<g id="node32" class="node">
<title>DashwizComponent </title>
<polygon fill="#fb8072" stroke="black" points="5278.81,-252 5145.19,-252 5145.19,-216 5278.81,-216 5278.81,-252"/>
<text text-anchor="middle" x="5212" y="-229.8" font-family="Times,serif" font-size="14.00">DashwizComponent </text>
</g>
<!-- NuiDashboardConfiguratorModule&#45;&gt;DashwizComponent  -->
<g id="edge31" class="edge">
<title>NuiDashboardConfiguratorModule&#45;&gt;DashwizComponent </title>
<path fill="none" stroke="black" stroke-dasharray="5,2" d="M3861.51,-179C4201.11,-179 5236.07,-179 5236.07,-179 5236.07,-179 5236.07,-205.99 5236.07,-205.99"/>
<polygon fill="black" stroke="black" points="5232.57,-205.99 5236.07,-215.99 5239.57,-205.99 5232.57,-205.99"/>
</g>
<!-- DashwizStepComponent  -->
<g id="node33" class="node">
<title>DashwizStepComponent </title>
<polygon fill="#fb8072" stroke="black" points="5127.2,-252 4968.8,-252 4968.8,-216 5127.2,-216 5127.2,-252"/>
<text text-anchor="middle" x="5048" y="-229.8" font-family="Times,serif" font-size="14.00">DashwizStepComponent </text>
</g>
<!-- NuiDashboardConfiguratorModule&#45;&gt;DashwizStepComponent  -->
<g id="edge32" class="edge">
<title>NuiDashboardConfiguratorModule&#45;&gt;DashwizStepComponent </title>
<path fill="none" stroke="black" stroke-dasharray="5,2" d="M3861.64,-181C4171.18,-181 5048,-181 5048,-181 5048,-181 5048,-205.76 5048,-205.76"/>
<polygon fill="black" stroke="black" points="5044.5,-205.76 5048,-215.76 5051.5,-205.76 5044.5,-205.76"/>
</g>
<!-- DataSourceConfigurationComponent  -->
<g id="node34" class="node">
<title>DataSourceConfigurationComponent </title>
<polygon fill="#fb8072" stroke="black" points="4950.18,-252 4721.82,-252 4721.82,-216 4950.18,-216 4950.18,-252"/>
<text text-anchor="middle" x="4836" y="-229.8" font-family="Times,serif" font-size="14.00">DataSourceConfigurationComponent </text>
</g>
<!-- NuiDashboardConfiguratorModule&#45;&gt;DataSourceConfigurationComponent  -->
<g id="edge33" class="edge">
<title>NuiDashboardConfiguratorModule&#45;&gt;DataSourceConfigurationComponent </title>
<path fill="none" stroke="black" stroke-dasharray="5,2" d="M3861.84,-182C4126.22,-182 4789.76,-182 4789.76,-182 4789.76,-182 4789.76,-205.81 4789.76,-205.81"/>
<polygon fill="black" stroke="black" points="4786.26,-205.81 4789.76,-215.81 4793.26,-205.81 4786.26,-205.81"/>
</g>
<!-- DataSourceConfigurationV2Component  -->
<g id="node35" class="node">
<title>DataSourceConfigurationV2Component </title>
<polygon fill="#fb8072" stroke="black" points="4703.78,-252 4458.22,-252 4458.22,-216 4703.78,-216 4703.78,-252"/>
<text text-anchor="middle" x="4581" y="-229.8" font-family="Times,serif" font-size="14.00">DataSourceConfigurationV2Component </text>
</g>
<!-- NuiDashboardConfiguratorModule&#45;&gt;DataSourceConfigurationV2Component  -->
<g id="edge34" class="edge">
<title>NuiDashboardConfiguratorModule&#45;&gt;DataSourceConfigurationV2Component </title>
<path fill="none" stroke="black" stroke-dasharray="5,2" d="M3861.5,-183C4068.26,-183 4503.9,-183 4503.9,-183 4503.9,-183 4503.9,-205.88 4503.9,-205.88"/>
<polygon fill="black" stroke="black" points="4500.4,-205.88 4503.9,-215.88 4507.4,-205.88 4500.4,-205.88"/>
</g>
<!-- DonutContentConfigurationComponent  -->
<g id="node36" class="node">
<title>DonutContentConfigurationComponent </title>
<polygon fill="#fb8072" stroke="black" points="4440.21,-252 4197.79,-252 4197.79,-216 4440.21,-216 4440.21,-252"/>
<text text-anchor="middle" x="4319" y="-229.8" font-family="Times,serif" font-size="14.00">DonutContentConfigurationComponent </text>
</g>
<!-- NuiDashboardConfiguratorModule&#45;&gt;DonutContentConfigurationComponent  -->
<g id="edge35" class="edge">
<title>NuiDashboardConfiguratorModule&#45;&gt;DonutContentConfigurationComponent </title>
<path fill="none" stroke="black" stroke-dasharray="5,2" d="M3861.77,-185C4016.36,-185 4284.21,-185 4284.21,-185 4284.21,-185 4284.21,-205.75 4284.21,-205.75"/>
<polygon fill="black" stroke="black" points="4280.71,-205.75 4284.21,-215.75 4287.71,-205.75 4280.71,-205.75"/>
</g>
<!-- EntityFormattingConfigurationComponent  -->
<g id="node37" class="node">
<title>EntityFormattingConfigurationComponent </title>
<polygon fill="#fb8072" stroke="black" points="4179.82,-252 3920.18,-252 3920.18,-216 4179.82,-216 4179.82,-252"/>
<text text-anchor="middle" x="4050" y="-229.8" font-family="Times,serif" font-size="14.00">EntityFormattingConfigurationComponent </text>
</g>
<!-- NuiDashboardConfiguratorModule&#45;&gt;EntityFormattingConfigurationComponent  -->
<g id="edge36" class="edge">
<title>NuiDashboardConfiguratorModule&#45;&gt;EntityFormattingConfigurationComponent </title>
<path fill="none" stroke="black" stroke-dasharray="5,2" d="M3861.64,-186C3899.17,-186 3932.18,-186 3932.18,-186 3932.18,-186 3932.18,-205.85 3932.18,-205.85"/>
<polygon fill="black" stroke="black" points="3928.68,-205.85 3932.18,-215.85 3935.68,-205.85 3928.68,-205.85"/>
</g>
<!-- FieldMapperAggregatorConfiguratorComponent  -->
<g id="node38" class="node">
<title>FieldMapperAggregatorConfiguratorComponent </title>
<polygon fill="#fb8072" stroke="black" points="3901.71,-252 3608.29,-252 3608.29,-216 3901.71,-216 3901.71,-252"/>
<text text-anchor="middle" x="3755" y="-229.8" font-family="Times,serif" font-size="14.00">FieldMapperAggregatorConfiguratorComponent </text>
</g>
<!-- NuiDashboardConfiguratorModule&#45;&gt;FieldMapperAggregatorConfiguratorComponent  -->
<g id="edge37" class="edge">
<title>NuiDashboardConfiguratorModule&#45;&gt;FieldMapperAggregatorConfiguratorComponent </title>
<path fill="none" stroke="black" stroke-dasharray="5,2" d="M3755,-187.11C3755,-187.11 3755,-205.99 3755,-205.99"/>
<polygon fill="black" stroke="black" points="3751.5,-205.99 3755,-215.99 3758.5,-205.99 3751.5,-205.99"/>
</g>
<!-- FormHeaderIconPipePipe  -->
<g id="node39" class="node">
<title>FormHeaderIconPipePipe </title>
<polygon fill="#fb8072" stroke="black" points="3590.4,-252 3425.6,-252 3425.6,-216 3590.4,-216 3590.4,-252"/>
<text text-anchor="middle" x="3508" y="-229.8" font-family="Times,serif" font-size="14.00">FormHeaderIconPipePipe </text>
</g>
<!-- NuiDashboardConfiguratorModule&#45;&gt;FormHeaderIconPipePipe  -->
<g id="edge38" class="edge">
<title>NuiDashboardConfiguratorModule&#45;&gt;FormHeaderIconPipePipe </title>
<path fill="none" stroke="black" stroke-dasharray="5,2" d="M3648.38,-186C3598.12,-186 3549.01,-186 3549.01,-186 3549.01,-186 3549.01,-205.85 3549.01,-205.85"/>
<polygon fill="black" stroke="black" points="3545.51,-205.85 3549.01,-215.85 3552.51,-205.85 3545.51,-205.85"/>
</g>
<!-- GroupingConfigurationComponent  -->
<g id="node40" class="node">
<title>GroupingConfigurationComponent </title>
<polygon fill="#fb8072" stroke="black" points="3407.53,-252 3190.47,-252 3190.47,-216 3407.53,-216 3407.53,-252"/>
<text text-anchor="middle" x="3299" y="-229.8" font-family="Times,serif" font-size="14.00">GroupingConfigurationComponent </text>
</g>
<!-- NuiDashboardConfiguratorModule&#45;&gt;GroupingConfigurationComponent  -->
<g id="edge39" class="edge">
<title>NuiDashboardConfiguratorModule&#45;&gt;GroupingConfigurationComponent </title>
<path fill="none" stroke="black" stroke-dasharray="5,2" d="M3648.45,-185C3524.62,-185 3337.05,-185 3337.05,-185 3337.05,-185 3337.05,-205.75 3337.05,-205.75"/>
<polygon fill="black" stroke="black" points="3333.55,-205.75 3337.05,-215.75 3340.55,-205.75 3333.55,-205.75"/>
</g>
<!-- PercentageFormatterComponent  -->
<g id="node41" class="node">
<title>PercentageFormatterComponent </title>
<polygon fill="#fb8072" stroke="black" points="3172.94,-252 2971.06,-252 2971.06,-216 3172.94,-216 3172.94,-252"/>
<text text-anchor="middle" x="3072" y="-229.8" font-family="Times,serif" font-size="14.00">PercentageFormatterComponent </text>
</g>
<!-- NuiDashboardConfiguratorModule&#45;&gt;PercentageFormatterComponent  -->
<g id="edge40" class="edge">
<title>NuiDashboardConfiguratorModule&#45;&gt;PercentageFormatterComponent </title>
<path fill="none" stroke="black" stroke-dasharray="5,2" d="M3648.3,-183C3469.85,-183 3130.2,-183 3130.2,-183 3130.2,-183 3130.2,-205.88 3130.2,-205.88"/>
<polygon fill="black" stroke="black" points="3126.7,-205.88 3130.2,-215.88 3133.7,-205.88 3126.7,-205.88"/>
</g>
<!-- PizzagnaRootPipe  -->
<g id="node42" class="node">
<title>PizzagnaRootPipe </title>
<polygon fill="#fb8072" stroke="black" points="2953.15,-252 2830.85,-252 2830.85,-216 2953.15,-216 2953.15,-252"/>
<text text-anchor="middle" x="2892" y="-229.8" font-family="Times,serif" font-size="14.00">PizzagnaRootPipe </text>
</g>
<!-- NuiDashboardConfiguratorModule&#45;&gt;PizzagnaRootPipe  -->
<g id="edge41" class="edge">
<title>NuiDashboardConfiguratorModule&#45;&gt;PizzagnaRootPipe </title>
<path fill="none" stroke="black" stroke-dasharray="5,2" d="M3648.42,-182C3417.74,-182 2892.82,-182 2892.82,-182 2892.82,-182 2892.82,-205.81 2892.82,-205.81"/>
<polygon fill="black" stroke="black" points="2889.32,-205.81 2892.82,-215.81 2896.32,-205.81 2889.32,-205.81"/>
</g>
<!-- ProportionalChartOptionsEditorV2Component  -->
<g id="node43" class="node">
<title>ProportionalChartOptionsEditorV2Component </title>
<polygon fill="#fb8072" stroke="black" points="2813.36,-252 2530.64,-252 2530.64,-216 2813.36,-216 2813.36,-252"/>
<text text-anchor="middle" x="2672" y="-229.8" font-family="Times,serif" font-size="14.00">ProportionalChartOptionsEditorV2Component </text>
</g>
<!-- NuiDashboardConfiguratorModule&#45;&gt;ProportionalChartOptionsEditorV2Component  -->
<g id="edge42" class="edge">
<title>NuiDashboardConfiguratorModule&#45;&gt;ProportionalChartOptionsEditorV2Component </title>
<path fill="none" stroke="black" stroke-dasharray="5,2" d="M3648.39,-181C3372.43,-181 2656.12,-181 2656.12,-181 2656.12,-181 2656.12,-205.76 2656.12,-205.76"/>
<polygon fill="black" stroke="black" points="2652.62,-205.76 2656.12,-215.76 2659.62,-205.76 2652.62,-205.76"/>
</g>
<!-- RefreshRateConfiguratorComponent  -->
<g id="node44" class="node">
<title>RefreshRateConfiguratorComponent </title>
<polygon fill="#fb8072" stroke="black" points="2513.33,-252 2286.67,-252 2286.67,-216 2513.33,-216 2513.33,-252"/>
<text text-anchor="middle" x="2400" y="-229.8" font-family="Times,serif" font-size="14.00">RefreshRateConfiguratorComponent </text>
</g>
<!-- NuiDashboardConfiguratorModule&#45;&gt;RefreshRateConfiguratorComponent  -->
<g id="edge43" class="edge">
<title>NuiDashboardConfiguratorModule&#45;&gt;RefreshRateConfiguratorComponent </title>
<path fill="none" stroke="black" stroke-dasharray="5,2" d="M3648.49,-179C3331.96,-179 2418.96,-179 2418.96,-179 2418.96,-179 2418.96,-205.99 2418.96,-205.99"/>
<polygon fill="black" stroke="black" points="2415.46,-205.99 2418.96,-215.99 2422.46,-205.99 2415.46,-205.99"/>
</g>
<!-- WidgetClonerComponent  -->
<g id="node45" class="node">
<title>WidgetClonerComponent </title>
<polygon fill="#fb8072" stroke="black" points="2269.15,-252 2104.85,-252 2104.85,-216 2269.15,-216 2269.15,-252"/>
<text text-anchor="middle" x="2187" y="-229.8" font-family="Times,serif" font-size="14.00">WidgetClonerComponent </text>
</g>
<!-- NuiDashboardConfiguratorModule&#45;&gt;WidgetClonerComponent  -->
<g id="edge44" class="edge">
<title>NuiDashboardConfiguratorModule&#45;&gt;WidgetClonerComponent </title>
<path fill="none" stroke="black" stroke-dasharray="5,2" d="M3648.44,-178C3298.86,-178 2209.15,-178 2209.15,-178 2209.15,-178 2209.15,-205.97 2209.15,-205.97"/>
<polygon fill="black" stroke="black" points="2205.65,-205.97 2209.15,-215.97 2212.65,-205.97 2205.65,-205.97"/>
</g>
<!-- WidgetConfiguratorSectionComponent  -->
<g id="node46" class="node">
<title>WidgetConfiguratorSectionComponent </title>
<polygon fill="#fb8072" stroke="black" points="2087.35,-252 1846.65,-252 1846.65,-216 2087.35,-216 2087.35,-252"/>
<text text-anchor="middle" x="1967" y="-229.8" font-family="Times,serif" font-size="14.00">WidgetConfiguratorSectionComponent </text>
</g>
<!-- NuiDashboardConfiguratorModule&#45;&gt;WidgetConfiguratorSectionComponent  -->
<g id="edge45" class="edge">
<title>NuiDashboardConfiguratorModule&#45;&gt;WidgetConfiguratorSectionComponent </title>
<path fill="none" stroke="black" stroke-dasharray="5,2" d="M3648.28,-177C3268.74,-177 2006.9,-177 2006.9,-177 2006.9,-177 2006.9,-205.96 2006.9,-205.96"/>
<polygon fill="black" stroke="black" points="2003.4,-205.96 2006.9,-215.96 2010.4,-205.96 2003.4,-205.96"/>
</g>
<!-- WidgetConfiguratorSectionHeaderPipe  -->
<g id="node47" class="node">
<title>WidgetConfiguratorSectionHeaderPipe </title>
<polygon fill="#fb8072" stroke="black" points="1829.32,-252 1588.68,-252 1588.68,-216 1829.32,-216 1829.32,-252"/>
<text text-anchor="middle" x="1709" y="-229.8" font-family="Times,serif" font-size="14.00">WidgetConfiguratorSectionHeaderPipe </text>
</g>
<!-- NuiDashboardConfiguratorModule&#45;&gt;WidgetConfiguratorSectionHeaderPipe  -->
<g id="edge46" class="edge">
<title>NuiDashboardConfiguratorModule&#45;&gt;WidgetConfiguratorSectionHeaderPipe </title>
<path fill="none" stroke="black" stroke-dasharray="5,2" d="M3648.33,-175C3240.59,-175 1803.31,-175 1803.31,-175 1803.31,-175 1803.31,-205.98 1803.31,-205.98"/>
<polygon fill="black" stroke="black" points="1799.81,-205.98 1803.31,-215.98 1806.81,-205.98 1799.81,-205.98"/>
</g>
<!-- WidgetEditorAccordionFormStatePipe  -->
<g id="node48" class="node">
<title>WidgetEditorAccordionFormStatePipe </title>
<polygon fill="#fb8072" stroke="black" points="1571.01,-252 1332.99,-252 1332.99,-216 1571.01,-216 1571.01,-252"/>
<text text-anchor="middle" x="1452" y="-229.8" font-family="Times,serif" font-size="14.00">WidgetEditorAccordionFormStatePipe </text>
</g>
<!-- NuiDashboardConfiguratorModule&#45;&gt;WidgetEditorAccordionFormStatePipe  -->
<g id="edge47" class="edge">
<title>NuiDashboardConfiguratorModule&#45;&gt;WidgetEditorAccordionFormStatePipe </title>
<path fill="none" stroke="black" stroke-dasharray="5,2" d="M3648.16,-174C3208.62,-174 1562.95,-174 1562.95,-174 1562.95,-174 1562.95,-206 1562.95,-206"/>
<polygon fill="black" stroke="black" points="1559.45,-206 1562.95,-216 1566.45,-206 1559.45,-206"/>
</g>
<!-- WidgetEditorComponent  -->
<g id="node49" class="node">
<title>WidgetEditorComponent </title>
<polygon fill="#fb8072" stroke="black" points="1314.54,-252 1153.46,-252 1153.46,-216 1314.54,-216 1314.54,-252"/>
<text text-anchor="middle" x="1234" y="-229.8" font-family="Times,serif" font-size="14.00">WidgetEditorComponent </text>
</g>
<!-- NuiDashboardConfiguratorModule&#45;&gt;WidgetEditorComponent  -->
<g id="edge48" class="edge">
<title>NuiDashboardConfiguratorModule&#45;&gt;WidgetEditorComponent </title>
<path fill="none" stroke="black" stroke-dasharray="5,2" d="M3648.29,-173C3168.45,-173 1234,-173 1234,-173 1234,-173 1234,-205.7 1234,-205.7"/>
<polygon fill="black" stroke="black" points="1230.5,-205.7 1234,-215.7 1237.5,-205.7 1230.5,-205.7"/>
</g>
<!-- NuiDashboardsCommonModule -->
<g id="node25" class="node">
<title>NuiDashboardsCommonModule</title>
<polygon fill="#8dd3c7" stroke="black" points="2125.25,-122 2122.25,-126 2101.25,-126 2098.25,-122 1926.75,-122 1926.75,-86 2125.25,-86 2125.25,-122"/>
<text text-anchor="middle" x="2026" y="-99.8" font-family="Times,serif" font-size="14.00">NuiDashboardsCommonModule</text>
</g>
<!-- NuiDashboardsCommonModule&#45;&gt;NuiDashboardConfiguratorModule -->
<g id="edge24" class="edge">
<title>NuiDashboardsCommonModule&#45;&gt;NuiDashboardConfiguratorModule</title>
<path fill="none" stroke="black" d="M2115.15,-122.04C2115.15,-138.73 2115.15,-161 2115.15,-161 2115.15,-161 3638.35,-161 3638.35,-161"/>
<polygon fill="black" stroke="black" points="3638.35,-164.5 3648.35,-161 3638.35,-157.5 3638.35,-164.5"/>
</g>
<!-- NuiPizzagnaModule -->
<g id="node26" class="node">
<title>NuiPizzagnaModule</title>
<polygon fill="#8dd3c7" stroke="black" points="1908.58,-122 1905.58,-126 1884.58,-126 1881.58,-122 1777.42,-122 1777.42,-86 1908.58,-86 1908.58,-122"/>
<text text-anchor="middle" x="1843" y="-99.8" font-family="Times,serif" font-size="14.00">NuiPizzagnaModule</text>
</g>
<!-- NuiPizzagnaModule&#45;&gt;NuiDashboardConfiguratorModule -->
<g id="edge25" class="edge">
<title>NuiPizzagnaModule&#45;&gt;NuiDashboardConfiguratorModule</title>
<path fill="none" stroke="black" d="M1877.68,-122.03C1877.68,-139.06 1877.68,-162 1877.68,-162 1877.68,-162 3638.35,-162 3638.35,-162"/>
<polygon fill="black" stroke="black" points="3638.35,-165.5 3648.35,-162 3638.35,-158.5 3638.35,-165.5"/>
</g>
<!-- ConfiguratorService -->
<g id="node50" class="node">
<title>ConfiguratorService</title>
<ellipse fill="#fdb462" stroke="black" cx="1663" cy="-104" rx="89.75" ry="18"/>
<text text-anchor="middle" x="1663" y="-99.8" font-family="Times,serif" font-size="14.00">ConfiguratorService</text>
</g>
<!-- ConfiguratorService&#45;&gt;NuiDashboardConfiguratorModule -->
<g id="edge49" class="edge">
<title>ConfiguratorService&#45;&gt;NuiDashboardConfiguratorModule</title>
<path fill="none" stroke="black" d="M1670.86,-122.02C1670.86,-139.37 1670.86,-163 1670.86,-163 1670.86,-163 3638.42,-163 3638.42,-163"/>
<polygon fill="black" stroke="black" points="3638.42,-166.5 3648.42,-163 3638.42,-159.5 3638.42,-166.5"/>
</g>
<!-- KpiWidgetColorService -->
<g id="node51" class="node">
<title>KpiWidgetColorService</title>
<ellipse fill="#fdb462" stroke="black" cx="1450" cy="-104" rx="104.79" ry="18"/>
<text text-anchor="middle" x="1450" y="-99.8" font-family="Times,serif" font-size="14.00">KpiWidgetColorService</text>
</g>
<!-- KpiWidgetColorService&#45;&gt;NuiDashboardConfiguratorModule -->
<g id="edge50" class="edge">
<title>KpiWidgetColorService&#45;&gt;NuiDashboardConfiguratorModule</title>
<path fill="none" stroke="black" d="M1450,-122.3C1450,-140.27 1450,-165 1450,-165 1450,-165 3638.45,-165 3638.45,-165"/>
<polygon fill="black" stroke="black" points="3638.45,-168.5 3648.45,-165 3638.45,-161.5 3638.45,-168.5"/>
</g>
<!-- TimeseriesChartPresetService -->
<g id="node52" class="node">
<title>TimeseriesChartPresetService</title>
<ellipse fill="#fdb462" stroke="black" cx="1200" cy="-104" rx="127.31" ry="18"/>
<text text-anchor="middle" x="1200" y="-99.8" font-family="Times,serif" font-size="14.00">TimeseriesChartPresetService</text>
</g>
<!-- TimeseriesChartPresetService&#45;&gt;NuiDashboardConfiguratorModule -->
<g id="edge51" class="edge">
<title>TimeseriesChartPresetService&#45;&gt;NuiDashboardConfiguratorModule</title>
<path fill="none" stroke="black" d="M1320.96,-109.72C1320.96,-125.07 1320.96,-166 1320.96,-166 1320.96,-166 3638.45,-166 3638.45,-166"/>
<polygon fill="black" stroke="black" points="3638.45,-169.5 3648.45,-166 3638.45,-162.5 3638.45,-169.5"/>
</g>
<!-- TimeseriesScalesService -->
<g id="node53" class="node">
<title>TimeseriesScalesService</title>
<ellipse fill="#fdb462" stroke="black" cx="948" cy="-104" rx="107.05" ry="18"/>
<text text-anchor="middle" x="948" y="-99.8" font-family="Times,serif" font-size="14.00">TimeseriesScalesService</text>
</g>
<!-- TimeseriesScalesService&#45;&gt;NuiDashboardConfiguratorModule -->
<g id="edge52" class="edge">
<title>TimeseriesScalesService&#45;&gt;NuiDashboardConfiguratorModule</title>
<path fill="none" stroke="black" d="M948,-122.22C948,-140.83 948,-167 948,-167 948,-167 3638.39,-167 3638.39,-167"/>
<polygon fill="black" stroke="black" points="3638.39,-170.5 3648.39,-167 3638.39,-163.5 3638.39,-170.5"/>
</g>
<!-- WidgetClonerService -->
<g id="node54" class="node">
<title>WidgetClonerService</title>
<ellipse fill="#fdb462" stroke="black" cx="728" cy="-104" rx="94.9" ry="18"/>
<text text-anchor="middle" x="728" y="-99.8" font-family="Times,serif" font-size="14.00">WidgetClonerService</text>
</g>
<!-- WidgetClonerService&#45;&gt;NuiDashboardConfiguratorModule -->
<g id="edge53" class="edge">
<title>WidgetClonerService&#45;&gt;NuiDashboardConfiguratorModule</title>
<path fill="none" stroke="black" d="M728,-122.11C728,-141.34 728,-169 728,-169 728,-169 3638.16,-169 3638.16,-169"/>
<polygon fill="black" stroke="black" points="3638.16,-172.5 3648.16,-169 3638.16,-165.5 3638.16,-172.5"/>
</g>
<!-- WidgetConfiguratorSectionCoordinatorService -->
<g id="node55" class="node">
<title>WidgetConfiguratorSectionCoordinatorService</title>
<ellipse fill="#fdb462" stroke="black" cx="421" cy="-104" rx="193.86" ry="18"/>
<text text-anchor="middle" x="421" y="-99.8" font-family="Times,serif" font-size="14.00">WidgetConfiguratorSectionCoordinatorService</text>
</g>
<!-- WidgetConfiguratorSectionCoordinatorService&#45;&gt;NuiDashboardConfiguratorModule -->
<g id="edge54" class="edge">
<title>WidgetConfiguratorSectionCoordinatorService&#45;&gt;NuiDashboardConfiguratorModule</title>
<path fill="none" stroke="black" d="M421,-122.03C421,-141.58 421,-170 421,-170 421,-170 3638.32,-170 3638.32,-170"/>
<polygon fill="black" stroke="black" points="3638.32,-173.5 3648.32,-170 3638.32,-166.5 3638.32,-173.5"/>
</g>
<!-- WidgetEditorService -->
<g id="node56" class="node">
<title>WidgetEditorService</title>
<ellipse fill="#fdb462" stroke="black" cx="117" cy="-104" rx="92.61" ry="18"/>
<text text-anchor="middle" x="117" y="-99.8" font-family="Times,serif" font-size="14.00">WidgetEditorService</text>
</g>
<!-- WidgetEditorService&#45;&gt;NuiDashboardConfiguratorModule -->
<g id="edge55" class="edge">
<title>WidgetEditorService&#45;&gt;NuiDashboardConfiguratorModule</title>
<path fill="none" stroke="black" d="M117,-122.31C117,-142.15 117,-171 117,-171 117,-171 3638.09,-171 3638.09,-171"/>
<polygon fill="black" stroke="black" points="3638.09,-174.5 3648.09,-171 3638.09,-167.5 3638.09,-174.5"/>
</g>
</g>
</svg>
