<?xml version="1.0" encoding="UTF-8" standalone="no"?>
<!DOCTYPE svg PUBLIC "-//W3C//DTD SVG 1.1//EN"
 "http://www.w3.org/Graphics/SVG/1.1/DTD/svg11.dtd">
<!-- Generated by graphviz version 2.47.3 (20210619.1520)
 -->
<!-- Title: dependencies Pages: 1 -->
<svg width="4463pt" height="247pt"
 viewBox="0.00 0.00 4463.00 246.80" xmlns="http://www.w3.org/2000/svg" xmlns:xlink="http://www.w3.org/1999/xlink">
<g id="graph0" class="graph" transform="scale(1 1) rotate(0) translate(4 242.8)">
<title>dependencies</title>
<polygon fill="white" stroke="transparent" points="-4,4 -4,-242.8 4459,-242.8 4459,4 -4,4"/>
<text text-anchor="middle" x="2227.5" y="-8.2" font-family="sans-serif" font-size="14.00">dependencies</text>
<g id="clust1" class="cluster">
<title>cluster_NuiDashboardConfiguratorModule</title>
<polygon fill="none" stroke="black" stroke-dasharray="1,5" points="8,-32.8 8,-230.8 4447,-230.8 4447,-32.8 8,-32.8"/>
</g>
<g id="clust14" class="cluster">
<title>cluster_NuiDashboardConfiguratorModule_imports</title>
<polygon fill="none" stroke="black" points="4075,-40.8 4075,-92.8 4439,-92.8 4439,-40.8 4075,-40.8"/>
</g>
<g id="clust17" class="cluster">
<title>cluster_NuiDashboardConfiguratorModule_providers</title>
<polygon fill="none" stroke="black" points="2059,-40.8 2059,-92.8 4067,-92.8 4067,-40.8 2059,-40.8"/>
</g>
<g id="clust2" class="cluster">
<title>cluster_NuiDashboardConfiguratorModule_declarations</title>
<polygon fill="none" stroke="black" points="16,-40.8 16,-92.8 2051,-92.8 2051,-40.8 16,-40.8"/>
</g>
<g id="clust15" class="cluster">
<title>cluster_NuiDashboardConfiguratorModule_exports</title>
<polygon fill="none" stroke="black" points="837,-170.8 837,-222.8 2910,-222.8 2910,-170.8 837,-170.8"/>
</g>
<!-- AddDataPipe -->
<g id="node1" class="node">
<title>AddDataPipe</title>
<polygon fill="#ffffb3" stroke="black" points="2042.92,-84.8 1951.08,-84.8 1951.08,-48.8 2042.92,-48.8 2042.92,-84.8"/>
<text text-anchor="middle" x="1997" y="-62.6" font-family="Times,serif" font-size="14.00">AddDataPipe</text>
</g>
<!-- NuiDashboardConfiguratorModule -->
<g id="node12" class="node">
<title>NuiDashboardConfiguratorModule</title>
<polygon fill="#8dd3c7" stroke="black" points="2103.5,-149.8 2100.5,-153.8 2079.5,-153.8 2076.5,-149.8 1890.5,-149.8 1890.5,-113.8 2103.5,-113.8 2103.5,-149.8"/>
<text text-anchor="middle" x="1997" y="-127.6" font-family="Times,serif" font-size="14.00">NuiDashboardConfiguratorModule</text>
</g>
<!-- AddDataPipe&#45;&gt;NuiDashboardConfiguratorModule -->
<g id="edge1" class="edge">
<title>AddDataPipe&#45;&gt;NuiDashboardConfiguratorModule</title>
<path fill="none" stroke="black" d="M1997,-84.91C1997,-84.91 1997,-103.79 1997,-103.79"/>
<polygon fill="black" stroke="black" points="1993.5,-103.79 1997,-113.79 2000.5,-103.79 1993.5,-103.79"/>
</g>
<!-- ColorPickerComponent -->
<g id="node2" class="node">
<title>ColorPickerComponent</title>
<polygon fill="#ffffb3" stroke="black" points="1933.48,-84.8 1784.52,-84.8 1784.52,-48.8 1933.48,-48.8 1933.48,-84.8"/>
<text text-anchor="middle" x="1859" y="-62.6" font-family="Times,serif" font-size="14.00">ColorPickerComponent</text>
</g>
<!-- ColorPickerComponent&#45;&gt;NuiDashboardConfiguratorModule -->
<g id="edge2" class="edge">
<title>ColorPickerComponent&#45;&gt;NuiDashboardConfiguratorModule</title>
<path fill="none" stroke="black" d="M1911.87,-84.91C1911.87,-84.91 1911.87,-103.79 1911.87,-103.79"/>
<polygon fill="black" stroke="black" points="1908.37,-103.79 1911.87,-113.79 1915.37,-103.79 1908.37,-103.79"/>
</g>
<!-- ConfiguratorHeadingComponent -->
<g id="node3" class="node">
<title>ConfiguratorHeadingComponent</title>
<polygon fill="#ffffb3" stroke="black" points="1766.57,-84.8 1565.43,-84.8 1565.43,-48.8 1766.57,-48.8 1766.57,-84.8"/>
<text text-anchor="middle" x="1666" y="-62.6" font-family="Times,serif" font-size="14.00">ConfiguratorHeadingComponent</text>
</g>
<!-- ConfiguratorHeadingComponent&#45;&gt;NuiDashboardConfiguratorModule -->
<g id="edge3" class="edge">
<title>ConfiguratorHeadingComponent&#45;&gt;NuiDashboardConfiguratorModule</title>
<path fill="none" stroke="black" d="M1755.04,-84.85C1755.04,-99.17 1755.04,-116.8 1755.04,-116.8 1755.04,-116.8 1880.17,-116.8 1880.17,-116.8"/>
<polygon fill="black" stroke="black" points="1880.17,-120.3 1890.17,-116.8 1880.17,-113.3 1880.17,-120.3"/>
</g>
<!-- DashwizComponent -->
<g id="node4" class="node">
<title>DashwizComponent</title>
<polygon fill="#ffffb3" stroke="black" points="1547.31,-84.8 1416.69,-84.8 1416.69,-48.8 1547.31,-48.8 1547.31,-84.8"/>
<text text-anchor="middle" x="1482" y="-62.6" font-family="Times,serif" font-size="14.00">DashwizComponent</text>
</g>
<!-- DashwizComponent&#45;&gt;NuiDashboardConfiguratorModule -->
<g id="edge4" class="edge">
<title>DashwizComponent&#45;&gt;NuiDashboardConfiguratorModule</title>
<path fill="none" stroke="black" d="M1482,-85.04C1482,-100.37 1482,-119.8 1482,-119.8 1482,-119.8 1880.29,-119.8 1880.29,-119.8"/>
<polygon fill="black" stroke="black" points="1880.29,-123.3 1890.29,-119.8 1880.29,-116.3 1880.29,-123.3"/>
</g>
<!-- DashwizStepComponent -->
<g id="node5" class="node">
<title>DashwizStepComponent</title>
<polygon fill="#ffffb3" stroke="black" points="1398.7,-84.8 1243.3,-84.8 1243.3,-48.8 1398.7,-48.8 1398.7,-84.8"/>
<text text-anchor="middle" x="1321" y="-62.6" font-family="Times,serif" font-size="14.00">DashwizStepComponent</text>
</g>
<!-- DashwizStepComponent&#45;&gt;NuiDashboardConfiguratorModule -->
<g id="edge5" class="edge">
<title>DashwizStepComponent&#45;&gt;NuiDashboardConfiguratorModule</title>
<path fill="none" stroke="black" d="M1378.72,-84.81C1378.72,-100.85 1378.72,-121.8 1378.72,-121.8 1378.72,-121.8 1880.36,-121.8 1880.36,-121.8"/>
<polygon fill="black" stroke="black" points="1880.36,-125.3 1890.36,-121.8 1880.36,-118.3 1880.36,-125.3"/>
</g>
<!-- DropAreaComponent -->
<g id="node6" class="node">
<title>DropAreaComponent</title>
<polygon fill="#ffffb3" stroke="black" points="1225.8,-84.8 1088.2,-84.8 1088.2,-48.8 1225.8,-48.8 1225.8,-84.8"/>
<text text-anchor="middle" x="1157" y="-62.6" font-family="Times,serif" font-size="14.00">DropAreaComponent</text>
</g>
<!-- DropAreaComponent&#45;&gt;NuiDashboardConfiguratorModule -->
<g id="edge6" class="edge">
<title>DropAreaComponent&#45;&gt;NuiDashboardConfiguratorModule</title>
<path fill="none" stroke="black" d="M1163.24,-84.83C1163.24,-101.86 1163.24,-124.8 1163.24,-124.8 1163.24,-124.8 1880.13,-124.8 1880.13,-124.8"/>
<polygon fill="black" stroke="black" points="1880.13,-128.3 1890.13,-124.8 1880.13,-121.3 1880.13,-128.3"/>
</g>
<!-- FormHeaderIconPipePipe -->
<g id="node7" class="node">
<title>FormHeaderIconPipePipe</title>
<polygon fill="#ffffb3" stroke="black" points="1070.9,-84.8 909.1,-84.8 909.1,-48.8 1070.9,-48.8 1070.9,-84.8"/>
<text text-anchor="middle" x="990" y="-62.6" font-family="Times,serif" font-size="14.00">FormHeaderIconPipePipe</text>
</g>
<!-- FormHeaderIconPipePipe&#45;&gt;NuiDashboardConfiguratorModule -->
<g id="edge7" class="edge">
<title>FormHeaderIconPipePipe&#45;&gt;NuiDashboardConfiguratorModule</title>
<path fill="none" stroke="black" d="M990,-84.8C990,-102.48 990,-126.8 990,-126.8 990,-126.8 1880.19,-126.8 1880.19,-126.8"/>
<polygon fill="black" stroke="black" points="1880.19,-130.3 1890.19,-126.8 1880.19,-123.3 1880.19,-130.3"/>
</g>
<!-- PizzagnaRootPipe -->
<g id="node8" class="node">
<title>PizzagnaRootPipe</title>
<polygon fill="#ffffb3" stroke="black" points="891.15,-84.8 772.85,-84.8 772.85,-48.8 891.15,-48.8 891.15,-84.8"/>
<text text-anchor="middle" x="832" y="-62.6" font-family="Times,serif" font-size="14.00">PizzagnaRootPipe</text>
</g>
<!-- PizzagnaRootPipe&#45;&gt;NuiDashboardConfiguratorModule -->
<g id="edge8" class="edge">
<title>PizzagnaRootPipe&#45;&gt;NuiDashboardConfiguratorModule</title>
<path fill="none" stroke="black" d="M868.16,-85.02C868.16,-103.63 868.16,-129.8 868.16,-129.8 868.16,-129.8 1880.29,-129.8 1880.29,-129.8"/>
<polygon fill="black" stroke="black" points="1880.29,-133.3 1890.29,-129.8 1880.29,-126.3 1880.29,-133.3"/>
</g>
<!-- RefreshRateConfiguratorComponent -->
<g id="node9" class="node">
<title>RefreshRateConfiguratorComponent</title>
<polygon fill="#ffffb3" stroke="black" points="754.33,-84.8 531.67,-84.8 531.67,-48.8 754.33,-48.8 754.33,-84.8"/>
<text text-anchor="middle" x="643" y="-62.6" font-family="Times,serif" font-size="14.00">RefreshRateConfiguratorComponent</text>
</g>
<!-- RefreshRateConfiguratorComponent&#45;&gt;NuiDashboardConfiguratorModule -->
<g id="edge9" class="edge">
<title>RefreshRateConfiguratorComponent&#45;&gt;NuiDashboardConfiguratorModule</title>
<path fill="none" stroke="black" d="M643,-84.91C643,-104.14 643,-131.8 643,-131.8 643,-131.8 1880.47,-131.8 1880.47,-131.8"/>
<polygon fill="black" stroke="black" points="1880.47,-135.3 1890.47,-131.8 1880.47,-128.3 1880.47,-135.3"/>
</g>
<!-- WidgetConfiguratorSectionHeaderPipe -->
<g id="node10" class="node">
<title>WidgetConfiguratorSectionHeaderPipe</title>
<polygon fill="#ffffb3" stroke="black" points="513.32,-84.8 276.68,-84.8 276.68,-48.8 513.32,-48.8 513.32,-84.8"/>
<text text-anchor="middle" x="395" y="-62.6" font-family="Times,serif" font-size="14.00">WidgetConfiguratorSectionHeaderPipe</text>
</g>
<!-- WidgetConfiguratorSectionHeaderPipe&#45;&gt;NuiDashboardConfiguratorModule -->
<g id="edge10" class="edge">
<title>WidgetConfiguratorSectionHeaderPipe&#45;&gt;NuiDashboardConfiguratorModule</title>
<path fill="none" stroke="black" d="M395,-85.02C395,-105.17 395,-134.8 395,-134.8 395,-134.8 1880.34,-134.8 1880.34,-134.8"/>
<polygon fill="black" stroke="black" points="1880.34,-138.3 1890.34,-134.8 1880.34,-131.3 1880.34,-138.3"/>
</g>
<!-- WidgetEditorAccordionFormStatePipe -->
<g id="node11" class="node">
<title>WidgetEditorAccordionFormStatePipe</title>
<polygon fill="#ffffb3" stroke="black" points="258.01,-84.8 23.99,-84.8 23.99,-48.8 258.01,-48.8 258.01,-84.8"/>
<text text-anchor="middle" x="141" y="-62.6" font-family="Times,serif" font-size="14.00">WidgetEditorAccordionFormStatePipe</text>
</g>
<!-- WidgetEditorAccordionFormStatePipe&#45;&gt;NuiDashboardConfiguratorModule -->
<g id="edge11" class="edge">
<title>WidgetEditorAccordionFormStatePipe&#45;&gt;NuiDashboardConfiguratorModule</title>
<path fill="none" stroke="black" d="M141,-85.08C141,-106.12 141,-137.8 141,-137.8 141,-137.8 1880.21,-137.8 1880.21,-137.8"/>
<polygon fill="black" stroke="black" points="1880.21,-141.3 1890.21,-137.8 1880.21,-134.3 1880.21,-141.3"/>
</g>
<!-- AddDataPipe  -->
<g id="node15" class="node">
<title>AddDataPipe </title>
<polygon fill="#fb8072" stroke="black" points="2902.42,-214.8 2807.58,-214.8 2807.58,-178.8 2902.42,-178.8 2902.42,-214.8"/>
<text text-anchor="middle" x="2855" y="-192.6" font-family="Times,serif" font-size="14.00">AddDataPipe </text>
</g>
<!-- NuiDashboardConfiguratorModule&#45;&gt;AddDataPipe  -->
<g id="edge14" class="edge">
<title>NuiDashboardConfiguratorModule&#45;&gt;AddDataPipe </title>
<path fill="none" stroke="black" stroke-dasharray="5,2" d="M2103.76,-139.8C2329.91,-139.8 2836.62,-139.8 2836.62,-139.8 2836.62,-139.8 2836.62,-168.76 2836.62,-168.76"/>
<polygon fill="black" stroke="black" points="2833.12,-168.76 2836.62,-178.76 2840.12,-168.76 2833.12,-168.76"/>
</g>
<!-- ColorPickerComponent  -->
<g id="node16" class="node">
<title>ColorPickerComponent </title>
<polygon fill="#fb8072" stroke="black" points="2789.48,-214.8 2636.52,-214.8 2636.52,-178.8 2789.48,-178.8 2789.48,-214.8"/>
<text text-anchor="middle" x="2713" y="-192.6" font-family="Times,serif" font-size="14.00">ColorPickerComponent </text>
</g>
<!-- NuiDashboardConfiguratorModule&#45;&gt;ColorPickerComponent  -->
<g id="edge15" class="edge">
<title>NuiDashboardConfiguratorModule&#45;&gt;ColorPickerComponent </title>
<path fill="none" stroke="black" stroke-dasharray="5,2" d="M2103.66,-142.8C2288.16,-142.8 2647.34,-142.8 2647.34,-142.8 2647.34,-142.8 2647.34,-168.52 2647.34,-168.52"/>
<polygon fill="black" stroke="black" points="2643.84,-168.52 2647.34,-178.52 2650.84,-168.52 2643.84,-168.52"/>
</g>
<!-- ConfiguratorHeadingComponent  -->
<g id="node17" class="node">
<title>ConfiguratorHeadingComponent </title>
<polygon fill="#fb8072" stroke="black" points="2618.07,-214.8 2413.93,-214.8 2413.93,-178.8 2618.07,-178.8 2618.07,-214.8"/>
<text text-anchor="middle" x="2516" y="-192.6" font-family="Times,serif" font-size="14.00">ConfiguratorHeadingComponent </text>
</g>
<!-- NuiDashboardConfiguratorModule&#45;&gt;ConfiguratorHeadingComponent  -->
<g id="edge16" class="edge">
<title>NuiDashboardConfiguratorModule&#45;&gt;ConfiguratorHeadingComponent </title>
<path fill="none" stroke="black" stroke-dasharray="5,2" d="M2103.59,-144.8C2255.48,-144.8 2516,-144.8 2516,-144.8 2516,-144.8 2516,-168.61 2516,-168.61"/>
<polygon fill="black" stroke="black" points="2512.5,-168.61 2516,-178.61 2519.5,-168.61 2512.5,-168.61"/>
</g>
<!-- DashwizComponent  -->
<g id="node18" class="node">
<title>DashwizComponent </title>
<polygon fill="#fb8072" stroke="black" points="2395.81,-214.8 2262.19,-214.8 2262.19,-178.8 2395.81,-178.8 2395.81,-214.8"/>
<text text-anchor="middle" x="2329" y="-192.6" font-family="Times,serif" font-size="14.00">DashwizComponent </text>
</g>
<!-- NuiDashboardConfiguratorModule&#45;&gt;DashwizComponent  -->
<g id="edge17" class="edge">
<title>NuiDashboardConfiguratorModule&#45;&gt;DashwizComponent </title>
<path fill="none" stroke="black" stroke-dasharray="5,2" d="M2103.73,-147.8C2178.86,-147.8 2266.08,-147.8 2266.08,-147.8 2266.08,-147.8 2266.08,-168.55 2266.08,-168.55"/>
<polygon fill="black" stroke="black" points="2262.58,-168.55 2266.08,-178.55 2269.58,-168.55 2262.58,-168.55"/>
</g>
<!-- DashwizStepComponent  -->
<g id="node19" class="node">
<title>DashwizStepComponent </title>
<polygon fill="#fb8072" stroke="black" points="2244.2,-214.8 2085.8,-214.8 2085.8,-178.8 2244.2,-178.8 2244.2,-214.8"/>
<text text-anchor="middle" x="2165" y="-192.6" font-family="Times,serif" font-size="14.00">DashwizStepComponent </text>
</g>
<!-- NuiDashboardConfiguratorModule&#45;&gt;DashwizStepComponent  -->
<g id="edge18" class="edge">
<title>NuiDashboardConfiguratorModule&#45;&gt;DashwizStepComponent </title>
<path fill="none" stroke="black" stroke-dasharray="5,2" d="M2094.7,-149.91C2094.7,-149.91 2094.7,-168.79 2094.7,-168.79"/>
<polygon fill="black" stroke="black" points="2091.2,-168.79 2094.7,-178.79 2098.2,-168.79 2091.2,-168.79"/>
</g>
<!-- DropAreaComponent  -->
<g id="node20" class="node">
<title>DropAreaComponent </title>
<polygon fill="#fb8072" stroke="black" points="2067.3,-214.8 1926.7,-214.8 1926.7,-178.8 2067.3,-178.8 2067.3,-214.8"/>
<text text-anchor="middle" x="1997" y="-192.6" font-family="Times,serif" font-size="14.00">DropAreaComponent </text>
</g>
<!-- NuiDashboardConfiguratorModule&#45;&gt;DropAreaComponent  -->
<g id="edge19" class="edge">
<title>NuiDashboardConfiguratorModule&#45;&gt;DropAreaComponent </title>
<path fill="none" stroke="black" stroke-dasharray="5,2" d="M1997,-149.91C1997,-149.91 1997,-168.79 1997,-168.79"/>
<polygon fill="black" stroke="black" points="1993.5,-168.79 1997,-178.79 2000.5,-168.79 1993.5,-168.79"/>
</g>
<!-- FormHeaderIconPipePipe  -->
<g id="node21" class="node">
<title>FormHeaderIconPipePipe </title>
<polygon fill="#fb8072" stroke="black" points="1908.4,-214.8 1743.6,-214.8 1743.6,-178.8 1908.4,-178.8 1908.4,-214.8"/>
<text text-anchor="middle" x="1826" y="-192.6" font-family="Times,serif" font-size="14.00">FormHeaderIconPipePipe </text>
</g>
<!-- NuiDashboardConfiguratorModule&#45;&gt;FormHeaderIconPipePipe  -->
<g id="edge20" class="edge">
<title>NuiDashboardConfiguratorModule&#45;&gt;FormHeaderIconPipePipe </title>
<path fill="none" stroke="black" stroke-dasharray="5,2" d="M1899.35,-149.91C1899.35,-149.91 1899.35,-168.79 1899.35,-168.79"/>
<polygon fill="black" stroke="black" points="1895.85,-168.79 1899.35,-178.79 1902.85,-168.79 1895.85,-168.79"/>
</g>
<!-- PizzagnaRootPipe  -->
<g id="node22" class="node">
<title>PizzagnaRootPipe </title>
<polygon fill="#fb8072" stroke="black" points="1725.15,-214.8 1602.85,-214.8 1602.85,-178.8 1725.15,-178.8 1725.15,-214.8"/>
<text text-anchor="middle" x="1664" y="-192.6" font-family="Times,serif" font-size="14.00">PizzagnaRootPipe </text>
</g>
<!-- NuiDashboardConfiguratorModule&#45;&gt;PizzagnaRootPipe  -->
<g id="edge21" class="edge">
<title>NuiDashboardConfiguratorModule&#45;&gt;PizzagnaRootPipe </title>
<path fill="none" stroke="black" stroke-dasharray="5,2" d="M1890.26,-147.8C1792.86,-147.8 1664,-147.8 1664,-147.8 1664,-147.8 1664,-168.55 1664,-168.55"/>
<polygon fill="black" stroke="black" points="1660.5,-168.55 1664,-178.55 1667.5,-168.55 1660.5,-168.55"/>
</g>
<!-- RefreshRateConfiguratorComponent  -->
<g id="node23" class="node">
<title>RefreshRateConfiguratorComponent </title>
<polygon fill="#fb8072" stroke="black" points="1585.33,-214.8 1358.67,-214.8 1358.67,-178.8 1585.33,-178.8 1585.33,-214.8"/>
<text text-anchor="middle" x="1472" y="-192.6" font-family="Times,serif" font-size="14.00">RefreshRateConfiguratorComponent </text>
</g>
<!-- NuiDashboardConfiguratorModule&#45;&gt;RefreshRateConfiguratorComponent  -->
<g id="edge22" class="edge">
<title>NuiDashboardConfiguratorModule&#45;&gt;RefreshRateConfiguratorComponent </title>
<path fill="none" stroke="black" stroke-dasharray="5,2" d="M1890.32,-144.8C1765.39,-144.8 1575.32,-144.8 1575.32,-144.8 1575.32,-144.8 1575.32,-168.61 1575.32,-168.61"/>
<polygon fill="black" stroke="black" points="1571.82,-168.61 1575.32,-178.61 1578.82,-168.61 1571.82,-168.61"/>
</g>
<!-- WidgetConfiguratorSectionHeaderPipe  -->
<g id="node24" class="node">
<title>WidgetConfiguratorSectionHeaderPipe </title>
<polygon fill="#fb8072" stroke="black" points="1341.32,-214.8 1100.68,-214.8 1100.68,-178.8 1341.32,-178.8 1341.32,-214.8"/>
<text text-anchor="middle" x="1221" y="-192.6" font-family="Times,serif" font-size="14.00">WidgetConfiguratorSectionHeaderPipe </text>
</g>
<!-- NuiDashboardConfiguratorModule&#45;&gt;WidgetConfiguratorSectionHeaderPipe  -->
<g id="edge23" class="edge">
<title>NuiDashboardConfiguratorModule&#45;&gt;WidgetConfiguratorSectionHeaderPipe </title>
<path fill="none" stroke="black" stroke-dasharray="5,2" d="M1890.35,-142.8C1693.34,-142.8 1292.28,-142.8 1292.28,-142.8 1292.28,-142.8 1292.28,-168.52 1292.28,-168.52"/>
<polygon fill="black" stroke="black" points="1288.78,-168.52 1292.28,-178.52 1295.78,-168.52 1288.78,-168.52"/>
</g>
<!-- WidgetEditorAccordionFormStatePipe  -->
<g id="node25" class="node">
<title>WidgetEditorAccordionFormStatePipe </title>
<polygon fill="#fb8072" stroke="black" points="1083.01,-214.8 844.99,-214.8 844.99,-178.8 1083.01,-178.8 1083.01,-214.8"/>
<text text-anchor="middle" x="964" y="-192.6" font-family="Times,serif" font-size="14.00">WidgetEditorAccordionFormStatePipe </text>
</g>
<!-- NuiDashboardConfiguratorModule&#45;&gt;WidgetEditorAccordionFormStatePipe  -->
<g id="edge24" class="edge">
<title>NuiDashboardConfiguratorModule&#45;&gt;WidgetEditorAccordionFormStatePipe </title>
<path fill="none" stroke="black" stroke-dasharray="5,2" d="M1890.1,-139.8C1647.63,-139.8 1076.85,-139.8 1076.85,-139.8 1076.85,-139.8 1076.85,-168.76 1076.85,-168.76"/>
<polygon fill="black" stroke="black" points="1073.35,-168.76 1076.85,-178.76 1080.35,-168.76 1073.35,-168.76"/>
</g>
<!-- NuiDashboardsCommonModule -->
<g id="node13" class="node">
<title>NuiDashboardsCommonModule</title>
<polygon fill="#8dd3c7" stroke="black" points="4431.25,-84.8 4428.25,-88.8 4407.25,-88.8 4404.25,-84.8 4232.75,-84.8 4232.75,-48.8 4431.25,-48.8 4431.25,-84.8"/>
<text text-anchor="middle" x="4332" y="-62.6" font-family="Times,serif" font-size="14.00">NuiDashboardsCommonModule</text>
</g>
<!-- NuiDashboardsCommonModule&#45;&gt;NuiDashboardConfiguratorModule -->
<g id="edge12" class="edge">
<title>NuiDashboardsCommonModule&#45;&gt;NuiDashboardConfiguratorModule</title>
<path fill="none" stroke="black" d="M4332,-85.08C4332,-106.12 4332,-137.8 4332,-137.8 4332,-137.8 2113.78,-137.8 2113.78,-137.8"/>
<polygon fill="black" stroke="black" points="2113.78,-134.3 2103.78,-137.8 2113.78,-141.3 2113.78,-134.3"/>
</g>
<!-- NuiPizzagnaModule -->
<g id="node14" class="node">
<title>NuiPizzagnaModule</title>
<polygon fill="#8dd3c7" stroke="black" points="4214.58,-84.8 4211.58,-88.8 4190.58,-88.8 4187.58,-84.8 4083.42,-84.8 4083.42,-48.8 4214.58,-48.8 4214.58,-84.8"/>
<text text-anchor="middle" x="4149" y="-62.6" font-family="Times,serif" font-size="14.00">NuiPizzagnaModule</text>
</g>
<!-- NuiPizzagnaModule&#45;&gt;NuiDashboardConfiguratorModule -->
<g id="edge13" class="edge">
<title>NuiPizzagnaModule&#45;&gt;NuiDashboardConfiguratorModule</title>
<path fill="none" stroke="black" d="M4149,-85.02C4149,-105.17 4149,-134.8 4149,-134.8 4149,-134.8 2113.72,-134.8 2113.72,-134.8"/>
<polygon fill="black" stroke="black" points="2113.72,-131.3 2103.72,-134.8 2113.72,-138.3 2113.72,-131.3"/>
</g>
<!-- ConfiguratorHeadingService -->
<g id="node26" class="node">
<title>ConfiguratorHeadingService</title>
<ellipse fill="#fdb462" stroke="black" cx="3936" cy="-66.8" rx="122.67" ry="18"/>
<text text-anchor="middle" x="3936" y="-62.6" font-family="Times,serif" font-size="14.00">ConfiguratorHeadingService</text>
</g>
<!-- ConfiguratorHeadingService&#45;&gt;NuiDashboardConfiguratorModule -->
<g id="edge25" class="edge">
<title>ConfiguratorHeadingService&#45;&gt;NuiDashboardConfiguratorModule</title>
<path fill="none" stroke="black" d="M3936,-84.91C3936,-104.14 3936,-131.8 3936,-131.8 3936,-131.8 2113.66,-131.8 2113.66,-131.8"/>
<polygon fill="black" stroke="black" points="2113.66,-128.3 2103.66,-131.8 2113.66,-135.3 2113.66,-128.3"/>
</g>
<!-- ConfiguratorService -->
<g id="node27" class="node">
<title>ConfiguratorService</title>
<ellipse fill="#fdb462" stroke="black" cx="3706" cy="-66.8" rx="89.75" ry="18"/>
<text text-anchor="middle" x="3706" y="-62.6" font-family="Times,serif" font-size="14.00">ConfiguratorService</text>
</g>
<!-- ConfiguratorService&#45;&gt;NuiDashboardConfiguratorModule -->
<g id="edge26" class="edge">
<title>ConfiguratorService&#45;&gt;NuiDashboardConfiguratorModule</title>
<path fill="none" stroke="black" d="M3706,-85.02C3706,-103.63 3706,-129.8 3706,-129.8 3706,-129.8 2113.58,-129.8 2113.58,-129.8"/>
<polygon fill="black" stroke="black" points="2113.58,-126.3 2103.58,-129.8 2113.58,-133.3 2113.58,-126.3"/>
</g>
<!-- KpiWidgetColorService -->
<g id="node28" class="node">
<title>KpiWidgetColorService</title>
<ellipse fill="#fdb462" stroke="black" cx="3493" cy="-66.8" rx="104.79" ry="18"/>
<text text-anchor="middle" x="3493" y="-62.6" font-family="Times,serif" font-size="14.00">KpiWidgetColorService</text>
</g>
<!-- KpiWidgetColorService&#45;&gt;NuiDashboardConfiguratorModule -->
<g id="edge27" class="edge">
<title>KpiWidgetColorService&#45;&gt;NuiDashboardConfiguratorModule</title>
<path fill="none" stroke="black" d="M3493,-84.8C3493,-102.48 3493,-126.8 3493,-126.8 3493,-126.8 2113.69,-126.8 2113.69,-126.8"/>
<polygon fill="black" stroke="black" points="2113.69,-123.3 2103.69,-126.8 2113.69,-130.3 2113.69,-123.3"/>
</g>
<!-- TimeseriesChartPresetService -->
<g id="node29" class="node">
<title>TimeseriesChartPresetService</title>
<ellipse fill="#fdb462" stroke="black" cx="3243" cy="-66.8" rx="127.31" ry="18"/>
<text text-anchor="middle" x="3243" y="-62.6" font-family="Times,serif" font-size="14.00">TimeseriesChartPresetService</text>
</g>
<!-- TimeseriesChartPresetService&#45;&gt;NuiDashboardConfiguratorModule -->
<g id="edge28" class="edge">
<title>TimeseriesChartPresetService&#45;&gt;NuiDashboardConfiguratorModule</title>
<path fill="none" stroke="black" d="M3243,-84.83C3243,-101.86 3243,-124.8 3243,-124.8 3243,-124.8 2113.77,-124.8 2113.77,-124.8"/>
<polygon fill="black" stroke="black" points="2113.77,-121.3 2103.77,-124.8 2113.77,-128.3 2113.77,-121.3"/>
</g>
<!-- TimeseriesScalesService -->
<g id="node30" class="node">
<title>TimeseriesScalesService</title>
<ellipse fill="#fdb462" stroke="black" cx="2991" cy="-66.8" rx="107.05" ry="18"/>
<text text-anchor="middle" x="2991" y="-62.6" font-family="Times,serif" font-size="14.00">TimeseriesScalesService</text>
</g>
<!-- TimeseriesScalesService&#45;&gt;NuiDashboardConfiguratorModule -->
<g id="edge29" class="edge">
<title>TimeseriesScalesService&#45;&gt;NuiDashboardConfiguratorModule</title>
<path fill="none" stroke="black" d="M2893.22,-74.45C2893.22,-89.56 2893.22,-121.8 2893.22,-121.8 2893.22,-121.8 2113.77,-121.8 2113.77,-121.8"/>
<polygon fill="black" stroke="black" points="2113.77,-118.3 2103.77,-121.8 2113.77,-125.3 2113.77,-118.3"/>
</g>
<!-- WidgetClonerService -->
<g id="node31" class="node">
<title>WidgetClonerService</title>
<ellipse fill="#fdb462" stroke="black" cx="2771" cy="-66.8" rx="94.9" ry="18"/>
<text text-anchor="middle" x="2771" y="-62.6" font-family="Times,serif" font-size="14.00">WidgetClonerService</text>
</g>
<!-- WidgetClonerService&#45;&gt;NuiDashboardConfiguratorModule -->
<g id="edge30" class="edge">
<title>WidgetClonerService&#45;&gt;NuiDashboardConfiguratorModule</title>
<path fill="none" stroke="black" d="M2732.77,-83.28C2732.77,-98.84 2732.77,-119.8 2732.77,-119.8 2732.77,-119.8 2113.59,-119.8 2113.59,-119.8"/>
<polygon fill="black" stroke="black" points="2113.59,-116.3 2103.59,-119.8 2113.59,-123.3 2113.59,-116.3"/>
</g>
<!-- WidgetConfiguratorSectionCoordinatorService -->
<g id="node32" class="node">
<title>WidgetConfiguratorSectionCoordinatorService</title>
<ellipse fill="#fdb462" stroke="black" cx="2464" cy="-66.8" rx="193.86" ry="18"/>
<text text-anchor="middle" x="2464" y="-62.6" font-family="Times,serif" font-size="14.00">WidgetConfiguratorSectionCoordinatorService</text>
</g>
<!-- WidgetConfiguratorSectionCoordinatorService&#45;&gt;NuiDashboardConfiguratorModule -->
<g id="edge31" class="edge">
<title>WidgetConfiguratorSectionCoordinatorService&#45;&gt;NuiDashboardConfiguratorModule</title>
<path fill="none" stroke="black" d="M2332.99,-80.2C2332.99,-95.01 2332.99,-116.8 2332.99,-116.8 2332.99,-116.8 2113.77,-116.8 2113.77,-116.8"/>
<polygon fill="black" stroke="black" points="2113.77,-113.3 2103.77,-116.8 2113.77,-120.3 2113.77,-113.3"/>
</g>
<!-- WidgetEditorService -->
<g id="node33" class="node">
<title>WidgetEditorService</title>
<ellipse fill="#fdb462" stroke="black" cx="2160" cy="-66.8" rx="92.61" ry="18"/>
<text text-anchor="middle" x="2160" y="-62.6" font-family="Times,serif" font-size="14.00">WidgetEditorService</text>
</g>
<!-- WidgetEditorService&#45;&gt;NuiDashboardConfiguratorModule -->
<g id="edge32" class="edge">
<title>WidgetEditorService&#45;&gt;NuiDashboardConfiguratorModule</title>
<path fill="none" stroke="black" d="M2085.6,-77.53C2085.6,-77.53 2085.6,-103.67 2085.6,-103.67"/>
<polygon fill="black" stroke="black" points="2082.1,-103.67 2085.6,-113.67 2089.1,-103.67 2082.1,-103.67"/>
</g>
</g>
</svg>
