<?xml version="1.0" encoding="UTF-8" standalone="no"?>
<!DOCTYPE svg PUBLIC "-//W3C//DTD SVG 1.1//EN"
 "http://www.w3.org/Graphics/SVG/1.1/DTD/svg11.dtd">
<!-- Generated by graphviz version 2.44.1 (20200629.0846)
 -->
<!-- Title: dependencies Pages: 1 -->
<svg width="7182pt" height="284pt"
 viewBox="0.00 0.00 7182.00 284.00" xmlns="http://www.w3.org/2000/svg" xmlns:xlink="http://www.w3.org/1999/xlink">
<g id="graph0" class="graph" transform="scale(1 1) rotate(0) translate(4 280)">
<title>dependencies</title>
<polygon fill="white" stroke="transparent" points="-4,4 -4,-280 7178,-280 7178,4 -4,4"/>
<text text-anchor="start" x="3566.01" y="-42.4" font-family="sans-serif" font-weight="bold" font-size="14.00">Legend</text>
<polygon fill="#ffffb3" stroke="transparent" points="3353,-10 3353,-30 3373,-30 3373,-10 3353,-10"/>
<text text-anchor="start" x="3376.63" y="-15.4" font-family="sans-serif" font-size="14.00"> &#160;Declarations</text>
<polygon fill="#8dd3c7" stroke="transparent" points="3466,-10 3466,-30 3486,-30 3486,-10 3466,-10"/>
<text text-anchor="start" x="3489.73" y="-15.4" font-family="sans-serif" font-size="14.00"> &#160;Module</text>
<polygon fill="#80b1d3" stroke="transparent" points="3552,-10 3552,-30 3572,-30 3572,-10 3552,-10"/>
<text text-anchor="start" x="3575.78" y="-15.4" font-family="sans-serif" font-size="14.00"> &#160;Bootstrap</text>
<polygon fill="#fdb462" stroke="transparent" points="3649,-10 3649,-30 3669,-30 3669,-10 3649,-10"/>
<text text-anchor="start" x="3672.67" y="-15.4" font-family="sans-serif" font-size="14.00"> &#160;Providers</text>
<polygon fill="#fb8072" stroke="transparent" points="3745,-10 3745,-30 3765,-30 3765,-10 3745,-10"/>
<text text-anchor="start" x="3768.73" y="-15.4" font-family="sans-serif" font-size="14.00"> &#160;Exports</text>
<g id="clust1" class="cluster">
<title>cluster_NuiDashboardConfiguratorModule</title>
<polygon fill="none" stroke="black" stroke-dasharray="1,5" points="8,-70 8,-268 7166,-268 7166,-70 8,-70"/>
</g>
<g id="clust30" class="cluster">
<title>cluster_NuiDashboardConfiguratorModule_providers</title>
<polygon fill="none" stroke="black" points="5645,-78 5645,-130 7158,-130 7158,-78 5645,-78"/>
</g>
<g id="clust2" class="cluster">
<title>cluster_NuiDashboardConfiguratorModule_declarations</title>
<polygon fill="none" stroke="black" points="388,-78 388,-130 5637,-130 5637,-78 388,-78"/>
</g>
<g id="clust28" class="cluster">
<title>cluster_NuiDashboardConfiguratorModule_exports</title>
<polygon fill="none" stroke="black" points="812,-208 812,-260 6143,-260 6143,-208 812,-208"/>
</g>
<g id="clust27" class="cluster">
<title>cluster_NuiDashboardConfiguratorModule_imports</title>
<polygon fill="none" stroke="black" points="16,-78 16,-130 380,-130 380,-78 16,-78"/>
</g>
<!-- AddDataPipe -->
<g id="node1" class="node">
<title>AddDataPipe</title>
<polygon fill="#ffffb3" stroke="black" points="5628.92,-122 5537.08,-122 5537.08,-86 5628.92,-86 5628.92,-122"/>
<text text-anchor="middle" x="5583" y="-99.8" font-family="Times,serif" font-size="14.00">AddDataPipe</text>
</g>
<!-- NuiDashboardConfiguratorModule -->
<g id="node25" class="node">
<title>NuiDashboardConfiguratorModule</title>
<polygon fill="#8dd3c7" stroke="black" points="3675.5,-187 3672.5,-191 3651.5,-191 3648.5,-187 3462.5,-187 3462.5,-151 3675.5,-151 3675.5,-187"/>
<text text-anchor="middle" x="3569" y="-164.8" font-family="Times,serif" font-size="14.00">NuiDashboardConfiguratorModule</text>
</g>
<!-- AddDataPipe&#45;&gt;NuiDashboardConfiguratorModule -->
<g id="edge1" class="edge">
<title>AddDataPipe&#45;&gt;NuiDashboardConfiguratorModule</title>
<path fill="none" stroke="black" d="M5599.73,-122.02C5599.73,-139.37 5599.73,-163 5599.73,-163 5599.73,-163 3685.68,-163 3685.68,-163"/>
<polygon fill="black" stroke="black" points="3685.68,-159.5 3675.68,-163 3685.68,-166.5 3685.68,-159.5"/>
</g>
<!-- AggregatorMetricSelectorConfigurationComponent -->
<g id="node2" class="node">
<title>AggregatorMetricSelectorConfigurationComponent</title>
<polygon fill="#ffffb3" stroke="black" points="5519.31,-122 5212.69,-122 5212.69,-86 5519.31,-86 5519.31,-122"/>
<text text-anchor="middle" x="5366" y="-99.8" font-family="Times,serif" font-size="14.00">AggregatorMetricSelectorConfigurationComponent</text>
</g>
<!-- AggregatorMetricSelectorConfigurationComponent&#45;&gt;NuiDashboardConfiguratorModule -->
<g id="edge2" class="edge">
<title>AggregatorMetricSelectorConfigurationComponent&#45;&gt;NuiDashboardConfiguratorModule</title>
<path fill="none" stroke="black" d="M5256.64,-122.03C5256.64,-139.06 5256.64,-162 5256.64,-162 5256.64,-162 3685.53,-162 3685.53,-162"/>
<polygon fill="black" stroke="black" points="3685.53,-158.5 3675.53,-162 3685.53,-165.5 3685.53,-158.5"/>
</g>
<!-- ColorPickerComponent -->
<g id="node3" class="node">
<title>ColorPickerComponent</title>
<polygon fill="#ffffb3" stroke="black" points="5194.48,-122 5045.52,-122 5045.52,-86 5194.48,-86 5194.48,-122"/>
<text text-anchor="middle" x="5120" y="-99.8" font-family="Times,serif" font-size="14.00">ColorPickerComponent</text>
</g>
<!-- ColorPickerComponent&#45;&gt;NuiDashboardConfiguratorModule -->
<g id="edge3" class="edge">
<title>ColorPickerComponent&#45;&gt;NuiDashboardConfiguratorModule</title>
<path fill="none" stroke="black" d="M5075.21,-122.04C5075.21,-138.73 5075.21,-161 5075.21,-161 5075.21,-161 3685.51,-161 3685.51,-161"/>
<polygon fill="black" stroke="black" points="3685.51,-157.5 3675.51,-161 3685.51,-164.5 3685.51,-157.5"/>
</g>
<!-- ConfiguratorHeadingComponent -->
<g id="node4" class="node">
<title>ConfiguratorHeadingComponent</title>
<polygon fill="#ffffb3" stroke="black" points="5027.57,-122 4826.43,-122 4826.43,-86 5027.57,-86 5027.57,-122"/>
<text text-anchor="middle" x="4927" y="-99.8" font-family="Times,serif" font-size="14.00">ConfiguratorHeadingComponent</text>
</g>
<!-- ConfiguratorHeadingComponent&#45;&gt;NuiDashboardConfiguratorModule -->
<g id="edge4" class="edge">
<title>ConfiguratorHeadingComponent&#45;&gt;NuiDashboardConfiguratorModule</title>
<path fill="none" stroke="black" d="M4889.91,-122.01C4889.91,-138.05 4889.91,-159 4889.91,-159 4889.91,-159 3685.7,-159 3685.7,-159"/>
<polygon fill="black" stroke="black" points="3685.7,-155.5 3675.7,-159 3685.7,-162.5 3685.7,-155.5"/>
</g>
<!-- DashwizButtonsComponent -->
<g id="node5" class="node">
<title>DashwizButtonsComponent</title>
<polygon fill="#ffffb3" stroke="black" points="4808.87,-122 4635.13,-122 4635.13,-86 4808.87,-86 4808.87,-122"/>
<text text-anchor="middle" x="4722" y="-99.8" font-family="Times,serif" font-size="14.00">DashwizButtonsComponent</text>
</g>
<!-- DashwizButtonsComponent&#45;&gt;NuiDashboardConfiguratorModule -->
<g id="edge5" class="edge">
<title>DashwizButtonsComponent&#45;&gt;NuiDashboardConfiguratorModule</title>
<path fill="none" stroke="black" d="M4705.7,-122.28C4705.7,-137.95 4705.7,-158 4705.7,-158 4705.7,-158 3685.68,-158 3685.68,-158"/>
<polygon fill="black" stroke="black" points="3685.68,-154.5 3675.68,-158 3685.68,-161.5 3685.68,-154.5"/>
</g>
<!-- DashwizComponent -->
<g id="node6" class="node">
<title>DashwizComponent</title>
<polygon fill="#ffffb3" stroke="black" points="4617.31,-122 4486.69,-122 4486.69,-86 4617.31,-86 4617.31,-122"/>
<text text-anchor="middle" x="4552" y="-99.8" font-family="Times,serif" font-size="14.00">DashwizComponent</text>
</g>
<!-- DashwizComponent&#45;&gt;NuiDashboardConfiguratorModule -->
<g id="edge6" class="edge">
<title>DashwizComponent&#45;&gt;NuiDashboardConfiguratorModule</title>
<path fill="none" stroke="black" d="M4508.37,-122.24C4508.37,-137.57 4508.37,-157 4508.37,-157 4508.37,-157 3685.84,-157 3685.84,-157"/>
<polygon fill="black" stroke="black" points="3685.84,-153.5 3675.84,-157 3685.84,-160.5 3685.84,-153.5"/>
</g>
<!-- DashwizStepComponent -->
<g id="node7" class="node">
<title>DashwizStepComponent</title>
<polygon fill="#ffffb3" stroke="black" points="4468.7,-122 4313.3,-122 4313.3,-86 4468.7,-86 4468.7,-122"/>
<text text-anchor="middle" x="4391" y="-99.8" font-family="Times,serif" font-size="14.00">DashwizStepComponent</text>
</g>
<!-- DashwizStepComponent&#45;&gt;NuiDashboardConfiguratorModule -->
<g id="edge7" class="edge">
<title>DashwizStepComponent&#45;&gt;NuiDashboardConfiguratorModule</title>
<path fill="none" stroke="black" d="M4391,-122.12C4391,-136.78 4391,-155 4391,-155 4391,-155 3685.62,-155 3685.62,-155"/>
<polygon fill="black" stroke="black" points="3685.62,-151.5 3675.62,-155 3685.62,-158.5 3685.62,-151.5"/>
</g>
<!-- DataSourceConfigurationComponent -->
<g id="node8" class="node">
<title>DataSourceConfigurationComponent</title>
<polygon fill="#ffffb3" stroke="black" points="4295.68,-122 4070.32,-122 4070.32,-86 4295.68,-86 4295.68,-122"/>
<text text-anchor="middle" x="4183" y="-99.8" font-family="Times,serif" font-size="14.00">DataSourceConfigurationComponent</text>
</g>
<!-- DataSourceConfigurationComponent&#45;&gt;NuiDashboardConfiguratorModule -->
<g id="edge8" class="edge">
<title>DataSourceConfigurationComponent&#45;&gt;NuiDashboardConfiguratorModule</title>
<path fill="none" stroke="black" d="M4168.38,-122.05C4168.38,-136.37 4168.38,-154 4168.38,-154 4168.38,-154 3685.81,-154 3685.81,-154"/>
<polygon fill="black" stroke="black" points="3685.81,-150.5 3675.81,-154 3685.81,-157.5 3685.81,-150.5"/>
</g>
<!-- DataSourceConfigurationV2Component -->
<g id="node9" class="node">
<title>DataSourceConfigurationV2Component</title>
<polygon fill="#ffffb3" stroke="black" points="4052.28,-122 3809.72,-122 3809.72,-86 4052.28,-86 4052.28,-122"/>
<text text-anchor="middle" x="3931" y="-99.8" font-family="Times,serif" font-size="14.00">DataSourceConfigurationV2Component</text>
</g>
<!-- DataSourceConfigurationV2Component&#45;&gt;NuiDashboardConfiguratorModule -->
<g id="edge9" class="edge">
<title>DataSourceConfigurationV2Component&#45;&gt;NuiDashboardConfiguratorModule</title>
<path fill="none" stroke="black" d="M3828.38,-122.25C3828.38,-136.18 3828.38,-153 3828.38,-153 3828.38,-153 3685.62,-153 3685.62,-153"/>
<polygon fill="black" stroke="black" points="3685.62,-149.5 3675.62,-153 3685.62,-156.5 3685.62,-149.5"/>
</g>
<!-- DonutContentConfigurationComponent -->
<g id="node10" class="node">
<title>DonutContentConfigurationComponent</title>
<polygon fill="#ffffb3" stroke="black" points="3791.71,-122 3552.29,-122 3552.29,-86 3791.71,-86 3791.71,-122"/>
<text text-anchor="middle" x="3672" y="-99.8" font-family="Times,serif" font-size="14.00">DonutContentConfigurationComponent</text>
</g>
<!-- DonutContentConfigurationComponent&#45;&gt;NuiDashboardConfiguratorModule -->
<g id="edge10" class="edge">
<title>DonutContentConfigurationComponent&#45;&gt;NuiDashboardConfiguratorModule</title>
<path fill="none" stroke="black" d="M3614.07,-122.11C3614.07,-122.11 3614.07,-140.99 3614.07,-140.99"/>
<polygon fill="black" stroke="black" points="3610.57,-140.99 3614.07,-150.99 3617.57,-140.99 3610.57,-140.99"/>
</g>
<!-- DropAreaComponent -->
<g id="node11" class="node">
<title>DropAreaComponent</title>
<polygon fill="#ffffb3" stroke="black" points="3534.8,-122 3397.2,-122 3397.2,-86 3534.8,-86 3534.8,-122"/>
<text text-anchor="middle" x="3466" y="-99.8" font-family="Times,serif" font-size="14.00">DropAreaComponent</text>
</g>
<!-- DropAreaComponent&#45;&gt;NuiDashboardConfiguratorModule -->
<g id="edge11" class="edge">
<title>DropAreaComponent&#45;&gt;NuiDashboardConfiguratorModule</title>
<path fill="none" stroke="black" d="M3498.45,-122.11C3498.45,-122.11 3498.45,-140.99 3498.45,-140.99"/>
<polygon fill="black" stroke="black" points="3494.95,-140.99 3498.45,-150.99 3501.95,-140.99 3494.95,-140.99"/>
</g>
<!-- EntityFormattingConfigurationComponent -->
<g id="node12" class="node">
<title>EntityFormattingConfigurationComponent</title>
<polygon fill="#ffffb3" stroke="black" points="3379.32,-122 3122.68,-122 3122.68,-86 3379.32,-86 3379.32,-122"/>
<text text-anchor="middle" x="3251" y="-99.8" font-family="Times,serif" font-size="14.00">EntityFormattingConfigurationComponent</text>
</g>
<!-- EntityFormattingConfigurationComponent&#45;&gt;NuiDashboardConfiguratorModule -->
<g id="edge12" class="edge">
<title>EntityFormattingConfigurationComponent&#45;&gt;NuiDashboardConfiguratorModule</title>
<path fill="none" stroke="black" d="M3327.28,-122.25C3327.28,-136.18 3327.28,-153 3327.28,-153 3327.28,-153 3452.27,-153 3452.27,-153"/>
<polygon fill="black" stroke="black" points="3452.27,-156.5 3462.27,-153 3452.27,-149.5 3452.27,-156.5"/>
</g>
<!-- FieldMapperAggregatorConfiguratorComponent -->
<g id="node13" class="node">
<title>FieldMapperAggregatorConfiguratorComponent</title>
<polygon fill="#ffffb3" stroke="black" points="3104.71,-122 2815.29,-122 2815.29,-86 3104.71,-86 3104.71,-122"/>
<text text-anchor="middle" x="2960" y="-99.8" font-family="Times,serif" font-size="14.00">FieldMapperAggregatorConfiguratorComponent</text>
</g>
<!-- FieldMapperAggregatorConfiguratorComponent&#45;&gt;NuiDashboardConfiguratorModule -->
<g id="edge13" class="edge">
<title>FieldMapperAggregatorConfiguratorComponent&#45;&gt;NuiDashboardConfiguratorModule</title>
<path fill="none" stroke="black" d="M3098.7,-122.05C3098.7,-136.37 3098.7,-154 3098.7,-154 3098.7,-154 3452.28,-154 3452.28,-154"/>
<polygon fill="black" stroke="black" points="3452.28,-157.5 3462.28,-154 3452.28,-150.5 3452.28,-157.5"/>
</g>
<!-- FormHeaderIconPipePipe -->
<g id="node14" class="node">
<title>FormHeaderIconPipePipe</title>
<polygon fill="#ffffb3" stroke="black" points="2796.9,-122 2635.1,-122 2635.1,-86 2796.9,-86 2796.9,-122"/>
<text text-anchor="middle" x="2716" y="-99.8" font-family="Times,serif" font-size="14.00">FormHeaderIconPipePipe</text>
</g>
<!-- FormHeaderIconPipePipe&#45;&gt;NuiDashboardConfiguratorModule -->
<g id="edge14" class="edge">
<title>FormHeaderIconPipePipe&#45;&gt;NuiDashboardConfiguratorModule</title>
<path fill="none" stroke="black" d="M2717.49,-122.12C2717.49,-136.78 2717.49,-155 2717.49,-155 2717.49,-155 3452.45,-155 3452.45,-155"/>
<polygon fill="black" stroke="black" points="3452.45,-158.5 3462.45,-155 3452.45,-151.5 3452.45,-158.5"/>
</g>
<!-- GroupingConfigurationComponent -->
<g id="node15" class="node">
<title>GroupingConfigurationComponent</title>
<polygon fill="#ffffb3" stroke="black" points="2617.53,-122 2404.47,-122 2404.47,-86 2617.53,-86 2617.53,-122"/>
<text text-anchor="middle" x="2511" y="-99.8" font-family="Times,serif" font-size="14.00">GroupingConfigurationComponent</text>
</g>
<!-- GroupingConfigurationComponent&#45;&gt;NuiDashboardConfiguratorModule -->
<g id="edge15" class="edge">
<title>GroupingConfigurationComponent&#45;&gt;NuiDashboardConfiguratorModule</title>
<path fill="none" stroke="black" d="M2537.87,-122.24C2537.87,-137.57 2537.87,-157 2537.87,-157 2537.87,-157 3452.05,-157 3452.05,-157"/>
<polygon fill="black" stroke="black" points="3452.05,-160.5 3462.05,-157 3452.05,-153.5 3452.05,-160.5"/>
</g>
<!-- PercentageFormatterComponent -->
<g id="node16" class="node">
<title>PercentageFormatterComponent</title>
<polygon fill="#ffffb3" stroke="black" points="2385.94,-122 2188.06,-122 2188.06,-86 2385.94,-86 2385.94,-122"/>
<text text-anchor="middle" x="2287" y="-99.8" font-family="Times,serif" font-size="14.00">PercentageFormatterComponent</text>
</g>
<!-- PercentageFormatterComponent&#45;&gt;NuiDashboardConfiguratorModule -->
<g id="edge16" class="edge">
<title>PercentageFormatterComponent&#45;&gt;NuiDashboardConfiguratorModule</title>
<path fill="none" stroke="black" d="M2291.9,-122.28C2291.9,-137.95 2291.9,-158 2291.9,-158 2291.9,-158 3452.31,-158 3452.31,-158"/>
<polygon fill="black" stroke="black" points="3452.31,-161.5 3462.31,-158 3452.31,-154.5 3452.31,-161.5"/>
</g>
<!-- PizzagnaRootPipe -->
<g id="node17" class="node">
<title>PizzagnaRootPipe</title>
<polygon fill="#ffffb3" stroke="black" points="2170.15,-122 2051.85,-122 2051.85,-86 2170.15,-86 2170.15,-122"/>
<text text-anchor="middle" x="2111" y="-99.8" font-family="Times,serif" font-size="14.00">PizzagnaRootPipe</text>
</g>
<!-- PizzagnaRootPipe&#45;&gt;NuiDashboardConfiguratorModule -->
<g id="edge17" class="edge">
<title>PizzagnaRootPipe&#45;&gt;NuiDashboardConfiguratorModule</title>
<path fill="none" stroke="black" d="M2111,-122.01C2111,-138.05 2111,-159 2111,-159 2111,-159 3452.38,-159 3452.38,-159"/>
<polygon fill="black" stroke="black" points="3452.38,-162.5 3462.38,-159 3452.38,-155.5 3452.38,-162.5"/>
</g>
<!-- ProportionalChartOptionsEditorV2Component -->
<g id="node18" class="node">
<title>ProportionalChartOptionsEditorV2Component</title>
<polygon fill="#ffffb3" stroke="black" points="2033.36,-122 1754.64,-122 1754.64,-86 2033.36,-86 2033.36,-122"/>
<text text-anchor="middle" x="1894" y="-99.8" font-family="Times,serif" font-size="14.00">ProportionalChartOptionsEditorV2Component</text>
</g>
<!-- ProportionalChartOptionsEditorV2Component&#45;&gt;NuiDashboardConfiguratorModule -->
<g id="edge18" class="edge">
<title>ProportionalChartOptionsEditorV2Component&#45;&gt;NuiDashboardConfiguratorModule</title>
<path fill="none" stroke="black" d="M1993.63,-122.04C1993.63,-138.73 1993.63,-161 1993.63,-161 1993.63,-161 3452.27,-161 3452.27,-161"/>
<polygon fill="black" stroke="black" points="3452.27,-164.5 3462.27,-161 3452.27,-157.5 3452.27,-164.5"/>
</g>
<!-- RefreshRateConfiguratorComponent -->
<g id="node19" class="node">
<title>RefreshRateConfiguratorComponent</title>
<polygon fill="#ffffb3" stroke="black" points="1736.33,-122 1513.67,-122 1513.67,-86 1736.33,-86 1736.33,-122"/>
<text text-anchor="middle" x="1625" y="-99.8" font-family="Times,serif" font-size="14.00">RefreshRateConfiguratorComponent</text>
</g>
<!-- RefreshRateConfiguratorComponent&#45;&gt;NuiDashboardConfiguratorModule -->
<g id="edge19" class="edge">
<title>RefreshRateConfiguratorComponent&#45;&gt;NuiDashboardConfiguratorModule</title>
<path fill="none" stroke="black" d="M1625.12,-122.03C1625.12,-139.06 1625.12,-162 1625.12,-162 1625.12,-162 3452.41,-162 3452.41,-162"/>
<polygon fill="black" stroke="black" points="3452.41,-165.5 3462.41,-162 3452.41,-158.5 3452.41,-165.5"/>
</g>
<!-- WidgetClonerComponent -->
<g id="node20" class="node">
<title>WidgetClonerComponent</title>
<polygon fill="#ffffb3" stroke="black" points="1495.15,-122 1334.85,-122 1334.85,-86 1495.15,-86 1495.15,-122"/>
<text text-anchor="middle" x="1415" y="-99.8" font-family="Times,serif" font-size="14.00">WidgetClonerComponent</text>
</g>
<!-- WidgetClonerComponent&#45;&gt;NuiDashboardConfiguratorModule -->
<g id="edge20" class="edge">
<title>WidgetClonerComponent&#45;&gt;NuiDashboardConfiguratorModule</title>
<path fill="none" stroke="black" d="M1441.77,-122.02C1441.77,-139.37 1441.77,-163 1441.77,-163 1441.77,-163 3452.42,-163 3452.42,-163"/>
<polygon fill="black" stroke="black" points="3452.42,-166.5 3462.42,-163 3452.42,-159.5 3452.42,-166.5"/>
</g>
<!-- WidgetConfiguratorSectionComponent -->
<g id="node21" class="node">
<title>WidgetConfiguratorSectionComponent</title>
<polygon fill="#ffffb3" stroke="black" points="1316.35,-122 1079.65,-122 1079.65,-86 1316.35,-86 1316.35,-122"/>
<text text-anchor="middle" x="1198" y="-99.8" font-family="Times,serif" font-size="14.00">WidgetConfiguratorSectionComponent</text>
</g>
<!-- WidgetConfiguratorSectionComponent&#45;&gt;NuiDashboardConfiguratorModule -->
<g id="edge21" class="edge">
<title>WidgetConfiguratorSectionComponent&#45;&gt;NuiDashboardConfiguratorModule</title>
<path fill="none" stroke="black" d="M1286.13,-122.3C1286.13,-140.27 1286.13,-165 1286.13,-165 1286.13,-165 3452.33,-165 3452.33,-165"/>
<polygon fill="black" stroke="black" points="3452.33,-168.5 3462.33,-165 3452.33,-161.5 3452.33,-168.5"/>
</g>
<!-- WidgetConfiguratorSectionHeaderPipe -->
<g id="node22" class="node">
<title>WidgetConfiguratorSectionHeaderPipe</title>
<polygon fill="#ffffb3" stroke="black" points="1061.32,-122 824.68,-122 824.68,-86 1061.32,-86 1061.32,-122"/>
<text text-anchor="middle" x="943" y="-99.8" font-family="Times,serif" font-size="14.00">WidgetConfiguratorSectionHeaderPipe</text>
</g>
<!-- WidgetConfiguratorSectionHeaderPipe&#45;&gt;NuiDashboardConfiguratorModule -->
<g id="edge22" class="edge">
<title>WidgetConfiguratorSectionHeaderPipe&#45;&gt;NuiDashboardConfiguratorModule</title>
<path fill="none" stroke="black" d="M1030.7,-122.27C1030.7,-140.56 1030.7,-166 1030.7,-166 1030.7,-166 3452.36,-166 3452.36,-166"/>
<polygon fill="black" stroke="black" points="3452.36,-169.5 3462.36,-166 3452.36,-162.5 3452.36,-169.5"/>
</g>
<!-- WidgetEditorAccordionFormStatePipe -->
<g id="node23" class="node">
<title>WidgetEditorAccordionFormStatePipe</title>
<polygon fill="#ffffb3" stroke="black" points="806.01,-122 571.99,-122 571.99,-86 806.01,-86 806.01,-122"/>
<text text-anchor="middle" x="689" y="-99.8" font-family="Times,serif" font-size="14.00">WidgetEditorAccordionFormStatePipe</text>
</g>
<!-- WidgetEditorAccordionFormStatePipe&#45;&gt;NuiDashboardConfiguratorModule -->
<g id="edge23" class="edge">
<title>WidgetEditorAccordionFormStatePipe&#45;&gt;NuiDashboardConfiguratorModule</title>
<path fill="none" stroke="black" d="M689,-122.22C689,-140.83 689,-167 689,-167 689,-167 3452.22,-167 3452.22,-167"/>
<polygon fill="black" stroke="black" points="3452.22,-170.5 3462.22,-167 3452.22,-163.5 3452.22,-170.5"/>
</g>
<!-- WidgetEditorComponent -->
<g id="node24" class="node">
<title>WidgetEditorComponent</title>
<polygon fill="#ffffb3" stroke="black" points="553.54,-122 396.46,-122 396.46,-86 553.54,-86 553.54,-122"/>
<text text-anchor="middle" x="475" y="-99.8" font-family="Times,serif" font-size="14.00">WidgetEditorComponent</text>
</g>
<!-- WidgetEditorComponent&#45;&gt;NuiDashboardConfiguratorModule -->
<g id="edge24" class="edge">
<title>WidgetEditorComponent&#45;&gt;NuiDashboardConfiguratorModule</title>
<path fill="none" stroke="black" d="M475,-122.11C475,-141.34 475,-169 475,-169 475,-169 3452.05,-169 3452.05,-169"/>
<polygon fill="black" stroke="black" points="3452.05,-172.5 3462.05,-169 3452.05,-165.5 3452.05,-172.5"/>
</g>
<!-- AddDataPipe  -->
<g id="node28" class="node">
<title>AddDataPipe </title>
<polygon fill="#fb8072" stroke="black" points="6135.42,-252 6040.58,-252 6040.58,-216 6135.42,-216 6135.42,-252"/>
<text text-anchor="middle" x="6088" y="-229.8" font-family="Times,serif" font-size="14.00">AddDataPipe </text>
</g>
<!-- NuiDashboardConfiguratorModule&#45;&gt;AddDataPipe  -->
<g id="edge27" class="edge">
<title>NuiDashboardConfiguratorModule&#45;&gt;AddDataPipe </title>
<path fill="none" stroke="black" stroke-dasharray="5,2" d="M3675.63,-173C4155.08,-173 6088,-173 6088,-173 6088,-173 6088,-205.7 6088,-205.7"/>
<polygon fill="black" stroke="black" points="6084.5,-205.7 6088,-215.7 6091.5,-205.7 6084.5,-205.7"/>
</g>
<!-- AggregatorMetricSelectorConfigurationComponent  -->
<g id="node29" class="node">
<title>AggregatorMetricSelectorConfigurationComponent </title>
<polygon fill="#fb8072" stroke="black" points="6022.31,-252 5711.69,-252 5711.69,-216 6022.31,-216 6022.31,-252"/>
<text text-anchor="middle" x="5867" y="-229.8" font-family="Times,serif" font-size="14.00">AggregatorMetricSelectorConfigurationComponent </text>
</g>
<!-- NuiDashboardConfiguratorModule&#45;&gt;AggregatorMetricSelectorConfigurationComponent  -->
<g id="edge28" class="edge">
<title>NuiDashboardConfiguratorModule&#45;&gt;AggregatorMetricSelectorConfigurationComponent </title>
<path fill="none" stroke="black" stroke-dasharray="5,2" d="M3675.78,-174C4117.04,-174 5775.2,-174 5775.2,-174 5775.2,-174 5775.2,-206 5775.2,-206"/>
<polygon fill="black" stroke="black" points="5771.7,-206 5775.2,-216 5778.7,-206 5771.7,-206"/>
</g>
<!-- ColorPickerComponent  -->
<g id="node30" class="node">
<title>ColorPickerComponent </title>
<polygon fill="#fb8072" stroke="black" points="5694.48,-252 5541.52,-252 5541.52,-216 5694.48,-216 5694.48,-252"/>
<text text-anchor="middle" x="5618" y="-229.8" font-family="Times,serif" font-size="14.00">ColorPickerComponent </text>
</g>
<!-- NuiDashboardConfiguratorModule&#45;&gt;ColorPickerComponent  -->
<g id="edge29" class="edge">
<title>NuiDashboardConfiguratorModule&#45;&gt;ColorPickerComponent </title>
<path fill="none" stroke="black" stroke-dasharray="5,2" d="M3675.56,-175C4089.88,-175 5570.74,-175 5570.74,-175 5570.74,-175 5570.74,-205.98 5570.74,-205.98"/>
<polygon fill="black" stroke="black" points="5567.24,-205.98 5570.74,-215.98 5574.24,-205.98 5567.24,-205.98"/>
</g>
<!-- ConfiguratorHeadingComponent  -->
<g id="node31" class="node">
<title>ConfiguratorHeadingComponent </title>
<polygon fill="#fb8072" stroke="black" points="5523.07,-252 5318.93,-252 5318.93,-216 5523.07,-216 5523.07,-252"/>
<text text-anchor="middle" x="5421" y="-229.8" font-family="Times,serif" font-size="14.00">ConfiguratorHeadingComponent </text>
</g>
<!-- NuiDashboardConfiguratorModule&#45;&gt;ConfiguratorHeadingComponent  -->
<g id="edge30" class="edge">
<title>NuiDashboardConfiguratorModule&#45;&gt;ConfiguratorHeadingComponent </title>
<path fill="none" stroke="black" stroke-dasharray="5,2" d="M3675.79,-177C4069.77,-177 5419.06,-177 5419.06,-177 5419.06,-177 5419.06,-205.96 5419.06,-205.96"/>
<polygon fill="black" stroke="black" points="5415.56,-205.96 5419.06,-215.96 5422.56,-205.96 5415.56,-205.96"/>
</g>
<!-- DashwizButtonsComponent  -->
<g id="node32" class="node">
<title>DashwizButtonsComponent </title>
<polygon fill="#fb8072" stroke="black" points="5300.87,-252 5123.13,-252 5123.13,-216 5300.87,-216 5300.87,-252"/>
<text text-anchor="middle" x="5212" y="-229.8" font-family="Times,serif" font-size="14.00">DashwizButtonsComponent </text>
</g>
<!-- NuiDashboardConfiguratorModule&#45;&gt;DashwizButtonsComponent  -->
<g id="edge31" class="edge">
<title>NuiDashboardConfiguratorModule&#45;&gt;DashwizButtonsComponent </title>
<path fill="none" stroke="black" stroke-dasharray="5,2" d="M3675.79,-178C4032.26,-178 5158.9,-178 5158.9,-178 5158.9,-178 5158.9,-205.97 5158.9,-205.97"/>
<polygon fill="black" stroke="black" points="5155.4,-205.97 5158.9,-215.97 5162.4,-205.97 5155.4,-205.97"/>
</g>
<!-- DashwizComponent  -->
<g id="node33" class="node">
<title>DashwizComponent </title>
<polygon fill="#fb8072" stroke="black" points="5104.81,-252 4971.19,-252 4971.19,-216 5104.81,-216 5104.81,-252"/>
<text text-anchor="middle" x="5038" y="-229.8" font-family="Times,serif" font-size="14.00">DashwizComponent </text>
</g>
<!-- NuiDashboardConfiguratorModule&#45;&gt;DashwizComponent  -->
<g id="edge32" class="edge">
<title>NuiDashboardConfiguratorModule&#45;&gt;DashwizComponent </title>
<path fill="none" stroke="black" stroke-dasharray="5,2" d="M3675.63,-179C4007.4,-179 4999.32,-179 4999.32,-179 4999.32,-179 4999.32,-205.99 4999.32,-205.99"/>
<polygon fill="black" stroke="black" points="4995.82,-205.99 4999.32,-215.99 5002.82,-205.99 4995.82,-205.99"/>
</g>
<!-- DashwizStepComponent  -->
<g id="node34" class="node">
<title>DashwizStepComponent </title>
<polygon fill="#fb8072" stroke="black" points="4953.2,-252 4794.8,-252 4794.8,-216 4953.2,-216 4953.2,-252"/>
<text text-anchor="middle" x="4874" y="-229.8" font-family="Times,serif" font-size="14.00">DashwizStepComponent </text>
</g>
<!-- NuiDashboardConfiguratorModule&#45;&gt;DashwizStepComponent  -->
<g id="edge33" class="edge">
<title>NuiDashboardConfiguratorModule&#45;&gt;DashwizStepComponent </title>
<path fill="none" stroke="black" stroke-dasharray="5,2" d="M3675.71,-181C3975.19,-181 4801.79,-181 4801.79,-181 4801.79,-181 4801.79,-205.76 4801.79,-205.76"/>
<polygon fill="black" stroke="black" points="4798.29,-205.76 4801.79,-215.76 4805.29,-205.76 4798.29,-205.76"/>
</g>
<!-- DataSourceConfigurationComponent  -->
<g id="node35" class="node">
<title>DataSourceConfigurationComponent </title>
<polygon fill="#fb8072" stroke="black" points="4776.18,-252 4547.82,-252 4547.82,-216 4776.18,-216 4776.18,-252"/>
<text text-anchor="middle" x="4662" y="-229.8" font-family="Times,serif" font-size="14.00">DataSourceConfigurationComponent </text>
</g>
<!-- NuiDashboardConfiguratorModule&#45;&gt;DataSourceConfigurationComponent  -->
<g id="edge34" class="edge">
<title>NuiDashboardConfiguratorModule&#45;&gt;DataSourceConfigurationComponent </title>
<path fill="none" stroke="black" stroke-dasharray="5,2" d="M3675.54,-182C3935.73,-182 4582.41,-182 4582.41,-182 4582.41,-182 4582.41,-205.81 4582.41,-205.81"/>
<polygon fill="black" stroke="black" points="4578.91,-205.81 4582.41,-215.81 4585.91,-205.81 4578.91,-205.81"/>
</g>
<!-- DataSourceConfigurationV2Component  -->
<g id="node36" class="node">
<title>DataSourceConfigurationV2Component </title>
<polygon fill="#fb8072" stroke="black" points="4529.78,-252 4284.22,-252 4284.22,-216 4529.78,-216 4529.78,-252"/>
<text text-anchor="middle" x="4407" y="-229.8" font-family="Times,serif" font-size="14.00">DataSourceConfigurationV2Component </text>
</g>
<!-- NuiDashboardConfiguratorModule&#45;&gt;DataSourceConfigurationV2Component  -->
<g id="edge35" class="edge">
<title>NuiDashboardConfiguratorModule&#45;&gt;DataSourceConfigurationV2Component </title>
<path fill="none" stroke="black" stroke-dasharray="5,2" d="M3675.75,-183C3876.41,-183 4289.85,-183 4289.85,-183 4289.85,-183 4289.85,-205.88 4289.85,-205.88"/>
<polygon fill="black" stroke="black" points="4286.35,-205.88 4289.85,-215.88 4293.35,-205.88 4286.35,-205.88"/>
</g>
<!-- DonutContentConfigurationComponent  -->
<g id="node37" class="node">
<title>DonutContentConfigurationComponent </title>
<polygon fill="#fb8072" stroke="black" points="4266.21,-252 4023.79,-252 4023.79,-216 4266.21,-216 4266.21,-252"/>
<text text-anchor="middle" x="4145" y="-229.8" font-family="Times,serif" font-size="14.00">DonutContentConfigurationComponent </text>
</g>
<!-- NuiDashboardConfiguratorModule&#45;&gt;DonutContentConfigurationComponent  -->
<g id="edge36" class="edge">
<title>NuiDashboardConfiguratorModule&#45;&gt;DonutContentConfigurationComponent </title>
<path fill="none" stroke="black" stroke-dasharray="5,2" d="M3675.69,-185C3814.06,-185 4037.89,-185 4037.89,-185 4037.89,-185 4037.89,-205.75 4037.89,-205.75"/>
<polygon fill="black" stroke="black" points="4034.39,-205.75 4037.89,-215.75 4041.39,-205.75 4034.39,-205.75"/>
</g>
<!-- DropAreaComponent  -->
<g id="node38" class="node">
<title>DropAreaComponent </title>
<polygon fill="#fb8072" stroke="black" points="4005.3,-252 3864.7,-252 3864.7,-216 4005.3,-216 4005.3,-252"/>
<text text-anchor="middle" x="3935" y="-229.8" font-family="Times,serif" font-size="14.00">DropAreaComponent </text>
</g>
<!-- NuiDashboardConfiguratorModule&#45;&gt;DropAreaComponent  -->
<g id="edge37" class="edge">
<title>NuiDashboardConfiguratorModule&#45;&gt;DropAreaComponent </title>
<path fill="none" stroke="black" stroke-dasharray="5,2" d="M3675.85,-186C3783.88,-186 3935,-186 3935,-186 3935,-186 3935,-205.85 3935,-205.85"/>
<polygon fill="black" stroke="black" points="3931.5,-205.85 3935,-215.85 3938.5,-205.85 3931.5,-205.85"/>
</g>
<!-- EntityFormattingConfigurationComponent  -->
<g id="node39" class="node">
<title>EntityFormattingConfigurationComponent </title>
<polygon fill="#fb8072" stroke="black" points="3846.82,-252 3587.18,-252 3587.18,-216 3846.82,-216 3846.82,-252"/>
<text text-anchor="middle" x="3717" y="-229.8" font-family="Times,serif" font-size="14.00">EntityFormattingConfigurationComponent </text>
</g>
<!-- NuiDashboardConfiguratorModule&#45;&gt;EntityFormattingConfigurationComponent  -->
<g id="edge38" class="edge">
<title>NuiDashboardConfiguratorModule&#45;&gt;EntityFormattingConfigurationComponent </title>
<path fill="none" stroke="black" stroke-dasharray="5,2" d="M3631.42,-187.11C3631.42,-187.11 3631.42,-205.99 3631.42,-205.99"/>
<polygon fill="black" stroke="black" points="3627.92,-205.99 3631.42,-215.99 3634.92,-205.99 3627.92,-205.99"/>
</g>
<!-- FieldMapperAggregatorConfiguratorComponent  -->
<g id="node40" class="node">
<title>FieldMapperAggregatorConfiguratorComponent </title>
<polygon fill="#fb8072" stroke="black" points="3568.71,-252 3275.29,-252 3275.29,-216 3568.71,-216 3568.71,-252"/>
<text text-anchor="middle" x="3422" y="-229.8" font-family="Times,serif" font-size="14.00">FieldMapperAggregatorConfiguratorComponent </text>
</g>
<!-- NuiDashboardConfiguratorModule&#45;&gt;FieldMapperAggregatorConfiguratorComponent  -->
<g id="edge39" class="edge">
<title>NuiDashboardConfiguratorModule&#45;&gt;FieldMapperAggregatorConfiguratorComponent </title>
<path fill="none" stroke="black" stroke-dasharray="5,2" d="M3515.43,-187.11C3515.43,-187.11 3515.43,-205.99 3515.43,-205.99"/>
<polygon fill="black" stroke="black" points="3511.93,-205.99 3515.43,-215.99 3518.93,-205.99 3511.93,-205.99"/>
</g>
<!-- FormHeaderIconPipePipe  -->
<g id="node41" class="node">
<title>FormHeaderIconPipePipe </title>
<polygon fill="#fb8072" stroke="black" points="3257.4,-252 3092.6,-252 3092.6,-216 3257.4,-216 3257.4,-252"/>
<text text-anchor="middle" x="3175" y="-229.8" font-family="Times,serif" font-size="14.00">FormHeaderIconPipePipe </text>
</g>
<!-- NuiDashboardConfiguratorModule&#45;&gt;FormHeaderIconPipePipe  -->
<g id="edge40" class="edge">
<title>NuiDashboardConfiguratorModule&#45;&gt;FormHeaderIconPipePipe </title>
<path fill="none" stroke="black" stroke-dasharray="5,2" d="M3462.46,-186C3350.4,-186 3190.14,-186 3190.14,-186 3190.14,-186 3190.14,-205.85 3190.14,-205.85"/>
<polygon fill="black" stroke="black" points="3186.64,-205.85 3190.14,-215.85 3193.64,-205.85 3186.64,-205.85"/>
</g>
<!-- GroupingConfigurationComponent  -->
<g id="node42" class="node">
<title>GroupingConfigurationComponent </title>
<polygon fill="#fb8072" stroke="black" points="3074.53,-252 2857.47,-252 2857.47,-216 3074.53,-216 3074.53,-252"/>
<text text-anchor="middle" x="2966" y="-229.8" font-family="Times,serif" font-size="14.00">GroupingConfigurationComponent </text>
</g>
<!-- NuiDashboardConfiguratorModule&#45;&gt;GroupingConfigurationComponent  -->
<g id="edge41" class="edge">
<title>NuiDashboardConfiguratorModule&#45;&gt;GroupingConfigurationComponent </title>
<path fill="none" stroke="black" stroke-dasharray="5,2" d="M3462.24,-185C3289.04,-185 2966,-185 2966,-185 2966,-185 2966,-205.75 2966,-205.75"/>
<polygon fill="black" stroke="black" points="2962.5,-205.75 2966,-215.75 2969.5,-205.75 2962.5,-205.75"/>
</g>
<!-- PercentageFormatterComponent  -->
<g id="node43" class="node">
<title>PercentageFormatterComponent </title>
<polygon fill="#fb8072" stroke="black" points="2839.94,-252 2638.06,-252 2638.06,-216 2839.94,-216 2839.94,-252"/>
<text text-anchor="middle" x="2739" y="-229.8" font-family="Times,serif" font-size="14.00">PercentageFormatterComponent </text>
</g>
<!-- NuiDashboardConfiguratorModule&#45;&gt;PercentageFormatterComponent  -->
<g id="edge42" class="edge">
<title>NuiDashboardConfiguratorModule&#45;&gt;PercentageFormatterComponent </title>
<path fill="none" stroke="black" stroke-dasharray="5,2" d="M3462.36,-183C3257.15,-183 2827.43,-183 2827.43,-183 2827.43,-183 2827.43,-205.88 2827.43,-205.88"/>
<polygon fill="black" stroke="black" points="2823.93,-205.88 2827.43,-215.88 2830.93,-205.88 2823.93,-205.88"/>
</g>
<!-- PizzagnaRootPipe  -->
<g id="node44" class="node">
<title>PizzagnaRootPipe </title>
<polygon fill="#fb8072" stroke="black" points="2620.15,-252 2497.85,-252 2497.85,-216 2620.15,-216 2620.15,-252"/>
<text text-anchor="middle" x="2559" y="-229.8" font-family="Times,serif" font-size="14.00">PizzagnaRootPipe </text>
</g>
<!-- NuiDashboardConfiguratorModule&#45;&gt;PizzagnaRootPipe  -->
<g id="edge43" class="edge">
<title>NuiDashboardConfiguratorModule&#45;&gt;PizzagnaRootPipe </title>
<path fill="none" stroke="black" stroke-dasharray="5,2" d="M3462.46,-182C3206.46,-182 2577.82,-182 2577.82,-182 2577.82,-182 2577.82,-205.81 2577.82,-205.81"/>
<polygon fill="black" stroke="black" points="2574.32,-205.81 2577.82,-215.81 2581.32,-205.81 2574.32,-205.81"/>
</g>
<!-- ProportionalChartOptionsEditorV2Component  -->
<g id="node45" class="node">
<title>ProportionalChartOptionsEditorV2Component </title>
<polygon fill="#fb8072" stroke="black" points="2480.36,-252 2197.64,-252 2197.64,-216 2480.36,-216 2480.36,-252"/>
<text text-anchor="middle" x="2339" y="-229.8" font-family="Times,serif" font-size="14.00">ProportionalChartOptionsEditorV2Component </text>
</g>
<!-- NuiDashboardConfiguratorModule&#45;&gt;ProportionalChartOptionsEditorV2Component  -->
<g id="edge44" class="edge">
<title>NuiDashboardConfiguratorModule&#45;&gt;ProportionalChartOptionsEditorV2Component </title>
<path fill="none" stroke="black" stroke-dasharray="5,2" d="M3462.49,-181C3181.6,-181 2442.21,-181 2442.21,-181 2442.21,-181 2442.21,-205.76 2442.21,-205.76"/>
<polygon fill="black" stroke="black" points="2438.71,-205.76 2442.21,-215.76 2445.71,-205.76 2438.71,-205.76"/>
</g>
<!-- RefreshRateConfiguratorComponent  -->
<g id="node46" class="node">
<title>RefreshRateConfiguratorComponent </title>
<polygon fill="#fb8072" stroke="black" points="2180.33,-252 1953.67,-252 1953.67,-216 2180.33,-216 2180.33,-252"/>
<text text-anchor="middle" x="2067" y="-229.8" font-family="Times,serif" font-size="14.00">RefreshRateConfiguratorComponent </text>
</g>
<!-- NuiDashboardConfiguratorModule&#45;&gt;RefreshRateConfiguratorComponent  -->
<g id="edge45" class="edge">
<title>NuiDashboardConfiguratorModule&#45;&gt;RefreshRateConfiguratorComponent </title>
<path fill="none" stroke="black" stroke-dasharray="5,2" d="M3462.24,-179C3136.15,-179 2175.25,-179 2175.25,-179 2175.25,-179 2175.25,-205.99 2175.25,-205.99"/>
<polygon fill="black" stroke="black" points="2171.75,-205.99 2175.25,-215.99 2178.75,-205.99 2171.75,-205.99"/>
</g>
<!-- WidgetClonerComponent  -->
<g id="node47" class="node">
<title>WidgetClonerComponent </title>
<polygon fill="#fb8072" stroke="black" points="1936.15,-252 1771.85,-252 1771.85,-216 1936.15,-216 1936.15,-252"/>
<text text-anchor="middle" x="1854" y="-229.8" font-family="Times,serif" font-size="14.00">WidgetClonerComponent </text>
</g>
<!-- NuiDashboardConfiguratorModule&#45;&gt;WidgetClonerComponent  -->
<g id="edge46" class="edge">
<title>NuiDashboardConfiguratorModule&#45;&gt;WidgetClonerComponent </title>
<path fill="none" stroke="black" stroke-dasharray="5,2" d="M3462.37,-178C3087.68,-178 1854,-178 1854,-178 1854,-178 1854,-205.97 1854,-205.97"/>
<polygon fill="black" stroke="black" points="1850.5,-205.97 1854,-215.97 1857.5,-205.97 1850.5,-205.97"/>
</g>
<!-- WidgetConfiguratorSectionComponent  -->
<g id="node48" class="node">
<title>WidgetConfiguratorSectionComponent </title>
<polygon fill="#fb8072" stroke="black" points="1754.35,-252 1513.65,-252 1513.65,-216 1754.35,-216 1754.35,-252"/>
<text text-anchor="middle" x="1634" y="-229.8" font-family="Times,serif" font-size="14.00">WidgetConfiguratorSectionComponent </text>
</g>
<!-- NuiDashboardConfiguratorModule&#45;&gt;WidgetConfiguratorSectionComponent  -->
<g id="edge47" class="edge">
<title>NuiDashboardConfiguratorModule&#45;&gt;WidgetConfiguratorSectionComponent </title>
<path fill="none" stroke="black" stroke-dasharray="5,2" d="M3462.4,-177C3072.32,-177 1745.3,-177 1745.3,-177 1745.3,-177 1745.3,-205.96 1745.3,-205.96"/>
<polygon fill="black" stroke="black" points="1741.8,-205.96 1745.3,-215.96 1748.8,-205.96 1741.8,-205.96"/>
</g>
<!-- WidgetConfiguratorSectionHeaderPipe  -->
<g id="node49" class="node">
<title>WidgetConfiguratorSectionHeaderPipe </title>
<polygon fill="#fb8072" stroke="black" points="1496.32,-252 1255.68,-252 1255.68,-216 1496.32,-216 1496.32,-252"/>
<text text-anchor="middle" x="1376" y="-229.8" font-family="Times,serif" font-size="14.00">WidgetConfiguratorSectionHeaderPipe </text>
</g>
<!-- NuiDashboardConfiguratorModule&#45;&gt;WidgetConfiguratorSectionHeaderPipe  -->
<g id="edge48" class="edge">
<title>NuiDashboardConfiguratorModule&#45;&gt;WidgetConfiguratorSectionHeaderPipe </title>
<path fill="none" stroke="black" stroke-dasharray="5,2" d="M3462.34,-175C3024.51,-175 1388.23,-175 1388.23,-175 1388.23,-175 1388.23,-205.98 1388.23,-205.98"/>
<polygon fill="black" stroke="black" points="1384.73,-205.98 1388.23,-215.98 1391.73,-205.98 1384.73,-205.98"/>
</g>
<!-- WidgetEditorAccordionFormStatePipe  -->
<g id="node50" class="node">
<title>WidgetEditorAccordionFormStatePipe </title>
<polygon fill="#fb8072" stroke="black" points="1238.01,-252 999.99,-252 999.99,-216 1238.01,-216 1238.01,-252"/>
<text text-anchor="middle" x="1119" y="-229.8" font-family="Times,serif" font-size="14.00">WidgetEditorAccordionFormStatePipe </text>
</g>
<!-- NuiDashboardConfiguratorModule&#45;&gt;WidgetEditorAccordionFormStatePipe  -->
<g id="edge49" class="edge">
<title>NuiDashboardConfiguratorModule&#45;&gt;WidgetEditorAccordionFormStatePipe </title>
<path fill="none" stroke="black" stroke-dasharray="5,2" d="M3462.33,-174C2995.88,-174 1158.79,-174 1158.79,-174 1158.79,-174 1158.79,-206 1158.79,-206"/>
<polygon fill="black" stroke="black" points="1155.29,-206 1158.79,-216 1162.29,-206 1155.29,-206"/>
</g>
<!-- WidgetEditorComponent  -->
<g id="node51" class="node">
<title>WidgetEditorComponent </title>
<polygon fill="#fb8072" stroke="black" points="981.54,-252 820.46,-252 820.46,-216 981.54,-216 981.54,-252"/>
<text text-anchor="middle" x="901" y="-229.8" font-family="Times,serif" font-size="14.00">WidgetEditorComponent </text>
</g>
<!-- NuiDashboardConfiguratorModule&#45;&gt;WidgetEditorComponent  -->
<g id="edge50" class="edge">
<title>NuiDashboardConfiguratorModule&#45;&gt;WidgetEditorComponent </title>
<path fill="none" stroke="black" stroke-dasharray="5,2" d="M3462.43,-173C2965.87,-173 903.06,-173 903.06,-173 903.06,-173 903.06,-205.7 903.06,-205.7"/>
<polygon fill="black" stroke="black" points="899.56,-205.7 903.06,-215.7 906.56,-205.7 899.56,-205.7"/>
</g>
<!-- NuiDashboardsCommonModule -->
<g id="node26" class="node">
<title>NuiDashboardsCommonModule</title>
<polygon fill="#8dd3c7" stroke="black" points="372.25,-122 369.25,-126 348.25,-126 345.25,-122 173.75,-122 173.75,-86 372.25,-86 372.25,-122"/>
<text text-anchor="middle" x="273" y="-99.8" font-family="Times,serif" font-size="14.00">NuiDashboardsCommonModule</text>
</g>
<!-- NuiDashboardsCommonModule&#45;&gt;NuiDashboardConfiguratorModule -->
<g id="edge25" class="edge">
<title>NuiDashboardsCommonModule&#45;&gt;NuiDashboardConfiguratorModule</title>
<path fill="none" stroke="black" d="M273,-122.03C273,-141.58 273,-170 273,-170 273,-170 3452.14,-170 3452.14,-170"/>
<polygon fill="black" stroke="black" points="3452.14,-173.5 3462.14,-170 3452.14,-166.5 3452.14,-173.5"/>
</g>
<!-- NuiPizzagnaModule -->
<g id="node27" class="node">
<title>NuiPizzagnaModule</title>
<polygon fill="#8dd3c7" stroke="black" points="155.58,-122 152.58,-126 131.58,-126 128.58,-122 24.42,-122 24.42,-86 155.58,-86 155.58,-122"/>
<text text-anchor="middle" x="90" y="-99.8" font-family="Times,serif" font-size="14.00">NuiPizzagnaModule</text>
</g>
<!-- NuiPizzagnaModule&#45;&gt;NuiDashboardConfiguratorModule -->
<g id="edge26" class="edge">
<title>NuiPizzagnaModule&#45;&gt;NuiDashboardConfiguratorModule</title>
<path fill="none" stroke="black" d="M90,-122.31C90,-142.15 90,-171 90,-171 90,-171 3452.03,-171 3452.03,-171"/>
<polygon fill="black" stroke="black" points="3452.03,-174.5 3462.03,-171 3452.03,-167.5 3452.03,-174.5"/>
</g>
<!-- ConfiguratorService -->
<g id="node52" class="node">
<title>ConfiguratorService</title>
<ellipse fill="#fdb462" stroke="black" cx="7060" cy="-104" rx="89.75" ry="18"/>
<text text-anchor="middle" x="7060" y="-99.8" font-family="Times,serif" font-size="14.00">ConfiguratorService</text>
</g>
<!-- ConfiguratorService&#45;&gt;NuiDashboardConfiguratorModule -->
<g id="edge51" class="edge">
<title>ConfiguratorService&#45;&gt;NuiDashboardConfiguratorModule</title>
<path fill="none" stroke="black" d="M7060,-122.31C7060,-142.15 7060,-171 7060,-171 7060,-171 3685.86,-171 3685.86,-171"/>
<polygon fill="black" stroke="black" points="3685.86,-167.5 3675.86,-171 3685.86,-174.5 3685.86,-167.5"/>
</g>
<!-- KpiWidgetColorService -->
<g id="node53" class="node">
<title>KpiWidgetColorService</title>
<ellipse fill="#fdb462" stroke="black" cx="6847" cy="-104" rx="104.79" ry="18"/>
<text text-anchor="middle" x="6847" y="-99.8" font-family="Times,serif" font-size="14.00">KpiWidgetColorService</text>
</g>
<!-- KpiWidgetColorService&#45;&gt;NuiDashboardConfiguratorModule -->
<g id="edge52" class="edge">
<title>KpiWidgetColorService&#45;&gt;NuiDashboardConfiguratorModule</title>
<path fill="none" stroke="black" d="M6847,-122.03C6847,-141.58 6847,-170 6847,-170 6847,-170 3685.74,-170 3685.74,-170"/>
<polygon fill="black" stroke="black" points="3685.74,-166.5 3675.74,-170 3685.74,-173.5 3685.74,-166.5"/>
</g>
<!-- TimeseriesChartPresetService -->
<g id="node54" class="node">
<title>TimeseriesChartPresetService</title>
<ellipse fill="#fdb462" stroke="black" cx="6597" cy="-104" rx="127.31" ry="18"/>
<text text-anchor="middle" x="6597" y="-99.8" font-family="Times,serif" font-size="14.00">TimeseriesChartPresetService</text>
</g>
<!-- TimeseriesChartPresetService&#45;&gt;NuiDashboardConfiguratorModule -->
<g id="edge53" class="edge">
<title>TimeseriesChartPresetService&#45;&gt;NuiDashboardConfiguratorModule</title>
<path fill="none" stroke="black" d="M6597,-122.11C6597,-141.34 6597,-169 6597,-169 6597,-169 3685.88,-169 3685.88,-169"/>
<polygon fill="black" stroke="black" points="3685.88,-165.5 3675.88,-169 3685.88,-172.5 3685.88,-165.5"/>
</g>
<!-- WidgetClonerService -->
<g id="node55" class="node">
<title>WidgetClonerService</title>
<ellipse fill="#fdb462" stroke="black" cx="6357" cy="-104" rx="94.9" ry="18"/>
<text text-anchor="middle" x="6357" y="-99.8" font-family="Times,serif" font-size="14.00">WidgetClonerService</text>
</g>
<!-- WidgetClonerService&#45;&gt;NuiDashboardConfiguratorModule -->
<g id="edge54" class="edge">
<title>WidgetClonerService&#45;&gt;NuiDashboardConfiguratorModule</title>
<path fill="none" stroke="black" d="M6357,-122.22C6357,-140.83 6357,-167 6357,-167 6357,-167 3685.74,-167 3685.74,-167"/>
<polygon fill="black" stroke="black" points="3685.74,-163.5 3675.74,-167 3685.73,-170.5 3685.74,-163.5"/>
</g>
<!-- WidgetConfiguratorSectionCoordinatorService -->
<g id="node56" class="node">
<title>WidgetConfiguratorSectionCoordinatorService</title>
<ellipse fill="#fdb462" stroke="black" cx="6050" cy="-104" rx="193.86" ry="18"/>
<text text-anchor="middle" x="6050" y="-99.8" font-family="Times,serif" font-size="14.00">WidgetConfiguratorSectionCoordinatorService</text>
</g>
<!-- WidgetConfiguratorSectionCoordinatorService&#45;&gt;NuiDashboardConfiguratorModule -->
<g id="edge55" class="edge">
<title>WidgetConfiguratorSectionCoordinatorService&#45;&gt;NuiDashboardConfiguratorModule</title>
<path fill="none" stroke="black" d="M5939.11,-119.01C5939.11,-137.36 5939.11,-166 5939.11,-166 5939.11,-166 3685.83,-166 3685.83,-166"/>
<polygon fill="black" stroke="black" points="3685.83,-162.5 3675.83,-166 3685.83,-169.5 3685.83,-162.5"/>
</g>
<!-- WidgetEditorService -->
<g id="node57" class="node">
<title>WidgetEditorService</title>
<ellipse fill="#fdb462" stroke="black" cx="5746" cy="-104" rx="92.61" ry="18"/>
<text text-anchor="middle" x="5746" y="-99.8" font-family="Times,serif" font-size="14.00">WidgetEditorService</text>
</g>
<!-- WidgetEditorService&#45;&gt;NuiDashboardConfiguratorModule -->
<g id="edge56" class="edge">
<title>WidgetEditorService&#45;&gt;NuiDashboardConfiguratorModule</title>
<path fill="none" stroke="black" d="M5673.84,-115.47C5673.84,-133.14 5673.84,-165 5673.84,-165 5673.84,-165 3685.55,-165 3685.55,-165"/>
<polygon fill="black" stroke="black" points="3685.55,-161.5 3675.55,-165 3685.55,-168.5 3685.55,-161.5"/>
</g>
</g>
</svg>
