<?xml version="1.0" encoding="UTF-8" standalone="no"?>
<!DOCTYPE svg PUBLIC "-//W3C//DTD SVG 1.1//EN"
 "http://www.w3.org/Graphics/SVG/1.1/DTD/svg11.dtd">
<!-- Generated by graphviz version 2.46.1 (20210213.1702)
 -->
<!-- Title: dependencies Pages: 1 -->
<svg width="594pt" height="284pt"
 viewBox="0.00 0.00 594.00 284.00" xmlns="http://www.w3.org/2000/svg" xmlns:xlink="http://www.w3.org/1999/xlink">
<g id="graph0" class="graph" transform="scale(1 1) rotate(0) translate(4 280)">
<title>dependencies</title>
<polygon fill="white" stroke="transparent" points="-4,4 -4,-280 590,-280 590,4 -4,4"/>
<text text-anchor="start" x="272.01" y="-42.4" font-family="sans-serif" font-weight="bold" font-size="14.00">Legend</text>
<polygon fill="#ffffb3" stroke="transparent" points="59,-10 59,-30 79,-30 79,-10 59,-10"/>
<text text-anchor="start" x="82.63" y="-15.4" font-family="sans-serif" font-size="14.00"> &#160;Declarations</text>
<polygon fill="#8dd3c7" stroke="transparent" points="172,-10 172,-30 192,-30 192,-10 172,-10"/>
<text text-anchor="start" x="195.73" y="-15.4" font-family="sans-serif" font-size="14.00"> &#160;Module</text>
<polygon fill="#80b1d3" stroke="transparent" points="258,-10 258,-30 278,-30 278,-10 258,-10"/>
<text text-anchor="start" x="281.78" y="-15.4" font-family="sans-serif" font-size="14.00"> &#160;Bootstrap</text>
<polygon fill="#fdb462" stroke="transparent" points="355,-10 355,-30 375,-30 375,-10 355,-10"/>
<text text-anchor="start" x="378.67" y="-15.4" font-family="sans-serif" font-size="14.00"> &#160;Providers</text>
<polygon fill="#fb8072" stroke="transparent" points="451,-10 451,-30 471,-30 471,-10 451,-10"/>
<text text-anchor="start" x="474.73" y="-15.4" font-family="sans-serif" font-size="14.00"> &#160;Exports</text>
<g id="clust1" class="cluster">
<title>cluster_NuiPizzagnaModule</title>
<polygon fill="none" stroke="black" stroke-dasharray="1,5" points="8,-70 8,-268 578,-268 578,-70 8,-70"/>
</g>
<g id="clust6" class="cluster">
<title>cluster_NuiPizzagnaModule_exports</title>
<polygon fill="none" stroke="black" points="99,-208 99,-260 439,-260 439,-208 99,-208"/>
</g>
<g id="clust5" class="cluster">
<title>cluster_NuiPizzagnaModule_imports</title>
<polygon fill="none" stroke="black" points="356,-78 356,-130 570,-130 570,-78 356,-78"/>
</g>
<g id="clust2" class="cluster">
<title>cluster_NuiPizzagnaModule_declarations</title>
<polygon fill="none" stroke="black" points="16,-78 16,-130 348,-130 348,-78 16,-78"/>
</g>
<!-- ComponentPortalDirective -->
<g id="node1" class="node">
<title>ComponentPortalDirective</title>
<polygon fill="#ffffb3" stroke="black" points="340.35,-122 173.65,-122 173.65,-86 340.35,-86 340.35,-122"/>
<text text-anchor="middle" x="257" y="-99.8" font-family="Times,serif" font-size="14.00">ComponentPortalDirective</text>
</g>
<!-- NuiPizzagnaModule -->
<g id="node3" class="node">
<title>NuiPizzagnaModule</title>
<polygon fill="#8dd3c7" stroke="black" points="322.58,-187 319.58,-191 298.58,-191 295.58,-187 191.42,-187 191.42,-151 322.58,-151 322.58,-187"/>
<text text-anchor="middle" x="257" y="-164.8" font-family="Times,serif" font-size="14.00">NuiPizzagnaModule</text>
</g>
<!-- ComponentPortalDirective&#45;&gt;NuiPizzagnaModule -->
<g id="edge1" class="edge">
<title>ComponentPortalDirective&#45;&gt;NuiPizzagnaModule</title>
<path fill="none" stroke="black" d="M257,-122.11C257,-122.11 257,-140.99 257,-140.99"/>
<polygon fill="black" stroke="black" points="253.5,-140.99 257,-150.99 260.5,-140.99 253.5,-140.99"/>
</g>
<!-- PizzagnaComponent -->
<g id="node2" class="node">
<title>PizzagnaComponent</title>
<polygon fill="#ffffb3" stroke="black" points="155.86,-122 24.14,-122 24.14,-86 155.86,-86 155.86,-122"/>
<text text-anchor="middle" x="90" y="-99.8" font-family="Times,serif" font-size="14.00">PizzagnaComponent</text>
</g>
<!-- PizzagnaComponent&#45;&gt;NuiPizzagnaModule -->
<g id="edge2" class="edge">
<title>PizzagnaComponent&#45;&gt;NuiPizzagnaModule</title>
<path fill="none" stroke="black" d="M131.62,-122.11C131.62,-141.34 131.62,-169 131.62,-169 131.62,-169 181.37,-169 181.37,-169"/>
<polygon fill="black" stroke="black" points="181.38,-172.5 191.37,-169 181.37,-165.5 181.38,-172.5"/>
</g>
<!-- ComponentPortalDirective  -->
<g id="node5" class="node">
<title>ComponentPortalDirective </title>
<polygon fill="#fb8072" stroke="black" points="431.35,-252 260.65,-252 260.65,-216 431.35,-216 431.35,-252"/>
<text text-anchor="middle" x="346" y="-229.8" font-family="Times,serif" font-size="14.00">ComponentPortalDirective </text>
</g>
<!-- NuiPizzagnaModule&#45;&gt;ComponentPortalDirective  -->
<g id="edge4" class="edge">
<title>NuiPizzagnaModule&#45;&gt;ComponentPortalDirective </title>
<path fill="none" stroke="black" stroke-dasharray="5,2" d="M291.68,-187.11C291.68,-187.11 291.68,-205.99 291.68,-205.99"/>
<polygon fill="black" stroke="black" points="288.18,-205.99 291.68,-215.99 295.18,-205.99 288.18,-205.99"/>
</g>
<!-- PizzagnaComponent  -->
<g id="node6" class="node">
<title>PizzagnaComponent </title>
<polygon fill="#fb8072" stroke="black" points="242.86,-252 107.14,-252 107.14,-216 242.86,-216 242.86,-252"/>
<text text-anchor="middle" x="175" y="-229.8" font-family="Times,serif" font-size="14.00">PizzagnaComponent </text>
</g>
<!-- NuiPizzagnaModule&#45;&gt;PizzagnaComponent  -->
<g id="edge5" class="edge">
<title>NuiPizzagnaModule&#45;&gt;PizzagnaComponent </title>
<path fill="none" stroke="black" stroke-dasharray="5,2" d="M217.07,-187.11C217.07,-187.11 217.07,-205.99 217.07,-205.99"/>
<polygon fill="black" stroke="black" points="213.57,-205.99 217.07,-215.99 220.57,-205.99 213.57,-205.99"/>
</g>
<!-- NuiDashboardsCommonModule -->
<g id="node4" class="node">
<title>NuiDashboardsCommonModule</title>
<polygon fill="#8dd3c7" stroke="black" points="562.25,-122 559.25,-126 538.25,-126 535.25,-122 363.75,-122 363.75,-86 562.25,-86 562.25,-122"/>
<text text-anchor="middle" x="463" y="-99.8" font-family="Times,serif" font-size="14.00">NuiDashboardsCommonModule</text>
</g>
<!-- NuiDashboardsCommonModule&#45;&gt;NuiPizzagnaModule -->
<g id="edge3" class="edge">
<title>NuiDashboardsCommonModule&#45;&gt;NuiPizzagnaModule</title>
<path fill="none" stroke="black" d="M397.4,-122.11C397.4,-141.34 397.4,-169 397.4,-169 397.4,-169 332.68,-169 332.68,-169"/>
<polygon fill="black" stroke="black" points="332.68,-165.5 322.68,-169 332.68,-172.5 332.68,-165.5"/>
</g>
</g>
</svg>
