<?xml version="1.0" encoding="UTF-8" standalone="no"?>
<!DOCTYPE svg PUBLIC "-//W3C//DTD SVG 1.1//EN"
 "http://www.w3.org/Graphics/SVG/1.1/DTD/svg11.dtd">
<!-- Generated by graphviz version 2.46.0 (20210119.1425)
 -->
<!-- Title: dependencies Pages: 1 -->
<svg width="4463pt" height="284pt"
 viewBox="0.00 0.00 4463.00 284.00" xmlns="http://www.w3.org/2000/svg" xmlns:xlink="http://www.w3.org/1999/xlink">
<g id="graph0" class="graph" transform="scale(1 1) rotate(0) translate(4 280)">
<title>dependencies</title>
<polygon fill="white" stroke="transparent" points="-4,4 -4,-280 4459,-280 4459,4 -4,4"/>
<text text-anchor="start" x="2206.51" y="-42.4" font-family="sans-serif" font-weight="bold" font-size="14.00">Legend</text>
<polygon fill="#ffffb3" stroke="transparent" points="1993.5,-10 1993.5,-30 2013.5,-30 2013.5,-10 1993.5,-10"/>
<text text-anchor="start" x="2017.13" y="-15.4" font-family="sans-serif" font-size="14.00"> &#160;Declarations</text>
<polygon fill="#8dd3c7" stroke="transparent" points="2106.5,-10 2106.5,-30 2126.5,-30 2126.5,-10 2106.5,-10"/>
<text text-anchor="start" x="2130.23" y="-15.4" font-family="sans-serif" font-size="14.00"> &#160;Module</text>
<polygon fill="#80b1d3" stroke="transparent" points="2192.5,-10 2192.5,-30 2212.5,-30 2212.5,-10 2192.5,-10"/>
<text text-anchor="start" x="2216.28" y="-15.4" font-family="sans-serif" font-size="14.00"> &#160;Bootstrap</text>
<polygon fill="#fdb462" stroke="transparent" points="2289.5,-10 2289.5,-30 2309.5,-30 2309.5,-10 2289.5,-10"/>
<text text-anchor="start" x="2313.17" y="-15.4" font-family="sans-serif" font-size="14.00"> &#160;Providers</text>
<polygon fill="#fb8072" stroke="transparent" points="2385.5,-10 2385.5,-30 2405.5,-30 2405.5,-10 2385.5,-10"/>
<text text-anchor="start" x="2409.23" y="-15.4" font-family="sans-serif" font-size="14.00"> &#160;Exports</text>
<g id="clust1" class="cluster">
<title>cluster_NuiDashboardConfiguratorModule</title>
<polygon fill="none" stroke="black" stroke-dasharray="1,5" points="8,-70 8,-268 4447,-268 4447,-70 8,-70"/>
</g>
<g id="clust14" class="cluster">
<title>cluster_NuiDashboardConfiguratorModule_imports</title>
<polygon fill="none" stroke="black" points="4075,-78 4075,-130 4439,-130 4439,-78 4075,-78"/>
</g>
<g id="clust17" class="cluster">
<title>cluster_NuiDashboardConfiguratorModule_providers</title>
<polygon fill="none" stroke="black" points="2059,-78 2059,-130 4067,-130 4067,-78 2059,-78"/>
</g>
<g id="clust2" class="cluster">
<title>cluster_NuiDashboardConfiguratorModule_declarations</title>
<polygon fill="none" stroke="black" points="16,-78 16,-130 2051,-130 2051,-78 16,-78"/>
</g>
<g id="clust15" class="cluster">
<title>cluster_NuiDashboardConfiguratorModule_exports</title>
<polygon fill="none" stroke="black" points="837,-208 837,-260 2910,-260 2910,-208 837,-208"/>
</g>
<!-- AddDataPipe -->
<g id="node1" class="node">
<title>AddDataPipe</title>
<polygon fill="#ffffb3" stroke="black" points="2042.92,-122 1951.08,-122 1951.08,-86 2042.92,-86 2042.92,-122"/>
<text text-anchor="middle" x="1997" y="-99.8" font-family="Times,serif" font-size="14.00">AddDataPipe</text>
</g>
<!-- NuiDashboardConfiguratorModule -->
<g id="node12" class="node">
<title>NuiDashboardConfiguratorModule</title>
<polygon fill="#8dd3c7" stroke="black" points="2103.5,-187 2100.5,-191 2079.5,-191 2076.5,-187 1890.5,-187 1890.5,-151 2103.5,-151 2103.5,-187"/>
<text text-anchor="middle" x="1997" y="-164.8" font-family="Times,serif" font-size="14.00">NuiDashboardConfiguratorModule</text>
</g>
<!-- AddDataPipe&#45;&gt;NuiDashboardConfiguratorModule -->
<g id="edge1" class="edge">
<title>AddDataPipe&#45;&gt;NuiDashboardConfiguratorModule</title>
<path fill="none" stroke="black" d="M1997,-122.11C1997,-122.11 1997,-140.99 1997,-140.99"/>
<polygon fill="black" stroke="black" points="1993.5,-140.99 1997,-150.99 2000.5,-140.99 1993.5,-140.99"/>
</g>
<!-- ColorPickerComponent -->
<g id="node2" class="node">
<title>ColorPickerComponent</title>
<polygon fill="#ffffb3" stroke="black" points="1933.48,-122 1784.52,-122 1784.52,-86 1933.48,-86 1933.48,-122"/>
<text text-anchor="middle" x="1859" y="-99.8" font-family="Times,serif" font-size="14.00">ColorPickerComponent</text>
</g>
<!-- ColorPickerComponent&#45;&gt;NuiDashboardConfiguratorModule -->
<g id="edge2" class="edge">
<title>ColorPickerComponent&#45;&gt;NuiDashboardConfiguratorModule</title>
<path fill="none" stroke="black" d="M1911.87,-122.11C1911.87,-122.11 1911.87,-140.99 1911.87,-140.99"/>
<polygon fill="black" stroke="black" points="1908.37,-140.99 1911.87,-150.99 1915.37,-140.99 1908.37,-140.99"/>
</g>
<!-- ConfiguratorHeadingComponent -->
<g id="node3" class="node">
<title>ConfiguratorHeadingComponent</title>
<polygon fill="#ffffb3" stroke="black" points="1766.57,-122 1565.43,-122 1565.43,-86 1766.57,-86 1766.57,-122"/>
<text text-anchor="middle" x="1666" y="-99.8" font-family="Times,serif" font-size="14.00">ConfiguratorHeadingComponent</text>
</g>
<!-- ConfiguratorHeadingComponent&#45;&gt;NuiDashboardConfiguratorModule -->
<g id="edge3" class="edge">
<title>ConfiguratorHeadingComponent&#45;&gt;NuiDashboardConfiguratorModule</title>
<path fill="none" stroke="black" d="M1755.04,-122.05C1755.04,-136.37 1755.04,-154 1755.04,-154 1755.04,-154 1880.17,-154 1880.17,-154"/>
<polygon fill="black" stroke="black" points="1880.17,-157.5 1890.17,-154 1880.17,-150.5 1880.17,-157.5"/>
</g>
<!-- DashwizComponent -->
<g id="node4" class="node">
<title>DashwizComponent</title>
<polygon fill="#ffffb3" stroke="black" points="1547.31,-122 1416.69,-122 1416.69,-86 1547.31,-86 1547.31,-122"/>
<text text-anchor="middle" x="1482" y="-99.8" font-family="Times,serif" font-size="14.00">DashwizComponent</text>
</g>
<!-- DashwizComponent&#45;&gt;NuiDashboardConfiguratorModule -->
<g id="edge4" class="edge">
<title>DashwizComponent&#45;&gt;NuiDashboardConfiguratorModule</title>
<path fill="none" stroke="black" d="M1482,-122.24C1482,-137.57 1482,-157 1482,-157 1482,-157 1880.29,-157 1880.29,-157"/>
<polygon fill="black" stroke="black" points="1880.29,-160.5 1890.29,-157 1880.29,-153.5 1880.29,-160.5"/>
</g>
<!-- DashwizStepComponent -->
<g id="node5" class="node">
<title>DashwizStepComponent</title>
<polygon fill="#ffffb3" stroke="black" points="1398.7,-122 1243.3,-122 1243.3,-86 1398.7,-86 1398.7,-122"/>
<text text-anchor="middle" x="1321" y="-99.8" font-family="Times,serif" font-size="14.00">DashwizStepComponent</text>
</g>
<!-- DashwizStepComponent&#45;&gt;NuiDashboardConfiguratorModule -->
<g id="edge5" class="edge">
<title>DashwizStepComponent&#45;&gt;NuiDashboardConfiguratorModule</title>
<path fill="none" stroke="black" d="M1378.72,-122.01C1378.72,-138.05 1378.72,-159 1378.72,-159 1378.72,-159 1880.36,-159 1880.36,-159"/>
<polygon fill="black" stroke="black" points="1880.36,-162.5 1890.36,-159 1880.36,-155.5 1880.36,-162.5"/>
</g>
<!-- DropAreaComponent -->
<g id="node6" class="node">
<title>DropAreaComponent</title>
<polygon fill="#ffffb3" stroke="black" points="1225.8,-122 1088.2,-122 1088.2,-86 1225.8,-86 1225.8,-122"/>
<text text-anchor="middle" x="1157" y="-99.8" font-family="Times,serif" font-size="14.00">DropAreaComponent</text>
</g>
<!-- DropAreaComponent&#45;&gt;NuiDashboardConfiguratorModule -->
<g id="edge6" class="edge">
<title>DropAreaComponent&#45;&gt;NuiDashboardConfiguratorModule</title>
<path fill="none" stroke="black" d="M1163.24,-122.03C1163.24,-139.06 1163.24,-162 1163.24,-162 1163.24,-162 1880.13,-162 1880.13,-162"/>
<polygon fill="black" stroke="black" points="1880.13,-165.5 1890.13,-162 1880.13,-158.5 1880.13,-165.5"/>
</g>
<!-- FormHeaderIconPipePipe -->
<g id="node7" class="node">
<title>FormHeaderIconPipePipe</title>
<polygon fill="#ffffb3" stroke="black" points="1070.9,-122 909.1,-122 909.1,-86 1070.9,-86 1070.9,-122"/>
<text text-anchor="middle" x="990" y="-99.8" font-family="Times,serif" font-size="14.00">FormHeaderIconPipePipe</text>
</g>
<!-- FormHeaderIconPipePipe&#45;&gt;NuiDashboardConfiguratorModule -->
<g id="edge7" class="edge">
<title>FormHeaderIconPipePipe&#45;&gt;NuiDashboardConfiguratorModule</title>
<path fill="none" stroke="black" d="M990,-122C990,-139.68 990,-164 990,-164 990,-164 1880.19,-164 1880.19,-164"/>
<polygon fill="black" stroke="black" points="1880.19,-167.5 1890.19,-164 1880.19,-160.5 1880.19,-167.5"/>
</g>
<!-- PizzagnaRootPipe -->
<g id="node8" class="node">
<title>PizzagnaRootPipe</title>
<polygon fill="#ffffb3" stroke="black" points="891.15,-122 772.85,-122 772.85,-86 891.15,-86 891.15,-122"/>
<text text-anchor="middle" x="832" y="-99.8" font-family="Times,serif" font-size="14.00">PizzagnaRootPipe</text>
</g>
<!-- PizzagnaRootPipe&#45;&gt;NuiDashboardConfiguratorModule -->
<g id="edge8" class="edge">
<title>PizzagnaRootPipe&#45;&gt;NuiDashboardConfiguratorModule</title>
<path fill="none" stroke="black" d="M868.16,-122.22C868.16,-140.83 868.16,-167 868.16,-167 868.16,-167 1880.29,-167 1880.29,-167"/>
<polygon fill="black" stroke="black" points="1880.29,-170.5 1890.29,-167 1880.29,-163.5 1880.29,-170.5"/>
</g>
<!-- RefreshRateConfiguratorComponent -->
<g id="node9" class="node">
<title>RefreshRateConfiguratorComponent</title>
<polygon fill="#ffffb3" stroke="black" points="754.33,-122 531.67,-122 531.67,-86 754.33,-86 754.33,-122"/>
<text text-anchor="middle" x="643" y="-99.8" font-family="Times,serif" font-size="14.00">RefreshRateConfiguratorComponent</text>
</g>
<!-- RefreshRateConfiguratorComponent&#45;&gt;NuiDashboardConfiguratorModule -->
<g id="edge9" class="edge">
<title>RefreshRateConfiguratorComponent&#45;&gt;NuiDashboardConfiguratorModule</title>
<path fill="none" stroke="black" d="M643,-122.11C643,-141.34 643,-169 643,-169 643,-169 1880.47,-169 1880.47,-169"/>
<polygon fill="black" stroke="black" points="1880.47,-172.5 1890.47,-169 1880.47,-165.5 1880.47,-172.5"/>
</g>
<!-- WidgetConfiguratorSectionHeaderPipe -->
<g id="node10" class="node">
<title>WidgetConfiguratorSectionHeaderPipe</title>
<polygon fill="#ffffb3" stroke="black" points="513.32,-122 276.68,-122 276.68,-86 513.32,-86 513.32,-122"/>
<text text-anchor="middle" x="395" y="-99.8" font-family="Times,serif" font-size="14.00">WidgetConfiguratorSectionHeaderPipe</text>
</g>
<!-- WidgetConfiguratorSectionHeaderPipe&#45;&gt;NuiDashboardConfiguratorModule -->
<g id="edge10" class="edge">
<title>WidgetConfiguratorSectionHeaderPipe&#45;&gt;NuiDashboardConfiguratorModule</title>
<path fill="none" stroke="black" d="M395,-122.22C395,-142.37 395,-172 395,-172 395,-172 1880.34,-172 1880.34,-172"/>
<polygon fill="black" stroke="black" points="1880.34,-175.5 1890.34,-172 1880.34,-168.5 1880.34,-175.5"/>
</g>
<!-- WidgetEditorAccordionFormStatePipe -->
<g id="node11" class="node">
<title>WidgetEditorAccordionFormStatePipe</title>
<polygon fill="#ffffb3" stroke="black" points="258.01,-122 23.99,-122 23.99,-86 258.01,-86 258.01,-122"/>
<text text-anchor="middle" x="141" y="-99.8" font-family="Times,serif" font-size="14.00">WidgetEditorAccordionFormStatePipe</text>
</g>
<!-- WidgetEditorAccordionFormStatePipe&#45;&gt;NuiDashboardConfiguratorModule -->
<g id="edge11" class="edge">
<title>WidgetEditorAccordionFormStatePipe&#45;&gt;NuiDashboardConfiguratorModule</title>
<path fill="none" stroke="black" d="M141,-122.28C141,-143.32 141,-175 141,-175 141,-175 1880.21,-175 1880.21,-175"/>
<polygon fill="black" stroke="black" points="1880.21,-178.5 1890.21,-175 1880.21,-171.5 1880.21,-178.5"/>
</g>
<!-- AddDataPipe  -->
<g id="node15" class="node">
<title>AddDataPipe </title>
<polygon fill="#fb8072" stroke="black" points="2902.42,-252 2807.58,-252 2807.58,-216 2902.42,-216 2902.42,-252"/>
<text text-anchor="middle" x="2855" y="-229.8" font-family="Times,serif" font-size="14.00">AddDataPipe </text>
</g>
<!-- NuiDashboardConfiguratorModule&#45;&gt;AddDataPipe  -->
<g id="edge14" class="edge">
<title>NuiDashboardConfiguratorModule&#45;&gt;AddDataPipe </title>
<path fill="none" stroke="black" stroke-dasharray="5,2" d="M2103.76,-177C2329.91,-177 2836.62,-177 2836.62,-177 2836.62,-177 2836.62,-205.96 2836.62,-205.96"/>
<polygon fill="black" stroke="black" points="2833.12,-205.96 2836.62,-215.96 2840.12,-205.96 2833.12,-205.96"/>
</g>
<!-- ColorPickerComponent  -->
<g id="node16" class="node">
<title>ColorPickerComponent </title>
<polygon fill="#fb8072" stroke="black" points="2789.48,-252 2636.52,-252 2636.52,-216 2789.48,-216 2789.48,-252"/>
<text text-anchor="middle" x="2713" y="-229.8" font-family="Times,serif" font-size="14.00">ColorPickerComponent </text>
</g>
<!-- NuiDashboardConfiguratorModule&#45;&gt;ColorPickerComponent  -->
<g id="edge15" class="edge">
<title>NuiDashboardConfiguratorModule&#45;&gt;ColorPickerComponent </title>
<path fill="none" stroke="black" stroke-dasharray="5,2" d="M2103.66,-180C2288.16,-180 2647.34,-180 2647.34,-180 2647.34,-180 2647.34,-205.72 2647.34,-205.72"/>
<polygon fill="black" stroke="black" points="2643.84,-205.72 2647.34,-215.72 2650.84,-205.72 2643.84,-205.72"/>
</g>
<!-- ConfiguratorHeadingComponent  -->
<g id="node17" class="node">
<title>ConfiguratorHeadingComponent </title>
<polygon fill="#fb8072" stroke="black" points="2618.07,-252 2413.93,-252 2413.93,-216 2618.07,-216 2618.07,-252"/>
<text text-anchor="middle" x="2516" y="-229.8" font-family="Times,serif" font-size="14.00">ConfiguratorHeadingComponent </text>
</g>
<!-- NuiDashboardConfiguratorModule&#45;&gt;ConfiguratorHeadingComponent  -->
<g id="edge16" class="edge">
<title>NuiDashboardConfiguratorModule&#45;&gt;ConfiguratorHeadingComponent </title>
<path fill="none" stroke="black" stroke-dasharray="5,2" d="M2103.59,-182C2255.48,-182 2516,-182 2516,-182 2516,-182 2516,-205.81 2516,-205.81"/>
<polygon fill="black" stroke="black" points="2512.5,-205.81 2516,-215.81 2519.5,-205.81 2512.5,-205.81"/>
</g>
<!-- DashwizComponent  -->
<g id="node18" class="node">
<title>DashwizComponent </title>
<polygon fill="#fb8072" stroke="black" points="2395.81,-252 2262.19,-252 2262.19,-216 2395.81,-216 2395.81,-252"/>
<text text-anchor="middle" x="2329" y="-229.8" font-family="Times,serif" font-size="14.00">DashwizComponent </text>
</g>
<!-- NuiDashboardConfiguratorModule&#45;&gt;DashwizComponent  -->
<g id="edge17" class="edge">
<title>NuiDashboardConfiguratorModule&#45;&gt;DashwizComponent </title>
<path fill="none" stroke="black" stroke-dasharray="5,2" d="M2103.73,-185C2178.86,-185 2266.08,-185 2266.08,-185 2266.08,-185 2266.08,-205.75 2266.08,-205.75"/>
<polygon fill="black" stroke="black" points="2262.58,-205.75 2266.08,-215.75 2269.58,-205.75 2262.58,-205.75"/>
</g>
<!-- DashwizStepComponent  -->
<g id="node19" class="node">
<title>DashwizStepComponent </title>
<polygon fill="#fb8072" stroke="black" points="2244.2,-252 2085.8,-252 2085.8,-216 2244.2,-216 2244.2,-252"/>
<text text-anchor="middle" x="2165" y="-229.8" font-family="Times,serif" font-size="14.00">DashwizStepComponent </text>
</g>
<!-- NuiDashboardConfiguratorModule&#45;&gt;DashwizStepComponent  -->
<g id="edge18" class="edge">
<title>NuiDashboardConfiguratorModule&#45;&gt;DashwizStepComponent </title>
<path fill="none" stroke="black" stroke-dasharray="5,2" d="M2094.7,-187.11C2094.7,-187.11 2094.7,-205.99 2094.7,-205.99"/>
<polygon fill="black" stroke="black" points="2091.2,-205.99 2094.7,-215.99 2098.2,-205.99 2091.2,-205.99"/>
</g>
<!-- DropAreaComponent  -->
<g id="node20" class="node">
<title>DropAreaComponent </title>
<polygon fill="#fb8072" stroke="black" points="2067.3,-252 1926.7,-252 1926.7,-216 2067.3,-216 2067.3,-252"/>
<text text-anchor="middle" x="1997" y="-229.8" font-family="Times,serif" font-size="14.00">DropAreaComponent </text>
</g>
<!-- NuiDashboardConfiguratorModule&#45;&gt;DropAreaComponent  -->
<g id="edge19" class="edge">
<title>NuiDashboardConfiguratorModule&#45;&gt;DropAreaComponent </title>
<path fill="none" stroke="black" stroke-dasharray="5,2" d="M1997,-187.11C1997,-187.11 1997,-205.99 1997,-205.99"/>
<polygon fill="black" stroke="black" points="1993.5,-205.99 1997,-215.99 2000.5,-205.99 1993.5,-205.99"/>
</g>
<!-- FormHeaderIconPipePipe  -->
<g id="node21" class="node">
<title>FormHeaderIconPipePipe </title>
<polygon fill="#fb8072" stroke="black" points="1908.4,-252 1743.6,-252 1743.6,-216 1908.4,-216 1908.4,-252"/>
<text text-anchor="middle" x="1826" y="-229.8" font-family="Times,serif" font-size="14.00">FormHeaderIconPipePipe </text>
</g>
<!-- NuiDashboardConfiguratorModule&#45;&gt;FormHeaderIconPipePipe  -->
<g id="edge20" class="edge">
<title>NuiDashboardConfiguratorModule&#45;&gt;FormHeaderIconPipePipe </title>
<path fill="none" stroke="black" stroke-dasharray="5,2" d="M1899.35,-187.11C1899.35,-187.11 1899.35,-205.99 1899.35,-205.99"/>
<polygon fill="black" stroke="black" points="1895.85,-205.99 1899.35,-215.99 1902.85,-205.99 1895.85,-205.99"/>
</g>
<!-- PizzagnaRootPipe  -->
<g id="node22" class="node">
<title>PizzagnaRootPipe </title>
<polygon fill="#fb8072" stroke="black" points="1725.15,-252 1602.85,-252 1602.85,-216 1725.15,-216 1725.15,-252"/>
<text text-anchor="middle" x="1664" y="-229.8" font-family="Times,serif" font-size="14.00">PizzagnaRootPipe </text>
</g>
<!-- NuiDashboardConfiguratorModule&#45;&gt;PizzagnaRootPipe  -->
<g id="edge21" class="edge">
<title>NuiDashboardConfiguratorModule&#45;&gt;PizzagnaRootPipe </title>
<path fill="none" stroke="black" stroke-dasharray="5,2" d="M1890.26,-185C1792.86,-185 1664,-185 1664,-185 1664,-185 1664,-205.75 1664,-205.75"/>
<polygon fill="black" stroke="black" points="1660.5,-205.75 1664,-215.75 1667.5,-205.75 1660.5,-205.75"/>
</g>
<!-- RefreshRateConfiguratorComponent  -->
<g id="node23" class="node">
<title>RefreshRateConfiguratorComponent </title>
<polygon fill="#fb8072" stroke="black" points="1585.33,-252 1358.67,-252 1358.67,-216 1585.33,-216 1585.33,-252"/>
<text text-anchor="middle" x="1472" y="-229.8" font-family="Times,serif" font-size="14.00">RefreshRateConfiguratorComponent </text>
</g>
<!-- NuiDashboardConfiguratorModule&#45;&gt;RefreshRateConfiguratorComponent  -->
<g id="edge22" class="edge">
<title>NuiDashboardConfiguratorModule&#45;&gt;RefreshRateConfiguratorComponent </title>
<path fill="none" stroke="black" stroke-dasharray="5,2" d="M1890.32,-182C1765.39,-182 1575.32,-182 1575.32,-182 1575.32,-182 1575.32,-205.81 1575.32,-205.81"/>
<polygon fill="black" stroke="black" points="1571.82,-205.81 1575.32,-215.81 1578.82,-205.81 1571.82,-205.81"/>
</g>
<!-- WidgetConfiguratorSectionHeaderPipe  -->
<g id="node24" class="node">
<title>WidgetConfiguratorSectionHeaderPipe </title>
<polygon fill="#fb8072" stroke="black" points="1341.32,-252 1100.68,-252 1100.68,-216 1341.32,-216 1341.32,-252"/>
<text text-anchor="middle" x="1221" y="-229.8" font-family="Times,serif" font-size="14.00">WidgetConfiguratorSectionHeaderPipe </text>
</g>
<!-- NuiDashboardConfiguratorModule&#45;&gt;WidgetConfiguratorSectionHeaderPipe  -->
<g id="edge23" class="edge">
<title>NuiDashboardConfiguratorModule&#45;&gt;WidgetConfiguratorSectionHeaderPipe </title>
<path fill="none" stroke="black" stroke-dasharray="5,2" d="M1890.35,-180C1693.34,-180 1292.28,-180 1292.28,-180 1292.28,-180 1292.28,-205.72 1292.28,-205.72"/>
<polygon fill="black" stroke="black" points="1288.78,-205.72 1292.28,-215.72 1295.78,-205.72 1288.78,-205.72"/>
</g>
<!-- WidgetEditorAccordionFormStatePipe  -->
<g id="node25" class="node">
<title>WidgetEditorAccordionFormStatePipe </title>
<polygon fill="#fb8072" stroke="black" points="1083.01,-252 844.99,-252 844.99,-216 1083.01,-216 1083.01,-252"/>
<text text-anchor="middle" x="964" y="-229.8" font-family="Times,serif" font-size="14.00">WidgetEditorAccordionFormStatePipe </text>
</g>
<!-- NuiDashboardConfiguratorModule&#45;&gt;WidgetEditorAccordionFormStatePipe  -->
<g id="edge24" class="edge">
<title>NuiDashboardConfiguratorModule&#45;&gt;WidgetEditorAccordionFormStatePipe </title>
<path fill="none" stroke="black" stroke-dasharray="5,2" d="M1890.1,-177C1647.63,-177 1076.85,-177 1076.85,-177 1076.85,-177 1076.85,-205.96 1076.85,-205.96"/>
<polygon fill="black" stroke="black" points="1073.35,-205.96 1076.85,-215.96 1080.35,-205.96 1073.35,-205.96"/>
</g>
<!-- NuiDashboardsCommonModule -->
<g id="node13" class="node">
<title>NuiDashboardsCommonModule</title>
<polygon fill="#8dd3c7" stroke="black" points="4431.25,-122 4428.25,-126 4407.25,-126 4404.25,-122 4232.75,-122 4232.75,-86 4431.25,-86 4431.25,-122"/>
<text text-anchor="middle" x="4332" y="-99.8" font-family="Times,serif" font-size="14.00">NuiDashboardsCommonModule</text>
</g>
<!-- NuiDashboardsCommonModule&#45;&gt;NuiDashboardConfiguratorModule -->
<g id="edge12" class="edge">
<title>NuiDashboardsCommonModule&#45;&gt;NuiDashboardConfiguratorModule</title>
<path fill="none" stroke="black" d="M4332,-122.28C4332,-143.32 4332,-175 4332,-175 4332,-175 2113.78,-175 2113.78,-175"/>
<polygon fill="black" stroke="black" points="2113.78,-171.5 2103.78,-175 2113.78,-178.5 2113.78,-171.5"/>
</g>
<!-- NuiPizzagnaModule -->
<g id="node14" class="node">
<title>NuiPizzagnaModule</title>
<polygon fill="#8dd3c7" stroke="black" points="4214.58,-122 4211.58,-126 4190.58,-126 4187.58,-122 4083.42,-122 4083.42,-86 4214.58,-86 4214.58,-122"/>
<text text-anchor="middle" x="4149" y="-99.8" font-family="Times,serif" font-size="14.00">NuiPizzagnaModule</text>
</g>
<!-- NuiPizzagnaModule&#45;&gt;NuiDashboardConfiguratorModule -->
<g id="edge13" class="edge">
<title>NuiPizzagnaModule&#45;&gt;NuiDashboardConfiguratorModule</title>
<path fill="none" stroke="black" d="M4149,-122.22C4149,-142.37 4149,-172 4149,-172 4149,-172 2113.72,-172 2113.72,-172"/>
<polygon fill="black" stroke="black" points="2113.72,-168.5 2103.72,-172 2113.72,-175.5 2113.72,-168.5"/>
</g>
<!-- ConfiguratorHeadingService -->
<g id="node26" class="node">
<title>ConfiguratorHeadingService</title>
<ellipse fill="#fdb462" stroke="black" cx="3936" cy="-104" rx="122.67" ry="18"/>
<text text-anchor="middle" x="3936" y="-99.8" font-family="Times,serif" font-size="14.00">ConfiguratorHeadingService</text>
</g>
<!-- ConfiguratorHeadingService&#45;&gt;NuiDashboardConfiguratorModule -->
<g id="edge25" class="edge">
<title>ConfiguratorHeadingService&#45;&gt;NuiDashboardConfiguratorModule</title>
<path fill="none" stroke="black" d="M3936,-122.11C3936,-141.34 3936,-169 3936,-169 3936,-169 2113.66,-169 2113.66,-169"/>
<polygon fill="black" stroke="black" points="2113.66,-165.5 2103.66,-169 2113.66,-172.5 2113.66,-165.5"/>
</g>
<!-- ConfiguratorService -->
<g id="node27" class="node">
<title>ConfiguratorService</title>
<ellipse fill="#fdb462" stroke="black" cx="3706" cy="-104" rx="89.75" ry="18"/>
<text text-anchor="middle" x="3706" y="-99.8" font-family="Times,serif" font-size="14.00">ConfiguratorService</text>
</g>
<!-- ConfiguratorService&#45;&gt;NuiDashboardConfiguratorModule -->
<g id="edge26" class="edge">
<title>ConfiguratorService&#45;&gt;NuiDashboardConfiguratorModule</title>
<path fill="none" stroke="black" d="M3706,-122.22C3706,-140.83 3706,-167 3706,-167 3706,-167 2113.58,-167 2113.58,-167"/>
<polygon fill="black" stroke="black" points="2113.58,-163.5 2103.58,-167 2113.58,-170.5 2113.58,-163.5"/>
</g>
<!-- KpiWidgetColorService -->
<g id="node28" class="node">
<title>KpiWidgetColorService</title>
<ellipse fill="#fdb462" stroke="black" cx="3493" cy="-104" rx="104.79" ry="18"/>
<text text-anchor="middle" x="3493" y="-99.8" font-family="Times,serif" font-size="14.00">KpiWidgetColorService</text>
</g>
<!-- KpiWidgetColorService&#45;&gt;NuiDashboardConfiguratorModule -->
<g id="edge27" class="edge">
<title>KpiWidgetColorService&#45;&gt;NuiDashboardConfiguratorModule</title>
<path fill="none" stroke="black" d="M3493,-122C3493,-139.68 3493,-164 3493,-164 3493,-164 2113.69,-164 2113.69,-164"/>
<polygon fill="black" stroke="black" points="2113.69,-160.5 2103.69,-164 2113.69,-167.5 2113.69,-160.5"/>
</g>
<!-- TimeseriesChartPresetService -->
<g id="node29" class="node">
<title>TimeseriesChartPresetService</title>
<ellipse fill="#fdb462" stroke="black" cx="3243" cy="-104" rx="127.31" ry="18"/>
<text text-anchor="middle" x="3243" y="-99.8" font-family="Times,serif" font-size="14.00">TimeseriesChartPresetService</text>
</g>
<!-- TimeseriesChartPresetService&#45;&gt;NuiDashboardConfiguratorModule -->
<g id="edge28" class="edge">
<title>TimeseriesChartPresetService&#45;&gt;NuiDashboardConfiguratorModule</title>
<path fill="none" stroke="black" d="M3243,-122.03C3243,-139.06 3243,-162 3243,-162 3243,-162 2113.77,-162 2113.77,-162"/>
<polygon fill="black" stroke="black" points="2113.77,-158.5 2103.77,-162 2113.77,-165.5 2113.77,-158.5"/>
</g>
<!-- TimeseriesScalesService -->
<g id="node30" class="node">
<title>TimeseriesScalesService</title>
<ellipse fill="#fdb462" stroke="black" cx="2991" cy="-104" rx="107.05" ry="18"/>
<text text-anchor="middle" x="2991" y="-99.8" font-family="Times,serif" font-size="14.00">TimeseriesScalesService</text>
</g>
<!-- TimeseriesScalesService&#45;&gt;NuiDashboardConfiguratorModule -->
<g id="edge29" class="edge">
<title>TimeseriesScalesService&#45;&gt;NuiDashboardConfiguratorModule</title>
<path fill="none" stroke="black" d="M2893.22,-111.65C2893.22,-126.76 2893.22,-159 2893.22,-159 2893.22,-159 2113.77,-159 2113.77,-159"/>
<polygon fill="black" stroke="black" points="2113.77,-155.5 2103.77,-159 2113.77,-162.5 2113.77,-155.5"/>
</g>
<!-- WidgetClonerService -->
<g id="node31" class="node">
<title>WidgetClonerService</title>
<ellipse fill="#fdb462" stroke="black" cx="2771" cy="-104" rx="94.9" ry="18"/>
<text text-anchor="middle" x="2771" y="-99.8" font-family="Times,serif" font-size="14.00">WidgetClonerService</text>
</g>
<!-- WidgetClonerService&#45;&gt;NuiDashboardConfiguratorModule -->
<g id="edge30" class="edge">
<title>WidgetClonerService&#45;&gt;NuiDashboardConfiguratorModule</title>
<path fill="none" stroke="black" d="M2732.77,-120.48C2732.77,-136.04 2732.77,-157 2732.77,-157 2732.77,-157 2113.59,-157 2113.59,-157"/>
<polygon fill="black" stroke="black" points="2113.59,-153.5 2103.59,-157 2113.59,-160.5 2113.59,-153.5"/>
</g>
<!-- WidgetConfiguratorSectionCoordinatorService -->
<g id="node32" class="node">
<title>WidgetConfiguratorSectionCoordinatorService</title>
<ellipse fill="#fdb462" stroke="black" cx="2464" cy="-104" rx="193.86" ry="18"/>
<text text-anchor="middle" x="2464" y="-99.8" font-family="Times,serif" font-size="14.00">WidgetConfiguratorSectionCoordinatorService</text>
</g>
<!-- WidgetConfiguratorSectionCoordinatorService&#45;&gt;NuiDashboardConfiguratorModule -->
<g id="edge31" class="edge">
<title>WidgetConfiguratorSectionCoordinatorService&#45;&gt;NuiDashboardConfiguratorModule</title>
<path fill="none" stroke="black" d="M2332.99,-117.4C2332.99,-132.21 2332.99,-154 2332.99,-154 2332.99,-154 2113.77,-154 2113.77,-154"/>
<polygon fill="black" stroke="black" points="2113.77,-150.5 2103.77,-154 2113.77,-157.5 2113.77,-150.5"/>
</g>
<!-- WidgetEditorService -->
<g id="node33" class="node">
<title>WidgetEditorService</title>
<ellipse fill="#fdb462" stroke="black" cx="2160" cy="-104" rx="92.61" ry="18"/>
<text text-anchor="middle" x="2160" y="-99.8" font-family="Times,serif" font-size="14.00">WidgetEditorService</text>
</g>
<!-- WidgetEditorService&#45;&gt;NuiDashboardConfiguratorModule -->
<g id="edge32" class="edge">
<title>WidgetEditorService&#45;&gt;NuiDashboardConfiguratorModule</title>
<path fill="none" stroke="black" d="M2085.6,-114.73C2085.6,-114.73 2085.6,-140.87 2085.6,-140.87"/>
<polygon fill="black" stroke="black" points="2082.1,-140.87 2085.6,-150.87 2089.1,-140.87 2082.1,-140.87"/>
</g>
</g>
</svg>
