<?xml version="1.0" encoding="UTF-8" standalone="no"?>
<!DOCTYPE svg PUBLIC "-//W3C//DTD SVG 1.1//EN"
 "http://www.w3.org/Graphics/SVG/1.1/DTD/svg11.dtd">
<!-- Generated by graphviz version 2.47.3 (20210619.1520)
 -->
<!-- Title: dependencies Pages: 1 -->
<svg width="6273pt" height="247pt"
 viewBox="0.00 0.00 6273.00 246.80" xmlns="http://www.w3.org/2000/svg" xmlns:xlink="http://www.w3.org/1999/xlink">
<g id="graph0" class="graph" transform="scale(1 1) rotate(0) translate(4 242.8)">
<title>dependencies</title>
<polygon fill="white" stroke="transparent" points="-4,4 -4,-242.8 6269,-242.8 6269,4 -4,4"/>
<text text-anchor="middle" x="3132.5" y="-8.2" font-family="sans-serif" font-size="14.00">dependencies</text>
<g id="clust1" class="cluster">
<title>cluster_NuiDashboardsModule</title>
<polygon fill="none" stroke="black" stroke-dasharray="1,5" points="8,-32.8 8,-230.8 6257,-230.8 6257,-32.8 8,-32.8"/>
</g>
<g id="clust32" class="cluster">
<title>cluster_NuiDashboardsModule_exports</title>
<polygon fill="none" stroke="black" points="487,-170.8 487,-222.8 5775,-222.8 5775,-170.8 487,-170.8"/>
</g>
<g id="clust34" class="cluster">
<title>cluster_NuiDashboardsModule_providers</title>
<polygon fill="none" stroke="black" points="5813,-40.8 5813,-92.8 6249,-92.8 6249,-40.8 5813,-40.8"/>
</g>
<g id="clust2" class="cluster">
<title>cluster_NuiDashboardsModule_declarations</title>
<polygon fill="none" stroke="black" points="620,-40.8 620,-92.8 5805,-92.8 5805,-40.8 620,-40.8"/>
</g>
<g id="clust31" class="cluster">
<title>cluster_NuiDashboardsModule_imports</title>
<polygon fill="none" stroke="black" points="16,-40.8 16,-92.8 612,-92.8 612,-40.8 16,-40.8"/>
</g>
<!-- DashboardComponent -->
<g id="node1" class="node">
<title>DashboardComponent</title>
<polygon fill="#ffffb3" stroke="black" points="5796.97,-84.8 5655.03,-84.8 5655.03,-48.8 5796.97,-48.8 5796.97,-84.8"/>
<text text-anchor="middle" x="5726" y="-62.6" font-family="Times,serif" font-size="14.00">DashboardComponent</text>
</g>
<!-- NuiDashboardsModule -->
<g id="node29" class="node">
<title>NuiDashboardsModule</title>
<polygon fill="#8dd3c7" stroke="black" points="3199.13,-149.8 3196.13,-153.8 3175.13,-153.8 3172.13,-149.8 3052.87,-149.8 3052.87,-113.8 3199.13,-113.8 3199.13,-149.8"/>
<text text-anchor="middle" x="3126" y="-127.6" font-family="Times,serif" font-size="14.00">NuiDashboardsModule</text>
</g>
<!-- DashboardComponent&#45;&gt;NuiDashboardsModule -->
<g id="edge1" class="edge">
<title>DashboardComponent&#45;&gt;NuiDashboardsModule</title>
<path fill="none" stroke="black" d="M5710.88,-84.97C5710.88,-103.89 5710.88,-130.8 5710.88,-130.8 5710.88,-130.8 3209.2,-130.8 3209.2,-130.8"/>
<polygon fill="black" stroke="black" points="3209.2,-127.3 3199.2,-130.8 3209.2,-134.3 3209.2,-127.3"/>
</g>
<!-- DelayedMousePresenceDetectionDirective -->
<g id="node2" class="node">
<title>DelayedMousePresenceDetectionDirective</title>
<polygon fill="#ffffb3" stroke="black" points="5637.5,-84.8 5380.5,-84.8 5380.5,-48.8 5637.5,-48.8 5637.5,-84.8"/>
<text text-anchor="middle" x="5509" y="-62.6" font-family="Times,serif" font-size="14.00">DelayedMousePresenceDetectionDirective</text>
</g>
<!-- DelayedMousePresenceDetectionDirective&#45;&gt;NuiDashboardsModule -->
<g id="edge2" class="edge">
<title>DelayedMousePresenceDetectionDirective&#45;&gt;NuiDashboardsModule</title>
<path fill="none" stroke="black" d="M5491.88,-85.02C5491.88,-103.63 5491.88,-129.8 5491.88,-129.8 5491.88,-129.8 3209.4,-129.8 3209.4,-129.8"/>
<polygon fill="black" stroke="black" points="3209.4,-126.3 3199.4,-129.8 3209.4,-133.3 3209.4,-126.3"/>
</g>
<!-- EmbeddedContentComponent -->
<g id="node3" class="node">
<title>EmbeddedContentComponent</title>
<polygon fill="#ffffb3" stroke="black" points="5362.54,-84.8 5177.46,-84.8 5177.46,-48.8 5362.54,-48.8 5362.54,-84.8"/>
<text text-anchor="middle" x="5270" y="-62.6" font-family="Times,serif" font-size="14.00">EmbeddedContentComponent</text>
</g>
<!-- EmbeddedContentComponent&#45;&gt;NuiDashboardsModule -->
<g id="edge3" class="edge">
<title>EmbeddedContentComponent&#45;&gt;NuiDashboardsModule</title>
<path fill="none" stroke="black" d="M5250.88,-85.07C5250.88,-103.36 5250.88,-128.8 5250.88,-128.8 5250.88,-128.8 3209.14,-128.8 3209.14,-128.8"/>
<polygon fill="black" stroke="black" points="3209.14,-125.3 3199.14,-128.8 3209.14,-132.3 3209.14,-125.3"/>
</g>
<!-- GridsterItemWidgetIdDirective -->
<g id="node4" class="node">
<title>GridsterItemWidgetIdDirective</title>
<polygon fill="#ffffb3" stroke="black" points="5159.48,-84.8 4966.52,-84.8 4966.52,-48.8 5159.48,-48.8 5159.48,-84.8"/>
<text text-anchor="middle" x="5063" y="-62.6" font-family="Times,serif" font-size="14.00">GridsterItemWidgetIdDirective</text>
</g>
<!-- GridsterItemWidgetIdDirective&#45;&gt;NuiDashboardsModule -->
<g id="edge4" class="edge">
<title>GridsterItemWidgetIdDirective&#45;&gt;NuiDashboardsModule</title>
<path fill="none" stroke="black" d="M5041.88,-85.1C5041.88,-103.07 5041.88,-127.8 5041.88,-127.8 5041.88,-127.8 3209.35,-127.8 3209.35,-127.8"/>
<polygon fill="black" stroke="black" points="3209.35,-124.3 3199.35,-127.8 3209.35,-131.3 3209.35,-124.3"/>
</g>
<!-- KpiComponent -->
<g id="node5" class="node">
<title>KpiComponent</title>
<polygon fill="#ffffb3" stroke="black" points="4949.33,-84.8 4846.67,-84.8 4846.67,-48.8 4949.33,-48.8 4949.33,-84.8"/>
<text text-anchor="middle" x="4898" y="-62.6" font-family="Times,serif" font-size="14.00">KpiComponent</text>
</g>
<!-- KpiComponent&#45;&gt;NuiDashboardsModule -->
<g id="edge5" class="edge">
<title>KpiComponent&#45;&gt;NuiDashboardsModule</title>
<path fill="none" stroke="black" d="M4874.88,-84.82C4874.88,-102.17 4874.88,-125.8 4874.88,-125.8 4874.88,-125.8 3209.2,-125.8 3209.2,-125.8"/>
<polygon fill="black" stroke="black" points="3209.2,-122.3 3199.2,-125.8 3209.2,-129.3 3209.2,-122.3"/>
</g>
<!-- LineChartComponent -->
<g id="node6" class="node">
<title>LineChartComponent</title>
<polygon fill="#ffffb3" stroke="black" points="4829.09,-84.8 4690.91,-84.8 4690.91,-48.8 4829.09,-48.8 4829.09,-84.8"/>
<text text-anchor="middle" x="4760" y="-62.6" font-family="Times,serif" font-size="14.00">LineChartComponent</text>
</g>
<!-- LineChartComponent&#45;&gt;NuiDashboardsModule -->
<g id="edge6" class="edge">
<title>LineChartComponent&#45;&gt;NuiDashboardsModule</title>
<path fill="none" stroke="black" d="M4734.88,-84.83C4734.88,-101.86 4734.88,-124.8 4734.88,-124.8 4734.88,-124.8 3209.31,-124.8 3209.31,-124.8"/>
<polygon fill="black" stroke="black" points="3209.31,-121.3 3199.31,-124.8 3209.31,-128.3 3209.31,-121.3"/>
</g>
<!-- ListGroupItemComponent -->
<g id="node7" class="node">
<title>ListGroupItemComponent</title>
<polygon fill="#ffffb3" stroke="black" points="4673.04,-84.8 4508.96,-84.8 4508.96,-48.8 4673.04,-48.8 4673.04,-84.8"/>
<text text-anchor="middle" x="4591" y="-62.6" font-family="Times,serif" font-size="14.00">ListGroupItemComponent</text>
</g>
<!-- ListGroupItemComponent&#45;&gt;NuiDashboardsModule -->
<g id="edge7" class="edge">
<title>ListGroupItemComponent&#45;&gt;NuiDashboardsModule</title>
<path fill="none" stroke="black" d="M4563.88,-84.84C4563.88,-101.53 4563.88,-123.8 4563.88,-123.8 4563.88,-123.8 3209.28,-123.8 3209.28,-123.8"/>
<polygon fill="black" stroke="black" points="3209.28,-120.3 3199.28,-123.8 3209.28,-127.3 3209.28,-120.3"/>
</g>
<!-- ListLeafItemComponent -->
<g id="node8" class="node">
<title>ListLeafItemComponent</title>
<polygon fill="#ffffb3" stroke="black" points="4491.41,-84.8 4336.59,-84.8 4336.59,-48.8 4491.41,-48.8 4491.41,-84.8"/>
<text text-anchor="middle" x="4414" y="-62.6" font-family="Times,serif" font-size="14.00">ListLeafItemComponent</text>
</g>
<!-- ListLeafItemComponent&#45;&gt;NuiDashboardsModule -->
<g id="edge8" class="edge">
<title>ListLeafItemComponent&#45;&gt;NuiDashboardsModule</title>
<path fill="none" stroke="black" d="M4384.88,-84.83C4384.88,-101.2 4384.88,-122.8 4384.88,-122.8 4384.88,-122.8 3209.59,-122.8 3209.59,-122.8"/>
<polygon fill="black" stroke="black" points="3209.59,-119.3 3199.59,-122.8 3209.59,-126.3 3209.59,-119.3"/>
</g>
<!-- ListNavigationBarComponent -->
<g id="node9" class="node">
<title>ListNavigationBarComponent</title>
<polygon fill="#ffffb3" stroke="black" points="4318.53,-84.8 4133.47,-84.8 4133.47,-48.8 4318.53,-48.8 4318.53,-84.8"/>
<text text-anchor="middle" x="4226" y="-62.6" font-family="Times,serif" font-size="14.00">ListNavigationBarComponent</text>
</g>
<!-- ListNavigationBarComponent&#45;&gt;NuiDashboardsModule -->
<g id="edge9" class="edge">
<title>ListNavigationBarComponent&#45;&gt;NuiDashboardsModule</title>
<path fill="none" stroke="black" d="M4195.38,-84.81C4195.38,-100.85 4195.38,-121.8 4195.38,-121.8 4195.38,-121.8 3209.5,-121.8 3209.5,-121.8"/>
<polygon fill="black" stroke="black" points="3209.5,-118.3 3199.5,-121.8 3209.5,-125.3 3209.5,-118.3"/>
</g>
<!-- ListWidgetComponent -->
<g id="node10" class="node">
<title>ListWidgetComponent</title>
<polygon fill="#ffffb3" stroke="black" points="4115.32,-84.8 3970.68,-84.8 3970.68,-48.8 4115.32,-48.8 4115.32,-84.8"/>
<text text-anchor="middle" x="4043" y="-62.6" font-family="Times,serif" font-size="14.00">ListWidgetComponent</text>
</g>
<!-- ListWidgetComponent&#45;&gt;NuiDashboardsModule -->
<g id="edge10" class="edge">
<title>ListWidgetComponent&#45;&gt;NuiDashboardsModule</title>
<path fill="none" stroke="black" d="M4010.88,-85.04C4010.88,-100.37 4010.88,-119.8 4010.88,-119.8 4010.88,-119.8 3209.17,-119.8 3209.17,-119.8"/>
<polygon fill="black" stroke="black" points="3209.17,-116.3 3199.17,-119.8 3209.17,-123.3 3209.17,-116.3"/>
</g>
<!-- LoadingComponent -->
<g id="node11" class="node">
<title>LoadingComponent</title>
<polygon fill="#ffffb3" stroke="black" points="3952.99,-84.8 3825.01,-84.8 3825.01,-48.8 3952.99,-48.8 3952.99,-84.8"/>
<text text-anchor="middle" x="3889" y="-62.6" font-family="Times,serif" font-size="14.00">LoadingComponent</text>
</g>
<!-- LoadingComponent&#45;&gt;NuiDashboardsModule -->
<g id="edge11" class="edge">
<title>LoadingComponent&#45;&gt;NuiDashboardsModule</title>
<path fill="none" stroke="black" d="M3854.88,-84.99C3854.88,-99.98 3854.88,-118.8 3854.88,-118.8 3854.88,-118.8 3209.22,-118.8 3209.22,-118.8"/>
<polygon fill="black" stroke="black" points="3209.22,-115.3 3199.22,-118.8 3209.22,-122.3 3209.22,-115.3"/>
</g>
<!-- ProportionalDonutContentComponent -->
<g id="node12" class="node">
<title>ProportionalDonutContentComponent</title>
<polygon fill="#ffffb3" stroke="black" points="3807.15,-84.8 3576.85,-84.8 3576.85,-48.8 3807.15,-48.8 3807.15,-84.8"/>
<text text-anchor="middle" x="3692" y="-62.6" font-family="Times,serif" font-size="14.00">ProportionalDonutContentComponent</text>
</g>
<!-- ProportionalDonutContentComponent&#45;&gt;NuiDashboardsModule -->
<g id="edge12" class="edge">
<title>ProportionalDonutContentComponent&#45;&gt;NuiDashboardsModule</title>
<path fill="none" stroke="black" d="M3655.88,-84.92C3655.88,-99.58 3655.88,-117.8 3655.88,-117.8 3655.88,-117.8 3209.4,-117.8 3209.4,-117.8"/>
<polygon fill="black" stroke="black" points="3209.4,-114.3 3199.4,-117.8 3209.4,-121.3 3209.4,-114.3"/>
</g>
<!-- ProportionalWidgetComponent -->
<g id="node13" class="node">
<title>ProportionalWidgetComponent</title>
<polygon fill="#ffffb3" stroke="black" points="3558.03,-84.8 3365.97,-84.8 3365.97,-48.8 3558.03,-48.8 3558.03,-84.8"/>
<text text-anchor="middle" x="3462" y="-62.6" font-family="Times,serif" font-size="14.00">ProportionalWidgetComponent</text>
</g>
<!-- ProportionalWidgetComponent&#45;&gt;NuiDashboardsModule -->
<g id="edge13" class="edge">
<title>ProportionalWidgetComponent&#45;&gt;NuiDashboardsModule</title>
<path fill="none" stroke="black" d="M3424.38,-84.85C3424.38,-99.17 3424.38,-116.8 3424.38,-116.8 3424.38,-116.8 3209.37,-116.8 3209.37,-116.8"/>
<polygon fill="black" stroke="black" points="3209.37,-113.3 3199.37,-116.8 3209.37,-120.3 3209.37,-113.3"/>
</g>
<!-- StackComponent -->
<g id="node14" class="node">
<title>StackComponent</title>
<polygon fill="#ffffb3" stroke="black" points="3348.44,-84.8 3235.56,-84.8 3235.56,-48.8 3348.44,-48.8 3348.44,-84.8"/>
<text text-anchor="middle" x="3292" y="-62.6" font-family="Times,serif" font-size="14.00">StackComponent</text>
</g>
<!-- StackComponent&#45;&gt;NuiDashboardsModule -->
<g id="edge14" class="edge">
<title>StackComponent&#45;&gt;NuiDashboardsModule</title>
<path fill="none" stroke="black" d="M3252.38,-85.05C3252.38,-98.98 3252.38,-115.8 3252.38,-115.8 3252.38,-115.8 3209.15,-115.8 3209.15,-115.8"/>
<polygon fill="black" stroke="black" points="3209.15,-112.3 3199.15,-115.8 3209.15,-119.3 3209.15,-112.3"/>
</g>
<!-- StackedAreaChartComponent -->
<g id="node15" class="node">
<title>StackedAreaChartComponent</title>
<polygon fill="#ffffb3" stroke="black" points="3217.95,-84.8 3034.05,-84.8 3034.05,-48.8 3217.95,-48.8 3217.95,-84.8"/>
<text text-anchor="middle" x="3126" y="-62.6" font-family="Times,serif" font-size="14.00">StackedAreaChartComponent</text>
</g>
<!-- StackedAreaChartComponent&#45;&gt;NuiDashboardsModule -->
<g id="edge15" class="edge">
<title>StackedAreaChartComponent&#45;&gt;NuiDashboardsModule</title>
<path fill="none" stroke="black" d="M3126,-84.91C3126,-84.91 3126,-103.79 3126,-103.79"/>
<polygon fill="black" stroke="black" points="3122.5,-103.79 3126,-113.79 3129.5,-103.79 3122.5,-103.79"/>
</g>
<!-- StackedBarChartComponent -->
<g id="node16" class="node">
<title>StackedBarChartComponent</title>
<polygon fill="#ffffb3" stroke="black" points="3016.46,-84.8 2839.54,-84.8 2839.54,-48.8 3016.46,-48.8 3016.46,-84.8"/>
<text text-anchor="middle" x="2928" y="-62.6" font-family="Times,serif" font-size="14.00">StackedBarChartComponent</text>
</g>
<!-- StackedBarChartComponent&#45;&gt;NuiDashboardsModule -->
<g id="edge16" class="edge">
<title>StackedBarChartComponent&#45;&gt;NuiDashboardsModule</title>
<path fill="none" stroke="black" d="M2981.88,-85.05C2981.88,-98.98 2981.88,-115.8 2981.88,-115.8 2981.88,-115.8 3042.67,-115.8 3042.67,-115.8"/>
<polygon fill="black" stroke="black" points="3042.67,-119.3 3052.67,-115.8 3042.67,-112.3 3042.67,-119.3"/>
</g>
<!-- StackedPercentageAreaChartComponent -->
<g id="node17" class="node">
<title>StackedPercentageAreaChartComponent</title>
<polygon fill="#ffffb3" stroke="black" points="2821.86,-84.8 2576.14,-84.8 2576.14,-48.8 2821.86,-48.8 2821.86,-84.8"/>
<text text-anchor="middle" x="2699" y="-62.6" font-family="Times,serif" font-size="14.00">StackedPercentageAreaChartComponent</text>
</g>
<!-- StackedPercentageAreaChartComponent&#45;&gt;NuiDashboardsModule -->
<g id="edge17" class="edge">
<title>StackedPercentageAreaChartComponent&#45;&gt;NuiDashboardsModule</title>
<path fill="none" stroke="black" d="M2785.22,-84.85C2785.22,-99.17 2785.22,-116.8 2785.22,-116.8 2785.22,-116.8 3042.48,-116.8 3042.48,-116.8"/>
<polygon fill="black" stroke="black" points="3042.48,-120.3 3052.48,-116.8 3042.48,-113.3 3042.48,-120.3"/>
</g>
<!-- StatusBarChartComponent -->
<g id="node18" class="node">
<title>StatusBarChartComponent</title>
<polygon fill="#ffffb3" stroke="black" points="2558.37,-84.8 2391.63,-84.8 2391.63,-48.8 2558.37,-48.8 2558.37,-84.8"/>
<text text-anchor="middle" x="2475" y="-62.6" font-family="Times,serif" font-size="14.00">StatusBarChartComponent</text>
</g>
<!-- StatusBarChartComponent&#45;&gt;NuiDashboardsModule -->
<g id="edge18" class="edge">
<title>StatusBarChartComponent&#45;&gt;NuiDashboardsModule</title>
<path fill="none" stroke="black" d="M2520,-84.92C2520,-99.58 2520,-117.8 2520,-117.8 2520,-117.8 3042.6,-117.8 3042.6,-117.8"/>
<polygon fill="black" stroke="black" points="3042.6,-121.3 3052.6,-117.8 3042.6,-114.3 3042.6,-121.3"/>
</g>
<!-- TableWidgetComponent -->
<g id="node19" class="node">
<title>TableWidgetComponent</title>
<polygon fill="#ffffb3" stroke="black" points="2373.42,-84.8 2218.58,-84.8 2218.58,-48.8 2373.42,-48.8 2373.42,-84.8"/>
<text text-anchor="middle" x="2296" y="-62.6" font-family="Times,serif" font-size="14.00">TableWidgetComponent</text>
</g>
<!-- TableWidgetComponent&#45;&gt;NuiDashboardsModule -->
<g id="edge19" class="edge">
<title>TableWidgetComponent&#45;&gt;NuiDashboardsModule</title>
<path fill="none" stroke="black" d="M2333.01,-84.99C2333.01,-99.98 2333.01,-118.8 2333.01,-118.8 2333.01,-118.8 3042.82,-118.8 3042.82,-118.8"/>
<polygon fill="black" stroke="black" points="3042.82,-122.3 3052.82,-118.8 3042.82,-115.3 3042.82,-122.3"/>
</g>
<!-- TilesComponent -->
<g id="node20" class="node">
<title>TilesComponent</title>
<polygon fill="#ffffb3" stroke="black" points="2200.83,-84.8 2091.17,-84.8 2091.17,-48.8 2200.83,-48.8 2200.83,-84.8"/>
<text text-anchor="middle" x="2146" y="-62.6" font-family="Times,serif" font-size="14.00">TilesComponent</text>
</g>
<!-- TilesComponent&#45;&gt;NuiDashboardsModule -->
<g id="edge20" class="edge">
<title>TilesComponent&#45;&gt;NuiDashboardsModule</title>
<path fill="none" stroke="black" d="M2158.85,-85.04C2158.85,-100.37 2158.85,-119.8 2158.85,-119.8 2158.85,-119.8 3042.51,-119.8 3042.51,-119.8"/>
<polygon fill="black" stroke="black" points="3042.51,-123.3 3052.51,-119.8 3042.51,-116.3 3042.51,-123.3"/>
</g>
<!-- TimeframeSelectionComponent -->
<g id="node21" class="node">
<title>TimeframeSelectionComponent</title>
<polygon fill="#ffffb3" stroke="black" points="2073.62,-84.8 1878.38,-84.8 1878.38,-48.8 2073.62,-48.8 2073.62,-84.8"/>
<text text-anchor="middle" x="1976" y="-62.6" font-family="Times,serif" font-size="14.00">TimeframeSelectionComponent</text>
</g>
<!-- TimeframeSelectionComponent&#45;&gt;NuiDashboardsModule -->
<g id="edge21" class="edge">
<title>TimeframeSelectionComponent&#45;&gt;NuiDashboardsModule</title>
<path fill="none" stroke="black" d="M2030.2,-84.81C2030.2,-100.85 2030.2,-121.8 2030.2,-121.8 2030.2,-121.8 3042.83,-121.8 3042.83,-121.8"/>
<polygon fill="black" stroke="black" points="3042.83,-125.3 3052.83,-121.8 3042.83,-118.3 3042.83,-125.3"/>
</g>
<!-- TimeseriesWidgetComponent -->
<g id="node22" class="node">
<title>TimeseriesWidgetComponent</title>
<polygon fill="#ffffb3" stroke="black" points="1859.96,-84.8 1676.04,-84.8 1676.04,-48.8 1859.96,-48.8 1859.96,-84.8"/>
<text text-anchor="middle" x="1768" y="-62.6" font-family="Times,serif" font-size="14.00">TimeseriesWidgetComponent</text>
</g>
<!-- TimeseriesWidgetComponent&#45;&gt;NuiDashboardsModule -->
<g id="edge22" class="edge">
<title>TimeseriesWidgetComponent&#45;&gt;NuiDashboardsModule</title>
<path fill="none" stroke="black" d="M1814.71,-84.83C1814.71,-101.2 1814.71,-122.8 1814.71,-122.8 1814.71,-122.8 3042.69,-122.8 3042.69,-122.8"/>
<polygon fill="black" stroke="black" points="3042.69,-126.3 3052.69,-122.8 3042.69,-119.3 3042.69,-126.3"/>
</g>
<!-- WidgetBodyComponent -->
<g id="node23" class="node">
<title>WidgetBodyComponent</title>
<polygon fill="#ffffb3" stroke="black" points="1658.38,-84.8 1505.62,-84.8 1505.62,-48.8 1658.38,-48.8 1658.38,-84.8"/>
<text text-anchor="middle" x="1582" y="-62.6" font-family="Times,serif" font-size="14.00">WidgetBodyComponent</text>
</g>
<!-- WidgetBodyComponent&#45;&gt;NuiDashboardsModule -->
<g id="edge23" class="edge">
<title>WidgetBodyComponent&#45;&gt;NuiDashboardsModule</title>
<path fill="none" stroke="black" d="M1611.35,-84.84C1611.35,-101.53 1611.35,-123.8 1611.35,-123.8 1611.35,-123.8 3042.69,-123.8 3042.69,-123.8"/>
<polygon fill="black" stroke="black" points="3042.69,-127.3 3052.69,-123.8 3042.69,-120.3 3042.69,-127.3"/>
</g>
<!-- WidgetBodyContentComponent -->
<g id="node24" class="node">
<title>WidgetBodyContentComponent</title>
<polygon fill="#ffffb3" stroke="black" points="1487.71,-84.8 1290.29,-84.8 1290.29,-48.8 1487.71,-48.8 1487.71,-84.8"/>
<text text-anchor="middle" x="1389" y="-62.6" font-family="Times,serif" font-size="14.00">WidgetBodyContentComponent</text>
</g>
<!-- WidgetBodyContentComponent&#45;&gt;NuiDashboardsModule -->
<g id="edge24" class="edge">
<title>WidgetBodyContentComponent&#45;&gt;NuiDashboardsModule</title>
<path fill="none" stroke="black" d="M1438.71,-84.83C1438.71,-101.86 1438.71,-124.8 1438.71,-124.8 1438.71,-124.8 3042.69,-124.8 3042.69,-124.8"/>
<polygon fill="black" stroke="black" points="3042.69,-128.3 3052.69,-124.8 3042.69,-121.3 3042.69,-128.3"/>
</g>
<!-- WidgetComponent -->
<g id="node25" class="node">
<title>WidgetComponent</title>
<polygon fill="#ffffb3" stroke="black" points="1272.04,-84.8 1149.96,-84.8 1149.96,-48.8 1272.04,-48.8 1272.04,-84.8"/>
<text text-anchor="middle" x="1211" y="-62.6" font-family="Times,serif" font-size="14.00">WidgetComponent</text>
</g>
<!-- WidgetComponent&#45;&gt;NuiDashboardsModule -->
<g id="edge25" class="edge">
<title>WidgetComponent&#45;&gt;NuiDashboardsModule</title>
<path fill="none" stroke="black" d="M1221.46,-84.82C1221.46,-102.17 1221.46,-125.8 1221.46,-125.8 1221.46,-125.8 3042.8,-125.8 3042.8,-125.8"/>
<polygon fill="black" stroke="black" points="3042.8,-129.3 3052.8,-125.8 3042.8,-122.3 3042.8,-129.3"/>
</g>
<!-- WidgetEditorDirective -->
<g id="node26" class="node">
<title>WidgetEditorDirective</title>
<polygon fill="#ffffb3" stroke="black" points="1132.29,-84.8 987.71,-84.8 987.71,-48.8 1132.29,-48.8 1132.29,-84.8"/>
<text text-anchor="middle" x="1060" y="-62.6" font-family="Times,serif" font-size="14.00">WidgetEditorDirective</text>
</g>
<!-- WidgetEditorDirective&#45;&gt;NuiDashboardsModule -->
<g id="edge26" class="edge">
<title>WidgetEditorDirective&#45;&gt;NuiDashboardsModule</title>
<path fill="none" stroke="black" d="M1079.56,-85.1C1079.56,-103.07 1079.56,-127.8 1079.56,-127.8 1079.56,-127.8 3042.86,-127.8 3042.86,-127.8"/>
<polygon fill="black" stroke="black" points="3042.86,-131.3 3052.86,-127.8 3042.86,-124.3 3042.86,-131.3"/>
</g>
<!-- WidgetHeaderComponent -->
<g id="node27" class="node">
<title>WidgetHeaderComponent</title>
<polygon fill="#ffffb3" stroke="black" points="969.45,-84.8 806.55,-84.8 806.55,-48.8 969.45,-48.8 969.45,-84.8"/>
<text text-anchor="middle" x="888" y="-62.6" font-family="Times,serif" font-size="14.00">WidgetHeaderComponent</text>
</g>
<!-- WidgetHeaderComponent&#45;&gt;NuiDashboardsModule -->
<g id="edge27" class="edge">
<title>WidgetHeaderComponent&#45;&gt;NuiDashboardsModule</title>
<path fill="none" stroke="black" d="M915.29,-85.07C915.29,-103.36 915.29,-128.8 915.29,-128.8 915.29,-128.8 3042.76,-128.8 3042.76,-128.8"/>
<polygon fill="black" stroke="black" points="3042.76,-132.3 3052.76,-128.8 3042.76,-125.3 3042.76,-132.3"/>
</g>
<!-- WidgetSearchComponent -->
<g id="node28" class="node">
<title>WidgetSearchComponent</title>
<polygon fill="#ffffb3" stroke="black" points="788.13,-84.8 627.87,-84.8 627.87,-48.8 788.13,-48.8 788.13,-84.8"/>
<text text-anchor="middle" x="708" y="-62.6" font-family="Times,serif" font-size="14.00">WidgetSearchComponent</text>
</g>
<!-- WidgetSearchComponent&#45;&gt;NuiDashboardsModule -->
<g id="edge28" class="edge">
<title>WidgetSearchComponent&#45;&gt;NuiDashboardsModule</title>
<path fill="none" stroke="black" d="M732.54,-85.02C732.54,-103.63 732.54,-129.8 732.54,-129.8 732.54,-129.8 3042.73,-129.8 3042.73,-129.8"/>
<polygon fill="black" stroke="black" points="3042.73,-133.3 3052.73,-129.8 3042.73,-126.3 3042.73,-133.3"/>
</g>
<!-- DashboardComponent  -->
<g id="node33" class="node">
<title>DashboardComponent </title>
<polygon fill="#fb8072" stroke="black" points="5766.97,-214.8 5621.03,-214.8 5621.03,-178.8 5766.97,-178.8 5766.97,-214.8"/>
<text text-anchor="middle" x="5694" y="-192.6" font-family="Times,serif" font-size="14.00">DashboardComponent </text>
</g>
<!-- NuiDashboardsModule&#45;&gt;DashboardComponent  -->
<g id="edge32" class="edge">
<title>NuiDashboardsModule&#45;&gt;DashboardComponent </title>
<path fill="none" stroke="black" stroke-dasharray="5,2" d="M3199.23,-134.8C3611.97,-134.8 5629.38,-134.8 5629.38,-134.8 5629.38,-134.8 5629.38,-168.53 5629.38,-168.53"/>
<polygon fill="black" stroke="black" points="5625.88,-168.53 5629.38,-178.53 5632.88,-168.53 5625.88,-168.53"/>
</g>
<!-- DelayedMousePresenceDetectionDirective  -->
<g id="node34" class="node">
<title>DelayedMousePresenceDetectionDirective </title>
<polygon fill="#fb8072" stroke="black" points="5603.5,-214.8 5342.5,-214.8 5342.5,-178.8 5603.5,-178.8 5603.5,-214.8"/>
<text text-anchor="middle" x="5473" y="-192.6" font-family="Times,serif" font-size="14.00">DelayedMousePresenceDetectionDirective </text>
</g>
<!-- NuiDashboardsModule&#45;&gt;DelayedMousePresenceDetectionDirective  -->
<g id="edge33" class="edge">
<title>NuiDashboardsModule&#45;&gt;DelayedMousePresenceDetectionDirective </title>
<path fill="none" stroke="black" stroke-dasharray="5,2" d="M3199.14,-135.8C3583.56,-135.8 5352.76,-135.8 5352.76,-135.8 5352.76,-135.8 5352.76,-168.5 5352.76,-168.5"/>
<polygon fill="black" stroke="black" points="5349.26,-168.5 5352.76,-178.5 5356.26,-168.5 5349.26,-168.5"/>
</g>
<!-- EmbeddedContentComponent  -->
<g id="node35" class="node">
<title>EmbeddedContentComponent </title>
<polygon fill="#fb8072" stroke="black" points="5324.54,-214.8 5135.46,-214.8 5135.46,-178.8 5324.54,-178.8 5324.54,-214.8"/>
<text text-anchor="middle" x="5230" y="-192.6" font-family="Times,serif" font-size="14.00">EmbeddedContentComponent </text>
</g>
<!-- NuiDashboardsModule&#45;&gt;EmbeddedContentComponent  -->
<g id="edge34" class="edge">
<title>NuiDashboardsModule&#45;&gt;EmbeddedContentComponent </title>
<path fill="none" stroke="black" stroke-dasharray="5,2" d="M3199.14,-136.8C3561.52,-136.8 5147.36,-136.8 5147.36,-136.8 5147.36,-136.8 5147.36,-168.8 5147.36,-168.8"/>
<polygon fill="black" stroke="black" points="5143.86,-168.8 5147.36,-178.8 5150.86,-168.8 5143.86,-168.8"/>
</g>
<!-- GridsterItemWidgetIdDirective  -->
<g id="node36" class="node">
<title>GridsterItemWidgetIdDirective </title>
<polygon fill="#fb8072" stroke="black" points="5116.98,-214.8 4921.02,-214.8 4921.02,-178.8 5116.98,-178.8 5116.98,-214.8"/>
<text text-anchor="middle" x="5019" y="-192.6" font-family="Times,serif" font-size="14.00">GridsterItemWidgetIdDirective </text>
</g>
<!-- NuiDashboardsModule&#45;&gt;GridsterItemWidgetIdDirective  -->
<g id="edge35" class="edge">
<title>NuiDashboardsModule&#45;&gt;GridsterItemWidgetIdDirective </title>
<path fill="none" stroke="black" stroke-dasharray="5,2" d="M3199.16,-137.8C3537.61,-137.8 4935.09,-137.8 4935.09,-137.8 4935.09,-137.8 4935.09,-168.78 4935.09,-168.78"/>
<polygon fill="black" stroke="black" points="4931.59,-168.78 4935.09,-178.78 4938.59,-168.78 4931.59,-168.78"/>
</g>
<!-- KpiComponent  -->
<g id="node37" class="node">
<title>KpiComponent </title>
<polygon fill="#fb8072" stroke="black" points="4902.83,-214.8 4797.17,-214.8 4797.17,-178.8 4902.83,-178.8 4902.83,-214.8"/>
<text text-anchor="middle" x="4850" y="-192.6" font-family="Times,serif" font-size="14.00">KpiComponent </text>
</g>
<!-- NuiDashboardsModule&#45;&gt;KpiComponent  -->
<g id="edge36" class="edge">
<title>NuiDashboardsModule&#45;&gt;KpiComponent </title>
<path fill="none" stroke="black" stroke-dasharray="5,2" d="M3199.3,-139.8C3523.57,-139.8 4813.07,-139.8 4813.07,-139.8 4813.07,-139.8 4813.07,-168.76 4813.07,-168.76"/>
<polygon fill="black" stroke="black" points="4809.57,-168.76 4813.07,-178.76 4816.57,-168.76 4809.57,-168.76"/>
</g>
<!-- LineChartComponent  -->
<g id="node38" class="node">
<title>LineChartComponent </title>
<polygon fill="#fb8072" stroke="black" points="4778.59,-214.8 4637.41,-214.8 4637.41,-178.8 4778.59,-178.8 4778.59,-214.8"/>
<text text-anchor="middle" x="4708" y="-192.6" font-family="Times,serif" font-size="14.00">LineChartComponent </text>
</g>
<!-- NuiDashboardsModule&#45;&gt;LineChartComponent  -->
<g id="edge37" class="edge">
<title>NuiDashboardsModule&#45;&gt;LineChartComponent </title>
<path fill="none" stroke="black" stroke-dasharray="5,2" d="M3199.24,-140.8C3503.93,-140.8 4655.24,-140.8 4655.24,-140.8 4655.24,-140.8 4655.24,-168.77 4655.24,-168.77"/>
<polygon fill="black" stroke="black" points="4651.74,-168.77 4655.24,-178.77 4658.74,-168.77 4651.74,-168.77"/>
</g>
<!-- ListGroupItemComponent  -->
<g id="node39" class="node">
<title>ListGroupItemComponent </title>
<polygon fill="#fb8072" stroke="black" points="4619.03,-214.8 4450.97,-214.8 4450.97,-178.8 4619.03,-178.8 4619.03,-214.8"/>
<text text-anchor="middle" x="4535" y="-192.6" font-family="Times,serif" font-size="14.00">ListGroupItemComponent </text>
</g>
<!-- NuiDashboardsModule&#45;&gt;ListGroupItemComponent  -->
<g id="edge38" class="edge">
<title>NuiDashboardsModule&#45;&gt;ListGroupItemComponent </title>
<path fill="none" stroke="black" stroke-dasharray="5,2" d="M3199.27,-141.8C3479.96,-141.8 4471.09,-141.8 4471.09,-141.8 4471.09,-141.8 4471.09,-168.79 4471.09,-168.79"/>
<polygon fill="black" stroke="black" points="4467.59,-168.79 4471.09,-178.79 4474.59,-168.79 4467.59,-168.79"/>
</g>
<!-- ListLeafItemComponent  -->
<g id="node40" class="node">
<title>ListLeafItemComponent </title>
<polygon fill="#fb8072" stroke="black" points="4432.91,-214.8 4275.09,-214.8 4275.09,-178.8 4432.91,-178.8 4432.91,-214.8"/>
<text text-anchor="middle" x="4354" y="-192.6" font-family="Times,serif" font-size="14.00">ListLeafItemComponent </text>
</g>
<!-- NuiDashboardsModule&#45;&gt;ListLeafItemComponent  -->
<g id="edge39" class="edge">
<title>NuiDashboardsModule&#45;&gt;ListLeafItemComponent </title>
<path fill="none" stroke="black" stroke-dasharray="5,2" d="M3199.25,-142.8C3455.59,-142.8 4296.91,-142.8 4296.91,-142.8 4296.91,-142.8 4296.91,-168.52 4296.91,-168.52"/>
<polygon fill="black" stroke="black" points="4293.41,-168.52 4296.91,-178.52 4300.41,-168.52 4293.41,-168.52"/>
</g>
<!-- ListNavigationBarComponent  -->
<g id="node41" class="node">
<title>ListNavigationBarComponent </title>
<polygon fill="#fb8072" stroke="black" points="4257.53,-214.8 4068.47,-214.8 4068.47,-178.8 4257.53,-178.8 4257.53,-214.8"/>
<text text-anchor="middle" x="4163" y="-192.6" font-family="Times,serif" font-size="14.00">ListNavigationBarComponent </text>
</g>
<!-- NuiDashboardsModule&#45;&gt;ListNavigationBarComponent  -->
<g id="edge40" class="edge">
<title>NuiDashboardsModule&#45;&gt;ListNavigationBarComponent </title>
<path fill="none" stroke="black" stroke-dasharray="5,2" d="M3199.39,-143.8C3424.78,-143.8 4091.82,-143.8 4091.82,-143.8 4091.82,-143.8 4091.82,-168.56 4091.82,-168.56"/>
<polygon fill="black" stroke="black" points="4088.32,-168.56 4091.82,-178.56 4095.32,-168.56 4088.32,-168.56"/>
</g>
<!-- ListWidgetComponent  -->
<g id="node42" class="node">
<title>ListWidgetComponent </title>
<polygon fill="#fb8072" stroke="black" points="4050.82,-214.8 3903.18,-214.8 3903.18,-178.8 4050.82,-178.8 4050.82,-214.8"/>
<text text-anchor="middle" x="3977" y="-192.6" font-family="Times,serif" font-size="14.00">ListWidgetComponent </text>
</g>
<!-- NuiDashboardsModule&#45;&gt;ListWidgetComponent  -->
<g id="edge41" class="edge">
<title>NuiDashboardsModule&#45;&gt;ListWidgetComponent </title>
<path fill="none" stroke="black" stroke-dasharray="5,2" d="M3199.3,-145.8C3397.3,-145.8 3928.04,-145.8 3928.04,-145.8 3928.04,-145.8 3928.04,-168.68 3928.04,-168.68"/>
<polygon fill="black" stroke="black" points="3924.54,-168.68 3928.04,-178.68 3931.54,-168.68 3924.54,-168.68"/>
</g>
<!-- LoadingComponent  -->
<g id="node43" class="node">
<title>LoadingComponent </title>
<polygon fill="#fb8072" stroke="black" points="3884.99,-214.8 3753.01,-214.8 3753.01,-178.8 3884.99,-178.8 3884.99,-214.8"/>
<text text-anchor="middle" x="3819" y="-192.6" font-family="Times,serif" font-size="14.00">LoadingComponent </text>
</g>
<!-- NuiDashboardsModule&#45;&gt;LoadingComponent  -->
<g id="edge42" class="edge">
<title>NuiDashboardsModule&#45;&gt;LoadingComponent </title>
<path fill="none" stroke="black" stroke-dasharray="5,2" d="M3199.15,-146.8C3369.89,-146.8 3780.29,-146.8 3780.29,-146.8 3780.29,-146.8 3780.29,-168.75 3780.29,-168.75"/>
<polygon fill="black" stroke="black" points="3776.79,-168.75 3780.29,-178.75 3783.79,-168.75 3776.79,-168.75"/>
</g>
<!-- ProportionalDonutContentComponent  -->
<g id="node44" class="node">
<title>ProportionalDonutContentComponent </title>
<polygon fill="#fb8072" stroke="black" points="3735.15,-214.8 3500.85,-214.8 3500.85,-178.8 3735.15,-178.8 3735.15,-214.8"/>
<text text-anchor="middle" x="3618" y="-192.6" font-family="Times,serif" font-size="14.00">ProportionalDonutContentComponent </text>
</g>
<!-- NuiDashboardsModule&#45;&gt;ProportionalDonutContentComponent  -->
<g id="edge43" class="edge">
<title>NuiDashboardsModule&#45;&gt;ProportionalDonutContentComponent </title>
<path fill="none" stroke="black" stroke-dasharray="5,2" d="M3199.56,-147.8C3315.97,-147.8 3529.6,-147.8 3529.6,-147.8 3529.6,-147.8 3529.6,-168.55 3529.6,-168.55"/>
<polygon fill="black" stroke="black" points="3526.1,-168.55 3529.6,-178.55 3533.1,-168.55 3526.1,-168.55"/>
</g>
<!-- ProportionalWidgetComponent  -->
<g id="node45" class="node">
<title>ProportionalWidgetComponent </title>
<polygon fill="#fb8072" stroke="black" points="3483.03,-214.8 3286.97,-214.8 3286.97,-178.8 3483.03,-178.8 3483.03,-214.8"/>
<text text-anchor="middle" x="3385" y="-192.6" font-family="Times,serif" font-size="14.00">ProportionalWidgetComponent </text>
</g>
<!-- NuiDashboardsModule&#45;&gt;ProportionalWidgetComponent  -->
<g id="edge44" class="edge">
<title>NuiDashboardsModule&#45;&gt;ProportionalWidgetComponent </title>
<path fill="none" stroke="black" stroke-dasharray="5,2" d="M3199.26,-148.8C3253.35,-148.8 3317.6,-148.8 3317.6,-148.8 3317.6,-148.8 3317.6,-168.65 3317.6,-168.65"/>
<polygon fill="black" stroke="black" points="3314.1,-168.65 3317.6,-178.65 3321.1,-168.65 3314.1,-168.65"/>
</g>
<!-- StackComponent  -->
<g id="node46" class="node">
<title>StackComponent </title>
<polygon fill="#fb8072" stroke="black" points="3268.93,-214.8 3153.07,-214.8 3153.07,-178.8 3268.93,-178.8 3268.93,-214.8"/>
<text text-anchor="middle" x="3211" y="-192.6" font-family="Times,serif" font-size="14.00">StackComponent </text>
</g>
<!-- NuiDashboardsModule&#45;&gt;StackComponent  -->
<g id="edge45" class="edge">
<title>NuiDashboardsModule&#45;&gt;StackComponent </title>
<path fill="none" stroke="black" stroke-dasharray="5,2" d="M3176.17,-149.91C3176.17,-149.91 3176.17,-168.79 3176.17,-168.79"/>
<polygon fill="black" stroke="black" points="3172.67,-168.79 3176.17,-178.79 3179.67,-168.79 3172.67,-168.79"/>
</g>
<!-- StackedAreaChartComponent  -->
<g id="node47" class="node">
<title>StackedAreaChartComponent </title>
<polygon fill="#fb8072" stroke="black" points="3134.95,-214.8 2947.05,-214.8 2947.05,-178.8 3134.95,-178.8 3134.95,-214.8"/>
<text text-anchor="middle" x="3041" y="-192.6" font-family="Times,serif" font-size="14.00">StackedAreaChartComponent </text>
</g>
<!-- NuiDashboardsModule&#45;&gt;StackedAreaChartComponent  -->
<g id="edge46" class="edge">
<title>NuiDashboardsModule&#45;&gt;StackedAreaChartComponent </title>
<path fill="none" stroke="black" stroke-dasharray="5,2" d="M3093.7,-149.91C3093.7,-149.91 3093.7,-168.79 3093.7,-168.79"/>
<polygon fill="black" stroke="black" points="3090.2,-168.79 3093.7,-178.79 3097.2,-168.79 3090.2,-168.79"/>
</g>
<!-- StackedBarChartComponent  -->
<g id="node48" class="node">
<title>StackedBarChartComponent </title>
<polygon fill="#fb8072" stroke="black" points="2929.46,-214.8 2748.54,-214.8 2748.54,-178.8 2929.46,-178.8 2929.46,-214.8"/>
<text text-anchor="middle" x="2839" y="-192.6" font-family="Times,serif" font-size="14.00">StackedBarChartComponent </text>
</g>
<!-- NuiDashboardsModule&#45;&gt;StackedBarChartComponent  -->
<g id="edge47" class="edge">
<title>NuiDashboardsModule&#45;&gt;StackedBarChartComponent </title>
<path fill="none" stroke="black" stroke-dasharray="5,2" d="M3052.85,-148.8C2981.73,-148.8 2884.38,-148.8 2884.38,-148.8 2884.38,-148.8 2884.38,-168.65 2884.38,-168.65"/>
<polygon fill="black" stroke="black" points="2880.88,-168.65 2884.38,-178.65 2887.88,-168.65 2880.88,-168.65"/>
</g>
<!-- StackedPercentageAreaChartComponent  -->
<g id="node49" class="node">
<title>StackedPercentageAreaChartComponent </title>
<polygon fill="#fb8072" stroke="black" points="2730.36,-214.8 2481.64,-214.8 2481.64,-178.8 2730.36,-178.8 2730.36,-214.8"/>
<text text-anchor="middle" x="2606" y="-192.6" font-family="Times,serif" font-size="14.00">StackedPercentageAreaChartComponent </text>
</g>
<!-- NuiDashboardsModule&#45;&gt;StackedPercentageAreaChartComponent  -->
<g id="edge48" class="edge">
<title>NuiDashboardsModule&#45;&gt;StackedPercentageAreaChartComponent </title>
<path fill="none" stroke="black" stroke-dasharray="5,2" d="M3052.67,-147.8C2919.92,-147.8 2653.38,-147.8 2653.38,-147.8 2653.38,-147.8 2653.38,-168.55 2653.38,-168.55"/>
<polygon fill="black" stroke="black" points="2649.88,-168.55 2653.38,-178.55 2656.88,-168.55 2649.88,-168.55"/>
</g>
<!-- StatusBarChartComponent  -->
<g id="node50" class="node">
<title>StatusBarChartComponent </title>
<polygon fill="#fb8072" stroke="black" points="2463.37,-214.8 2292.63,-214.8 2292.63,-178.8 2463.37,-178.8 2463.37,-214.8"/>
<text text-anchor="middle" x="2378" y="-192.6" font-family="Times,serif" font-size="14.00">StatusBarChartComponent </text>
</g>
<!-- NuiDashboardsModule&#45;&gt;StatusBarChartComponent  -->
<g id="edge49" class="edge">
<title>NuiDashboardsModule&#45;&gt;StatusBarChartComponent </title>
<path fill="none" stroke="black" stroke-dasharray="5,2" d="M3052.56,-146.8C2873.19,-146.8 2427.38,-146.8 2427.38,-146.8 2427.38,-146.8 2427.38,-168.75 2427.38,-168.75"/>
<polygon fill="black" stroke="black" points="2423.88,-168.75 2427.38,-178.75 2430.88,-168.75 2423.88,-168.75"/>
</g>
<!-- TableWidgetComponent  -->
<g id="node51" class="node">
<title>TableWidgetComponent </title>
<polygon fill="#fb8072" stroke="black" points="2274.92,-214.8 2117.08,-214.8 2117.08,-178.8 2274.92,-178.8 2274.92,-214.8"/>
<text text-anchor="middle" x="2196" y="-192.6" font-family="Times,serif" font-size="14.00">TableWidgetComponent </text>
</g>
<!-- NuiDashboardsModule&#45;&gt;TableWidgetComponent  -->
<g id="edge50" class="edge">
<title>NuiDashboardsModule&#45;&gt;TableWidgetComponent </title>
<path fill="none" stroke="black" stroke-dasharray="5,2" d="M3052.56,-145.8C2841.27,-145.8 2246.88,-145.8 2246.88,-145.8 2246.88,-145.8 2246.88,-168.68 2246.88,-168.68"/>
<polygon fill="black" stroke="black" points="2243.38,-168.68 2246.88,-178.68 2250.38,-168.68 2243.38,-168.68"/>
</g>
<!-- TilesComponent  -->
<g id="node52" class="node">
<title>TilesComponent </title>
<polygon fill="#fb8072" stroke="black" points="2099.33,-214.8 1986.67,-214.8 1986.67,-178.8 2099.33,-178.8 2099.33,-214.8"/>
<text text-anchor="middle" x="2043" y="-192.6" font-family="Times,serif" font-size="14.00">TilesComponent </text>
</g>
<!-- NuiDashboardsModule&#45;&gt;TilesComponent  -->
<g id="edge51" class="edge">
<title>NuiDashboardsModule&#45;&gt;TilesComponent </title>
<path fill="none" stroke="black" stroke-dasharray="5,2" d="M3052.71,-143.8C2817.25,-143.8 2095.38,-143.8 2095.38,-143.8 2095.38,-143.8 2095.38,-168.56 2095.38,-168.56"/>
<polygon fill="black" stroke="black" points="2091.88,-168.56 2095.38,-178.56 2098.88,-168.56 2091.88,-168.56"/>
</g>
<!-- TimeframeSelectionComponent  -->
<g id="node53" class="node">
<title>TimeframeSelectionComponent </title>
<polygon fill="#fb8072" stroke="black" points="1968.62,-214.8 1769.38,-214.8 1769.38,-178.8 1968.62,-178.8 1968.62,-214.8"/>
<text text-anchor="middle" x="1869" y="-192.6" font-family="Times,serif" font-size="14.00">TimeframeSelectionComponent </text>
</g>
<!-- NuiDashboardsModule&#45;&gt;TimeframeSelectionComponent  -->
<g id="edge52" class="edge">
<title>NuiDashboardsModule&#45;&gt;TimeframeSelectionComponent </title>
<path fill="none" stroke="black" stroke-dasharray="5,2" d="M3052.58,-142.8C2791.47,-142.8 1923.38,-142.8 1923.38,-142.8 1923.38,-142.8 1923.38,-168.52 1923.38,-168.52"/>
<polygon fill="black" stroke="black" points="1919.88,-168.52 1923.38,-178.52 1926.88,-168.52 1919.88,-168.52"/>
</g>
<!-- TimeseriesWidgetComponent  -->
<g id="node54" class="node">
<title>TimeseriesWidgetComponent </title>
<polygon fill="#fb8072" stroke="black" points="1751.96,-214.8 1564.04,-214.8 1564.04,-178.8 1751.96,-178.8 1751.96,-214.8"/>
<text text-anchor="middle" x="1658" y="-192.6" font-family="Times,serif" font-size="14.00">TimeseriesWidgetComponent </text>
</g>
<!-- NuiDashboardsModule&#45;&gt;TimeseriesWidgetComponent  -->
<g id="edge53" class="edge">
<title>NuiDashboardsModule&#45;&gt;TimeseriesWidgetComponent </title>
<path fill="none" stroke="black" stroke-dasharray="5,2" d="M3052.56,-141.8C2762.7,-141.8 1713.88,-141.8 1713.88,-141.8 1713.88,-141.8 1713.88,-168.79 1713.88,-168.79"/>
<polygon fill="black" stroke="black" points="1710.38,-168.79 1713.88,-178.79 1717.38,-168.79 1710.38,-168.79"/>
</g>
<!-- WidgetBodyComponent  -->
<g id="node55" class="node">
<title>WidgetBodyComponent </title>
<polygon fill="#fb8072" stroke="black" points="1546.38,-214.8 1389.62,-214.8 1389.62,-178.8 1546.38,-178.8 1546.38,-214.8"/>
<text text-anchor="middle" x="1468" y="-192.6" font-family="Times,serif" font-size="14.00">WidgetBodyComponent </text>
</g>
<!-- NuiDashboardsModule&#45;&gt;WidgetBodyComponent  -->
<g id="edge54" class="edge">
<title>NuiDashboardsModule&#45;&gt;WidgetBodyComponent </title>
<path fill="none" stroke="black" stroke-dasharray="5,2" d="M3052.82,-140.8C2739.38,-140.8 1525.88,-140.8 1525.88,-140.8 1525.88,-140.8 1525.88,-168.77 1525.88,-168.77"/>
<polygon fill="black" stroke="black" points="1522.38,-168.77 1525.88,-178.77 1529.38,-168.77 1522.38,-168.77"/>
</g>
<!-- WidgetBodyContentComponent  -->
<g id="node56" class="node">
<title>WidgetBodyContentComponent </title>
<polygon fill="#fb8072" stroke="black" points="1371.21,-214.8 1170.79,-214.8 1170.79,-178.8 1371.21,-178.8 1371.21,-214.8"/>
<text text-anchor="middle" x="1271" y="-192.6" font-family="Times,serif" font-size="14.00">WidgetBodyContentComponent </text>
</g>
<!-- NuiDashboardsModule&#45;&gt;WidgetBodyContentComponent  -->
<g id="edge55" class="edge">
<title>NuiDashboardsModule&#45;&gt;WidgetBodyContentComponent </title>
<path fill="none" stroke="black" stroke-dasharray="5,2" d="M3052.84,-139.8C2716.03,-139.8 1330.88,-139.8 1330.88,-139.8 1330.88,-139.8 1330.88,-168.76 1330.88,-168.76"/>
<polygon fill="black" stroke="black" points="1327.38,-168.76 1330.88,-178.76 1334.38,-168.76 1327.38,-168.76"/>
</g>
<!-- WidgetComponent  -->
<g id="node57" class="node">
<title>WidgetComponent </title>
<polygon fill="#fb8072" stroke="black" points="1153.04,-214.8 1026.96,-214.8 1026.96,-178.8 1153.04,-178.8 1153.04,-214.8"/>
<text text-anchor="middle" x="1090" y="-192.6" font-family="Times,serif" font-size="14.00">WidgetComponent </text>
</g>
<!-- NuiDashboardsModule&#45;&gt;WidgetComponent  -->
<g id="edge56" class="edge">
<title>NuiDashboardsModule&#45;&gt;WidgetComponent </title>
<path fill="none" stroke="black" stroke-dasharray="5,2" d="M3052.7,-137.8C2694.01,-137.8 1140.94,-137.8 1140.94,-137.8 1140.94,-137.8 1140.94,-168.78 1140.94,-168.78"/>
<polygon fill="black" stroke="black" points="1137.44,-168.78 1140.94,-178.78 1144.44,-168.78 1137.44,-168.78"/>
</g>
<!-- WidgetEditorDirective  -->
<g id="node58" class="node">
<title>WidgetEditorDirective </title>
<polygon fill="#fb8072" stroke="black" points="1008.79,-214.8 861.21,-214.8 861.21,-178.8 1008.79,-178.8 1008.79,-214.8"/>
<text text-anchor="middle" x="935" y="-192.6" font-family="Times,serif" font-size="14.00">WidgetEditorDirective </text>
</g>
<!-- NuiDashboardsModule&#45;&gt;WidgetEditorDirective  -->
<g id="edge57" class="edge">
<title>NuiDashboardsModule&#45;&gt;WidgetEditorDirective </title>
<path fill="none" stroke="black" stroke-dasharray="5,2" d="M3052.76,-136.8C2678.64,-136.8 998.38,-136.8 998.38,-136.8 998.38,-136.8 998.38,-168.8 998.38,-168.8"/>
<polygon fill="black" stroke="black" points="994.88,-168.8 998.38,-178.8 1001.88,-168.8 994.88,-168.8"/>
</g>
<!-- WidgetHeaderComponent  -->
<g id="node59" class="node">
<title>WidgetHeaderComponent </title>
<polygon fill="#fb8072" stroke="black" points="843.45,-214.8 676.55,-214.8 676.55,-178.8 843.45,-178.8 843.45,-214.8"/>
<text text-anchor="middle" x="760" y="-192.6" font-family="Times,serif" font-size="14.00">WidgetHeaderComponent </text>
</g>
<!-- NuiDashboardsModule&#45;&gt;WidgetHeaderComponent  -->
<g id="edge58" class="edge">
<title>NuiDashboardsModule&#45;&gt;WidgetHeaderComponent </title>
<path fill="none" stroke="black" stroke-dasharray="5,2" d="M3052.69,-135.8C2660.18,-135.8 824.88,-135.8 824.88,-135.8 824.88,-135.8 824.88,-168.5 824.88,-168.5"/>
<polygon fill="black" stroke="black" points="821.38,-168.5 824.88,-178.5 828.38,-168.5 821.38,-168.5"/>
</g>
<!-- WidgetSearchComponent  -->
<g id="node60" class="node">
<title>WidgetSearchComponent </title>
<polygon fill="#fb8072" stroke="black" points="659.13,-214.8 494.87,-214.8 494.87,-178.8 659.13,-178.8 659.13,-214.8"/>
<text text-anchor="middle" x="577" y="-192.6" font-family="Times,serif" font-size="14.00">WidgetSearchComponent </text>
</g>
<!-- NuiDashboardsModule&#45;&gt;WidgetSearchComponent  -->
<g id="edge59" class="edge">
<title>NuiDashboardsModule&#45;&gt;WidgetSearchComponent </title>
<path fill="none" stroke="black" stroke-dasharray="5,2" d="M3052.71,-134.8C2641.88,-134.8 643.38,-134.8 643.38,-134.8 643.38,-134.8 643.38,-168.53 643.38,-168.53"/>
<polygon fill="black" stroke="black" points="639.88,-168.53 643.38,-178.53 646.88,-168.53 639.88,-168.53"/>
</g>
<!-- NuiDashboardConfiguratorModule -->
<g id="node30" class="node">
<title>NuiDashboardConfiguratorModule</title>
<polygon fill="#8dd3c7" stroke="black" points="603.5,-84.8 600.5,-88.8 579.5,-88.8 576.5,-84.8 390.5,-84.8 390.5,-48.8 603.5,-48.8 603.5,-84.8"/>
<text text-anchor="middle" x="497" y="-62.6" font-family="Times,serif" font-size="14.00">NuiDashboardConfiguratorModule</text>
</g>
<!-- NuiDashboardConfiguratorModule&#45;&gt;NuiDashboardsModule -->
<g id="edge29" class="edge">
<title>NuiDashboardConfiguratorModule&#45;&gt;NuiDashboardsModule</title>
<path fill="none" stroke="black" d="M549.34,-84.97C549.34,-103.89 549.34,-130.8 549.34,-130.8 549.34,-130.8 3042.69,-130.8 3042.69,-130.8"/>
<polygon fill="black" stroke="black" points="3042.69,-134.3 3052.69,-130.8 3042.69,-127.3 3042.69,-134.3"/>
</g>
<!-- NuiDashboardsCommonModule -->
<g id="node31" class="node">
<title>NuiDashboardsCommonModule</title>
<polygon fill="#8dd3c7" stroke="black" points="372.25,-84.8 369.25,-88.8 348.25,-88.8 345.25,-84.8 173.75,-84.8 173.75,-48.8 372.25,-48.8 372.25,-84.8"/>
<text text-anchor="middle" x="273" y="-62.6" font-family="Times,serif" font-size="14.00">NuiDashboardsCommonModule</text>
</g>
<!-- NuiDashboardsCommonModule&#45;&gt;NuiDashboardsModule -->
<g id="edge30" class="edge">
<title>NuiDashboardsCommonModule&#45;&gt;NuiDashboardsModule</title>
<path fill="none" stroke="black" d="M273,-84.91C273,-104.14 273,-131.8 273,-131.8 273,-131.8 3042.61,-131.8 3042.61,-131.8"/>
<polygon fill="black" stroke="black" points="3042.61,-135.3 3052.61,-131.8 3042.61,-128.3 3042.61,-135.3"/>
</g>
<!-- NuiPizzagnaModule -->
<g id="node32" class="node">
<title>NuiPizzagnaModule</title>
<polygon fill="#8dd3c7" stroke="black" points="155.58,-84.8 152.58,-88.8 131.58,-88.8 128.58,-84.8 24.42,-84.8 24.42,-48.8 155.58,-48.8 155.58,-84.8"/>
<text text-anchor="middle" x="90" y="-62.6" font-family="Times,serif" font-size="14.00">NuiPizzagnaModule</text>
</g>
<!-- NuiPizzagnaModule&#45;&gt;NuiDashboardsModule -->
<g id="edge31" class="edge">
<title>NuiPizzagnaModule&#45;&gt;NuiDashboardsModule</title>
<path fill="none" stroke="black" d="M90,-85.11C90,-104.95 90,-133.8 90,-133.8 90,-133.8 3042.83,-133.8 3042.83,-133.8"/>
<polygon fill="black" stroke="black" points="3042.83,-137.3 3052.83,-133.8 3042.83,-130.3 3042.83,-137.3"/>
</g>
<!-- RefresherSettingsService -->
<g id="node61" class="node">
<title>RefresherSettingsService</title>
<ellipse fill="#fdb462" stroke="black" cx="6132" cy="-66.8" rx="108.78" ry="18"/>
<text text-anchor="middle" x="6132" y="-62.6" font-family="Times,serif" font-size="14.00">RefresherSettingsService</text>
</g>
<!-- RefresherSettingsService&#45;&gt;NuiDashboardsModule -->
<g id="edge60" class="edge">
<title>RefresherSettingsService&#45;&gt;NuiDashboardsModule</title>
<path fill="none" stroke="black" d="M6132,-85.11C6132,-104.95 6132,-133.8 6132,-133.8 6132,-133.8 3209.19,-133.8 3209.19,-133.8"/>
<polygon fill="black" stroke="black" points="3209.19,-130.3 3199.19,-133.8 3209.19,-137.3 3209.19,-130.3"/>
</g>
<!-- WidgetTypesService -->
<g id="node62" class="node">
<title>WidgetTypesService</title>
<ellipse fill="#fdb462" stroke="black" cx="5913" cy="-66.8" rx="92.03" ry="18"/>
<text text-anchor="middle" x="5913" y="-62.6" font-family="Times,serif" font-size="14.00">WidgetTypesService</text>
</g>
<!-- WidgetTypesService&#45;&gt;NuiDashboardsModule -->
<g id="edge61" class="edge">
<title>WidgetTypesService&#45;&gt;NuiDashboardsModule</title>
<path fill="none" stroke="black" d="M5913,-84.91C5913,-104.14 5913,-131.8 5913,-131.8 5913,-131.8 3209.47,-131.8 3209.47,-131.8"/>
<polygon fill="black" stroke="black" points="3209.47,-128.3 3199.47,-131.8 3209.47,-135.3 3209.47,-128.3"/>
</g>
</g>
</svg>
