<?xml version="1.0" encoding="UTF-8" standalone="no"?>
<!DOCTYPE svg PUBLIC "-//W3C//DTD SVG 1.1//EN"
 "http://www.w3.org/Graphics/SVG/1.1/DTD/svg11.dtd">
<!-- Generated by graphviz version 2.44.1 (20200629.0846)
 -->
<!-- Title: dependencies Pages: 1 -->
<svg width="7182pt" height="284pt"
 viewBox="0.00 0.00 7182.00 284.00" xmlns="http://www.w3.org/2000/svg" xmlns:xlink="http://www.w3.org/1999/xlink">
<g id="graph0" class="graph" transform="scale(1 1) rotate(0) translate(4 280)">
<title>dependencies</title>
<polygon fill="white" stroke="transparent" points="-4,4 -4,-280 7178,-280 7178,4 -4,4"/>
<text text-anchor="start" x="3566.01" y="-42.4" font-family="sans-serif" font-weight="bold" font-size="14.00">Legend</text>
<polygon fill="#ffffb3" stroke="transparent" points="3353,-10 3353,-30 3373,-30 3373,-10 3353,-10"/>
<text text-anchor="start" x="3376.63" y="-15.4" font-family="sans-serif" font-size="14.00"> &#160;Declarations</text>
<polygon fill="#8dd3c7" stroke="transparent" points="3466,-10 3466,-30 3486,-30 3486,-10 3466,-10"/>
<text text-anchor="start" x="3489.73" y="-15.4" font-family="sans-serif" font-size="14.00"> &#160;Module</text>
<polygon fill="#80b1d3" stroke="transparent" points="3552,-10 3552,-30 3572,-30 3572,-10 3552,-10"/>
<text text-anchor="start" x="3575.78" y="-15.4" font-family="sans-serif" font-size="14.00"> &#160;Bootstrap</text>
<polygon fill="#fdb462" stroke="transparent" points="3649,-10 3649,-30 3669,-30 3669,-10 3649,-10"/>
<text text-anchor="start" x="3672.67" y="-15.4" font-family="sans-serif" font-size="14.00"> &#160;Providers</text>
<polygon fill="#fb8072" stroke="transparent" points="3745,-10 3745,-30 3765,-30 3765,-10 3745,-10"/>
<text text-anchor="start" x="3768.73" y="-15.4" font-family="sans-serif" font-size="14.00"> &#160;Exports</text>
<g id="clust1" class="cluster">
<title>cluster_NuiDashboardConfiguratorModule</title>
<polygon fill="none" stroke="black" stroke-dasharray="1,5" points="8,-70 8,-268 7166,-268 7166,-70 8,-70"/>
</g>
<g id="clust30" class="cluster">
<title>cluster_NuiDashboardConfiguratorModule_providers</title>
<polygon fill="none" stroke="black" points="5645,-78 5645,-130 7158,-130 7158,-78 5645,-78"/>
</g>
<g id="clust27" class="cluster">
<title>cluster_NuiDashboardConfiguratorModule_imports</title>
<polygon fill="none" stroke="black" points="5273,-78 5273,-130 5637,-130 5637,-78 5273,-78"/>
</g>
<g id="clust28" class="cluster">
<title>cluster_NuiDashboardConfiguratorModule_exports</title>
<polygon fill="none" stroke="black" points="928,-208 928,-260 6259,-260 6259,-208 928,-208"/>
</g>
<g id="clust2" class="cluster">
<title>cluster_NuiDashboardConfiguratorModule_declarations</title>
<polygon fill="none" stroke="black" points="16,-78 16,-130 5265,-130 5265,-78 16,-78"/>
</g>
<!-- AddDataPipe -->
<g id="node1" class="node">
<title>AddDataPipe</title>
<polygon fill="#ffffb3" stroke="black" points="5256.92,-122 5165.08,-122 5165.08,-86 5256.92,-86 5256.92,-122"/>
<text text-anchor="middle" x="5211" y="-99.8" font-family="Times,serif" font-size="14.00">AddDataPipe</text>
</g>
<!-- NuiDashboardConfiguratorModule -->
<g id="node25" class="node">
<title>NuiDashboardConfiguratorModule</title>
<polygon fill="#8dd3c7" stroke="black" points="3791.5,-187 3788.5,-191 3767.5,-191 3764.5,-187 3578.5,-187 3578.5,-151 3791.5,-151 3791.5,-187"/>
<text text-anchor="middle" x="3685" y="-164.8" font-family="Times,serif" font-size="14.00">NuiDashboardConfiguratorModule</text>
</g>
<!-- AddDataPipe&#45;&gt;NuiDashboardConfiguratorModule -->
<g id="edge1" class="edge">
<title>AddDataPipe&#45;&gt;NuiDashboardConfiguratorModule</title>
<path fill="none" stroke="black" d="M5193.1,-122.04C5193.1,-138.73 5193.1,-161 5193.1,-161 5193.1,-161 3801.65,-161 3801.65,-161"/>
<polygon fill="black" stroke="black" points="3801.65,-157.5 3791.65,-161 3801.65,-164.5 3801.65,-157.5"/>
</g>
<!-- AggregatorMetricSelectorConfigurationComponent -->
<g id="node2" class="node">
<title>AggregatorMetricSelectorConfigurationComponent</title>
<polygon fill="#ffffb3" stroke="black" points="5147.31,-122 4840.69,-122 4840.69,-86 5147.31,-86 5147.31,-122"/>
<text text-anchor="middle" x="4994" y="-99.8" font-family="Times,serif" font-size="14.00">AggregatorMetricSelectorConfigurationComponent</text>
</g>
<!-- AggregatorMetricSelectorConfigurationComponent&#45;&gt;NuiDashboardConfiguratorModule -->
<g id="edge2" class="edge">
<title>AggregatorMetricSelectorConfigurationComponent&#45;&gt;NuiDashboardConfiguratorModule</title>
<path fill="none" stroke="black" d="M4866.47,-122.01C4866.47,-138.05 4866.47,-159 4866.47,-159 4866.47,-159 3801.67,-159 3801.67,-159"/>
<polygon fill="black" stroke="black" points="3801.67,-155.5 3791.67,-159 3801.67,-162.5 3801.67,-155.5"/>
</g>
<!-- ColorPickerComponent -->
<g id="node3" class="node">
<title>ColorPickerComponent</title>
<polygon fill="#ffffb3" stroke="black" points="4822.48,-122 4673.52,-122 4673.52,-86 4822.48,-86 4822.48,-122"/>
<text text-anchor="middle" x="4748" y="-99.8" font-family="Times,serif" font-size="14.00">ColorPickerComponent</text>
</g>
<!-- ColorPickerComponent&#45;&gt;NuiDashboardConfiguratorModule -->
<g id="edge3" class="edge">
<title>ColorPickerComponent&#45;&gt;NuiDashboardConfiguratorModule</title>
<path fill="none" stroke="black" d="M4748,-122.28C4748,-137.95 4748,-158 4748,-158 4748,-158 3801.79,-158 3801.79,-158"/>
<polygon fill="black" stroke="black" points="3801.79,-154.5 3791.79,-158 3801.79,-161.5 3801.79,-154.5"/>
</g>
<!-- ConfiguratorHeadingComponent -->
<g id="node4" class="node">
<title>ConfiguratorHeadingComponent</title>
<polygon fill="#ffffb3" stroke="black" points="4655.57,-122 4454.43,-122 4454.43,-86 4655.57,-86 4655.57,-122"/>
<text text-anchor="middle" x="4555" y="-99.8" font-family="Times,serif" font-size="14.00">ConfiguratorHeadingComponent</text>
</g>
<!-- ConfiguratorHeadingComponent&#45;&gt;NuiDashboardConfiguratorModule -->
<g id="edge4" class="edge">
<title>ConfiguratorHeadingComponent&#45;&gt;NuiDashboardConfiguratorModule</title>
<path fill="none" stroke="black" d="M4550.18,-122.24C4550.18,-137.57 4550.18,-157 4550.18,-157 4550.18,-157 3801.52,-157 3801.52,-157"/>
<polygon fill="black" stroke="black" points="3801.52,-153.5 3791.52,-157 3801.52,-160.5 3801.52,-153.5"/>
</g>
<!-- DashwizButtonsComponent -->
<g id="node5" class="node">
<title>DashwizButtonsComponent</title>
<polygon fill="#ffffb3" stroke="black" points="4436.87,-122 4263.13,-122 4263.13,-86 4436.87,-86 4436.87,-122"/>
<text text-anchor="middle" x="4350" y="-99.8" font-family="Times,serif" font-size="14.00">DashwizButtonsComponent</text>
</g>
<!-- DashwizButtonsComponent&#45;&gt;NuiDashboardConfiguratorModule -->
<g id="edge5" class="edge">
<title>DashwizButtonsComponent&#45;&gt;NuiDashboardConfiguratorModule</title>
<path fill="none" stroke="black" d="M4322.71,-122.12C4322.71,-136.78 4322.71,-155 4322.71,-155 4322.71,-155 3801.74,-155 3801.74,-155"/>
<polygon fill="black" stroke="black" points="3801.74,-151.5 3791.74,-155 3801.74,-158.5 3801.74,-151.5"/>
</g>
<!-- DashwizComponent -->
<g id="node6" class="node">
<title>DashwizComponent</title>
<polygon fill="#ffffb3" stroke="black" points="4245.31,-122 4114.69,-122 4114.69,-86 4245.31,-86 4245.31,-122"/>
<text text-anchor="middle" x="4180" y="-99.8" font-family="Times,serif" font-size="14.00">DashwizComponent</text>
</g>
<!-- DashwizComponent&#45;&gt;NuiDashboardConfiguratorModule -->
<g id="edge6" class="edge">
<title>DashwizComponent&#45;&gt;NuiDashboardConfiguratorModule</title>
<path fill="none" stroke="black" d="M4130.52,-122.05C4130.52,-136.37 4130.52,-154 4130.52,-154 4130.52,-154 3801.71,-154 3801.71,-154"/>
<polygon fill="black" stroke="black" points="3801.71,-150.5 3791.71,-154 3801.71,-157.5 3801.71,-150.5"/>
</g>
<!-- DashwizStepComponent -->
<g id="node7" class="node">
<title>DashwizStepComponent</title>
<polygon fill="#ffffb3" stroke="black" points="4096.7,-122 3941.3,-122 3941.3,-86 4096.7,-86 4096.7,-122"/>
<text text-anchor="middle" x="4019" y="-99.8" font-family="Times,serif" font-size="14.00">DashwizStepComponent</text>
</g>
<!-- DashwizStepComponent&#45;&gt;NuiDashboardConfiguratorModule -->
<g id="edge7" class="edge">
<title>DashwizStepComponent&#45;&gt;NuiDashboardConfiguratorModule</title>
<path fill="none" stroke="black" d="M3952.16,-122.25C3952.16,-136.18 3952.16,-153 3952.16,-153 3952.16,-153 3801.74,-153 3801.74,-153"/>
<polygon fill="black" stroke="black" points="3801.74,-149.5 3791.74,-153 3801.74,-156.5 3801.74,-149.5"/>
</g>
<!-- DataSourceConfigurationComponent -->
<g id="node8" class="node">
<title>DataSourceConfigurationComponent</title>
<polygon fill="#ffffb3" stroke="black" points="3923.68,-122 3698.32,-122 3698.32,-86 3923.68,-86 3923.68,-122"/>
<text text-anchor="middle" x="3811" y="-99.8" font-family="Times,serif" font-size="14.00">DataSourceConfigurationComponent</text>
</g>
<!-- DataSourceConfigurationComponent&#45;&gt;NuiDashboardConfiguratorModule -->
<g id="edge8" class="edge">
<title>DataSourceConfigurationComponent&#45;&gt;NuiDashboardConfiguratorModule</title>
<path fill="none" stroke="black" d="M3745.08,-122.11C3745.08,-122.11 3745.08,-140.99 3745.08,-140.99"/>
<polygon fill="black" stroke="black" points="3741.58,-140.99 3745.08,-150.99 3748.58,-140.99 3741.58,-140.99"/>
</g>
<!-- DataSourceConfigurationV2Component -->
<g id="node9" class="node">
<title>DataSourceConfigurationV2Component</title>
<polygon fill="#ffffb3" stroke="black" points="3680.28,-122 3437.72,-122 3437.72,-86 3680.28,-86 3680.28,-122"/>
<text text-anchor="middle" x="3559" y="-99.8" font-family="Times,serif" font-size="14.00">DataSourceConfigurationV2Component</text>
</g>
<!-- DataSourceConfigurationV2Component&#45;&gt;NuiDashboardConfiguratorModule -->
<g id="edge9" class="edge">
<title>DataSourceConfigurationV2Component&#45;&gt;NuiDashboardConfiguratorModule</title>
<path fill="none" stroke="black" d="M3629.19,-122.11C3629.19,-122.11 3629.19,-140.99 3629.19,-140.99"/>
<polygon fill="black" stroke="black" points="3625.7,-140.99 3629.19,-150.99 3632.7,-140.99 3625.7,-140.99"/>
</g>
<!-- DonutContentConfigurationComponent -->
<g id="node10" class="node">
<title>DonutContentConfigurationComponent</title>
<polygon fill="#ffffb3" stroke="black" points="3419.71,-122 3180.29,-122 3180.29,-86 3419.71,-86 3419.71,-122"/>
<text text-anchor="middle" x="3300" y="-99.8" font-family="Times,serif" font-size="14.00">DonutContentConfigurationComponent</text>
</g>
<!-- DonutContentConfigurationComponent&#45;&gt;NuiDashboardConfiguratorModule -->
<g id="edge10" class="edge">
<title>DonutContentConfigurationComponent&#45;&gt;NuiDashboardConfiguratorModule</title>
<path fill="none" stroke="black" d="M3405.5,-122.25C3405.5,-136.18 3405.5,-153 3405.5,-153 3405.5,-153 3568.14,-153 3568.14,-153"/>
<polygon fill="black" stroke="black" points="3568.14,-156.5 3578.14,-153 3568.14,-149.5 3568.14,-156.5"/>
</g>
<!-- DropAreaComponent -->
<g id="node11" class="node">
<title>DropAreaComponent</title>
<polygon fill="#ffffb3" stroke="black" points="3162.8,-122 3025.2,-122 3025.2,-86 3162.8,-86 3162.8,-122"/>
<text text-anchor="middle" x="3094" y="-99.8" font-family="Times,serif" font-size="14.00">DropAreaComponent</text>
</g>
<!-- DropAreaComponent&#45;&gt;NuiDashboardConfiguratorModule -->
<g id="edge11" class="edge">
<title>DropAreaComponent&#45;&gt;NuiDashboardConfiguratorModule</title>
<path fill="none" stroke="black" d="M3094,-122.05C3094,-136.37 3094,-154 3094,-154 3094,-154 3568.32,-154 3568.32,-154"/>
<polygon fill="black" stroke="black" points="3568.32,-157.5 3578.32,-154 3568.32,-150.5 3568.32,-157.5"/>
</g>
<!-- EntityFormattingConfigurationComponent -->
<g id="node12" class="node">
<title>EntityFormattingConfigurationComponent</title>
<polygon fill="#ffffb3" stroke="black" points="3007.32,-122 2750.68,-122 2750.68,-86 3007.32,-86 3007.32,-122"/>
<text text-anchor="middle" x="2879" y="-99.8" font-family="Times,serif" font-size="14.00">EntityFormattingConfigurationComponent</text>
</g>
<!-- EntityFormattingConfigurationComponent&#45;&gt;NuiDashboardConfiguratorModule -->
<g id="edge12" class="edge">
<title>EntityFormattingConfigurationComponent&#45;&gt;NuiDashboardConfiguratorModule</title>
<path fill="none" stroke="black" d="M2990.32,-122.12C2990.32,-136.78 2990.32,-155 2990.32,-155 2990.32,-155 3568.36,-155 3568.36,-155"/>
<polygon fill="black" stroke="black" points="3568.36,-158.5 3578.36,-155 3568.36,-151.5 3568.36,-158.5"/>
</g>
<!-- FieldMapperAggregatorConfiguratorComponent -->
<g id="node13" class="node">
<title>FieldMapperAggregatorConfiguratorComponent</title>
<polygon fill="#ffffb3" stroke="black" points="2732.71,-122 2443.29,-122 2443.29,-86 2732.71,-86 2732.71,-122"/>
<text text-anchor="middle" x="2588" y="-99.8" font-family="Times,serif" font-size="14.00">FieldMapperAggregatorConfiguratorComponent</text>
</g>
<!-- FieldMapperAggregatorConfiguratorComponent&#45;&gt;NuiDashboardConfiguratorModule -->
<g id="edge13" class="edge">
<title>FieldMapperAggregatorConfiguratorComponent&#45;&gt;NuiDashboardConfiguratorModule</title>
<path fill="none" stroke="black" d="M2653.57,-122.24C2653.57,-137.57 2653.57,-157 2653.57,-157 2653.57,-157 3568.02,-157 3568.02,-157"/>
<polygon fill="black" stroke="black" points="3568.02,-160.5 3578.02,-157 3568.02,-153.5 3568.02,-160.5"/>
</g>
<!-- FormHeaderIconPipePipe -->
<g id="node14" class="node">
<title>FormHeaderIconPipePipe</title>
<polygon fill="#ffffb3" stroke="black" points="2424.9,-122 2263.1,-122 2263.1,-86 2424.9,-86 2424.9,-122"/>
<text text-anchor="middle" x="2344" y="-99.8" font-family="Times,serif" font-size="14.00">FormHeaderIconPipePipe</text>
</g>
<!-- FormHeaderIconPipePipe&#45;&gt;NuiDashboardConfiguratorModule -->
<g id="edge14" class="edge">
<title>FormHeaderIconPipePipe&#45;&gt;NuiDashboardConfiguratorModule</title>
<path fill="none" stroke="black" d="M2369.26,-122.28C2369.26,-137.95 2369.26,-158 2369.26,-158 2369.26,-158 3568.44,-158 3568.44,-158"/>
<polygon fill="black" stroke="black" points="3568.44,-161.5 3578.44,-158 3568.44,-154.5 3568.44,-161.5"/>
</g>
<!-- GroupingConfigurationComponent -->
<g id="node15" class="node">
<title>GroupingConfigurationComponent</title>
<polygon fill="#ffffb3" stroke="black" points="2245.53,-122 2032.47,-122 2032.47,-86 2245.53,-86 2245.53,-122"/>
<text text-anchor="middle" x="2139" y="-99.8" font-family="Times,serif" font-size="14.00">GroupingConfigurationComponent</text>
</g>
<!-- GroupingConfigurationComponent&#45;&gt;NuiDashboardConfiguratorModule -->
<g id="edge15" class="edge">
<title>GroupingConfigurationComponent&#45;&gt;NuiDashboardConfiguratorModule</title>
<path fill="none" stroke="black" d="M2157.8,-122.01C2157.8,-138.05 2157.8,-159 2157.8,-159 2157.8,-159 3568.22,-159 3568.22,-159"/>
<polygon fill="black" stroke="black" points="3568.22,-162.5 3578.22,-159 3568.22,-155.5 3568.22,-162.5"/>
</g>
<!-- PercentageFormatterComponent -->
<g id="node16" class="node">
<title>PercentageFormatterComponent</title>
<polygon fill="#ffffb3" stroke="black" points="2013.94,-122 1816.06,-122 1816.06,-86 2013.94,-86 2013.94,-122"/>
<text text-anchor="middle" x="1915" y="-99.8" font-family="Times,serif" font-size="14.00">PercentageFormatterComponent</text>
</g>
<!-- PercentageFormatterComponent&#45;&gt;NuiDashboardConfiguratorModule -->
<g id="edge16" class="edge">
<title>PercentageFormatterComponent&#45;&gt;NuiDashboardConfiguratorModule</title>
<path fill="none" stroke="black" d="M1950.95,-122.04C1950.95,-138.73 1950.95,-161 1950.95,-161 1950.95,-161 3568.49,-161 3568.49,-161"/>
<polygon fill="black" stroke="black" points="3568.49,-164.5 3578.49,-161 3568.49,-157.5 3568.49,-164.5"/>
</g>
<!-- PizzagnaRootPipe -->
<g id="node17" class="node">
<title>PizzagnaRootPipe</title>
<polygon fill="#ffffb3" stroke="black" points="1798.15,-122 1679.85,-122 1679.85,-86 1798.15,-86 1798.15,-122"/>
<text text-anchor="middle" x="1739" y="-99.8" font-family="Times,serif" font-size="14.00">PizzagnaRootPipe</text>
</g>
<!-- PizzagnaRootPipe&#45;&gt;NuiDashboardConfiguratorModule -->
<g id="edge17" class="edge">
<title>PizzagnaRootPipe&#45;&gt;NuiDashboardConfiguratorModule</title>
<path fill="none" stroke="black" d="M1739,-122.03C1739,-139.06 1739,-162 1739,-162 1739,-162 3568.3,-162 3568.3,-162"/>
<polygon fill="black" stroke="black" points="3568.3,-165.5 3578.3,-162 3568.3,-158.5 3568.3,-165.5"/>
</g>
<!-- ProportionalChartOptionsEditorV2Component -->
<g id="node18" class="node">
<title>ProportionalChartOptionsEditorV2Component</title>
<polygon fill="#ffffb3" stroke="black" points="1661.36,-122 1382.64,-122 1382.64,-86 1661.36,-86 1661.36,-122"/>
<text text-anchor="middle" x="1522" y="-99.8" font-family="Times,serif" font-size="14.00">ProportionalChartOptionsEditorV2Component</text>
</g>
<!-- ProportionalChartOptionsEditorV2Component&#45;&gt;NuiDashboardConfiguratorModule -->
<g id="edge18" class="edge">
<title>ProportionalChartOptionsEditorV2Component&#45;&gt;NuiDashboardConfiguratorModule</title>
<path fill="none" stroke="black" d="M1645.63,-122.02C1645.63,-139.37 1645.63,-163 1645.63,-163 1645.63,-163 3568.23,-163 3568.23,-163"/>
<polygon fill="black" stroke="black" points="3568.23,-166.5 3578.23,-163 3568.23,-159.5 3568.23,-166.5"/>
</g>
<!-- RefreshRateConfiguratorComponent -->
<g id="node19" class="node">
<title>RefreshRateConfiguratorComponent</title>
<polygon fill="#ffffb3" stroke="black" points="1364.33,-122 1141.67,-122 1141.67,-86 1364.33,-86 1364.33,-122"/>
<text text-anchor="middle" x="1253" y="-99.8" font-family="Times,serif" font-size="14.00">RefreshRateConfiguratorComponent</text>
</g>
<!-- RefreshRateConfiguratorComponent&#45;&gt;NuiDashboardConfiguratorModule -->
<g id="edge19" class="edge">
<title>RefreshRateConfiguratorComponent&#45;&gt;NuiDashboardConfiguratorModule</title>
<path fill="none" stroke="black" d="M1359.21,-122.3C1359.21,-140.27 1359.21,-165 1359.21,-165 1359.21,-165 3568.26,-165 3568.26,-165"/>
<polygon fill="black" stroke="black" points="3568.26,-168.5 3578.26,-165 3568.26,-161.5 3568.26,-168.5"/>
</g>
<!-- WidgetClonerComponent -->
<g id="node20" class="node">
<title>WidgetClonerComponent</title>
<polygon fill="#ffffb3" stroke="black" points="1123.15,-122 962.85,-122 962.85,-86 1123.15,-86 1123.15,-122"/>
<text text-anchor="middle" x="1043" y="-99.8" font-family="Times,serif" font-size="14.00">WidgetClonerComponent</text>
</g>
<!-- WidgetClonerComponent&#45;&gt;NuiDashboardConfiguratorModule -->
<g id="edge20" class="edge">
<title>WidgetClonerComponent&#45;&gt;NuiDashboardConfiguratorModule</title>
<path fill="none" stroke="black" d="M1119.66,-122.27C1119.66,-140.56 1119.66,-166 1119.66,-166 1119.66,-166 3568.44,-166 3568.44,-166"/>
<polygon fill="black" stroke="black" points="3568.44,-169.5 3578.44,-166 3568.44,-162.5 3568.44,-169.5"/>
</g>
<!-- WidgetConfiguratorSectionComponent -->
<g id="node21" class="node">
<title>WidgetConfiguratorSectionComponent</title>
<polygon fill="#ffffb3" stroke="black" points="944.35,-122 707.65,-122 707.65,-86 944.35,-86 944.35,-122"/>
<text text-anchor="middle" x="826" y="-99.8" font-family="Times,serif" font-size="14.00">WidgetConfiguratorSectionComponent</text>
</g>
<!-- WidgetConfiguratorSectionComponent&#45;&gt;NuiDashboardConfiguratorModule -->
<g id="edge21" class="edge">
<title>WidgetConfiguratorSectionComponent&#45;&gt;NuiDashboardConfiguratorModule</title>
<path fill="none" stroke="black" d="M940.45,-122.22C940.45,-140.83 940.45,-167 940.45,-167 940.45,-167 3568.25,-167 3568.25,-167"/>
<polygon fill="black" stroke="black" points="3568.25,-170.5 3578.25,-167 3568.25,-163.5 3568.25,-170.5"/>
</g>
<!-- WidgetConfiguratorSectionHeaderPipe -->
<g id="node22" class="node">
<title>WidgetConfiguratorSectionHeaderPipe</title>
<polygon fill="#ffffb3" stroke="black" points="689.32,-122 452.68,-122 452.68,-86 689.32,-86 689.32,-122"/>
<text text-anchor="middle" x="571" y="-99.8" font-family="Times,serif" font-size="14.00">WidgetConfiguratorSectionHeaderPipe</text>
</g>
<!-- WidgetConfiguratorSectionHeaderPipe&#45;&gt;NuiDashboardConfiguratorModule -->
<g id="edge22" class="edge">
<title>WidgetConfiguratorSectionHeaderPipe&#45;&gt;NuiDashboardConfiguratorModule</title>
<path fill="none" stroke="black" d="M571,-122.11C571,-141.34 571,-169 571,-169 571,-169 3568.26,-169 3568.26,-169"/>
<polygon fill="black" stroke="black" points="3568.26,-172.5 3578.26,-169 3568.26,-165.5 3568.26,-172.5"/>
</g>
<!-- WidgetEditorAccordionFormStatePipe -->
<g id="node23" class="node">
<title>WidgetEditorAccordionFormStatePipe</title>
<polygon fill="#ffffb3" stroke="black" points="434.01,-122 199.99,-122 199.99,-86 434.01,-86 434.01,-122"/>
<text text-anchor="middle" x="317" y="-99.8" font-family="Times,serif" font-size="14.00">WidgetEditorAccordionFormStatePipe</text>
</g>
<!-- WidgetEditorAccordionFormStatePipe&#45;&gt;NuiDashboardConfiguratorModule -->
<g id="edge23" class="edge">
<title>WidgetEditorAccordionFormStatePipe&#45;&gt;NuiDashboardConfiguratorModule</title>
<path fill="none" stroke="black" d="M317,-122.03C317,-141.58 317,-170 317,-170 317,-170 3568.17,-170 3568.17,-170"/>
<polygon fill="black" stroke="black" points="3568.17,-173.5 3578.17,-170 3568.17,-166.5 3568.17,-173.5"/>
</g>
<!-- WidgetEditorComponent -->
<g id="node24" class="node">
<title>WidgetEditorComponent</title>
<polygon fill="#ffffb3" stroke="black" points="181.54,-122 24.46,-122 24.46,-86 181.54,-86 181.54,-122"/>
<text text-anchor="middle" x="103" y="-99.8" font-family="Times,serif" font-size="14.00">WidgetEditorComponent</text>
</g>
<!-- WidgetEditorComponent&#45;&gt;NuiDashboardConfiguratorModule -->
<g id="edge24" class="edge">
<title>WidgetEditorComponent&#45;&gt;NuiDashboardConfiguratorModule</title>
<path fill="none" stroke="black" d="M103,-122.31C103,-142.15 103,-171 103,-171 103,-171 3568.28,-171 3568.28,-171"/>
<polygon fill="black" stroke="black" points="3568.28,-174.5 3578.28,-171 3568.28,-167.5 3568.28,-174.5"/>
</g>
<!-- AddDataPipe  -->
<g id="node28" class="node">
<title>AddDataPipe </title>
<polygon fill="#fb8072" stroke="black" points="6251.42,-252 6156.58,-252 6156.58,-216 6251.42,-216 6251.42,-252"/>
<text text-anchor="middle" x="6204" y="-229.8" font-family="Times,serif" font-size="14.00">AddDataPipe </text>
</g>
<!-- NuiDashboardConfiguratorModule&#45;&gt;AddDataPipe  -->
<g id="edge27" class="edge">
<title>NuiDashboardConfiguratorModule&#45;&gt;AddDataPipe </title>
<path fill="none" stroke="black" stroke-dasharray="5,2" d="M3791.87,-173C4271.28,-173 6200.24,-173 6200.24,-173 6200.24,-173 6200.24,-205.7 6200.24,-205.7"/>
<polygon fill="black" stroke="black" points="6196.74,-205.7 6200.24,-215.7 6203.74,-205.7 6196.74,-205.7"/>
</g>
<!-- AggregatorMetricSelectorConfigurationComponent  -->
<g id="node29" class="node">
<title>AggregatorMetricSelectorConfigurationComponent </title>
<polygon fill="#fb8072" stroke="black" points="6138.31,-252 5827.69,-252 5827.69,-216 6138.31,-216 6138.31,-252"/>
<text text-anchor="middle" x="5983" y="-229.8" font-family="Times,serif" font-size="14.00">AggregatorMetricSelectorConfigurationComponent </text>
</g>
<!-- NuiDashboardConfiguratorModule&#45;&gt;AggregatorMetricSelectorConfigurationComponent  -->
<g id="edge28" class="edge">
<title>NuiDashboardConfiguratorModule&#45;&gt;AggregatorMetricSelectorConfigurationComponent </title>
<path fill="none" stroke="black" stroke-dasharray="5,2" d="M3791.53,-174C4224.99,-174 5833.2,-174 5833.2,-174 5833.2,-174 5833.2,-206 5833.2,-206"/>
<polygon fill="black" stroke="black" points="5829.7,-206 5833.2,-216 5836.7,-206 5829.7,-206"/>
</g>
<!-- ColorPickerComponent  -->
<g id="node30" class="node">
<title>ColorPickerComponent </title>
<polygon fill="#fb8072" stroke="black" points="5810.48,-252 5657.52,-252 5657.52,-216 5810.48,-216 5810.48,-252"/>
<text text-anchor="middle" x="5734" y="-229.8" font-family="Times,serif" font-size="14.00">ColorPickerComponent </text>
</g>
<!-- NuiDashboardConfiguratorModule&#45;&gt;ColorPickerComponent  -->
<g id="edge29" class="edge">
<title>NuiDashboardConfiguratorModule&#45;&gt;ColorPickerComponent </title>
<path fill="none" stroke="black" stroke-dasharray="5,2" d="M3791.8,-175C4216.07,-175 5759.41,-175 5759.41,-175 5759.41,-175 5759.41,-205.98 5759.41,-205.98"/>
<polygon fill="black" stroke="black" points="5755.91,-205.98 5759.41,-215.98 5762.91,-205.98 5755.91,-205.98"/>
</g>
<!-- ConfiguratorHeadingComponent  -->
<g id="node31" class="node">
<title>ConfiguratorHeadingComponent </title>
<polygon fill="#fb8072" stroke="black" points="5639.07,-252 5434.93,-252 5434.93,-216 5639.07,-216 5639.07,-252"/>
<text text-anchor="middle" x="5537" y="-229.8" font-family="Times,serif" font-size="14.00">ConfiguratorHeadingComponent </text>
</g>
<!-- NuiDashboardConfiguratorModule&#45;&gt;ConfiguratorHeadingComponent  -->
<g id="edge30" class="edge">
<title>NuiDashboardConfiguratorModule&#45;&gt;ConfiguratorHeadingComponent </title>
<path fill="none" stroke="black" stroke-dasharray="5,2" d="M3791.74,-177C4180.71,-177 5499.6,-177 5499.6,-177 5499.6,-177 5499.6,-205.96 5499.6,-205.96"/>
<polygon fill="black" stroke="black" points="5496.1,-205.96 5499.6,-215.96 5503.1,-205.96 5496.1,-205.96"/>
</g>
<!-- DashwizButtonsComponent  -->
<g id="node32" class="node">
<title>DashwizButtonsComponent </title>
<polygon fill="#fb8072" stroke="black" points="5416.87,-252 5239.13,-252 5239.13,-216 5416.87,-216 5416.87,-252"/>
<text text-anchor="middle" x="5328" y="-229.8" font-family="Times,serif" font-size="14.00">DashwizButtonsComponent </text>
</g>
<!-- NuiDashboardConfiguratorModule&#45;&gt;DashwizButtonsComponent  -->
<g id="edge31" class="edge">
<title>NuiDashboardConfiguratorModule&#45;&gt;DashwizButtonsComponent </title>
<path fill="none" stroke="black" stroke-dasharray="5,2" d="M3791.51,-178C4143.64,-178 5248.01,-178 5248.01,-178 5248.01,-178 5248.01,-205.97 5248.01,-205.97"/>
<polygon fill="black" stroke="black" points="5244.51,-205.97 5248.01,-215.97 5251.51,-205.97 5244.51,-205.97"/>
</g>
<!-- DashwizComponent  -->
<g id="node33" class="node">
<title>DashwizComponent </title>
<polygon fill="#fb8072" stroke="black" points="5220.81,-252 5087.19,-252 5087.19,-216 5220.81,-216 5220.81,-252"/>
<text text-anchor="middle" x="5154" y="-229.8" font-family="Times,serif" font-size="14.00">DashwizComponent </text>
</g>
<!-- NuiDashboardConfiguratorModule&#45;&gt;DashwizComponent  -->
<g id="edge32" class="edge">
<title>NuiDashboardConfiguratorModule&#45;&gt;DashwizComponent </title>
<path fill="none" stroke="black" stroke-dasharray="5,2" d="M3791.77,-179C4123.99,-179 5117.25,-179 5117.25,-179 5117.25,-179 5117.25,-205.99 5117.25,-205.99"/>
<polygon fill="black" stroke="black" points="5113.75,-205.99 5117.25,-215.99 5120.75,-205.99 5113.75,-205.99"/>
</g>
<!-- DashwizStepComponent  -->
<g id="node34" class="node">
<title>DashwizStepComponent </title>
<polygon fill="#fb8072" stroke="black" points="5069.2,-252 4910.8,-252 4910.8,-216 5069.2,-216 5069.2,-252"/>
<text text-anchor="middle" x="4990" y="-229.8" font-family="Times,serif" font-size="14.00">DashwizStepComponent </text>
</g>
<!-- NuiDashboardConfiguratorModule&#45;&gt;DashwizStepComponent  -->
<g id="edge33" class="edge">
<title>NuiDashboardConfiguratorModule&#45;&gt;DashwizStepComponent </title>
<path fill="none" stroke="black" stroke-dasharray="5,2" d="M3791.52,-181C4102.94,-181 4990,-181 4990,-181 4990,-181 4990,-205.76 4990,-205.76"/>
<polygon fill="black" stroke="black" points="4986.5,-205.76 4990,-215.76 4993.5,-205.76 4986.5,-205.76"/>
</g>
<!-- DataSourceConfigurationComponent  -->
<g id="node35" class="node">
<title>DataSourceConfigurationComponent </title>
<polygon fill="#fb8072" stroke="black" points="4892.18,-252 4663.82,-252 4663.82,-216 4892.18,-216 4892.18,-252"/>
<text text-anchor="middle" x="4778" y="-229.8" font-family="Times,serif" font-size="14.00">DataSourceConfigurationComponent </text>
</g>
<!-- NuiDashboardConfiguratorModule&#45;&gt;DataSourceConfigurationComponent  -->
<g id="edge34" class="edge">
<title>NuiDashboardConfiguratorModule&#45;&gt;DataSourceConfigurationComponent </title>
<path fill="none" stroke="black" stroke-dasharray="5,2" d="M3791.66,-182C4046.29,-182 4668.59,-182 4668.59,-182 4668.59,-182 4668.59,-205.81 4668.59,-205.81"/>
<polygon fill="black" stroke="black" points="4665.09,-205.81 4668.59,-215.81 4672.09,-205.81 4665.09,-205.81"/>
</g>
<!-- DataSourceConfigurationV2Component  -->
<g id="node36" class="node">
<title>DataSourceConfigurationV2Component </title>
<polygon fill="#fb8072" stroke="black" points="4645.78,-252 4400.22,-252 4400.22,-216 4645.78,-216 4645.78,-252"/>
<text text-anchor="middle" x="4523" y="-229.8" font-family="Times,serif" font-size="14.00">DataSourceConfigurationV2Component </text>
</g>
<!-- NuiDashboardConfiguratorModule&#45;&gt;DataSourceConfigurationV2Component  -->
<g id="edge35" class="edge">
<title>NuiDashboardConfiguratorModule&#45;&gt;DataSourceConfigurationV2Component </title>
<path fill="none" stroke="black" stroke-dasharray="5,2" d="M3791.66,-183C3995.1,-183 4418.52,-183 4418.52,-183 4418.52,-183 4418.52,-205.88 4418.52,-205.88"/>
<polygon fill="black" stroke="black" points="4415.02,-205.88 4418.52,-215.88 4422.02,-205.88 4415.02,-205.88"/>
</g>
<!-- DonutContentConfigurationComponent  -->
<g id="node37" class="node">
<title>DonutContentConfigurationComponent </title>
<polygon fill="#fb8072" stroke="black" points="4382.21,-252 4139.79,-252 4139.79,-216 4382.21,-216 4382.21,-252"/>
<text text-anchor="middle" x="4261" y="-229.8" font-family="Times,serif" font-size="14.00">DonutContentConfigurationComponent </text>
</g>
<!-- NuiDashboardConfiguratorModule&#45;&gt;DonutContentConfigurationComponent  -->
<g id="edge36" class="edge">
<title>NuiDashboardConfiguratorModule&#45;&gt;DonutContentConfigurationComponent </title>
<path fill="none" stroke="black" stroke-dasharray="5,2" d="M3791.68,-185C3940.5,-185 4192.4,-185 4192.4,-185 4192.4,-185 4192.4,-205.75 4192.4,-205.75"/>
<polygon fill="black" stroke="black" points="4188.9,-205.75 4192.4,-215.75 4195.9,-205.75 4188.9,-205.75"/>
</g>
<!-- DropAreaComponent  -->
<g id="node38" class="node">
<title>DropAreaComponent </title>
<polygon fill="#fb8072" stroke="black" points="4121.3,-252 3980.7,-252 3980.7,-216 4121.3,-216 4121.3,-252"/>
<text text-anchor="middle" x="4051" y="-229.8" font-family="Times,serif" font-size="14.00">DropAreaComponent </text>
</g>
<!-- NuiDashboardConfiguratorModule&#45;&gt;DropAreaComponent  -->
<g id="edge37" class="edge">
<title>NuiDashboardConfiguratorModule&#45;&gt;DropAreaComponent </title>
<path fill="none" stroke="black" stroke-dasharray="5,2" d="M3791.57,-186C3895.69,-186 4038.6,-186 4038.6,-186 4038.6,-186 4038.6,-205.85 4038.6,-205.85"/>
<polygon fill="black" stroke="black" points="4035.1,-205.85 4038.6,-215.85 4042.1,-205.85 4035.1,-205.85"/>
</g>
<!-- EntityFormattingConfigurationComponent  -->
<g id="node39" class="node">
<title>EntityFormattingConfigurationComponent </title>
<polygon fill="#fb8072" stroke="black" points="3962.82,-252 3703.18,-252 3703.18,-216 3962.82,-216 3962.82,-252"/>
<text text-anchor="middle" x="3833" y="-229.8" font-family="Times,serif" font-size="14.00">EntityFormattingConfigurationComponent </text>
</g>
<!-- NuiDashboardConfiguratorModule&#45;&gt;EntityFormattingConfigurationComponent  -->
<g id="edge38" class="edge">
<title>NuiDashboardConfiguratorModule&#45;&gt;EntityFormattingConfigurationComponent </title>
<path fill="none" stroke="black" stroke-dasharray="5,2" d="M3747.42,-187.11C3747.42,-187.11 3747.42,-205.99 3747.42,-205.99"/>
<polygon fill="black" stroke="black" points="3743.92,-205.99 3747.42,-215.99 3750.92,-205.99 3743.92,-205.99"/>
</g>
<!-- FieldMapperAggregatorConfiguratorComponent  -->
<g id="node40" class="node">
<title>FieldMapperAggregatorConfiguratorComponent </title>
<polygon fill="#fb8072" stroke="black" points="3684.71,-252 3391.29,-252 3391.29,-216 3684.71,-216 3684.71,-252"/>
<text text-anchor="middle" x="3538" y="-229.8" font-family="Times,serif" font-size="14.00">FieldMapperAggregatorConfiguratorComponent </text>
</g>
<!-- NuiDashboardConfiguratorModule&#45;&gt;FieldMapperAggregatorConfiguratorComponent  -->
<g id="edge39" class="edge">
<title>NuiDashboardConfiguratorModule&#45;&gt;FieldMapperAggregatorConfiguratorComponent </title>
<path fill="none" stroke="black" stroke-dasharray="5,2" d="M3631.43,-187.11C3631.43,-187.11 3631.43,-205.99 3631.43,-205.99"/>
<polygon fill="black" stroke="black" points="3627.93,-205.99 3631.43,-215.99 3634.93,-205.99 3627.93,-205.99"/>
</g>
<!-- FormHeaderIconPipePipe  -->
<g id="node41" class="node">
<title>FormHeaderIconPipePipe </title>
<polygon fill="#fb8072" stroke="black" points="3373.4,-252 3208.6,-252 3208.6,-216 3373.4,-216 3373.4,-252"/>
<text text-anchor="middle" x="3291" y="-229.8" font-family="Times,serif" font-size="14.00">FormHeaderIconPipePipe </text>
</g>
<!-- NuiDashboardConfiguratorModule&#45;&gt;FormHeaderIconPipePipe  -->
<g id="edge40" class="edge">
<title>NuiDashboardConfiguratorModule&#45;&gt;FormHeaderIconPipePipe </title>
<path fill="none" stroke="black" stroke-dasharray="5,2" d="M3578.38,-186C3461.69,-186 3291,-186 3291,-186 3291,-186 3291,-205.85 3291,-205.85"/>
<polygon fill="black" stroke="black" points="3287.5,-205.85 3291,-215.85 3294.5,-205.85 3287.5,-205.85"/>
</g>
<!-- GroupingConfigurationComponent  -->
<g id="node42" class="node">
<title>GroupingConfigurationComponent </title>
<polygon fill="#fb8072" stroke="black" points="3190.53,-252 2973.47,-252 2973.47,-216 3190.53,-216 3190.53,-252"/>
<text text-anchor="middle" x="3082" y="-229.8" font-family="Times,serif" font-size="14.00">GroupingConfigurationComponent </text>
</g>
<!-- NuiDashboardConfiguratorModule&#45;&gt;GroupingConfigurationComponent  -->
<g id="edge41" class="edge">
<title>NuiDashboardConfiguratorModule&#45;&gt;GroupingConfigurationComponent </title>
<path fill="none" stroke="black" stroke-dasharray="5,2" d="M3578.45,-185C3431.74,-185 3185.46,-185 3185.46,-185 3185.46,-185 3185.46,-205.75 3185.46,-205.75"/>
<polygon fill="black" stroke="black" points="3181.96,-205.75 3185.46,-215.75 3188.96,-205.75 3181.96,-205.75"/>
</g>
<!-- PercentageFormatterComponent  -->
<g id="node43" class="node">
<title>PercentageFormatterComponent </title>
<polygon fill="#fb8072" stroke="black" points="2955.94,-252 2754.06,-252 2754.06,-216 2955.94,-216 2955.94,-252"/>
<text text-anchor="middle" x="2855" y="-229.8" font-family="Times,serif" font-size="14.00">PercentageFormatterComponent </text>
</g>
<!-- NuiDashboardConfiguratorModule&#45;&gt;PercentageFormatterComponent  -->
<g id="edge42" class="edge">
<title>NuiDashboardConfiguratorModule&#45;&gt;PercentageFormatterComponent </title>
<path fill="none" stroke="black" stroke-dasharray="5,2" d="M3578.19,-183C3354.02,-183 2855,-183 2855,-183 2855,-183 2855,-205.88 2855,-205.88"/>
<polygon fill="black" stroke="black" points="2851.5,-205.88 2855,-215.88 2858.5,-205.88 2851.5,-205.88"/>
</g>
<!-- PizzagnaRootPipe  -->
<g id="node44" class="node">
<title>PizzagnaRootPipe </title>
<polygon fill="#fb8072" stroke="black" points="2736.15,-252 2613.85,-252 2613.85,-216 2736.15,-216 2736.15,-252"/>
<text text-anchor="middle" x="2675" y="-229.8" font-family="Times,serif" font-size="14.00">PizzagnaRootPipe </text>
</g>
<!-- NuiDashboardConfiguratorModule&#45;&gt;PizzagnaRootPipe  -->
<g id="edge43" class="edge">
<title>NuiDashboardConfiguratorModule&#45;&gt;PizzagnaRootPipe </title>
<path fill="none" stroke="black" stroke-dasharray="5,2" d="M3578.39,-182C3322.24,-182 2693.21,-182 2693.21,-182 2693.21,-182 2693.21,-205.81 2693.21,-205.81"/>
<polygon fill="black" stroke="black" points="2689.71,-205.81 2693.21,-215.81 2696.71,-205.81 2689.71,-205.81"/>
</g>
<!-- ProportionalChartOptionsEditorV2Component  -->
<g id="node45" class="node">
<title>ProportionalChartOptionsEditorV2Component </title>
<polygon fill="#fb8072" stroke="black" points="2596.36,-252 2313.64,-252 2313.64,-216 2596.36,-216 2596.36,-252"/>
<text text-anchor="middle" x="2455" y="-229.8" font-family="Times,serif" font-size="14.00">ProportionalChartOptionsEditorV2Component </text>
</g>
<!-- NuiDashboardConfiguratorModule&#45;&gt;ProportionalChartOptionsEditorV2Component  -->
<g id="edge44" class="edge">
<title>NuiDashboardConfiguratorModule&#45;&gt;ProportionalChartOptionsEditorV2Component </title>
<path fill="none" stroke="black" stroke-dasharray="5,2" d="M3578.49,-181C3290.82,-181 2519.66,-181 2519.66,-181 2519.66,-181 2519.66,-205.76 2519.66,-205.76"/>
<polygon fill="black" stroke="black" points="2516.16,-205.76 2519.66,-215.76 2523.16,-205.76 2516.16,-205.76"/>
</g>
<!-- RefreshRateConfiguratorComponent  -->
<g id="node46" class="node">
<title>RefreshRateConfiguratorComponent </title>
<polygon fill="#fb8072" stroke="black" points="2296.33,-252 2069.67,-252 2069.67,-216 2296.33,-216 2296.33,-252"/>
<text text-anchor="middle" x="2183" y="-229.8" font-family="Times,serif" font-size="14.00">RefreshRateConfiguratorComponent </text>
</g>
<!-- NuiDashboardConfiguratorModule&#45;&gt;RefreshRateConfiguratorComponent  -->
<g id="edge45" class="edge">
<title>NuiDashboardConfiguratorModule&#45;&gt;RefreshRateConfiguratorComponent </title>
<path fill="none" stroke="black" stroke-dasharray="5,2" d="M3578.22,-179C3250.28,-179 2279.73,-179 2279.73,-179 2279.73,-179 2279.73,-205.99 2279.73,-205.99"/>
<polygon fill="black" stroke="black" points="2276.23,-205.99 2279.73,-215.99 2283.23,-205.99 2276.23,-205.99"/>
</g>
<!-- WidgetClonerComponent  -->
<g id="node47" class="node">
<title>WidgetClonerComponent </title>
<polygon fill="#fb8072" stroke="black" points="2052.15,-252 1887.85,-252 1887.85,-216 2052.15,-216 2052.15,-252"/>
<text text-anchor="middle" x="1970" y="-229.8" font-family="Times,serif" font-size="14.00">WidgetClonerComponent </text>
</g>
<!-- NuiDashboardConfiguratorModule&#45;&gt;WidgetClonerComponent  -->
<g id="edge46" class="edge">
<title>NuiDashboardConfiguratorModule&#45;&gt;WidgetClonerComponent </title>
<path fill="none" stroke="black" stroke-dasharray="5,2" d="M3578.47,-178C3214.43,-178 2042.15,-178 2042.15,-178 2042.15,-178 2042.15,-205.97 2042.15,-205.97"/>
<polygon fill="black" stroke="black" points="2038.65,-205.97 2042.15,-215.97 2045.65,-205.97 2038.65,-205.97"/>
</g>
<!-- WidgetConfiguratorSectionComponent  -->
<g id="node48" class="node">
<title>WidgetConfiguratorSectionComponent </title>
<polygon fill="#fb8072" stroke="black" points="1870.35,-252 1629.65,-252 1629.65,-216 1870.35,-216 1870.35,-252"/>
<text text-anchor="middle" x="1750" y="-229.8" font-family="Times,serif" font-size="14.00">WidgetConfiguratorSectionComponent </text>
</g>
<!-- NuiDashboardConfiguratorModule&#45;&gt;WidgetConfiguratorSectionComponent  -->
<g id="edge47" class="edge">
<title>NuiDashboardConfiguratorModule&#45;&gt;WidgetConfiguratorSectionComponent </title>
<path fill="none" stroke="black" stroke-dasharray="5,2" d="M3578.35,-177C3185.67,-177 1843.1,-177 1843.1,-177 1843.1,-177 1843.1,-205.96 1843.1,-205.96"/>
<polygon fill="black" stroke="black" points="1839.6,-205.96 1843.1,-215.96 1846.6,-205.96 1839.6,-205.96"/>
</g>
<!-- WidgetConfiguratorSectionHeaderPipe  -->
<g id="node49" class="node">
<title>WidgetConfiguratorSectionHeaderPipe </title>
<polygon fill="#fb8072" stroke="black" points="1612.32,-252 1371.68,-252 1371.68,-216 1612.32,-216 1612.32,-252"/>
<text text-anchor="middle" x="1492" y="-229.8" font-family="Times,serif" font-size="14.00">WidgetConfiguratorSectionHeaderPipe </text>
</g>
<!-- NuiDashboardConfiguratorModule&#45;&gt;WidgetConfiguratorSectionHeaderPipe  -->
<g id="edge48" class="edge">
<title>NuiDashboardConfiguratorModule&#45;&gt;WidgetConfiguratorSectionHeaderPipe </title>
<path fill="none" stroke="black" stroke-dasharray="5,2" d="M3578.38,-175C3139.72,-175 1497.36,-175 1497.36,-175 1497.36,-175 1497.36,-205.98 1497.36,-205.98"/>
<polygon fill="black" stroke="black" points="1493.86,-205.98 1497.36,-215.98 1500.86,-205.98 1493.86,-205.98"/>
</g>
<!-- WidgetEditorAccordionFormStatePipe  -->
<g id="node50" class="node">
<title>WidgetEditorAccordionFormStatePipe </title>
<polygon fill="#fb8072" stroke="black" points="1354.01,-252 1115.99,-252 1115.99,-216 1354.01,-216 1354.01,-252"/>
<text text-anchor="middle" x="1235" y="-229.8" font-family="Times,serif" font-size="14.00">WidgetEditorAccordionFormStatePipe </text>
</g>
<!-- NuiDashboardConfiguratorModule&#45;&gt;WidgetEditorAccordionFormStatePipe  -->
<g id="edge49" class="edge">
<title>NuiDashboardConfiguratorModule&#45;&gt;WidgetEditorAccordionFormStatePipe </title>
<path fill="none" stroke="black" stroke-dasharray="5,2" d="M3578.32,-174C3108.58,-174 1247.79,-174 1247.79,-174 1247.79,-174 1247.79,-206 1247.79,-206"/>
<polygon fill="black" stroke="black" points="1244.29,-206 1247.79,-216 1251.29,-206 1244.29,-206"/>
</g>
<!-- WidgetEditorComponent  -->
<g id="node51" class="node">
<title>WidgetEditorComponent </title>
<polygon fill="#fb8072" stroke="black" points="1097.54,-252 936.46,-252 936.46,-216 1097.54,-216 1097.54,-252"/>
<text text-anchor="middle" x="1017" y="-229.8" font-family="Times,serif" font-size="14.00">WidgetEditorComponent </text>
</g>
<!-- NuiDashboardConfiguratorModule&#45;&gt;WidgetEditorComponent  -->
<g id="edge50" class="edge">
<title>NuiDashboardConfiguratorModule&#45;&gt;WidgetEditorComponent </title>
<path fill="none" stroke="black" stroke-dasharray="5,2" d="M3578.46,-173C3083.23,-173 1030.1,-173 1030.1,-173 1030.1,-173 1030.1,-205.7 1030.1,-205.7"/>
<polygon fill="black" stroke="black" points="1026.6,-205.7 1030.1,-215.7 1033.6,-205.7 1026.6,-205.7"/>
</g>
<!-- NuiDashboardsCommonModule -->
<g id="node26" class="node">
<title>NuiDashboardsCommonModule</title>
<polygon fill="#8dd3c7" stroke="black" points="5629.25,-122 5626.25,-126 5605.25,-126 5602.25,-122 5430.75,-122 5430.75,-86 5629.25,-86 5629.25,-122"/>
<text text-anchor="middle" x="5530" y="-99.8" font-family="Times,serif" font-size="14.00">NuiDashboardsCommonModule</text>
</g>
<!-- NuiDashboardsCommonModule&#45;&gt;NuiDashboardConfiguratorModule -->
<g id="edge25" class="edge">
<title>NuiDashboardsCommonModule&#45;&gt;NuiDashboardConfiguratorModule</title>
<path fill="none" stroke="black" d="M5564.49,-122.02C5564.49,-139.37 5564.49,-163 5564.49,-163 5564.49,-163 3801.78,-163 3801.78,-163"/>
<polygon fill="black" stroke="black" points="3801.78,-159.5 3791.78,-163 3801.78,-166.5 3801.78,-159.5"/>
</g>
<!-- NuiPizzagnaModule -->
<g id="node27" class="node">
<title>NuiPizzagnaModule</title>
<polygon fill="#8dd3c7" stroke="black" points="5412.58,-122 5409.58,-126 5388.58,-126 5385.58,-122 5281.42,-122 5281.42,-86 5412.58,-86 5412.58,-122"/>
<text text-anchor="middle" x="5347" y="-99.8" font-family="Times,serif" font-size="14.00">NuiPizzagnaModule</text>
</g>
<!-- NuiPizzagnaModule&#45;&gt;NuiDashboardConfiguratorModule -->
<g id="edge26" class="edge">
<title>NuiPizzagnaModule&#45;&gt;NuiDashboardConfiguratorModule</title>
<path fill="none" stroke="black" d="M5347,-122.03C5347,-139.06 5347,-162 5347,-162 5347,-162 3801.81,-162 3801.81,-162"/>
<polygon fill="black" stroke="black" points="3801.81,-158.5 3791.81,-162 3801.81,-165.5 3801.81,-158.5"/>
</g>
<!-- ConfiguratorService -->
<g id="node52" class="node">
<title>ConfiguratorService</title>
<ellipse fill="#fdb462" stroke="black" cx="7060" cy="-104" rx="89.75" ry="18"/>
<text text-anchor="middle" x="7060" y="-99.8" font-family="Times,serif" font-size="14.00">ConfiguratorService</text>
</g>
<!-- ConfiguratorService&#45;&gt;NuiDashboardConfiguratorModule -->
<g id="edge51" class="edge">
<title>ConfiguratorService&#45;&gt;NuiDashboardConfiguratorModule</title>
<path fill="none" stroke="black" d="M7060,-122.31C7060,-142.15 7060,-171 7060,-171 7060,-171 3801.58,-171 3801.58,-171"/>
<polygon fill="black" stroke="black" points="3801.58,-167.5 3791.58,-171 3801.58,-174.5 3801.58,-167.5"/>
</g>
<!-- KpiWidgetColorService -->
<g id="node53" class="node">
<title>KpiWidgetColorService</title>
<ellipse fill="#fdb462" stroke="black" cx="6847" cy="-104" rx="104.79" ry="18"/>
<text text-anchor="middle" x="6847" y="-99.8" font-family="Times,serif" font-size="14.00">KpiWidgetColorService</text>
</g>
<!-- KpiWidgetColorService&#45;&gt;NuiDashboardConfiguratorModule -->
<g id="edge52" class="edge">
<title>KpiWidgetColorService&#45;&gt;NuiDashboardConfiguratorModule</title>
<path fill="none" stroke="black" d="M6847,-122.03C6847,-141.58 6847,-170 6847,-170 6847,-170 3801.56,-170 3801.56,-170"/>
<polygon fill="black" stroke="black" points="3801.56,-166.5 3791.56,-170 3801.56,-173.5 3801.56,-166.5"/>
</g>
<!-- TimeseriesChartPresetService -->
<g id="node54" class="node">
<title>TimeseriesChartPresetService</title>
<ellipse fill="#fdb462" stroke="black" cx="6597" cy="-104" rx="127.31" ry="18"/>
<text text-anchor="middle" x="6597" y="-99.8" font-family="Times,serif" font-size="14.00">TimeseriesChartPresetService</text>
</g>
<!-- TimeseriesChartPresetService&#45;&gt;NuiDashboardConfiguratorModule -->
<g id="edge53" class="edge">
<title>TimeseriesChartPresetService&#45;&gt;NuiDashboardConfiguratorModule</title>
<path fill="none" stroke="black" d="M6597,-122.11C6597,-141.34 6597,-169 6597,-169 6597,-169 3801.66,-169 3801.66,-169"/>
<polygon fill="black" stroke="black" points="3801.66,-165.5 3791.66,-169 3801.66,-172.5 3801.66,-165.5"/>
</g>
<!-- WidgetClonerService -->
<g id="node55" class="node">
<title>WidgetClonerService</title>
<ellipse fill="#fdb462" stroke="black" cx="6357" cy="-104" rx="94.9" ry="18"/>
<text text-anchor="middle" x="6357" y="-99.8" font-family="Times,serif" font-size="14.00">WidgetClonerService</text>
</g>
<!-- WidgetClonerService&#45;&gt;NuiDashboardConfiguratorModule -->
<g id="edge54" class="edge">
<title>WidgetClonerService&#45;&gt;NuiDashboardConfiguratorModule</title>
<path fill="none" stroke="black" d="M6357,-122.22C6357,-140.83 6357,-167 6357,-167 6357,-167 3801.81,-167 3801.81,-167"/>
<polygon fill="black" stroke="black" points="3801.81,-163.5 3791.81,-167 3801.81,-170.5 3801.81,-163.5"/>
</g>
<!-- WidgetConfiguratorSectionCoordinatorService -->
<g id="node56" class="node">
<title>WidgetConfiguratorSectionCoordinatorService</title>
<ellipse fill="#fdb462" stroke="black" cx="6050" cy="-104" rx="193.86" ry="18"/>
<text text-anchor="middle" x="6050" y="-99.8" font-family="Times,serif" font-size="14.00">WidgetConfiguratorSectionCoordinatorService</text>
</g>
<!-- WidgetConfiguratorSectionCoordinatorService&#45;&gt;NuiDashboardConfiguratorModule -->
<g id="edge55" class="edge">
<title>WidgetConfiguratorSectionCoordinatorService&#45;&gt;NuiDashboardConfiguratorModule</title>
<path fill="none" stroke="black" d="M5997.11,-121.6C5997.11,-139.93 5997.11,-166 5997.11,-166 5997.11,-166 3801.88,-166 3801.88,-166"/>
<polygon fill="black" stroke="black" points="3801.88,-162.5 3791.88,-166 3801.88,-169.5 3801.88,-162.5"/>
</g>
<!-- WidgetEditorService -->
<g id="node57" class="node">
<title>WidgetEditorService</title>
<ellipse fill="#fdb462" stroke="black" cx="5746" cy="-104" rx="92.61" ry="18"/>
<text text-anchor="middle" x="5746" y="-99.8" font-family="Times,serif" font-size="14.00">WidgetEditorService</text>
</g>
<!-- WidgetEditorService&#45;&gt;NuiDashboardConfiguratorModule -->
<g id="edge56" class="edge">
<title>WidgetEditorService&#45;&gt;NuiDashboardConfiguratorModule</title>
<path fill="none" stroke="black" d="M5708.59,-120.67C5708.59,-138.73 5708.59,-165 5708.59,-165 5708.59,-165 3801.66,-165 3801.66,-165"/>
<polygon fill="black" stroke="black" points="3801.66,-161.5 3791.66,-165 3801.66,-168.5 3801.66,-161.5"/>
</g>
</g>
</svg>
