<?xml version="1.0" encoding="UTF-8" standalone="no"?>
<!DOCTYPE svg PUBLIC "-//W3C//DTD SVG 1.1//EN"
 "http://www.w3.org/Graphics/SVG/1.1/DTD/svg11.dtd">
<!-- Generated by graphviz version 2.46.0 (20210119.1425)
 -->
<!-- Title: dependencies Pages: 1 -->
<svg width="594pt" height="284pt"
 viewBox="0.00 0.00 594.00 284.00" xmlns="http://www.w3.org/2000/svg" xmlns:xlink="http://www.w3.org/1999/xlink">
<g id="graph0" class="graph" transform="scale(1 1) rotate(0) translate(4 280)">
<title>dependencies</title>
<polygon fill="white" stroke="transparent" points="-4,4 -4,-280 590,-280 590,4 -4,4"/>
<text text-anchor="start" x="272.01" y="-42.4" font-family="sans-serif" font-weight="bold" font-size="14.00">Legend</text>
<polygon fill="#ffffb3" stroke="transparent" points="59,-10 59,-30 79,-30 79,-10 59,-10"/>
<text text-anchor="start" x="82.63" y="-15.4" font-family="sans-serif" font-size="14.00"> &#160;Declarations</text>
<polygon fill="#8dd3c7" stroke="transparent" points="172,-10 172,-30 192,-30 192,-10 172,-10"/>
<text text-anchor="start" x="195.73" y="-15.4" font-family="sans-serif" font-size="14.00"> &#160;Module</text>
<polygon fill="#80b1d3" stroke="transparent" points="258,-10 258,-30 278,-30 278,-10 258,-10"/>
<text text-anchor="start" x="281.78" y="-15.4" font-family="sans-serif" font-size="14.00"> &#160;Bootstrap</text>
<polygon fill="#fdb462" stroke="transparent" points="355,-10 355,-30 375,-30 375,-10 355,-10"/>
<text text-anchor="start" x="378.67" y="-15.4" font-family="sans-serif" font-size="14.00"> &#160;Providers</text>
<polygon fill="#fb8072" stroke="transparent" points="451,-10 451,-30 471,-30 471,-10 451,-10"/>
<text text-anchor="start" x="474.73" y="-15.4" font-family="sans-serif" font-size="14.00"> &#160;Exports</text>
<g id="clust1" class="cluster">
<title>cluster_NuiPizzagnaModule</title>
<polygon fill="none" stroke="black" stroke-dasharray="1,5" points="8,-70 8,-268 578,-268 578,-70 8,-70"/>
</g>
<g id="clust6" class="cluster">
<title>cluster_NuiPizzagnaModule_exports</title>
<polygon fill="none" stroke="black" points="148,-208 148,-260 488,-260 488,-208 148,-208"/>
</g>
<g id="clust2" class="cluster">
<title>cluster_NuiPizzagnaModule_declarations</title>
<polygon fill="none" stroke="black" points="238,-78 238,-130 570,-130 570,-78 238,-78"/>
</g>
<g id="clust5" class="cluster">
<title>cluster_NuiPizzagnaModule_imports</title>
<polygon fill="none" stroke="black" points="16,-78 16,-130 230,-130 230,-78 16,-78"/>
</g>
<!-- ComponentPortalDirective -->
<g id="node1" class="node">
<title>ComponentPortalDirective</title>
<polygon fill="#ffffb3" stroke="black" points="562.35,-122 395.65,-122 395.65,-86 562.35,-86 562.35,-122"/>
<text text-anchor="middle" x="479" y="-99.8" font-family="Times,serif" font-size="14.00">ComponentPortalDirective</text>
</g>
<!-- NuiPizzagnaModule -->
<g id="node3" class="node">
<title>NuiPizzagnaModule</title>
<polygon fill="#8dd3c7" stroke="black" points="377.58,-187 374.58,-191 353.58,-191 350.58,-187 246.42,-187 246.42,-151 377.58,-151 377.58,-187"/>
<text text-anchor="middle" x="312" y="-164.8" font-family="Times,serif" font-size="14.00">NuiPizzagnaModule</text>
</g>
<!-- ComponentPortalDirective&#45;&gt;NuiPizzagnaModule -->
<g id="edge1" class="edge">
<title>ComponentPortalDirective&#45;&gt;NuiPizzagnaModule</title>
<path fill="none" stroke="black" d="M437.88,-122.11C437.88,-141.34 437.88,-169 437.88,-169 437.88,-169 387.89,-169 387.89,-169"/>
<polygon fill="black" stroke="black" points="387.89,-165.5 377.89,-169 387.89,-172.5 387.89,-165.5"/>
</g>
<!-- PizzagnaComponent -->
<g id="node2" class="node">
<title>PizzagnaComponent</title>
<polygon fill="#ffffb3" stroke="black" points="377.86,-122 246.14,-122 246.14,-86 377.86,-86 377.86,-122"/>
<text text-anchor="middle" x="312" y="-99.8" font-family="Times,serif" font-size="14.00">PizzagnaComponent</text>
</g>
<!-- PizzagnaComponent&#45;&gt;NuiPizzagnaModule -->
<g id="edge2" class="edge">
<title>PizzagnaComponent&#45;&gt;NuiPizzagnaModule</title>
<path fill="none" stroke="black" d="M312,-122.11C312,-122.11 312,-140.99 312,-140.99"/>
<polygon fill="black" stroke="black" points="308.5,-140.99 312,-150.99 315.5,-140.99 308.5,-140.99"/>
</g>
<!-- ComponentPortalDirective  -->
<g id="node5" class="node">
<title>ComponentPortalDirective </title>
<polygon fill="#fb8072" stroke="black" points="480.35,-252 309.65,-252 309.65,-216 480.35,-216 480.35,-252"/>
<text text-anchor="middle" x="395" y="-229.8" font-family="Times,serif" font-size="14.00">ComponentPortalDirective </text>
</g>
<!-- NuiPizzagnaModule&#45;&gt;ComponentPortalDirective  -->
<g id="edge4" class="edge">
<title>NuiPizzagnaModule&#45;&gt;ComponentPortalDirective </title>
<path fill="none" stroke="black" stroke-dasharray="5,2" d="M343.68,-187.11C343.68,-187.11 343.68,-205.99 343.68,-205.99"/>
<polygon fill="black" stroke="black" points="340.18,-205.99 343.68,-215.99 347.18,-205.99 340.18,-205.99"/>
</g>
<!-- PizzagnaComponent  -->
<g id="node6" class="node">
<title>PizzagnaComponent </title>
<polygon fill="#fb8072" stroke="black" points="291.86,-252 156.14,-252 156.14,-216 291.86,-216 291.86,-252"/>
<text text-anchor="middle" x="224" y="-229.8" font-family="Times,serif" font-size="14.00">PizzagnaComponent </text>
</g>
<!-- NuiPizzagnaModule&#45;&gt;PizzagnaComponent  -->
<g id="edge5" class="edge">
<title>NuiPizzagnaModule&#45;&gt;PizzagnaComponent </title>
<path fill="none" stroke="black" stroke-dasharray="5,2" d="M269.07,-187.11C269.07,-187.11 269.07,-205.99 269.07,-205.99"/>
<polygon fill="black" stroke="black" points="265.57,-205.99 269.07,-215.99 272.57,-205.99 265.57,-205.99"/>
</g>
<!-- NuiDashboardsCommonModule -->
<g id="node4" class="node">
<title>NuiDashboardsCommonModule</title>
<polygon fill="#8dd3c7" stroke="black" points="222.25,-122 219.25,-126 198.25,-126 195.25,-122 23.75,-122 23.75,-86 222.25,-86 222.25,-122"/>
<text text-anchor="middle" x="123" y="-99.8" font-family="Times,serif" font-size="14.00">NuiDashboardsCommonModule</text>
</g>
<!-- NuiDashboardsCommonModule&#45;&gt;NuiPizzagnaModule -->
<g id="edge3" class="edge">
<title>NuiDashboardsCommonModule&#45;&gt;NuiPizzagnaModule</title>
<path fill="none" stroke="black" d="M189.35,-122.11C189.35,-141.34 189.35,-169 189.35,-169 189.35,-169 236.36,-169 236.36,-169"/>
<polygon fill="black" stroke="black" points="236.36,-172.5 246.36,-169 236.36,-165.5 236.36,-172.5"/>
</g>
</g>
</svg>
