<?xml version="1.0" encoding="UTF-8" standalone="no"?>
<!DOCTYPE svg PUBLIC "-//W3C//DTD SVG 1.1//EN"
 "http://www.w3.org/Graphics/SVG/1.1/DTD/svg11.dtd">
<!-- Generated by graphviz version 2.44.1 (20200629.0846)
 -->
<!-- Title: dependencies Pages: 1 -->
<svg width="802pt" height="284pt"
 viewBox="0.00 0.00 802.00 284.00" xmlns="http://www.w3.org/2000/svg" xmlns:xlink="http://www.w3.org/1999/xlink">
<g id="graph0" class="graph" transform="scale(1 1) rotate(0) translate(4 280)">
<title>dependencies</title>
<polygon fill="white" stroke="transparent" points="-4,4 -4,-280 798,-280 798,4 -4,4"/>
<text text-anchor="start" x="376.01" y="-42.4" font-family="sans-serif" font-weight="bold" font-size="14.00">Legend</text>
<polygon fill="#ffffb3" stroke="transparent" points="163,-10 163,-30 183,-30 183,-10 163,-10"/>
<text text-anchor="start" x="186.63" y="-15.4" font-family="sans-serif" font-size="14.00"> &#160;Declarations</text>
<polygon fill="#8dd3c7" stroke="transparent" points="276,-10 276,-30 296,-30 296,-10 276,-10"/>
<text text-anchor="start" x="299.73" y="-15.4" font-family="sans-serif" font-size="14.00"> &#160;Module</text>
<polygon fill="#80b1d3" stroke="transparent" points="362,-10 362,-30 382,-30 382,-10 362,-10"/>
<text text-anchor="start" x="385.78" y="-15.4" font-family="sans-serif" font-size="14.00"> &#160;Bootstrap</text>
<polygon fill="#fdb462" stroke="transparent" points="459,-10 459,-30 479,-30 479,-10 459,-10"/>
<text text-anchor="start" x="482.67" y="-15.4" font-family="sans-serif" font-size="14.00"> &#160;Providers</text>
<polygon fill="#fb8072" stroke="transparent" points="555,-10 555,-30 575,-30 575,-10 555,-10"/>
<text text-anchor="start" x="578.73" y="-15.4" font-family="sans-serif" font-size="14.00"> &#160;Exports</text>
<g id="clust1" class="cluster">
<title>cluster_NuiLayoutModule</title>
<polygon fill="none" stroke="black" stroke-dasharray="1,5" points="8,-70 8,-268 622,-268 622,-70 8,-70"/>
</g>
<g id="clust2" class="cluster">
<title>cluster_NuiLayoutModule_declarations</title>
<polygon fill="none" stroke="black" points="25,-78 25,-130 607,-130 607,-78 25,-78"/>
</g>
<g id="clust8" class="cluster">
<title>cluster_NuiLayoutModule_exports</title>
<polygon fill="none" stroke="black" points="16,-208 16,-260 614,-260 614,-208 16,-208"/>
</g>
<g id="clust11" class="cluster">
<title>cluster_PopupAdapterModule</title>
<polygon fill="none" stroke="black" stroke-dasharray="1,5" points="630,-70 630,-268 786,-268 786,-70 630,-70"/>
</g>
<g id="clust12" class="cluster">
<title>cluster_PopupAdapterModule_declarations</title>
<polygon fill="none" stroke="black" points="641,-78 641,-130 775,-130 775,-78 641,-78"/>
</g>
<g id="clust15" class="cluster">
<title>cluster_PopupAdapterModule_exports</title>
<polygon fill="none" stroke="black" points="640,-208 640,-260 776,-260 776,-208 640,-208"/>
</g>
<!-- CardComponent -->
<g id="node1" class="node">
<title>CardComponent</title>
<polygon fill="#ffffb3" stroke="black" points="599.05,-122 490.95,-122 490.95,-86 599.05,-86 599.05,-122"/>
<text text-anchor="middle" x="545" y="-99.8" font-family="Times,serif" font-size="14.00">CardComponent</text>
</g>
<!-- NuiLayoutModule -->
<g id="node5" class="node">
<title>NuiLayoutModule</title>
<polygon fill="#8dd3c7" stroke="black" points="318.2,-187 315.2,-191 294.2,-191 291.2,-187 197.8,-187 197.8,-151 318.2,-151 318.2,-187"/>
<text text-anchor="middle" x="258" y="-164.8" font-family="Times,serif" font-size="14.00">NuiLayoutModule</text>
</g>
<!-- CardComponent&#45;&gt;NuiLayoutModule -->
<g id="edge1" class="edge">
<title>CardComponent&#45;&gt;NuiLayoutModule</title>
<path fill="none" stroke="black" d="M564.17,-122.11C564.17,-141.34 564.17,-169 564.17,-169 564.17,-169 328.12,-169 328.12,-169"/>
<polygon fill="black" stroke="black" points="328.12,-165.5 318.12,-169 328.12,-172.5 328.12,-165.5"/>
</g>
<!-- CardGroupComponent -->
<g id="node2" class="node">
<title>CardGroupComponent</title>
<polygon fill="#ffffb3" stroke="black" points="473.31,-122 328.69,-122 328.69,-86 473.31,-86 473.31,-122"/>
<text text-anchor="middle" x="401" y="-99.8" font-family="Times,serif" font-size="14.00">CardGroupComponent</text>
</g>
<!-- CardGroupComponent&#45;&gt;NuiLayoutModule -->
<g id="edge2" class="edge">
<title>CardGroupComponent&#45;&gt;NuiLayoutModule</title>
<path fill="none" stroke="black" d="M401,-122.03C401,-138.4 401,-160 401,-160 401,-160 328.23,-160 328.23,-160"/>
<polygon fill="black" stroke="black" points="328.23,-156.5 318.23,-160 328.23,-163.5 328.23,-156.5"/>
</g>
<!-- SheetComponent -->
<g id="node3" class="node">
<title>SheetComponent</title>
<polygon fill="#ffffb3" stroke="black" points="311.44,-122 198.56,-122 198.56,-86 311.44,-86 311.44,-122"/>
<text text-anchor="middle" x="255" y="-99.8" font-family="Times,serif" font-size="14.00">SheetComponent</text>
</g>
<!-- SheetComponent&#45;&gt;NuiLayoutModule -->
<g id="edge3" class="edge">
<title>SheetComponent&#45;&gt;NuiLayoutModule</title>
<path fill="none" stroke="black" d="M255,-122.11C255,-122.11 255,-140.99 255,-140.99"/>
<polygon fill="black" stroke="black" points="251.5,-140.99 255,-150.99 258.5,-140.99 251.5,-140.99"/>
</g>
<!-- SheetGroupComponent -->
<g id="node4" class="node">
<title>SheetGroupComponent</title>
<polygon fill="#ffffb3" stroke="black" points="181.2,-122 32.8,-122 32.8,-86 181.2,-86 181.2,-122"/>
<text text-anchor="middle" x="107" y="-99.8" font-family="Times,serif" font-size="14.00">SheetGroupComponent</text>
</g>
<!-- SheetGroupComponent&#45;&gt;NuiLayoutModule -->
<g id="edge4" class="edge">
<title>SheetGroupComponent&#45;&gt;NuiLayoutModule</title>
<path fill="none" stroke="black" d="M128.2,-122.02C128.2,-139.37 128.2,-163 128.2,-163 128.2,-163 187.66,-163 187.66,-163"/>
<polygon fill="black" stroke="black" points="187.66,-166.5 197.66,-163 187.66,-159.5 187.66,-166.5"/>
</g>
<!-- CardComponent  -->
<g id="node6" class="node">
<title>CardComponent </title>
<polygon fill="#fb8072" stroke="black" points="606.04,-252 493.96,-252 493.96,-216 606.04,-216 606.04,-252"/>
<text text-anchor="middle" x="550" y="-229.8" font-family="Times,serif" font-size="14.00">CardComponent </text>
</g>
<!-- NuiLayoutModule&#45;&gt;CardComponent  -->
<g id="edge5" class="edge">
<title>NuiLayoutModule&#45;&gt;CardComponent </title>
<path fill="none" stroke="black" stroke-dasharray="5,2" d="M318.16,-178C398.02,-178 529.08,-178 529.08,-178 529.08,-178 529.08,-205.97 529.08,-205.97"/>
<polygon fill="black" stroke="black" points="525.58,-205.97 529.08,-215.97 532.58,-205.97 525.58,-205.97"/>
</g>
<!-- CardGroupComponent  -->
<g id="node7" class="node">
<title>CardGroupComponent </title>
<polygon fill="#fb8072" stroke="black" points="475.81,-252 328.19,-252 328.19,-216 475.81,-216 475.81,-252"/>
<text text-anchor="middle" x="402" y="-229.8" font-family="Times,serif" font-size="14.00">CardGroupComponent </text>
</g>
<!-- NuiLayoutModule&#45;&gt;CardGroupComponent  -->
<g id="edge6" class="edge">
<title>NuiLayoutModule&#45;&gt;CardGroupComponent </title>
<path fill="none" stroke="black" stroke-dasharray="5,2" d="M314.03,-187.11C314.03,-206.34 314.03,-234 314.03,-234 314.03,-234 318.17,-234 318.17,-234"/>
<polygon fill="black" stroke="black" points="318.17,-237.5 328.17,-234 318.17,-230.5 318.17,-237.5"/>
</g>
<!-- SheetComponent  -->
<g id="node8" class="node">
<title>SheetComponent </title>
<polygon fill="#fb8072" stroke="black" points="309.93,-252 194.07,-252 194.07,-216 309.93,-216 309.93,-252"/>
<text text-anchor="middle" x="252" y="-229.8" font-family="Times,serif" font-size="14.00">SheetComponent </text>
</g>
<!-- NuiLayoutModule&#45;&gt;SheetComponent  -->
<g id="edge7" class="edge">
<title>NuiLayoutModule&#45;&gt;SheetComponent </title>
<path fill="none" stroke="black" stroke-dasharray="5,2" d="M253.93,-187.11C253.93,-187.11 253.93,-205.99 253.93,-205.99"/>
<polygon fill="black" stroke="black" points="250.43,-205.99 253.93,-215.99 257.43,-205.99 250.43,-205.99"/>
</g>
<!-- SheetGroupComponent  -->
<g id="node9" class="node">
<title>SheetGroupComponent </title>
<polygon fill="#fb8072" stroke="black" points="175.7,-252 24.3,-252 24.3,-216 175.7,-216 175.7,-252"/>
<text text-anchor="middle" x="100" y="-229.8" font-family="Times,serif" font-size="14.00">SheetGroupComponent </text>
</g>
<!-- NuiLayoutModule&#45;&gt;SheetGroupComponent  -->
<g id="edge8" class="edge">
<title>NuiLayoutModule&#45;&gt;SheetGroupComponent </title>
<path fill="none" stroke="black" stroke-dasharray="5,2" d="M197.43,-175C146.02,-175 80.55,-175 80.55,-175 80.55,-175 80.55,-205.98 80.55,-205.98"/>
<polygon fill="black" stroke="black" points="77.05,-205.98 80.55,-215.98 84.05,-205.98 77.05,-205.98"/>
</g>
<!-- PopupComponent -->
<g id="node10" class="node">
<title>PopupComponent</title>
<polygon fill="#ffffb3" stroke="black" points="766.62,-122 649.38,-122 649.38,-86 766.62,-86 766.62,-122"/>
<text text-anchor="middle" x="708" y="-99.8" font-family="Times,serif" font-size="14.00">PopupComponent</text>
</g>
<!-- PopupAdapterModule -->
<g id="node11" class="node">
<title>PopupAdapterModule</title>
<polygon fill="#8dd3c7" stroke="black" points="778.42,-187 775.42,-191 754.42,-191 751.42,-187 637.58,-187 637.58,-151 778.42,-151 778.42,-187"/>
<text text-anchor="middle" x="708" y="-164.8" font-family="Times,serif" font-size="14.00">PopupAdapterModule</text>
</g>
<!-- PopupComponent&#45;&gt;PopupAdapterModule -->
<g id="edge9" class="edge">
<title>PopupComponent&#45;&gt;PopupAdapterModule</title>
<path fill="none" stroke="black" d="M708,-122.11C708,-122.11 708,-140.99 708,-140.99"/>
<polygon fill="black" stroke="black" points="704.5,-140.99 708,-150.99 711.5,-140.99 704.5,-140.99"/>
</g>
<!-- PopupComponent  -->
<g id="node12" class="node">
<title>PopupComponent </title>
<polygon fill="#fb8072" stroke="black" points="768.12,-252 647.88,-252 647.88,-216 768.12,-216 768.12,-252"/>
<text text-anchor="middle" x="708" y="-229.8" font-family="Times,serif" font-size="14.00">PopupComponent </text>
</g>
<!-- PopupAdapterModule&#45;&gt;PopupComponent  -->
<g id="edge10" class="edge">
<title>PopupAdapterModule&#45;&gt;PopupComponent </title>
<path fill="none" stroke="black" stroke-dasharray="5,2" d="M708,-187.11C708,-187.11 708,-205.99 708,-205.99"/>
<polygon fill="black" stroke="black" points="704.5,-205.99 708,-215.99 711.5,-205.99 704.5,-205.99"/>
</g>
</g>
</svg>
