<?xml version="1.0" encoding="UTF-8" standalone="no"?>
<!DOCTYPE svg PUBLIC "-//W3C//DTD SVG 1.1//EN"
 "http://www.w3.org/Graphics/SVG/1.1/DTD/svg11.dtd">
<!-- Generated by graphviz version 5.0.0 (20220707.1540)
 -->
<!-- Title: dependencies Pages: 1 -->
<svg width="618pt" height="247pt"
 viewBox="0.00 0.00 618.00 246.80" xmlns="http://www.w3.org/2000/svg" xmlns:xlink="http://www.w3.org/1999/xlink">
<g id="graph0" class="graph" transform="scale(1 1) rotate(0) translate(4 242.8)">
<title>dependencies</title>
<polygon fill="white" stroke="transparent" points="-4,4 -4,-242.8 614,-242.8 614,4 -4,4"/>
<text text-anchor="middle" x="305" y="-8.2" font-family="sans-serif" font-size="14.00">dependencies</text>
<g id="clust1" class="cluster">
<title>cluster_NuiDashboardsCommonModule</title>
<polygon fill="none" stroke="black" stroke-dasharray="1,5" points="8,-32.8 8,-230.8 602,-230.8 602,-32.8 8,-32.8"/>
</g>
<g id="clust2" class="cluster">
<title>cluster_NuiDashboardsCommonModule_declarations</title>
<polygon fill="none" stroke="black" points="22,-40.8 22,-92.8 589,-92.8 589,-40.8 22,-40.8"/>
</g>
<g id="clust7" class="cluster">
<title>cluster_NuiDashboardsCommonModule_exports</title>
<polygon fill="none" stroke="black" points="16,-170.8 16,-222.8 594,-222.8 594,-170.8 16,-170.8"/>
</g>
<!-- DashboardUnitConversionPipe -->
<g id="node1" class="node">
<title>DashboardUnitConversionPipe</title>
<polygon fill="#ffffb3" stroke="black" points="581.48,-84.8 390.52,-84.8 390.52,-48.8 581.48,-48.8 581.48,-84.8"/>
<text text-anchor="middle" x="486" y="-62.6" font-family="Times,serif" font-size="14.00">DashboardUnitConversionPipe</text>
</g>
<!-- NuiDashboardsCommonModule -->
<g id="node4" class="node">
<title>NuiDashboardsCommonModule</title>
<polygon fill="#8dd3c7" stroke="black" points="385.27,-149.8 382.27,-153.8 361.27,-153.8 358.27,-149.8 186.73,-149.8 186.73,-113.8 385.27,-113.8 385.27,-149.8"/>
<text text-anchor="middle" x="286" y="-127.6" font-family="Times,serif" font-size="14.00">NuiDashboardsCommonModule</text>
</g>
<!-- DashboardUnitConversionPipe&#45;&gt;NuiDashboardsCommonModule -->
<g id="edge1" class="edge">
<title>DashboardUnitConversionPipe&#45;&gt;NuiDashboardsCommonModule</title>
<path fill="none" stroke="black" d="M390.24,-66.8C383.19,-66.8 378.77,-66.8 378.77,-66.8 378.77,-66.8 378.77,-103.69 378.77,-103.69"/>
<polygon fill="black" stroke="black" points="375.27,-103.69 378.77,-113.69 382.27,-103.69 375.27,-103.69"/>
</g>
<!-- PreviewOverlayComponent -->
<g id="node2" class="node">
<title>PreviewOverlayComponent</title>
<polygon fill="#ffffb3" stroke="black" points="372.3,-84.8 199.7,-84.8 199.7,-48.8 372.3,-48.8 372.3,-84.8"/>
<text text-anchor="middle" x="286" y="-62.6" font-family="Times,serif" font-size="14.00">PreviewOverlayComponent</text>
</g>
<!-- PreviewOverlayComponent&#45;&gt;NuiDashboardsCommonModule -->
<g id="edge2" class="edge">
<title>PreviewOverlayComponent&#45;&gt;NuiDashboardsCommonModule</title>
<path fill="none" stroke="black" d="M286,-84.91C286,-84.91 286,-103.79 286,-103.79"/>
<polygon fill="black" stroke="black" points="282.5,-103.79 286,-113.79 289.5,-103.79 282.5,-103.79"/>
</g>
<!-- WidgetErrorComponent -->
<g id="node3" class="node">
<title>WidgetErrorComponent</title>
<polygon fill="#ffffb3" stroke="black" points="182.08,-84.8 29.92,-84.8 29.92,-48.8 182.08,-48.8 182.08,-84.8"/>
<text text-anchor="middle" x="106" y="-62.6" font-family="Times,serif" font-size="14.00">WidgetErrorComponent</text>
</g>
<!-- WidgetErrorComponent&#45;&gt;NuiDashboardsCommonModule -->
<g id="edge3" class="edge">
<title>WidgetErrorComponent&#45;&gt;NuiDashboardsCommonModule</title>
<path fill="none" stroke="black" d="M182.19,-66.8C188.91,-66.8 193.23,-66.8 193.23,-66.8 193.23,-66.8 193.23,-103.69 193.23,-103.69"/>
<polygon fill="black" stroke="black" points="189.73,-103.69 193.23,-113.69 196.73,-103.69 189.73,-103.69"/>
</g>
<!-- DashboardUnitConversionPipe  -->
<g id="node5" class="node">
<title>DashboardUnitConversionPipe </title>
<polygon fill="#fb8072" stroke="black" points="586.48,-214.8 391.52,-214.8 391.52,-178.8 586.48,-178.8 586.48,-214.8"/>
<text text-anchor="middle" x="489" y="-192.6" font-family="Times,serif" font-size="14.00">DashboardUnitConversionPipe </text>
</g>
<!-- NuiDashboardsCommonModule&#45;&gt;DashboardUnitConversionPipe  -->
<g id="edge4" class="edge">
<title>NuiDashboardsCommonModule&#45;&gt;DashboardUnitConversionPipe </title>
<path fill="none" stroke="black" stroke-dasharray="5,2" d="M379.64,-149.91C379.64,-169.14 379.64,-196.8 379.64,-196.8 379.64,-196.8 381.34,-196.8 381.34,-196.8"/>
<polygon fill="black" stroke="black" points="381.34,-200.3 391.34,-196.8 381.34,-193.3 381.34,-200.3"/>
</g>
<!-- PreviewOverlayComponent  -->
<g id="node6" class="node">
<title>PreviewOverlayComponent </title>
<polygon fill="#fb8072" stroke="black" points="373.8,-214.8 198.2,-214.8 198.2,-178.8 373.8,-178.8 373.8,-214.8"/>
<text text-anchor="middle" x="286" y="-192.6" font-family="Times,serif" font-size="14.00">PreviewOverlayComponent </text>
</g>
<!-- NuiDashboardsCommonModule&#45;&gt;PreviewOverlayComponent  -->
<g id="edge5" class="edge">
<title>NuiDashboardsCommonModule&#45;&gt;PreviewOverlayComponent </title>
<path fill="none" stroke="black" stroke-dasharray="5,2" d="M286,-149.91C286,-149.91 286,-168.79 286,-168.79"/>
<polygon fill="black" stroke="black" points="282.5,-168.79 286,-178.79 289.5,-168.79 282.5,-168.79"/>
</g>
<!-- WidgetErrorComponent  -->
<g id="node7" class="node">
<title>WidgetErrorComponent </title>
<polygon fill="#fb8072" stroke="black" points="179.58,-214.8 24.42,-214.8 24.42,-178.8 179.58,-178.8 179.58,-214.8"/>
<text text-anchor="middle" x="102" y="-192.6" font-family="Times,serif" font-size="14.00">WidgetErrorComponent </text>
</g>
<!-- NuiDashboardsCommonModule&#45;&gt;WidgetErrorComponent  -->
<g id="edge6" class="edge">
<title>NuiDashboardsCommonModule&#45;&gt;WidgetErrorComponent </title>
<path fill="none" stroke="black" stroke-dasharray="5,2" d="M192.36,-149.91C192.36,-169.14 192.36,-196.8 192.36,-196.8 192.36,-196.8 189.8,-196.8 189.8,-196.8"/>
<polygon fill="black" stroke="black" points="189.8,-193.3 179.8,-196.8 189.8,-200.3 189.8,-193.3"/>
</g>
</g>
</svg>
