<?xml version="1.0" encoding="UTF-8" standalone="no"?>
<!DOCTYPE svg PUBLIC "-//W3C//DTD SVG 1.1//EN"
 "http://www.w3.org/Graphics/SVG/1.1/DTD/svg11.dtd">
<!-- Generated by graphviz version 2.46.0 (20210119.1425)
 -->
<!-- Title: dependencies Pages: 1 -->
<svg width="618pt" height="284pt"
 viewBox="0.00 0.00 618.00 284.00" xmlns="http://www.w3.org/2000/svg" xmlns:xlink="http://www.w3.org/1999/xlink">
<g id="graph0" class="graph" transform="scale(1 1) rotate(0) translate(4 280)">
<title>dependencies</title>
<polygon fill="white" stroke="transparent" points="-4,4 -4,-280 614,-280 614,4 -4,4"/>
<text text-anchor="start" x="284.01" y="-42.4" font-family="sans-serif" font-weight="bold" font-size="14.00">Legend</text>
<polygon fill="#ffffb3" stroke="transparent" points="71,-10 71,-30 91,-30 91,-10 71,-10"/>
<text text-anchor="start" x="94.63" y="-15.4" font-family="sans-serif" font-size="14.00"> &#160;Declarations</text>
<polygon fill="#8dd3c7" stroke="transparent" points="184,-10 184,-30 204,-30 204,-10 184,-10"/>
<text text-anchor="start" x="207.73" y="-15.4" font-family="sans-serif" font-size="14.00"> &#160;Module</text>
<polygon fill="#80b1d3" stroke="transparent" points="270,-10 270,-30 290,-30 290,-10 270,-10"/>
<text text-anchor="start" x="293.78" y="-15.4" font-family="sans-serif" font-size="14.00"> &#160;Bootstrap</text>
<polygon fill="#fdb462" stroke="transparent" points="367,-10 367,-30 387,-30 387,-10 367,-10"/>
<text text-anchor="start" x="390.67" y="-15.4" font-family="sans-serif" font-size="14.00"> &#160;Providers</text>
<polygon fill="#fb8072" stroke="transparent" points="463,-10 463,-30 483,-30 483,-10 463,-10"/>
<text text-anchor="start" x="486.73" y="-15.4" font-family="sans-serif" font-size="14.00"> &#160;Exports</text>
<g id="clust1" class="cluster">
<title>cluster_NuiDashboardsCommonModule</title>
<polygon fill="none" stroke="black" stroke-dasharray="1,5" points="8,-70 8,-268 602,-268 602,-70 8,-70"/>
</g>
<g id="clust7" class="cluster">
<title>cluster_NuiDashboardsCommonModule_exports</title>
<polygon fill="none" stroke="black" points="16,-208 16,-260 594,-260 594,-208 16,-208"/>
</g>
<g id="clust2" class="cluster">
<title>cluster_NuiDashboardsCommonModule_declarations</title>
<polygon fill="none" stroke="black" points="22,-78 22,-130 589,-130 589,-78 22,-78"/>
</g>
<!-- DashboardUnitConversionPipe -->
<g id="node1" class="node">
<title>DashboardUnitConversionPipe</title>
<polygon fill="#ffffb3" stroke="black" points="581.46,-122 390.54,-122 390.54,-86 581.46,-86 581.46,-122"/>
<text text-anchor="middle" x="486" y="-99.8" font-family="Times,serif" font-size="14.00">DashboardUnitConversionPipe</text>
</g>
<!-- NuiDashboardsCommonModule -->
<g id="node4" class="node">
<title>NuiDashboardsCommonModule</title>
<polygon fill="#8dd3c7" stroke="black" points="385.25,-187 382.25,-191 361.25,-191 358.25,-187 186.75,-187 186.75,-151 385.25,-151 385.25,-187"/>
<text text-anchor="middle" x="286" y="-164.8" font-family="Times,serif" font-size="14.00">NuiDashboardsCommonModule</text>
</g>
<!-- DashboardUnitConversionPipe&#45;&gt;NuiDashboardsCommonModule -->
<g id="edge1" class="edge">
<title>DashboardUnitConversionPipe&#45;&gt;NuiDashboardsCommonModule</title>
<path fill="none" stroke="black" d="M390.24,-104C383.18,-104 378.76,-104 378.76,-104 378.76,-104 378.76,-140.89 378.76,-140.89"/>
<polygon fill="black" stroke="black" points="375.26,-140.89 378.76,-150.89 382.26,-140.89 375.26,-140.89"/>
</g>
<!-- PreviewOverlayComponent -->
<g id="node2" class="node">
<title>PreviewOverlayComponent</title>
<polygon fill="#ffffb3" stroke="black" points="372.29,-122 199.71,-122 199.71,-86 372.29,-86 372.29,-122"/>
<text text-anchor="middle" x="286" y="-99.8" font-family="Times,serif" font-size="14.00">PreviewOverlayComponent</text>
</g>
<!-- PreviewOverlayComponent&#45;&gt;NuiDashboardsCommonModule -->
<g id="edge2" class="edge">
<title>PreviewOverlayComponent&#45;&gt;NuiDashboardsCommonModule</title>
<path fill="none" stroke="black" d="M286,-122.11C286,-122.11 286,-140.99 286,-140.99"/>
<polygon fill="black" stroke="black" points="282.5,-140.99 286,-150.99 289.5,-140.99 282.5,-140.99"/>
</g>
<!-- WidgetErrorComponent -->
<g id="node3" class="node">
<title>WidgetErrorComponent</title>
<polygon fill="#ffffb3" stroke="black" points="182.08,-122 29.92,-122 29.92,-86 182.08,-86 182.08,-122"/>
<text text-anchor="middle" x="106" y="-99.8" font-family="Times,serif" font-size="14.00">WidgetErrorComponent</text>
</g>
<!-- WidgetErrorComponent&#45;&gt;NuiDashboardsCommonModule -->
<g id="edge3" class="edge">
<title>WidgetErrorComponent&#45;&gt;NuiDashboardsCommonModule</title>
<path fill="none" stroke="black" d="M182.19,-104C188.92,-104 193.24,-104 193.24,-104 193.24,-104 193.24,-140.89 193.24,-140.89"/>
<polygon fill="black" stroke="black" points="189.74,-140.89 193.24,-150.89 196.74,-140.89 189.74,-140.89"/>
</g>
<!-- DashboardUnitConversionPipe  -->
<g id="node5" class="node">
<title>DashboardUnitConversionPipe </title>
<polygon fill="#fb8072" stroke="black" points="586.46,-252 391.54,-252 391.54,-216 586.46,-216 586.46,-252"/>
<text text-anchor="middle" x="489" y="-229.8" font-family="Times,serif" font-size="14.00">DashboardUnitConversionPipe </text>
</g>
<!-- NuiDashboardsCommonModule&#45;&gt;DashboardUnitConversionPipe  -->
<g id="edge4" class="edge">
<title>NuiDashboardsCommonModule&#45;&gt;DashboardUnitConversionPipe </title>
<path fill="none" stroke="black" stroke-dasharray="5,2" d="M379.63,-187.11C379.63,-206.34 379.63,-234 379.63,-234 379.63,-234 381.76,-234 381.76,-234"/>
<polygon fill="black" stroke="black" points="381.76,-237.5 391.76,-234 381.76,-230.5 381.76,-237.5"/>
</g>
<!-- PreviewOverlayComponent  -->
<g id="node6" class="node">
<title>PreviewOverlayComponent </title>
<polygon fill="#fb8072" stroke="black" points="373.79,-252 198.21,-252 198.21,-216 373.79,-216 373.79,-252"/>
<text text-anchor="middle" x="286" y="-229.8" font-family="Times,serif" font-size="14.00">PreviewOverlayComponent </text>
</g>
<!-- NuiDashboardsCommonModule&#45;&gt;PreviewOverlayComponent  -->
<g id="edge5" class="edge">
<title>NuiDashboardsCommonModule&#45;&gt;PreviewOverlayComponent </title>
<path fill="none" stroke="black" stroke-dasharray="5,2" d="M286,-187.11C286,-187.11 286,-205.99 286,-205.99"/>
<polygon fill="black" stroke="black" points="282.5,-205.99 286,-215.99 289.5,-205.99 282.5,-205.99"/>
</g>
<!-- WidgetErrorComponent  -->
<g id="node7" class="node">
<title>WidgetErrorComponent </title>
<polygon fill="#fb8072" stroke="black" points="179.58,-252 24.42,-252 24.42,-216 179.58,-216 179.58,-252"/>
<text text-anchor="middle" x="102" y="-229.8" font-family="Times,serif" font-size="14.00">WidgetErrorComponent </text>
</g>
<!-- NuiDashboardsCommonModule&#45;&gt;WidgetErrorComponent  -->
<g id="edge6" class="edge">
<title>NuiDashboardsCommonModule&#45;&gt;WidgetErrorComponent </title>
<path fill="none" stroke="black" stroke-dasharray="5,2" d="M192.37,-187.11C192.37,-206.34 192.37,-234 192.37,-234 192.37,-234 189.8,-234 189.8,-234"/>
<polygon fill="black" stroke="black" points="189.8,-230.5 179.8,-234 189.8,-237.5 189.8,-230.5"/>
</g>
</g>
</svg>
