<?xml version="1.0" encoding="UTF-8" standalone="no"?>
<!DOCTYPE svg PUBLIC "-//W3C//DTD SVG 1.1//EN"
 "http://www.w3.org/Graphics/SVG/1.1/DTD/svg11.dtd">
<!-- Generated by graphviz version 5.0.0 (20220707.1540)
 -->
<!-- Title: dependencies Pages: 1 -->
<svg width="594pt" height="247pt"
 viewBox="0.00 0.00 594.00 246.80" xmlns="http://www.w3.org/2000/svg" xmlns:xlink="http://www.w3.org/1999/xlink">
<g id="graph0" class="graph" transform="scale(1 1) rotate(0) translate(4 242.8)">
<title>dependencies</title>
<polygon fill="white" stroke="transparent" points="-4,4 -4,-242.8 590,-242.8 590,4 -4,4"/>
<text text-anchor="middle" x="293" y="-8.2" font-family="sans-serif" font-size="14.00">dependencies</text>
<g id="clust1" class="cluster">
<title>cluster_NuiPizzagnaModule</title>
<polygon fill="none" stroke="black" stroke-dasharray="1,5" points="8,-32.8 8,-230.8 578,-230.8 578,-32.8 8,-32.8"/>
</g>
<g id="clust6" class="cluster">
<title>cluster_NuiPizzagnaModule_exports</title>
<polygon fill="none" stroke="black" points="148,-170.8 148,-222.8 488,-222.8 488,-170.8 148,-170.8"/>
</g>
<g id="clust2" class="cluster">
<title>cluster_NuiPizzagnaModule_declarations</title>
<polygon fill="none" stroke="black" points="238,-40.8 238,-92.8 570,-92.8 570,-40.8 238,-40.8"/>
</g>
<g id="clust5" class="cluster">
<title>cluster_NuiPizzagnaModule_imports</title>
<polygon fill="none" stroke="black" points="16,-40.8 16,-92.8 230,-92.8 230,-40.8 16,-40.8"/>
</g>
<!-- ComponentPortalDirective -->
<g id="node1" class="node">
<title>ComponentPortalDirective</title>
<polygon fill="#ffffb3" stroke="black" points="562.36,-84.8 395.64,-84.8 395.64,-48.8 562.36,-48.8 562.36,-84.8"/>
<text text-anchor="middle" x="479" y="-62.6" font-family="Times,serif" font-size="14.00">ComponentPortalDirective</text>
</g>
<!-- NuiPizzagnaModule -->
<g id="node3" class="node">
<title>NuiPizzagnaModule</title>
<polygon fill="#8dd3c7" stroke="black" points="377.58,-149.8 374.58,-153.8 353.58,-153.8 350.58,-149.8 246.42,-149.8 246.42,-113.8 377.58,-113.8 377.58,-149.8"/>
<text text-anchor="middle" x="312" y="-127.6" font-family="Times,serif" font-size="14.00">NuiPizzagnaModule</text>
</g>
<!-- ComponentPortalDirective&#45;&gt;NuiPizzagnaModule -->
<g id="edge1" class="edge">
<title>ComponentPortalDirective&#45;&gt;NuiPizzagnaModule</title>
<path fill="none" stroke="black" d="M437.88,-84.91C437.88,-104.14 437.88,-131.8 437.88,-131.8 437.88,-131.8 387.89,-131.8 387.89,-131.8"/>
<polygon fill="black" stroke="black" points="387.89,-128.3 377.89,-131.8 387.89,-135.3 387.89,-128.3"/>
</g>
<!-- PizzagnaComponent -->
<g id="node2" class="node">
<title>PizzagnaComponent</title>
<polygon fill="#ffffb3" stroke="black" points="377.86,-84.8 246.14,-84.8 246.14,-48.8 377.86,-48.8 377.86,-84.8"/>
<text text-anchor="middle" x="312" y="-62.6" font-family="Times,serif" font-size="14.00">PizzagnaComponent</text>
</g>
<!-- PizzagnaComponent&#45;&gt;NuiPizzagnaModule -->
<g id="edge2" class="edge">
<title>PizzagnaComponent&#45;&gt;NuiPizzagnaModule</title>
<path fill="none" stroke="black" d="M312,-84.91C312,-84.91 312,-103.79 312,-103.79"/>
<polygon fill="black" stroke="black" points="308.5,-103.79 312,-113.79 315.5,-103.79 308.5,-103.79"/>
</g>
<!-- ComponentPortalDirective  -->
<g id="node5" class="node">
<title>ComponentPortalDirective </title>
<polygon fill="#fb8072" stroke="black" points="480.36,-214.8 309.64,-214.8 309.64,-178.8 480.36,-178.8 480.36,-214.8"/>
<text text-anchor="middle" x="395" y="-192.6" font-family="Times,serif" font-size="14.00">ComponentPortalDirective </text>
</g>
<!-- NuiPizzagnaModule&#45;&gt;ComponentPortalDirective  -->
<g id="edge4" class="edge">
<title>NuiPizzagnaModule&#45;&gt;ComponentPortalDirective </title>
<path fill="none" stroke="black" stroke-dasharray="5,2" d="M343.68,-149.91C343.68,-149.91 343.68,-168.79 343.68,-168.79"/>
<polygon fill="black" stroke="black" points="340.18,-168.79 343.68,-178.79 347.18,-168.79 340.18,-168.79"/>
</g>
<!-- PizzagnaComponent  -->
<g id="node6" class="node">
<title>PizzagnaComponent </title>
<polygon fill="#fb8072" stroke="black" points="291.86,-214.8 156.14,-214.8 156.14,-178.8 291.86,-178.8 291.86,-214.8"/>
<text text-anchor="middle" x="224" y="-192.6" font-family="Times,serif" font-size="14.00">PizzagnaComponent </text>
</g>
<!-- NuiPizzagnaModule&#45;&gt;PizzagnaComponent  -->
<g id="edge5" class="edge">
<title>NuiPizzagnaModule&#45;&gt;PizzagnaComponent </title>
<path fill="none" stroke="black" stroke-dasharray="5,2" d="M269.07,-149.91C269.07,-149.91 269.07,-168.79 269.07,-168.79"/>
<polygon fill="black" stroke="black" points="265.57,-168.79 269.07,-178.79 272.57,-168.79 265.57,-168.79"/>
</g>
<!-- NuiDashboardsCommonModule -->
<g id="node4" class="node">
<title>NuiDashboardsCommonModule</title>
<polygon fill="#8dd3c7" stroke="black" points="222.27,-84.8 219.27,-88.8 198.27,-88.8 195.27,-84.8 23.73,-84.8 23.73,-48.8 222.27,-48.8 222.27,-84.8"/>
<text text-anchor="middle" x="123" y="-62.6" font-family="Times,serif" font-size="14.00">NuiDashboardsCommonModule</text>
</g>
<!-- NuiDashboardsCommonModule&#45;&gt;NuiPizzagnaModule -->
<g id="edge3" class="edge">
<title>NuiDashboardsCommonModule&#45;&gt;NuiPizzagnaModule</title>
<path fill="none" stroke="black" d="M189.35,-84.91C189.35,-104.14 189.35,-131.8 189.35,-131.8 189.35,-131.8 236.37,-131.8 236.37,-131.8"/>
<polygon fill="black" stroke="black" points="236.37,-135.3 246.37,-131.8 236.37,-128.3 236.37,-135.3"/>
</g>
</g>
</svg>
