<?xml version="1.0" encoding="UTF-8" standalone="no"?>
<!DOCTYPE svg PUBLIC "-//W3C//DTD SVG 1.1//EN"
 "http://www.w3.org/Graphics/SVG/1.1/DTD/svg11.dtd">
<!-- Generated by graphviz version 2.47.3 (20210619.1520)
 -->
<!-- Title: dependencies Pages: 1 -->
<svg width="618pt" height="247pt"
 viewBox="0.00 0.00 618.00 246.80" xmlns="http://www.w3.org/2000/svg" xmlns:xlink="http://www.w3.org/1999/xlink">
<g id="graph0" class="graph" transform="scale(1 1) rotate(0) translate(4 242.8)">
<title>dependencies</title>
<polygon fill="white" stroke="transparent" points="-4,4 -4,-242.8 614,-242.8 614,4 -4,4"/>
<text text-anchor="middle" x="305" y="-8.2" font-family="sans-serif" font-size="14.00">dependencies</text>
<g id="clust1" class="cluster">
<title>cluster_NuiDashboardsCommonModule</title>
<polygon fill="none" stroke="black" stroke-dasharray="1,5" points="8,-32.8 8,-230.8 602,-230.8 602,-32.8 8,-32.8"/>
</g>
<g id="clust2" class="cluster">
<title>cluster_NuiDashboardsCommonModule_declarations</title>
<polygon fill="none" stroke="black" points="22,-40.8 22,-92.8 589,-92.8 589,-40.8 22,-40.8"/>
</g>
<g id="clust7" class="cluster">
<title>cluster_NuiDashboardsCommonModule_exports</title>
<polygon fill="none" stroke="black" points="16,-170.8 16,-222.8 594,-222.8 594,-170.8 16,-170.8"/>
</g>
<!-- DashboardUnitConversionPipe -->
<g id="node1" class="node">
<title>DashboardUnitConversionPipe</title>
<polygon fill="#ffffb3" stroke="black" points="581.46,-84.8 390.54,-84.8 390.54,-48.8 581.46,-48.8 581.46,-84.8"/>
<text text-anchor="middle" x="486" y="-62.6" font-family="Times,serif" font-size="14.00">DashboardUnitConversionPipe</text>
</g>
<!-- NuiDashboardsCommonModule -->
<g id="node4" class="node">
<title>NuiDashboardsCommonModule</title>
<polygon fill="#8dd3c7" stroke="black" points="385.25,-149.8 382.25,-153.8 361.25,-153.8 358.25,-149.8 186.75,-149.8 186.75,-113.8 385.25,-113.8 385.25,-149.8"/>
<text text-anchor="middle" x="286" y="-127.6" font-family="Times,serif" font-size="14.00">NuiDashboardsCommonModule</text>
</g>
<!-- DashboardUnitConversionPipe&#45;&gt;NuiDashboardsCommonModule -->
<g id="edge1" class="edge">
<title>DashboardUnitConversionPipe&#45;&gt;NuiDashboardsCommonModule</title>
<path fill="none" stroke="black" d="M390.24,-66.8C383.18,-66.8 378.76,-66.8 378.76,-66.8 378.76,-66.8 378.76,-103.69 378.76,-103.69"/>
<polygon fill="black" stroke="black" points="375.26,-103.69 378.76,-113.69 382.26,-103.69 375.26,-103.69"/>
</g>
<!-- PreviewOverlayComponent -->
<g id="node2" class="node">
<title>PreviewOverlayComponent</title>
<polygon fill="#ffffb3" stroke="black" points="372.29,-84.8 199.71,-84.8 199.71,-48.8 372.29,-48.8 372.29,-84.8"/>
<text text-anchor="middle" x="286" y="-62.6" font-family="Times,serif" font-size="14.00">PreviewOverlayComponent</text>
</g>
<!-- PreviewOverlayComponent&#45;&gt;NuiDashboardsCommonModule -->
<g id="edge2" class="edge">
<title>PreviewOverlayComponent&#45;&gt;NuiDashboardsCommonModule</title>
<path fill="none" stroke="black" d="M286,-84.91C286,-84.91 286,-103.79 286,-103.79"/>
<polygon fill="black" stroke="black" points="282.5,-103.79 286,-113.79 289.5,-103.79 282.5,-103.79"/>
</g>
<!-- WidgetErrorComponent -->
<g id="node3" class="node">
<title>WidgetErrorComponent</title>
<polygon fill="#ffffb3" stroke="black" points="182.08,-84.8 29.92,-84.8 29.92,-48.8 182.08,-48.8 182.08,-84.8"/>
<text text-anchor="middle" x="106" y="-62.6" font-family="Times,serif" font-size="14.00">WidgetErrorComponent</text>
</g>
<!-- WidgetErrorComponent&#45;&gt;NuiDashboardsCommonModule -->
<g id="edge3" class="edge">
<title>WidgetErrorComponent&#45;&gt;NuiDashboardsCommonModule</title>
<path fill="none" stroke="black" d="M182.19,-66.8C188.92,-66.8 193.24,-66.8 193.24,-66.8 193.24,-66.8 193.24,-103.69 193.24,-103.69"/>
<polygon fill="black" stroke="black" points="189.74,-103.69 193.24,-113.69 196.74,-103.69 189.74,-103.69"/>
</g>
<!-- DashboardUnitConversionPipe  -->
<g id="node5" class="node">
<title>DashboardUnitConversionPipe </title>
<polygon fill="#fb8072" stroke="black" points="586.46,-214.8 391.54,-214.8 391.54,-178.8 586.46,-178.8 586.46,-214.8"/>
<text text-anchor="middle" x="489" y="-192.6" font-family="Times,serif" font-size="14.00">DashboardUnitConversionPipe </text>
</g>
<!-- NuiDashboardsCommonModule&#45;&gt;DashboardUnitConversionPipe  -->
<g id="edge4" class="edge">
<title>NuiDashboardsCommonModule&#45;&gt;DashboardUnitConversionPipe </title>
<path fill="none" stroke="black" stroke-dasharray="5,2" d="M379.63,-149.91C379.63,-169.14 379.63,-196.8 379.63,-196.8 379.63,-196.8 381.76,-196.8 381.76,-196.8"/>
<polygon fill="black" stroke="black" points="381.76,-200.3 391.76,-196.8 381.76,-193.3 381.76,-200.3"/>
</g>
<!-- PreviewOverlayComponent  -->
<g id="node6" class="node">
<title>PreviewOverlayComponent </title>
<polygon fill="#fb8072" stroke="black" points="373.79,-214.8 198.21,-214.8 198.21,-178.8 373.79,-178.8 373.79,-214.8"/>
<text text-anchor="middle" x="286" y="-192.6" font-family="Times,serif" font-size="14.00">PreviewOverlayComponent </text>
</g>
<!-- NuiDashboardsCommonModule&#45;&gt;PreviewOverlayComponent  -->
<g id="edge5" class="edge">
<title>NuiDashboardsCommonModule&#45;&gt;PreviewOverlayComponent </title>
<path fill="none" stroke="black" stroke-dasharray="5,2" d="M286,-149.91C286,-149.91 286,-168.79 286,-168.79"/>
<polygon fill="black" stroke="black" points="282.5,-168.79 286,-178.79 289.5,-168.79 282.5,-168.79"/>
</g>
<!-- WidgetErrorComponent  -->
<g id="node7" class="node">
<title>WidgetErrorComponent </title>
<polygon fill="#fb8072" stroke="black" points="179.58,-214.8 24.42,-214.8 24.42,-178.8 179.58,-178.8 179.58,-214.8"/>
<text text-anchor="middle" x="102" y="-192.6" font-family="Times,serif" font-size="14.00">WidgetErrorComponent </text>
</g>
<!-- NuiDashboardsCommonModule&#45;&gt;WidgetErrorComponent  -->
<g id="edge6" class="edge">
<title>NuiDashboardsCommonModule&#45;&gt;WidgetErrorComponent </title>
<path fill="none" stroke="black" stroke-dasharray="5,2" d="M192.37,-149.91C192.37,-169.14 192.37,-196.8 192.37,-196.8 192.37,-196.8 189.8,-196.8 189.8,-196.8"/>
<polygon fill="black" stroke="black" points="189.8,-193.3 179.8,-196.8 189.8,-200.3 189.8,-193.3"/>
</g>
</g>
</svg>
