<?xml version="1.0" encoding="UTF-8" standalone="no"?>
<!DOCTYPE svg PUBLIC "-//W3C//DTD SVG 1.1//EN"
 "http://www.w3.org/Graphics/SVG/1.1/DTD/svg11.dtd">
<!-- Generated by graphviz version 2.44.1 (20200629.0846)
 -->
<!-- Title: dependencies Pages: 1 -->
<svg width="6071pt" height="284pt"
 viewBox="0.00 0.00 6071.00 284.00" xmlns="http://www.w3.org/2000/svg" xmlns:xlink="http://www.w3.org/1999/xlink">
<g id="graph0" class="graph" transform="scale(1 1) rotate(0) translate(4 280)">
<title>dependencies</title>
<polygon fill="white" stroke="transparent" points="-4,4 -4,-280 6067,-280 6067,4 -4,4"/>
<text text-anchor="start" x="3010.51" y="-42.4" font-family="sans-serif" font-weight="bold" font-size="14.00">Legend</text>
<polygon fill="#ffffb3" stroke="transparent" points="2797.5,-10 2797.5,-30 2817.5,-30 2817.5,-10 2797.5,-10"/>
<text text-anchor="start" x="2821.13" y="-15.4" font-family="sans-serif" font-size="14.00"> &#160;Declarations</text>
<polygon fill="#8dd3c7" stroke="transparent" points="2910.5,-10 2910.5,-30 2930.5,-30 2930.5,-10 2910.5,-10"/>
<text text-anchor="start" x="2934.23" y="-15.4" font-family="sans-serif" font-size="14.00"> &#160;Module</text>
<polygon fill="#80b1d3" stroke="transparent" points="2996.5,-10 2996.5,-30 3016.5,-30 3016.5,-10 2996.5,-10"/>
<text text-anchor="start" x="3020.28" y="-15.4" font-family="sans-serif" font-size="14.00"> &#160;Bootstrap</text>
<polygon fill="#fdb462" stroke="transparent" points="3093.5,-10 3093.5,-30 3113.5,-30 3113.5,-10 3093.5,-10"/>
<text text-anchor="start" x="3117.17" y="-15.4" font-family="sans-serif" font-size="14.00"> &#160;Providers</text>
<polygon fill="#fb8072" stroke="transparent" points="3189.5,-10 3189.5,-30 3209.5,-30 3209.5,-10 3189.5,-10"/>
<text text-anchor="start" x="3213.23" y="-15.4" font-family="sans-serif" font-size="14.00"> &#160;Exports</text>
<g id="clust1" class="cluster">
<title>cluster_NuiDashboardsModule</title>
<polygon fill="none" stroke="black" stroke-dasharray="1,5" points="8,-70 8,-268 6055,-268 6055,-70 8,-70"/>
</g>
<g id="clust34" class="cluster">
<title>cluster_NuiDashboardsModule_providers</title>
<polygon fill="none" stroke="black" points="5813,-78 5813,-130 6047,-130 6047,-78 5813,-78"/>
</g>
<g id="clust31" class="cluster">
<title>cluster_NuiDashboardsModule_imports</title>
<polygon fill="none" stroke="black" points="5209,-78 5209,-130 5805,-130 5805,-78 5209,-78"/>
</g>
<g id="clust2" class="cluster">
<title>cluster_NuiDashboardsModule_declarations</title>
<polygon fill="none" stroke="black" points="16,-78 16,-130 5201,-130 5201,-78 16,-78"/>
</g>
<g id="clust32" class="cluster">
<title>cluster_NuiDashboardsModule_exports</title>
<polygon fill="none" stroke="black" points="334,-208 334,-260 5622,-260 5622,-208 334,-208"/>
</g>
<!-- DashboardComponent -->
<g id="node1" class="node">
<title>DashboardComponent</title>
<polygon fill="#ffffb3" stroke="black" points="5192.97,-122 5051.03,-122 5051.03,-86 5192.97,-86 5192.97,-122"/>
<text text-anchor="middle" x="5122" y="-99.8" font-family="Times,serif" font-size="14.00">DashboardComponent</text>
</g>
<!-- NuiDashboardsModule -->
<g id="node29" class="node">
<title>NuiDashboardsModule</title>
<polygon fill="#8dd3c7" stroke="black" points="3046.13,-187 3043.13,-191 3022.13,-191 3019.13,-187 2899.87,-187 2899.87,-151 3046.13,-151 3046.13,-187"/>
<text text-anchor="middle" x="2973" y="-164.8" font-family="Times,serif" font-size="14.00">NuiDashboardsModule</text>
</g>
<!-- DashboardComponent&#45;&gt;NuiDashboardsModule -->
<g id="edge1" class="edge">
<title>DashboardComponent&#45;&gt;NuiDashboardsModule</title>
<path fill="none" stroke="black" d="M5111.27,-122.3C5111.27,-140.27 5111.27,-165 5111.27,-165 5111.27,-165 3056.29,-165 3056.29,-165"/>
<polygon fill="black" stroke="black" points="3056.29,-161.5 3046.29,-165 3056.29,-168.5 3056.29,-161.5"/>
</g>
<!-- DelayedMousePresenceDetectionDirective -->
<g id="node2" class="node">
<title>DelayedMousePresenceDetectionDirective</title>
<polygon fill="#ffffb3" stroke="black" points="5033.5,-122 4776.5,-122 4776.5,-86 5033.5,-86 5033.5,-122"/>
<text text-anchor="middle" x="4905" y="-99.8" font-family="Times,serif" font-size="14.00">DelayedMousePresenceDetectionDirective</text>
</g>
<!-- DelayedMousePresenceDetectionDirective&#45;&gt;NuiDashboardsModule -->
<g id="edge2" class="edge">
<title>DelayedMousePresenceDetectionDirective&#45;&gt;NuiDashboardsModule</title>
<path fill="none" stroke="black" d="M4870.25,-122C4870.25,-139.68 4870.25,-164 4870.25,-164 4870.25,-164 3056.21,-164 3056.21,-164"/>
<polygon fill="black" stroke="black" points="3056.21,-160.5 3046.21,-164 3056.21,-167.5 3056.21,-160.5"/>
</g>
<!-- EmbeddedContentComponent -->
<g id="node3" class="node">
<title>EmbeddedContentComponent</title>
<polygon fill="#ffffb3" stroke="black" points="4758.54,-122 4573.46,-122 4573.46,-86 4758.54,-86 4758.54,-122"/>
<text text-anchor="middle" x="4666" y="-99.8" font-family="Times,serif" font-size="14.00">EmbeddedContentComponent</text>
</g>
<!-- EmbeddedContentComponent&#45;&gt;NuiDashboardsModule -->
<g id="edge3" class="edge">
<title>EmbeddedContentComponent&#45;&gt;NuiDashboardsModule</title>
<path fill="none" stroke="black" d="M4599.51,-122.02C4599.51,-139.37 4599.51,-163 4599.51,-163 4599.51,-163 3056.31,-163 3056.31,-163"/>
<polygon fill="black" stroke="black" points="3056.31,-159.5 3046.31,-163 3056.31,-166.5 3056.31,-159.5"/>
</g>
<!-- GridsterItemWidgetIdDirective -->
<g id="node4" class="node">
<title>GridsterItemWidgetIdDirective</title>
<polygon fill="#ffffb3" stroke="black" points="4555.48,-122 4362.52,-122 4362.52,-86 4555.48,-86 4555.48,-122"/>
<text text-anchor="middle" x="4459" y="-99.8" font-family="Times,serif" font-size="14.00">GridsterItemWidgetIdDirective</text>
</g>
<!-- GridsterItemWidgetIdDirective&#45;&gt;NuiDashboardsModule -->
<g id="edge4" class="edge">
<title>GridsterItemWidgetIdDirective&#45;&gt;NuiDashboardsModule</title>
<path fill="none" stroke="black" d="M4414.39,-122.04C4414.39,-138.73 4414.39,-161 4414.39,-161 4414.39,-161 3056.46,-161 3056.46,-161"/>
<polygon fill="black" stroke="black" points="3056.46,-157.5 3046.46,-161 3056.46,-164.5 3056.46,-157.5"/>
</g>
<!-- KpiComponent -->
<g id="node5" class="node">
<title>KpiComponent</title>
<polygon fill="#ffffb3" stroke="black" points="4345.33,-122 4242.67,-122 4242.67,-86 4345.33,-86 4345.33,-122"/>
<text text-anchor="middle" x="4294" y="-99.8" font-family="Times,serif" font-size="14.00">KpiComponent</text>
</g>
<!-- KpiComponent&#45;&gt;NuiDashboardsModule -->
<g id="edge5" class="edge">
<title>KpiComponent&#45;&gt;NuiDashboardsModule</title>
<path fill="none" stroke="black" d="M4261.4,-122.03C4261.4,-138.4 4261.4,-160 4261.4,-160 4261.4,-160 3056.43,-160 3056.43,-160"/>
<polygon fill="black" stroke="black" points="3056.43,-156.5 3046.43,-160 3056.43,-163.5 3056.43,-156.5"/>
</g>
<!-- LineChartComponent -->
<g id="node6" class="node">
<title>LineChartComponent</title>
<polygon fill="#ffffb3" stroke="black" points="4225.09,-122 4086.91,-122 4086.91,-86 4225.09,-86 4225.09,-122"/>
<text text-anchor="middle" x="4156" y="-99.8" font-family="Times,serif" font-size="14.00">LineChartComponent</text>
</g>
<!-- LineChartComponent&#45;&gt;NuiDashboardsModule -->
<g id="edge6" class="edge">
<title>LineChartComponent&#45;&gt;NuiDashboardsModule</title>
<path fill="none" stroke="black" d="M4095.73,-122.01C4095.73,-138.05 4095.73,-159 4095.73,-159 4095.73,-159 3056.23,-159 3056.23,-159"/>
<polygon fill="black" stroke="black" points="3056.23,-155.5 3046.23,-159 3056.23,-162.5 3056.23,-155.5"/>
</g>
<!-- ListGroupItemComponent -->
<g id="node7" class="node">
<title>ListGroupItemComponent</title>
<polygon fill="#ffffb3" stroke="black" points="4069.04,-122 3904.96,-122 3904.96,-86 4069.04,-86 4069.04,-122"/>
<text text-anchor="middle" x="3987" y="-99.8" font-family="Times,serif" font-size="14.00">ListGroupItemComponent</text>
</g>
<!-- ListGroupItemComponent&#45;&gt;NuiDashboardsModule -->
<g id="edge7" class="edge">
<title>ListGroupItemComponent&#45;&gt;NuiDashboardsModule</title>
<path fill="none" stroke="black" d="M3910.11,-122.28C3910.11,-137.95 3910.11,-158 3910.11,-158 3910.11,-158 3056.14,-158 3056.14,-158"/>
<polygon fill="black" stroke="black" points="3056.14,-154.5 3046.14,-158 3056.14,-161.5 3056.14,-154.5"/>
</g>
<!-- ListLeafItemComponent -->
<g id="node8" class="node">
<title>ListLeafItemComponent</title>
<polygon fill="#ffffb3" stroke="black" points="3887.41,-122 3732.59,-122 3732.59,-86 3887.41,-86 3887.41,-122"/>
<text text-anchor="middle" x="3810" y="-99.8" font-family="Times,serif" font-size="14.00">ListLeafItemComponent</text>
</g>
<!-- ListLeafItemComponent&#45;&gt;NuiDashboardsModule -->
<g id="edge8" class="edge">
<title>ListLeafItemComponent&#45;&gt;NuiDashboardsModule</title>
<path fill="none" stroke="black" d="M3741.44,-122.19C3741.44,-137.18 3741.44,-156 3741.44,-156 3741.44,-156 3056.33,-156 3056.33,-156"/>
<polygon fill="black" stroke="black" points="3056.33,-152.5 3046.33,-156 3056.33,-159.5 3056.33,-152.5"/>
</g>
<!-- ListNavigationBarComponent -->
<g id="node9" class="node">
<title>ListNavigationBarComponent</title>
<polygon fill="#ffffb3" stroke="black" points="3714.53,-122 3529.47,-122 3529.47,-86 3714.53,-86 3714.53,-122"/>
<text text-anchor="middle" x="3622" y="-99.8" font-family="Times,serif" font-size="14.00">ListNavigationBarComponent</text>
</g>
<!-- ListNavigationBarComponent&#45;&gt;NuiDashboardsModule -->
<g id="edge9" class="edge">
<title>ListNavigationBarComponent&#45;&gt;NuiDashboardsModule</title>
<path fill="none" stroke="black" d="M3555.66,-122.12C3555.66,-136.78 3555.66,-155 3555.66,-155 3555.66,-155 3056.2,-155 3056.2,-155"/>
<polygon fill="black" stroke="black" points="3056.2,-151.5 3046.2,-155 3056.2,-158.5 3056.2,-151.5"/>
</g>
<!-- ListWidgetComponent -->
<g id="node10" class="node">
<title>ListWidgetComponent</title>
<polygon fill="#ffffb3" stroke="black" points="3511.32,-122 3366.68,-122 3366.68,-86 3511.32,-86 3511.32,-122"/>
<text text-anchor="middle" x="3439" y="-99.8" font-family="Times,serif" font-size="14.00">ListWidgetComponent</text>
</g>
<!-- ListWidgetComponent&#45;&gt;NuiDashboardsModule -->
<g id="edge10" class="edge">
<title>ListWidgetComponent&#45;&gt;NuiDashboardsModule</title>
<path fill="none" stroke="black" d="M3439,-122.05C3439,-136.37 3439,-154 3439,-154 3439,-154 3056.33,-154 3056.33,-154"/>
<polygon fill="black" stroke="black" points="3056.33,-150.5 3046.33,-154 3056.33,-157.5 3056.33,-150.5"/>
</g>
<!-- LoadingComponent -->
<g id="node11" class="node">
<title>LoadingComponent</title>
<polygon fill="#ffffb3" stroke="black" points="3348.99,-122 3221.01,-122 3221.01,-86 3348.99,-86 3348.99,-122"/>
<text text-anchor="middle" x="3285" y="-99.8" font-family="Times,serif" font-size="14.00">LoadingComponent</text>
</g>
<!-- LoadingComponent&#45;&gt;NuiDashboardsModule -->
<g id="edge11" class="edge">
<title>LoadingComponent&#45;&gt;NuiDashboardsModule</title>
<path fill="none" stroke="black" d="M3275.51,-122.25C3275.51,-136.18 3275.51,-153 3275.51,-153 3275.51,-153 3056.23,-153 3056.23,-153"/>
<polygon fill="black" stroke="black" points="3056.23,-149.5 3046.23,-153 3056.23,-156.5 3056.23,-149.5"/>
</g>
<!-- ProportionalDonutContentComponent -->
<g id="node12" class="node">
<title>ProportionalDonutContentComponent</title>
<polygon fill="#ffffb3" stroke="black" points="3203.15,-122 2972.85,-122 2972.85,-86 3203.15,-86 3203.15,-122"/>
<text text-anchor="middle" x="3088" y="-99.8" font-family="Times,serif" font-size="14.00">ProportionalDonutContentComponent</text>
</g>
<!-- ProportionalDonutContentComponent&#45;&gt;NuiDashboardsModule -->
<g id="edge12" class="edge">
<title>ProportionalDonutContentComponent&#45;&gt;NuiDashboardsModule</title>
<path fill="none" stroke="black" d="M3009.5,-122.11C3009.5,-122.11 3009.5,-140.99 3009.5,-140.99"/>
<polygon fill="black" stroke="black" points="3006,-140.99 3009.5,-150.99 3013,-140.99 3006,-140.99"/>
</g>
<!-- ProportionalWidgetComponent -->
<g id="node13" class="node">
<title>ProportionalWidgetComponent</title>
<polygon fill="#ffffb3" stroke="black" points="2954.03,-122 2761.97,-122 2761.97,-86 2954.03,-86 2954.03,-122"/>
<text text-anchor="middle" x="2858" y="-99.8" font-family="Times,serif" font-size="14.00">ProportionalWidgetComponent</text>
</g>
<!-- ProportionalWidgetComponent&#45;&gt;NuiDashboardsModule -->
<g id="edge13" class="edge">
<title>ProportionalWidgetComponent&#45;&gt;NuiDashboardsModule</title>
<path fill="none" stroke="black" d="M2926.98,-122.11C2926.98,-122.11 2926.98,-140.99 2926.98,-140.99"/>
<polygon fill="black" stroke="black" points="2923.48,-140.99 2926.98,-150.99 2930.48,-140.99 2923.48,-140.99"/>
</g>
<!-- StackComponent -->
<g id="node14" class="node">
<title>StackComponent</title>
<polygon fill="#ffffb3" stroke="black" points="2744.44,-122 2631.56,-122 2631.56,-86 2744.44,-86 2744.44,-122"/>
<text text-anchor="middle" x="2688" y="-99.8" font-family="Times,serif" font-size="14.00">StackComponent</text>
</g>
<!-- StackComponent&#45;&gt;NuiDashboardsModule -->
<g id="edge14" class="edge">
<title>StackComponent&#45;&gt;NuiDashboardsModule</title>
<path fill="none" stroke="black" d="M2688,-122.25C2688,-136.18 2688,-153 2688,-153 2688,-153 2889.61,-153 2889.61,-153"/>
<polygon fill="black" stroke="black" points="2889.61,-156.5 2899.61,-153 2889.61,-149.5 2889.61,-156.5"/>
</g>
<!-- StackedAreaChartComponent -->
<g id="node15" class="node">
<title>StackedAreaChartComponent</title>
<polygon fill="#ffffb3" stroke="black" points="2613.95,-122 2430.05,-122 2430.05,-86 2613.95,-86 2613.95,-122"/>
<text text-anchor="middle" x="2522" y="-99.8" font-family="Times,serif" font-size="14.00">StackedAreaChartComponent</text>
</g>
<!-- StackedAreaChartComponent&#45;&gt;NuiDashboardsModule -->
<g id="edge15" class="edge">
<title>StackedAreaChartComponent&#45;&gt;NuiDashboardsModule</title>
<path fill="none" stroke="black" d="M2604.87,-122.05C2604.87,-136.37 2604.87,-154 2604.87,-154 2604.87,-154 2889.83,-154 2889.83,-154"/>
<polygon fill="black" stroke="black" points="2889.83,-157.5 2899.83,-154 2889.83,-150.5 2889.83,-157.5"/>
</g>
<!-- StackedBarChartComponent -->
<g id="node16" class="node">
<title>StackedBarChartComponent</title>
<polygon fill="#ffffb3" stroke="black" points="2412.46,-122 2235.54,-122 2235.54,-86 2412.46,-86 2412.46,-122"/>
<text text-anchor="middle" x="2324" y="-99.8" font-family="Times,serif" font-size="14.00">StackedBarChartComponent</text>
</g>
<!-- StackedBarChartComponent&#45;&gt;NuiDashboardsModule -->
<g id="edge16" class="edge">
<title>StackedBarChartComponent&#45;&gt;NuiDashboardsModule</title>
<path fill="none" stroke="black" d="M2370.53,-122.12C2370.53,-136.78 2370.53,-155 2370.53,-155 2370.53,-155 2889.73,-155 2889.73,-155"/>
<polygon fill="black" stroke="black" points="2889.73,-158.5 2899.73,-155 2889.73,-151.5 2889.73,-158.5"/>
</g>
<!-- StackedPercentageAreaChartComponent -->
<g id="node17" class="node">
<title>StackedPercentageAreaChartComponent</title>
<polygon fill="#ffffb3" stroke="black" points="2217.86,-122 1972.14,-122 1972.14,-86 2217.86,-86 2217.86,-122"/>
<text text-anchor="middle" x="2095" y="-99.8" font-family="Times,serif" font-size="14.00">StackedPercentageAreaChartComponent</text>
</g>
<!-- StackedPercentageAreaChartComponent&#45;&gt;NuiDashboardsModule -->
<g id="edge17" class="edge">
<title>StackedPercentageAreaChartComponent&#45;&gt;NuiDashboardsModule</title>
<path fill="none" stroke="black" d="M2178.75,-122.19C2178.75,-137.18 2178.75,-156 2178.75,-156 2178.75,-156 2889.7,-156 2889.7,-156"/>
<polygon fill="black" stroke="black" points="2889.7,-159.5 2899.7,-156 2889.7,-152.5 2889.7,-159.5"/>
</g>
<!-- StatusBarChartComponent -->
<g id="node18" class="node">
<title>StatusBarChartComponent</title>
<polygon fill="#ffffb3" stroke="black" points="1954.37,-122 1787.63,-122 1787.63,-86 1954.37,-86 1954.37,-122"/>
<text text-anchor="middle" x="1871" y="-99.8" font-family="Times,serif" font-size="14.00">StatusBarChartComponent</text>
</g>
<!-- StatusBarChartComponent&#45;&gt;NuiDashboardsModule -->
<g id="edge18" class="edge">
<title>StatusBarChartComponent&#45;&gt;NuiDashboardsModule</title>
<path fill="none" stroke="black" d="M1950.42,-122.28C1950.42,-137.95 1950.42,-158 1950.42,-158 1950.42,-158 2889.46,-158 2889.46,-158"/>
<polygon fill="black" stroke="black" points="2889.46,-161.5 2899.46,-158 2889.46,-154.5 2889.46,-161.5"/>
</g>
<!-- TableWidgetComponent -->
<g id="node19" class="node">
<title>TableWidgetComponent</title>
<polygon fill="#ffffb3" stroke="black" points="1769.42,-122 1614.58,-122 1614.58,-86 1769.42,-86 1769.42,-122"/>
<text text-anchor="middle" x="1692" y="-99.8" font-family="Times,serif" font-size="14.00">TableWidgetComponent</text>
</g>
<!-- TableWidgetComponent&#45;&gt;NuiDashboardsModule -->
<g id="edge19" class="edge">
<title>TableWidgetComponent&#45;&gt;NuiDashboardsModule</title>
<path fill="none" stroke="black" d="M1692.82,-122.01C1692.82,-138.05 1692.82,-159 1692.82,-159 1692.82,-159 2889.57,-159 2889.57,-159"/>
<polygon fill="black" stroke="black" points="2889.57,-162.5 2899.57,-159 2889.57,-155.5 2889.57,-162.5"/>
</g>
<!-- TilesComponent -->
<g id="node20" class="node">
<title>TilesComponent</title>
<polygon fill="#ffffb3" stroke="black" points="1596.83,-122 1487.17,-122 1487.17,-86 1596.83,-86 1596.83,-122"/>
<text text-anchor="middle" x="1542" y="-99.8" font-family="Times,serif" font-size="14.00">TilesComponent</text>
</g>
<!-- TilesComponent&#45;&gt;NuiDashboardsModule -->
<g id="edge20" class="edge">
<title>TilesComponent&#45;&gt;NuiDashboardsModule</title>
<path fill="none" stroke="black" d="M1560.22,-122.03C1560.22,-138.4 1560.22,-160 1560.22,-160 1560.22,-160 2889.53,-160 2889.53,-160"/>
<polygon fill="black" stroke="black" points="2889.53,-163.5 2899.53,-160 2889.53,-156.5 2889.53,-163.5"/>
</g>
<!-- TimeframeSelectionComponent -->
<g id="node21" class="node">
<title>TimeframeSelectionComponent</title>
<polygon fill="#ffffb3" stroke="black" points="1469.62,-122 1274.38,-122 1274.38,-86 1469.62,-86 1469.62,-122"/>
<text text-anchor="middle" x="1372" y="-99.8" font-family="Times,serif" font-size="14.00">TimeframeSelectionComponent</text>
</g>
<!-- TimeframeSelectionComponent&#45;&gt;NuiDashboardsModule -->
<g id="edge21" class="edge">
<title>TimeframeSelectionComponent&#45;&gt;NuiDashboardsModule</title>
<path fill="none" stroke="black" d="M1440.54,-122.04C1440.54,-138.73 1440.54,-161 1440.54,-161 1440.54,-161 2889.86,-161 2889.86,-161"/>
<polygon fill="black" stroke="black" points="2889.86,-164.5 2899.86,-161 2889.86,-157.5 2889.86,-164.5"/>
</g>
<!-- TimeseriesWidgetComponent -->
<g id="node22" class="node">
<title>TimeseriesWidgetComponent</title>
<polygon fill="#ffffb3" stroke="black" points="1255.96,-122 1072.04,-122 1072.04,-86 1255.96,-86 1255.96,-122"/>
<text text-anchor="middle" x="1164" y="-99.8" font-family="Times,serif" font-size="14.00">TimeseriesWidgetComponent</text>
</g>
<!-- TimeseriesWidgetComponent&#45;&gt;NuiDashboardsModule -->
<g id="edge22" class="edge">
<title>TimeseriesWidgetComponent&#45;&gt;NuiDashboardsModule</title>
<path fill="none" stroke="black" d="M1246.4,-122.02C1246.4,-139.37 1246.4,-163 1246.4,-163 1246.4,-163 2889.64,-163 2889.64,-163"/>
<polygon fill="black" stroke="black" points="2889.64,-166.5 2899.64,-163 2889.64,-159.5 2889.64,-166.5"/>
</g>
<!-- WidgetBodyComponent -->
<g id="node23" class="node">
<title>WidgetBodyComponent</title>
<polygon fill="#ffffb3" stroke="black" points="1054.38,-122 901.62,-122 901.62,-86 1054.38,-86 1054.38,-122"/>
<text text-anchor="middle" x="978" y="-99.8" font-family="Times,serif" font-size="14.00">WidgetBodyComponent</text>
</g>
<!-- WidgetBodyComponent&#45;&gt;NuiDashboardsModule -->
<g id="edge23" class="edge">
<title>WidgetBodyComponent&#45;&gt;NuiDashboardsModule</title>
<path fill="none" stroke="black" d="M1036.04,-122C1036.04,-139.68 1036.04,-164 1036.04,-164 1036.04,-164 2889.73,-164 2889.73,-164"/>
<polygon fill="black" stroke="black" points="2889.73,-167.5 2899.73,-164 2889.73,-160.5 2889.73,-167.5"/>
</g>
<!-- WidgetBodyContentComponent -->
<g id="node24" class="node">
<title>WidgetBodyContentComponent</title>
<polygon fill="#ffffb3" stroke="black" points="883.71,-122 686.29,-122 686.29,-86 883.71,-86 883.71,-122"/>
<text text-anchor="middle" x="785" y="-99.8" font-family="Times,serif" font-size="14.00">WidgetBodyContentComponent</text>
</g>
<!-- WidgetBodyContentComponent&#45;&gt;NuiDashboardsModule -->
<g id="edge24" class="edge">
<title>WidgetBodyContentComponent&#45;&gt;NuiDashboardsModule</title>
<path fill="none" stroke="black" d="M878.79,-122.3C878.79,-140.27 878.79,-165 878.79,-165 878.79,-165 2889.69,-165 2889.69,-165"/>
<polygon fill="black" stroke="black" points="2889.69,-168.5 2899.69,-165 2889.69,-161.5 2889.69,-168.5"/>
</g>
<!-- WidgetComponent -->
<g id="node25" class="node">
<title>WidgetComponent</title>
<polygon fill="#ffffb3" stroke="black" points="668.04,-122 545.96,-122 545.96,-86 668.04,-86 668.04,-122"/>
<text text-anchor="middle" x="607" y="-99.8" font-family="Times,serif" font-size="14.00">WidgetComponent</text>
</g>
<!-- WidgetComponent&#45;&gt;NuiDashboardsModule -->
<g id="edge25" class="edge">
<title>WidgetComponent&#45;&gt;NuiDashboardsModule</title>
<path fill="none" stroke="black" d="M607,-122.27C607,-140.56 607,-166 607,-166 607,-166 2889.6,-166 2889.6,-166"/>
<polygon fill="black" stroke="black" points="2889.6,-169.5 2899.6,-166 2889.6,-162.5 2889.6,-169.5"/>
</g>
<!-- WidgetEditorDirective -->
<g id="node26" class="node">
<title>WidgetEditorDirective</title>
<polygon fill="#ffffb3" stroke="black" points="528.29,-122 383.71,-122 383.71,-86 528.29,-86 528.29,-122"/>
<text text-anchor="middle" x="456" y="-99.8" font-family="Times,serif" font-size="14.00">WidgetEditorDirective</text>
</g>
<!-- WidgetEditorDirective&#45;&gt;NuiDashboardsModule -->
<g id="edge26" class="edge">
<title>WidgetEditorDirective&#45;&gt;NuiDashboardsModule</title>
<path fill="none" stroke="black" d="M514.92,-122.17C514.92,-141.09 514.92,-168 514.92,-168 514.92,-168 2889.77,-168 2889.77,-168"/>
<polygon fill="black" stroke="black" points="2889.77,-171.5 2899.77,-168 2889.77,-164.5 2889.77,-171.5"/>
</g>
<!-- WidgetHeaderComponent -->
<g id="node27" class="node">
<title>WidgetHeaderComponent</title>
<polygon fill="#ffffb3" stroke="black" points="365.45,-122 202.55,-122 202.55,-86 365.45,-86 365.45,-122"/>
<text text-anchor="middle" x="284" y="-99.8" font-family="Times,serif" font-size="14.00">WidgetHeaderComponent</text>
</g>
<!-- WidgetHeaderComponent&#45;&gt;NuiDashboardsModule -->
<g id="edge27" class="edge">
<title>WidgetHeaderComponent&#45;&gt;NuiDashboardsModule</title>
<path fill="none" stroke="black" d="M353.71,-122.11C353.71,-141.34 353.71,-169 353.71,-169 353.71,-169 2889.87,-169 2889.87,-169"/>
<polygon fill="black" stroke="black" points="2889.87,-172.5 2899.87,-169 2889.87,-165.5 2889.87,-172.5"/>
</g>
<!-- WidgetSearchComponent -->
<g id="node28" class="node">
<title>WidgetSearchComponent</title>
<polygon fill="#ffffb3" stroke="black" points="184.13,-122 23.87,-122 23.87,-86 184.13,-86 184.13,-122"/>
<text text-anchor="middle" x="104" y="-99.8" font-family="Times,serif" font-size="14.00">WidgetSearchComponent</text>
</g>
<!-- WidgetSearchComponent&#45;&gt;NuiDashboardsModule -->
<g id="edge28" class="edge">
<title>WidgetSearchComponent&#45;&gt;NuiDashboardsModule</title>
<path fill="none" stroke="black" d="M104,-122.03C104,-141.58 104,-170 104,-170 104,-170 2889.56,-170 2889.56,-170"/>
<polygon fill="black" stroke="black" points="2889.56,-173.5 2899.56,-170 2889.56,-166.5 2889.56,-173.5"/>
</g>
<!-- DashboardComponent  -->
<g id="node33" class="node">
<title>DashboardComponent </title>
<polygon fill="#fb8072" stroke="black" points="5613.97,-252 5468.03,-252 5468.03,-216 5613.97,-216 5613.97,-252"/>
<text text-anchor="middle" x="5541" y="-229.8" font-family="Times,serif" font-size="14.00">DashboardComponent </text>
</g>
<!-- NuiDashboardsModule&#45;&gt;DashboardComponent  -->
<g id="edge32" class="edge">
<title>NuiDashboardsModule&#45;&gt;DashboardComponent </title>
<path fill="none" stroke="black" stroke-dasharray="5,2" d="M3046.39,-171C3463.47,-171 5516.82,-171 5516.82,-171 5516.82,-171 5516.82,-205.78 5516.82,-205.78"/>
<polygon fill="black" stroke="black" points="5513.32,-205.78 5516.82,-215.78 5520.32,-205.78 5513.32,-205.78"/>
</g>
<!-- DelayedMousePresenceDetectionDirective  -->
<g id="node34" class="node">
<title>DelayedMousePresenceDetectionDirective </title>
<polygon fill="#fb8072" stroke="black" points="5450.5,-252 5189.5,-252 5189.5,-216 5450.5,-216 5450.5,-252"/>
<text text-anchor="middle" x="5320" y="-229.8" font-family="Times,serif" font-size="14.00">DelayedMousePresenceDetectionDirective </text>
</g>
<!-- NuiDashboardsModule&#45;&gt;DelayedMousePresenceDetectionDirective  -->
<g id="edge33" class="edge">
<title>NuiDashboardsModule&#45;&gt;DelayedMousePresenceDetectionDirective </title>
<path fill="none" stroke="black" stroke-dasharray="5,2" d="M3046.32,-173C3431.68,-173 5205.22,-173 5205.22,-173 5205.22,-173 5205.22,-205.7 5205.22,-205.7"/>
<polygon fill="black" stroke="black" points="5201.72,-205.7 5205.22,-215.7 5208.72,-205.7 5201.72,-205.7"/>
</g>
<!-- EmbeddedContentComponent  -->
<g id="node35" class="node">
<title>EmbeddedContentComponent </title>
<polygon fill="#fb8072" stroke="black" points="5171.54,-252 4982.46,-252 4982.46,-216 5171.54,-216 5171.54,-252"/>
<text text-anchor="middle" x="5077" y="-229.8" font-family="Times,serif" font-size="14.00">EmbeddedContentComponent </text>
</g>
<!-- NuiDashboardsModule&#45;&gt;EmbeddedContentComponent  -->
<g id="edge34" class="edge">
<title>NuiDashboardsModule&#45;&gt;EmbeddedContentComponent </title>
<path fill="none" stroke="black" stroke-dasharray="5,2" d="M3046.33,-174C3410.58,-174 5007.99,-174 5007.99,-174 5007.99,-174 5007.99,-206 5007.99,-206"/>
<polygon fill="black" stroke="black" points="5004.49,-206 5007.99,-216 5011.49,-206 5004.49,-206"/>
</g>
<!-- GridsterItemWidgetIdDirective  -->
<g id="node36" class="node">
<title>GridsterItemWidgetIdDirective </title>
<polygon fill="#fb8072" stroke="black" points="4963.98,-252 4768.02,-252 4768.02,-216 4963.98,-216 4963.98,-252"/>
<text text-anchor="middle" x="4866" y="-229.8" font-family="Times,serif" font-size="14.00">GridsterItemWidgetIdDirective </text>
</g>
<!-- NuiDashboardsModule&#45;&gt;GridsterItemWidgetIdDirective  -->
<g id="edge35" class="edge">
<title>NuiDashboardsModule&#45;&gt;GridsterItemWidgetIdDirective </title>
<path fill="none" stroke="black" stroke-dasharray="5,2" d="M3046.32,-175C3383.92,-175 4772.26,-175 4772.26,-175 4772.26,-175 4772.26,-205.98 4772.26,-205.98"/>
<polygon fill="black" stroke="black" points="4768.76,-205.98 4772.26,-215.98 4775.76,-205.98 4768.76,-205.98"/>
</g>
<!-- KpiComponent  -->
<g id="node37" class="node">
<title>KpiComponent </title>
<polygon fill="#fb8072" stroke="black" points="4749.83,-252 4644.17,-252 4644.17,-216 4749.83,-216 4749.83,-252"/>
<text text-anchor="middle" x="4697" y="-229.8" font-family="Times,serif" font-size="14.00">KpiComponent </text>
</g>
<!-- NuiDashboardsModule&#45;&gt;KpiComponent  -->
<g id="edge36" class="edge">
<title>NuiDashboardsModule&#45;&gt;KpiComponent </title>
<path fill="none" stroke="black" stroke-dasharray="5,2" d="M3046.25,-176C3374.85,-176 4697,-176 4697,-176 4697,-176 4697,-205.97 4697,-205.97"/>
<polygon fill="black" stroke="black" points="4693.5,-205.97 4697,-215.97 4700.5,-205.97 4693.5,-205.97"/>
</g>
<!-- LineChartComponent  -->
<g id="node38" class="node">
<title>LineChartComponent </title>
<polygon fill="#fb8072" stroke="black" points="4625.59,-252 4484.41,-252 4484.41,-216 4625.59,-216 4625.59,-252"/>
<text text-anchor="middle" x="4555" y="-229.8" font-family="Times,serif" font-size="14.00">LineChartComponent </text>
</g>
<!-- NuiDashboardsModule&#45;&gt;LineChartComponent  -->
<g id="edge37" class="edge">
<title>NuiDashboardsModule&#45;&gt;LineChartComponent </title>
<path fill="none" stroke="black" stroke-dasharray="5,2" d="M3046.3,-178C3353.29,-178 4519.72,-178 4519.72,-178 4519.72,-178 4519.72,-205.97 4519.72,-205.97"/>
<polygon fill="black" stroke="black" points="4516.22,-205.97 4519.72,-215.97 4523.22,-205.97 4516.22,-205.97"/>
</g>
<!-- ListGroupItemComponent  -->
<g id="node39" class="node">
<title>ListGroupItemComponent </title>
<polygon fill="#fb8072" stroke="black" points="4466.03,-252 4297.97,-252 4297.97,-216 4466.03,-216 4466.03,-252"/>
<text text-anchor="middle" x="4382" y="-229.8" font-family="Times,serif" font-size="14.00">ListGroupItemComponent </text>
</g>
<!-- NuiDashboardsModule&#45;&gt;ListGroupItemComponent  -->
<g id="edge38" class="edge">
<title>NuiDashboardsModule&#45;&gt;ListGroupItemComponent </title>
<path fill="none" stroke="black" stroke-dasharray="5,2" d="M3046.46,-179C3327.88,-179 4321.57,-179 4321.57,-179 4321.57,-179 4321.57,-205.99 4321.57,-205.99"/>
<polygon fill="black" stroke="black" points="4318.07,-205.99 4321.57,-215.99 4325.07,-205.99 4318.07,-205.99"/>
</g>
<!-- ListLeafItemComponent  -->
<g id="node40" class="node">
<title>ListLeafItemComponent </title>
<polygon fill="#fb8072" stroke="black" points="4279.91,-252 4122.09,-252 4122.09,-216 4279.91,-216 4279.91,-252"/>
<text text-anchor="middle" x="4201" y="-229.8" font-family="Times,serif" font-size="14.00">ListLeafItemComponent </text>
</g>
<!-- NuiDashboardsModule&#45;&gt;ListLeafItemComponent  -->
<g id="edge39" class="edge">
<title>NuiDashboardsModule&#45;&gt;ListLeafItemComponent </title>
<path fill="none" stroke="black" stroke-dasharray="5,2" d="M3046.29,-180C3306.95,-180 4173.55,-180 4173.55,-180 4173.55,-180 4173.55,-205.72 4173.55,-205.72"/>
<polygon fill="black" stroke="black" points="4170.05,-205.72 4173.55,-215.72 4177.05,-205.72 4170.05,-205.72"/>
</g>
<!-- ListNavigationBarComponent  -->
<g id="node41" class="node">
<title>ListNavigationBarComponent </title>
<polygon fill="#fb8072" stroke="black" points="4104.53,-252 3915.47,-252 3915.47,-216 4104.53,-216 4104.53,-252"/>
<text text-anchor="middle" x="4010" y="-229.8" font-family="Times,serif" font-size="14.00">ListNavigationBarComponent </text>
</g>
<!-- NuiDashboardsModule&#45;&gt;ListNavigationBarComponent  -->
<g id="edge40" class="edge">
<title>NuiDashboardsModule&#45;&gt;ListNavigationBarComponent </title>
<path fill="none" stroke="black" stroke-dasharray="5,2" d="M3046.31,-181C3280.04,-181 3992.38,-181 3992.38,-181 3992.38,-181 3992.38,-205.76 3992.38,-205.76"/>
<polygon fill="black" stroke="black" points="3988.88,-205.76 3992.38,-215.76 3995.88,-205.76 3988.88,-205.76"/>
</g>
<!-- ListWidgetComponent  -->
<g id="node42" class="node">
<title>ListWidgetComponent </title>
<polygon fill="#fb8072" stroke="black" points="3897.82,-252 3750.18,-252 3750.18,-216 3897.82,-216 3897.82,-252"/>
<text text-anchor="middle" x="3824" y="-229.8" font-family="Times,serif" font-size="14.00">ListWidgetComponent </text>
</g>
<!-- NuiDashboardsModule&#45;&gt;ListWidgetComponent  -->
<g id="edge41" class="edge">
<title>NuiDashboardsModule&#45;&gt;ListWidgetComponent </title>
<path fill="none" stroke="black" stroke-dasharray="5,2" d="M3046.2,-183C3251.63,-183 3818.65,-183 3818.65,-183 3818.65,-183 3818.65,-205.88 3818.65,-205.88"/>
<polygon fill="black" stroke="black" points="3815.15,-205.88 3818.65,-215.88 3822.15,-205.88 3815.15,-205.88"/>
</g>
<!-- LoadingComponent  -->
<g id="node43" class="node">
<title>LoadingComponent </title>
<polygon fill="#fb8072" stroke="black" points="3731.99,-252 3600.01,-252 3600.01,-216 3731.99,-216 3731.99,-252"/>
<text text-anchor="middle" x="3666" y="-229.8" font-family="Times,serif" font-size="14.00">LoadingComponent </text>
</g>
<!-- NuiDashboardsModule&#45;&gt;LoadingComponent  -->
<g id="edge42" class="edge">
<title>NuiDashboardsModule&#45;&gt;LoadingComponent </title>
<path fill="none" stroke="black" stroke-dasharray="5,2" d="M3046.25,-184C3222.84,-184 3657.51,-184 3657.51,-184 3657.51,-184 3657.51,-205.95 3657.51,-205.95"/>
<polygon fill="black" stroke="black" points="3654.01,-205.95 3657.51,-215.95 3661.01,-205.95 3654.01,-205.95"/>
</g>
<!-- ProportionalDonutContentComponent  -->
<g id="node44" class="node">
<title>ProportionalDonutContentComponent </title>
<polygon fill="#fb8072" stroke="black" points="3582.15,-252 3347.85,-252 3347.85,-216 3582.15,-216 3582.15,-252"/>
<text text-anchor="middle" x="3465" y="-229.8" font-family="Times,serif" font-size="14.00">ProportionalDonutContentComponent </text>
</g>
<!-- NuiDashboardsModule&#45;&gt;ProportionalDonutContentComponent  -->
<g id="edge43" class="edge">
<title>NuiDashboardsModule&#45;&gt;ProportionalDonutContentComponent </title>
<path fill="none" stroke="black" stroke-dasharray="5,2" d="M3046.31,-185C3157.99,-185 3357.92,-185 3357.92,-185 3357.92,-185 3357.92,-205.75 3357.92,-205.75"/>
<polygon fill="black" stroke="black" points="3354.42,-205.75 3357.92,-215.75 3361.42,-205.75 3354.42,-205.75"/>
</g>
<!-- ProportionalWidgetComponent  -->
<g id="node45" class="node">
<title>ProportionalWidgetComponent </title>
<polygon fill="#fb8072" stroke="black" points="3330.03,-252 3133.97,-252 3133.97,-216 3330.03,-216 3330.03,-252"/>
<text text-anchor="middle" x="3232" y="-229.8" font-family="Times,serif" font-size="14.00">ProportionalWidgetComponent </text>
</g>
<!-- NuiDashboardsModule&#45;&gt;ProportionalWidgetComponent  -->
<g id="edge44" class="edge">
<title>NuiDashboardsModule&#45;&gt;ProportionalWidgetComponent </title>
<path fill="none" stroke="black" stroke-dasharray="5,2" d="M3046.41,-186C3101.93,-186 3168.65,-186 3168.65,-186 3168.65,-186 3168.65,-205.85 3168.65,-205.85"/>
<polygon fill="black" stroke="black" points="3165.15,-205.85 3168.65,-215.85 3172.15,-205.85 3165.15,-205.85"/>
</g>
<!-- StackComponent  -->
<g id="node46" class="node">
<title>StackComponent </title>
<polygon fill="#fb8072" stroke="black" points="3115.93,-252 3000.07,-252 3000.07,-216 3115.93,-216 3115.93,-252"/>
<text text-anchor="middle" x="3058" y="-229.8" font-family="Times,serif" font-size="14.00">StackComponent </text>
</g>
<!-- NuiDashboardsModule&#45;&gt;StackComponent  -->
<g id="edge45" class="edge">
<title>NuiDashboardsModule&#45;&gt;StackComponent </title>
<path fill="none" stroke="black" stroke-dasharray="5,2" d="M3023.17,-187.11C3023.17,-187.11 3023.17,-205.99 3023.17,-205.99"/>
<polygon fill="black" stroke="black" points="3019.67,-205.99 3023.17,-215.99 3026.67,-205.99 3019.67,-205.99"/>
</g>
<!-- StackedAreaChartComponent  -->
<g id="node47" class="node">
<title>StackedAreaChartComponent </title>
<polygon fill="#fb8072" stroke="black" points="2981.95,-252 2794.05,-252 2794.05,-216 2981.95,-216 2981.95,-252"/>
<text text-anchor="middle" x="2888" y="-229.8" font-family="Times,serif" font-size="14.00">StackedAreaChartComponent </text>
</g>
<!-- NuiDashboardsModule&#45;&gt;StackedAreaChartComponent  -->
<g id="edge46" class="edge">
<title>NuiDashboardsModule&#45;&gt;StackedAreaChartComponent </title>
<path fill="none" stroke="black" stroke-dasharray="5,2" d="M2940.7,-187.11C2940.7,-187.11 2940.7,-205.99 2940.7,-205.99"/>
<polygon fill="black" stroke="black" points="2937.2,-205.99 2940.7,-215.99 2944.2,-205.99 2937.2,-205.99"/>
</g>
<!-- StackedBarChartComponent  -->
<g id="node48" class="node">
<title>StackedBarChartComponent </title>
<polygon fill="#fb8072" stroke="black" points="2776.46,-252 2595.54,-252 2595.54,-216 2776.46,-216 2776.46,-252"/>
<text text-anchor="middle" x="2686" y="-229.8" font-family="Times,serif" font-size="14.00">StackedBarChartComponent </text>
</g>
<!-- NuiDashboardsModule&#45;&gt;StackedBarChartComponent  -->
<g id="edge47" class="edge">
<title>NuiDashboardsModule&#45;&gt;StackedBarChartComponent </title>
<path fill="none" stroke="black" stroke-dasharray="5,2" d="M2899.63,-186C2841.14,-186 2768.98,-186 2768.98,-186 2768.98,-186 2768.98,-205.85 2768.98,-205.85"/>
<polygon fill="black" stroke="black" points="2765.48,-205.85 2768.98,-215.85 2772.48,-205.85 2765.48,-205.85"/>
</g>
<!-- StackedPercentageAreaChartComponent  -->
<g id="node49" class="node">
<title>StackedPercentageAreaChartComponent </title>
<polygon fill="#fb8072" stroke="black" points="2577.36,-252 2328.64,-252 2328.64,-216 2577.36,-216 2577.36,-252"/>
<text text-anchor="middle" x="2453" y="-229.8" font-family="Times,serif" font-size="14.00">StackedPercentageAreaChartComponent </text>
</g>
<!-- NuiDashboardsModule&#45;&gt;StackedPercentageAreaChartComponent  -->
<g id="edge48" class="edge">
<title>NuiDashboardsModule&#45;&gt;StackedPercentageAreaChartComponent </title>
<path fill="none" stroke="black" stroke-dasharray="5,2" d="M2899.68,-185C2767.69,-185 2503.73,-185 2503.73,-185 2503.73,-185 2503.73,-205.75 2503.73,-205.75"/>
<polygon fill="black" stroke="black" points="2500.23,-205.75 2503.73,-215.75 2507.23,-205.75 2500.23,-205.75"/>
</g>
<!-- StatusBarChartComponent  -->
<g id="node50" class="node">
<title>StatusBarChartComponent </title>
<polygon fill="#fb8072" stroke="black" points="2310.37,-252 2139.63,-252 2139.63,-216 2310.37,-216 2310.37,-252"/>
<text text-anchor="middle" x="2225" y="-229.8" font-family="Times,serif" font-size="14.00">StatusBarChartComponent </text>
</g>
<!-- NuiDashboardsModule&#45;&gt;StatusBarChartComponent  -->
<g id="edge49" class="edge">
<title>NuiDashboardsModule&#45;&gt;StatusBarChartComponent </title>
<path fill="none" stroke="black" stroke-dasharray="5,2" d="M2899.72,-184C2720.18,-184 2272.85,-184 2272.85,-184 2272.85,-184 2272.85,-205.95 2272.85,-205.95"/>
<polygon fill="black" stroke="black" points="2269.35,-205.95 2272.85,-215.95 2276.35,-205.95 2269.35,-205.95"/>
</g>
<!-- TableWidgetComponent  -->
<g id="node51" class="node">
<title>TableWidgetComponent </title>
<polygon fill="#fb8072" stroke="black" points="2121.92,-252 1964.08,-252 1964.08,-216 2121.92,-216 2121.92,-252"/>
<text text-anchor="middle" x="2043" y="-229.8" font-family="Times,serif" font-size="14.00">TableWidgetComponent </text>
</g>
<!-- NuiDashboardsModule&#45;&gt;TableWidgetComponent  -->
<g id="edge50" class="edge">
<title>NuiDashboardsModule&#45;&gt;TableWidgetComponent </title>
<path fill="none" stroke="black" stroke-dasharray="5,2" d="M2899.58,-183C2680.59,-183 2047.14,-183 2047.14,-183 2047.14,-183 2047.14,-205.88 2047.14,-205.88"/>
<polygon fill="black" stroke="black" points="2043.64,-205.88 2047.14,-215.88 2050.64,-205.88 2043.64,-205.88"/>
</g>
<!-- TilesComponent  -->
<g id="node52" class="node">
<title>TilesComponent </title>
<polygon fill="#fb8072" stroke="black" points="1946.33,-252 1833.67,-252 1833.67,-216 1946.33,-216 1946.33,-252"/>
<text text-anchor="middle" x="1890" y="-229.8" font-family="Times,serif" font-size="14.00">TilesComponent </text>
</g>
<!-- NuiDashboardsModule&#45;&gt;TilesComponent  -->
<g id="edge51" class="edge">
<title>NuiDashboardsModule&#45;&gt;TilesComponent </title>
<path fill="none" stroke="black" stroke-dasharray="5,2" d="M2899.84,-181C2656.55,-181 1890,-181 1890,-181 1890,-181 1890,-205.76 1890,-205.76"/>
<polygon fill="black" stroke="black" points="1886.5,-205.76 1890,-215.76 1893.5,-205.76 1886.5,-205.76"/>
</g>
<!-- TimeframeSelectionComponent  -->
<g id="node53" class="node">
<title>TimeframeSelectionComponent </title>
<polygon fill="#fb8072" stroke="black" points="1815.62,-252 1616.38,-252 1616.38,-216 1815.62,-216 1815.62,-252"/>
<text text-anchor="middle" x="1716" y="-229.8" font-family="Times,serif" font-size="14.00">TimeframeSelectionComponent </text>
</g>
<!-- NuiDashboardsModule&#45;&gt;TimeframeSelectionComponent  -->
<g id="edge52" class="edge">
<title>NuiDashboardsModule&#45;&gt;TimeframeSelectionComponent </title>
<path fill="none" stroke="black" stroke-dasharray="5,2" d="M2899.72,-180C2643.27,-180 1801.56,-180 1801.56,-180 1801.56,-180 1801.56,-205.72 1801.56,-205.72"/>
<polygon fill="black" stroke="black" points="1798.06,-205.72 1801.56,-215.72 1805.06,-205.72 1798.06,-205.72"/>
</g>
<!-- TimeseriesWidgetComponent  -->
<g id="node54" class="node">
<title>TimeseriesWidgetComponent </title>
<polygon fill="#fb8072" stroke="black" points="1598.96,-252 1411.04,-252 1411.04,-216 1598.96,-216 1598.96,-252"/>
<text text-anchor="middle" x="1505" y="-229.8" font-family="Times,serif" font-size="14.00">TimeseriesWidgetComponent </text>
</g>
<!-- NuiDashboardsModule&#45;&gt;TimeseriesWidgetComponent  -->
<g id="edge53" class="edge">
<title>NuiDashboardsModule&#45;&gt;TimeseriesWidgetComponent </title>
<path fill="none" stroke="black" stroke-dasharray="5,2" d="M2899.64,-179C2605.04,-179 1523.78,-179 1523.78,-179 1523.78,-179 1523.78,-205.99 1523.78,-205.99"/>
<polygon fill="black" stroke="black" points="1520.28,-205.99 1523.78,-215.99 1527.28,-205.99 1520.28,-205.99"/>
</g>
<!-- WidgetBodyComponent  -->
<g id="node55" class="node">
<title>WidgetBodyComponent </title>
<polygon fill="#fb8072" stroke="black" points="1393.38,-252 1236.62,-252 1236.62,-216 1393.38,-216 1393.38,-252"/>
<text text-anchor="middle" x="1315" y="-229.8" font-family="Times,serif" font-size="14.00">WidgetBodyComponent </text>
</g>
<!-- NuiDashboardsModule&#45;&gt;WidgetBodyComponent  -->
<g id="edge54" class="edge">
<title>NuiDashboardsModule&#45;&gt;WidgetBodyComponent </title>
<path fill="none" stroke="black" stroke-dasharray="5,2" d="M2899.65,-178C2581.09,-178 1333.69,-178 1333.69,-178 1333.69,-178 1333.69,-205.97 1333.69,-205.97"/>
<polygon fill="black" stroke="black" points="1330.19,-205.97 1333.69,-215.97 1337.19,-205.97 1330.19,-205.97"/>
</g>
<!-- WidgetBodyContentComponent  -->
<g id="node56" class="node">
<title>WidgetBodyContentComponent </title>
<polygon fill="#fb8072" stroke="black" points="1218.21,-252 1017.79,-252 1017.79,-216 1218.21,-216 1218.21,-252"/>
<text text-anchor="middle" x="1118" y="-229.8" font-family="Times,serif" font-size="14.00">WidgetBodyContentComponent </text>
</g>
<!-- NuiDashboardsModule&#45;&gt;WidgetBodyContentComponent  -->
<g id="edge55" class="edge">
<title>NuiDashboardsModule&#45;&gt;WidgetBodyContentComponent </title>
<path fill="none" stroke="black" stroke-dasharray="5,2" d="M2899.65,-176C2558.7,-176 1145.19,-176 1145.19,-176 1145.19,-176 1145.19,-205.97 1145.19,-205.97"/>
<polygon fill="black" stroke="black" points="1141.69,-205.97 1145.19,-215.97 1148.69,-205.97 1141.69,-205.97"/>
</g>
<!-- WidgetComponent  -->
<g id="node57" class="node">
<title>WidgetComponent </title>
<polygon fill="#fb8072" stroke="black" points="1000.04,-252 873.96,-252 873.96,-216 1000.04,-216 1000.04,-252"/>
<text text-anchor="middle" x="937" y="-229.8" font-family="Times,serif" font-size="14.00">WidgetComponent </text>
</g>
<!-- NuiDashboardsModule&#45;&gt;WidgetComponent  -->
<g id="edge56" class="edge">
<title>NuiDashboardsModule&#45;&gt;WidgetComponent </title>
<path fill="none" stroke="black" stroke-dasharray="5,2" d="M2899.83,-175C2537.29,-175 950.79,-175 950.79,-175 950.79,-175 950.79,-205.98 950.79,-205.98"/>
<polygon fill="black" stroke="black" points="947.29,-205.98 950.79,-215.98 954.29,-205.98 947.29,-205.98"/>
</g>
<!-- WidgetEditorDirective  -->
<g id="node58" class="node">
<title>WidgetEditorDirective </title>
<polygon fill="#fb8072" stroke="black" points="855.79,-252 708.21,-252 708.21,-216 855.79,-216 855.79,-252"/>
<text text-anchor="middle" x="782" y="-229.8" font-family="Times,serif" font-size="14.00">WidgetEditorDirective </text>
</g>
<!-- NuiDashboardsModule&#45;&gt;WidgetEditorDirective  -->
<g id="edge57" class="edge">
<title>NuiDashboardsModule&#45;&gt;WidgetEditorDirective </title>
<path fill="none" stroke="black" stroke-dasharray="5,2" d="M2899.79,-174C2518.98,-174 782,-174 782,-174 782,-174 782,-206 782,-206"/>
<polygon fill="black" stroke="black" points="778.5,-206 782,-216 785.5,-206 778.5,-206"/>
</g>
<!-- WidgetHeaderComponent  -->
<g id="node59" class="node">
<title>WidgetHeaderComponent </title>
<polygon fill="#fb8072" stroke="black" points="690.45,-252 523.55,-252 523.55,-216 690.45,-216 690.45,-252"/>
<text text-anchor="middle" x="607" y="-229.8" font-family="Times,serif" font-size="14.00">WidgetHeaderComponent </text>
</g>
<!-- NuiDashboardsModule&#45;&gt;WidgetHeaderComponent  -->
<g id="edge58" class="edge">
<title>NuiDashboardsModule&#45;&gt;WidgetHeaderComponent </title>
<path fill="none" stroke="black" stroke-dasharray="5,2" d="M2899.86,-173C2508.28,-173 677.33,-173 677.33,-173 677.33,-173 677.33,-205.7 677.33,-205.7"/>
<polygon fill="black" stroke="black" points="673.83,-205.7 677.33,-215.7 680.83,-205.7 673.83,-205.7"/>
</g>
<!-- WidgetSearchComponent  -->
<g id="node60" class="node">
<title>WidgetSearchComponent </title>
<polygon fill="#fb8072" stroke="black" points="506.13,-252 341.87,-252 341.87,-216 506.13,-216 506.13,-252"/>
<text text-anchor="middle" x="424" y="-229.8" font-family="Times,serif" font-size="14.00">WidgetSearchComponent </text>
</g>
<!-- NuiDashboardsModule&#45;&gt;WidgetSearchComponent  -->
<g id="edge59" class="edge">
<title>NuiDashboardsModule&#45;&gt;WidgetSearchComponent </title>
<path fill="none" stroke="black" stroke-dasharray="5,2" d="M2899.73,-171C2484.46,-171 444.96,-171 444.96,-171 444.96,-171 444.96,-205.78 444.96,-205.78"/>
<polygon fill="black" stroke="black" points="441.46,-205.78 444.96,-215.78 448.46,-205.78 441.46,-205.78"/>
</g>
<!-- NuiDashboardConfiguratorModule -->
<g id="node30" class="node">
<title>NuiDashboardConfiguratorModule</title>
<polygon fill="#8dd3c7" stroke="black" points="5796.5,-122 5793.5,-126 5772.5,-126 5769.5,-122 5583.5,-122 5583.5,-86 5796.5,-86 5796.5,-122"/>
<text text-anchor="middle" x="5690" y="-99.8" font-family="Times,serif" font-size="14.00">NuiDashboardConfiguratorModule</text>
</g>
<!-- NuiDashboardConfiguratorModule&#45;&gt;NuiDashboardsModule -->
<g id="edge29" class="edge">
<title>NuiDashboardConfiguratorModule&#45;&gt;NuiDashboardsModule</title>
<path fill="none" stroke="black" d="M5598.49,-122.11C5598.49,-141.34 5598.49,-169 5598.49,-169 5598.49,-169 3056.31,-169 3056.31,-169"/>
<polygon fill="black" stroke="black" points="3056.31,-165.5 3046.31,-169 3056.31,-172.5 3056.31,-165.5"/>
</g>
<!-- NuiDashboardsCommonModule -->
<g id="node31" class="node">
<title>NuiDashboardsCommonModule</title>
<polygon fill="#8dd3c7" stroke="black" points="5565.25,-122 5562.25,-126 5541.25,-126 5538.25,-122 5366.75,-122 5366.75,-86 5565.25,-86 5565.25,-122"/>
<text text-anchor="middle" x="5466" y="-99.8" font-family="Times,serif" font-size="14.00">NuiDashboardsCommonModule</text>
</g>
<!-- NuiDashboardsCommonModule&#45;&gt;NuiDashboardsModule -->
<g id="edge30" class="edge">
<title>NuiDashboardsCommonModule&#45;&gt;NuiDashboardsModule</title>
<path fill="none" stroke="black" d="M5408.44,-122.17C5408.44,-141.09 5408.44,-168 5408.44,-168 5408.44,-168 3056.22,-168 3056.22,-168"/>
<polygon fill="black" stroke="black" points="3056.22,-164.5 3046.22,-168 3056.22,-171.5 3056.22,-164.5"/>
</g>
<!-- NuiPizzagnaModule -->
<g id="node32" class="node">
<title>NuiPizzagnaModule</title>
<polygon fill="#8dd3c7" stroke="black" points="5348.58,-122 5345.58,-126 5324.58,-126 5321.58,-122 5217.42,-122 5217.42,-86 5348.58,-86 5348.58,-122"/>
<text text-anchor="middle" x="5283" y="-99.8" font-family="Times,serif" font-size="14.00">NuiPizzagnaModule</text>
</g>
<!-- NuiPizzagnaModule&#45;&gt;NuiDashboardsModule -->
<g id="edge31" class="edge">
<title>NuiPizzagnaModule&#45;&gt;NuiDashboardsModule</title>
<path fill="none" stroke="black" d="M5283,-122.27C5283,-140.56 5283,-166 5283,-166 5283,-166 3056.27,-166 3056.27,-166"/>
<polygon fill="black" stroke="black" points="3056.27,-162.5 3046.27,-166 3056.27,-169.5 3056.27,-162.5"/>
</g>
<!-- RefresherSettingsService -->
<g id="node61" class="node">
<title>RefresherSettingsService</title>
<ellipse fill="#fdb462" stroke="black" cx="5930" cy="-104" rx="108.78" ry="18"/>
<text text-anchor="middle" x="5930" y="-99.8" font-family="Times,serif" font-size="14.00">RefresherSettingsService</text>
</g>
<!-- RefresherSettingsService&#45;&gt;NuiDashboardsModule -->
<g id="edge60" class="edge">
<title>RefresherSettingsService&#45;&gt;NuiDashboardsModule</title>
<path fill="none" stroke="black" d="M5930,-122.03C5930,-141.58 5930,-170 5930,-170 5930,-170 3056.46,-170 3056.46,-170"/>
<polygon fill="black" stroke="black" points="3056.46,-166.5 3046.46,-170 3056.46,-173.5 3056.46,-166.5"/>
</g>
</g>
</svg>
